<?xml version="1.0" encoding="UTF-8"?>
<svg height="100%" width="100%" xmlns="http://www.w3.org/2000/svg">
	<defs>
		<font horiz-adv-x="542" id="web">
			<font-face alphabetic="0" ascent="938" descent="-259" font-family="" panose-1="2 11 5 3 2 2 3 5 2 3"/>
			<missing-glyph d="M10 680H467Q477 680 477 670V10Q477 0 467 0H10Q0 0 0 10V670Q0 680 10 680ZM55 633Q49 633 49 627V53Q49 47 55 47H422Q428 47 428 53V627Q428 633 422 633ZM233 562Q283 562 316 530T349 451Q349 405 317 367L274 307Q257 286 257 259V241Q257 231 247 231H208Q198 231 198 241V265Q198 299 218 325L262 385Q290 419 290 451Q290 476 273 492T231 509Q178 509 166 455Q164 445 154 446L117 452Q107 454 109 463Q118 508 150 535T233 562ZM205 183H250Q260 183 260 173V124Q260 114 250 114H205Q195 114 195 124V173Q195 183 205 183Z" horiz-adv-x="477"/>
			<glyph d="" horiz-adv-x="240" unicode=" "/>
			<glyph d="M107 680H181Q191 680 191 670L175 194Q175 184 165 184H123Q113 184 113 194L97 670Q97 680 107 680ZM106 106H182Q192 106 192 96V10Q192 0 182 0H106Q96 0 96 10V96Q96 106 106 106Z" horiz-adv-x="288" unicode="!"/>
			<glyph d="M208 680H252Q262 680 262 670V513Q262 503 252 503H208Q198 503 198 513V670Q198 680 208 680ZM77 680H121Q131 680 131 670V513Q131 503 121 503H77Q67 503 67 513V670Q67 680 77 680Z" horiz-adv-x="329" unicode="&quot;"/>
			<glyph d="M180 680H225Q236 680 234 670L208 479H341L367 670Q369 680 378 680H423Q434 680 432 670L406 479H483Q493 479 493 469V427Q493 417 483 417H397L378 277H457Q467 277 467 267V224Q467 214 457 214H370L342 10Q340 0 331 0H286Q275 0 277 10L305 214H172L144 10Q142 0 133 0H88Q77 0 79 10L107 214H34Q24 214 24 224V267Q24 277 34 277H115L134 417H59Q49 417 49 427V469Q49 479 59 479H143L169 670Q171 680 180 680ZM199 417L180 277H313L332 417Z" horiz-adv-x="517" unicode="#"/>
			<glyph d="M262 751H291Q301 751 301 741V690Q384 683 450 640Q457 634 452 626L420 577Q414 569 406 574Q353 605 301 611V381Q483 350 483 195Q483 112 434 57T301 -8V-61Q301 -71 291 -71H262Q252 -71 252 -61V-11Q144 -7 61 56Q58 58 57 62T60 70L97 120Q103 127 111 121Q179 72 252 67V307Q163 323 117 371T72 493Q72 575 121 628T252 690V741Q252 751 262 751ZM252 611Q208 605 181 575T154 500Q154 414 252 390ZM301 298V70Q347 78 374 109T401 190Q401 275 301 298Z" unicode="$"/>
			<glyph d="M568 691H616Q620 691 621 688T621 681L226 -1Q220 -11 211 -11H163Q159 -11 157 -8T157 -1L552 681Q558 691 568 691ZM198 688Q240 688 270 667T313 611Q321 586 321 509Q321 432 313 407Q301 372 270 351T198 330Q156 330 125 351T83 407Q75 432 75 509Q75 586 83 611Q95 646 125 667T198 688ZM198 630Q156 630 144 595Q139 578 139 509Q139 440 144 423Q156 388 198 388Q240 388 252 423Q257 440 257 509Q257 578 252 595Q240 630 198 630ZM580 349Q622 349 652 328T695 272Q703 247 703 170Q703 93 695 68Q683 33 652 12T580 -9Q538 -9 507 12T465 68Q457 93 457 170Q457 247 465 272Q477 307 507 328T580 349ZM580 291Q538 291 526 256Q521 239 521 170Q521 101 526 84Q538 49 580 49Q622 49 634 84Q639 101 639 170Q639 239 634 256Q622 291 580 291Z" horiz-adv-x="778" unicode="%"/>
			<glyph d="M276 691Q345 691 388 648T432 545Q432 512 413 474T311 369L440 203L509 288Q515 296 523 290L562 256Q570 250 564 242L486 143L519 100Q539 76 559 76H574Q584 76 584 66V10Q584 0 574 0H547Q524 0 504 6T460 47L433 82Q389 34 345 11T249 -11Q165 -11 117 38T70 167Q70 208 94 258T205 380Q157 442 138 476T120 545Q120 608 164 649T276 691ZM276 620Q241 620 221 599T201 546Q201 530 210 510T267 429Q307 460 330 487T354 547Q354 578 332 599T276 620ZM250 321Q197 279 173 244T149 172Q149 122 177 92T255 63Q281 63 312 76T388 141Z" horiz-adv-x="633" unicode="&amp;"/>
			<glyph d="M77 680H121Q131 680 131 670V513Q131 503 121 503H77Q67 503 67 513V670Q67 680 77 680Z" horiz-adv-x="198" unicode="'"/>
			<glyph d="M198 740H233Q244 740 239 730Q194 641 169 535T144 328Q144 228 169 121T239 -74Q244 -84 233 -84H198Q189 -84 182 -74Q125 14 94 119T63 328Q63 431 94 537T182 730Q189 740 198 740Z" horiz-adv-x="285" unicode="("/>
			<glyph d="M52 740H87Q96 740 103 730Q160 643 191 537T222 328Q222 225 191 119T103 -74Q96 -84 87 -84H52Q41 -84 46 -74Q90 14 115 121T141 328Q141 429 116 535T46 730Q41 740 52 740Z" horiz-adv-x="285" unicode=")"/>
			<glyph d="M156 680H186Q196 680 196 670L195 580L272 626Q280 633 286 623L301 595Q307 586 297 581L221 537L297 495Q307 490 301 481L286 453Q280 443 272 450L195 495L196 406Q196 396 186 396H156Q146 396 146 406V495L70 450Q62 443 56 453L41 481Q35 490 45 495L121 537L45 581Q35 586 41 595L56 623Q62 633 70 626L146 580V670Q146 680 156 680Z" horiz-adv-x="342" unicode="*"/>
			<glyph d="M243 487H299Q309 487 309 477V319Q309 313 315 313H471Q481 313 481 303V249Q481 239 471 239H315Q309 239 309 233V75Q309 65 299 65H243Q233 65 233 75V233Q233 239 227 239H71Q61 239 61 249V303Q61 313 71 313H227Q233 313 233 319V477Q233 487 243 487Z" unicode="+"/>
			<glyph d="M80 106H150Q160 106 160 96V3Q160 -11 154 -19L92 -101Q86 -108 79 -108Q70 -108 70 -99V96Q70 106 80 106Z" horiz-adv-x="230" unicode=","/>
			<glyph d="M57 305H323Q333 305 333 295V237Q333 227 323 227H57Q47 227 47 237V295Q47 305 57 305Z" horiz-adv-x="380" unicode="-"/>
			<glyph d="M80 106H156Q166 106 166 96V10Q166 0 156 0H80Q70 0 70 10V96Q70 106 80 106Z" horiz-adv-x="236" unicode="."/>
			<glyph d="M295 691H349Q359 691 356 681L134 -1Q131 -11 121 -11H68Q58 -11 61 -1L282 681Q285 691 295 691Z" horiz-adv-x="417" unicode="/"/>
			<glyph d="M271 691Q340 691 388 657T457 562Q472 513 472 340Q472 167 457 118Q437 57 388 23T271 -11Q202 -11 153 23T85 118Q70 167 70 340Q70 513 85 562Q105 623 153 657T271 691ZM271 613Q192 613 168 545Q157 512 157 340Q157 168 168 135Q192 67 271 67Q350 67 374 135Q385 168 385 340Q385 512 374 545Q350 613 271 613Z" unicode="0"/>
			<glyph d="M258 680H318Q328 680 328 670V10Q328 0 318 0H254Q244 0 244 10V574H242L129 495Q118 488 118 501V575Q118 583 125 589L242 674Q250 680 258 680Z" unicode="1"/>
			<glyph d="M272 691Q359 691 411 638T463 506Q463 427 397 343L187 79V78H453Q463 78 463 68V10Q463 0 453 0H89Q79 0 79 10V62Q79 70 84 76L329 388Q377 449 377 506Q377 552 347 582T270 613Q223 613 195 586T159 513Q157 503 148 505L87 518Q78 521 79 530Q86 596 137 643T272 691Z" unicode="2"/>
			<glyph d="M267 691Q355 691 407 639T459 507Q459 471 441 431T375 361V359Q411 343 441 298T472 190Q472 101 415 45T269 -11Q189 -11 135 29T67 133Q66 142 75 145L136 160Q145 163 148 153Q160 117 190 92T269 67Q322 67 354 101T386 187Q386 243 351 278T261 313H231Q221 313 221 323V381Q221 391 231 391H260Q310 391 341 422T373 505Q373 552 343 582T264 613Q220 613 193 590T156 530Q153 521 144 522L84 537Q74 539 76 549Q87 609 138 650T267 691Z" unicode="3"/>
			<glyph d="M290 680H357Q368 680 364 671L147 198V196H327Q333 196 333 202V380Q333 390 343 390H407Q417 390 417 380V202Q417 196 423 196H485Q495 196 495 186V129Q495 119 485 119H423Q417 119 417 113V10Q417 0 407 0H343Q333 0 333 10V113Q333 119 327 119H63Q53 119 53 129V184L56 196L276 672Q280 680 290 680Z" unicode="4"/>
			<glyph d="M106 680H448Q458 680 458 670V612Q458 602 448 602H180Q174 602 174 596V405H177Q190 422 220 435T289 449Q351 449 395 420T457 337Q472 289 472 219Q472 151 458 109Q440 53 390 21T277 -11Q200 -11 148 28T86 131Q84 141 94 143L153 158Q163 159 166 150Q174 113 203 90T277 67Q312 67 339 84T377 134Q386 158 386 219Q386 278 376 305Q354 371 277 371Q239 371 212 352T177 308Q173 298 165 298H106Q96 298 96 308V670Q96 680 106 680Z" unicode="5"/>
			<glyph d="M294 680H362Q373 680 368 670L216 388L218 386Q241 402 287 402Q369 402 424 346T480 200Q480 103 421 46T271 -11Q180 -11 121 45T63 197Q63 269 108 352L281 673Q285 680 294 680ZM271 324Q217 324 183 288T149 196Q149 139 183 103T271 67Q325 67 359 103T394 196Q394 252 359 288T271 324Z" unicode="6"/>
			<glyph d="M96 680H459Q469 680 469 670V608L467 598L233 9Q229 0 220 0H153Q142 0 147 11L379 599V602H172Q166 602 166 596V511Q166 501 156 501H96Q86 501 86 511V670Q86 680 96 680Z" unicode="7"/>
			<glyph d="M271 691Q359 691 412 636T465 503Q465 455 442 416T385 359V357Q427 334 454 290T481 189Q481 100 422 44T271 -11Q178 -11 119 44T61 189Q61 246 88 290T157 357V359Q123 378 100 416T77 503Q77 582 130 636T271 691ZM271 613Q224 613 193 581T163 505Q163 460 193 428T271 396Q319 396 349 428T379 505Q379 550 348 581T271 613ZM271 318Q216 318 181 282T147 193Q147 139 182 103T271 67Q326 67 360 103T395 193Q395 247 360 282T271 318Z" unicode="8"/>
			<glyph d="M271 691Q362 691 420 634T479 483Q479 411 434 328L261 7Q258 0 248 0H180Q169 0 174 10L326 292L324 294Q301 278 255 278Q173 278 117 333T62 480Q62 577 121 634T271 691ZM271 613Q217 613 182 576T148 484Q148 428 182 392T271 356Q325 356 359 392T393 484Q393 541 359 577T271 613Z" unicode="9"/>
			<glyph d="M84 479H160Q170 479 170 469V383Q170 373 160 373H84Q74 373 74 383V469Q74 479 84 479ZM84 106H160Q170 106 170 96V10Q170 0 160 0H84Q74 0 74 10V96Q74 106 84 106Z" horiz-adv-x="244" unicode=":"/>
			<glyph d="M84 479H160Q170 479 170 469V383Q170 373 160 373H84Q74 373 74 383V469Q74 479 84 479ZM87 106H157Q167 106 167 96V3Q167 -10 161 -18L99 -101Q93 -108 86 -108Q77 -108 77 -99V96Q77 106 87 106Z" horiz-adv-x="244" unicode=";"/>
			<glyph d="M471 477Q481 480 481 471V409Q481 400 471 396L170 277V275L471 156Q481 152 481 143V81Q481 72 471 75L71 239Q61 242 61 252V299Q61 309 71 313Z" unicode="&lt;"/>
			<glyph d="M71 413H471Q481 413 481 403V349Q481 339 471 339H71Q61 339 61 349V403Q61 413 71 413ZM71 213H471Q481 213 481 203V149Q481 139 471 139H71Q61 139 61 149V203Q61 213 71 213Z" unicode="="/>
			<glyph d="M71 477L471 313Q481 309 481 299V252Q481 242 471 239L71 75Q61 72 61 81V143Q61 152 71 156L372 275V277L71 396Q61 400 61 409V471Q61 480 71 477Z" unicode="&gt;"/>
			<glyph d="M229 691Q309 691 359 643T410 521Q410 495 401 466T359 391L292 299Q266 264 266 224V192Q266 182 256 182H190Q180 182 180 192V233Q180 282 210 323L277 415Q297 443 310 466T324 520Q324 562 297 587T227 613Q186 613 159 588T123 518Q121 508 112 510L49 521Q39 523 41 532Q52 605 102 648T229 691ZM185 106H261Q271 106 271 96V10Q271 0 261 0H185Q175 0 175 10V96Q175 106 185 106Z" horiz-adv-x="456" unicode="?"/>
			<glyph d="M442 660Q505 660 572 641T698 575T796 450T836 268Q836 162 791 108T677 55Q635 55 603 74T558 126H557Q522 56 422 56Q312 56 279 154Q266 198 266 263Q266 328 279 372Q312 470 419 470Q450 470 483 458T534 416H536V451Q536 460 544 460H597Q606 460 606 451V205Q606 164 626 142T677 120Q765 120 765 268Q765 413 676 504T442 595Q295 595 206 504T118 268Q118 121 206 30T442 -60Q564 -60 658 -14Q668 -9 672 -18L688 -58Q693 -66 684 -71Q584 -125 442 -125Q379 -125 311 -106T177 -34T79 101T47 268Q47 352 76 425T157 550T283 631T442 660ZM437 404Q368 404 347 342Q338 315 338 263Q338 211 347 184Q368 122 437 122Q506 122 528 184Q536 208 536 263Q536 318 528 342Q506 404 437 404Z" horiz-adv-x="887" unicode="@"/>
			<glyph d="M272 680H337Q347 680 350 670L583 10Q586 0 576 0H506Q496 0 493 10L441 158H166L114 10Q110 0 101 0H31Q21 0 24 10L260 670Q263 680 272 680ZM303 549L195 240H412L305 549Z" horiz-adv-x="607" unicode="A"/>
			<glyph d="M94 680H335Q435 680 487 632T540 501Q540 445 515 407T449 353V351Q488 340 520 298T552 194Q552 100 494 50T330 0H94Q84 0 84 10V670Q84 680 94 680ZM179 599Q173 599 173 593V392Q173 386 179 386H333Q388 386 420 415T452 492Q452 540 420 569T333 599ZM179 305Q173 305 173 299V87Q173 81 179 81H338Q397 81 430 111T463 193Q463 243 430 274T338 305Z" horiz-adv-x="604" unicode="B"/>
			<glyph d="M304 691Q378 691 435 654T522 554Q525 545 518 541L458 512Q448 507 444 517Q398 608 304 608Q197 608 163 508Q150 468 150 340Q150 212 163 172Q197 72 304 72Q398 72 444 163Q448 173 458 168L518 139Q525 135 522 126Q493 62 435 25T304 -11Q220 -11 161 29T78 149Q60 203 60 340Q60 477 78 531Q103 610 161 650T304 691Z" horiz-adv-x="566" unicode="C"/>
			<glyph d="M94 680H323Q498 680 545 535Q563 480 563 340Q563 201 545 145Q498 0 323 0H94Q84 0 84 10V670Q84 680 94 680ZM179 597Q173 597 173 591V89Q173 83 179 83H304Q428 83 459 176Q473 215 473 340Q473 465 459 504Q428 597 304 597Z" horiz-adv-x="623" unicode="D"/>
			<glyph d="M94 680H503Q513 680 513 670V607Q513 597 503 597H179Q173 597 173 591V391Q173 385 179 385H454Q464 385 464 375V312Q464 302 454 302H179Q173 302 173 296V89Q173 83 179 83H503Q513 83 513 73V10Q513 0 503 0H94Q84 0 84 10V670Q84 680 94 680Z" horiz-adv-x="563" unicode="E"/>
			<glyph d="M94 680H503Q513 680 513 670V607Q513 597 503 597H179Q173 597 173 591V384Q173 378 179 378H454Q464 378 464 368V305Q464 295 454 295H179Q173 295 173 289V10Q173 0 163 0H94Q84 0 84 10V670Q84 680 94 680Z" horiz-adv-x="556" unicode="F"/>
			<glyph d="M311 691Q397 691 454 652T537 556Q542 547 534 542L474 513Q465 508 460 518Q411 608 311 608Q197 608 164 507Q150 468 150 340Q150 212 164 173Q197 72 311 72Q363 72 402 98T457 170Q470 213 470 277Q470 283 464 283H332Q322 283 322 293V351Q322 361 332 361H549Q559 361 559 351V300Q559 206 542 150Q517 73 456 31T311 -11Q224 -11 163 29T78 148Q60 207 60 340Q60 474 78 532Q103 610 163 650T311 691Z" horiz-adv-x="619" unicode="G"/>
			<glyph d="M94 680H163Q173 680 173 670V391Q173 385 179 385H474Q480 385 480 391V670Q480 680 490 680H559Q569 680 569 670V10Q569 0 559 0H490Q480 0 480 10V296Q480 302 474 302H179Q173 302 173 296V10Q173 0 163 0H94Q84 0 84 10V670Q84 680 94 680Z" horiz-adv-x="653" unicode="H"/>
			<glyph d="M94 680H163Q173 680 173 670V10Q173 0 163 0H94Q84 0 84 10V670Q84 680 94 680Z" horiz-adv-x="257" unicode="I"/>
			<glyph d="M333 680H402Q412 680 412 670V218Q412 107 353 48T194 -11Q146 -11 102 9T33 59Q26 66 33 73L83 116Q90 122 98 114Q142 72 197 72Q323 72 323 218V670Q323 680 333 680Z" horiz-adv-x="491" unicode="J"/>
			<glyph d="M94 680H163Q173 680 173 670V316L462 671Q468 680 478 680H560Q564 680 565 676T564 668L352 413L585 11Q588 7 586 3T579 0H499Q490 0 485 9L294 344L173 198V10Q173 0 163 0H94Q84 0 84 10V670Q84 680 94 680Z" horiz-adv-x="616" unicode="K"/>
			<glyph d="M94 680H163Q173 680 173 670V89Q173 83 179 83H503Q513 83 513 73V10Q513 0 503 0H94Q84 0 84 10V670Q84 680 94 680Z" horiz-adv-x="538" unicode="L"/>
			<glyph d="M94 680H159Q171 680 175 670L378 212H381L580 670Q584 680 596 680H661Q671 680 671 670V10Q671 0 661 0H598Q588 0 588 10V483H585L416 109Q411 97 398 97H358Q344 97 339 109L170 483H167V10Q167 0 157 0H94Q84 0 84 10V670Q84 680 94 680Z" horiz-adv-x="755" unicode="M"/>
			<glyph d="M94 680H158Q170 680 175 670L483 160H487V670Q487 680 497 680H560Q570 680 570 670V10Q570 0 560 0H496Q484 0 479 10L170 518H167V10Q167 0 157 0H94Q84 0 84 10V670Q84 680 94 680Z" horiz-adv-x="654" unicode="N"/>
			<glyph d="M309 691Q396 691 455 650T541 532Q559 478 559 340Q559 202 541 148Q515 70 455 29T309 -11Q223 -11 163 29T78 148Q60 202 60 340Q60 478 78 532Q104 610 163 650T309 691ZM309 608Q198 608 165 507Q150 460 150 340Q150 220 165 173Q198 72 309 72Q421 72 454 173Q469 220 469 340Q469 460 454 507Q421 608 309 608Z" horiz-adv-x="619" unicode="O"/>
			<glyph d="M94 680H336Q434 680 493 624T552 477Q552 385 493 329T336 274H179Q173 274 173 268V10Q173 0 163 0H94Q84 0 84 10V670Q84 680 94 680ZM179 597Q173 597 173 591V363Q173 357 179 357H331Q393 357 428 389T464 477Q464 532 428 564T331 597Z" horiz-adv-x="592" unicode="P"/>
			<glyph d="M309 691Q396 691 455 650T541 532Q559 478 559 340Q559 202 541 148Q532 121 515 92L586 22Q592 16 586 8L542 -39Q535 -46 527 -39L457 30Q398 -11 309 -11Q223 -11 163 29T78 148Q60 202 60 340Q60 478 78 532Q104 610 163 650T309 691ZM309 608Q198 608 165 507Q150 460 150 340Q150 220 165 173Q198 72 309 72Q361 72 395 93L321 168Q315 174 321 182L365 230Q373 236 379 230L449 159L454 173Q469 220 469 340Q469 460 454 507Q421 608 309 608Z" horiz-adv-x="619" unicode="Q"/>
			<glyph d="M94 680H340Q435 680 494 626T553 484Q553 417 516 367T419 299L564 12Q567 8 565 4T558 0H478Q469 0 465 10L329 288H179Q173 288 173 282V10Q173 0 163 0H94Q84 0 84 10V670Q84 680 94 680ZM179 597Q173 597 173 591V377Q173 371 179 371H338Q396 371 430 401T464 484Q464 536 430 566T338 597Z" horiz-adv-x="617" unicode="R"/>
			<glyph d="M294 691Q337 691 394 677T501 628Q509 622 503 614L469 559Q463 552 455 557Q373 608 291 608Q231 608 196 577T162 498Q162 408 305 389L338 384Q538 357 538 194Q538 102 473 45T290 -11Q222 -11 156 13T51 74Q44 81 50 89L94 141Q100 148 108 142Q196 72 298 72Q367 72 407 104T448 188Q448 234 416 261T306 299L272 304Q72 331 72 492Q72 582 132 636T294 691Z" horiz-adv-x="591" unicode="S"/>
			<glyph d="M32 680H505Q515 680 515 670V607Q515 597 505 597H319Q313 597 313 591V10Q313 0 303 0H234Q224 0 224 10V591Q224 597 218 597H32Q22 597 22 607V670Q22 680 32 680Z" horiz-adv-x="537" unicode="T"/>
			<glyph d="M89 680H158Q168 680 168 670V238Q168 158 209 115T320 72Q389 72 430 115T471 238V670Q471 680 481 680H550Q560 680 560 670V237Q560 119 496 54T320 -11Q207 -11 143 53T79 237V670Q79 680 89 680Z" horiz-adv-x="639" unicode="U"/>
			<glyph d="M27 680H95Q106 680 109 670L283 145H285L453 670Q456 680 466 680H535Q547 680 542 668L323 10Q320 0 311 0H252Q243 0 240 10L20 668Q16 680 27 680Z" horiz-adv-x="562" unicode="V"/>
			<glyph d="M32 680H98Q109 680 110 670L231 165H233L374 670Q377 680 386 680H437Q446 680 449 670L593 165H595L713 670Q716 680 726 680H791Q801 680 799 670L635 10Q633 0 623 0H568Q560 0 557 10L412 517H410L266 10Q263 0 254 0H199Q190 0 188 10L24 670Q21 680 32 680Z" horiz-adv-x="823" unicode="W"/>
			<glyph d="M47 680H125Q134 680 140 671L278 441H279L418 671Q423 680 432 680H510Q515 680 516 676T516 668L328 354L534 12Q536 8 534 4T528 0H449Q440 0 435 9L279 268H278L122 9Q116 0 107 0H29Q25 0 23 4T24 12L229 354L42 668Q39 672 41 676T47 680Z" horiz-adv-x="558" unicode="X"/>
			<glyph d="M26 680H97Q106 680 112 670L264 379H266L417 670Q421 680 431 680H500Q512 680 508 669L307 278V10Q307 0 297 0H229Q219 0 219 10V278L18 669Q14 680 26 680Z" horiz-adv-x="526" unicode="Y"/>
			<glyph d="M71 680H477Q487 680 487 670V607L483 596L150 84V83H477Q487 83 487 73V10Q487 0 477 0H59Q49 0 49 10V73L53 84L385 596V597H71Q61 597 61 607V670Q61 680 71 680Z" horiz-adv-x="536" unicode="Z"/>
			<glyph d="M90 740H234Q244 740 244 730V682Q244 672 234 672H165Q159 672 159 666V-10Q159 -16 165 -16H234Q244 -16 244 -26V-74Q244 -84 234 -84H90Q80 -84 80 -74V730Q80 740 90 740Z" horiz-adv-x="281" unicode="["/>
			<glyph d="M68 691H121Q131 691 134 681L356 -1Q359 -11 349 -11H295Q285 -11 282 -1L61 681Q58 691 68 691Z" horiz-adv-x="417" unicode="\"/>
			<glyph d="M47 740H191Q201 740 201 730V-74Q201 -84 191 -84H47Q37 -84 37 -74V-26Q37 -16 47 -16H116Q122 -16 122 -10V666Q122 672 116 672H47Q37 672 37 682V730Q37 740 47 740Z" horiz-adv-x="281" unicode="]"/>
			<glyph d="M249 680H293Q302 680 307 670L480 282Q485 272 474 272H416Q406 272 402 282L272 574H270L140 282Q136 272 127 272H68Q57 272 62 282L235 670Q240 680 249 680Z" unicode="^"/>
			<glyph d="M0 -76H476V-132H0Z" horiz-adv-x="476" unicode="_"/>
			<glyph d="M133 700H199Q211 700 217 690L292 567Q297 557 286 557H239Q228 557 220 567L128 690Q125 693 127 696T133 700Z" horiz-adv-x="421" unicode="`"/>
			<glyph d="M253 490Q342 490 391 458T441 327V10Q441 0 431 0H372Q362 0 362 10V52H361Q344 24 307 6T219 -11Q148 -11 103 26T58 133Q58 207 107 244T245 281H354Q360 281 360 287V322Q360 371 335 393T245 416Q177 416 129 382Q120 375 115 383L88 429Q84 437 90 443Q150 490 253 490ZM258 214Q139 214 139 136Q139 100 165 80T239 61Q295 61 327 86T360 155V208Q360 214 354 214Z" horiz-adv-x="519" unicode="a"/>
			<glyph d="M92 680H156Q166 680 166 670V424H167Q207 490 303 490Q365 490 407 460T468 375Q485 325 485 240Q485 154 468 104Q450 48 407 18T303 -11Q208 -11 167 56H166V10Q166 0 156 0H92Q82 0 82 10V670Q82 680 92 680ZM283 412Q201 412 177 340Q166 307 166 240Q166 172 177 140Q201 67 283 67Q363 67 388 140Q399 174 399 240Q399 304 388 340Q363 412 283 412Z" horiz-adv-x="538" unicode="b"/>
			<glyph d="M257 490Q364 490 421 409Q426 401 418 395L374 359Q366 353 360 360Q338 387 314 399T257 412Q174 412 150 337Q139 303 139 240Q139 176 150 142Q174 67 257 67Q283 67 308 76T360 119Q366 126 374 120L418 84Q426 78 421 70Q364 -11 257 -11Q189 -11 138 23T68 118Q53 166 53 240Q53 313 68 361Q88 422 138 456T257 490Z" horiz-adv-x="472" unicode="c"/>
			<glyph d="M382 680H446Q456 680 456 670V10Q456 0 446 0H382Q372 0 372 10V56H371Q330 -11 235 -11Q173 -11 130 18T70 104Q53 154 53 240Q53 325 70 375Q88 431 130 460T235 490Q331 490 371 424H372V670Q372 680 382 680ZM255 412Q175 412 150 340Q139 304 139 240Q139 174 150 140Q175 67 255 67Q337 67 361 140Q372 172 372 240Q372 307 361 340Q337 412 255 412Z" horiz-adv-x="538" unicode="d"/>
			<glyph d="M256 490Q324 490 374 455T444 361Q459 315 459 224Q459 214 448 214H145Q139 214 139 208Q139 176 147 150Q176 67 268 67Q345 67 391 120Q399 128 406 122L447 85Q454 79 448 71Q419 34 370 11T261 -11Q189 -11 138 23T69 119Q53 169 53 240Q53 318 68 361Q88 422 138 456T256 490ZM256 416Q216 416 187 396T146 341Q139 320 139 287Q139 281 145 281H367Q373 281 373 287Q373 320 366 341Q354 376 325 396T256 416Z" horiz-adv-x="512" unicode="e"/>
			<glyph d="M244 680H281Q291 680 291 670V612Q291 602 281 602H255Q221 602 201 592T182 530V485Q182 479 188 479H281Q291 479 291 469V421Q291 411 281 411H188Q182 411 182 405V10Q182 0 172 0H108Q98 0 98 10V405Q98 411 92 411H51Q41 411 41 421V469Q41 479 51 479H92Q98 479 98 485V526Q98 599 128 639T244 680Z" horiz-adv-x="318" unicode="f"/>
			<glyph d="M229 490Q326 490 362 424H363V469Q363 479 373 479H437Q447 479 447 469V21Q447 -81 393 -136T238 -191Q189 -191 142 -171T72 -120Q66 -113 73 -106L114 -65Q122 -57 129 -65Q182 -113 242 -113Q363 -113 363 16V72H362Q326 6 229 6Q169 6 127 36T68 122Q52 170 52 248Q52 326 68 374Q86 430 127 460T229 490ZM250 412Q174 412 149 341Q137 304 137 248Q137 191 149 155Q174 83 250 83Q327 83 352 155Q363 188 363 248Q363 307 352 341Q327 412 250 412Z" horiz-adv-x="529" unicode="g"/>
			<glyph d="M92 680H156Q166 680 166 670V425H167Q185 454 220 472T301 490Q378 490 422 441T467 310V10Q467 0 457 0H393Q383 0 383 10V290Q383 348 355 380T276 412Q228 412 197 379T166 295V10Q166 0 156 0H92Q82 0 82 10V670Q82 680 92 680Z" horiz-adv-x="544" unicode="h"/>
			<glyph d="M90 680H158Q168 680 168 670V597Q168 587 158 587H90Q80 587 80 597V670Q80 680 90 680ZM92 479H156Q166 479 166 469V10Q166 0 156 0H92Q82 0 82 10V469Q82 479 92 479Z" horiz-adv-x="248" unicode="i"/>
			<glyph d="M90 680H158Q168 680 168 670V597Q168 587 158 587H90Q80 587 80 597V670Q80 680 90 680ZM92 479H156Q166 479 166 469V-36Q166 -103 136 -141T23 -180H3Q-7 -180 -7 -170V-112Q-7 -102 3 -102H19Q46 -102 64 -92T82 -38V469Q82 479 92 479Z" horiz-adv-x="248" unicode="j"/>
			<glyph d="M92 680H156Q166 680 166 670V247L355 470Q363 479 373 479H447Q451 479 452 476T451 469L304 298L481 10Q483 7 481 3T475 0H401Q391 0 385 10L249 233L166 136V10Q166 0 156 0H92Q82 0 82 10V670Q82 680 92 680Z" horiz-adv-x="511" unicode="k"/>
			<glyph d="M90 680H154Q164 680 164 670V126Q164 104 172 88T212 73H231Q241 73 241 63V5Q241 -5 231 -5H197Q143 -5 111 21T80 121V670Q80 680 90 680Z" horiz-adv-x="277" unicode="l"/>
			<glyph d="M301 490Q399 490 441 415H442Q496 490 597 490Q679 490 723 441T768 310V10Q768 0 758 0H694Q684 0 684 10V290Q684 348 656 380T577 412Q529 412 498 379T467 295V10Q467 0 457 0H393Q383 0 383 10V290Q383 348 355 380T276 412Q228 412 197 379T166 295V10Q166 0 156 0H92Q82 0 82 10V469Q82 479 92 479H156Q166 479 166 469V425H167Q185 454 220 472T301 490Z" horiz-adv-x="845" unicode="m"/>
			<glyph d="M301 490Q378 490 422 441T467 310V10Q467 0 457 0H393Q383 0 383 10V290Q383 348 355 380T276 412Q228 412 197 379T166 295V10Q166 0 156 0H92Q82 0 82 10V469Q82 479 92 479H156Q166 479 166 469V425H167Q185 454 220 472T301 490Z" horiz-adv-x="544" unicode="n"/>
			<glyph d="M258 490Q327 490 377 455T447 361Q463 313 463 240Q463 166 447 118Q428 58 377 23T258 -11Q189 -11 138 23T69 118Q53 166 53 240Q53 313 69 361Q88 421 138 455T258 490ZM258 412Q219 412 190 392T150 337Q139 301 139 240Q139 178 150 142Q162 107 190 87T258 67Q297 67 325 87T366 142Q377 178 377 240Q377 301 366 337Q354 372 325 392T258 412Z" horiz-adv-x="516" unicode="o"/>
			<glyph d="M303 490Q365 490 407 460T468 375Q485 325 485 240Q485 154 468 104Q450 48 407 18T303 -11Q208 -11 167 56H166V-170Q166 -180 156 -180H92Q82 -180 82 -170V469Q82 479 92 479H156Q166 479 166 469V424H167Q207 490 303 490ZM283 412Q201 412 177 340Q166 307 166 240Q166 172 177 140Q201 67 283 67Q363 67 388 140Q399 174 399 240Q399 304 388 340Q363 412 283 412Z" horiz-adv-x="538" unicode="p"/>
			<glyph d="M235 490Q331 490 371 424H372V469Q372 479 382 479H446Q456 479 456 469V-170Q456 -180 446 -180H382Q372 -180 372 -170V56H371Q330 -11 235 -11Q173 -11 130 18T70 104Q53 154 53 240Q53 325 70 375Q88 431 130 460T235 490ZM255 412Q175 412 150 340Q139 304 139 240Q139 174 150 140Q175 67 255 67Q337 67 361 140Q372 172 372 240Q372 307 361 340Q337 412 255 412Z" horiz-adv-x="538" unicode="q"/>
			<glyph d="M294 490Q320 490 347 480T392 454Q399 447 394 440L357 391Q351 383 343 389Q307 412 269 412Q215 412 190 373T166 272V10Q166 0 156 0H92Q82 0 82 10V469Q82 479 92 479H156Q166 479 166 469V420H167Q203 490 294 490Z" horiz-adv-x="410" unicode="r"/>
			<glyph d="M248 490Q347 490 418 437Q426 432 420 423L386 380Q380 373 372 378Q312 417 243 417Q200 417 176 399T152 351Q152 322 173 306T246 286L296 281Q358 275 399 243T440 146Q440 74 389 31T247 -11Q132 -11 49 61Q42 68 49 75L90 119Q97 126 104 119Q132 95 171 79T252 64Q302 64 329 84T357 137Q357 167 337 182T264 204L213 209Q152 216 111 247T70 344Q70 412 117 451T248 490Z" horiz-adv-x="490" unicode="s"/>
			<glyph d="M102 630H166Q176 630 176 620V485Q176 479 182 479H258Q268 479 268 469V421Q268 411 258 411H182Q176 411 176 405V134Q176 108 186 90T237 73H258Q268 73 268 63V5Q268 -5 258 -5H221Q161 -5 126 23T92 131V405Q92 411 86 411H46Q36 411 36 421V469Q36 479 46 479H86Q92 479 92 485V620Q92 630 102 630Z" horiz-adv-x="316" unicode="t"/>
			<glyph d="M85 479H149Q159 479 159 469V190Q159 132 186 99T265 67Q313 67 343 99T373 185V469Q373 479 383 479H447Q457 479 457 469V10Q457 0 447 0H383Q373 0 373 10V55H372Q331 -11 241 -11Q163 -11 119 38T75 170V469Q75 479 85 479Z" horiz-adv-x="539" unicode="u"/>
			<glyph d="M34 479H103Q112 479 116 469L240 125H242L363 469Q366 479 375 479H443Q454 479 451 469L280 10Q277 0 267 0H210Q201 0 198 10L26 469Q23 479 34 479Z" horiz-adv-x="477" unicode="v"/>
			<glyph d="M38 479H106Q115 479 119 469L225 123H227L335 469Q338 479 347 479H399Q409 479 412 469L521 123H523L626 469Q629 479 639 479H707Q717 479 714 469L563 10Q560 0 551 0H494Q485 0 482 10L374 353H372L263 10Q260 0 251 0H193Q184 0 181 10L31 469Q28 479 38 479Z" horiz-adv-x="745" unicode="w"/>
			<glyph d="M51 479H123Q134 479 138 470L239 321H240L343 470Q348 479 357 479H429Q431 479 435 477T436 469L286 250L450 10Q452 6 450 3T443 0H371Q362 0 356 9L240 178H239L123 9Q118 0 108 0H37Q35 0 30 2T30 10L193 250L44 469Q42 473 44 476T51 479Z" horiz-adv-x="480" unicode="x"/>
			<glyph d="M33 479H103Q112 479 115 469L241 123H243L364 469Q367 479 376 479H444Q455 479 452 469L263 -37Q236 -110 204 -145T112 -180H86Q76 -180 76 -170V-112Q76 -102 86 -102H104Q126 -102 146 -90T185 -30L201 14L25 469Q22 479 33 479Z" horiz-adv-x="477" unicode="y"/>
			<glyph d="M78 479H412Q422 479 422 469V413L418 402L157 78V76H412Q422 76 422 66V10Q422 0 412 0H65Q55 0 55 10V63L59 74L322 401V403H78Q68 403 68 413V469Q68 479 78 479Z" horiz-adv-x="477" unicode="z"/>
			<glyph d="M240 740H286Q296 740 296 730V682Q296 672 286 672H257Q212 672 212 623V450Q212 409 201 377T150 331V330Q183 318 197 291T212 211V33Q212 -16 257 -16H286Q296 -16 296 -26V-74Q296 -84 286 -84H240Q133 -84 133 29V211Q133 290 71 292Q61 292 61 302V359Q61 369 71 369Q133 371 133 449V627Q133 740 240 740Z" horiz-adv-x="333" unicode="{"/>
			<glyph d="M119 740H171Q181 740 181 730V-74Q181 -84 171 -84H119Q109 -84 109 -74V730Q109 740 119 740Z" horiz-adv-x="290" unicode="|"/>
			<glyph d="M47 740H93Q200 740 200 627V449Q200 371 262 369Q272 369 272 359V302Q272 292 262 292Q200 290 200 211V29Q200 -84 93 -84H47Q37 -84 37 -74V-26Q37 -16 47 -16H76Q121 -16 121 33V211Q121 252 131 283T183 330V331Q150 343 135 369T121 450V623Q121 672 76 672H47Q37 672 37 682V730Q37 740 47 740Z" horiz-adv-x="333" unicode="}"/>
			<glyph d="M186 344Q233 344 286 307Q330 278 357 278Q401 278 432 332Q437 340 446 334L484 312Q492 307 488 298Q469 257 434 232T356 208Q309 208 256 245Q212 274 185 274Q139 274 110 220Q105 212 96 218L58 240Q50 245 54 254Q73 295 109 319T186 344Z" unicode="~"/>
			<glyph d="" horiz-adv-x="240" unicode=" "/>
			<glyph d="M123 295H165Q175 295 175 285L191 -191Q191 -201 181 -201H107Q97 -201 97 -191L113 285Q113 295 123 295ZM106 479H182Q192 479 192 469V383Q192 373 182 373H106Q96 373 96 383V469Q96 479 106 479Z" horiz-adv-x="288" unicode="¡"/>
			<glyph d="M277 580H303Q313 580 313 570V489Q410 483 462 409Q467 401 459 395L415 359Q407 353 401 360Q363 406 313 411V68Q364 73 401 119Q407 126 415 120L459 84Q467 78 462 70Q410 -4 313 -10V-90Q313 -100 303 -100H277Q267 -100 267 -90V-9Q206 -3 162 30T101 118Q86 166 86 240Q86 313 101 361Q119 416 162 449T267 488V570Q267 580 277 580ZM267 410Q203 399 183 337Q172 303 172 240Q172 176 183 142Q202 80 267 69Z" unicode="¢"/>
			<glyph d="M303 691Q364 691 405 657T460 567Q462 558 451 556L390 540Q381 538 379 548Q372 577 352 595T303 613Q267 613 246 589T225 523V358Q225 352 231 352H358Q368 352 368 342V295Q368 285 358 285H231Q225 285 225 279V187Q225 116 197 79V78H453Q463 78 463 68V10Q463 0 453 0H108Q98 0 98 10V66L103 78Q123 98 131 117T139 174V279Q139 285 133 285H85Q75 285 75 295V342Q75 352 85 352H133Q139 352 139 358V510Q139 596 183 643T303 691Z" unicode="£"/>
			<glyph d="M81 548Q88 555 95 548L156 486Q208 520 268 520Q328 520 380 486L441 548Q449 556 455 548L493 509Q500 502 493 495L432 434Q464 384 464 323Q464 263 432 213L493 152Q501 144 493 138L456 98Q448 92 442 98L380 159Q331 126 268 126Q204 126 156 160L95 99Q89 93 81 99L44 138Q38 146 44 152L104 212Q72 259 72 323Q72 387 104 434L44 495Q37 502 44 509ZM268 450Q215 450 179 413T143 323Q143 270 179 233T268 196Q322 196 358 233T394 323Q394 376 358 413T268 450Z" horiz-adv-x="538" unicode="¤"/>
			<glyph d="M57 680H125Q136 680 139 670L272 372H275L404 670Q408 680 418 680H485Q490 680 492 676T492 669L337 337V335H445Q455 335 455 325V283Q455 273 445 273H319Q313 273 313 267V216Q313 210 319 210H445Q455 210 455 200V158Q455 148 445 148H319Q313 148 313 142V10Q313 0 303 0H239Q229 0 229 10V142Q229 148 223 148H97Q87 148 87 158V200Q87 210 97 210H223Q229 210 229 216V267Q229 273 223 273H97Q87 273 87 283V325Q87 335 97 335H205V337L50 669Q45 680 57 680Z" unicode="¥"/>
			<glyph d="M119 740H171Q181 740 181 730V398Q181 388 171 388H119Q109 388 109 398V730Q109 740 119 740ZM119 272H171Q181 272 181 262V-74Q181 -84 171 -84H119Q109 -84 109 -74V262Q109 272 119 272Z" horiz-adv-x="290" unicode="¦"/>
			<glyph d="M280 691Q356 691 398 651T443 556Q443 546 436 545L379 533Q375 532 371 534T368 540Q366 576 343 598T282 620Q243 620 219 599T195 542Q195 500 223 475T319 434Q463 400 463 252Q463 196 436 152T364 93V92Q445 54 445 -41Q445 -107 397 -149T275 -191Q197 -191 154 -153T106 -51Q104 -41 113 -40L171 -27Q180 -25 182 -34Q183 -76 207 -98T274 -120Q316 -120 341 -98T366 -37Q366 5 336 30T237 70Q93 102 93 252Q93 308 119 351T193 412V413Q163 429 139 457T116 542Q116 605 162 648T280 691ZM278 363Q230 363 201 333T172 252Q172 200 201 170T278 141Q326 141 355 170T384 252Q384 304 355 333T278 363Z" horiz-adv-x="556" unicode="§"/>
			<glyph d="M280 680H339Q349 680 349 670V597Q349 587 339 587H280Q270 587 270 597V670Q270 680 280 680ZM83 680H142Q152 680 152 670V597Q152 587 142 587H83Q73 587 73 597V670Q73 680 83 680Z" horiz-adv-x="421" unicode="¨"/>
			<glyph d="M414 691Q504 691 589 645T719 515T765 340Q765 250 719 165T589 34T414 -11Q324 -11 239 34T108 165T63 340Q63 430 108 515T239 645T414 691ZM414 630Q291 630 208 547T126 340Q126 216 208 133T414 50Q537 50 619 133T702 340Q702 464 619 547T414 630ZM423 537Q454 537 490 523T553 474Q559 466 551 460L519 431Q512 426 505 433Q474 475 424 475Q355 475 334 413Q327 392 327 340Q327 288 334 267Q355 205 424 205Q474 205 505 247Q512 254 519 249L551 220Q559 214 553 206Q533 178 499 160T423 143Q367 143 326 170T270 248Q259 285 259 340Q259 395 270 432Q286 482 326 509T423 537Z" horiz-adv-x="828" unicode="©"/>
			<glyph d="M169 688Q230 688 263 667T296 587V402Q296 392 286 392H240Q230 392 230 402V419H229Q203 387 141 387Q97 387 68 409T39 473Q39 519 71 542T163 566H223Q229 566 229 572V586Q229 608 213 618T161 628Q120 628 91 611Q82 606 77 613L58 648Q52 656 60 662Q101 688 169 688ZM168 516Q106 516 106 478Q106 442 159 442Q229 442 229 488V510Q229 516 223 516Z" horiz-adv-x="343" unicode="ª"/>
			<glyph d="M461 464T465 459V386Q465 376 456 366L357 268Q353 264 357 260L456 162Q465 152 465 142V69Q465 65 461 63T455 65L266 257Q259 264 266 271L455 463Q458 466 461 464ZM246 464T250 459V386Q250 376 241 366L142 268Q138 264 142 260L241 162Q250 152 250 142V69Q250 65 246 63T240 65L51 257Q44 264 51 271L240 463Q243 466 246 464Z" horiz-adv-x="535" unicode="«"/>
			<glyph d="M71 313H471Q481 313 481 303V113Q481 103 471 103H415Q405 103 405 113V233Q405 239 399 239H71Q61 239 61 249V303Q61 313 71 313Z" unicode="¬"/>
			<glyph d="M57 305H323Q333 305 333 295V237Q333 227 323 227H57Q47 227 47 237V295Q47 305 57 305Z" horiz-adv-x="380" unicode="­"/>
			<glyph d="M226 684Q307 684 362 629T417 493Q417 411 362 356T226 301Q145 301 90 356T35 493Q35 574 90 629T226 684ZM226 651Q159 651 114 606T69 493Q69 425 114 379T226 334Q293 334 338 379T383 493Q383 561 338 606T226 651ZM159 600H239Q273 600 292 583T312 537Q312 493 270 478L313 395Q317 388 309 388H281Q275 388 272 395L232 473H194Q190 473 190 469V395Q190 388 183 388H159Q152 388 152 395V593Q152 600 159 600ZM194 566Q190 566 190 562V511L194 507H239Q274 507 274 537Q274 566 239 566Z" horiz-adv-x="452" unicode="®"/>
			<glyph d="M83 666H338Q348 666 348 656V611Q348 601 338 601H83Q73 601 73 611V656Q73 666 83 666Z" horiz-adv-x="421" unicode="¯"/>
			<glyph d="M228 689Q291 689 332 647T374 543Q374 481 332 439T228 397Q165 397 123 439T82 543Q82 605 123 647T228 689ZM228 637Q189 637 163 610T137 543Q137 503 163 476T228 449Q267 449 293 476T319 543Q319 583 293 610T228 637Z" horiz-adv-x="456" unicode="°"/>
			<glyph d="M243 556H299Q309 556 309 546V388Q309 382 315 382H471Q481 382 481 372V318Q481 308 471 308H315Q309 308 309 302V144Q309 134 299 134H243Q233 134 233 144V302Q233 308 227 308H71Q61 308 61 318V372Q61 382 71 382H227Q233 382 233 388V546Q233 556 243 556ZM71 74H471Q481 74 481 64V10Q481 0 471 0H71Q61 0 61 10V64Q61 74 71 74Z" unicode="±"/>
			<glyph d="M173 843Q228 843 262 810T296 728Q296 677 252 628L130 493V491H288Q298 491 298 481V440Q298 430 288 430H52Q42 430 42 440V481Q42 489 49 495L198 664Q229 697 229 728Q229 752 213 767T172 782Q122 782 111 732Q109 722 100 724L55 734Q45 736 47 745Q52 782 85 812T173 843Z" horiz-adv-x="341" unicode="²"/>
			<glyph d="M168 843Q225 843 259 811T293 731Q293 677 247 645V644Q267 635 284 608T302 547Q302 492 266 457T172 423Q120 423 84 445T39 510Q36 520 45 522L90 534Q98 535 102 527Q123 484 170 484Q199 484 217 501T235 546Q235 574 216 591T166 608H147Q137 608 137 618V659Q137 669 147 669H162Q190 669 207 684T225 726Q225 752 209 767T166 782Q124 782 106 745Q103 736 94 738L52 748Q43 749 45 760Q53 795 85 819T168 843Z" horiz-adv-x="341" unicode="³"/>
			<glyph d="M222 700H288Q292 700 294 696T293 690L201 567Q194 557 182 557H135Q124 557 129 567L205 690Q211 700 222 700Z" horiz-adv-x="421" unicode="´"/>
			<glyph d="M92 479H156Q166 479 166 469V179Q166 67 272 67Q321 67 351 101T382 196V469Q382 479 392 479H456Q466 479 466 469V106Q466 88 472 80T496 73Q506 73 506 63V7Q506 -5 495 -5H486Q443 -5 420 10T393 73H392Q353 -11 259 -11Q197 -11 168 26H166V-170Q166 -180 156 -180H92Q82 -180 82 -170V469Q82 479 92 479Z" horiz-adv-x="561" unicode="µ"/>
			<glyph d="M298 680H505Q515 680 515 670V-170Q515 -180 505 -180H451Q441 -180 441 -170V600Q441 606 435 606H351Q345 606 345 600V-170Q345 -180 335 -180H281Q271 -180 271 -170V262Q183 267 129 326T75 471Q75 561 134 620T298 680Z" horiz-adv-x="603" unicode="¶"/>
			<glyph d="M80 318H156Q166 318 166 308V222Q166 212 156 212H80Q70 212 70 222V308Q70 318 80 318Z" horiz-adv-x="236" unicode="·"/>
			<glyph d="M220 10H267Q277 10 274 0L228 -142Q225 -152 212 -152H157Q147 -152 150 -142L207 0Q211 10 220 10Z" horiz-adv-x="421" unicode="¸"/>
			<glyph d="M174 836H220Q230 836 230 826V440Q230 430 220 430H173Q163 430 163 440V755H161L95 711Q91 709 88 711T85 717V770Q85 780 93 785L158 829Q166 836 174 836Z" horiz-adv-x="341" unicode="¹"/>
			<glyph d="M175 688Q276 688 304 604Q313 577 313 536Q313 495 304 468Q276 384 175 384Q74 384 47 468Q38 495 38 536Q38 577 47 604Q74 688 175 688ZM175 625Q130 625 115 583Q109 565 109 536Q109 507 115 489Q130 447 175 447Q221 447 236 489Q242 507 242 536Q242 565 236 583Q221 625 175 625Z" horiz-adv-x="351" unicode="º"/>
			<glyph d="M288 464T295 463L484 271Q491 264 484 257L295 65Q292 62 288 63T285 69V142Q285 152 294 162L393 260Q397 264 393 268L294 366Q285 376 285 386V459Q285 463 288 464ZM73 464T80 463L269 271Q276 264 269 257L80 65Q77 62 73 63T70 69V142Q70 152 79 162L178 260Q182 264 178 268L79 366Q70 376 70 386V459Q70 463 73 464Z" horiz-adv-x="535" unicode="»"/>
			<glyph d="M183 680H229Q239 680 239 670V284Q239 274 229 274H182Q172 274 172 284V599H170L104 555Q100 553 97 555T94 561V614Q94 624 102 629L167 673Q175 680 183 680ZM602 406H654Q665 406 660 396L532 129V128H628Q634 128 634 134V223Q634 233 644 233H689Q699 233 699 223V134Q699 128 705 128H731Q741 128 741 118V77Q741 67 731 67H705Q699 67 699 61V10Q699 0 689 0H644Q634 0 634 10V61Q634 67 628 67H466Q456 67 456 77V117Q456 125 460 133L588 396Q593 406 602 406ZM583 691H630Q634 691 636 688T636 681L241 -1Q235 -11 226 -11H179Q175 -11 173 -8T174 -1L568 681Q574 691 583 691Z" horiz-adv-x="835" unicode="¼"/>
			<glyph d="M183 680H229Q239 680 239 670V284Q239 274 229 274H182Q172 274 172 284V599H170L104 555Q100 553 97 555T94 561V614Q94 624 102 629L167 673Q175 680 183 680ZM651 413Q706 413 740 380T774 298Q774 247 730 198L608 63V61H766Q776 61 776 51V10Q776 0 766 0H530Q520 0 520 10V51Q520 59 527 65L676 234Q707 267 707 298Q707 322 691 337T650 352Q600 352 589 302Q587 292 578 294L533 304Q523 306 525 315Q530 352 563 382T651 413ZM583 691H630Q634 691 636 688T636 681L241 -1Q235 -11 226 -11H179Q175 -11 173 -8T174 -1L568 681Q574 691 583 691Z" horiz-adv-x="870" unicode="½"/>
			<glyph d="M673 406H725Q736 406 731 396L603 129V128H699Q705 128 705 134V223Q705 233 715 233H760Q770 233 770 223V134Q770 128 776 128H802Q812 128 812 118V77Q812 67 802 67H776Q770 67 770 61V10Q770 0 760 0H715Q705 0 705 10V61Q705 67 699 67H537Q527 67 527 77V117Q527 125 531 133L659 396Q664 406 673 406ZM224 687Q281 687 315 655T349 575Q349 521 303 489V488Q323 479 340 452T358 391Q358 336 322 301T228 267Q176 267 140 289T95 354Q92 364 101 366L146 378Q154 379 158 371Q179 328 226 328Q255 328 273 345T291 390Q291 418 272 435T222 452H203Q193 452 193 462V503Q193 513 203 513H218Q246 513 263 528T281 570Q281 596 265 611T222 626Q180 626 162 589Q159 580 150 582L108 592Q99 593 101 604Q109 639 141 663T224 687ZM655 691H702Q706 691 708 688T708 681L313 -1Q307 -11 298 -11H251Q247 -11 245 -8T246 -1L640 681Q646 691 655 691Z" horiz-adv-x="906" unicode="¾"/>
			<glyph d="M200 297H266Q276 297 276 287V246Q276 197 246 156L179 64Q159 36 145 12T132 -41Q132 -83 159 -108T229 -134Q270 -134 297 -109T333 -39Q335 -29 344 -31L407 -42Q417 -44 415 -53Q404 -126 354 -169T227 -212Q147 -212 96 -164T46 -42Q46 18 97 88L164 180Q190 215 190 255V287Q190 297 200 297ZM195 479H271Q281 479 281 469V383Q281 373 271 373H195Q185 373 185 383V469Q185 479 195 479Z" horiz-adv-x="456" unicode="¿"/>
			<glyph d="M272 680H337Q347 680 350 670L583 10Q586 0 576 0H506Q496 0 493 10L441 158H166L114 10Q110 0 101 0H31Q21 0 24 10L260 670Q263 680 272 680ZM303 549L195 240H412L305 549ZM156 888H226Q237 888 245 878L330 772Q333 769 332 765T326 762H273Q267 762 259 771L152 878Q149 881 150 884T156 888Z" horiz-adv-x="607" unicode="À"/>
			<glyph d="M272 680H337Q347 680 350 670L583 10Q586 0 576 0H506Q496 0 493 10L441 158H166L114 10Q110 0 101 0H31Q21 0 24 10L260 670Q263 680 272 680ZM303 549L195 240H412L305 549ZM381 888H451Q455 888 457 884T456 878L349 771Q341 762 331 762H281Q277 762 275 765T277 772L363 878Q371 888 381 888Z" horiz-adv-x="607" unicode="Á"/>
			<glyph d="M272 680H337Q347 680 350 670L583 10Q586 0 576 0H506Q496 0 493 10L441 158H166L114 10Q110 0 101 0H31Q21 0 24 10L260 670Q263 680 272 680ZM303 549L195 240H412L305 549ZM281 897H324Q333 897 340 887L435 764Q438 760 436 757T431 754H386Q376 754 367 764L304 834H302L238 764Q229 754 219 754H174Q170 754 168 757T170 764L265 887Q272 897 281 897Z" horiz-adv-x="607" unicode="Â"/>
			<glyph d="M272 680H337Q347 680 350 670L583 10Q586 0 576 0H506Q496 0 493 10L441 158H166L114 10Q110 0 101 0H31Q21 0 24 10L260 670Q263 680 272 680ZM303 549L195 240H412L305 549ZM246 874Q275 874 309 854Q337 836 362 836Q393 836 425 868Q428 871 430 870T433 865V817Q433 807 426 800Q395 767 358 767Q329 767 295 788Q265 806 242 806Q212 806 179 774Q176 771 173 772T171 776V824Q171 834 178 842Q208 874 246 874Z" horiz-adv-x="607" unicode="Ã"/>
			<glyph d="M272 680H337Q347 680 350 670L583 10Q586 0 576 0H506Q496 0 493 10L441 158H166L114 10Q110 0 101 0H31Q21 0 24 10L260 670Q263 680 272 680ZM303 549L195 240H412L305 549ZM374 869H430Q440 869 440 859V787Q440 777 430 777H374Q364 777 364 787V859Q364 869 374 869ZM174 869H230Q240 869 240 859V787Q240 777 230 777H174Q164 777 164 787V859Q164 869 174 869Z" horiz-adv-x="607" unicode="Ä"/>
			<glyph d="M272 680H337Q347 680 350 670L583 10Q586 0 576 0H506Q496 0 493 10L441 158H166L114 10Q110 0 101 0H31Q21 0 24 10L260 670Q263 680 272 680ZM303 549L195 240H412L305 549ZM303 917Q342 917 370 890T398 823Q398 783 370 756T303 729Q264 729 236 756T208 823Q208 863 236 890T303 917ZM303 876Q282 876 267 860T252 823Q252 801 267 785T303 770Q324 770 339 785T354 823Q354 845 339 860T303 876Z" horiz-adv-x="607" unicode="Å"/>
			<glyph d="M408 680H872Q882 680 882 670V607Q882 597 872 597H549Q543 597 543 591V391Q543 385 549 385H824Q834 385 834 375V312Q834 302 824 302H549Q543 302 543 296V89Q543 83 549 83H872Q882 83 882 73V10Q882 0 872 0H464Q454 0 454 10V152Q454 158 448 158H207L125 10Q119 0 111 0H31Q20 0 25 10L394 671Q399 680 408 680ZM452 596L253 240H448Q454 240 454 246V596Z" horiz-adv-x="933" unicode="Æ"/>
			<glyph d="M304 691Q378 691 435 654T522 554Q525 545 518 541L458 512Q448 507 444 517Q398 608 304 608Q197 608 163 508Q150 468 150 340Q150 212 163 172Q197 72 304 72Q398 72 444 163Q448 173 458 168L518 139Q525 135 522 126Q497 69 447 33T334 -10L291 -142Q288 -152 275 -152H220Q210 -152 213 -142L266 -9Q122 11 78 149Q60 203 60 340Q60 477 78 531Q103 610 161 650T304 691Z" horiz-adv-x="566" unicode="Ç"/>
			<glyph d="M94 680H503Q513 680 513 670V607Q513 597 503 597H179Q173 597 173 591V391Q173 385 179 385H454Q464 385 464 375V312Q464 302 454 302H179Q173 302 173 296V89Q173 83 179 83H503Q513 83 513 73V10Q513 0 503 0H94Q84 0 84 10V670Q84 680 94 680ZM171 888H241Q252 888 260 878L345 772Q348 769 347 765T341 762H288Q282 762 274 771L167 878Q164 881 165 884T171 888Z" horiz-adv-x="563" unicode="È"/>
			<glyph d="M94 680H503Q513 680 513 670V607Q513 597 503 597H179Q173 597 173 591V391Q173 385 179 385H454Q464 385 464 375V312Q464 302 454 302H179Q173 302 173 296V89Q173 83 179 83H503Q513 83 513 73V10Q513 0 503 0H94Q84 0 84 10V670Q84 680 94 680ZM345 888H415Q419 888 421 884T420 878L313 771Q305 762 295 762H245Q241 762 239 765T241 772L327 878Q335 888 345 888Z" horiz-adv-x="563" unicode="É"/>
			<glyph d="M94 680H503Q513 680 513 670V607Q513 597 503 597H179Q173 597 173 591V391Q173 385 179 385H454Q464 385 464 375V312Q464 302 454 302H179Q173 302 173 296V89Q173 83 179 83H503Q513 83 513 73V10Q513 0 503 0H94Q84 0 84 10V670Q84 680 94 680ZM277 897H320Q329 897 336 887L431 764Q434 760 432 757T427 754H382Q372 754 363 764L300 834H298L234 764Q225 754 215 754H170Q166 754 164 757T166 764L261 887Q268 897 277 897Z" horiz-adv-x="563" unicode="Ê"/>
			<glyph d="M94 680H503Q513 680 513 670V607Q513 597 503 597H179Q173 597 173 591V391Q173 385 179 385H454Q464 385 464 375V312Q464 302 454 302H179Q173 302 173 296V89Q173 83 179 83H503Q513 83 513 73V10Q513 0 503 0H94Q84 0 84 10V670Q84 680 94 680ZM367 869H423Q433 869 433 859V787Q433 777 423 777H367Q357 777 357 787V859Q357 869 367 869ZM167 869H223Q233 869 233 859V787Q233 777 223 777H167Q157 777 157 787V859Q157 869 167 869Z" horiz-adv-x="563" unicode="Ë"/>
			<glyph d="M94 680H163Q173 680 173 670V10Q173 0 163 0H94Q84 0 84 10V670Q84 680 94 680ZM-15 888H55Q66 888 74 878L159 772Q162 769 161 765T155 762H102Q96 762 88 771L-19 878Q-22 881 -21 884T-15 888Z" horiz-adv-x="257" unicode="Ì"/>
			<glyph d="M94 680H163Q173 680 173 670V10Q173 0 163 0H94Q84 0 84 10V670Q84 680 94 680ZM206 888H276Q280 888 282 884T281 878L174 771Q166 762 156 762H106Q102 762 100 765T102 772L188 878Q196 888 206 888Z" horiz-adv-x="257" unicode="Í"/>
			<glyph d="M94 680H163Q173 680 173 670V10Q173 0 163 0H94Q84 0 84 10V670Q84 680 94 680ZM108 897H151Q160 897 167 887L262 764Q265 760 263 757T258 754H213Q203 754 194 764L131 834H129L65 764Q56 754 46 754H1Q-3 754 -4 757T-3 764L92 887Q99 897 108 897Z" horiz-adv-x="257" unicode="Î"/>
			<glyph d="M94 680H163Q173 680 173 670V10Q173 0 163 0H94Q84 0 84 10V670Q84 680 94 680ZM201 869H257Q267 869 267 859V787Q267 777 257 777H201Q191 777 191 787V859Q191 869 201 869ZM1 869H57Q67 869 67 859V787Q67 777 57 777H1Q-9 777 -9 787V859Q-9 869 1 869Z" horiz-adv-x="257" unicode="Ï"/>
			<glyph d="M94 680H323Q498 680 545 535Q563 480 563 340Q563 201 545 145Q498 0 323 0H94Q84 0 84 10V302Q84 308 78 308H46Q36 308 36 318V370Q36 380 46 380H78Q84 380 84 386V670Q84 680 94 680ZM179 597Q173 597 173 591V386Q173 380 179 380H292Q302 380 302 370V318Q302 308 292 308H179Q173 308 173 302V89Q173 83 179 83H304Q428 83 459 176Q473 215 473 340Q473 465 459 504Q428 597 304 597Z" horiz-adv-x="622" unicode="Ð"/>
			<glyph d="M94 680H158Q170 680 175 670L483 160H487V670Q487 680 497 680H560Q570 680 570 670V10Q570 0 560 0H496Q484 0 479 10L170 518H167V10Q167 0 157 0H94Q84 0 84 10V670Q84 680 94 680ZM270 874Q299 874 333 854Q361 836 386 836Q417 836 449 868Q452 871 454 870T457 865V817Q457 807 450 800Q419 767 382 767Q353 767 319 788Q289 806 266 806Q236 806 203 774Q200 771 197 772T195 776V824Q195 834 202 842Q232 874 270 874Z" horiz-adv-x="654" unicode="Ñ"/>
			<glyph d="M309 691Q396 691 455 650T541 532Q559 478 559 340Q559 202 541 148Q515 70 455 29T309 -11Q223 -11 163 29T78 148Q60 202 60 340Q60 478 78 532Q104 610 163 650T309 691ZM309 608Q198 608 165 507Q150 460 150 340Q150 220 165 173Q198 72 309 72Q421 72 454 173Q469 220 469 340Q469 460 454 507Q421 608 309 608ZM181 888H251Q262 888 270 878L355 772Q358 769 357 765T351 762H298Q292 762 284 771L177 878Q174 881 175 884T181 888Z" horiz-adv-x="619" unicode="Ò"/>
			<glyph d="M309 691Q396 691 455 650T541 532Q559 478 559 340Q559 202 541 148Q515 70 455 29T309 -11Q223 -11 163 29T78 148Q60 202 60 340Q60 478 78 532Q104 610 163 650T309 691ZM309 608Q198 608 165 507Q150 460 150 340Q150 220 165 173Q198 72 309 72Q421 72 454 173Q469 220 469 340Q469 460 454 507Q421 608 309 608ZM367 888H437Q441 888 443 884T442 878L335 771Q327 762 317 762H267Q263 762 261 765T263 772L349 878Q357 888 367 888Z" horiz-adv-x="619" unicode="Ó"/>
			<glyph d="M309 691Q396 691 455 650T541 532Q559 478 559 340Q559 202 541 148Q515 70 455 29T309 -11Q223 -11 163 29T78 148Q60 202 60 340Q60 478 78 532Q104 610 163 650T309 691ZM309 608Q198 608 165 507Q150 460 150 340Q150 220 165 173Q198 72 309 72Q421 72 454 173Q469 220 469 340Q469 460 454 507Q421 608 309 608ZM287 897H330Q339 897 346 887L441 764Q444 760 442 757T437 754H392Q382 754 373 764L310 834H308L244 764Q235 754 225 754H180Q176 754 174 757T176 764L271 887Q278 897 287 897Z" horiz-adv-x="619" unicode="Ô"/>
			<glyph d="M309 691Q396 691 455 650T541 532Q559 478 559 340Q559 202 541 148Q515 70 455 29T309 -11Q223 -11 163 29T78 148Q60 202 60 340Q60 478 78 532Q104 610 163 650T309 691ZM309 608Q198 608 165 507Q150 460 150 340Q150 220 165 173Q198 72 309 72Q421 72 454 173Q469 220 469 340Q469 460 454 507Q421 608 309 608ZM252 874Q281 874 315 854Q343 836 368 836Q399 836 431 868Q434 871 436 870T439 865V817Q439 807 432 800Q401 767 364 767Q335 767 301 788Q271 806 248 806Q218 806 185 774Q182 771 179 772T177 776V824Q177 834 184 842Q214 874 252 874Z" horiz-adv-x="619" unicode="Õ"/>
			<glyph d="M309 691Q396 691 455 650T541 532Q559 478 559 340Q559 202 541 148Q515 70 455 29T309 -11Q223 -11 163 29T78 148Q60 202 60 340Q60 478 78 532Q104 610 163 650T309 691ZM309 608Q198 608 165 507Q150 460 150 340Q150 220 165 173Q198 72 309 72Q421 72 454 173Q469 220 469 340Q469 460 454 507Q421 608 309 608ZM381 869H437Q447 869 447 859V787Q447 777 437 777H381Q371 777 371 787V859Q371 869 381 869ZM181 869H237Q247 869 247 859V787Q247 777 237 777H181Q171 777 171 787V859Q171 869 181 869Z" horiz-adv-x="619" unicode="Ö"/>
			<glyph d="M131 455Q138 462 145 455L267 334Q272 330 276 334L398 455Q405 462 412 455L449 416Q456 409 449 402L327 281Q323 277 327 272L449 150Q456 143 449 136L412 97Q405 90 398 97L275 218Q271 222 267 218L145 97Q138 90 131 97L93 136Q86 143 93 150L215 272Q219 276 215 280L93 402Q86 409 93 416Z" unicode="×"/>
			<glyph d="M503 710H548Q552 710 553 707T553 700L500 609Q527 574 541 532Q559 478 559 340Q559 202 541 148Q515 70 455 29T309 -11Q220 -11 161 31L131 -21Q126 -30 116 -30H71Q67 -30 65 -27T65 -20L118 71Q94 101 78 148Q60 202 60 340Q60 478 78 532Q104 610 163 650T309 691Q398 691 458 649L488 701Q493 710 503 710ZM309 608Q198 608 165 507Q150 460 150 340Q150 265 154 225T170 157L412 574Q372 608 309 608ZM448 522L206 106Q246 72 309 72Q421 72 454 173Q469 220 469 340Q469 389 467 435T448 522Z" horiz-adv-x="619" unicode="Ø"/>
			<glyph d="M89 680H158Q168 680 168 670V238Q168 158 209 115T320 72Q389 72 430 115T471 238V670Q471 680 481 680H550Q560 680 560 670V237Q560 119 496 54T320 -11Q207 -11 143 53T79 237V670Q79 680 89 680ZM189 888H259Q270 888 278 878L363 772Q366 769 365 765T359 762H306Q300 762 292 771L185 878Q182 881 183 884T189 888Z" horiz-adv-x="639" unicode="Ù"/>
			<glyph d="M89 680H158Q168 680 168 670V238Q168 158 209 115T320 72Q389 72 430 115T471 238V670Q471 680 481 680H550Q560 680 560 670V237Q560 119 496 54T320 -11Q207 -11 143 53T79 237V670Q79 680 89 680ZM379 888H449Q453 888 455 884T454 878L347 771Q339 762 329 762H279Q275 762 273 765T275 772L361 878Q369 888 379 888Z" horiz-adv-x="639" unicode="Ú"/>
			<glyph d="M89 680H158Q168 680 168 670V238Q168 158 209 115T320 72Q389 72 430 115T471 238V670Q471 680 481 680H550Q560 680 560 670V237Q560 119 496 54T320 -11Q207 -11 143 53T79 237V670Q79 680 89 680ZM297 897H340Q349 897 356 887L451 764Q454 760 452 757T447 754H402Q392 754 383 764L320 834H318L254 764Q245 754 235 754H190Q186 754 184 757T186 764L281 887Q288 897 297 897Z" horiz-adv-x="639" unicode="Û"/>
			<glyph d="M89 680H158Q168 680 168 670V238Q168 158 209 115T320 72Q389 72 430 115T471 238V670Q471 680 481 680H550Q560 680 560 670V237Q560 119 496 54T320 -11Q207 -11 143 53T79 237V670Q79 680 89 680ZM391 869H447Q457 869 457 859V787Q457 777 447 777H391Q381 777 381 787V859Q381 869 391 869ZM191 869H247Q257 869 257 859V787Q257 777 247 777H191Q181 777 181 787V859Q181 869 191 869Z" horiz-adv-x="639" unicode="Ü"/>
			<glyph d="M26 680H97Q106 680 112 670L264 379H266L417 670Q421 680 431 680H500Q512 680 508 669L307 278V10Q307 0 297 0H229Q219 0 219 10V278L18 669Q14 680 26 680ZM330 888H400Q404 888 406 884T405 878L298 771Q290 762 280 762H230Q226 762 224 765T226 772L312 878Q320 888 330 888Z" horiz-adv-x="526" unicode="Ý"/>
			<glyph d="M94 680H163Q173 680 173 670V560Q173 554 179 554H336Q434 554 493 498T552 351Q552 259 493 203T336 148H179Q173 148 173 142V10Q173 0 163 0H94Q84 0 84 10V670Q84 680 94 680ZM179 471Q173 471 173 465V237Q173 231 179 231H331Q393 231 428 263T464 351Q464 406 428 438T331 471Z" horiz-adv-x="592" unicode="Þ"/>
			<glyph d="M281 691Q375 691 424 650T474 535Q474 457 411 423V421Q456 400 472 353Q483 316 483 223Q483 128 471 90Q441 -4 305 -4H283Q273 -4 273 6V64Q273 74 283 74H303Q375 74 392 125Q398 145 398 223Q398 303 391 325Q373 380 294 380H283Q273 380 273 390V448Q273 458 283 458H303Q390 458 390 535Q390 573 362 593T283 614Q229 614 197 589T166 495V10Q166 0 156 0H92Q82 0 82 10V492Q82 691 281 691Z" horiz-adv-x="539" unicode="ß"/>
			<glyph d="M253 490Q342 490 391 458T441 327V10Q441 0 431 0H372Q362 0 362 10V52H361Q344 24 307 6T219 -11Q148 -11 103 26T58 133Q58 207 107 244T245 281H354Q360 281 360 287V322Q360 371 335 393T245 416Q177 416 129 382Q120 375 115 383L88 429Q84 437 90 443Q150 490 253 490ZM258 214Q139 214 139 136Q139 100 165 80T239 61Q295 61 327 86T360 155V208Q360 214 354 214ZM163 700H229Q241 700 247 690L322 567Q327 557 316 557H269Q258 557 250 567L158 690Q155 693 157 696T163 700Z" horiz-adv-x="519" unicode="à"/>
			<glyph d="M253 490Q342 490 391 458T441 327V10Q441 0 431 0H372Q362 0 362 10V52H361Q344 24 307 6T219 -11Q148 -11 103 26T58 133Q58 207 107 244T245 281H354Q360 281 360 287V322Q360 371 335 393T245 416Q177 416 129 382Q120 375 115 383L88 429Q84 437 90 443Q150 490 253 490ZM258 214Q139 214 139 136Q139 100 165 80T239 61Q295 61 327 86T360 155V208Q360 214 354 214ZM312 700H378Q382 700 384 696T383 690L291 567Q284 557 272 557H225Q214 557 219 567L295 690Q301 700 312 700Z" horiz-adv-x="519" unicode="á"/>
			<glyph d="M253 490Q342 490 391 458T441 327V10Q441 0 431 0H372Q362 0 362 10V52H361Q344 24 307 6T219 -11Q148 -11 103 26T58 133Q58 207 107 244T245 281H354Q360 281 360 287V322Q360 371 335 393T245 416Q177 416 129 382Q120 375 115 383L88 429Q84 437 90 443Q150 490 253 490ZM258 214Q139 214 139 136Q139 100 165 80T239 61Q295 61 327 86T360 155V208Q360 214 354 214ZM237 700H280Q289 700 296 690L391 567Q394 563 392 560T387 557H342Q332 557 323 567L260 637H258L194 567Q185 557 175 557H130Q126 557 124 560T126 567L221 690Q228 700 237 700Z" horiz-adv-x="519" unicode="â"/>
			<glyph d="M253 490Q342 490 391 458T441 327V10Q441 0 431 0H372Q362 0 362 10V52H361Q344 24 307 6T219 -11Q148 -11 103 26T58 133Q58 207 107 244T245 281H354Q360 281 360 287V322Q360 371 335 393T245 416Q177 416 129 382Q120 375 115 383L88 429Q84 437 90 443Q150 490 253 490ZM258 214Q139 214 139 136Q139 100 165 80T239 61Q295 61 327 86T360 155V208Q360 214 354 214ZM202 683Q232 683 265 662Q294 644 318 644Q348 644 381 676Q384 679 386 678T389 674V626Q389 616 382 608Q350 576 314 576Q286 576 251 597Q220 615 198 615Q168 615 135 583Q132 580 129 581T127 585V633Q127 643 134 651Q166 683 202 683Z" horiz-adv-x="519" unicode="ã"/>
			<glyph d="M253 490Q342 490 391 458T441 327V10Q441 0 431 0H372Q362 0 362 10V52H361Q344 24 307 6T219 -11Q148 -11 103 26T58 133Q58 207 107 244T245 281H354Q360 281 360 287V322Q360 371 335 393T245 416Q177 416 129 382Q120 375 115 383L88 429Q84 437 90 443Q150 490 253 490ZM258 214Q139 214 139 136Q139 100 165 80T239 61Q295 61 327 86T360 155V208Q360 214 354 214ZM327 680H386Q396 680 396 670V597Q396 587 386 587H327Q317 587 317 597V670Q317 680 327 680ZM130 680H189Q199 680 199 670V597Q199 587 189 587H130Q120 587 120 597V670Q120 680 130 680Z" horiz-adv-x="519" unicode="ä"/>
			<glyph d="M253 490Q342 490 391 458T441 327V10Q441 0 431 0H372Q362 0 362 10V52H361Q344 24 307 6T219 -11Q148 -11 103 26T58 133Q58 207 107 244T245 281H354Q360 281 360 287V322Q360 371 335 393T245 416Q177 416 129 382Q120 375 115 383L88 429Q84 437 90 443Q150 490 253 490ZM258 214Q139 214 139 136Q139 100 165 80T239 61Q295 61 327 86T360 155V208Q360 214 354 214ZM263 723Q302 723 330 696T358 629Q358 589 330 562T263 535Q224 535 196 562T168 629Q168 669 196 696T263 723ZM263 682Q242 682 227 666T212 629Q212 607 227 591T263 576Q284 576 299 591T314 629Q314 651 299 666T263 682Z" horiz-adv-x="519" unicode="å"/>
			<glyph d="M253 490Q379 490 412 426H414Q461 490 558 490Q627 490 676 456T746 361Q761 315 761 224Q761 214 750 214H447Q441 214 441 208Q441 176 449 150Q478 67 570 67Q647 67 693 120Q701 128 708 122L749 85Q756 79 750 71Q721 34 672 11T563 -11Q450 -11 397 73H396Q354 -11 219 -11Q148 -11 103 26T58 133Q58 207 107 244T245 281H354Q360 281 360 287V322Q360 371 335 393T245 416Q177 416 129 382Q120 375 115 383L88 429Q84 437 90 443Q150 490 253 490ZM558 416Q518 416 489 396T448 341Q441 320 441 287Q441 281 447 281H669Q675 281 675 287Q675 320 668 341Q656 376 627 396T558 416ZM258 214Q139 214 139 136Q139 100 165 80T239 61Q295 61 327 86T360 155V208Q360 214 354 214Z" horiz-adv-x="814" unicode="æ"/>
			<glyph d="M257 490Q364 490 421 409Q426 401 418 395L374 359Q366 353 360 360Q338 387 314 399T257 412Q174 412 150 337Q139 303 139 240Q139 176 150 142Q174 67 257 67Q283 67 308 76T360 119Q366 126 374 120L418 84Q426 78 421 70Q374 3 287 -9L244 -142Q241 -152 228 -152H173Q163 -152 166 -142L219 -8Q165 -1 125 32T68 118Q53 166 53 240Q53 313 68 361Q88 422 138 456T257 490Z" horiz-adv-x="472" unicode="ç"/>
			<glyph d="M256 490Q324 490 374 455T444 361Q459 315 459 224Q459 214 448 214H145Q139 214 139 208Q139 176 147 150Q176 67 268 67Q345 67 391 120Q399 128 406 122L447 85Q454 79 448 71Q419 34 370 11T261 -11Q189 -11 138 23T69 119Q53 169 53 240Q53 318 68 361Q88 422 138 456T256 490ZM256 416Q216 416 187 396T146 341Q139 320 139 287Q139 281 145 281H367Q373 281 373 287Q373 320 366 341Q354 376 325 396T256 416ZM144 700H210Q222 700 228 690L303 567Q308 557 297 557H250Q239 557 231 567L139 690Q136 693 138 696T144 700Z" horiz-adv-x="512" unicode="è"/>
			<glyph d="M256 490Q324 490 374 455T444 361Q459 315 459 224Q459 214 448 214H145Q139 214 139 208Q139 176 147 150Q176 67 268 67Q345 67 391 120Q399 128 406 122L447 85Q454 79 448 71Q419 34 370 11T261 -11Q189 -11 138 23T69 119Q53 169 53 240Q53 318 68 361Q88 422 138 456T256 490ZM256 416Q216 416 187 396T146 341Q139 320 139 287Q139 281 145 281H367Q373 281 373 287Q373 320 366 341Q354 376 325 396T256 416ZM305 700H371Q375 700 377 696T376 690L284 567Q277 557 265 557H218Q207 557 212 567L288 690Q294 700 305 700Z" horiz-adv-x="512" unicode="é"/>
			<glyph d="M256 490Q324 490 374 455T444 361Q459 315 459 224Q459 214 448 214H145Q139 214 139 208Q139 176 147 150Q176 67 268 67Q345 67 391 120Q399 128 406 122L447 85Q454 79 448 71Q419 34 370 11T261 -11Q189 -11 138 23T69 119Q53 169 53 240Q53 318 68 361Q88 422 138 456T256 490ZM256 416Q216 416 187 396T146 341Q139 320 139 287Q139 281 145 281H367Q373 281 373 287Q373 320 366 341Q354 376 325 396T256 416ZM234 700H277Q286 700 293 690L388 567Q391 563 389 560T384 557H339Q329 557 320 567L257 637H255L191 567Q182 557 172 557H127Q123 557 121 560T123 567L218 690Q225 700 234 700Z" horiz-adv-x="512" unicode="ê"/>
			<glyph d="M256 490Q324 490 374 455T444 361Q459 315 459 224Q459 214 448 214H145Q139 214 139 208Q139 176 147 150Q176 67 268 67Q345 67 391 120Q399 128 406 122L447 85Q454 79 448 71Q419 34 370 11T261 -11Q189 -11 138 23T69 119Q53 169 53 240Q53 318 68 361Q88 422 138 456T256 490ZM256 416Q216 416 187 396T146 341Q139 320 139 287Q139 281 145 281H367Q373 281 373 287Q373 320 366 341Q354 376 325 396T256 416ZM324 680H383Q393 680 393 670V597Q393 587 383 587H324Q314 587 314 597V670Q314 680 324 680ZM127 680H186Q196 680 196 670V597Q196 587 186 587H127Q117 587 117 597V670Q117 680 127 680Z" horiz-adv-x="512" unicode="ë"/>
			<glyph d="M92 479H156Q166 479 166 469V10Q166 0 156 0H92Q82 0 82 10V469Q82 479 92 479ZM-2 700H64Q76 700 82 690L157 567Q162 557 151 557H104Q93 557 85 567L-7 690Q-10 693 -8 696T-2 700Z" horiz-adv-x="248" unicode="ì"/>
			<glyph d="M92 479H156Q166 479 166 469V10Q166 0 156 0H92Q82 0 82 10V469Q82 479 92 479ZM187 700H253Q257 700 259 696T258 690L166 567Q159 557 147 557H100Q89 557 94 567L170 690Q176 700 187 700Z" horiz-adv-x="248" unicode="í"/>
			<glyph d="M92 479H156Q166 479 166 469V10Q166 0 156 0H92Q82 0 82 10V469Q82 479 92 479ZM103 700H146Q155 700 162 690L257 567Q260 563 258 560T253 557H208Q198 557 189 567L126 637H124L60 567Q51 557 41 557H-4Q-8 557 -9 560T-8 567L87 690Q94 700 103 700Z" horiz-adv-x="248" unicode="î"/>
			<glyph d="M92 479H156Q166 479 166 469V10Q166 0 156 0H92Q82 0 82 10V469Q82 479 92 479ZM193 680H252Q262 680 262 670V597Q262 587 252 587H193Q183 587 183 597V670Q183 680 193 680ZM-4 680H55Q65 680 65 670V597Q65 587 55 587H-4Q-14 587 -14 597V670Q-14 680 -4 680Z" horiz-adv-x="248" unicode="ï"/>
			<glyph d="M147 680H219Q230 680 237 670L275 621L368 649Q378 652 381 643L393 600Q396 591 386 588L316 566L345 528Q463 374 463 242Q463 170 447 118Q427 57 377 23T258 -11Q189 -11 139 23T69 118Q53 170 53 229Q53 294 68 342Q87 400 132 433T235 466Q279 466 313 443H314L238 543L144 514Q134 511 131 521L119 563Q116 573 126 576L197 597L142 670Q139 673 141 676T147 680ZM258 391Q176 391 150 316Q139 283 139 229Q139 175 150 142Q176 67 258 67Q340 67 366 142Q377 175 377 229Q377 283 366 316Q340 391 258 391Z" horiz-adv-x="516" unicode="ð"/>
			<glyph d="M301 490Q378 490 422 441T467 310V10Q467 0 457 0H393Q383 0 383 10V290Q383 348 355 380T276 412Q228 412 197 379T166 295V10Q166 0 156 0H92Q82 0 82 10V469Q82 479 92 479H156Q166 479 166 469V425H167Q185 454 220 472T301 490ZM215 683Q245 683 278 662Q307 644 331 644Q361 644 394 676Q397 679 399 678T402 674V626Q402 616 395 608Q363 576 327 576Q299 576 264 597Q233 615 211 615Q181 615 148 583Q145 580 142 581T140 585V633Q140 643 147 651Q179 683 215 683Z" horiz-adv-x="544" unicode="ñ"/>
			<glyph d="M258 490Q327 490 377 455T447 361Q463 313 463 240Q463 166 447 118Q428 58 377 23T258 -11Q189 -11 138 23T69 118Q53 166 53 240Q53 313 69 361Q88 421 138 455T258 490ZM258 412Q219 412 190 392T150 337Q139 301 139 240Q139 178 150 142Q162 107 190 87T258 67Q297 67 325 87T366 142Q377 178 377 240Q377 301 366 337Q354 372 325 392T258 412ZM141 700H207Q219 700 225 690L300 567Q305 557 294 557H247Q236 557 228 567L136 690Q133 693 135 696T141 700Z" horiz-adv-x="516" unicode="ò"/>
			<glyph d="M258 490Q327 490 377 455T447 361Q463 313 463 240Q463 166 447 118Q428 58 377 23T258 -11Q189 -11 138 23T69 118Q53 166 53 240Q53 313 69 361Q88 421 138 455T258 490ZM258 412Q219 412 190 392T150 337Q139 301 139 240Q139 178 150 142Q162 107 190 87T258 67Q297 67 325 87T366 142Q377 178 377 240Q377 301 366 337Q354 372 325 392T258 412ZM309 700H375Q379 700 381 696T380 690L288 567Q281 557 269 557H222Q211 557 216 567L292 690Q298 700 309 700Z" horiz-adv-x="516" unicode="ó"/>
			<glyph d="M258 490Q327 490 377 455T447 361Q463 313 463 240Q463 166 447 118Q428 58 377 23T258 -11Q189 -11 138 23T69 118Q53 166 53 240Q53 313 69 361Q88 421 138 455T258 490ZM258 412Q219 412 190 392T150 337Q139 301 139 240Q139 178 150 142Q162 107 190 87T258 67Q297 67 325 87T366 142Q377 178 377 240Q377 301 366 337Q354 372 325 392T258 412ZM236 700H279Q288 700 295 690L390 567Q393 563 391 560T386 557H341Q331 557 322 567L259 637H257L193 567Q184 557 174 557H129Q125 557 123 560T125 567L220 690Q227 700 236 700Z" horiz-adv-x="516" unicode="ô"/>
			<glyph d="M258 490Q327 490 377 455T447 361Q463 313 463 240Q463 166 447 118Q428 58 377 23T258 -11Q189 -11 138 23T69 118Q53 166 53 240Q53 313 69 361Q88 421 138 455T258 490ZM258 412Q219 412 190 392T150 337Q139 301 139 240Q139 178 150 142Q162 107 190 87T258 67Q297 67 325 87T366 142Q377 178 377 240Q377 301 366 337Q354 372 325 392T258 412ZM201 683Q231 683 264 662Q293 644 317 644Q347 644 380 676Q383 679 385 678T388 674V626Q388 616 381 608Q349 576 313 576Q285 576 250 597Q219 615 197 615Q167 615 134 583Q131 580 128 581T126 585V633Q126 643 133 651Q165 683 201 683Z" horiz-adv-x="516" unicode="õ"/>
			<glyph d="M258 490Q327 490 377 455T447 361Q463 313 463 240Q463 166 447 118Q428 58 377 23T258 -11Q189 -11 138 23T69 118Q53 166 53 240Q53 313 69 361Q88 421 138 455T258 490ZM258 412Q219 412 190 392T150 337Q139 301 139 240Q139 178 150 142Q162 107 190 87T258 67Q297 67 325 87T366 142Q377 178 377 240Q377 301 366 337Q354 372 325 392T258 412ZM326 680H385Q395 680 395 670V597Q395 587 385 587H326Q316 587 316 597V670Q316 680 326 680ZM129 680H188Q198 680 198 670V597Q198 587 188 587H129Q119 587 119 597V670Q119 680 129 680Z" horiz-adv-x="516" unicode="ö"/>
			<glyph d="M271 494Q294 494 310 477T327 438Q327 415 310 398T271 382Q248 382 231 398T215 438Q215 461 231 477T271 494ZM71 313H471Q481 313 481 303V249Q481 239 471 239H71Q61 239 61 249V303Q61 313 71 313ZM271 170Q294 170 310 153T327 114Q327 91 310 74T271 58Q248 58 231 74T215 114Q215 137 231 153T271 170Z" unicode="÷"/>
			<glyph d="M427 509H456Q460 509 461 506T461 499L412 425Q436 397 447 361Q463 313 463 240Q463 166 447 118Q428 58 377 23T258 -11Q186 -11 137 24L107 -20Q100 -30 89 -30H60Q56 -30 54 -27T55 -20L104 53Q81 81 69 118Q53 166 53 240Q53 313 69 361Q88 421 138 455T258 490Q329 490 379 455L409 499Q415 509 427 509ZM258 412Q219 412 190 392T149 337Q138 301 138 240Q138 166 155 126L332 388Q302 412 258 412ZM360 353L183 91Q213 67 258 67Q297 67 326 87T367 142Q378 178 378 240Q378 309 360 353Z" horiz-adv-x="516" unicode="ø"/>
			<glyph d="M85 479H149Q159 479 159 469V190Q159 132 186 99T265 67Q313 67 343 99T373 185V469Q373 479 383 479H447Q457 479 457 469V10Q457 0 447 0H383Q373 0 373 10V55H372Q331 -11 241 -11Q163 -11 119 38T75 170V469Q75 479 85 479ZM154 700H220Q232 700 238 690L313 567Q318 557 307 557H260Q249 557 241 567L149 690Q146 693 148 696T154 700Z" horiz-adv-x="539" unicode="ù"/>
			<glyph d="M85 479H149Q159 479 159 469V190Q159 132 186 99T265 67Q313 67 343 99T373 185V469Q373 479 383 479H447Q457 479 457 469V10Q457 0 447 0H383Q373 0 373 10V55H372Q331 -11 241 -11Q163 -11 119 38T75 170V469Q75 479 85 479ZM320 700H386Q390 700 392 696T391 690L299 567Q292 557 280 557H233Q222 557 227 567L303 690Q309 700 320 700Z" horiz-adv-x="539" unicode="ú"/>
			<glyph d="M85 479H149Q159 479 159 469V190Q159 132 186 99T265 67Q313 67 343 99T373 185V469Q373 479 383 479H447Q457 479 457 469V10Q457 0 447 0H383Q373 0 373 10V55H372Q331 -11 241 -11Q163 -11 119 38T75 170V469Q75 479 85 479ZM247 700H290Q299 700 306 690L401 567Q404 563 402 560T397 557H352Q342 557 333 567L270 637H268L204 567Q195 557 185 557H140Q136 557 134 560T136 567L231 690Q238 700 247 700Z" horiz-adv-x="539" unicode="û"/>
			<glyph d="M85 479H149Q159 479 159 469V190Q159 132 186 99T265 67Q313 67 343 99T373 185V469Q373 479 383 479H447Q457 479 457 469V10Q457 0 447 0H383Q373 0 373 10V55H372Q331 -11 241 -11Q163 -11 119 38T75 170V469Q75 479 85 479ZM338 680H397Q407 680 407 670V597Q407 587 397 587H338Q328 587 328 597V670Q328 680 338 680ZM141 680H200Q210 680 210 670V597Q210 587 200 587H141Q131 587 131 597V670Q131 680 141 680Z" horiz-adv-x="539" unicode="ü"/>
			<glyph d="M33 479H103Q112 479 115 469L241 123H243L364 469Q367 479 376 479H444Q455 479 452 469L263 -37Q236 -110 204 -145T112 -180H86Q76 -180 76 -170V-112Q76 -102 86 -102H104Q126 -102 146 -90T185 -30L201 14L25 469Q22 479 33 479ZM294 700H360Q364 700 366 696T365 690L273 567Q266 557 254 557H207Q196 557 201 567L277 690Q283 700 294 700Z" horiz-adv-x="477" unicode="ý"/>
			<glyph d="M92 680H156Q166 680 166 670V424H167Q207 490 303 490Q365 490 407 460T468 375Q485 325 485 240Q485 154 468 104Q450 48 407 18T303 -11Q208 -11 167 56H166V-170Q166 -180 156 -180H92Q82 -180 82 -170V670Q82 680 92 680ZM283 412Q201 412 177 340Q166 307 166 240Q166 172 177 140Q201 67 283 67Q363 67 388 140Q399 174 399 240Q399 304 388 340Q363 412 283 412Z" horiz-adv-x="538" unicode="þ"/>
			<glyph d="M33 479H103Q112 479 115 469L241 123H243L364 469Q367 479 376 479H444Q455 479 452 469L263 -37Q236 -110 204 -145T112 -180H86Q76 -180 76 -170V-112Q76 -102 86 -102H104Q126 -102 146 -90T185 -30L201 14L25 469Q22 479 33 479ZM309 680H368Q378 680 378 670V597Q378 587 368 587H309Q299 587 299 597V670Q299 680 309 680ZM112 680H171Q181 680 181 670V597Q181 587 171 587H112Q102 587 102 597V670Q102 680 112 680Z" horiz-adv-x="477" unicode="ÿ"/>
			<glyph d="M272 680H337Q347 680 350 670L583 10Q586 0 576 0H506Q496 0 493 10L441 158H166L114 10Q110 0 101 0H31Q21 0 24 10L260 670Q263 680 272 680ZM303 549L195 240H412L305 549ZM175 855H430Q440 855 440 845V800Q440 790 430 790H175Q165 790 165 800V845Q165 855 175 855Z" horiz-adv-x="607" unicode="Ā"/>
			<glyph d="M253 490Q342 490 391 458T441 327V10Q441 0 431 0H372Q362 0 362 10V52H361Q344 24 307 6T219 -11Q148 -11 103 26T58 133Q58 207 107 244T245 281H354Q360 281 360 287V322Q360 371 335 393T245 416Q177 416 129 382Q120 375 115 383L88 429Q84 437 90 443Q150 490 253 490ZM258 214Q139 214 139 136Q139 100 165 80T239 61Q295 61 327 86T360 155V208Q360 214 354 214ZM131 666H386Q396 666 396 656V611Q396 601 386 601H131Q121 601 121 611V656Q121 666 131 666Z" horiz-adv-x="519" unicode="ā"/>
			<glyph d="M272 680H337Q347 680 350 670L583 10Q586 0 576 0H506Q496 0 493 10L441 158H166L114 10Q110 0 101 0H31Q21 0 24 10L260 670Q263 680 272 680ZM303 549L195 240H412L305 549ZM176 884H212Q220 884 223 874Q239 822 303 822Q367 822 382 874Q385 884 394 884H429Q438 884 438 874Q433 824 396 792T303 761Q246 761 209 792T167 874Q167 884 176 884Z" horiz-adv-x="607" unicode="Ă"/>
			<glyph d="M253 490Q342 490 391 458T441 327V10Q441 0 431 0H372Q362 0 362 10V52H361Q344 24 307 6T219 -11Q148 -11 103 26T58 133Q58 207 107 244T245 281H354Q360 281 360 287V322Q360 371 335 393T245 416Q177 416 129 382Q120 375 115 383L88 429Q84 437 90 443Q150 490 253 490ZM258 214Q139 214 139 136Q139 100 165 80T239 61Q295 61 327 86T360 155V208Q360 214 354 214ZM132 684H168Q176 684 179 674Q196 622 259 622Q323 622 338 674Q341 684 350 684H385Q394 684 394 674Q389 624 352 592T259 561Q202 561 165 592T123 674Q123 684 132 684Z" horiz-adv-x="519" unicode="ă"/>
			<glyph d="M272 680H337Q347 680 350 670L583 10Q585 3 579 0Q495 -55 495 -89Q495 -101 502 -108T521 -116Q532 -116 548 -108Q557 -104 561 -112L578 -147Q583 -155 575 -161Q545 -182 508 -182Q470 -182 447 -161T424 -103Q424 -49 498 3L492 11L441 158H166L114 10Q110 0 101 0H32Q21 0 24 10L260 670Q263 680 272 680ZM303 550L195 240H412L305 550Z" horiz-adv-x="607" unicode="Ą"/>
			<glyph d="M253 490Q342 490 391 458T441 327V10Q441 3 436 0Q400 -23 375 -44T351 -89Q351 -101 358 -108T378 -116Q389 -116 405 -108Q413 -103 418 -112L435 -147Q439 -154 431 -161Q403 -182 364 -182Q327 -182 304 -161T281 -103Q281 -44 362 8V52H361Q344 24 307 6T219 -11Q148 -11 103 26T58 133Q58 207 107 244T245 281H354Q360 281 360 287V322Q360 371 335 393T245 416Q177 416 129 382Q120 375 115 383L88 429Q84 437 90 443Q150 490 253 490ZM258 214Q139 214 139 136Q139 100 165 80T239 61Q295 61 327 86T360 155V208Q360 214 354 214Z" horiz-adv-x="519" unicode="ą"/>
			<glyph d="M304 691Q378 691 435 654T522 554Q525 545 518 541L458 512Q448 507 444 517Q398 608 304 608Q197 608 163 508Q150 468 150 340Q150 212 163 172Q197 72 304 72Q398 72 444 163Q448 173 458 168L518 139Q525 135 522 126Q493 62 435 25T304 -11Q220 -11 161 29T78 149Q60 203 60 340Q60 477 78 531Q103 610 161 650T304 691ZM355 888H425Q429 888 431 884T430 878L323 771Q315 762 305 762H255Q251 762 249 765T251 772L337 878Q345 888 355 888Z" horiz-adv-x="566" unicode="Ć"/>
			<glyph d="M257 490Q364 490 421 409Q426 401 418 395L374 359Q366 353 360 360Q338 387 314 399T257 412Q174 412 150 337Q139 303 139 240Q139 176 150 142Q174 67 257 67Q283 67 308 76T360 119Q366 126 374 120L418 84Q426 78 421 70Q364 -11 257 -11Q189 -11 138 23T68 118Q53 166 53 240Q53 313 68 361Q88 422 138 456T257 490ZM299 700H365Q369 700 371 696T370 690L278 567Q271 557 259 557H212Q201 557 206 567L282 690Q288 700 299 700Z" horiz-adv-x="472" unicode="ć"/>
			<glyph d="M304 691Q378 691 435 654T522 554Q525 545 518 541L458 512Q448 507 444 517Q398 608 304 608Q197 608 163 508Q150 468 150 340Q150 212 163 172Q197 72 304 72Q398 72 444 163Q448 173 458 168L518 139Q525 135 522 126Q493 62 435 25T304 -11Q220 -11 161 29T78 149Q60 203 60 340Q60 477 78 531Q103 610 161 650T304 691ZM280 897H323Q332 897 339 887L434 764Q437 760 435 757T430 754H385Q375 754 366 764L303 834H301L237 764Q228 754 218 754H173Q169 754 167 757T169 764L264 887Q271 897 280 897Z" horiz-adv-x="566" unicode="Ĉ"/>
			<glyph d="M257 490Q364 490 421 409Q426 401 418 395L374 359Q366 353 360 360Q338 387 314 399T257 412Q174 412 150 337Q139 303 139 240Q139 176 150 142Q174 67 257 67Q283 67 308 76T360 119Q366 126 374 120L418 84Q426 78 421 70Q364 -11 257 -11Q189 -11 138 23T68 118Q53 166 53 240Q53 313 68 361Q88 422 138 456T257 490ZM234 700H277Q286 700 293 690L388 567Q391 563 389 560T384 557H339Q329 557 320 567L257 637H255L191 567Q182 557 172 557H127Q123 557 121 560T123 567L218 690Q225 700 234 700Z" horiz-adv-x="472" unicode="ĉ"/>
			<glyph d="M304 691Q378 691 435 654T522 554Q525 545 518 541L458 512Q448 507 444 517Q398 608 304 608Q197 608 163 508Q150 468 150 340Q150 212 163 172Q197 72 304 72Q398 72 444 163Q448 173 458 168L518 139Q525 135 522 126Q493 62 435 25T304 -11Q220 -11 161 29T78 149Q60 203 60 340Q60 477 78 531Q103 610 161 650T304 691ZM267 869H336Q346 869 346 859V787Q346 777 336 777H267Q257 777 257 787V859Q257 869 267 869Z" horiz-adv-x="566" unicode="Ċ"/>
			<glyph d="M257 490Q364 490 421 409Q426 401 418 395L374 359Q366 353 360 360Q338 387 314 399T257 412Q174 412 150 337Q139 303 139 240Q139 176 150 142Q174 67 257 67Q283 67 308 76T360 119Q366 126 374 120L418 84Q426 78 421 70Q364 -11 257 -11Q189 -11 138 23T68 118Q53 166 53 240Q53 313 68 361Q88 422 138 456T257 490ZM221 680H290Q300 680 300 670V597Q300 587 290 587H221Q211 587 211 597V670Q211 680 221 680Z" horiz-adv-x="472" unicode="ċ"/>
			<glyph d="M304 691Q378 691 435 654T522 554Q525 545 518 541L458 512Q448 507 444 517Q398 608 304 608Q197 608 163 508Q150 468 150 340Q150 212 163 172Q197 72 304 72Q398 72 444 163Q448 173 458 168L518 139Q525 135 522 126Q493 62 435 25T304 -11Q220 -11 161 29T78 149Q60 203 60 340Q60 477 78 531Q103 610 161 650T304 691ZM173 896H218Q228 896 237 886L301 815H303L366 886Q375 896 385 896H430Q434 896 435 893T434 886L339 762Q332 752 323 752H280Q271 752 264 762L169 886Q166 890 167 893T173 896Z" horiz-adv-x="566" unicode="Č"/>
			<glyph d="M257 490Q364 490 421 409Q426 401 418 395L374 359Q366 353 360 360Q338 387 314 399T257 412Q174 412 150 337Q139 303 139 240Q139 176 150 142Q174 67 257 67Q283 67 308 76T360 119Q366 126 374 120L418 84Q426 78 421 70Q364 -11 257 -11Q189 -11 138 23T68 118Q53 166 53 240Q53 313 68 361Q88 422 138 456T257 490ZM127 699H172Q182 699 191 689L255 618H257L320 689Q329 699 339 699H384Q388 699 389 696T388 689L293 565Q286 555 277 555H234Q225 555 218 565L123 689Q120 693 121 696T127 699Z" horiz-adv-x="472" unicode="č"/>
			<glyph d="M94 680H323Q498 680 545 535Q563 480 563 340Q563 201 545 145Q498 0 323 0H94Q84 0 84 10V670Q84 680 94 680ZM179 597Q173 597 173 591V89Q173 83 179 83H304Q428 83 459 176Q473 215 473 340Q473 465 459 504Q428 597 304 597ZM168 896H213Q223 896 232 886L296 815H298L361 886Q370 896 380 896H425Q429 896 430 893T429 886L334 762Q327 752 318 752H275Q266 752 259 762L164 886Q161 890 162 893T168 896Z" horiz-adv-x="623" unicode="Ď"/>
			<glyph d="M382 680H446Q456 680 456 670V10Q456 0 446 0H382Q372 0 372 10V56H371Q330 -11 235 -11Q173 -11 130 18T70 104Q53 154 53 240Q53 325 70 375Q88 431 130 460T235 490Q331 490 371 424H372V670Q372 680 382 680ZM255 412Q175 412 150 340Q139 304 139 240Q139 174 150 140Q175 67 255 67Q337 67 361 140Q372 172 372 240Q372 307 361 340Q337 412 255 412ZM503 680H563Q573 680 573 670V606Q573 594 567 586L517 525Q510 517 503 517Q493 517 493 528V670Q493 680 503 680Z" horiz-adv-x="538" unicode="ď"/>
			<glyph d="M94 680H323Q498 680 545 535Q563 480 563 340Q563 201 545 145Q498 0 323 0H94Q84 0 84 10V302Q84 308 78 308H46Q36 308 36 318V370Q36 380 46 380H78Q84 380 84 386V670Q84 680 94 680ZM179 597Q173 597 173 591V386Q173 380 179 380H292Q302 380 302 370V318Q302 308 292 308H179Q173 308 173 302V89Q173 83 179 83H304Q428 83 459 176Q473 215 473 340Q473 465 459 504Q428 597 304 597Z" horiz-adv-x="622" unicode="Đ"/>
			<glyph d="M382 680H446Q456 680 456 670V629Q456 623 462 623H488Q498 623 498 613V565Q498 555 488 555H462Q456 555 456 549V10Q456 0 446 0H382Q372 0 372 10V56H371Q330 -11 235 -11Q173 -11 130 18T70 104Q53 154 53 240Q53 325 70 375Q88 431 130 460T235 490Q331 490 371 424H372V549Q372 555 366 555H246Q236 555 236 565V613Q236 623 246 623H366Q372 623 372 629V670Q372 680 382 680ZM255 412Q175 412 150 340Q139 304 139 240Q139 174 150 140Q175 67 255 67Q337 67 361 140Q372 172 372 240Q372 307 361 340Q337 412 255 412Z" horiz-adv-x="538" unicode="đ"/>
			<glyph d="M94 680H503Q513 680 513 670V607Q513 597 503 597H179Q173 597 173 591V391Q173 385 179 385H454Q464 385 464 375V312Q464 302 454 302H179Q173 302 173 296V89Q173 83 179 83H503Q513 83 513 73V10Q513 0 503 0H94Q84 0 84 10V670Q84 680 94 680ZM167 855H422Q432 855 432 845V800Q432 790 422 790H167Q157 790 157 800V845Q157 855 167 855Z" horiz-adv-x="563" unicode="Ē"/>
			<glyph d="M256 490Q324 490 374 455T444 361Q459 315 459 224Q459 214 448 214H145Q139 214 139 208Q139 176 147 150Q176 67 268 67Q345 67 391 120Q399 128 406 122L447 85Q454 79 448 71Q419 34 370 11T261 -11Q189 -11 138 23T69 119Q53 169 53 240Q53 318 68 361Q88 422 138 456T256 490ZM256 416Q216 416 187 396T146 341Q139 320 139 287Q139 281 145 281H367Q373 281 373 287Q373 320 366 341Q354 376 325 396T256 416ZM128 666H383Q393 666 393 656V611Q393 601 383 601H128Q118 601 118 611V656Q118 666 128 666Z" horiz-adv-x="512" unicode="ē"/>
			<glyph d="M94 680H503Q513 680 513 670V607Q513 597 503 597H179Q173 597 173 591V391Q173 385 179 385H454Q464 385 464 375V312Q464 302 454 302H179Q173 302 173 296V89Q173 83 179 83H503Q513 83 513 73V10Q513 0 503 0H94Q84 0 84 10V670Q84 680 94 680ZM161 884H197Q205 884 208 874Q224 822 288 822Q352 822 367 874Q370 884 379 884H414Q423 884 423 874Q418 824 381 792T288 761Q231 761 194 792T152 874Q152 884 161 884Z" horiz-adv-x="563" unicode="Ĕ"/>
			<glyph d="M256 490Q324 490 374 455T444 361Q459 315 459 224Q459 214 448 214H145Q139 214 139 208Q139 176 147 150Q176 67 268 67Q345 67 391 120Q399 128 406 122L447 85Q454 79 448 71Q419 34 370 11T261 -11Q189 -11 138 23T69 119Q53 169 53 240Q53 318 68 361Q88 422 138 456T256 490ZM256 416Q216 416 187 396T146 341Q139 320 139 287Q139 281 145 281H367Q373 281 373 287Q373 320 366 341Q354 376 325 396T256 416ZM129 684H165Q173 684 176 674Q193 622 256 622Q320 622 335 674Q338 684 347 684H382Q391 684 391 674Q386 624 349 592T256 561Q199 561 162 592T120 674Q120 684 129 684Z" horiz-adv-x="512" unicode="ĕ"/>
			<glyph d="M94 680H503Q513 680 513 670V607Q513 597 503 597H179Q173 597 173 591V391Q173 385 179 385H454Q464 385 464 375V312Q464 302 454 302H179Q173 302 173 296V89Q173 83 179 83H503Q513 83 513 73V10Q513 0 503 0H94Q84 0 84 10V670Q84 680 94 680ZM263 869H332Q342 869 342 859V787Q342 777 332 777H263Q253 777 253 787V859Q253 869 263 869Z" horiz-adv-x="563" unicode="Ė"/>
			<glyph d="M256 490Q324 490 374 455T444 361Q459 315 459 224Q459 214 448 214H145Q139 214 139 208Q139 176 147 150Q176 67 268 67Q345 67 391 120Q399 128 406 122L447 85Q454 79 448 71Q419 34 370 11T261 -11Q189 -11 138 23T69 119Q53 169 53 240Q53 318 68 361Q88 422 138 456T256 490ZM256 416Q216 416 187 396T146 341Q139 320 139 287Q139 281 145 281H367Q373 281 373 287Q373 320 366 341Q354 376 325 396T256 416ZM221 680H290Q300 680 300 670V597Q300 587 290 587H221Q211 587 211 597V670Q211 680 221 680Z" horiz-adv-x="512" unicode="ė"/>
			<glyph d="M94 680H503Q513 680 513 670V607Q513 597 503 597H179Q173 597 173 591V391Q173 385 179 385H454Q464 385 464 375V312Q464 302 454 302H179Q173 302 173 296V89Q173 83 179 83H503Q513 83 513 73V10Q513 0 503 0H494Q411 -54 411 -89Q411 -101 418 -108T438 -116Q448 -116 464 -108Q474 -103 478 -112L495 -147Q499 -154 491 -161Q461 -182 424 -182Q386 -182 363 -161T341 -103Q341 -49 409 0H94Q84 0 84 10V670Q84 680 94 680Z" horiz-adv-x="563" unicode="Ę"/>
			<glyph d="M256 490Q324 490 374 455T444 361Q459 315 459 224Q459 214 448 214H145Q139 214 139 208Q139 176 147 150Q176 67 268 67Q345 67 391 120Q399 128 406 122L447 85Q454 79 448 71Q428 48 407 32Q367 -7 345 -36T324 -90Q324 -116 350 -116Q361 -116 377 -108Q387 -103 391 -112L408 -147Q412 -154 404 -161Q374 -182 337 -182Q299 -182 276 -161T254 -103Q254 -60 298 -7L261 -11Q189 -11 138 23T69 119Q53 169 53 240Q53 318 68 361Q88 422 138 456T256 490ZM256 416Q216 416 187 396T146 341Q139 320 139 287Q139 281 145 281H367Q373 281 373 287Q373 320 366 341Q354 376 325 396T256 416Z" horiz-adv-x="512" unicode="ę"/>
			<glyph d="M94 680H503Q513 680 513 670V607Q513 597 503 597H179Q173 597 173 591V391Q173 385 179 385H454Q464 385 464 375V312Q464 302 454 302H179Q173 302 173 296V89Q173 83 179 83H503Q513 83 513 73V10Q513 0 503 0H94Q84 0 84 10V670Q84 680 94 680ZM168 896H213Q223 896 232 886L296 815H298L361 886Q370 896 380 896H425Q429 896 430 893T429 886L334 762Q327 752 318 752H275Q266 752 259 762L164 886Q161 890 162 893T168 896Z" horiz-adv-x="563" unicode="Ě"/>
			<glyph d="M256 490Q324 490 374 455T444 361Q459 315 459 224Q459 214 448 214H145Q139 214 139 208Q139 176 147 150Q176 67 268 67Q345 67 391 120Q399 128 406 122L447 85Q454 79 448 71Q419 34 370 11T261 -11Q189 -11 138 23T69 119Q53 169 53 240Q53 318 68 361Q88 422 138 456T256 490ZM256 416Q216 416 187 396T146 341Q139 320 139 287Q139 281 145 281H367Q373 281 373 287Q373 320 366 341Q354 376 325 396T256 416ZM127 699H172Q182 699 191 689L255 618H257L320 689Q329 699 339 699H384Q388 699 389 696T388 689L293 565Q286 555 277 555H234Q225 555 218 565L123 689Q120 693 121 696T127 699Z" horiz-adv-x="512" unicode="ě"/>
			<glyph d="M311 691Q397 691 454 652T537 556Q542 547 534 542L474 513Q465 508 460 518Q411 608 311 608Q197 608 164 507Q150 468 150 340Q150 212 164 173Q197 72 311 72Q363 72 402 98T457 170Q470 213 470 277Q470 283 464 283H332Q322 283 322 293V351Q322 361 332 361H549Q559 361 559 351V300Q559 206 542 150Q517 73 456 31T311 -11Q224 -11 163 29T78 148Q60 207 60 340Q60 474 78 532Q103 610 163 650T311 691ZM287 897H330Q339 897 346 887L441 764Q444 760 442 757T437 754H392Q382 754 373 764L310 834H308L244 764Q235 754 225 754H180Q176 754 174 757T176 764L271 887Q278 897 287 897Z" horiz-adv-x="619" unicode="Ĝ"/>
			<glyph d="M229 490Q326 490 362 424H363V469Q363 479 373 479H437Q447 479 447 469V21Q447 -81 393 -136T238 -191Q189 -191 142 -171T72 -120Q66 -113 73 -106L114 -65Q122 -57 129 -65Q182 -113 242 -113Q363 -113 363 16V72H362Q326 6 229 6Q169 6 127 36T68 122Q52 170 52 248Q52 326 68 374Q86 430 127 460T229 490ZM250 412Q174 412 149 341Q137 304 137 248Q137 191 149 155Q174 83 250 83Q327 83 352 155Q363 188 363 248Q363 307 352 341Q327 412 250 412ZM232 700H275Q284 700 291 690L386 567Q389 563 387 560T382 557H337Q327 557 318 567L255 637H253L189 567Q180 557 170 557H125Q121 557 119 560T121 567L216 690Q223 700 232 700Z" horiz-adv-x="529" unicode="ĝ"/>
			<glyph d="M311 691Q397 691 454 652T537 556Q542 547 534 542L474 513Q465 508 460 518Q411 608 311 608Q197 608 164 507Q150 468 150 340Q150 212 164 173Q197 72 311 72Q363 72 402 98T457 170Q470 213 470 277Q470 283 464 283H332Q322 283 322 293V351Q322 361 332 361H549Q559 361 559 351V300Q559 206 542 150Q517 73 456 31T311 -11Q224 -11 163 29T78 148Q60 207 60 340Q60 474 78 532Q103 610 163 650T311 691ZM182 884H218Q226 884 229 874Q245 822 309 822Q373 822 388 874Q391 884 400 884H435Q444 884 444 874Q439 824 402 792T309 761Q252 761 215 792T173 874Q173 884 182 884Z" horiz-adv-x="619" unicode="Ğ"/>
			<glyph d="M229 490Q326 490 362 424H363V469Q363 479 373 479H437Q447 479 447 469V21Q447 -81 393 -136T238 -191Q189 -191 142 -171T72 -120Q66 -113 73 -106L114 -65Q122 -57 129 -65Q182 -113 242 -113Q363 -113 363 16V72H362Q326 6 229 6Q169 6 127 36T68 122Q52 170 52 248Q52 326 68 374Q86 430 127 460T229 490ZM250 412Q174 412 149 341Q137 304 137 248Q137 191 149 155Q174 83 250 83Q327 83 352 155Q363 188 363 248Q363 307 352 341Q327 412 250 412ZM128 684H164Q172 684 175 674Q192 622 255 622Q319 622 334 674Q337 684 346 684H381Q390 684 390 674Q385 624 348 592T255 561Q198 561 161 592T119 674Q119 684 128 684Z" horiz-adv-x="529" unicode="ğ"/>
			<glyph d="M311 691Q397 691 454 652T537 556Q542 547 534 542L474 513Q465 508 460 518Q411 608 311 608Q197 608 164 507Q150 468 150 340Q150 212 164 173Q197 72 311 72Q363 72 402 98T457 170Q470 213 470 277Q470 283 464 283H332Q322 283 322 293V351Q322 361 332 361H549Q559 361 559 351V300Q559 206 542 150Q517 73 456 31T311 -11Q224 -11 163 29T78 148Q60 207 60 340Q60 474 78 532Q103 610 163 650T311 691ZM274 869H343Q353 869 353 859V787Q353 777 343 777H274Q264 777 264 787V859Q264 869 274 869Z" horiz-adv-x="619" unicode="Ġ"/>
			<glyph d="M229 490Q326 490 362 424H363V469Q363 479 373 479H437Q447 479 447 469V21Q447 -81 393 -136T238 -191Q189 -191 142 -171T72 -120Q66 -113 73 -106L114 -65Q122 -57 129 -65Q182 -113 242 -113Q363 -113 363 16V72H362Q326 6 229 6Q169 6 127 36T68 122Q52 170 52 248Q52 326 68 374Q86 430 127 460T229 490ZM250 412Q174 412 149 341Q137 304 137 248Q137 191 149 155Q174 83 250 83Q327 83 352 155Q363 188 363 248Q363 307 352 341Q327 412 250 412ZM220 680H289Q299 680 299 670V597Q299 587 289 587H220Q210 587 210 597V670Q210 680 220 680Z" horiz-adv-x="529" unicode="ġ"/>
			<glyph d="M311 691Q397 691 454 652T537 556Q542 547 534 542L474 513Q465 508 460 518Q411 608 311 608Q197 608 164 507Q150 468 150 340Q150 212 164 173Q197 72 311 72Q363 72 402 98T457 170Q470 213 470 277Q470 283 464 283H332Q322 283 322 293V351Q322 361 332 361H549Q559 361 559 351V300Q559 206 542 150Q517 73 456 31T311 -11Q224 -11 163 29T78 148Q60 207 60 340Q60 474 78 532Q103 610 163 650T311 691ZM279 -53H339Q349 -53 349 -63V-124Q349 -136 343 -144L292 -205Q287 -213 278 -213Q269 -213 269 -203V-63Q269 -53 279 -53Z" horiz-adv-x="619" unicode="Ģ"/>
			<glyph d="M229 490Q326 490 362 424H363V469Q363 479 373 479H437Q447 479 447 469V21Q447 -81 393 -136T238 -191Q189 -191 142 -171T72 -120Q66 -113 73 -106L114 -65Q122 -57 129 -65Q182 -113 242 -113Q363 -113 363 16V72H362Q326 6 229 6Q169 6 127 36T68 122Q52 170 52 248Q52 326 68 374Q86 430 127 460T229 490ZM250 412Q174 412 149 341Q137 304 137 248Q137 191 149 155Q174 83 250 83Q327 83 352 155Q363 188 363 248Q363 307 352 341Q327 412 250 412ZM285 732Q294 732 294 722V582Q294 572 284 572H224Q214 572 214 582V643Q214 655 220 663L271 724Q278 732 285 732Z" horiz-adv-x="529" unicode="ģ"/>
			<glyph d="M94 680H163Q173 680 173 670V391Q173 385 179 385H474Q480 385 480 391V670Q480 680 490 680H559Q569 680 569 670V10Q569 0 559 0H490Q480 0 480 10V296Q480 302 474 302H179Q173 302 173 296V10Q173 0 163 0H94Q84 0 84 10V670Q84 680 94 680ZM304 897H347Q356 897 363 887L458 764Q461 760 459 757T454 754H409Q399 754 390 764L327 834H325L261 764Q252 754 242 754H197Q193 754 191 757T193 764L288 887Q295 897 304 897Z" horiz-adv-x="653" unicode="Ĥ"/>
			<glyph d="M92 680H156Q166 680 166 670V425H167Q185 454 220 472T301 490Q378 490 422 441T467 310V10Q467 0 457 0H393Q383 0 383 10V290Q383 348 355 380T276 412Q228 412 197 379T166 295V10Q166 0 156 0H92Q82 0 82 10V670Q82 680 92 680ZM255 897H298Q307 897 314 887L409 764Q412 760 410 757T405 754H360Q350 754 341 764L278 834H276L212 764Q203 754 193 754H148Q144 754 142 757T144 764L239 887Q246 897 255 897Z" horiz-adv-x="544" unicode="ĥ"/>
			<glyph d="M94 680H163Q173 680 173 670V570Q173 564 179 564H474Q480 564 480 570V670Q480 680 490 680H559Q569 680 569 670V570Q569 564 575 564H612Q622 564 622 554V506Q622 496 612 496H575Q569 496 569 490V10Q569 0 559 0H490Q480 0 480 10V296Q480 302 474 302H179Q173 302 173 296V10Q173 0 163 0H94Q84 0 84 10V490Q84 496 78 496H41Q31 496 31 506V554Q31 564 41 564H78Q84 564 84 570V670Q84 680 94 680ZM179 496Q173 496 173 490V391Q173 385 179 385H474Q480 385 480 391V490Q480 496 474 496Z" horiz-adv-x="653" unicode="Ħ"/>
			<glyph d="M92 680H156Q166 680 166 670V629Q166 623 172 623H292Q302 623 302 613V565Q302 555 292 555H172Q166 555 166 549V425H167Q185 454 220 472T301 490Q378 490 422 441T467 310V10Q467 0 457 0H393Q383 0 383 10V290Q383 348 355 380T276 412Q228 412 197 379T166 295V10Q166 0 156 0H92Q82 0 82 10V549Q82 555 76 555H50Q40 555 40 565V613Q40 623 50 623H76Q82 623 82 629V670Q82 680 92 680Z" horiz-adv-x="544" unicode="ħ"/>
			<glyph d="M94 680H163Q173 680 173 670V10Q173 0 163 0H94Q84 0 84 10V670Q84 680 94 680ZM73 874Q102 874 136 854Q164 836 189 836Q220 836 252 868Q255 871 257 870T260 865V817Q260 807 253 800Q222 767 185 767Q156 767 122 788Q92 806 69 806Q39 806 6 774Q3 771 0 772T-2 776V824Q-2 834 5 842Q35 874 73 874Z" horiz-adv-x="257" unicode="Ĩ"/>
			<glyph d="M92 479H156Q166 479 166 469V10Q166 0 156 0H92Q82 0 82 10V469Q82 479 92 479ZM69 683Q99 683 132 662Q161 644 185 644Q215 644 248 676Q251 679 253 678T256 674V626Q256 616 249 608Q217 576 181 576Q153 576 118 597Q87 615 65 615Q35 615 2 583Q-1 580 -3 581T-6 585V633Q-6 643 1 651Q33 683 69 683Z" horiz-adv-x="248" unicode="ĩ"/>
			<glyph d="M94 680H163Q173 680 173 670V10Q173 0 163 0H94Q84 0 84 10V670Q84 680 94 680ZM2 855H257Q267 855 267 845V800Q267 790 257 790H2Q-8 790 -8 800V845Q-8 855 2 855Z" horiz-adv-x="257" unicode="Ī"/>
			<glyph d="M92 479H156Q166 479 166 469V10Q166 0 156 0H92Q82 0 82 10V469Q82 479 92 479ZM-3 666H252Q262 666 262 656V611Q262 601 252 601H-3Q-13 601 -13 611V656Q-13 666 -3 666Z" horiz-adv-x="248" unicode="ī"/>
			<glyph d="M94 680H163Q173 680 173 670V10Q173 0 163 0H94Q84 0 84 10V670Q84 680 94 680ZM3 884H39Q47 884 50 874Q66 822 130 822Q194 822 209 874Q212 884 221 884H256Q265 884 265 874Q260 824 223 792T130 761Q73 761 36 792T-6 874Q-6 884 3 884Z" horiz-adv-x="257" unicode="Ĭ"/>
			<glyph d="M92 479H156Q166 479 166 469V10Q166 0 156 0H92Q82 0 82 10V469Q82 479 92 479ZM-2 684H34Q42 684 45 674Q62 622 125 622Q189 622 204 674Q207 684 216 684H251Q260 684 260 674Q255 624 218 592T125 561Q68 561 31 592T-11 674Q-11 684 -2 684Z" horiz-adv-x="248" unicode="ĭ"/>
			<glyph d="M94 680H163Q173 680 173 670V10Q173 4 168 0Q138 -27 120 -48T102 -89Q102 -101 109 -108T128 -116Q141 -116 155 -108Q164 -104 168 -112L185 -147Q190 -155 182 -161Q152 -182 115 -182Q77 -182 54 -161T31 -103Q31 -57 89 0Q84 2 84 10V670Q84 680 94 680Z" horiz-adv-x="257" unicode="Į"/>
			<glyph d="M90 680H159Q169 680 169 670V597Q169 587 159 587H90Q80 587 80 597V670Q80 680 90 680ZM92 479H156Q166 479 166 469V10L162 0Q97 -57 97 -89Q97 -101 104 -108T123 -116Q136 -116 150 -108Q160 -103 164 -112L181 -147Q185 -154 177 -161Q147 -182 110 -182Q72 -182 49 -161T27 -103Q27 -54 85 3L82 10V469Q82 479 92 479Z" horiz-adv-x="248" unicode="į"/>
			<glyph d="M94 680H163Q173 680 173 670V10Q173 0 163 0H94Q84 0 84 10V670Q84 680 94 680ZM95 869H164Q174 869 174 859V787Q174 777 164 777H95Q85 777 85 787V859Q85 869 95 869Z" horiz-adv-x="257" unicode="İ"/>
			<glyph d="M92 479H156Q166 479 166 469V10Q166 0 156 0H92Q82 0 82 10V469Q82 479 92 479Z" horiz-adv-x="248" unicode="ı"/>
			<glyph d="M94 680H163Q173 680 173 670V10Q173 0 163 0H94Q84 0 84 10V670Q84 680 94 680ZM590 680H659Q669 680 669 670V218Q669 107 610 48T451 -11Q403 -11 359 9T290 59Q283 66 290 73L340 116Q347 122 355 114Q399 72 454 72Q580 72 580 218V670Q580 680 590 680Z" horiz-adv-x="748" unicode="Ĳ"/>
			<glyph d="M90 680H158Q168 680 168 670V597Q168 587 158 587H90Q80 587 80 597V670Q80 680 90 680ZM92 479H156Q166 479 166 469V10Q166 0 156 0H92Q82 0 82 10V469Q82 479 92 479ZM338 680H406Q416 680 416 670V597Q416 587 406 587H338Q328 587 328 597V670Q328 680 338 680ZM340 479H404Q414 479 414 469V-36Q414 -103 384 -141T271 -180H251Q241 -180 241 -170V-112Q241 -102 251 -102H267Q294 -102 312 -92T330 -38V469Q330 479 340 479Z" horiz-adv-x="496" unicode="ĳ"/>
			<glyph d="M333 680H402Q412 680 412 670V218Q412 107 353 48T194 -11Q146 -11 102 9T33 59Q26 66 33 73L83 116Q90 122 98 114Q142 72 197 72Q323 72 323 218V670Q323 680 333 680ZM340 897H383Q392 897 399 887L494 764Q497 760 495 757T490 754H445Q435 754 426 764L363 834H361L297 764Q288 754 278 754H233Q229 754 227 757T229 764L324 887Q331 897 340 897Z" horiz-adv-x="491" unicode="Ĵ"/>
			<glyph d="M92 479H156Q166 479 166 469V-36Q166 -103 136 -141T23 -180H3Q-7 -180 -7 -170V-112Q-7 -102 3 -102H19Q46 -102 64 -92T82 -38V469Q82 479 92 479ZM103 700H146Q155 700 162 690L257 567Q260 563 258 560T253 557H208Q198 557 189 567L126 637H124L60 567Q51 557 41 557H-4Q-8 557 -9 560T-8 567L87 690Q94 700 103 700Z" horiz-adv-x="248" unicode="ĵ"/>
			<glyph d="M94 680H163Q173 680 173 670V316L462 671Q468 680 478 680H560Q564 680 565 676T564 668L352 413L585 11Q588 7 586 3T579 0H499Q490 0 485 9L294 344L173 198V10Q173 0 163 0H94Q84 0 84 10V670Q84 680 94 680ZM279 -53H339Q349 -53 349 -63V-124Q349 -136 343 -144L292 -205Q287 -213 278 -213Q269 -213 269 -203V-63Q269 -53 279 -53Z" horiz-adv-x="616" unicode="Ķ"/>
			<glyph d="M92 680H156Q166 680 166 670V247L355 470Q363 479 373 479H447Q451 479 452 476T451 469L304 298L481 10Q483 7 481 3T475 0H401Q391 0 385 10L249 233L166 136V10Q166 0 156 0H92Q82 0 82 10V670Q82 680 92 680ZM230 -53H290Q300 -53 300 -63V-124Q300 -136 294 -144L243 -205Q238 -213 229 -213Q220 -213 220 -203V-63Q220 -53 230 -53Z" horiz-adv-x="511" unicode="ķ"/>
			<glyph d="M92 479H156Q166 479 166 469V247L355 470Q363 479 373 479H447Q451 479 452 476T451 469L304 298L481 10Q483 7 481 3T475 0H401Q391 0 385 10L249 233L166 136V10Q166 0 156 0H92Q82 0 82 10V469Q82 479 92 479Z" horiz-adv-x="511" unicode="ĸ"/>
			<glyph d="M94 680H163Q173 680 173 670V89Q173 83 179 83H503Q513 83 513 73V10Q513 0 503 0H94Q84 0 84 10V670Q84 680 94 680ZM216 888H286Q290 888 292 884T291 878L184 771Q176 762 166 762H116Q112 762 110 765T112 772L198 878Q206 888 216 888Z" horiz-adv-x="538" unicode="Ĺ"/>
			<glyph d="M90 680H154Q164 680 164 670V126Q164 104 172 88T212 73H231Q241 73 241 63V5Q241 -5 231 -5H197Q143 -5 111 21T80 121V670Q80 680 90 680ZM199 888H269Q273 888 275 884T274 878L167 771Q159 762 149 762H99Q95 762 93 765T95 772L181 878Q189 888 199 888Z" horiz-adv-x="277" unicode="ĺ"/>
			<glyph d="M94 680H163Q173 680 173 670V89Q173 83 179 83H503Q513 83 513 73V10Q513 0 503 0H94Q84 0 84 10V670Q84 680 94 680ZM267 -53H327Q337 -53 337 -63V-124Q337 -136 331 -144L280 -205Q275 -213 266 -213Q257 -213 257 -203V-63Q257 -53 267 -53Z" horiz-adv-x="538" unicode="Ļ"/>
			<glyph d="M90 680H154Q164 680 164 670V126Q164 104 172 88T212 73H231Q241 73 241 63V5Q241 -5 231 -5H197Q143 -5 111 21T80 121V670Q80 680 90 680ZM133 -53H193Q203 -53 203 -63V-124Q203 -136 197 -144L146 -205Q141 -213 132 -213Q123 -213 123 -203V-63Q123 -53 133 -53Z" horiz-adv-x="277" unicode="ļ"/>
			<glyph d="M94 680H163Q173 680 173 670V89Q173 83 179 83H503Q513 83 513 73V10Q513 0 503 0H94Q84 0 84 10V670Q84 680 94 680ZM256 680H316Q326 680 326 670V606Q326 594 320 586L270 525Q263 517 256 517Q246 517 246 528V670Q246 680 256 680Z" horiz-adv-x="538" unicode="Ľ"/>
			<glyph d="M90 680H154Q164 680 164 670V126Q164 104 172 88T212 73H231Q241 73 241 63V5Q241 -5 231 -5H197Q143 -5 111 21T80 121V670Q80 680 90 680ZM215 680H275Q285 680 285 670V606Q285 594 279 586L229 525Q222 517 215 517Q205 517 205 528V670Q205 680 215 680Z" horiz-adv-x="277" unicode="ľ"/>
			<glyph d="M94 680H163Q173 680 173 670V89Q173 83 179 83H503Q513 83 513 73V10Q513 0 503 0H94Q84 0 84 10V670Q84 680 94 680ZM360 379H436Q446 379 446 369V283Q446 273 436 273H360Q350 273 350 283V369Q350 379 360 379Z" horiz-adv-x="538" unicode="Ŀ"/>
			<glyph d="M90 680H154Q164 680 164 670V126Q164 104 172 88T212 73H231Q241 73 241 63V5Q241 -5 231 -5H197Q143 -5 111 21T80 121V670Q80 680 90 680ZM248 388H324Q334 388 334 378V292Q334 282 324 282H248Q238 282 238 292V378Q238 388 248 388Z" horiz-adv-x="328" unicode="ŀ"/>
			<glyph d="M94 680H163Q173 680 173 670V398L315 471Q325 476 325 465V404Q325 395 315 390L173 317V89Q173 83 179 83H503Q513 83 513 73V10Q513 0 503 0H94Q84 0 84 10V274L30 247Q20 242 20 253V314Q20 323 30 328L84 355V670Q84 680 94 680Z" horiz-adv-x="538" unicode="Ł"/>
			<glyph d="M90 680H154Q164 680 164 670V416L231 451Q241 456 241 445V390Q241 380 231 375L164 340V126Q164 104 172 88T212 73H231Q241 73 241 63V5Q241 -5 231 -5H197Q143 -5 111 21T80 121V301L45 283Q35 278 35 289V343Q35 353 45 358L80 376V670Q80 680 90 680Z" horiz-adv-x="278" unicode="ł"/>
			<glyph d="M94 680H158Q170 680 175 670L483 160H487V670Q487 680 497 680H560Q570 680 570 670V10Q570 0 560 0H496Q484 0 479 10L170 518H167V10Q167 0 157 0H94Q84 0 84 10V670Q84 680 94 680ZM375 888H445Q449 888 451 884T450 878L343 771Q335 762 325 762H275Q271 762 269 765T271 772L357 878Q365 888 375 888Z" horiz-adv-x="654" unicode="Ń"/>
			<glyph d="M301 490Q378 490 422 441T467 310V10Q467 0 457 0H393Q383 0 383 10V290Q383 348 355 380T276 412Q228 412 197 379T166 295V10Q166 0 156 0H92Q82 0 82 10V469Q82 479 92 479H156Q166 479 166 469V425H167Q185 454 220 472T301 490ZM306 700H372Q376 700 378 696T377 690L285 567Q278 557 266 557H219Q208 557 213 567L289 690Q295 700 306 700Z" horiz-adv-x="544" unicode="ń"/>
			<glyph d="M94 680H158Q170 680 175 670L483 160H487V670Q487 680 497 680H560Q570 680 570 670V10Q570 0 560 0H496Q484 0 479 10L170 518H167V10Q167 0 157 0H94Q84 0 84 10V670Q84 680 94 680ZM300 -53H360Q370 -53 370 -63V-124Q370 -136 364 -144L313 -205Q308 -213 299 -213Q290 -213 290 -203V-63Q290 -53 300 -53Z" horiz-adv-x="654" unicode="Ņ"/>
			<glyph d="M301 490Q378 490 422 441T467 310V10Q467 0 457 0H393Q383 0 383 10V290Q383 348 355 380T276 412Q228 412 197 379T166 295V10Q166 0 156 0H92Q82 0 82 10V469Q82 479 92 479H156Q166 479 166 469V425H167Q185 454 220 472T301 490ZM243 -53H303Q313 -53 313 -63V-124Q313 -136 307 -144L256 -205Q251 -213 242 -213Q233 -213 233 -203V-63Q233 -53 243 -53Z" horiz-adv-x="544" unicode="ņ"/>
			<glyph d="M94 680H158Q170 680 175 670L483 160H487V670Q487 680 497 680H560Q570 680 570 670V10Q570 0 560 0H496Q484 0 479 10L170 518H167V10Q167 0 157 0H94Q84 0 84 10V670Q84 680 94 680ZM196 896H241Q251 896 260 886L324 815H326L389 886Q398 896 408 896H453Q457 896 458 893T457 886L362 762Q355 752 346 752H303Q294 752 287 762L192 886Q189 890 190 893T196 896Z" horiz-adv-x="654" unicode="Ň"/>
			<glyph d="M301 490Q378 490 422 441T467 310V10Q467 0 457 0H393Q383 0 383 10V290Q383 348 355 380T276 412Q228 412 197 379T166 295V10Q166 0 156 0H92Q82 0 82 10V469Q82 479 92 479H156Q166 479 166 469V425H167Q185 454 220 472T301 490ZM143 699H188Q198 699 207 689L271 618H273L336 689Q345 699 355 699H400Q404 699 405 696T404 689L309 565Q302 555 293 555H250Q241 555 234 565L139 689Q136 693 137 696T143 699Z" horiz-adv-x="544" unicode="ň"/>
			<glyph d="M301 490Q378 490 422 441T467 310V10Q467 0 457 0H393Q383 0 383 10V290Q383 348 355 380T276 412Q228 412 197 379T166 295V10Q166 0 156 0H92Q82 0 82 10V469Q82 479 92 479H156Q166 479 166 469V425H167Q185 454 220 472T301 490ZM17 680H77Q87 680 87 670V606Q87 594 81 586L31 525Q24 517 17 517Q7 517 7 528V670Q7 680 17 680Z" horiz-adv-x="544" unicode="ŉ"/>
			<glyph d="M94 680H158Q169 680 175 670L482 162H486V670Q486 680 496 680H560Q570 680 570 670V-11Q570 -88 534 -134T405 -180H384Q374 -180 374 -170V-108Q374 -98 384 -98H402Q486 -98 486 -18V0L171 517H168V10Q168 0 158 0H94Q84 0 84 10V670Q84 680 94 680Z" horiz-adv-x="654" unicode="Ŋ"/>
			<glyph d="M301 490Q378 490 423 441T468 310V-36Q468 -103 437 -141T324 -180H304Q294 -180 294 -170V-112Q294 -102 304 -102H320Q347 -102 365 -92T383 -38V290Q383 348 355 380T276 412Q228 412 197 379T166 295V10Q166 0 156 0H92Q82 0 82 10V469Q82 479 92 479H156Q166 479 166 469V425H167Q185 454 220 472T301 490Z" horiz-adv-x="544" unicode="ŋ"/>
			<glyph d="M309 691Q396 691 455 650T541 532Q559 478 559 340Q559 202 541 148Q515 70 455 29T309 -11Q223 -11 163 29T78 148Q60 202 60 340Q60 478 78 532Q104 610 163 650T309 691ZM309 608Q198 608 165 507Q150 460 150 340Q150 220 165 173Q198 72 309 72Q421 72 454 173Q469 220 469 340Q469 460 454 507Q421 608 309 608ZM181 855H436Q446 855 446 845V800Q446 790 436 790H181Q171 790 171 800V845Q171 855 181 855Z" horiz-adv-x="619" unicode="Ō"/>
			<glyph d="M258 490Q327 490 377 455T447 361Q463 313 463 240Q463 166 447 118Q428 58 377 23T258 -11Q189 -11 138 23T69 118Q53 166 53 240Q53 313 69 361Q88 421 138 455T258 490ZM258 412Q219 412 190 392T150 337Q139 301 139 240Q139 178 150 142Q162 107 190 87T258 67Q297 67 325 87T366 142Q377 178 377 240Q377 301 366 337Q354 372 325 392T258 412ZM130 666H385Q395 666 395 656V611Q395 601 385 601H130Q120 601 120 611V656Q120 666 130 666Z" horiz-adv-x="516" unicode="ō"/>
			<glyph d="M309 691Q396 691 455 650T541 532Q559 478 559 340Q559 202 541 148Q515 70 455 29T309 -11Q223 -11 163 29T78 148Q60 202 60 340Q60 478 78 532Q104 610 163 650T309 691ZM309 608Q198 608 165 507Q150 460 150 340Q150 220 165 173Q198 72 309 72Q421 72 454 173Q469 220 469 340Q469 460 454 507Q421 608 309 608ZM182 884H218Q226 884 229 874Q245 822 309 822Q373 822 388 874Q391 884 400 884H435Q444 884 444 874Q439 824 402 792T309 761Q252 761 215 792T173 874Q173 884 182 884Z" horiz-adv-x="619" unicode="Ŏ"/>
			<glyph d="M258 490Q327 490 377 455T447 361Q463 313 463 240Q463 166 447 118Q428 58 377 23T258 -11Q189 -11 138 23T69 118Q53 166 53 240Q53 313 69 361Q88 421 138 455T258 490ZM258 412Q219 412 190 392T150 337Q139 301 139 240Q139 178 150 142Q162 107 190 87T258 67Q297 67 325 87T366 142Q377 178 377 240Q377 301 366 337Q354 372 325 392T258 412ZM131 684H167Q175 684 178 674Q195 622 258 622Q322 622 337 674Q340 684 349 684H384Q393 684 393 674Q388 624 351 592T258 561Q201 561 164 592T122 674Q122 684 131 684Z" horiz-adv-x="516" unicode="ŏ"/>
			<glyph d="M309 691Q396 691 455 650T541 532Q559 478 559 340Q559 202 541 148Q515 70 455 29T309 -11Q223 -11 163 29T78 148Q60 202 60 340Q60 478 78 532Q104 610 163 650T309 691ZM309 608Q198 608 165 507Q150 460 150 340Q150 220 165 173Q198 72 309 72Q421 72 454 173Q469 220 469 340Q469 460 454 507Q421 608 309 608ZM426 889H483Q487 889 488 886T487 879L411 773Q405 764 393 764H348Q337 764 344 774L410 879Q416 889 426 889ZM284 889H341Q345 889 346 886T345 879L269 773Q263 764 251 764H206Q195 764 202 774L268 879Q274 889 284 889Z" horiz-adv-x="619" unicode="Ő"/>
			<glyph d="M258 490Q327 490 377 455T447 361Q463 313 463 240Q463 166 447 118Q428 58 377 23T258 -11Q189 -11 138 23T69 118Q53 166 53 240Q53 313 69 361Q88 421 138 455T258 490ZM258 412Q219 412 190 392T150 337Q139 301 139 240Q139 178 150 142Q162 107 190 87T258 67Q297 67 325 87T366 142Q377 178 377 240Q377 301 366 337Q354 372 325 392T258 412ZM380 700H437Q441 700 442 697T442 690L365 566Q360 557 349 557H304Q293 557 298 567L364 690Q371 700 380 700ZM238 700H295Q299 700 300 697T300 690L223 566Q218 557 207 557H162Q151 557 156 567L222 690Q229 700 238 700Z" horiz-adv-x="516" unicode="ő"/>
			<glyph d="M309 691Q418 691 468 621H469V670Q469 680 479 680H888Q898 680 898 670V607Q898 597 888 597H564Q558 597 558 591V391Q558 385 564 385H839Q849 385 849 375V312Q849 302 839 302H564Q558 302 558 296V89Q558 83 564 83H888Q898 83 898 73V10Q898 0 888 0H479Q469 0 469 10V59H468Q418 -11 309 -11Q223 -11 163 29T78 148Q60 207 60 340Q60 474 78 532Q103 610 163 650T309 691ZM309 608Q198 608 165 507Q150 460 150 340Q150 220 165 173Q198 72 309 72Q421 72 454 173Q469 220 469 340Q469 460 454 507Q421 608 309 608Z" horiz-adv-x="948" unicode="Œ"/>
			<glyph d="M258 490Q367 490 419 410H421Q444 449 486 469T579 490Q648 490 698 455T767 361Q783 316 783 224Q783 214 772 214H468Q462 214 462 208Q463 170 471 150Q499 67 591 67Q670 67 714 120Q722 128 729 122L770 85Q777 79 771 71Q742 34 693 11T585 -11Q472 -11 421 71H420Q367 -11 258 -11Q189 -11 138 23T69 118Q53 166 53 240Q53 313 69 361Q88 421 138 455T258 490ZM579 416Q540 416 510 396T470 341Q462 317 462 287Q462 281 468 281H691Q697 281 697 287Q697 317 689 341Q677 376 648 396T579 416ZM258 412Q219 412 190 392T150 337Q139 301 139 240Q139 178 150 142Q162 107 190 87T258 67Q297 67 325 87T366 142Q377 178 377 240Q377 301 366 337Q354 372 325 392T258 412Z" horiz-adv-x="835" unicode="œ"/>
			<glyph d="M94 680H340Q435 680 494 626T553 484Q553 417 516 367T419 299L564 12Q567 8 565 4T558 0H478Q469 0 465 10L329 288H179Q173 288 173 282V10Q173 0 163 0H94Q84 0 84 10V670Q84 680 94 680ZM179 597Q173 597 173 591V377Q173 371 179 371H338Q396 371 430 401T464 484Q464 536 430 566T338 597ZM342 888H412Q416 888 418 884T417 878L310 771Q302 762 292 762H242Q238 762 236 765T238 772L324 878Q332 888 342 888Z" horiz-adv-x="617" unicode="Ŕ"/>
			<glyph d="M294 490Q320 490 347 480T392 454Q399 447 394 440L357 391Q351 383 343 389Q307 412 269 412Q215 412 190 373T166 272V10Q166 0 156 0H92Q82 0 82 10V469Q82 479 92 479H156Q166 479 166 469V420H167Q203 490 294 490ZM258 700H324Q328 700 330 696T329 690L237 567Q230 557 218 557H171Q160 557 165 567L241 690Q247 700 258 700Z" horiz-adv-x="410" unicode="ŕ"/>
			<glyph d="M94 680H340Q435 680 494 626T553 484Q553 417 516 367T419 299L564 12Q567 8 565 4T558 0H478Q469 0 465 10L329 288H179Q173 288 173 282V10Q173 0 163 0H94Q84 0 84 10V670Q84 680 94 680ZM179 597Q173 597 173 591V377Q173 371 179 371H338Q396 371 430 401T464 484Q464 536 430 566T338 597ZM279 -53H339Q349 -53 349 -63V-124Q349 -136 343 -144L292 -205Q287 -213 278 -213Q269 -213 269 -203V-63Q269 -53 279 -53Z" horiz-adv-x="617" unicode="Ŗ"/>
			<glyph d="M294 490Q320 490 347 480T392 454Q399 447 394 440L357 391Q351 383 343 389Q307 412 269 412Q215 412 190 373T166 272V10Q166 0 156 0H92Q82 0 82 10V469Q82 479 92 479H156Q166 479 166 469V420H167Q203 490 294 490ZM95 -53H155Q165 -53 165 -63V-124Q165 -136 159 -144L108 -205Q103 -213 94 -213Q85 -213 85 -203V-63Q85 -53 95 -53Z" horiz-adv-x="410" unicode="ŗ"/>
			<glyph d="M94 680H340Q435 680 494 626T553 484Q553 417 516 367T419 299L564 12Q567 8 565 4T558 0H478Q469 0 465 10L329 288H179Q173 288 173 282V10Q173 0 163 0H94Q84 0 84 10V670Q84 680 94 680ZM179 597Q173 597 173 591V377Q173 371 179 371H338Q396 371 430 401T464 484Q464 536 430 566T338 597ZM159 896H204Q214 896 223 886L287 815H289L352 886Q361 896 371 896H416Q420 896 421 893T420 886L325 762Q318 752 309 752H266Q257 752 250 762L155 886Q152 890 153 893T159 896Z" horiz-adv-x="617" unicode="Ř"/>
			<glyph d="M294 490Q320 490 347 480T392 454Q399 447 394 440L357 391Q351 383 343 389Q307 412 269 412Q215 412 190 373T166 272V10Q166 0 156 0H92Q82 0 82 10V469Q82 479 92 479H156Q166 479 166 469V420H167Q203 490 294 490ZM99 699H144Q154 699 163 689L227 618H229L292 689Q301 699 311 699H356Q360 699 361 696T360 689L265 565Q258 555 249 555H206Q197 555 190 565L95 689Q92 693 93 696T99 699Z" horiz-adv-x="410" unicode="ř"/>
			<glyph d="M294 691Q337 691 394 677T501 628Q509 622 503 614L469 559Q463 552 455 557Q373 608 291 608Q231 608 196 577T162 498Q162 408 305 389L338 384Q538 357 538 194Q538 102 473 45T290 -11Q222 -11 156 13T51 74Q44 81 50 89L94 141Q100 148 108 142Q196 72 298 72Q367 72 407 104T448 188Q448 234 416 261T306 299L272 304Q72 331 72 492Q72 582 132 636T294 691ZM355 888H425Q429 888 431 884T430 878L323 771Q315 762 305 762H255Q251 762 249 765T251 772L337 878Q345 888 355 888Z" horiz-adv-x="591" unicode="Ś"/>
			<glyph d="M248 490Q347 490 418 437Q426 432 420 423L386 380Q380 373 372 378Q312 417 243 417Q200 417 176 399T152 351Q152 322 173 306T246 286L296 281Q358 275 399 243T440 146Q440 74 389 31T247 -11Q132 -11 49 61Q42 68 49 75L90 119Q97 126 104 119Q132 95 171 79T252 64Q302 64 329 84T357 137Q357 167 337 182T264 204L213 209Q152 216 111 247T70 344Q70 412 117 451T248 490ZM292 700H358Q362 700 364 696T363 690L271 567Q264 557 252 557H205Q194 557 199 567L275 690Q281 700 292 700Z" horiz-adv-x="490" unicode="ś"/>
			<glyph d="M294 691Q337 691 394 677T501 628Q509 622 503 614L469 559Q463 552 455 557Q373 608 291 608Q231 608 196 577T162 498Q162 408 305 389L338 384Q538 357 538 194Q538 102 473 45T290 -11Q222 -11 156 13T51 74Q44 81 50 89L94 141Q100 148 108 142Q196 72 298 72Q367 72 407 104T448 188Q448 234 416 261T306 299L272 304Q72 331 72 492Q72 582 132 636T294 691ZM274 897H317Q326 897 333 887L428 764Q431 760 429 757T424 754H379Q369 754 360 764L297 834H295L231 764Q222 754 212 754H167Q163 754 161 757T163 764L258 887Q265 897 274 897Z" horiz-adv-x="591" unicode="Ŝ"/>
			<glyph d="M248 490Q347 490 418 437Q426 432 420 423L386 380Q380 373 372 378Q312 417 243 417Q200 417 176 399T152 351Q152 322 173 306T246 286L296 281Q358 275 399 243T440 146Q440 74 389 31T247 -11Q132 -11 49 61Q42 68 49 75L90 119Q97 126 104 119Q132 95 171 79T252 64Q302 64 329 84T357 137Q357 167 337 182T264 204L213 209Q152 216 111 247T70 344Q70 412 117 451T248 490ZM225 700H268Q277 700 284 690L379 567Q382 563 380 560T375 557H330Q320 557 311 567L248 637H246L182 567Q173 557 163 557H118Q114 557 112 560T114 567L209 690Q216 700 225 700Z" horiz-adv-x="490" unicode="ŝ"/>
			<glyph d="M294 691Q337 691 394 677T501 628Q509 622 503 614L469 559Q463 552 455 557Q373 608 291 608Q231 608 196 577T162 498Q162 408 305 389L338 384Q538 357 538 194Q538 112 485 57T334 -8L291 -142Q288 -152 275 -152H220Q210 -152 213 -142L266 -10Q205 -6 145 17T51 74Q44 81 50 89L94 141Q100 148 108 142Q196 72 298 72Q367 72 407 104T448 188Q448 234 416 261T306 299L272 304Q72 331 72 492Q72 582 132 636T294 691Z" horiz-adv-x="591" unicode="Ş"/>
			<glyph d="M248 490Q347 490 418 437Q426 432 420 423L386 380Q380 373 372 378Q312 417 243 417Q200 417 176 399T152 351Q152 322 173 306T246 286L296 281Q358 275 399 243T440 146Q440 83 400 42T286 -9L243 -142Q240 -152 227 -152H172Q162 -152 165 -142L218 -10Q119 -1 49 61Q42 68 49 75L90 119Q97 126 104 119Q132 95 171 79T252 64Q302 64 329 84T357 137Q357 167 337 182T264 204L213 209Q152 216 111 247T70 344Q70 412 117 451T248 490Z" horiz-adv-x="490" unicode="ş"/>
			<glyph d="M294 691Q337 691 394 677T501 628Q509 622 503 614L469 559Q463 552 455 557Q373 608 291 608Q231 608 196 577T162 498Q162 408 305 389L338 384Q538 357 538 194Q538 102 473 45T290 -11Q222 -11 156 13T51 74Q44 81 50 89L94 141Q100 148 108 142Q196 72 298 72Q367 72 407 104T448 188Q448 234 416 261T306 299L272 304Q72 331 72 492Q72 582 132 636T294 691ZM169 895H214Q224 895 233 885L297 814H299L362 885Q371 895 381 895H426Q430 895 431 892T430 885L335 761Q328 751 319 751H276Q267 751 260 761L165 885Q162 889 163 892T169 895Z" horiz-adv-x="591" unicode="Š"/>
			<glyph d="M248 490Q347 490 418 437Q426 432 420 423L386 380Q380 373 372 378Q312 417 243 417Q200 417 176 399T152 351Q152 322 173 306T246 286L296 281Q358 275 399 243T440 146Q440 74 389 31T247 -11Q132 -11 49 61Q42 68 49 75L90 119Q97 126 104 119Q132 95 171 79T252 64Q302 64 329 84T357 137Q357 167 337 182T264 204L213 209Q152 216 111 247T70 344Q70 412 117 451T248 490ZM118 699H163Q173 699 182 689L246 618H248L311 689Q320 699 330 699H375Q379 699 380 696T379 689L284 565Q277 555 268 555H225Q216 555 209 565L114 689Q111 693 112 696T118 699Z" horiz-adv-x="490" unicode="š"/>
			<glyph d="M32 680H505Q515 680 515 670V607Q515 597 505 597H319Q313 597 313 591V10Q313 0 303 0H234Q224 0 224 10V591Q224 597 218 597H32Q22 597 22 607V670Q22 680 32 680ZM238 -53H298Q308 -53 308 -63V-124Q308 -136 302 -144L251 -205Q246 -213 237 -213Q228 -213 228 -203V-63Q228 -53 238 -53Z" horiz-adv-x="537" unicode="Ţ"/>
			<glyph d="M102 630H166Q176 630 176 620V485Q176 479 182 479H258Q268 479 268 469V421Q268 411 258 411H182Q176 411 176 405V134Q176 108 186 90T237 73H258Q268 73 268 63V5Q268 -5 258 -5H221Q161 -5 126 23T92 131V405Q92 411 86 411H46Q36 411 36 421V469Q36 479 46 479H86Q92 479 92 485V620Q92 630 102 630ZM150 -53H210Q220 -53 220 -63V-124Q220 -136 214 -144L163 -205Q158 -213 149 -213Q140 -213 140 -203V-63Q140 -53 150 -53Z" horiz-adv-x="316" unicode="ţ"/>
			<glyph d="M32 680H505Q515 680 515 670V607Q515 597 505 597H319Q313 597 313 591V10Q313 0 303 0H234Q224 0 224 10V591Q224 597 218 597H32Q22 597 22 607V670Q22 680 32 680ZM139 896H184Q194 896 203 886L267 815H269L332 886Q341 896 351 896H396Q400 896 401 893T400 886L305 762Q298 752 289 752H246Q237 752 230 762L135 886Q132 890 133 893T139 896Z" horiz-adv-x="537" unicode="Ť"/>
			<glyph d="M102 630H166Q176 630 176 620V485Q176 479 182 479H258Q268 479 268 469V421Q268 411 258 411H182Q176 411 176 405V134Q176 108 186 90T237 73H258Q268 73 268 63V5Q268 -5 258 -5H221Q161 -5 126 23T92 131V405Q92 411 86 411H46Q36 411 36 421V469Q36 479 46 479H86Q92 479 92 485V620Q92 630 102 630ZM249 680H309Q319 680 319 670V606Q319 594 313 586L263 525Q256 517 249 517Q239 517 239 528V670Q239 680 249 680Z" horiz-adv-x="316" unicode="ť"/>
			<glyph d="M32 680H505Q515 680 515 670V607Q515 597 505 597H319Q313 597 313 591V448Q313 442 319 442H421Q431 442 431 432V373Q431 363 421 363H319Q313 363 313 357V10Q313 0 303 0H234Q224 0 224 10V357Q224 363 218 363H116Q106 363 106 373V432Q106 442 116 442H218Q224 442 224 448V591Q224 597 218 597H32Q22 597 22 607V670Q22 680 32 680Z" horiz-adv-x="537" unicode="Ŧ"/>
			<glyph d="M102 630H166Q176 630 176 620V485Q176 479 182 479H258Q268 479 268 469V421Q268 411 258 411H182Q176 411 176 405V344Q176 338 182 338H247Q257 338 257 328V283Q257 273 247 273H182Q176 273 176 267V134Q176 108 186 90T237 73H258Q268 73 268 63V5Q268 -5 258 -5H221Q161 -5 126 23T92 131V267Q92 273 86 273H56Q46 273 46 283V328Q46 338 56 338H86Q92 338 92 344V405Q92 411 86 411H46Q36 411 36 421V469Q36 479 46 479H86Q92 479 92 485V620Q92 630 102 630Z" horiz-adv-x="316" unicode="ŧ"/>
			<glyph d="M89 680H158Q168 680 168 670V238Q168 158 209 115T320 72Q389 72 430 115T471 238V670Q471 680 481 680H550Q560 680 560 670V237Q560 119 496 54T320 -11Q207 -11 143 53T79 237V670Q79 680 89 680ZM263 874Q292 874 326 854Q354 836 379 836Q410 836 442 868Q445 871 447 870T450 865V817Q450 807 443 800Q412 767 375 767Q346 767 312 788Q282 806 259 806Q229 806 196 774Q193 771 190 772T188 776V824Q188 834 195 842Q225 874 263 874Z" horiz-adv-x="639" unicode="Ũ"/>
			<glyph d="M85 479H149Q159 479 159 469V190Q159 132 186 99T265 67Q313 67 343 99T373 185V469Q373 479 383 479H447Q457 479 457 469V10Q457 0 447 0H383Q373 0 373 10V55H372Q331 -11 241 -11Q163 -11 119 38T75 170V469Q75 479 85 479ZM213 683Q243 683 276 662Q305 644 329 644Q359 644 392 676Q395 679 397 678T400 674V626Q400 616 393 608Q361 576 325 576Q297 576 262 597Q231 615 209 615Q179 615 146 583Q143 580 140 581T138 585V633Q138 643 145 651Q177 683 213 683Z" horiz-adv-x="539" unicode="ũ"/>
			<glyph d="M89 680H158Q168 680 168 670V238Q168 158 209 115T320 72Q389 72 430 115T471 238V670Q471 680 481 680H550Q560 680 560 670V237Q560 119 496 54T320 -11Q207 -11 143 53T79 237V670Q79 680 89 680ZM192 855H447Q457 855 457 845V800Q457 790 447 790H192Q182 790 182 800V845Q182 855 192 855Z" horiz-adv-x="639" unicode="Ū"/>
			<glyph d="M85 479H149Q159 479 159 469V190Q159 132 186 99T265 67Q313 67 343 99T373 185V469Q373 479 383 479H447Q457 479 457 469V10Q457 0 447 0H383Q373 0 373 10V55H372Q331 -11 241 -11Q163 -11 119 38T75 170V469Q75 479 85 479ZM141 666H396Q406 666 406 656V611Q406 601 396 601H141Q131 601 131 611V656Q131 666 141 666Z" horiz-adv-x="539" unicode="ū"/>
			<glyph d="M89 680H158Q168 680 168 670V238Q168 158 209 115T320 72Q389 72 430 115T471 238V670Q471 680 481 680H550Q560 680 560 670V237Q560 119 496 54T320 -11Q207 -11 143 53T79 237V670Q79 680 89 680ZM192 884H228Q236 884 239 874Q255 822 319 822Q383 822 398 874Q401 884 410 884H445Q454 884 454 874Q449 824 412 792T319 761Q262 761 225 792T183 874Q183 884 192 884Z" horiz-adv-x="639" unicode="Ŭ"/>
			<glyph d="M85 479H149Q159 479 159 469V190Q159 132 186 99T265 67Q313 67 343 99T373 185V469Q373 479 383 479H447Q457 479 457 469V10Q457 0 447 0H383Q373 0 373 10V55H372Q331 -11 241 -11Q163 -11 119 38T75 170V469Q75 479 85 479ZM142 684H178Q186 684 189 674Q206 622 269 622Q333 622 348 674Q351 684 360 684H395Q404 684 404 674Q399 624 362 592T269 561Q212 561 175 592T133 674Q133 684 142 684Z" horiz-adv-x="539" unicode="ŭ"/>
			<glyph d="M89 680H158Q168 680 168 670V238Q168 158 209 115T320 72Q389 72 430 115T471 238V670Q471 680 481 680H550Q560 680 560 670V237Q560 119 496 54T320 -11Q207 -11 143 53T79 237V670Q79 680 89 680ZM319 917Q358 917 386 890T414 823Q414 783 386 756T319 729Q280 729 252 756T224 823Q224 863 252 890T319 917ZM319 876Q298 876 283 860T268 823Q268 801 283 785T319 770Q340 770 355 785T370 823Q370 845 355 860T319 876Z" horiz-adv-x="639" unicode="Ů"/>
			<glyph d="M85 479H149Q159 479 159 469V190Q159 132 186 99T265 67Q313 67 343 99T373 185V469Q373 479 383 479H447Q457 479 457 469V10Q457 0 447 0H383Q373 0 373 10V55H372Q331 -11 241 -11Q163 -11 119 38T75 170V469Q75 479 85 479ZM269 723Q308 723 336 696T364 629Q364 589 336 562T269 535Q230 535 202 562T174 629Q174 669 202 696T269 723ZM269 682Q248 682 233 666T218 629Q218 607 233 591T269 576Q290 576 305 591T320 629Q320 651 305 666T269 682Z" horiz-adv-x="539" unicode="ů"/>
			<glyph d="M89 680H158Q168 680 168 670V238Q168 158 209 115T320 72Q389 72 430 115T471 238V670Q471 680 481 680H550Q560 680 560 670V237Q560 119 496 54T320 -11Q207 -11 143 53T79 237V670Q79 680 89 680ZM439 889H496Q500 889 501 886T500 879L424 773Q418 764 406 764H361Q350 764 357 774L423 879Q429 889 439 889ZM297 889H354Q358 889 359 886T358 879L282 773Q276 764 264 764H219Q208 764 215 774L281 879Q287 889 297 889Z" horiz-adv-x="639" unicode="Ű"/>
			<glyph d="M85 479H149Q159 479 159 469V190Q159 132 186 99T265 67Q313 67 343 99T373 185V469Q373 479 383 479H447Q457 479 457 469V10Q457 0 447 0H383Q373 0 373 10V55H372Q331 -11 241 -11Q163 -11 119 38T75 170V469Q75 479 85 479ZM386 700H443Q447 700 448 697T448 690L371 566Q366 557 355 557H310Q299 557 304 567L370 690Q377 700 386 700ZM244 700H301Q305 700 306 697T306 690L229 566Q224 557 213 557H168Q157 557 162 567L228 690Q235 700 244 700Z" horiz-adv-x="539" unicode="ű"/>
			<glyph d="M89 680H158Q168 680 168 670V238Q168 158 209 115T320 72Q389 72 430 115T471 238V670Q471 680 481 680H550Q560 680 560 670V237Q560 134 510 70T373 -7Q316 -59 316 -89Q316 -101 323 -108T343 -116Q354 -116 370 -108Q378 -103 383 -112L400 -147Q405 -155 397 -161Q367 -182 329 -182Q292 -182 269 -161T246 -103Q246 -60 293 -10Q192 -2 135 62T79 237V670Q79 680 89 680Z" horiz-adv-x="639" unicode="Ų"/>
			<glyph d="M85 479H149Q159 479 159 469V190Q159 132 186 99T265 67Q313 67 343 99T373 185V469Q373 479 383 479H447Q457 479 457 469V10Q457 3 452 0Q369 -55 369 -89Q369 -101 376 -108T396 -116Q407 -116 423 -108Q431 -103 436 -112L453 -147Q457 -154 449 -161Q421 -182 382 -182Q344 -182 321 -161T299 -103Q299 -82 311 -58T375 3L373 11V55H372Q331 -11 241 -11Q163 -11 119 38T75 170V469Q75 479 85 479Z" horiz-adv-x="540" unicode="ų"/>
			<glyph d="M32 680H98Q109 680 110 670L231 165H233L374 670Q377 680 386 680H437Q446 680 449 670L593 165H595L713 670Q716 680 726 680H791Q801 680 799 670L635 10Q633 0 623 0H568Q560 0 557 10L412 517H410L266 10Q263 0 254 0H199Q190 0 188 10L24 670Q21 680 32 680ZM389 897H432Q441 897 448 887L543 764Q546 760 544 757T539 754H494Q484 754 475 764L412 834H410L346 764Q337 754 327 754H282Q278 754 276 757T278 764L373 887Q380 897 389 897Z" horiz-adv-x="823" unicode="Ŵ"/>
			<glyph d="M38 479H106Q115 479 119 469L225 123H227L335 469Q338 479 347 479H399Q409 479 412 469L521 123H523L626 469Q629 479 639 479H707Q717 479 714 469L563 10Q560 0 551 0H494Q485 0 482 10L374 353H372L263 10Q260 0 251 0H193Q184 0 181 10L31 469Q28 479 38 479ZM350 700H393Q402 700 409 690L504 567Q507 563 505 560T500 557H455Q445 557 436 567L373 637H371L307 567Q298 557 288 557H243Q239 557 237 560T239 567L334 690Q341 700 350 700Z" horiz-adv-x="745" unicode="ŵ"/>
			<glyph d="M26 680H97Q106 680 112 670L264 379H266L417 670Q421 680 431 680H500Q512 680 508 669L307 278V10Q307 0 297 0H229Q219 0 219 10V278L18 669Q14 680 26 680ZM240 897H283Q292 897 299 887L394 764Q397 760 395 757T390 754H345Q335 754 326 764L263 834H261L197 764Q188 754 178 754H133Q129 754 127 757T129 764L224 887Q231 897 240 897Z" horiz-adv-x="526" unicode="Ŷ"/>
			<glyph d="M33 479H103Q112 479 115 469L241 123H243L364 469Q367 479 376 479H444Q455 479 452 469L263 -37Q236 -110 204 -145T112 -180H86Q76 -180 76 -170V-112Q76 -102 86 -102H104Q126 -102 146 -90T185 -30L201 14L25 469Q22 479 33 479ZM219 700H262Q271 700 278 690L373 567Q376 563 374 560T369 557H324Q314 557 305 567L242 637H240L176 567Q167 557 157 557H112Q108 557 106 560T108 567L203 690Q210 700 219 700Z" horiz-adv-x="477" unicode="ŷ"/>
			<glyph d="M26 680H97Q106 680 112 670L264 379H266L417 670Q421 680 431 680H500Q512 680 508 669L307 278V10Q307 0 297 0H229Q219 0 219 10V278L18 669Q14 680 26 680ZM334 869H390Q400 869 400 859V787Q400 777 390 777H334Q324 777 324 787V859Q324 869 334 869ZM134 869H190Q200 869 200 859V787Q200 777 190 777H134Q124 777 124 787V859Q124 869 134 869Z" horiz-adv-x="526" unicode="Ÿ"/>
			<glyph d="M71 680H477Q487 680 487 670V607L483 596L150 84V83H477Q487 83 487 73V10Q487 0 477 0H59Q49 0 49 10V73L53 84L385 596V597H71Q61 597 61 607V670Q61 680 71 680ZM325 888H395Q399 888 401 884T400 878L293 771Q285 762 275 762H225Q221 762 219 765T221 772L307 878Q315 888 325 888Z" horiz-adv-x="536" unicode="Ź"/>
			<glyph d="M78 479H412Q422 479 422 469V413L418 402L157 78V76H412Q422 76 422 66V10Q422 0 412 0H65Q55 0 55 10V63L59 74L322 401V403H78Q68 403 68 413V469Q68 479 78 479ZM288 700H354Q358 700 360 696T359 690L267 567Q260 557 248 557H201Q190 557 195 567L271 690Q277 700 288 700Z" horiz-adv-x="477" unicode="ź"/>
			<glyph d="M71 680H477Q487 680 487 670V607L483 596L150 84V83H477Q487 83 487 73V10Q487 0 477 0H59Q49 0 49 10V73L53 84L385 596V597H71Q61 597 61 607V670Q61 680 71 680ZM236 869H305Q315 869 315 859V787Q315 777 305 777H236Q226 777 226 787V859Q226 869 236 869Z" horiz-adv-x="536" unicode="Ż"/>
			<glyph d="M78 479H412Q422 479 422 469V413L418 402L157 78V76H412Q422 76 422 66V10Q422 0 412 0H65Q55 0 55 10V63L59 74L322 401V403H78Q68 403 68 413V469Q68 479 78 479ZM206 680H275Q285 680 285 670V597Q285 587 275 587H206Q196 587 196 597V670Q196 680 206 680Z" horiz-adv-x="477" unicode="ż"/>
			<glyph d="M71 680H477Q487 680 487 670V607L483 596L150 84V83H477Q487 83 487 73V10Q487 0 477 0H59Q49 0 49 10V73L53 84L385 596V597H71Q61 597 61 607V670Q61 680 71 680ZM142 896H187Q197 896 206 886L270 815H272L335 886Q344 896 354 896H399Q403 896 404 893T403 886L308 762Q301 752 292 752H249Q240 752 233 762L138 886Q135 890 136 893T142 896Z" horiz-adv-x="536" unicode="Ž"/>
			<glyph d="M78 479H412Q422 479 422 469V413L418 402L157 78V76H412Q422 76 422 66V10Q422 0 412 0H65Q55 0 55 10V63L59 74L322 401V403H78Q68 403 68 413V469Q68 479 78 479ZM112 699H157Q167 699 176 689L240 618H242L305 689Q314 699 324 699H369Q373 699 374 696T373 689L278 565Q271 555 262 555H219Q210 555 203 565L108 689Q105 693 106 696T112 699Z" horiz-adv-x="477" unicode="ž"/>
			<glyph d="M431 680H457Q467 680 467 670V614Q467 604 457 604H435Q400 604 381 587T356 530L336 402H429Q439 402 439 392V345Q439 335 429 335H325L269 -27Q258 -100 225 -140T110 -180H86Q76 -180 76 -170V-114Q76 -104 86 -104H106Q134 -104 156 -93T187 -29L243 335H168Q158 335 158 345V392Q158 402 168 402H253L273 529Q284 600 317 640T431 680Z" unicode="ƒ"/>
			<glyph d="M294 691Q337 691 394 677T501 628Q509 622 503 614L469 559Q463 552 455 557Q373 608 291 608Q231 608 196 577T162 498Q162 408 305 389L338 384Q538 357 538 194Q538 102 473 45T290 -11Q222 -11 156 13T51 74Q44 81 50 89L94 141Q100 148 108 142Q196 72 298 72Q367 72 407 104T448 188Q448 234 416 261T306 299L272 304Q72 331 72 492Q72 582 132 636T294 691ZM265 -53H325Q335 -53 335 -63V-124Q335 -136 329 -144L278 -205Q273 -213 264 -213Q255 -213 255 -203V-63Q255 -53 265 -53Z" horiz-adv-x="591" unicode="Ș"/>
			<glyph d="M248 490Q347 490 418 437Q426 432 420 423L386 380Q380 373 372 378Q312 417 243 417Q200 417 176 399T152 351Q152 322 173 306T246 286L296 281Q358 275 399 243T440 146Q440 74 389 31T247 -11Q132 -11 49 61Q42 68 49 75L90 119Q97 126 104 119Q132 95 171 79T252 64Q302 64 329 84T357 137Q357 167 337 182T264 204L213 209Q152 216 111 247T70 344Q70 412 117 451T248 490ZM215 -53H275Q285 -53 285 -63V-124Q285 -136 279 -144L228 -205Q223 -213 214 -213Q205 -213 205 -203V-63Q205 -53 215 -53Z" horiz-adv-x="490" unicode="ș"/>
			<glyph d="M32 680H505Q515 680 515 670V607Q515 597 505 597H319Q313 597 313 591V10Q313 0 303 0H234Q224 0 224 10V591Q224 597 218 597H32Q22 597 22 607V670Q22 680 32 680ZM238 -53H298Q308 -53 308 -63V-124Q308 -136 302 -144L251 -205Q246 -213 237 -213Q228 -213 228 -203V-63Q228 -53 238 -53Z" horiz-adv-x="537" unicode="Ț"/>
			<glyph d="M102 630H166Q176 630 176 620V485Q176 479 182 479H258Q268 479 268 469V421Q268 411 258 411H182Q176 411 176 405V134Q176 108 186 90T237 73H258Q268 73 268 63V5Q268 -5 258 -5H221Q161 -5 126 23T92 131V405Q92 411 86 411H46Q36 411 36 421V469Q36 479 46 479H86Q92 479 92 485V620Q92 630 102 630ZM150 -53H210Q220 -53 220 -63V-124Q220 -136 214 -144L163 -205Q158 -213 149 -213Q140 -213 140 -203V-63Q140 -53 150 -53Z" horiz-adv-x="316" unicode="ț"/>
			<glyph d="M92 479H156Q166 479 166 469V-36Q166 -103 136 -141T23 -180H3Q-7 -180 -7 -170V-112Q-7 -102 3 -102H19Q46 -102 64 -92T82 -38V469Q82 479 92 479Z" horiz-adv-x="248" unicode="ȷ"/>
			<glyph d="M189 700H232Q241 700 248 690L343 567Q346 563 344 560T339 557H294Q284 557 275 567L212 637H210L146 567Q137 557 127 557H82Q78 557 76 560T78 567L173 690Q180 700 189 700Z" horiz-adv-x="421" unicode="ˆ"/>
			<glyph d="M82 699H127Q137 699 146 689L210 618H212L275 689Q284 699 294 699H339Q343 699 344 696T343 689L248 565Q241 555 232 555H189Q180 555 173 565L78 689Q75 693 76 696T82 699Z" horiz-adv-x="421" unicode="ˇ"/>
			<glyph d="M83 855H338Q348 855 348 845V800Q348 790 338 790H83Q73 790 73 800V845Q73 855 83 855Z" horiz-adv-x="421" unicode="ˉ"/>
			<glyph d="M84 684H120Q128 684 131 674Q148 622 211 622Q275 622 290 674Q293 684 302 684H337Q346 684 346 674Q341 624 304 592T211 561Q154 561 117 592T75 674Q75 684 84 684Z" horiz-adv-x="421" unicode="˘"/>
			<glyph d="M176 680H245Q255 680 255 670V597Q255 587 245 587H176Q166 587 166 597V670Q166 680 176 680Z" horiz-adv-x="421" unicode="˙"/>
			<glyph d="M211 723Q250 723 278 696T306 629Q306 589 278 562T211 535Q172 535 144 562T116 629Q116 669 144 696T211 723ZM211 682Q190 682 175 666T160 629Q160 607 175 591T211 576Q232 576 247 591T262 629Q262 651 247 666T211 682Z" horiz-adv-x="421" unicode="˚"/>
			<glyph d="M215 10H273Q277 10 278 6T275 0Q192 -52 192 -89Q192 -101 199 -108T218 -116Q229 -116 245 -108Q254 -104 258 -112L276 -147Q280 -154 272 -161Q242 -182 205 -182Q167 -182 144 -161T121 -103Q121 -48 190 0Q204 10 215 10Z" horiz-adv-x="421" unicode="˛"/>
			<glyph d="M153 683Q183 683 216 662Q245 644 269 644Q299 644 332 676Q335 679 337 678T340 674V626Q340 616 333 608Q301 576 265 576Q237 576 202 597Q171 615 149 615Q119 615 86 583Q83 580 80 581T78 585V633Q78 643 85 651Q117 683 153 683Z" horiz-adv-x="421" unicode="˜"/>
			<glyph d="M295 700H352Q356 700 357 697T357 690L280 566Q275 557 264 557H219Q208 557 213 567L279 690Q286 700 295 700ZM153 700H210Q214 700 215 697T215 690L138 566Q133 557 122 557H77Q66 557 71 567L137 690Q144 700 153 700Z" horiz-adv-x="421" unicode="˝"/>
			<glyph d="M257 717H335Q339 717 341 714T340 707L202 479Q196 469 186 469H135Q124 469 129 479L242 707Q246 717 257 717Z" horiz-adv-x="468" unicode="ʹ"/>
			<glyph d="M283 65H334Q345 65 340 55L227 -173Q223 -183 212 -183H134Q130 -183 128 -180T129 -173L267 55Q273 65 283 65Z" horiz-adv-x="468" unicode="͵"/>
			<glyph d="M84 479H160Q170 479 170 469V383Q170 373 160 373H84Q74 373 74 383V469Q74 479 84 479ZM87 106H157Q167 106 167 96V3Q167 -10 161 -18L99 -101Q93 -108 86 -108Q77 -108 77 -99V96Q77 106 87 106Z" horiz-adv-x="244" unicode=";"/>
			<glyph d="M177 700H261Q271 700 265 690L203 567Q198 557 190 557H134Q125 557 128 567L164 690Q167 700 177 700Z" horiz-adv-x="393" unicode="΄"/>
			<glyph d="M353 670H412Q422 670 422 660V587Q422 577 412 577H353Q343 577 343 587V660Q343 670 353 670ZM83 670H142Q152 670 152 660V587Q152 577 142 577H83Q73 577 73 587V660Q73 670 83 670ZM231 700H307Q316 700 312 690L263 567Q259 557 251 557H202Q193 557 195 567L219 690Q220 700 231 700Z" horiz-adv-x="494" unicode="΅"/>
			<glyph d="M272 680H337Q347 680 350 670L583 10Q586 0 576 0H506Q496 0 493 10L441 158H166L114 10Q110 0 101 0H31Q21 0 24 10L260 670Q263 680 272 680ZM303 549L195 240H412L305 549ZM87 680H171Q181 680 175 670L113 547Q108 537 100 537H44Q35 537 38 547L74 670Q77 680 87 680Z" horiz-adv-x="607" unicode="Ά"/>
			<glyph d="M80 318H156Q166 318 166 308V222Q166 212 156 212H80Q70 212 70 222V308Q70 318 80 318Z" horiz-adv-x="236" unicode="·"/>
			<glyph d="M94 680H503Q513 680 513 670V607Q513 597 503 597H179Q173 597 173 591V391Q173 385 179 385H454Q464 385 464 375V312Q464 302 454 302H179Q173 302 173 296V89Q173 83 179 83H503Q513 83 513 73V10Q513 0 503 0H94Q84 0 84 10V670Q84 680 94 680ZM-83 680H1Q11 680 5 670L-57 547Q-62 537 -70 537H-126Q-135 537 -132 547L-96 670Q-93 680 -83 680Z" horiz-adv-x="563" unicode="Έ"/>
			<glyph d="M94 680H163Q173 680 173 670V391Q173 385 179 385H474Q480 385 480 391V670Q480 680 490 680H559Q569 680 569 670V10Q569 0 559 0H490Q480 0 480 10V296Q480 302 474 302H179Q173 302 173 296V10Q173 0 163 0H94Q84 0 84 10V670Q84 680 94 680ZM-83 680H1Q11 680 5 670L-57 547Q-62 537 -70 537H-126Q-135 537 -132 547L-96 670Q-93 680 -83 680Z" horiz-adv-x="653" unicode="Ή"/>
			<glyph d="M94 680H163Q173 680 173 670V10Q173 0 163 0H94Q84 0 84 10V670Q84 680 94 680ZM-83 680H1Q11 680 5 670L-57 547Q-62 537 -70 537H-126Q-135 537 -132 547L-96 670Q-93 680 -83 680Z" horiz-adv-x="257" unicode="Ί"/>
			<glyph d="M309 691Q396 691 455 650T541 532Q559 478 559 340Q559 202 541 148Q515 70 455 29T309 -11Q223 -11 163 29T78 148Q60 202 60 340Q60 478 78 532Q104 610 163 650T309 691ZM309 608Q198 608 165 507Q150 460 150 340Q150 220 165 173Q198 72 309 72Q421 72 454 173Q469 220 469 340Q469 460 454 507Q421 608 309 608ZM-37 680H47Q57 680 51 670L-11 547Q-16 537 -24 537H-80Q-89 537 -86 547L-50 670Q-47 680 -37 680Z" horiz-adv-x="619" unicode="Ό"/>
			<glyph d="M26 680H97Q106 680 112 670L264 379H266L417 670Q421 680 431 680H500Q512 680 508 669L307 278V10Q307 0 297 0H229Q219 0 219 10V278L18 669Q14 680 26 680ZM-109 680H-25Q-15 680 -21 670L-83 547Q-88 537 -96 537H-152Q-161 537 -158 547L-122 670Q-119 680 -109 680Z" horiz-adv-x="526" unicode="Ύ"/>
			<glyph d="M312 691Q399 691 460 650T546 530Q565 467 565 340Q565 240 547 179T475 84V82H552Q562 82 562 72V10Q562 0 552 0H363Q353 0 353 10V72Q353 82 363 85Q417 103 446 154T475 340Q475 459 459 507T405 581T312 608Q258 608 220 581T166 507T150 340Q150 235 171 171T262 85Q272 82 272 72V10Q272 0 262 0H73Q63 0 63 10V72Q63 82 73 82H150V84Q101 115 80 171T60 340Q60 472 79 530Q105 609 165 650T312 691ZM-37 680H47Q57 680 51 670L-11 547Q-16 537 -24 537H-80Q-89 537 -86 547L-50 670Q-47 680 -37 680Z" horiz-adv-x="625" unicode="Ώ"/>
			<glyph d="M85 479H149Q159 479 159 469V118Q159 67 206 67Q224 67 242 73Q252 75 254 68L269 15Q271 9 265 5Q237 -11 181 -11Q75 -11 75 95V469Q75 479 85 479ZM243 670H302Q312 670 312 660V587Q312 577 302 577H243Q233 577 233 587V660Q233 670 243 670ZM-27 670H32Q42 670 42 660V587Q42 577 32 577H-27Q-37 577 -37 587V660Q-37 670 -27 670ZM121 700H197Q206 700 202 690L153 567Q149 557 141 557H92Q83 557 85 567L109 690Q110 700 121 700Z" horiz-adv-x="295" unicode="ΐ"/>
			<glyph d="M272 680H337Q347 680 350 670L583 10Q586 0 576 0H506Q496 0 493 10L441 158H166L114 10Q110 0 101 0H31Q21 0 24 10L260 670Q263 680 272 680ZM303 549L195 240H412L305 549Z" horiz-adv-x="607" unicode="Α"/>
			<glyph d="M94 680H335Q435 680 487 632T540 501Q540 445 515 407T449 353V351Q488 340 520 298T552 194Q552 100 494 50T330 0H94Q84 0 84 10V670Q84 680 94 680ZM179 599Q173 599 173 593V392Q173 386 179 386H333Q388 386 420 415T452 492Q452 540 420 569T333 599ZM179 305Q173 305 173 299V87Q173 81 179 81H338Q397 81 430 111T463 193Q463 243 430 274T338 305Z" horiz-adv-x="604" unicode="Β"/>
			<glyph d="M94 680H490Q500 680 500 670V607Q500 597 490 597H179Q173 597 173 591V10Q173 0 163 0H94Q84 0 84 10V670Q84 680 94 680Z" horiz-adv-x="523" unicode="Γ"/>
			<glyph d="M272 680H337Q346 680 349 670L583 10Q586 0 575 0H32Q21 0 24 10L260 670Q263 680 272 680ZM303 547L137 81Q136 75 142 75H465Q472 75 470 81L305 547Z" horiz-adv-x="607" unicode="Δ"/>
			<glyph d="M94 680H503Q513 680 513 670V607Q513 597 503 597H179Q173 597 173 591V391Q173 385 179 385H454Q464 385 464 375V312Q464 302 454 302H179Q173 302 173 296V89Q173 83 179 83H503Q513 83 513 73V10Q513 0 503 0H94Q84 0 84 10V670Q84 680 94 680Z" horiz-adv-x="563" unicode="Ε"/>
			<glyph d="M71 680H477Q487 680 487 670V607L483 596L150 84V83H477Q487 83 487 73V10Q487 0 477 0H59Q49 0 49 10V73L53 84L385 596V597H71Q61 597 61 607V670Q61 680 71 680Z" horiz-adv-x="536" unicode="Ζ"/>
			<glyph d="M94 680H163Q173 680 173 670V391Q173 385 179 385H474Q480 385 480 391V670Q480 680 490 680H559Q569 680 569 670V10Q569 0 559 0H490Q480 0 480 10V296Q480 302 474 302H179Q173 302 173 296V10Q173 0 163 0H94Q84 0 84 10V670Q84 680 94 680Z" horiz-adv-x="653" unicode="Η"/>
			<glyph d="M312 691Q399 691 458 650T544 532Q566 466 566 340Q566 214 544 148Q518 70 458 29T312 -11Q226 -11 166 29T81 148Q60 211 60 340Q60 469 81 532Q107 610 166 650T312 691ZM312 608Q257 608 219 581T166 507Q150 457 150 340Q150 229 168 173Q201 72 312 72Q426 72 459 173Q476 226 476 340Q476 454 459 507Q426 608 312 608ZM217 377H409Q419 377 419 367V313Q419 303 409 303H217Q207 303 207 313V367Q207 377 217 377Z" horiz-adv-x="626" unicode="Θ"/>
			<glyph d="M94 680H163Q173 680 173 670V10Q173 0 163 0H94Q84 0 84 10V670Q84 680 94 680Z" horiz-adv-x="257" unicode="Ι"/>
			<glyph d="M94 680H163Q173 680 173 670V316L462 671Q468 680 478 680H560Q564 680 565 676T564 668L352 413L585 11Q588 7 586 3T579 0H499Q490 0 485 9L294 344L173 198V10Q173 0 163 0H94Q84 0 84 10V670Q84 680 94 680Z" horiz-adv-x="616" unicode="Κ"/>
			<glyph d="M272 680H337Q347 680 350 670L583 10Q586 0 576 0H506Q496 0 493 10L305 549H303L114 10Q110 0 101 0H31Q21 0 24 10L260 670Q263 680 272 680Z" horiz-adv-x="607" unicode="Λ"/>
			<glyph d="M94 680H159Q171 680 175 670L378 212H381L580 670Q584 680 596 680H661Q671 680 671 670V10Q671 0 661 0H598Q588 0 588 10V483H585L416 109Q411 97 398 97H358Q344 97 339 109L170 483H167V10Q167 0 157 0H94Q84 0 84 10V670Q84 680 94 680Z" horiz-adv-x="755" unicode="Μ"/>
			<glyph d="M94 680H158Q170 680 175 670L483 160H487V670Q487 680 497 680H560Q570 680 570 670V10Q570 0 560 0H496Q484 0 479 10L170 518H167V10Q167 0 157 0H94Q84 0 84 10V670Q84 680 94 680Z" horiz-adv-x="654" unicode="Ν"/>
			<glyph d="M60 84H488Q498 84 498 71V10Q498 0 488 0H60Q50 0 50 10V71Q50 84 60 84ZM108 386H426Q432 386 441 383T450 376V312Q450 308 441 305T426 302H108Q98 302 98 312V376Q98 386 108 386ZM60 680H488Q498 680 498 670V606Q498 596 488 596H60Q50 596 50 606V670Q50 680 60 680Z" horiz-adv-x="548" unicode="Ξ"/>
			<glyph d="M309 691Q396 691 455 650T541 532Q559 478 559 340Q559 202 541 148Q515 70 455 29T309 -11Q223 -11 163 29T78 148Q60 202 60 340Q60 478 78 532Q104 610 163 650T309 691ZM309 608Q198 608 165 507Q150 460 150 340Q150 220 165 173Q198 72 309 72Q421 72 454 173Q469 220 469 340Q469 460 454 507Q421 608 309 608Z" horiz-adv-x="619" unicode="Ο"/>
			<glyph d="M94 680H549Q559 680 559 670V10Q559 0 549 0H480Q470 0 470 10V591Q470 597 464 597H179Q173 597 173 591V10Q173 0 163 0H94Q84 0 84 10V670Q84 680 94 680Z" horiz-adv-x="643" unicode="Π"/>
			<glyph d="M94 680H336Q434 680 493 624T552 477Q552 385 493 329T336 274H179Q173 274 173 268V10Q173 0 163 0H94Q84 0 84 10V670Q84 680 94 680ZM179 597Q173 597 173 591V363Q173 357 179 357H331Q393 357 428 389T464 477Q464 532 428 564T331 597Z" horiz-adv-x="592" unicode="Ρ"/>
			<glyph d="M60 680H466Q476 680 476 670V607Q476 597 466 597H155V595L306 357Q310 352 307 347L144 85V83H471Q481 83 481 73V10Q481 0 471 0H53Q43 0 43 10V69L48 83L207 335L54 587Q50 593 50 600V670Q50 680 60 680Z" horiz-adv-x="538" unicode="Σ"/>
			<glyph d="M32 680H505Q515 680 515 670V607Q515 597 505 597H319Q313 597 313 591V10Q313 0 303 0H234Q224 0 224 10V591Q224 597 218 597H32Q22 597 22 607V670Q22 680 32 680Z" horiz-adv-x="537" unicode="Τ"/>
			<glyph d="M26 680H97Q106 680 112 670L264 379H266L417 670Q421 680 431 680H500Q512 680 508 669L307 278V10Q307 0 297 0H229Q219 0 219 10V278L18 669Q14 680 26 680Z" horiz-adv-x="526" unicode="Υ"/>
			<glyph d="M331 693H400Q410 693 410 683V639Q534 634 605 559T676 339Q676 261 650 191T561 81T410 39V-3Q410 -13 400 -13H331Q321 -13 321 -3V39Q190 44 122 122T55 339Q55 476 120 555T321 639V683Q321 693 331 693ZM321 557Q142 553 142 339Q142 125 321 121ZM410 557V121Q589 125 589 339Q589 553 410 557Z" horiz-adv-x="731" unicode="Φ"/>
			<glyph d="M51 680H129Q138 680 144 671L282 441H283L422 671Q427 680 436 680H514Q519 680 520 676T520 668L332 354L538 12Q540 8 538 4T532 0H453Q444 0 439 9L283 268H282L126 9Q120 0 111 0H33Q29 0 27 4T28 12L233 354L46 668Q43 672 45 676T51 680Z" horiz-adv-x="567" unicode="Χ"/>
			<glyph d="M99 680H168Q178 680 178 670V372Q178 261 211 230T326 198V670Q326 680 336 680H405Q415 680 415 670V198Q497 199 530 230T563 372V670Q563 680 573 680H641Q652 680 652 670V369Q652 242 599 180T415 115V10Q415 0 405 0H336Q326 0 326 10V115Q202 118 145 176T89 369V670Q89 680 99 680Z" horiz-adv-x="741" unicode="Ψ"/>
			<glyph d="M312 691Q399 691 460 650T546 530Q565 467 565 340Q565 240 547 179T475 84V82H552Q562 82 562 72V10Q562 0 552 0H363Q353 0 353 10V72Q353 82 363 85Q417 103 446 154T475 340Q475 459 459 507T405 581T312 608Q258 608 220 581T166 507T150 340Q150 235 171 171T262 85Q272 82 272 72V10Q272 0 262 0H73Q63 0 63 10V72Q63 82 73 82H150V84Q101 115 80 171T60 340Q60 472 79 530Q105 609 165 650T312 691Z" horiz-adv-x="625" unicode="Ω"/>
			<glyph d="M94 680H163Q173 680 173 670V10Q173 0 163 0H94Q84 0 84 10V670Q84 680 94 680ZM200 869H256Q266 869 266 859V787Q266 777 256 777H200Q190 777 190 787V859Q190 869 200 869ZM0 869H56Q66 869 66 859V787Q66 777 56 777H0Q-10 777 -10 787V859Q-10 869 0 869Z" horiz-adv-x="257" unicode="Ϊ"/>
			<glyph d="M26 680H97Q106 680 112 670L264 379H266L417 670Q421 680 431 680H500Q512 680 508 669L307 278V10Q307 0 297 0H229Q219 0 219 10V278L18 669Q14 680 26 680ZM335 869H391Q401 869 401 859V787Q401 777 391 777H335Q325 777 325 787V859Q325 869 335 869ZM135 869H191Q201 869 201 859V787Q201 777 191 777H135Q125 777 125 787V859Q125 869 135 869Z" horiz-adv-x="526" unicode="Ϋ"/>
			<glyph d="M229 490Q290 490 330 462T395 359H396Q418 432 421 466Q422 479 435 479H498Q509 479 508 466Q507 457 502 427T436 216L447 170Q460 116 472 94T514 73H520Q531 73 531 62V5Q531 -5 520 -5H514Q468 -5 437 9T385 98H384Q359 43 324 16T228 -11Q146 -11 97 49T48 240Q48 360 94 425T229 490ZM242 412Q192 412 163 370T134 240Q134 67 238 67Q293 67 325 112T357 243Q357 326 326 369T242 412ZM272 700H356Q366 700 360 690L298 567Q293 557 285 557H229Q220 557 223 567L259 690Q262 700 272 700Z" horiz-adv-x="571" unicode="ά"/>
			<glyph d="M255 490Q286 490 328 483T399 465Q408 461 405 450L388 402Q385 394 374 398Q315 417 252 417Q155 417 155 350Q155 287 247 287H325Q338 287 338 275V224Q338 213 326 213H246Q142 213 142 136Q142 62 251 62Q318 62 390 88Q400 91 404 83L421 36Q424 29 414 24Q348 -11 249 -11Q150 -11 100 24T50 127Q50 170 71 203T140 252V253Q69 282 69 354Q69 414 115 452T255 490ZM280 700H364Q374 700 368 690L306 567Q301 557 293 557H237Q228 557 231 567L267 690Q270 700 280 700Z" horiz-adv-x="469" unicode="έ"/>
			<glyph d="M310 490Q382 490 429 443T476 307V-170Q476 -180 466 -180H402Q392 -180 392 -170V286Q392 348 363 380T282 412Q237 412 205 381T173 293V10Q173 0 163 0H99Q89 0 89 10V363Q89 406 60 406Q50 406 50 416V474Q50 484 60 484Q104 484 131 469T164 414L165 410H166Q185 451 224 470T310 490ZM272 700H356Q366 700 360 690L298 567Q293 557 285 557H229Q220 557 223 567L259 690Q262 700 272 700Z" horiz-adv-x="553" unicode="ή"/>
			<glyph d="M85 479H149Q159 479 159 469V118Q159 67 206 67Q224 67 242 73Q252 75 254 68L269 15Q271 9 265 5Q237 -11 181 -11Q75 -11 75 95V469Q75 479 85 479ZM134 700H218Q228 700 222 690L160 567Q155 557 147 557H91Q82 557 85 567L121 690Q124 700 134 700Z" horiz-adv-x="295" unicode="ί"/>
			<glyph d="M61 484H75Q129 484 151 463T174 376V192Q174 67 284 67Q394 67 394 193V469Q394 479 404 479H468Q478 479 478 469V197Q478 104 432 46T284 -11Q90 -11 90 197V366Q90 406 60 406Q50 406 50 416V474Q50 484 61 484ZM381 670H440Q450 670 450 660V587Q450 577 440 577H381Q371 577 371 587V660Q371 670 381 670ZM111 670H170Q180 670 180 660V587Q180 577 170 577H111Q101 577 101 587V660Q101 670 111 670ZM259 700H335Q344 700 340 690L291 567Q287 557 279 557H230Q221 557 223 567L247 690Q248 700 259 700Z" horiz-adv-x="543" unicode="ΰ"/>
			<glyph d="M229 490Q290 490 330 462T395 359H396Q418 432 421 466Q422 479 435 479H498Q509 479 508 466Q507 457 502 427T436 216L447 170Q460 116 472 94T514 73H520Q531 73 531 62V5Q531 -5 520 -5H514Q468 -5 437 9T385 98H384Q359 43 324 16T228 -11Q146 -11 97 49T48 240Q48 360 94 425T229 490ZM242 412Q192 412 163 370T134 240Q134 67 238 67Q293 67 325 112T357 243Q357 326 326 369T242 412Z" horiz-adv-x="571" unicode="α"/>
			<glyph d="M281 691Q374 691 420 645T466 524Q466 478 441 439T385 386V384Q441 372 475 323T509 204Q509 153 489 101T423 19T312 -11Q216 -11 168 49H167V-170Q167 -180 157 -180H92Q82 -180 82 -170V455Q82 572 134 631T281 691ZM284 613Q166 613 166 458V205Q166 67 296 67Q351 67 385 102T420 203Q420 262 387 302T280 342H245Q235 342 235 352V401Q235 411 245 411H267Q384 411 384 517Q384 560 358 586T284 613Z" horiz-adv-x="562" unicode="β"/>
			<glyph d="M37 484H46Q98 484 123 461T181 356L274 112H275L312 211Q349 313 363 365T379 469Q379 479 390 479H455Q463 479 463 470Q463 439 452 382T375 156L311 -6L316 -155Q316 -165 306 -165H241Q231 -165 231 -155L237 -5L92 349Q79 381 67 393T38 406Q25 406 25 416V473Q25 484 37 484Z" horiz-adv-x="503" unicode="γ"/>
			<glyph d="M277 691Q364 691 428 662Q437 657 435 650L413 589Q410 581 400 585Q328 612 282 612Q216 612 216 563Q216 549 225 535T291 489L305 481Q386 434 426 372T467 221Q467 151 441 99T369 18T258 -11Q168 -11 109 47T51 220Q51 301 88 365T200 452V453L193 458Q164 477 144 500T124 565Q124 614 161 652T277 691ZM277 410Q212 400 174 352T137 219Q137 67 260 67Q319 67 350 108T381 218Q381 286 355 336T277 410Z" horiz-adv-x="515" unicode="δ"/>
			<glyph d="M255 490Q286 490 328 483T399 465Q408 461 405 450L388 402Q385 394 374 398Q315 417 252 417Q155 417 155 350Q155 287 247 287H325Q338 287 338 275V224Q338 213 326 213H246Q142 213 142 136Q142 62 251 62Q318 62 390 88Q400 91 404 83L421 36Q424 29 414 24Q348 -11 249 -11Q150 -11 100 24T50 127Q50 170 71 203T140 252V253Q69 282 69 354Q69 414 115 452T255 490Z" horiz-adv-x="469" unicode="ε"/>
			<glyph d="M84 680H388Q398 680 398 670V616Q265 517 200 430T136 245Q136 183 160 146T266 84L288 77Q335 62 359 37T383 -29Q383 -117 267 -165Q260 -168 257 -161L232 -117Q229 -110 236 -107Q305 -74 305 -42Q305 -25 295 -15T256 3L232 10Q135 39 92 93T50 230Q50 340 113 437T272 602L277 603H84Q74 603 74 613V670Q74 680 84 680Z" horiz-adv-x="403" unicode="ζ"/>
			<glyph d="M310 490Q382 490 429 443T476 307V-170Q476 -180 466 -180H402Q392 -180 392 -170V286Q392 348 363 380T282 412Q237 412 205 381T173 293V10Q173 0 163 0H99Q89 0 89 10V363Q89 406 60 406Q50 406 50 416V474Q50 484 60 484Q104 484 131 469T164 414L165 410H166Q185 451 224 470T310 490Z" horiz-adv-x="553" unicode="η"/>
			<glyph d="M264 691Q369 691 421 610T473 347Q473 215 456 142T393 29T264 -11Q199 -11 152 15T80 113T55 347Q55 527 106 609T264 691ZM139 306Q140 229 148 176T179 95T264 67Q343 67 364 122T389 306ZM264 613Q206 613 175 566T141 380H387Q384 505 356 559T264 613Z" horiz-adv-x="528" unicode="θ"/>
			<glyph d="M85 479H149Q159 479 159 469V118Q159 67 206 67Q224 67 242 73Q252 75 254 68L269 15Q271 9 265 5Q237 -11 181 -11Q75 -11 75 95V469Q75 479 85 479Z" horiz-adv-x="295" unicode="ι"/>
			<glyph d="M447 484H468Q478 484 478 474V416Q478 406 467 406H459Q431 406 411 398T356 344L311 285L494 10Q497 6 495 3T489 0H414Q405 0 399 10L259 223L165 105V10Q165 0 155 0H91Q81 0 81 10V469Q81 479 91 479H155Q165 479 165 469V221L301 395Q336 439 361 461T447 484Z" horiz-adv-x="521" unicode="κ"/>
			<glyph d="M103 680H118Q165 680 201 663T269 567L440 134Q455 96 465 84T497 73H504Q515 73 515 60V7Q515 -5 506 -5H484Q437 -5 412 11T369 79L266 352H264L122 10Q118 0 110 0H36Q23 0 30 15L227 451L195 531Q175 581 161 591T112 602H106Q95 602 95 612V670Q95 680 103 680Z" horiz-adv-x="536" unicode="λ"/>
			<glyph d="M92 479H156Q166 479 166 469V179Q166 67 272 67Q321 67 351 101T382 196V469Q382 479 392 479H456Q466 479 466 469V106Q466 88 472 80T496 73Q506 73 506 63V7Q506 -5 495 -5H486Q443 -5 420 10T393 73H392Q353 -11 259 -11Q197 -11 168 26H166V-170Q166 -180 156 -180H92Q82 -180 82 -170V469Q82 479 92 479Z" horiz-adv-x="561" unicode="μ"/>
			<glyph d="M33 479H103Q113 479 116 469L242 109H244L286 227Q319 320 331 369T344 469Q344 479 356 479H419Q428 479 428 470Q428 423 413 358T347 163L287 10Q283 0 276 0H210Q202 0 199 10L26 469Q23 479 33 479Z" horiz-adv-x="468" unicode="ν"/>
			<glyph d="M83 680H401Q411 680 411 670V620L348 614Q175 596 175 499Q175 456 208 434T322 413H360Q370 413 370 403V346Q370 336 361 336H322Q245 336 196 304T147 201Q147 168 165 141T266 88L305 78Q346 65 374 41T402 -30Q402 -67 375 -103T286 -165Q279 -168 276 -161L251 -117Q248 -110 255 -107Q285 -92 304 -76T324 -39Q324 -25 315 -16T281 1L244 10Q149 40 104 80T60 189Q60 257 97 305T199 371V372Q148 388 123 421T99 494Q99 574 167 602V603H83Q73 603 73 613V670Q73 680 83 680Z" horiz-adv-x="435" unicode="ξ"/>
			<glyph d="M256 490Q325 490 375 455T445 361Q461 313 461 240Q461 166 445 118Q426 58 375 23T256 -11Q187 -11 136 23T67 118Q51 166 51 240Q51 313 67 361Q86 421 136 455T256 490ZM256 412Q217 412 188 392T148 337Q137 301 137 240Q137 178 148 142Q160 107 188 87T256 67Q295 67 323 87T364 142Q375 178 375 240Q375 301 364 337Q352 372 323 392T256 412Z" horiz-adv-x="512" unicode="ο"/>
			<glyph d="M50 479H533Q543 479 543 469V411Q543 401 533 401H480Q474 401 474 395V125Q474 104 480 88T512 73H522Q532 73 532 63V5Q532 -5 522 -5H505Q449 -5 419 19T390 115V395Q390 401 384 401H199Q193 401 193 395V10Q193 0 183 0H119Q109 0 109 10V395Q109 401 103 401H50Q40 401 40 411V469Q40 479 50 479Z" horiz-adv-x="593" unicode="π"/>
			<glyph d="M272 490Q320 490 370 468T448 392Q477 334 477 240Q477 145 449 89Q428 48 383 18T277 -11Q192 -11 153 55H152V-170Q152 -180 142 -180H77Q67 -180 67 -170V239Q67 367 121 428T272 490ZM272 412Q233 412 204 392T164 337Q153 304 153 240Q153 174 164 142Q175 108 203 87T269 67Q355 67 380 141Q391 175 391 240Q391 300 380 336Q354 412 272 412Z" horiz-adv-x="528" unicode="ρ"/>
			<glyph d="M257 490Q340 490 398 461Q408 456 404 448L382 395Q378 384 366 389Q314 412 262 412Q201 412 166 373T131 258Q131 213 152 177T256 102Q327 69 352 43T378 -25Q378 -116 262 -165Q255 -168 251 -159L228 -119Q224 -110 231 -107Q261 -93 280 -77T300 -35Q300 -18 288 -5T233 26Q122 75 83 127T45 257Q45 369 105 429T257 490Z" horiz-adv-x="447" unicode="ς"/>
			<glyph d="M289 479H500Q510 479 510 469V416Q510 406 500 406H402V405Q458 358 458 237Q458 165 442 118Q423 59 372 24T255 -11Q184 -11 134 24T64 118Q48 165 48 234Q48 362 113 420T289 479ZM288 407Q213 407 173 368T134 229Q134 178 145 142Q170 67 254 67Q294 67 322 88T361 142Q372 178 372 243Q372 371 307 407Z" horiz-adv-x="545" unicode="σ"/>
			<glyph d="M40 479H399Q409 479 409 469V411Q409 401 399 401H261Q255 401 255 395V120Q255 97 263 82T302 67Q326 67 344 73Q354 77 356 69L371 15Q372 10 366 6Q335 -11 284 -11Q228 -11 199 14T171 104V395Q171 401 165 401H40Q30 401 30 411V469Q30 479 40 479Z" horiz-adv-x="449" unicode="τ"/>
			<glyph d="M61 484H75Q129 484 151 463T174 376V192Q174 67 284 67Q394 67 394 193V469Q394 479 404 479H468Q478 479 478 469V197Q478 104 432 46T284 -11Q90 -11 90 197V366Q90 406 60 406Q50 406 50 416V474Q50 484 61 484Z" horiz-adv-x="543" unicode="υ"/>
			<glyph d="M300 600H362Q372 600 372 590V494Q493 490 553 417T614 238Q614 129 553 57T372 -18V-170Q372 -180 362 -180H300Q290 -180 290 -170V-18Q173 -15 110 56T48 238Q48 350 111 420T290 494V590Q290 600 300 600ZM290 420Q134 415 134 238Q134 156 172 107T290 56ZM372 420V56Q445 58 486 103T528 238Q528 413 372 420Z" horiz-adv-x="662" unicode="φ"/>
			<glyph d="M51 484H66Q107 484 134 474T193 402L275 245L397 473Q400 479 408 479H482Q487 479 488 475T487 467L317 163L434 -53Q449 -80 463 -93T508 -107H514Q524 -107 524 -118V-176Q524 -185 514 -185H496Q460 -185 429 -173T372 -113L266 86L124 -174Q120 -180 111 -180H37Q33 -180 31 -176T32 -168L222 166L114 368Q105 386 93 396T58 406H50Q40 406 40 417V473Q40 484 51 484Z" horiz-adv-x="529" unicode="χ"/>
			<glyph d="M318 600H380Q390 600 390 590V66Q456 70 488 103T520 208V469Q520 479 530 479H594Q604 479 604 469V202Q604 -5 390 -12V-170Q390 -180 380 -180H318Q308 -180 308 -170V-12Q94 -5 94 202V366Q94 406 64 406Q54 406 54 416V474Q54 484 65 484H88Q131 484 154 463T178 381V208Q178 146 205 108T308 66V590Q308 600 318 600Z" horiz-adv-x="672" unicode="ψ"/>
			<glyph d="M168 486L219 455Q222 453 225 450T223 439Q148 340 148 196Q148 67 224 67Q263 67 284 103T306 206V308Q306 320 317 320H383Q394 320 394 308V206Q394 142 414 104T476 67Q552 67 552 197Q552 338 477 439Q470 449 481 455L532 486Q539 490 544 485Q585 444 612 367T640 190Q640 98 601 43T481 -11Q388 -11 351 86H349Q312 -11 219 -11Q147 -11 103 37T60 191Q60 285 86 363T156 485Q161 490 168 486Z" horiz-adv-x="700" unicode="ω"/>
			<glyph d="M85 479H149Q159 479 159 469V118Q159 67 206 67Q224 67 242 73Q252 75 254 68L269 15Q271 9 265 5Q237 -11 181 -11Q75 -11 75 95V469Q75 479 85 479ZM185 680H244Q254 680 254 670V597Q254 587 244 587H185Q175 587 175 597V670Q175 680 185 680ZM-12 680H47Q57 680 57 670V597Q57 587 47 587H-12Q-22 587 -22 597V670Q-22 680 -12 680Z" horiz-adv-x="295" unicode="ϊ"/>
			<glyph d="M61 484H75Q129 484 151 463T174 376V192Q174 67 284 67Q394 67 394 193V469Q394 479 404 479H468Q478 479 478 469V197Q478 104 432 46T284 -11Q90 -11 90 197V366Q90 406 60 406Q50 406 50 416V474Q50 484 61 484ZM339 680H398Q408 680 408 670V597Q408 587 398 587H339Q329 587 329 597V670Q329 680 339 680ZM142 680H201Q211 680 211 670V597Q211 587 201 587H142Q132 587 132 597V670Q132 680 142 680Z" horiz-adv-x="543" unicode="ϋ"/>
			<glyph d="M256 490Q325 490 375 455T445 361Q461 313 461 240Q461 166 445 118Q426 58 375 23T256 -11Q187 -11 136 23T67 118Q51 166 51 240Q51 313 67 361Q86 421 136 455T256 490ZM256 412Q217 412 188 392T148 337Q137 301 137 240Q137 178 148 142Q160 107 188 87T256 67Q295 67 323 87T364 142Q375 178 375 240Q375 301 364 337Q352 372 323 392T256 412ZM260 700H344Q354 700 348 690L286 567Q281 557 273 557H217Q208 557 211 567L247 690Q250 700 260 700Z" horiz-adv-x="512" unicode="ό"/>
			<glyph d="M61 484H75Q129 484 151 463T174 376V192Q174 67 284 67Q394 67 394 193V469Q394 479 404 479H468Q478 479 478 469V197Q478 104 432 46T284 -11Q90 -11 90 197V366Q90 406 60 406Q50 406 50 416V474Q50 484 61 484ZM284 700H368Q378 700 372 690L310 567Q305 557 297 557H241Q232 557 235 567L271 690Q274 700 284 700Z" horiz-adv-x="543" unicode="ύ"/>
			<glyph d="M168 486L219 455Q222 453 225 450T223 439Q148 340 148 196Q148 67 224 67Q263 67 284 103T306 206V308Q306 320 317 320H383Q394 320 394 308V206Q394 142 414 104T476 67Q552 67 552 197Q552 338 477 439Q470 449 481 455L532 486Q539 490 544 485Q585 444 612 367T640 190Q640 98 601 43T481 -11Q388 -11 351 86H349Q312 -11 219 -11Q147 -11 103 37T60 191Q60 285 86 363T156 485Q161 490 168 486ZM357 700H441Q451 700 445 690L383 567Q378 557 370 557H314Q305 557 308 567L344 690Q347 700 357 700Z" horiz-adv-x="700" unicode="ώ"/>
			<glyph d="M94 680H503Q513 680 513 670V607Q513 597 503 597H179Q173 597 173 591V391Q173 385 179 385H454Q464 385 464 375V312Q464 302 454 302H179Q173 302 173 296V89Q173 83 179 83H503Q513 83 513 73V10Q513 0 503 0H94Q84 0 84 10V670Q84 680 94 680ZM171 888H241Q252 888 260 878L345 772Q348 769 347 765T341 762H288Q282 762 274 771L167 878Q164 881 165 884T171 888Z" horiz-adv-x="563" unicode="Ѐ"/>
			<glyph d="M94 680H503Q513 680 513 670V607Q513 597 503 597H179Q173 597 173 591V391Q173 385 179 385H454Q464 385 464 375V312Q464 302 454 302H179Q173 302 173 296V89Q173 83 179 83H503Q513 83 513 73V10Q513 0 503 0H94Q84 0 84 10V670Q84 680 94 680ZM367 869H423Q433 869 433 859V787Q433 777 423 777H367Q357 777 357 787V859Q357 869 367 869ZM167 869H223Q233 869 233 859V787Q233 777 223 777H167Q157 777 157 787V859Q157 869 167 869Z" horiz-adv-x="563" unicode="Ё"/>
			<glyph d="M32 680H509Q519 680 519 670V607Q519 597 509 597H321Q315 597 315 591V395Q315 387 322 389Q413 418 494 418Q584 418 640 366T696 215Q696 112 636 56T468 0H437Q430 0 430 10V73Q430 83 440 83H468Q607 83 607 211Q607 267 575 301T473 335Q440 335 397 326T323 305Q315 302 315 294V10Q315 0 305 0H236Q226 0 226 10V591Q226 597 221 597H32Q22 597 22 607V670Q22 680 32 680Z" horiz-adv-x="736" unicode="Ђ"/>
			<glyph d="M94 680H476Q485 680 485 670V606Q485 597 476 597H179Q173 597 173 591V10Q173 0 163 0H94Q84 0 84 10V670Q84 680 94 680ZM335 888H405Q409 888 411 884T410 878L303 771Q295 762 285 762H235Q231 762 229 765T231 772L317 878Q325 888 335 888Z" horiz-adv-x="500" unicode="Ѓ"/>
			<glyph d="M311 691Q385 691 440 657T525 559Q529 550 522 546L462 517Q454 513 449 521Q403 608 312 608Q198 608 165 509Q150 466 150 391Q150 385 156 385H381Q390 385 390 376V311Q390 302 381 302H156Q150 302 150 295Q150 205 172 154Q207 72 312 72Q403 72 449 159Q454 168 462 163L522 134Q530 129 525 121Q497 59 441 24T311 -11Q235 -11 178 21T92 116Q77 147 68 192T60 345Q60 470 80 533Q103 604 160 647T311 691Z" horiz-adv-x="570" unicode="Є"/>
			<glyph d="M294 691Q337 691 394 677T501 628Q509 622 503 614L469 559Q463 552 455 557Q373 608 291 608Q231 608 196 577T162 498Q162 408 305 389L338 384Q538 357 538 194Q538 102 473 45T290 -11Q222 -11 156 13T51 74Q44 81 50 89L94 141Q100 148 108 142Q196 72 298 72Q367 72 407 104T448 188Q448 234 416 261T306 299L272 304Q72 331 72 492Q72 582 132 636T294 691Z" horiz-adv-x="591" unicode="Ѕ"/>
			<glyph d="M94 680H163Q173 680 173 670V10Q173 0 163 0H94Q84 0 84 10V670Q84 680 94 680Z" horiz-adv-x="257" unicode="І"/>
			<glyph d="M94 680H163Q173 680 173 670V10Q173 0 163 0H94Q84 0 84 10V670Q84 680 94 680ZM201 869H257Q267 869 267 859V787Q267 777 257 777H201Q191 777 191 787V859Q191 869 201 869ZM1 869H57Q67 869 67 859V787Q67 777 57 777H1Q-9 777 -9 787V859Q-9 869 1 869Z" horiz-adv-x="257" unicode="Ї"/>
			<glyph d="M333 680H402Q412 680 412 670V218Q412 107 353 48T194 -11Q146 -11 102 9T33 59Q26 66 33 73L83 116Q90 122 98 114Q142 72 197 72Q323 72 323 218V670Q323 680 333 680Z" horiz-adv-x="491" unicode="Ј"/>
			<glyph d="M175 680H565Q575 680 575 671V416Q575 410 581 410H746Q847 410 906 353T965 205Q965 112 906 56T746 0H496Q487 0 487 10V591Q487 597 481 597H258Q252 597 252 591V373Q252 171 201 84T51 -3H16Q7 -3 7 7V71Q7 80 16 80H27Q102 80 133 156T165 392V671Q165 680 175 680ZM581 327Q575 327 575 321V89Q575 83 581 83H740Q805 83 840 115T876 207Q876 259 845 293T740 327Z" horiz-adv-x="1006" unicode="Љ"/>
			<glyph d="M94 680H163Q173 680 173 670V409Q173 403 179 403H475Q481 403 481 409V670Q481 680 491 680H560Q570 680 570 670V409Q570 403 576 403H744Q839 403 897 347T955 201Q955 112 897 56T744 0H491Q481 0 481 10V313Q481 319 475 319H179Q173 319 173 313V10Q173 0 163 0H94Q84 0 84 10V670Q84 680 94 680ZM576 319Q570 319 570 313V89Q570 83 576 83H736Q797 83 831 114T866 201Q866 257 831 288T736 319Z" horiz-adv-x="996" unicode="Њ"/>
			<glyph d="M32 680H509Q519 680 519 670V607Q519 597 509 597H321Q315 597 315 592V398Q315 387 326 391Q429 418 494 418Q684 418 684 244V9Q684 0 674 0H604Q595 0 595 9V227Q595 282 566 308T473 335Q410 335 330 309Q315 305 315 291V10Q315 0 305 0H236Q226 0 226 10V591Q226 595 221 597H32Q22 597 22 607V670Q22 680 32 680Z" horiz-adv-x="753" unicode="Ћ"/>
			<glyph d="M534 683H563Q573 683 573 673V609Q573 600 563 600H554Q529 600 512 592T481 546L444 451Q411 367 364 354V350Q418 341 448 270L502 139Q513 111 524 95T575 80H590Q600 80 600 71V7Q600 -3 590 -3H551Q515 -3 481 14T420 96L360 241Q336 302 274 302H179Q173 302 173 296V10Q173 0 163 0H94Q84 0 84 10V670Q84 680 94 680H163Q173 680 173 670V391Q173 385 179 385H261Q286 385 312 403T356 463L406 587Q427 638 456 660T534 683ZM375 888H445Q449 888 451 884T450 878L343 771Q335 762 325 762H275Q271 762 269 765T271 772L357 878Q365 888 375 888Z" horiz-adv-x="616" unicode="Ќ"/>
			<glyph d="M94 680H164Q173 680 173 671V157H176L498 675Q501 680 508 680H576Q586 680 586 671V10Q586 0 576 0H507Q497 0 497 10V524H494L171 6Q167 0 162 0H94Q84 0 84 10V671Q84 680 94 680ZM201 888H271Q282 888 290 878L375 772Q378 769 377 765T371 762H318Q312 762 304 771L197 878Q194 881 195 884T201 888Z" horiz-adv-x="670" unicode="Ѝ"/>
			<glyph d="M28 680H102Q112 680 116 671L285 304H288L441 671Q445 680 455 680H528Q538 680 534 670L293 108Q246 -3 156 -3H98Q88 -3 88 7V71Q88 80 98 80H136Q195 80 220 142L243 195L22 669Q21 671 21 675Q21 680 28 680ZM195 882Q204 883 207 876Q227 817 287 817Q346 817 367 876Q370 883 379 882L417 876Q426 875 423 861Q411 810 376 783T287 756Q231 756 196 783T150 861Q147 875 156 876Z" horiz-adv-x="556" unicode="Ў"/>
			<glyph d="M94 680H164Q173 680 173 670V88Q173 82 179 82H469Q475 82 475 88V670Q475 680 484 680H556Q564 680 564 670V9Q564 0 555 0H372Q366 0 366 -6V-145Q366 -154 357 -154H291Q282 -154 282 -145V-6Q282 0 276 0H94Q84 0 84 9V670Q84 680 94 680Z" horiz-adv-x="648" unicode="Џ"/>
			<glyph d="M272 680H337Q347 680 350 670L583 10Q586 0 576 0H506Q496 0 493 10L441 158H166L114 10Q110 0 101 0H31Q21 0 24 10L260 670Q263 680 272 680ZM303 549L195 240H412L305 549Z" horiz-adv-x="607" unicode="А"/>
			<glyph d="M94 680H505Q515 680 515 671V606Q515 597 505 597H179Q173 597 173 591V403Q173 397 179 397H345Q438 397 495 342T553 199Q553 109 496 54T345 0H94Q84 0 84 10V671Q84 680 94 680ZM179 314Q173 314 173 308V89Q173 83 179 83H336Q396 83 430 113T464 199Q464 255 430 284T336 314Z" horiz-adv-x="605" unicode="Б"/>
			<glyph d="M94 680H335Q435 680 487 632T540 501Q540 445 515 407T449 353V351Q488 340 520 298T552 194Q552 100 494 50T330 0H94Q84 0 84 10V670Q84 680 94 680ZM179 599Q173 599 173 593V392Q173 386 179 386H333Q388 386 420 415T452 492Q452 540 420 569T333 599ZM179 305Q173 305 173 299V87Q173 81 179 81H338Q397 81 430 111T463 193Q463 243 430 274T338 305Z" horiz-adv-x="604" unicode="В"/>
			<glyph d="M94 680H476Q485 680 485 670V606Q485 597 476 597H179Q173 597 173 591V10Q173 0 163 0H94Q84 0 84 10V670Q84 680 94 680Z" horiz-adv-x="500" unicode="Г"/>
			<glyph d="M172 680H563Q572 680 572 670V89Q572 83 578 83H639Q649 83 649 74V-145Q649 -154 640 -154H573Q565 -154 565 -145V-6Q565 0 559 0H105Q99 0 99 -6V-145Q99 -154 90 -154H23Q15 -154 15 -145V74Q15 83 24 83H66Q77 83 80 91Q125 172 143 282T162 632V671Q162 680 172 680ZM255 597Q249 597 249 591V585Q249 406 233 287T175 90Q173 88 174 85T179 83H477Q483 83 483 89V591Q483 597 477 597Z" horiz-adv-x="672" unicode="Д"/>
			<glyph d="M94 680H503Q513 680 513 670V607Q513 597 503 597H179Q173 597 173 591V391Q173 385 179 385H454Q464 385 464 375V312Q464 302 454 302H179Q173 302 173 296V89Q173 83 179 83H503Q513 83 513 73V10Q513 0 503 0H94Q84 0 84 10V670Q84 680 94 680Z" horiz-adv-x="563" unicode="Е"/>
			<glyph d="M52 683H81Q117 683 150 666T209 587L259 463Q272 431 296 408T355 385H407Q413 385 413 391V670Q413 680 423 680H492Q502 680 502 670V391Q502 385 508 385H560Q585 385 612 403T656 463L706 587Q726 637 756 660T834 683H863Q873 683 873 673V609Q873 600 863 600H854Q829 600 812 592T781 546L743 451Q709 366 663 353V349Q718 340 748 270L801 139Q812 111 824 95T874 80H889Q899 80 899 71V7Q899 -3 889 -3H851Q814 -3 780 14T720 96L660 241Q634 302 573 302H508Q502 302 502 296V10Q502 0 492 0H423Q413 0 413 10V296Q413 302 407 302H342Q281 302 255 241L195 96Q174 45 143 21T64 -3H26Q16 -3 16 7V71Q16 80 26 80H40Q65 80 80 87T114 139L167 270Q197 340 252 349V353Q205 365 171 451L134 546Q125 570 113 585T61 600H52Q42 600 42 609V673Q42 683 52 683Z" horiz-adv-x="915" unicode="Ж"/>
			<glyph d="M283 691Q388 691 448 641T508 507Q508 453 483 412T413 353V349Q464 333 491 291T519 188Q519 99 454 44T282 -11Q137 -11 45 72Q38 78 45 87L82 139Q88 146 94 140Q137 106 180 89T281 72Q343 72 386 104T429 190Q429 302 291 302H217Q207 302 207 312V376Q207 385 217 385H293Q351 385 384 416T418 502Q418 556 379 582T279 608Q189 608 118 549Q108 542 103 549L67 602Q62 610 68 616Q163 691 283 691Z" horiz-adv-x="573" unicode="З"/>
			<glyph d="M94 680H164Q173 680 173 671V157H176L498 675Q501 680 508 680H576Q586 680 586 671V10Q586 0 576 0H507Q497 0 497 10V524H494L171 6Q167 0 162 0H94Q84 0 84 10V671Q84 680 94 680Z" horiz-adv-x="670" unicode="И"/>
			<glyph d="M94 680H164Q173 680 173 671V157H176L498 675Q501 680 508 680H576Q586 680 586 671V10Q586 0 576 0H507Q497 0 497 10V524H494L171 6Q167 0 162 0H94Q84 0 84 10V671Q84 680 94 680ZM237 882Q246 883 249 876Q269 817 329 817Q388 817 409 876Q412 883 421 882L459 876Q468 875 465 861Q453 810 418 783T329 756Q273 756 238 783T192 861Q189 875 198 876Z" horiz-adv-x="670" unicode="Й"/>
			<glyph d="M534 683H563Q573 683 573 673V609Q573 600 563 600H554Q529 600 512 592T481 546L444 451Q411 367 364 354V350Q418 341 448 270L502 139Q513 111 524 95T575 80H590Q600 80 600 71V7Q600 -3 590 -3H551Q515 -3 481 14T420 96L360 241Q336 302 274 302H179Q173 302 173 296V10Q173 0 163 0H94Q84 0 84 10V670Q84 680 94 680H163Q173 680 173 670V391Q173 385 179 385H261Q286 385 312 403T356 463L406 587Q427 638 456 660T534 683Z" horiz-adv-x="616" unicode="К"/>
			<glyph d="M175 680H565Q575 680 575 671V10Q575 0 566 0H495Q486 0 486 10V591Q486 597 480 597H258Q252 597 252 591V373Q252 171 201 84T51 -3H16Q7 -3 7 7V70Q7 79 16 79H27Q102 79 133 155T165 392V671Q165 680 175 680Z" horiz-adv-x="659" unicode="Л"/>
			<glyph d="M94 680H159Q171 680 175 670L378 212H381L580 670Q584 680 596 680H661Q671 680 671 670V10Q671 0 661 0H598Q588 0 588 10V483H585L416 109Q411 97 398 97H358Q344 97 339 109L170 483H167V10Q167 0 157 0H94Q84 0 84 10V670Q84 680 94 680Z" horiz-adv-x="755" unicode="М"/>
			<glyph d="M94 680H163Q173 680 173 670V391Q173 385 179 385H474Q480 385 480 391V670Q480 680 490 680H559Q569 680 569 670V10Q569 0 559 0H490Q480 0 480 10V296Q480 302 474 302H179Q173 302 173 296V10Q173 0 163 0H94Q84 0 84 10V670Q84 680 94 680Z" horiz-adv-x="653" unicode="Н"/>
			<glyph d="M309 691Q396 691 455 650T541 532Q559 478 559 340Q559 202 541 148Q515 70 455 29T309 -11Q223 -11 163 29T78 148Q60 202 60 340Q60 478 78 532Q104 610 163 650T309 691ZM309 608Q198 608 165 507Q150 460 150 340Q150 220 165 173Q198 72 309 72Q421 72 454 173Q469 220 469 340Q469 460 454 507Q421 608 309 608Z" horiz-adv-x="619" unicode="О"/>
			<glyph d="M94 680H555Q564 680 564 671V10Q564 0 556 0H484Q475 0 475 10V591Q475 597 469 597H179Q173 597 173 591V10Q173 0 164 0H94Q84 0 84 10V671Q84 680 94 680Z" horiz-adv-x="648" unicode="П"/>
			<glyph d="M94 680H336Q434 680 493 624T552 477Q552 385 493 329T336 274H179Q173 274 173 268V10Q173 0 163 0H94Q84 0 84 10V670Q84 680 94 680ZM179 597Q173 597 173 591V363Q173 357 179 357H331Q393 357 428 389T464 477Q464 532 428 564T331 597Z" horiz-adv-x="592" unicode="Р"/>
			<glyph d="M304 691Q378 691 435 654T522 554Q525 545 518 541L458 512Q448 507 444 517Q398 608 304 608Q197 608 163 508Q150 468 150 340Q150 212 163 172Q197 72 304 72Q398 72 444 163Q448 173 458 168L518 139Q525 135 522 126Q493 62 435 25T304 -11Q220 -11 161 29T78 149Q60 203 60 340Q60 477 78 531Q103 610 161 650T304 691Z" horiz-adv-x="566" unicode="С"/>
			<glyph d="M32 680H505Q515 680 515 670V607Q515 597 505 597H319Q313 597 313 591V10Q313 0 303 0H234Q224 0 224 10V591Q224 597 218 597H32Q22 597 22 607V670Q22 680 32 680Z" horiz-adv-x="537" unicode="Т"/>
			<glyph d="M28 680H102Q112 680 116 671L285 304H288L441 671Q445 680 455 680H528Q538 680 534 670L293 108Q246 -3 156 -3H98Q88 -3 88 7V71Q88 80 98 80H136Q195 80 220 142L243 195L22 669Q21 671 21 675Q21 680 28 680Z" horiz-adv-x="556" unicode="У"/>
			<glyph d="M346 691H416Q425 691 425 682V630Q425 624 431 624Q571 619 644 551T717 355Q717 93 431 80Q425 80 425 74V-1Q425 -11 416 -11H345Q336 -11 336 -1V74Q336 80 330 80Q44 93 44 355Q44 483 117 551T330 624Q336 624 336 630V682Q336 691 346 691ZM330 541Q133 537 133 351Q133 169 330 163Q336 163 336 169V536Q336 541 330 541ZM432 541Q425 541 425 536V169Q425 163 432 163Q628 169 628 351Q628 443 581 491T432 541Z" horiz-adv-x="761" unicode="Ф"/>
			<glyph d="M47 680H125Q134 680 140 671L278 441H279L418 671Q423 680 432 680H510Q515 680 516 676T516 668L328 354L534 12Q536 8 534 4T528 0H449Q440 0 435 9L279 268H278L122 9Q116 0 107 0H29Q25 0 23 4T24 12L229 354L42 668Q39 672 41 676T47 680Z" horiz-adv-x="558" unicode="Х"/>
			<glyph d="M94 680H164Q173 680 173 670V89Q173 83 179 83H469Q475 83 475 89V670Q475 680 484 680H555Q564 680 564 670V89Q564 83 570 83H632Q642 83 642 74V-145Q642 -154 633 -154H566Q558 -154 558 -145V-6Q558 0 552 0H94Q84 0 84 9V670Q84 680 94 680Z" horiz-adv-x="665" unicode="Ц"/>
			<glyph d="M79 680H147Q157 680 157 671V439Q157 329 277 329Q311 329 355 336T429 355Q439 358 439 367V671Q439 680 448 680H518Q528 680 528 671V10Q528 0 519 0H448Q439 0 439 10V269Q439 276 430 274Q339 245 258 245Q69 245 69 420V671Q69 680 79 680Z" horiz-adv-x="612" unicode="Ч"/>
			<glyph d="M94 680H164Q173 680 173 670V89Q173 83 179 83H421Q427 83 427 89V670Q427 680 435 680H507Q516 680 516 670V89Q516 83 522 83H764Q770 83 770 89V670Q770 680 778 680H849Q859 680 859 670V9Q859 0 849 0H94Q84 0 84 9V670Q84 680 94 680Z" horiz-adv-x="943" unicode="Ш"/>
			<glyph d="M94 680H164Q173 680 173 670V89Q173 83 179 83H421Q427 83 427 89V670Q427 680 435 680H507Q516 680 516 670V89Q516 83 522 83H764Q770 83 770 89V670Q770 680 778 680H849Q859 680 859 670V89Q859 83 865 83H925Q935 83 935 74V-145Q935 -154 926 -154H860Q851 -154 851 -145V-6Q851 0 845 0H94Q84 0 84 9V670Q84 680 94 680Z" horiz-adv-x="958" unicode="Щ"/>
			<glyph d="M27 680H262Q271 680 271 670V416Q271 410 277 410H442Q543 410 602 353T661 205Q661 112 602 56T442 0H192Q182 0 182 10V591Q182 596 176 597H27Q18 597 18 606V670Q18 680 27 680ZM277 327Q271 327 271 321V89Q271 83 277 83H436Q501 83 536 114T572 205Q572 264 536 295T436 327Z" horiz-adv-x="702" unicode="Ъ"/>
			<glyph d="M94 680H163Q173 680 173 670V416Q173 410 179 410H334Q435 410 494 353T553 205Q553 113 493 56T334 0H94Q84 0 84 10V670Q84 680 94 680ZM179 327Q173 327 173 321V89Q173 83 179 83H328Q393 83 428 114T464 205Q464 257 432 292T328 327ZM651 680H720Q730 680 730 670V10Q730 0 720 0H651Q641 0 641 10V670Q641 680 651 680Z" horiz-adv-x="814" unicode="Ы"/>
			<glyph d="M94 680H163Q173 680 173 670V416Q173 410 179 410H344Q445 410 504 353T563 205Q563 113 503 56T344 0H94Q84 0 84 10V670Q84 680 94 680ZM179 327Q173 327 173 321V89Q173 83 179 83H338Q402 83 438 115T474 207Q474 266 438 296T338 327Z" horiz-adv-x="604" unicode="Ь"/>
			<glyph d="M259 691Q342 691 403 652T490 533Q510 470 510 345Q510 259 503 207T478 116Q449 54 392 21T259 -11Q185 -11 129 24T45 121Q40 129 48 134L108 163Q116 168 121 159Q167 72 258 72Q363 72 398 154Q420 205 420 295Q420 302 414 302H189Q180 302 180 311V376Q180 385 189 385H414Q420 385 420 391Q420 466 405 509Q372 608 258 608Q167 608 121 521Q116 513 108 517L48 546Q41 550 45 559Q74 623 129 657T259 691Z" horiz-adv-x="570" unicode="Э"/>
			<glyph d="M535 691Q615 691 671 652T752 540Q771 481 771 340Q771 199 752 140Q727 66 671 27T535 -11Q455 -11 399 27T319 140Q301 190 300 297Q300 303 294 303H179Q173 303 173 297V10Q173 0 164 0H94Q84 0 84 10V670Q84 680 94 680H164Q173 680 173 670V391Q173 385 179 385H294Q300 385 300 391Q304 496 319 540Q343 614 399 652T535 691ZM536 608Q433 608 403 515Q389 473 389 340Q389 208 403 164Q433 72 536 72Q638 72 668 164Q682 208 682 340Q682 473 668 515Q638 608 536 608Z" horiz-adv-x="831" unicode="Ю"/>
			<glyph d="M272 680H525Q535 680 535 671V10Q535 0 525 0H456Q446 0 446 10V274Q446 280 440 280H347Q316 280 295 267T260 222L206 96Q184 44 153 20T74 -3H36Q26 -3 26 7V71Q26 80 36 80H49Q74 80 89 87T124 137L167 236Q186 278 214 298V302Q145 313 105 360T66 486Q66 573 123 626T272 680ZM282 597Q227 597 191 568T155 480Q155 421 191 391T282 362H440Q446 362 446 368V591Q446 597 440 597Z" horiz-adv-x="619" unicode="Я"/>
			<glyph d="M253 490Q342 490 391 458T441 327V10Q441 0 431 0H372Q362 0 362 10V52H361Q344 24 307 6T219 -11Q148 -11 103 26T58 133Q58 207 107 244T245 281H354Q360 281 360 287V322Q360 371 335 393T245 416Q177 416 129 382Q120 375 115 383L88 429Q84 437 90 443Q150 490 253 490ZM258 214Q139 214 139 136Q139 100 165 80T239 61Q295 61 327 86T360 155V208Q360 214 354 214Z" horiz-adv-x="519" unicode="а"/>
			<glyph d="M391 691H451Q460 691 460 681Q456 633 432 609T361 580Q352 579 310 575T235 563T179 532Q137 493 137 398H140Q158 433 196 453T283 474Q477 474 477 236Q477 114 424 51T271 -11Q151 -11 100 80Q84 107 75 152T66 294Q66 399 71 446T91 530T137 596Q146 605 167 617T224 637T341 654Q379 657 380 681Q382 691 391 691ZM271 399Q215 399 184 362T153 234Q153 152 180 109T271 67Q391 67 391 234Q391 314 363 356T271 399Z" horiz-adv-x="530" unicode="б"/>
			<glyph d="M92 479H303Q374 479 413 445T453 355Q453 277 381 250V246Q417 235 439 205T461 134Q461 70 420 35T304 0H92Q82 0 82 9V470Q82 479 92 479ZM172 208Q166 208 166 202V78Q166 73 172 73H298Q335 73 356 91T378 142Q378 173 356 190T298 208ZM172 407Q166 407 166 402V284L172 280H295Q331 280 350 298T370 346Q370 407 295 407Z" horiz-adv-x="517" unicode="в"/>
			<glyph d="M91 479H386Q396 479 396 470V413Q396 403 386 403H172Q166 403 166 397V9Q166 0 157 0H91Q82 0 82 9V470Q82 479 91 479Z" horiz-adv-x="400" unicode="г"/>
			<glyph d="M141 479H461Q470 479 470 470V82Q470 76 476 76H529Q538 76 538 67V-115Q538 -124 530 -124H467Q458 -124 458 -115V-6Q458 0 452 0H101Q95 0 95 -6V-115Q95 -124 87 -124H24Q15 -124 15 -115V67Q15 76 25 76H57Q71 76 77 89Q103 141 117 201T131 375V470Q131 479 141 479ZM218 403Q212 403 212 397V335Q212 172 164 83Q161 76 167 76H380Q386 76 386 82V397Q386 403 380 403Z" horiz-adv-x="562" unicode="д"/>
			<glyph d="M256 490Q324 490 374 455T444 361Q459 315 459 224Q459 214 448 214H145Q139 214 139 208Q139 176 147 150Q176 67 268 67Q345 67 391 120Q399 128 406 122L447 85Q454 79 448 71Q419 34 370 11T261 -11Q189 -11 138 23T69 119Q53 169 53 240Q53 318 68 361Q88 422 138 456T256 490ZM256 416Q216 416 187 396T146 341Q139 320 139 287Q139 281 145 281H367Q373 281 373 287Q373 320 366 341Q354 376 325 396T256 416Z" horiz-adv-x="512" unicode="е"/>
			<glyph d="M56 482H88Q129 482 155 464T196 406L221 340Q243 282 301 282H324Q330 282 330 288V470Q330 479 340 479H404Q414 479 414 470V288Q414 282 420 282H442Q501 282 523 340L547 406Q558 436 581 459T655 482H687Q697 482 697 472V418Q697 408 687 408H678Q654 408 640 398T616 362L595 308Q582 271 547 254V250Q588 242 610 190L636 126Q648 95 660 84T700 73H705Q714 73 714 64V6Q714 -3 705 -3H668Q635 -3 607 11T559 82L531 157Q525 173 509 189T449 206H420Q414 206 414 200V9Q414 0 404 0H340Q330 0 330 9V200Q330 206 324 206H295Q267 206 246 197T213 157L185 82Q168 37 144 17T76 -3H39Q29 -3 29 6V64Q29 73 39 73H43Q65 73 78 80T107 126L134 190Q156 242 196 250V254Q161 271 148 308L128 362Q120 382 107 395T66 408H56Q46 408 46 418V472Q46 482 56 482Z" horiz-adv-x="743" unicode="ж"/>
			<glyph d="M236 490Q318 490 366 456T415 358Q415 323 394 295T339 254V250Q374 240 398 207T422 137Q422 70 368 29T233 -11Q118 -11 41 53Q35 58 41 67L73 110Q74 112 79 114T90 112Q151 63 222 63Q272 63 304 83T336 138Q336 207 243 207H180Q171 207 171 218V271Q171 281 180 281H243Q282 281 305 299T328 351Q328 416 224 416Q162 416 103 377Q94 371 89 379L62 423Q56 432 63 438Q132 490 236 490Z" horiz-adv-x="478" unicode="з"/>
			<glyph d="M92 479H157Q166 479 166 470V132H169L391 473Q395 479 402 479H471Q481 479 481 470V9Q481 0 471 0H407Q397 0 397 9V349H394L172 7Q167 0 160 0H92Q82 0 82 9V470Q82 479 92 479Z" horiz-adv-x="563" unicode="и"/>
			<glyph d="M92 479H157Q166 479 166 470V132H169L391 473Q395 479 402 479H471Q481 479 481 470V9Q481 0 471 0H407Q397 0 397 9V349H394L172 7Q167 0 160 0H92Q82 0 82 9V470Q82 479 92 479ZM191 686Q200 687 203 680Q224 618 282 618Q338 618 361 680Q364 687 374 686L409 679Q418 678 415 664Q390 559 282 559Q172 559 148 664Q145 678 154 679Z" horiz-adv-x="563" unicode="й"/>
			<glyph d="M427 482H459Q468 482 468 472V416Q468 406 459 406H449Q425 406 411 397T388 362L367 308Q352 269 319 253V249Q362 240 383 189L409 126Q421 95 432 84T473 73H477Q487 73 487 64V6Q487 -3 477 -3H440Q407 -3 379 11T331 82L303 156Q297 172 281 189T217 206H172Q166 206 166 200V9Q166 0 157 0H92Q82 0 82 9V470Q82 479 92 479H157Q166 479 166 470V288Q166 282 172 282H214Q235 282 258 295T294 340L319 406Q330 436 353 459T427 482Z" horiz-adv-x="511" unicode="к"/>
			<glyph d="M143 479H460Q469 479 469 470V9Q469 0 460 0H395Q385 0 385 9V397Q385 403 379 403H221Q215 403 215 397V245Q215 126 179 61T58 -3H28Q19 -3 19 6V64Q19 73 28 73H35Q83 73 108 116T134 259V470Q134 479 143 479Z" horiz-adv-x="551" unicode="л"/>
			<glyph d="M92 479H163Q172 479 175 472L319 166H322L466 472Q470 479 478 479H549Q559 479 559 470V9Q559 0 549 0H485Q475 0 475 9V316H472L356 73Q352 64 342 64H298Q292 64 286 73L169 316H166V9Q166 0 156 0H92Q82 0 82 9V470Q82 479 92 479Z" horiz-adv-x="641" unicode="м"/>
			<glyph d="M92 479H157Q166 479 166 470V288Q166 282 172 282H378Q384 282 384 288V470Q384 479 394 479H459Q469 479 469 470V9Q469 0 459 0H394Q384 0 384 9V200Q384 206 378 206H172Q166 206 166 200V9Q166 0 157 0H92Q82 0 82 9V470Q82 479 92 479Z" horiz-adv-x="551" unicode="н"/>
			<glyph d="M258 490Q327 490 377 455T447 361Q463 313 463 240Q463 166 447 118Q428 58 377 23T258 -11Q189 -11 138 23T69 118Q53 166 53 240Q53 313 69 361Q88 421 138 455T258 490ZM258 412Q219 412 190 392T150 337Q139 301 139 240Q139 178 150 142Q162 107 190 87T258 67Q297 67 325 87T366 142Q377 178 377 240Q377 301 366 337Q354 372 325 392T258 412Z" horiz-adv-x="516" unicode="о"/>
			<glyph d="M92 479H453Q462 479 462 470V9Q462 0 453 0H388Q378 0 378 9V397Q378 403 372 403H172Q166 403 166 397V9Q166 0 157 0H92Q82 0 82 9V470Q82 479 92 479Z" horiz-adv-x="544" unicode="п"/>
			<glyph d="M303 490Q365 490 407 460T468 375Q485 325 485 240Q485 154 468 104Q450 48 407 18T303 -11Q208 -11 167 56H166V-170Q166 -180 156 -180H92Q82 -180 82 -170V469Q82 479 92 479H156Q166 479 166 469V424H167Q207 490 303 490ZM283 412Q201 412 177 340Q166 307 166 240Q166 172 177 140Q201 67 283 67Q363 67 388 140Q399 174 399 240Q399 304 388 340Q363 412 283 412Z" horiz-adv-x="538" unicode="р"/>
			<glyph d="M257 490Q364 490 421 409Q426 401 418 395L374 359Q366 353 360 360Q338 387 314 399T257 412Q174 412 150 337Q139 303 139 240Q139 176 150 142Q174 67 257 67Q283 67 308 76T360 119Q366 126 374 120L418 84Q426 78 421 70Q364 -11 257 -11Q189 -11 138 23T68 118Q53 166 53 240Q53 313 68 361Q88 422 138 456T257 490Z" horiz-adv-x="472" unicode="с"/>
			<glyph d="M23 479H400Q409 479 409 470V413Q409 403 400 403H257Q251 403 251 397V9Q251 0 241 0H177Q167 0 167 9V397Q167 403 161 403H23Q13 403 13 413V470Q13 479 23 479Z" horiz-adv-x="423" unicode="т"/>
			<glyph d="M33 479H103Q112 479 115 469L241 123H243L364 469Q367 479 376 479H444Q455 479 452 469L263 -37Q236 -110 204 -145T112 -180H86Q76 -180 76 -170V-112Q76 -102 86 -102H104Q126 -102 146 -90T185 -30L201 14L25 469Q22 479 33 479Z" horiz-adv-x="477" unicode="у"/>
			<glyph d="M305 680H371Q380 680 380 671V491Q380 485 386 485Q505 480 567 419T630 242Q630 125 565 62T386 -5Q380 -5 380 -11V-171Q380 -180 371 -180H305Q296 -180 296 -171V-11Q296 -5 290 -5Q175 -1 110 62T46 242Q46 358 108 419T290 485Q296 485 296 491V671Q296 680 305 680ZM290 409Q131 404 131 241Q131 78 290 71Q296 71 296 77V403Q296 409 290 409ZM386 409Q380 409 380 403V77Q380 71 386 71Q545 78 545 241Q545 404 386 409Z" horiz-adv-x="676" unicode="ф"/>
			<glyph d="M51 479H123Q134 479 138 470L239 321H240L343 470Q348 479 357 479H429Q431 479 435 477T436 469L286 250L450 10Q452 6 450 3T443 0H371Q362 0 356 9L240 178H239L123 9Q118 0 108 0H37Q35 0 30 2T30 10L193 250L44 469Q42 473 44 476T51 479Z" horiz-adv-x="480" unicode="х"/>
			<glyph d="M92 479H157Q166 479 166 469V82Q166 76 172 76H372Q378 76 378 82V469Q378 479 388 479H453Q462 479 462 469V82Q462 76 468 76H520Q529 76 529 67V-115Q529 -124 521 -124H459Q450 -124 450 -115V-6Q450 0 444 0H92Q82 0 82 9V469Q82 479 92 479Z" horiz-adv-x="553" unicode="ц"/>
			<glyph d="M75 479H139Q149 479 149 470V319Q149 240 234 240Q291 240 348 261Q354 264 354 269V470Q354 479 364 479H428Q438 479 438 470V9Q438 0 428 0H364Q354 0 354 9V182Q354 187 347 186Q276 164 214 164Q65 164 65 305V470Q65 479 75 479Z" horiz-adv-x="520" unicode="ч"/>
			<glyph d="M92 479H157Q166 479 166 469V82Q166 76 172 76H339Q345 76 345 82V469Q345 479 355 479H419Q429 479 429 469V82Q429 76 435 76H602Q608 76 608 82V469Q608 479 618 479H682Q692 479 692 469V9Q692 0 682 0H92Q82 0 82 9V469Q82 479 92 479Z" horiz-adv-x="774" unicode="ш"/>
			<glyph d="M92 479H157Q166 479 166 469V82Q166 76 172 76H339Q345 76 345 82V469Q345 479 355 479H419Q429 479 429 469V82Q429 76 435 76H602Q608 76 608 82V469Q608 479 618 479H682Q692 479 692 469V82Q692 76 698 76H750Q760 76 760 67V-115Q760 -124 751 -124H689Q680 -124 680 -115V-6Q680 0 674 0H92Q82 0 82 9V469Q82 479 92 479Z" horiz-adv-x="784" unicode="щ"/>
			<glyph d="M22 479H212Q222 479 222 470V304Q222 298 228 298H358Q430 298 473 257T516 149Q516 83 473 41T362 0H148Q138 0 138 9V397Q138 403 132 403H22Q13 403 13 413V470Q13 479 22 479ZM228 222Q222 222 222 216V82Q222 76 228 76H350Q389 76 410 95T431 149Q431 183 410 202T350 222Z" horiz-adv-x="556" unicode="ъ"/>
			<glyph d="M92 479H157Q166 479 166 470V304Q166 298 172 298H292Q364 298 407 257T450 149Q450 83 407 41T296 0H92Q82 0 82 9V470Q82 479 92 479ZM172 222Q166 222 166 216V82Q166 76 172 76H284Q323 76 344 95T365 149Q365 183 344 202T284 222ZM530 479H594Q604 479 604 469V10Q604 0 594 0H530Q520 0 520 10V469Q520 479 530 479Z" horiz-adv-x="686" unicode="ы"/>
			<glyph d="M92 479H157Q166 479 166 470V304Q166 298 172 298H302Q374 298 417 257T460 149Q460 82 417 41T303 0H92Q82 0 82 9V470Q82 479 92 479ZM172 222Q166 222 166 216V82Q166 76 172 76H294Q333 76 354 95T375 149Q375 183 354 202T294 222Z" horiz-adv-x="500" unicode="ь"/>
			<glyph d="M223 490Q283 490 329 464T399 391Q427 336 427 240Q427 150 404 98Q381 47 333 18T223 -11Q103 -11 48 78Q43 86 51 92L96 126Q104 131 110 122Q149 65 220 65Q300 65 327 134Q340 167 341 201Q341 207 335 207H171Q161 207 161 217V271Q161 281 171 281H334Q340 281 340 287Q338 317 329 344Q304 415 220 415Q148 415 112 360Q106 351 98 356L54 389Q46 394 51 402Q105 490 223 490Z" horiz-adv-x="480" unicode="э"/>
			<glyph d="M461 490Q529 490 578 456T646 361Q661 312 661 240Q661 168 646 118Q627 57 578 23T461 -11Q402 -11 356 16T287 93Q263 143 261 200Q261 206 255 206H172Q166 206 166 200V9Q166 0 157 0H92Q82 0 82 9V470Q82 479 92 479H157Q166 479 166 470V288Q166 282 172 282H256Q262 282 262 288Q268 343 283 378Q305 431 352 460T461 490ZM460 412Q423 412 396 392T357 337Q346 303 346 240Q346 180 358 142Q369 106 396 86T460 67Q540 67 564 142Q576 180 576 240Q576 300 564 337Q540 412 460 412Z" horiz-adv-x="714" unicode="ю"/>
			<glyph d="M230 479H432Q441 479 441 470V9Q441 0 432 0H367Q357 0 357 9V177Q357 183 351 183H294Q251 183 227 134L206 91Q179 36 158 16T88 -3H55Q46 -3 46 6V64Q46 73 55 73H68Q87 73 100 78T127 116L147 160Q161 191 177 197V200Q129 209 98 244T68 337Q68 403 111 441T230 479ZM237 405Q197 405 174 386T152 334Q152 297 174 277T237 257H351Q357 257 357 262V399Q357 405 351 405Z" horiz-adv-x="523" unicode="я"/>
			<glyph d="M256 490Q324 490 374 455T444 361Q459 315 459 224Q459 214 448 214H145Q139 214 139 208Q139 176 147 150Q176 67 268 67Q345 67 391 120Q399 128 406 122L447 85Q454 79 448 71Q419 34 370 11T261 -11Q189 -11 138 23T69 119Q53 169 53 240Q53 318 68 361Q88 422 138 456T256 490ZM256 416Q216 416 187 396T146 341Q139 320 139 287Q139 281 145 281H367Q373 281 373 287Q373 320 366 341Q354 376 325 396T256 416ZM144 700H210Q222 700 228 690L303 567Q308 557 297 557H250Q239 557 231 567L139 690Q136 693 138 696T144 700Z" horiz-adv-x="512" unicode="ѐ"/>
			<glyph d="M256 490Q324 490 374 455T444 361Q459 315 459 224Q459 214 448 214H145Q139 214 139 208Q139 176 147 150Q176 67 268 67Q345 67 391 120Q399 128 406 122L447 85Q454 79 448 71Q419 34 370 11T261 -11Q189 -11 138 23T69 119Q53 169 53 240Q53 318 68 361Q88 422 138 456T256 490ZM256 416Q216 416 187 396T146 341Q139 320 139 287Q139 281 145 281H367Q373 281 373 287Q373 320 366 341Q354 376 325 396T256 416ZM325 680H384Q394 680 394 670V597Q394 587 384 587H325Q315 587 315 597V670Q315 680 325 680ZM128 680H187Q197 680 197 670V597Q197 587 187 587H128Q118 587 118 597V670Q118 680 128 680Z" horiz-adv-x="512" unicode="ё"/>
			<glyph d="M92 680H156Q166 680 166 670V621Q166 615 172 615H284Q294 615 294 605V557Q294 547 284 547H172Q166 547 166 541V425H167Q185 454 220 472T301 490Q378 490 422 441T467 310V-36Q467 -103 437 -141T324 -180H304Q294 -180 294 -170V-112Q294 -102 304 -102H320Q347 -102 365 -92T383 -38V290Q383 348 355 380T276 412Q228 412 197 379T166 295V10Q166 0 156 0H92Q82 0 82 10V541Q82 547 76 547H8Q-2 547 -2 557V605Q-2 615 8 615H76Q82 615 82 621V670Q82 680 92 680Z" horiz-adv-x="544" unicode="ђ"/>
			<glyph d="M91 479H386Q396 479 396 470V413Q396 403 386 403H172Q166 403 166 397V9Q166 0 157 0H91Q82 0 82 9V470Q82 479 91 479ZM275 700H341Q345 700 347 696T346 690L254 567Q247 557 235 557H188Q177 557 182 567L258 690Q264 700 275 700Z" horiz-adv-x="400" unicode="ѓ"/>
			<glyph d="M257 490Q375 490 429 402Q434 394 426 389L382 356Q374 351 368 360Q332 415 260 415Q176 415 151 344Q142 317 140 287Q140 281 146 281H304Q314 281 314 271V217Q314 207 304 207H145Q139 207 139 201Q140 167 153 134Q180 65 260 65Q331 65 370 122Q376 131 384 126L429 92Q437 86 432 78Q377 -11 257 -11Q194 -11 146 18T76 98Q53 150 53 240Q53 336 81 391Q105 438 151 464T257 490Z" horiz-adv-x="480" unicode="є"/>
			<glyph d="M248 490Q347 490 418 437Q426 432 420 423L386 380Q380 373 372 378Q312 417 243 417Q200 417 176 399T152 351Q152 322 173 306T246 286L296 281Q358 275 399 243T440 146Q440 74 389 31T247 -11Q132 -11 49 61Q42 68 49 75L90 119Q97 126 104 119Q132 95 171 79T252 64Q302 64 329 84T357 137Q357 167 337 182T264 204L213 209Q152 216 111 247T70 344Q70 412 117 451T248 490Z" horiz-adv-x="490" unicode="ѕ"/>
			<glyph d="M90 680H158Q168 680 168 670V597Q168 587 158 587H90Q80 587 80 597V670Q80 680 90 680ZM92 479H156Q166 479 166 469V10Q166 0 156 0H92Q82 0 82 10V469Q82 479 92 479Z" horiz-adv-x="248" unicode="і"/>
			<glyph d="M92 479H156Q166 479 166 469V10Q166 0 156 0H92Q82 0 82 10V469Q82 479 92 479ZM193 680H252Q262 680 262 670V597Q262 587 252 587H193Q183 587 183 597V670Q183 680 193 680ZM-4 680H55Q65 680 65 670V597Q65 587 55 587H-4Q-14 587 -14 597V670Q-14 680 -4 680Z" horiz-adv-x="248" unicode="ї"/>
			<glyph d="M90 680H158Q168 680 168 670V597Q168 587 158 587H90Q80 587 80 597V670Q80 680 90 680ZM92 479H156Q166 479 166 469V-36Q166 -103 136 -141T23 -180H3Q-7 -180 -7 -170V-112Q-7 -102 3 -102H19Q46 -102 64 -92T82 -38V469Q82 479 92 479Z" horiz-adv-x="248" unicode="ј"/>
			<glyph d="M143 479H460Q469 479 469 470V304Q469 298 475 298H606Q677 298 720 257T763 149Q763 83 720 41T609 0H395Q385 0 385 9V397Q385 403 379 403H221Q215 403 215 397V245Q215 126 179 61T58 -3H28Q19 -3 19 6V64Q19 73 28 73H35Q83 73 108 116T134 259V470Q134 479 143 479ZM475 222Q469 222 469 216V82Q469 76 475 76H598Q637 76 657 95T678 149Q678 183 657 202T598 222Z" horiz-adv-x="803" unicode="љ"/>
			<glyph d="M92 479H157Q166 479 166 470V298Q166 292 172 292H378Q384 292 384 298V470Q384 479 394 479H459Q469 479 469 470V298Q469 292 475 292H607Q679 292 721 252T764 145Q764 79 721 39T610 0H394Q384 0 384 9V210Q384 216 378 216H172Q166 216 166 210V9Q166 0 157 0H92Q82 0 82 9V470Q82 479 92 479ZM475 216Q469 216 469 210V82Q469 76 475 76H598Q679 76 679 146Q679 216 598 216Z" horiz-adv-x="804" unicode="њ"/>
			<glyph d="M92 680H156Q166 680 166 670V621Q166 615 172 615H284Q294 615 294 605V557Q294 547 284 547H172Q166 547 166 541V425H167Q185 454 220 472T301 490Q378 490 422 441T467 310V10Q467 0 457 0H393Q383 0 383 10V290Q383 348 355 380T276 412Q228 412 197 379T166 295V10Q166 0 156 0H92Q82 0 82 10V541Q82 547 76 547H8Q-2 547 -2 557V605Q-2 615 8 615H76Q82 615 82 621V670Q82 680 92 680Z" horiz-adv-x="544" unicode="ћ"/>
			<glyph d="M427 482H459Q468 482 468 472V416Q468 406 459 406H449Q425 406 411 397T388 362L367 308Q352 269 319 253V249Q362 240 383 189L409 126Q421 95 432 84T473 73H477Q487 73 487 64V6Q487 -3 477 -3H440Q407 -3 379 11T331 82L303 156Q297 172 281 189T217 206H172Q166 206 166 200V9Q166 0 157 0H92Q82 0 82 9V470Q82 479 92 479H157Q166 479 166 470V288Q166 282 172 282H214Q235 282 258 295T294 340L319 406Q330 436 353 459T427 482ZM307 700H373Q377 700 379 696T378 690L286 567Q279 557 267 557H220Q209 557 214 567L290 690Q296 700 307 700Z" horiz-adv-x="511" unicode="ќ"/>
			<glyph d="M92 479H157Q166 479 166 470V132H169L391 473Q395 479 402 479H471Q481 479 481 470V9Q481 0 471 0H407Q397 0 397 9V349H394L172 7Q167 0 160 0H92Q82 0 82 9V470Q82 479 92 479ZM174 700H240Q252 700 258 690L333 567Q338 557 327 557H280Q269 557 261 567L169 690Q166 693 168 696T174 700Z" horiz-adv-x="563" unicode="ѝ"/>
			<glyph d="M33 479H103Q112 479 115 469L241 123H243L364 469Q367 479 376 479H444Q455 479 452 469L263 -37Q236 -110 204 -145T112 -180H86Q76 -180 76 -170V-112Q76 -102 86 -102H104Q126 -102 146 -90T185 -30L201 14L25 469Q22 479 33 479ZM152 686Q161 687 164 680Q185 618 243 618Q299 618 322 680Q325 687 335 686L370 679Q379 678 376 664Q351 559 243 559Q133 559 109 664Q106 678 115 679Z" horiz-adv-x="477" unicode="ў"/>
			<glyph d="M92 479H157Q166 479 166 469V82Q166 76 172 76H372Q378 76 378 82V469Q378 479 388 479H453Q462 479 462 469V9Q462 0 453 0H318Q312 0 312 -6V-115Q312 -124 302 -124H241Q232 -124 232 -115V-6Q232 0 226 0H92Q82 0 82 9V469Q82 479 92 479Z" horiz-adv-x="544" unicode="џ"/>
			<glyph d="M413 809H476Q485 809 485 800V606Q485 597 476 597H179Q173 597 173 591V10Q173 0 163 0H94Q84 0 84 10V670Q84 680 94 680H395Q403 680 403 688V800Q403 809 413 809Z" horiz-adv-x="500" unicode="Ґ"/>
			<glyph d="M328 583H386Q396 583 396 573V413Q396 403 386 403H172Q166 403 166 397V9Q166 0 156 0H91Q82 0 82 9V470Q82 479 91 479H312Q318 479 318 485V573Q318 583 328 583Z" horiz-adv-x="400" unicode="ґ"/>
			<glyph d="M32 680H98Q109 680 110 670L231 165H233L374 670Q377 680 386 680H437Q446 680 449 670L593 165H595L713 670Q716 680 726 680H791Q801 680 799 670L635 10Q633 0 623 0H568Q560 0 557 10L412 517H410L266 10Q263 0 254 0H199Q190 0 188 10L24 670Q21 680 32 680ZM264 888H334Q345 888 353 878L438 772Q441 769 440 765T434 762H381Q375 762 367 771L260 878Q257 881 258 884T264 888Z" horiz-adv-x="823" unicode="Ẁ"/>
			<glyph d="M38 479H106Q115 479 119 469L225 123H227L335 469Q338 479 347 479H399Q409 479 412 469L521 123H523L626 469Q629 479 639 479H707Q717 479 714 469L563 10Q560 0 551 0H494Q485 0 482 10L374 353H372L263 10Q260 0 251 0H193Q184 0 181 10L31 469Q28 479 38 479ZM242 700H308Q320 700 326 690L401 567Q406 557 395 557H348Q337 557 329 567L237 690Q234 693 236 696T242 700Z" horiz-adv-x="745" unicode="ẁ"/>
			<glyph d="M32 680H98Q109 680 110 670L231 165H233L374 670Q377 680 386 680H437Q446 680 449 670L593 165H595L713 670Q716 680 726 680H791Q801 680 799 670L635 10Q633 0 623 0H568Q560 0 557 10L412 517H410L266 10Q263 0 254 0H199Q190 0 188 10L24 670Q21 680 32 680ZM487 888H557Q561 888 563 884T562 878L455 771Q447 762 437 762H387Q383 762 381 765T383 772L469 878Q477 888 487 888Z" horiz-adv-x="823" unicode="Ẃ"/>
			<glyph d="M38 479H106Q115 479 119 469L225 123H227L335 469Q338 479 347 479H399Q409 479 412 469L521 123H523L626 469Q629 479 639 479H707Q717 479 714 469L563 10Q560 0 551 0H494Q485 0 482 10L374 353H372L263 10Q260 0 251 0H193Q184 0 181 10L31 469Q28 479 38 479ZM438 700H504Q508 700 510 696T509 690L417 567Q410 557 398 557H351Q340 557 345 567L421 690Q427 700 438 700Z" horiz-adv-x="745" unicode="ẃ"/>
			<glyph d="M32 680H98Q109 680 110 670L231 165H233L374 670Q377 680 386 680H437Q446 680 449 670L593 165H595L713 670Q716 680 726 680H791Q801 680 799 670L635 10Q633 0 623 0H568Q560 0 557 10L412 517H410L266 10Q263 0 254 0H199Q190 0 188 10L24 670Q21 680 32 680ZM482 869H538Q548 869 548 859V787Q548 777 538 777H482Q472 777 472 787V859Q472 869 482 869ZM282 869H338Q348 869 348 859V787Q348 777 338 777H282Q272 777 272 787V859Q272 869 282 869Z" horiz-adv-x="823" unicode="Ẅ"/>
			<glyph d="M38 479H106Q115 479 119 469L225 123H227L335 469Q338 479 347 479H399Q409 479 412 469L521 123H523L626 469Q629 479 639 479H707Q717 479 714 469L563 10Q560 0 551 0H494Q485 0 482 10L374 353H372L263 10Q260 0 251 0H193Q184 0 181 10L31 469Q28 479 38 479ZM441 680H500Q510 680 510 670V597Q510 587 500 587H441Q431 587 431 597V670Q431 680 441 680ZM244 680H303Q313 680 313 670V597Q313 587 303 587H244Q234 587 234 597V670Q234 680 244 680Z" horiz-adv-x="745" unicode="ẅ"/>
			<glyph d="M26 680H97Q106 680 112 670L264 379H266L417 670Q421 680 431 680H500Q512 680 508 669L307 278V10Q307 0 297 0H229Q219 0 219 10V278L18 669Q14 680 26 680ZM128 888H198Q209 888 217 878L302 772Q305 769 304 765T298 762H245Q239 762 231 771L124 878Q121 881 122 884T128 888Z" horiz-adv-x="526" unicode="Ỳ"/>
			<glyph d="M33 479H103Q112 479 115 469L241 123H243L364 469Q367 479 376 479H444Q455 479 452 469L263 -37Q236 -110 204 -145T112 -180H86Q76 -180 76 -170V-112Q76 -102 86 -102H104Q126 -102 146 -90T185 -30L201 14L25 469Q22 479 33 479ZM129 700H195Q207 700 213 690L288 567Q293 557 282 557H235Q224 557 216 567L124 690Q121 693 123 696T129 700Z" horiz-adv-x="477" unicode="ỳ"/>
			<glyph d="M57 305H323Q333 305 333 295V237Q333 227 323 227H57Q47 227 47 237V295Q47 305 57 305Z" horiz-adv-x="380" unicode="‐"/>
			<glyph d="M34 303H478Q488 303 488 293V239Q488 229 478 229H34Q24 229 24 239V293Q24 303 34 303Z" horiz-adv-x="512" unicode="–"/>
			<glyph d="M34 303H816Q826 303 826 293V239Q826 229 816 229H34Q24 229 24 239V293Q24 303 34 303Z" horiz-adv-x="850" unicode="—"/>
			<glyph d="M34 303H816Q826 303 826 293V239Q826 229 816 229H34Q24 229 24 239V293Q24 303 34 303Z" horiz-adv-x="850" unicode="―"/>
			<glyph d="M139 682Q148 682 148 672V513Q148 503 138 503H77Q67 503 67 513V596Q67 607 74 617L126 674Q132 682 139 682Z" horiz-adv-x="215" unicode="‘"/>
			<glyph d="M77 680H138Q148 680 148 670V587Q148 574 142 566L90 509Q84 501 76 501Q67 501 67 511V670Q67 680 77 680Z" horiz-adv-x="215" unicode="’"/>
			<glyph d="M77 92H138Q148 92 148 82V-1Q148 -15 142 -22L90 -79Q84 -87 76 -87Q67 -87 67 -77V82Q67 92 77 92Z" horiz-adv-x="215" unicode="‚"/>
			<glyph d="M296 682Q305 682 305 672V513Q305 503 295 503H234Q224 503 224 513V596Q224 609 230 617L282 674Q288 682 296 682ZM139 682Q148 682 148 672V513Q148 503 138 503H77Q67 503 67 513V596Q67 607 74 617L126 674Q132 682 139 682Z" horiz-adv-x="372" unicode="“"/>
			<glyph d="M234 680H295Q305 680 305 670V587Q305 576 298 566L246 509Q240 501 233 501Q224 501 224 511V670Q224 680 234 680ZM77 680H138Q148 680 148 670V587Q148 573 142 566L90 509Q85 501 76 501Q67 501 67 511V670Q67 680 77 680Z" horiz-adv-x="372" unicode="”"/>
			<glyph d="M234 92H295Q305 92 305 82V-1Q305 -12 298 -22L246 -79Q240 -87 233 -87Q224 -87 224 -77V82Q224 92 234 92ZM77 92H138Q148 92 148 82V-1Q148 -14 142 -22L90 -79Q84 -87 76 -87Q67 -87 67 -77V82Q67 92 77 92Z" horiz-adv-x="372" unicode="„"/>
			<glyph d="M216 680H278Q288 680 288 670V446Q288 440 294 440H434Q444 440 444 430V374Q444 364 434 364H294Q288 364 288 358V-170Q288 -180 278 -180H216Q206 -180 206 -170V358Q206 364 200 364H60Q50 364 50 374V430Q50 440 60 440H200Q206 440 206 446V670Q206 680 216 680Z" horiz-adv-x="494" unicode="†"/>
			<glyph d="M216 680H278Q288 680 288 670V477Q288 471 294 471H434Q444 471 444 461V405Q444 395 434 395H294Q288 395 288 389V111Q288 105 294 105H434Q444 105 444 95V39Q444 29 434 29H294Q288 29 288 23V-170Q288 -180 278 -180H216Q206 -180 206 -170V23Q206 29 200 29H60Q50 29 50 39V95Q50 105 60 105H200Q206 105 206 111V389Q206 395 200 395H60Q50 395 50 405V461Q50 471 60 471H200Q206 471 206 477V670Q206 680 216 680Z" horiz-adv-x="494" unicode="‡"/>
			<glyph d="M221 436Q275 436 311 399T348 308Q348 253 311 216T221 180Q166 180 130 216T94 308Q94 363 130 399T221 436Z" horiz-adv-x="442" unicode="•"/>
			<glyph d="M552 106H628Q638 106 638 96V10Q638 0 628 0H552Q542 0 542 10V96Q542 106 552 106ZM316 106H392Q402 106 402 96V10Q402 0 392 0H316Q306 0 306 10V96Q306 106 316 106ZM80 106H156Q166 106 166 96V10Q166 0 156 0H80Q70 0 70 10V96Q70 106 80 106Z" horiz-adv-x="708" unicode="…"/>
			<glyph d="M568 691H615Q619 691 620 688T620 681L226 -1Q220 -11 211 -11H164Q160 -11 158 -8T158 -1L552 681Q558 691 568 691ZM199 688Q241 688 272 667T314 611Q322 586 322 509Q322 432 314 407Q303 372 272 351T199 330Q157 330 126 351T83 407Q75 432 75 509Q75 586 83 611Q95 646 126 667T199 688ZM199 630Q157 630 145 595Q140 578 140 509Q140 440 145 423Q157 388 199 388Q241 388 252 423Q258 438 258 509Q258 580 252 595Q241 630 199 630ZM885 349Q927 349 958 328T1000 272Q1008 248 1008 170Q1008 93 1000 68Q989 33 958 12T885 -9Q843 -9 812 12T769 68Q761 98 761 170Q761 243 769 272Q781 307 812 328T885 349ZM579 349Q621 349 652 328T695 272Q703 248 703 170Q703 93 695 68Q684 33 652 12T579 -9Q537 -9 506 12T464 68Q456 93 456 170Q456 248 464 272Q475 307 506 328T579 349ZM885 291Q843 291 831 256Q826 239 826 170Q826 102 831 84Q843 49 885 49Q927 49 938 84Q944 101 944 170Q944 241 938 256Q927 291 885 291ZM579 291Q538 291 526 256Q520 241 520 170Q520 101 526 84Q538 49 579 49Q621 49 633 84Q638 98 638 170Q638 244 633 256Q621 291 579 291Z" horiz-adv-x="1083" unicode="‰"/>
			<glyph d="M246 464T250 459V386Q250 376 241 366L142 268Q138 264 142 260L241 162Q250 152 250 142V69Q250 65 246 63T240 65L51 257Q44 264 51 271L240 463Q243 466 246 464Z" horiz-adv-x="320" unicode="‹"/>
			<glyph d="M73 464T80 463L269 271Q276 264 269 257L80 65Q77 62 73 63T70 69V142Q70 152 79 162L178 260Q182 264 178 268L79 366Q70 376 70 386V459Q70 463 73 464Z" horiz-adv-x="320" unicode="›"/>
			<glyph d="M229 691Q309 691 359 643T410 521Q410 495 401 466T359 391L292 299Q266 264 266 224V192Q266 182 256 182H190Q182 182 180 189L179 194L163 480Q163 490 173 490H247Q257 490 257 480L251 367H253L277 404Q324 472 324 520Q324 562 297 587T227 613Q140 613 123 527Q121 517 112 519L49 530Q39 532 41 541Q52 613 101 652T229 691ZM185 106H261Q271 106 271 96V10Q271 0 261 0H185Q175 0 175 10V96Q175 106 185 106Z" horiz-adv-x="456" unicode="‽"/>
			<glyph d="M256 691H303Q307 691 309 688T309 681L-86 -1Q-92 -11 -101 -11H-148Q-152 -11 -153 -8T-153 -1L241 681Q247 691 256 691Z" horiz-adv-x="155" unicode="⁄"/>
			<glyph d="M170 843Q267 843 294 760Q303 736 303 633Q303 530 294 506Q267 423 170 423Q73 423 46 506Q37 530 37 633Q37 736 46 760Q73 843 170 843ZM170 782Q125 782 113 743Q107 725 107 633Q107 541 113 523Q125 484 170 484Q215 484 227 523Q233 541 233 633Q233 725 227 743Q215 782 170 782Z" horiz-adv-x="341" unicode="⁰"/>
			<glyph d="M171 836H223Q234 836 229 826L101 559V558H197Q203 558 203 564V653Q203 663 213 663H258Q268 663 268 653V564Q268 558 274 558H300Q310 558 310 548V507Q310 497 300 497H274Q268 497 268 491V440Q268 430 258 430H213Q203 430 203 440V491Q203 497 197 497H35Q25 497 25 507V547Q25 555 29 563L157 826Q162 836 171 836Z" horiz-adv-x="341" unicode="⁴"/>
			<glyph d="M62 836H283Q293 836 293 826V785Q293 775 283 775H124Q118 775 118 769V675H119Q142 696 184 696Q270 696 292 628Q300 605 300 560Q300 524 292 498Q280 462 248 442T171 423Q122 423 88 445T47 503Q45 514 52 516L98 531Q106 534 109 526Q127 485 171 485Q215 485 228 521Q232 534 232 560Q232 587 228 600Q215 635 173 635Q138 635 123 611Q118 603 111 603H62Q52 603 52 613V826Q52 836 62 836Z" horiz-adv-x="341" unicode="⁵"/>
			<glyph d="M179 836H233Q237 836 239 833T239 826L152 670L153 669Q165 676 185 676Q237 676 271 641T306 550Q306 494 267 458T170 423Q111 423 73 458T35 550Q35 594 66 650L164 827Q169 836 179 836ZM170 615Q141 615 122 596T103 549Q103 521 122 502T170 484Q200 484 219 502T238 549Q238 578 219 596T170 615Z" horiz-adv-x="341" unicode="⁶"/>
			<glyph d="M56 836H291Q301 836 301 826V779L299 768L159 439Q155 430 145 430H96Q85 430 90 441L231 773V775H118Q112 775 112 769V726Q112 716 102 716H56Q46 716 46 726V826Q46 836 56 836Z" horiz-adv-x="341" unicode="⁷"/>
			<glyph d="M170 843Q227 843 262 808T298 726Q298 675 253 645V644Q308 611 308 546Q308 492 269 457T170 423Q111 423 72 457T33 546Q33 611 88 644V645Q43 674 43 726Q43 774 78 808T170 843ZM170 782Q145 782 128 766T111 726Q111 703 128 687T170 671Q196 671 213 687T230 726Q230 750 213 766T170 782ZM170 613Q140 613 120 594T101 548Q101 521 120 502T170 484Q200 484 220 502T240 548Q240 576 220 594T170 613Z" horiz-adv-x="341" unicode="⁸"/>
			<glyph d="M170 843Q229 843 267 807T306 716Q306 675 275 616L177 439Q171 430 162 430H107Q103 430 101 433T102 440L188 596L187 597Q177 590 156 590Q104 590 69 625T35 716Q35 772 73 807T170 843ZM170 782Q141 782 122 763T103 717Q103 688 121 669T170 651Q200 651 219 669T238 717Q238 745 219 763T170 782Z" horiz-adv-x="341" unicode="⁹"/>
			<glyph d="M170 257Q267 257 294 174Q303 150 303 47Q303 -56 294 -80Q267 -163 170 -163Q73 -163 46 -80Q37 -56 37 47Q37 150 46 174Q73 257 170 257ZM170 196Q125 196 113 157Q107 139 107 47Q107 -45 113 -63Q125 -102 170 -102Q215 -102 227 -63Q233 -45 233 47Q233 139 227 157Q215 196 170 196Z" horiz-adv-x="341" unicode="₀"/>
			<glyph d="M174 250H220Q230 250 230 240V-146Q230 -156 220 -156H173Q163 -156 163 -146V169H161L95 125Q91 123 88 125T85 131V184Q85 194 93 199L158 243Q166 250 174 250Z" horiz-adv-x="341" unicode="₁"/>
			<glyph d="M173 257Q228 257 262 224T296 142Q296 91 252 42L130 -93V-95H288Q298 -95 298 -105V-146Q298 -156 288 -156H52Q42 -156 42 -146V-105Q42 -97 49 -91L198 78Q229 111 229 142Q229 166 213 181T172 196Q122 196 111 146Q109 136 100 138L55 148Q45 150 47 159Q52 196 85 226T173 257Z" horiz-adv-x="341" unicode="₂"/>
			<glyph d="M168 257Q225 257 259 225T293 145Q293 91 247 59V58Q267 49 284 22T302 -39Q302 -94 266 -128T172 -163Q120 -163 84 -140T39 -76Q36 -66 45 -64L90 -52Q98 -51 102 -59Q123 -102 170 -102Q199 -102 217 -84T235 -40Q235 -12 216 5T166 22H147Q137 22 137 32V73Q137 83 147 83H162Q190 83 207 98T225 140Q225 166 209 181T166 196Q124 196 106 159Q103 150 94 152L52 162Q43 163 45 174Q53 209 85 233T168 257Z" horiz-adv-x="341" unicode="₃"/>
			<glyph d="M171 250H223Q234 250 229 240L101 -27V-28H197Q203 -28 203 -22V67Q203 77 213 77H258Q268 77 268 67V-22Q268 -28 274 -28H300Q310 -28 310 -38V-79Q310 -89 300 -89H274Q268 -89 268 -95V-146Q268 -156 258 -156H213Q203 -156 203 -146V-95Q203 -89 197 -89H35Q25 -89 25 -79V-39Q25 -31 29 -23L157 240Q162 250 171 250Z" horiz-adv-x="341" unicode="₄"/>
			<glyph d="M62 250H283Q293 250 293 240V199Q293 189 283 189H124Q118 189 118 183V89H119Q142 110 184 110Q270 110 292 42Q300 19 300 -26Q300 -62 292 -88Q280 -124 248 -143T171 -163Q122 -163 88 -141T47 -83Q45 -72 52 -70L98 -55Q106 -52 109 -60Q127 -101 171 -101Q215 -101 228 -65Q232 -52 232 -26Q232 1 228 14Q215 49 173 49Q138 49 123 25Q118 17 111 17H62Q52 17 52 27V240Q52 250 62 250Z" horiz-adv-x="341" unicode="₅"/>
			<glyph d="M179 250H233Q237 250 239 247T239 240L152 84L153 83Q165 90 185 90Q237 90 271 55T306 -36Q306 -92 267 -127T170 -163Q111 -163 73 -127T35 -36Q35 8 66 64L164 241Q169 250 179 250ZM170 29Q141 29 122 10T103 -37Q103 -65 122 -83T170 -102Q200 -102 219 -83T238 -37Q238 -8 219 10T170 29Z" horiz-adv-x="341" unicode="₆"/>
			<glyph d="M56 250H291Q301 250 301 240V193L299 182L159 -147Q155 -156 145 -156H96Q85 -156 90 -145L231 187V189H118Q112 189 112 183V140Q112 130 102 130H56Q46 130 46 140V240Q46 250 56 250Z" horiz-adv-x="341" unicode="₇"/>
			<glyph d="M170 257Q227 257 262 222T298 140Q298 89 253 59V58Q308 25 308 -40Q308 -94 269 -128T170 -163Q111 -163 72 -128T33 -40Q33 25 88 58V59Q43 88 43 140Q43 188 78 222T170 257ZM170 196Q145 196 128 180T111 140Q111 117 128 101T170 85Q196 85 213 101T230 140Q230 164 213 180T170 196ZM170 27Q140 27 120 8T101 -38Q101 -65 120 -83T170 -102Q200 -102 220 -83T240 -38Q240 -10 220 8T170 27Z" horiz-adv-x="341" unicode="₈"/>
			<glyph d="M170 257Q229 257 267 221T306 130Q306 89 275 30L177 -147Q171 -156 162 -156H107Q103 -156 101 -153T102 -146L188 10L187 11Q177 4 156 4Q104 4 69 39T35 130Q35 186 73 221T170 257ZM170 196Q141 196 122 177T103 131Q103 102 121 83T170 65Q200 65 219 83T238 131Q238 159 219 177T170 196Z" horiz-adv-x="341" unicode="₉"/>
			<glyph d="M309 691Q375 691 422 658T494 573Q498 564 491 560L437 533Q428 530 424 538Q384 613 309 613Q224 613 199 534Q189 505 189 444Q189 438 195 438H386Q396 438 396 428L386 386Q383 376 376 376H195Q189 376 189 370V316Q189 310 195 310H366Q376 310 376 300L366 258Q363 248 356 248H195Q189 248 189 242Q189 175 199 146Q224 67 309 67Q384 67 424 142Q428 151 437 147L491 120Q498 116 494 107Q469 54 422 21T309 -11Q238 -11 187 24T116 126Q103 166 103 242Q103 248 97 248H55Q45 248 45 258V300Q45 310 55 310H97Q103 310 103 316V370Q103 376 97 376H55Q45 376 45 386V428Q45 438 55 438H97Q103 438 103 444Q103 514 116 554Q137 620 187 655T309 691Z" unicode="€"/>
			<glyph d="M568 691H616Q620 691 621 688T621 681L226 -1Q220 -11 211 -11H163Q159 -11 157 -8T157 -1L552 681Q558 691 568 691ZM584 348Q630 348 664 323T711 256Q721 222 721 169Q721 115 711 81Q698 38 664 13T584 -11Q538 -11 504 13T458 81Q447 114 447 169Q447 223 458 256Q471 299 504 323T584 348ZM584 292Q559 292 541 278T516 238Q509 213 509 169Q509 124 516 99Q521 80 537 62T584 45Q637 45 651 99Q659 123 659 169Q659 214 651 238Q637 292 584 292ZM210 688Q284 688 324 630Q327 625 322 620L286 594Q281 589 276 595Q261 615 246 623T208 632Q154 632 139 578Q131 554 131 509Q131 463 139 439Q154 385 208 385Q226 385 241 391T276 422Q281 428 286 423L322 397Q327 392 324 387Q284 329 210 329Q161 329 127 353T79 421Q68 454 68 509Q68 563 79 596Q93 640 127 664T210 688Z" horiz-adv-x="778" unicode="℅"/>
			<glyph d="M246 691Q298 691 330 653T362 553Q362 483 324 411T201 261V127Q201 67 247 67Q276 67 306 95Q315 102 320 93L347 54Q352 46 345 40Q297 -11 230 -11Q116 -11 116 127V203L83 177Q75 172 69 179L41 220Q37 228 43 234L116 292V500Q116 593 149 642T246 691ZM248 621Q201 621 201 509V358Q289 452 289 553Q289 584 278 602T248 621Z" horiz-adv-x="410" unicode="ℓ"/>
			<glyph d="M94 680H160Q167 680 170 675L459 174H462V671Q462 680 472 680H539Q548 680 548 671V10Q548 0 539 0H471Q465 0 461 6L173 508H170V10Q170 0 160 0H94Q84 0 84 10V671Q84 680 94 680ZM643 208H867Q877 208 877 198V154Q877 144 867 144H643Q634 144 634 154V198Q634 208 643 208ZM756 559Q891 559 891 408Q891 256 756 256Q619 256 619 408Q619 559 756 559ZM756 503Q685 503 685 408Q685 312 756 312Q826 312 826 408Q826 503 756 503Z" horiz-adv-x="939" unicode="№"/>
			<glyph d="M414 691Q504 691 589 645T719 515T765 340Q765 250 719 165T589 34T414 -11Q324 -11 239 34T108 165T63 340Q63 430 108 515T239 645T414 691ZM414 630Q291 630 208 547T126 340Q126 216 208 133T414 50Q537 50 619 133T702 340Q702 464 619 547T414 630ZM299 526H417Q577 526 577 405Q577 272 417 272H360Q355 272 355 267V149Q355 140 346 140H299Q290 140 290 149V517Q290 526 299 526ZM359 467L355 463V330L359 326H405Q456 326 484 342T512 399Q512 467 405 467Z" horiz-adv-x="828" unicode="℗"/>
			<glyph d="M429 680H468Q477 680 481 671L599 419H602L718 671Q723 680 732 680H771Q781 680 781 670V296Q781 286 771 286H730Q720 286 720 296V537H718L629 352Q624 342 616 342H583Q576 342 571 352L482 537H480V296Q480 286 470 286H429Q419 286 419 296V670Q419 680 429 680ZM51 680H338Q348 680 348 670V632Q348 622 338 622H233Q227 622 227 616V296Q227 286 217 286H172Q162 286 162 296V616Q162 622 156 622H51Q41 622 41 632V670Q41 680 51 680Z" horiz-adv-x="833" unicode="™"/>
			<glyph d="M312 691Q399 691 460 650T546 530Q565 467 565 340Q565 240 547 179T475 84V82H552Q562 82 562 72V10Q562 0 552 0H363Q353 0 353 10V72Q353 82 363 85Q417 103 446 154T475 340Q475 459 459 507T405 581T312 608Q258 608 220 581T166 507T150 340Q150 235 171 171T262 85Q272 82 272 72V10Q272 0 262 0H73Q63 0 63 10V72Q63 82 73 82H150V84Q101 115 80 171T60 340Q60 472 79 530Q105 609 165 650T312 691Z" horiz-adv-x="625" unicode="Ω"/>
			<glyph d="M309 490Q414 490 478 420T544 241H178V76Q232 24 309 24Q420 24 483 132L515 112Q473 48 425 18T309 -11Q205 -11 140 62T76 241Q76 348 140 419T309 490ZM309 459Q232 459 178 405V273H442V405Q382 459 309 459Z" horiz-adv-x="620" unicode="℮"/>
			<glyph d="M183 680H229Q239 680 239 670V284Q239 274 229 274H182Q172 274 172 284V599H170L104 555Q100 553 97 555T94 561V614Q94 624 102 629L167 673Q175 680 183 680ZM653 413Q710 413 744 381T778 301Q778 247 732 215V214Q752 205 769 178T787 117Q787 62 751 27T657 -7Q605 -7 569 15T524 80Q521 90 530 92L575 104Q583 105 587 97Q608 54 655 54Q684 54 702 71T720 116Q720 144 701 161T651 178H632Q622 178 622 188V229Q622 239 632 239H647Q675 239 692 254T710 296Q710 322 694 337T651 352Q609 352 591 315Q588 306 579 308L537 318Q528 319 530 330Q538 365 570 389T653 413ZM583 691H630Q634 691 636 688T636 681L241 -1Q235 -11 226 -11H179Q175 -11 173 -8T174 -1L568 681Q574 691 583 691Z" horiz-adv-x="881" unicode="⅓"/>
			</font>
</defs>
</svg>
