<?xml version="1.0" encoding="UTF-8"?>
<svg height="100%" width="100%" xmlns="http://www.w3.org/2000/svg">
	<defs>
		<font horiz-adv-x="556" id="web">
			<font-face alphabetic="0" ascent="938" descent="-259" font-family="" panose-1="2 11 8 3 2 2 3 5 2 3"/>
			<missing-glyph d="M10 680H496Q506 680 506 670V10Q506 0 496 0H10Q0 0 0 10V670Q0 680 10 680ZM75 615Q69 615 69 609V71Q69 65 75 65H431Q437 65 437 71V609Q437 615 431 615ZM250 563Q305 563 341 529T377 446Q377 400 345 364L300 304Q287 286 287 266V253Q287 243 277 243H209Q199 243 199 253V277Q199 306 218 331L264 391Q287 421 287 443Q287 461 275 473T246 485Q208 485 198 446Q196 435 187 437L122 447Q112 447 114 458Q123 506 158 534T250 563ZM208 201H279Q289 201 289 191V124Q289 114 279 114H208Q198 114 198 124V191Q198 201 208 201Z" horiz-adv-x="506"/>
			<glyph d="" horiz-adv-x="236" unicode=" "/>
			<glyph d="M91 680H221Q231 680 231 670L207 209Q207 199 197 199H115Q105 199 105 209L81 670Q81 680 91 680ZM96 134H216Q226 134 226 124V10Q226 0 216 0H96Q86 0 86 10V124Q86 134 96 134Z" horiz-adv-x="312" unicode="!"/>
			<glyph d="M227 680H306Q316 680 316 670V482Q316 472 306 472H227Q217 472 217 482V670Q217 680 227 680ZM68 680H147Q157 680 157 670V482Q157 472 147 472H68Q58 472 58 482V670Q58 680 68 680Z" horiz-adv-x="374" unicode="&quot;"/>
			<glyph d="M167 680H256Q267 680 265 670L241 495H345L369 670Q371 680 380 680H469Q480 680 478 670L454 495H520Q530 495 530 485V406Q530 396 520 396H440L426 294H494Q504 294 504 284V205Q504 195 494 195H413L388 10Q386 0 377 0H288Q277 0 279 10L304 195H200L175 10Q173 0 164 0H75Q64 0 66 10L91 195H28Q18 195 18 205V284Q18 294 28 294H104L118 396H54Q44 396 44 406V485Q44 495 54 495H132L156 670Q158 680 167 680ZM227 396L213 294H317L331 396Z" horiz-adv-x="548" unicode="#"/>
			<glyph d="M263 758H309Q319 758 319 748V689Q407 682 478 635Q486 629 480 620L422 536Q416 528 408 533Q362 561 319 568V407Q412 392 460 341T508 208Q508 121 457 63T319 -7V-68Q319 -78 309 -78H263Q253 -78 253 -68V-10Q140 -4 54 63Q45 70 52 78L120 162Q127 170 133 164Q189 118 253 111V282Q165 296 115 347T65 479Q65 563 117 621T253 689V748Q253 758 263 758ZM253 563Q230 554 216 534T203 490Q203 438 253 420ZM319 268V118Q370 138 370 201Q370 249 319 268Z" unicode="$"/>
			<glyph d="M569 691H653Q663 691 657 681L262 -1Q256 -11 246 -11H163Q159 -11 157 -8T158 -1L553 681Q559 691 569 691ZM198 688Q245 688 279 665T327 606Q336 580 336 509Q336 438 327 412Q314 375 279 352T198 330Q151 330 116 352T69 412Q60 438 60 509Q60 580 69 606Q82 643 116 665T198 688ZM198 609Q171 609 163 586Q159 575 159 509Q159 443 163 432Q171 409 198 409Q225 409 233 432Q237 443 237 509Q237 575 233 586Q225 609 198 609ZM616 349Q663 349 697 326T745 267Q754 237 754 170Q754 104 745 74Q732 36 697 13T616 -9Q568 -9 534 13T487 74Q478 100 478 170Q478 241 487 267Q500 304 534 326T616 349ZM616 270Q589 270 581 247Q577 236 577 170Q577 103 581 94Q589 70 616 70Q644 70 651 94Q655 103 655 170Q655 236 651 247Q643 270 616 270Z" horiz-adv-x="814" unicode="%"/>
			<glyph d="M287 691Q366 691 415 645T464 532Q464 498 445 459T350 361L439 248L505 324Q512 332 519 325L588 267Q595 261 589 253L509 158L527 136Q543 115 566 115H581Q591 115 591 105V10Q591 0 581 0H539Q512 0 487 8T432 55L424 64Q393 34 352 11T250 -11Q158 -11 106 39T54 172Q54 227 83 276T180 378Q141 428 124 462T107 530Q107 600 159 645T287 691ZM288 587Q264 587 249 572T235 533Q235 521 241 505T279 451Q306 472 323 491T341 533Q341 556 325 571T288 587ZM251 288Q182 232 182 183Q182 149 203 127T260 106Q306 106 355 154Z" horiz-adv-x="648" unicode="&amp;"/>
			<glyph d="M68 680H147Q157 680 157 670V482Q157 472 147 472H68Q58 472 58 482V670Q58 680 68 680Z" horiz-adv-x="215" unicode="'"/>
			<glyph d="M196 740H268Q279 740 274 730Q231 642 207 536T184 328Q184 227 208 120T274 -74Q279 -84 268 -84H196Q187 -84 180 -74Q117 13 84 118T51 328Q51 432 84 537T180 730Q187 740 196 740Z" horiz-adv-x="311" unicode="("/>
			<glyph d="M43 740H115Q124 740 131 730Q194 643 227 537T260 328Q260 224 227 118T131 -74Q124 -84 115 -84H43Q32 -84 37 -74Q79 13 103 120T127 328Q127 430 103 536T37 730Q32 740 43 740Z" horiz-adv-x="311" unicode=")"/>
			<glyph d="M156 680H211Q221 680 221 670L219 590L288 631Q297 636 302 628L329 580Q334 571 326 566L256 527L326 489Q335 484 330 475L302 427Q297 418 288 423L219 464L221 384Q221 374 211 374H156Q146 374 146 384L147 464L78 423Q69 418 64 427L37 475Q32 484 41 489L110 527L41 566Q32 571 37 580L64 628Q69 636 78 631L147 590L146 670Q146 680 156 680Z" horiz-adv-x="367" unicode="*"/>
			<glyph d="M227 503H329Q339 503 339 493V341Q339 335 345 335H495Q505 335 505 325V227Q505 217 495 217H345Q339 217 339 211V59Q339 49 329 49H227Q217 49 217 59V211Q217 217 211 217H61Q51 217 51 227V325Q51 335 61 335H211Q217 335 217 341V493Q217 503 227 503Z" unicode="+"/>
			<glyph d="M70 140H183Q193 140 193 130V9Q193 -2 184 -11L85 -101Q77 -108 70 -108Q60 -108 60 -97V130Q60 140 70 140Z" horiz-adv-x="253" unicode=","/>
			<glyph d="M52 326H340Q350 326 350 316V214Q350 204 340 204H52Q42 204 42 214V316Q42 326 52 326Z" horiz-adv-x="392" unicode="-"/>
			<glyph d="M70 140H189Q199 140 199 130V10Q199 0 189 0H70Q60 0 60 10V130Q60 140 70 140Z" horiz-adv-x="259" unicode="."/>
			<glyph d="M275 691H384Q394 691 391 681L173 -1Q170 -11 160 -11H52Q42 -11 45 -1L262 681Q265 691 275 691Z" horiz-adv-x="436" unicode="/"/>
			<glyph d="M278 691Q357 691 409 654T483 552Q485 547 488 535T494 490T498 340Q498 275 496 219T483 128Q462 62 409 25T278 -11Q199 -11 146 25T73 128Q71 133 68 144T61 190T58 340Q58 405 59 460T73 552Q94 618 146 654T278 691ZM278 573Q224 573 209 527Q201 503 201 340Q201 177 209 153Q224 107 278 107Q332 107 347 153Q355 177 355 340Q355 503 347 527Q332 573 278 573Z" unicode="0"/>
			<glyph d="M260 680H372Q382 680 382 670V10Q382 0 372 0H252Q242 0 242 10V522H240L132 448Q121 441 121 454V578Q121 586 128 592L242 674Q250 680 260 680Z" unicode="1"/>
			<glyph d="M280 691Q375 691 432 636T489 497Q489 411 420 332L241 121V119H479Q489 119 489 109V10Q489 0 479 0H75Q65 0 65 10V103Q65 111 70 117L309 401Q349 447 349 495Q349 529 329 551T275 573Q204 573 195 493Q195 483 184 485L74 503Q64 505 66 515Q72 589 129 640T280 691Z" unicode="2"/>
			<glyph d="M276 691Q373 691 429 638T486 503Q486 413 410 363V361Q445 344 472 300T499 196Q499 104 436 46T277 -11Q190 -11 130 30T56 145Q54 155 64 158L174 179Q183 180 186 171Q195 143 218 125T275 107Q313 107 336 132T359 195Q359 240 333 265T264 291H235Q225 291 225 301V398Q225 408 235 408H262Q300 408 323 431T346 493Q346 529 325 551T269 573Q209 573 192 510Q189 501 180 503L71 524Q61 526 63 535Q75 604 132 647T276 691Z" unicode="3"/>
			<glyph d="M261 680H388Q398 680 395 670L191 223V220H316Q322 220 322 226V373Q322 383 332 383H448Q458 383 458 373V226Q458 220 464 220H509Q519 220 519 210V109Q519 99 509 99H464Q458 99 458 93V10Q458 0 448 0H332Q322 0 322 10V93Q322 99 316 99H51Q41 99 41 109V211L43 223L247 672Q251 680 261 680Z" unicode="4"/>
			<glyph d="M89 680H469Q479 680 479 670V571Q479 561 469 561H208Q202 561 202 555V421H205Q241 453 307 453Q372 453 418 423T482 338Q496 294 496 222Q496 163 481 116Q461 56 407 22T280 -11Q194 -11 137 30T71 139Q69 148 79 150L187 171Q196 172 199 163Q220 107 278 107Q334 107 349 155Q357 176 357 221Q357 267 349 288Q334 335 278 335Q229 335 209 296Q205 286 196 286H89Q79 286 79 296V670Q79 680 89 680Z" unicode="5"/>
			<glyph d="M277 680H404Q416 680 411 670L267 407L269 405Q283 411 311 411Q393 411 449 354T506 206Q506 106 441 47T278 -11Q179 -11 114 47T50 203Q50 280 100 371L265 673Q269 680 277 680ZM278 296Q238 296 213 269T188 201Q188 160 213 133T278 107Q318 107 343 133T368 201Q368 243 343 269T278 296Z" unicode="6"/>
			<glyph d="M79 680H486Q496 680 496 670V566L494 554L278 9Q274 0 264 0H139Q128 0 133 11L349 555V558H206Q200 558 200 552V481Q200 471 190 471H79Q69 471 69 481V670Q69 680 79 680Z" unicode="7"/>
			<glyph d="M278 691Q377 691 435 633T493 493Q493 460 477 421T427 357V355Q462 332 485 290T508 196Q508 104 443 46T278 -11Q178 -11 113 46T48 196Q48 249 71 290T129 355V357Q102 376 82 412T63 493Q63 575 121 633T278 691ZM278 573Q244 573 222 549T200 493Q200 460 222 437T278 414Q312 414 334 437T356 493Q356 526 334 549T278 573ZM278 296Q238 296 212 269T186 202Q186 161 212 134T278 107Q318 107 344 134T370 202Q370 243 344 269T278 296Z" unicode="8"/>
			<glyph d="M278 691Q377 691 441 633T506 477Q506 400 456 309L291 7Q288 0 279 0H152Q140 0 145 10L289 273L287 275Q273 269 245 269Q163 269 106 326T50 474Q50 574 114 632T278 691ZM278 573Q238 573 213 546T188 479Q188 437 213 410T278 384Q318 384 343 410T368 479Q368 520 343 546T278 573Z" unicode="9"/>
			<glyph d="M75 484H195Q205 484 205 474V355Q205 345 195 345H75Q65 345 65 355V474Q65 484 75 484ZM75 140H195Q205 140 205 130V10Q205 0 195 0H75Q65 0 65 10V130Q65 140 75 140Z" horiz-adv-x="270" unicode=":"/>
			<glyph d="M75 484H195Q205 484 205 474V355Q205 345 195 345H75Q65 345 65 355V474Q65 484 75 484ZM79 140H192Q202 140 202 130V9Q202 -3 194 -11L94 -101Q86 -108 79 -108Q69 -108 69 -97V130Q69 140 79 140Z" horiz-adv-x="270" unicode=";"/>
			<glyph d="M495 502Q505 505 505 496V387Q505 378 495 374L230 277V275L495 178Q505 174 505 165V56Q505 47 495 50L61 220Q51 223 51 234V318Q51 329 61 332Z" unicode="&lt;"/>
			<glyph d="M61 440H495Q505 440 505 430V332Q505 322 495 322H61Q51 322 51 332V430Q51 440 61 440ZM61 230H495Q505 230 505 220V122Q505 112 495 112H61Q51 112 51 122V220Q51 230 61 230Z" unicode="="/>
			<glyph d="M61 502L495 332Q505 329 505 318V234Q505 223 495 220L61 50Q51 47 51 56V165Q51 174 61 178L326 275V277L61 374Q51 378 51 387V496Q51 505 61 502Z" unicode="&gt;"/>
			<glyph d="M235 691Q323 691 379 639T436 511Q436 443 383 381L316 293Q296 269 296 233V209Q296 199 286 199H170Q160 199 160 209V251Q160 299 189 335L259 426Q297 471 297 506Q297 535 279 553T231 572Q170 572 156 502Q153 492 143 493L35 509Q25 510 27 521Q38 599 93 645T235 691ZM168 134H288Q298 134 298 124V10Q298 0 288 0H168Q158 0 158 10V124Q158 134 168 134Z" horiz-adv-x="473" unicode="?"/>
			<glyph d="M452 669Q633 669 747 557T861 268Q861 164 810 108T683 53Q591 53 554 118H553Q519 54 419 54Q306 54 276 149Q262 190 262 265Q262 341 276 380Q291 426 326 451T411 476Q438 476 470 464T519 425H520V456Q520 465 528 465H624Q632 465 632 456V213Q632 182 647 166T685 150Q750 150 750 267Q750 404 669 488T452 572Q315 572 234 488T154 265Q154 129 235 45T452 -38Q565 -38 659 9Q669 14 673 5L709 -60Q714 -68 705 -73Q599 -136 452 -136Q364 -136 288 -107T157 -24T72 104T43 265Q43 330 63 399T138 536T278 636T452 669ZM448 378Q399 378 382 331Q376 312 376 265Q376 219 382 198Q398 152 448 152Q499 152 514 198Q520 215 520 265Q520 315 514 331Q499 378 448 378Z" horiz-adv-x="910" unicode="@"/>
			<glyph d="M261 680H387Q397 680 400 670L630 10Q633 0 623 0H493Q483 0 480 10L441 129H203L165 10Q162 0 152 0H21Q11 0 14 10L248 670Q251 680 261 680ZM321 492L244 254H401L324 492Z" horiz-adv-x="644" unicode="A"/>
			<glyph d="M75 680H340Q447 680 502 631T557 499Q557 398 478 354V352Q514 338 541 296T569 198Q569 100 507 50T333 0H75Q65 0 65 10V670Q65 680 75 680ZM218 561Q212 561 212 555V408Q212 402 218 402H322Q363 402 387 423T411 482Q411 519 387 540T322 561ZM218 289Q212 289 212 283V125Q212 119 218 119H330Q374 119 398 141T422 204Q422 243 398 266T330 289Z" horiz-adv-x="610" unicode="B"/>
			<glyph d="M308 691Q393 691 454 651T545 540Q550 531 540 528L431 479Q422 474 417 484Q384 561 309 561Q231 561 207 486Q196 452 196 340Q196 228 207 194Q231 119 309 119Q384 119 417 196Q422 206 431 201L540 152Q550 149 545 140Q516 68 454 28T308 -11Q218 -11 155 31T66 156Q58 181 52 214T47 340Q47 388 48 433T66 524Q93 606 155 648T308 691Z" horiz-adv-x="575" unicode="C"/>
			<glyph d="M75 680H328Q418 680 478 641T563 527Q581 470 581 340Q581 210 563 153Q542 87 485 43T328 0H75Q65 0 65 10V670Q65 680 75 680ZM218 549Q212 549 212 543V137Q212 131 218 131H295Q398 131 421 206Q432 237 432 340Q432 443 421 474Q398 549 295 549Z" horiz-adv-x="630" unicode="D"/>
			<glyph d="M75 680H511Q521 680 521 670V563Q521 553 511 553H218Q212 553 212 547V412Q212 406 218 406H462Q472 406 472 396V290Q472 280 462 280H218Q212 280 212 274V133Q212 127 218 127H511Q521 127 521 117V10Q521 0 511 0H75Q65 0 65 10V670Q65 680 75 680Z" horiz-adv-x="565" unicode="E"/>
			<glyph d="M75 680H511Q521 680 521 670V563Q521 553 511 553H218Q212 553 212 547V404Q212 398 218 398H462Q472 398 472 388V282Q472 272 462 272H218Q212 272 212 266V10Q212 0 202 0H75Q65 0 65 10V670Q65 680 75 680Z" horiz-adv-x="557" unicode="F"/>
			<glyph d="M316 691Q396 691 462 655T558 546Q563 536 554 531L447 486Q436 483 433 491Q392 561 316 561Q231 561 207 485Q196 452 196 340Q196 227 207 194Q231 119 318 119Q357 119 387 137T427 189Q435 216 435 256Q435 262 429 262H337Q327 262 327 272V368Q327 378 337 378H571Q581 378 581 368V312Q581 211 564 159Q539 78 473 33T316 -11Q224 -11 158 31T66 154Q58 180 52 214T47 340Q47 396 49 440T66 526Q92 607 158 649T316 691Z" horiz-adv-x="628" unicode="G"/>
			<glyph d="M75 680H202Q212 680 212 670V415Q212 409 218 409H440Q446 409 446 415V670Q446 680 456 680H583Q593 680 593 670V10Q593 0 583 0H456Q446 0 446 10V272Q446 278 440 278H218Q212 278 212 272V10Q212 0 202 0H75Q65 0 65 10V670Q65 680 75 680Z" horiz-adv-x="658" unicode="H"/>
			<glyph d="M75 680H202Q212 680 212 670V10Q212 0 202 0H75Q65 0 65 10V670Q65 680 75 680Z" horiz-adv-x="277" unicode="I"/>
			<glyph d="M322 680H449Q459 680 459 670V244Q459 121 393 55T211 -11Q151 -11 98 13T21 76Q16 84 22 90L115 161Q122 166 129 159Q163 119 212 119Q259 119 285 149T312 237V670Q312 680 322 680Z" horiz-adv-x="521" unicode="J"/>
			<glyph d="M75 680H202Q212 680 212 670V376L438 671Q444 680 455 680H600Q604 680 605 675T604 667L398 409L623 12Q626 7 624 3T617 0H470Q460 0 455 9L301 295L212 183V10Q212 0 202 0H75Q65 0 65 10V670Q65 680 75 680Z" horiz-adv-x="645" unicode="K"/>
			<glyph d="M75 680H202Q212 680 212 670V137Q212 131 218 131H518Q528 131 528 121V10Q528 0 518 0H75Q65 0 65 10V670Q65 680 75 680Z" horiz-adv-x="550" unicode="L"/>
			<glyph d="M75 680H194Q206 680 210 670L382 282H386L555 670Q559 680 571 680H688Q698 680 698 670V10Q698 0 688 0H575Q565 0 565 10V393H561L435 106Q429 93 416 93H347Q334 93 328 106L202 393H198V10Q198 0 188 0H75Q65 0 65 10V670Q65 680 75 680Z" horiz-adv-x="763" unicode="M"/>
			<glyph d="M75 680H195Q206 680 212 670L452 242H457V670Q457 680 467 680H580Q590 680 590 670V10Q590 0 580 0H461Q450 0 444 10L203 437H198V10Q198 0 188 0H75Q65 0 65 10V670Q65 680 75 680Z" horiz-adv-x="655" unicode="N"/>
			<glyph d="M314 691Q405 691 470 648T562 526Q570 500 575 465T581 340Q581 284 578 240T562 154Q536 74 470 31T314 -11Q223 -11 157 31T66 154Q58 180 52 214T47 340Q47 396 49 440T66 526Q92 606 157 648T314 691ZM314 561Q231 561 207 486Q196 453 196 340Q196 227 207 194Q231 119 314 119Q397 119 421 194Q432 227 432 340Q432 453 421 486Q397 561 314 561Z" horiz-adv-x="628" unicode="O"/>
			<glyph d="M75 680H339Q448 680 512 619T576 461Q576 364 511 303T339 243H218Q212 243 212 237V10Q212 0 202 0H75Q65 0 65 10V670Q65 680 75 680ZM218 553Q212 553 212 547V376Q212 370 218 370H330Q375 370 402 395T429 461Q429 502 402 527T330 553Z" horiz-adv-x="605" unicode="P"/>
			<glyph d="M314 691Q405 691 470 649T562 526Q570 500 575 465T581 340Q581 284 578 240T562 154L545 113L616 43Q623 36 616 29L536 -49Q529 -56 521 -49L452 20Q390 -11 314 -11Q223 -11 157 31T66 154Q58 180 52 214T47 340Q47 396 49 440T66 526Q92 606 157 648T314 691ZM314 562Q230 562 206 487Q195 454 195 340Q195 226 206 193Q230 118 314 118L350 122L307 165Q300 172 307 179L387 255Q395 262 402 255L429 228Q433 259 433 340Q433 454 422 487Q398 562 314 562Z" horiz-adv-x="628" unicode="Q"/>
			<glyph d="M75 680H346Q449 680 513 621T577 469Q577 405 544 355T456 280L590 12Q592 8 590 4T583 0H441Q430 0 426 10L309 259H218Q212 259 212 253V10Q212 0 202 0H75Q65 0 65 10V670Q65 680 75 680ZM218 553Q212 553 212 547V390Q212 384 218 384H338Q379 384 404 407T430 469Q430 507 404 530T338 553Z" horiz-adv-x="624" unicode="R"/>
			<glyph d="M296 691Q362 691 423 672T527 620Q536 614 529 605L468 514Q462 506 454 511Q374 563 296 563Q253 563 229 542T205 489Q205 429 311 414L347 409Q561 380 561 203Q561 108 491 48T294 -11Q218 -11 145 16T32 82Q24 90 31 99L107 186Q113 194 122 187Q210 117 300 117Q352 117 381 139T411 198Q411 229 387 247T306 274L270 279Q55 309 55 483Q55 577 121 634T296 691Z" horiz-adv-x="595" unicode="S"/>
			<glyph d="M27 680H530Q540 680 540 670V559Q540 549 530 549H358Q352 549 352 543V10Q352 0 342 0H215Q205 0 205 10V543Q205 549 199 549H27Q17 549 17 559V670Q17 680 27 680Z" horiz-adv-x="557" unicode="T"/>
			<glyph d="M72 680H199Q209 680 209 670V246Q209 187 240 153T323 119Q374 119 405 153T436 246V670Q436 680 446 680H573Q583 680 583 670V250Q583 127 511 58T323 -11Q206 -11 134 58T62 250V670Q62 680 72 680Z" horiz-adv-x="645" unicode="U"/>
			<glyph d="M20 680H150Q160 680 163 670L299 224H302L434 670Q437 680 447 680H576Q587 680 584 669L368 10Q365 0 356 0H240Q230 0 227 10L11 669Q8 680 20 680Z" horiz-adv-x="595" unicode="V"/>
			<glyph d="M20 680H149Q159 680 161 670L259 243H261L377 670Q380 680 390 680H477Q486 680 489 670L609 243H611L705 670Q706 680 717 680H845Q855 680 853 670L678 10Q676 0 665 0H565Q555 0 552 10L434 433H432L313 10Q310 0 300 0H200Q191 0 188 10L12 670Q10 680 20 680Z" horiz-adv-x="865" unicode="W"/>
			<glyph d="M33 680H172Q182 680 188 670L296 486H299L407 670Q413 680 423 680H562Q567 680 568 676T568 668L378 351L582 12Q584 8 582 4T576 0H437Q426 0 420 10L299 217H296L174 10Q168 0 157 0H19Q14 0 12 4T13 12L216 351L27 668Q25 672 26 676T33 680Z" horiz-adv-x="595" unicode="X"/>
			<glyph d="M16 680H146Q157 680 161 670L284 422H287L410 670Q414 680 425 680H551Q556 680 558 677T558 670L357 271V10Q357 0 347 0H220Q210 0 210 10V271L9 670Q5 680 16 680Z" horiz-adv-x="568" unicode="Y"/>
			<glyph d="M61 680H496Q506 680 506 670V560L503 550L209 133V131H496Q506 131 506 121V10Q506 0 496 0H50Q40 0 40 10V120L43 130L336 547V549H61Q51 549 51 559V670Q51 680 61 680Z" horiz-adv-x="546" unicode="Z"/>
			<glyph d="M74 740H264Q274 740 274 730V646Q274 636 264 636H194Q188 636 188 630V26Q188 20 194 20H264Q274 20 274 10V-74Q274 -84 264 -84H74Q64 -84 64 -74V730Q64 740 74 740Z" horiz-adv-x="302" unicode="["/>
			<glyph d="M52 691H160Q170 691 173 681L391 -1Q394 -11 384 -11H275Q265 -11 262 -1L45 681Q42 691 52 691Z" horiz-adv-x="436" unicode="\"/>
			<glyph d="M38 740H228Q238 740 238 730V-74Q238 -84 228 -84H38Q28 -84 28 -74V10Q28 20 38 20H108Q114 20 114 26V630Q114 636 108 636H38Q28 636 28 646V730Q28 740 38 740Z" horiz-adv-x="302" unicode="]"/>
			<glyph d="M235 680H321Q330 680 335 670L506 263Q509 253 499 253H390Q380 253 376 263L279 511H277L179 263Q176 253 166 253H57Q47 253 50 263L221 670Q226 680 235 680Z" unicode="^"/>
			<glyph d="M0 -64H520V-152H0Z" horiz-adv-x="520" unicode="_"/>
			<glyph d="M123 701H239Q251 701 257 691L333 561Q338 551 328 551H236Q225 551 217 561L118 691Q115 694 117 697T123 701Z" horiz-adv-x="454" unicode="`"/>
			<glyph d="M253 495Q355 495 411 459T468 320V10Q468 0 458 0H347Q337 0 337 10V42H336Q295 -11 203 -11Q134 -11 88 26T42 137Q42 214 96 253T243 293H329Q335 293 335 299V317Q335 351 313 367T236 383Q170 383 128 352Q120 346 115 354L70 433Q65 442 73 447Q141 495 253 495ZM261 200Q175 200 175 145Q175 94 245 94Q335 94 335 161V194Q335 200 329 200Z" horiz-adv-x="528" unicode="a"/>
			<glyph d="M73 680H193Q203 680 203 670V439H204Q241 495 331 495Q391 495 434 465T495 379Q512 325 512 242Q512 159 495 105Q477 49 434 19T331 -11Q241 -11 204 45H203V10Q203 0 193 0H73Q63 0 63 10V670Q63 680 73 680ZM286 377Q228 377 212 325Q203 297 203 242Q203 188 212 159Q229 107 286 107Q344 107 361 159Q370 188 370 242Q370 297 361 325Q345 377 286 377Z" horiz-adv-x="551" unicode="b"/>
			<glyph d="M263 495Q322 495 370 470T446 404Q451 396 444 390L357 333Q348 327 342 335Q312 377 265 377Q206 377 190 325Q181 299 181 242Q181 185 190 159Q206 107 265 107Q312 107 342 149Q348 157 357 151L444 94Q451 88 446 80Q419 39 370 14T263 -11Q186 -11 130 24T54 126Q39 170 39 242Q39 315 54 358Q75 424 130 459T263 495Z" horiz-adv-x="481" unicode="c"/>
			<glyph d="M358 680H478Q488 680 488 670V10Q488 0 478 0H358Q348 0 348 10V45H347Q308 -11 220 -11Q160 -11 117 19T56 105Q39 159 39 242Q39 325 56 379Q74 435 117 465T220 495Q308 495 347 439H348V670Q348 680 358 680ZM265 377Q206 377 190 325Q181 297 181 242Q181 188 190 159Q207 107 265 107Q322 107 339 159Q348 188 348 242Q348 297 339 325Q323 377 265 377Z" horiz-adv-x="551" unicode="d"/>
			<glyph d="M263 495Q342 495 396 459T472 359Q488 308 488 210Q488 200 477 200H184Q178 200 178 194L184 167Q193 136 220 119T284 103Q349 103 395 146Q404 153 409 146L475 84Q483 77 476 70Q441 33 387 11T270 -11Q199 -11 139 21T56 127Q39 178 39 242Q39 310 55 358Q76 423 131 459T263 495ZM264 388Q235 388 213 373T183 335Q178 318 178 299Q178 293 184 293H344Q350 293 350 299Q350 318 345 335Q337 359 315 373T264 388Z" horiz-adv-x="527" unicode="e"/>
			<glyph d="M251 680H306Q316 680 316 670V576Q316 566 306 566H275Q251 566 235 558T220 514V490Q220 484 226 484H305Q315 484 315 474V391Q315 381 305 381H226Q220 381 220 375V10Q220 0 210 0H91Q81 0 81 10V375Q81 381 75 381H45Q35 381 35 391V474Q35 484 45 484H75Q81 484 81 490V513Q81 589 117 634T251 680Z" horiz-adv-x="339" unicode="f"/>
			<glyph d="M215 495Q304 495 339 439H340V474Q340 484 350 484H470Q480 484 480 474V52Q480 -191 239 -191Q186 -191 134 -170T56 -118Q50 -110 57 -103L128 -31Q136 -23 143 -31Q190 -73 243 -73Q340 -73 340 34V75H339Q304 19 215 19Q156 19 113 49T53 136Q37 188 37 257Q37 327 53 378Q71 435 113 465T215 495ZM259 377Q205 377 187 325Q179 296 179 257Q179 218 187 189Q205 137 259 137Q314 137 331 189Q340 216 340 257Q340 298 331 325Q314 377 259 377Z" horiz-adv-x="543" unicode="g"/>
			<glyph d="M73 680H193Q203 680 203 670V440H204Q244 495 329 495Q407 495 450 445T494 315V10Q494 0 484 0H364Q354 0 354 10V288Q354 328 334 352T279 376Q244 376 223 352T203 288V10Q203 0 193 0H73Q63 0 63 10V670Q63 680 73 680Z" horiz-adv-x="553" unicode="h"/>
			<glyph d="M73 680H193Q203 680 203 670V571Q203 561 193 561H73Q63 561 63 571V670Q63 680 73 680ZM73 484H193Q203 484 203 474V10Q203 0 193 0H73Q63 0 63 10V474Q63 484 73 484Z" horiz-adv-x="266" unicode="i"/>
			<glyph d="M73 680H193Q203 680 203 670V571Q203 561 193 561H73Q63 561 63 571V670Q63 680 73 680ZM73 484H193Q203 484 203 474V-5Q203 -180 22 -180H-11Q-21 -180 -21 -170V-72Q-21 -62 -11 -62H9Q31 -62 47 -53T63 -6V474Q63 484 73 484Z" horiz-adv-x="266" unicode="j"/>
			<glyph d="M73 680H193Q203 680 203 670V303L342 474Q351 484 361 484H489Q493 484 494 480T493 474L345 303L514 10Q516 7 514 3T509 0H376Q367 0 361 10L253 205L203 143V10Q203 0 193 0H73Q63 0 63 10V670Q63 680 73 680Z" horiz-adv-x="531" unicode="k"/>
			<glyph d="M71 680H191Q201 680 201 670V159Q201 113 243 113H264Q274 113 274 103V4Q274 -6 264 -6H211Q141 -6 101 26T61 148V670Q61 680 71 680Z" horiz-adv-x="304" unicode="l"/>
			<glyph d="M329 495Q416 495 459 434H460Q518 495 612 495Q695 495 740 446T785 315V10Q785 0 775 0H655Q645 0 645 10V288Q645 328 625 352T569 376Q534 376 514 352T494 288V10Q494 0 484 0H364Q354 0 354 10V288Q354 328 334 352T279 376Q244 376 223 352T203 288V10Q203 0 193 0H73Q63 0 63 10V474Q63 484 73 484H193Q203 484 203 474V440H204Q244 495 329 495Z" horiz-adv-x="844" unicode="m"/>
			<glyph d="M329 495Q407 495 450 445T494 315V10Q494 0 484 0H364Q354 0 354 10V288Q354 328 334 352T279 376Q244 376 223 352T203 288V10Q203 0 193 0H73Q63 0 63 10V474Q63 484 73 484H193Q203 484 203 474V440H204Q244 495 329 495Z" horiz-adv-x="553" unicode="n"/>
			<glyph d="M265 495Q342 495 398 459T475 359Q491 308 491 242Q491 176 475 125Q454 60 398 24T265 -11Q188 -11 132 24T55 125Q39 176 39 242Q39 308 55 359Q76 424 132 459T265 495ZM265 377Q207 377 190 325Q181 297 181 242Q181 187 190 159Q207 107 265 107Q323 107 340 159Q349 187 349 242Q349 297 340 325Q323 377 265 377Z" horiz-adv-x="530" unicode="o"/>
			<glyph d="M331 495Q391 495 434 465T495 379Q512 325 512 242Q512 159 495 105Q477 49 434 19T331 -11Q241 -11 204 45H203V-170Q203 -180 193 -180H73Q63 -180 63 -170V474Q63 484 73 484H193Q203 484 203 474V439H204Q241 495 331 495ZM286 377Q228 377 212 325Q203 297 203 242Q203 188 212 159Q229 107 286 107Q344 107 361 159Q370 188 370 242Q370 297 361 325Q345 377 286 377Z" horiz-adv-x="551" unicode="p"/>
			<glyph d="M220 495Q308 495 347 439H348V474Q348 484 358 484H478Q488 484 488 474V-170Q488 -180 478 -180H358Q348 -180 348 -170V45H347Q308 -11 220 -11Q160 -11 117 19T56 105Q39 159 39 242Q39 325 56 379Q74 435 117 465T220 495ZM265 377Q206 377 190 325Q181 297 181 242Q181 188 190 159Q207 107 265 107Q322 107 339 159Q348 188 348 242Q348 297 339 325Q323 377 265 377Z" horiz-adv-x="551" unicode="q"/>
			<glyph d="M330 495Q381 495 415 466Q422 460 418 452L362 350Q357 344 348 348Q312 371 278 370Q203 367 203 265V10Q203 0 193 0H73Q63 0 63 10V474Q63 484 73 484H193Q203 484 203 474V433H204Q241 495 330 495Z" horiz-adv-x="426" unicode="r"/>
			<glyph d="M253 495Q296 495 350 482T449 435Q456 428 450 420L394 351Q388 344 380 349Q319 388 249 388Q188 388 188 348Q188 331 202 321T255 308L308 302Q469 286 469 155Q468 80 411 34T253 -11Q119 -11 33 64Q26 71 33 78L98 151Q104 157 112 151Q181 98 260 98Q296 98 315 110T335 144Q335 162 320 172T266 186L212 192Q135 200 94 237T54 340Q54 412 107 453T253 495Z" horiz-adv-x="505" unicode="s"/>
			<glyph d="M83 630H202Q212 630 212 620V490Q212 484 218 484H280Q290 484 290 474V391Q290 381 280 381H218Q212 381 212 375V161Q212 141 219 127T256 113H280Q290 113 290 103V4Q290 -6 280 -6H227Q154 -6 113 27T73 155V375Q73 381 67 381H37Q27 381 27 391V474Q27 484 37 484H67Q73 484 73 490V620Q73 630 83 630Z" horiz-adv-x="331" unicode="t"/>
			<glyph d="M68 484H188Q198 484 198 474V196Q198 156 217 132T272 108Q307 108 326 132T346 196V474Q346 484 356 484H476Q486 484 486 474V10Q486 0 476 0H356Q346 0 346 10V45H345Q303 -11 221 -11Q143 -11 100 38T58 169V474Q58 484 68 484Z" horiz-adv-x="549" unicode="u"/>
			<glyph d="M23 484H149Q159 484 162 474L256 187H258L348 474Q351 484 361 484H485Q496 484 493 474L321 10Q318 0 309 0H199Q190 0 187 10L15 474Q12 484 23 484Z" horiz-adv-x="508" unicode="v"/>
			<glyph d="M25 484H148Q159 484 162 474L242 186H244L327 474Q330 484 341 484H425Q435 484 438 474L523 186H525L601 474Q604 484 614 484H737Q748 484 745 474L590 10Q587 0 578 0H478Q469 0 466 10L383 291H381L296 10Q293 0 284 0H185Q176 0 173 10L18 474Q15 484 25 484Z" horiz-adv-x="763" unicode="w"/>
			<glyph d="M37 484H167Q178 484 184 475L257 361H258L332 475Q340 484 348 484H477Q491 484 485 474L334 251L497 10Q503 0 489 0H359Q350 0 344 9L257 141H256L170 9Q163 0 154 0H25Q23 0 18 2T18 10L181 251L30 474Q28 478 30 481T37 484Z" horiz-adv-x="515" unicode="x"/>
			<glyph d="M21 484H149Q158 484 161 474L258 194H260L350 474Q353 484 362 484H486Q497 484 494 474L298 -41Q271 -111 235 -145T127 -180H93Q83 -180 83 -170V-72Q83 -62 93 -62H114Q163 -62 180 -12L193 24L13 474Q10 484 21 484Z" horiz-adv-x="507" unicode="y"/>
			<glyph d="M69 484H434Q444 484 444 474V379L441 369L213 117V115H434Q444 115 444 105V10Q444 0 434 0H56Q46 0 46 10V100L49 110L279 367V369H69Q59 369 59 379V474Q59 484 69 484Z" horiz-adv-x="490" unicode="z"/>
			<glyph d="M252 740H319Q329 740 329 730V646Q329 636 319 636H291Q249 636 249 593V456Q249 415 237 381T177 331V329Q206 319 227 295T249 203V63Q249 20 291 20H319Q329 20 329 10V-74Q329 -84 319 -84H252Q191 -84 158 -52T126 39V192Q126 273 57 273Q47 273 47 283V377Q47 387 57 387Q126 387 126 468V617Q126 677 158 708T252 740Z" horiz-adv-x="357" unicode="{"/>
			<glyph d="M118 740H217Q227 740 227 730V-74Q227 -84 217 -84H118Q108 -84 108 -74V730Q108 740 118 740Z" horiz-adv-x="335" unicode="|"/>
			<glyph d="M38 740H105Q166 740 198 708T231 617V468Q231 387 300 387Q310 387 310 377V283Q310 273 300 273Q231 273 231 192V39Q231 -21 198 -52T105 -84H38Q28 -84 28 -74V10Q28 20 38 20H66Q108 20 108 63V203Q108 244 120 278T180 329V331Q141 344 124 372T108 456V593Q108 636 66 636H38Q28 636 28 646V730Q28 740 38 740Z" horiz-adv-x="357" unicode="}"/>
			<glyph d="M190 360Q243 360 295 325Q333 300 361 300Q399 300 425 349Q430 358 440 351L507 310Q514 306 510 296Q489 249 450 220T364 191Q314 191 261 226Q222 251 197 251Q155 251 131 202Q126 193 116 200L49 241Q42 246 46 255Q67 302 106 331T190 360Z" unicode="~"/>
			<glyph d="" horiz-adv-x="236" unicode=" "/>
			<glyph d="M115 285H197Q207 285 207 275L231 -186Q231 -196 221 -196H91Q81 -196 81 -186L105 275Q105 285 115 285ZM96 484H216Q226 484 226 474V360Q226 350 216 350H96Q86 350 86 360V474Q86 484 96 484Z" horiz-adv-x="312" unicode="¡"/>
			<glyph d="M274 582H319Q329 582 329 572V494Q380 488 421 463T486 404Q491 395 484 390L397 333Q388 326 382 335Q359 368 329 374V110Q359 117 382 150Q388 158 397 151L484 94Q493 90 486 81Q463 44 422 20T329 -9V-88Q329 -98 319 -98H274Q264 -98 264 -88V-9Q198 -2 151 33T86 126Q71 170 71 242Q71 315 86 358Q105 417 151 452T264 494V572Q264 582 274 582ZM264 371Q232 359 222 325Q213 299 213 242Q213 184 222 160Q233 123 264 113Z" unicode="¢"/>
			<glyph d="M311 691Q384 691 431 653T491 554Q493 545 482 543L373 519Q364 519 362 528Q353 573 312 573Q288 573 275 556T262 512V374Q262 368 268 368H389Q399 368 399 358V279Q399 269 389 269H268Q262 269 262 263V220Q262 153 236 121V119H481Q491 119 491 109V10Q491 0 481 0H92Q82 0 82 10V107L87 119Q105 136 113 153T121 205V263Q121 269 115 269H74Q64 269 64 279V358Q64 368 74 368H115Q121 368 121 374V496Q121 589 172 640T311 691Z" unicode="£"/>
			<glyph d="M105 545Q112 552 119 545L178 485Q225 510 278 510Q332 510 377 485L437 545Q444 552 451 545L519 476Q526 469 519 462L459 402Q484 357 484 305Q484 253 460 208L520 148Q527 141 520 134L451 65Q444 58 437 65L377 125Q332 100 278 100Q223 100 178 125L119 66Q112 59 105 66L37 135Q30 142 37 149L96 208Q73 251 73 305Q73 356 97 402L37 462Q31 468 37 476ZM278 407Q236 407 208 377T180 305Q180 262 208 232T278 203Q320 203 348 232T377 305Q377 348 348 377T278 407Z" unicode="¤"/>
			<glyph d="M37 680H165Q174 680 179 670L279 412H282L380 670Q383 680 394 680H519Q523 680 525 677T526 670L378 343V341H470Q480 341 480 331V269Q480 259 470 259H354Q348 259 348 253V219Q348 213 354 213H470Q480 213 480 203V141Q480 131 470 131H354Q348 131 348 125V10Q348 0 338 0H218Q208 0 208 10V125Q208 131 202 131H86Q76 131 76 141V203Q76 213 86 213H202Q208 213 208 219V253Q208 259 202 259H86Q76 259 76 269V331Q76 341 86 341H178V343L30 670Q29 674 31 677T37 680Z" unicode="¥"/>
			<glyph d="M118 740H217Q227 740 227 730V398Q227 388 217 388H118Q108 388 108 398V730Q108 740 118 740ZM118 272H217Q227 272 227 262V-74Q227 -84 217 -84H118Q108 -84 108 -74V262Q108 272 118 272Z" horiz-adv-x="335" unicode="¦"/>
			<glyph d="M282 691Q356 691 409 653T467 547Q468 538 460 537L358 519Q354 518 351 520T348 527Q344 553 328 569T285 585Q257 585 240 569T224 529Q224 497 248 478T329 444Q485 402 485 253Q485 203 459 161T397 100V99Q424 83 444 54T464 -33Q464 -100 412 -145T276 -191Q191 -191 142 -151T88 -49Q86 -40 94 -38L198 -20Q206 -18 208 -27Q215 -85 273 -85Q303 -85 320 -69T338 -28Q338 -4 321 18T229 60Q73 101 73 251Q73 301 97 341T161 404V405Q97 447 97 530Q97 597 148 644T282 691ZM279 336Q243 336 221 313T200 252Q200 213 221 190T279 168Q315 168 336 190T358 252Q358 291 336 313T279 336Z" horiz-adv-x="558" unicode="§"/>
			<glyph d="M281 680H374Q384 680 384 670V571Q384 561 374 561H281Q271 561 271 571V670Q271 680 281 680ZM81 680H173Q183 680 183 670V571Q183 561 173 561H81Q71 561 71 571V670Q71 680 81 680Z" horiz-adv-x="454" unicode="¨"/>
			<glyph d="M405 691Q459 691 518 673T630 612T720 500T757 340Q757 286 739 226T678 114T565 25T405 -11Q351 -11 292 6T180 67T91 179T54 340Q54 394 72 453T133 564T245 654T405 691ZM405 611Q291 611 214 533T138 340Q138 224 214 146T405 69Q520 69 596 146T673 340Q673 456 596 533T405 611ZM415 537Q461 537 499 518T558 468Q564 460 555 454L490 412Q489 411 485 410T477 414Q452 446 417 446Q367 446 353 401Q347 385 347 340Q347 296 353 279Q367 235 417 235Q452 235 477 266Q482 275 490 269L555 226Q564 221 558 213Q538 182 499 163T415 144Q353 144 308 172T247 254Q237 286 237 340Q237 394 247 427Q265 480 309 508T415 537Z" horiz-adv-x="811" unicode="©"/>
			<glyph d="M172 688Q240 688 278 666T316 583V402Q316 392 306 392H229Q219 392 219 402V415H218Q192 387 136 387Q93 387 63 409T34 474Q34 520 68 545T163 570H212Q218 570 218 576V582Q218 610 160 610Q124 610 94 594Q85 589 80 597L50 648Q45 657 54 662Q98 688 172 688ZM170 507Q130 507 130 482Q130 458 165 458Q218 458 218 493V501Q218 507 212 507Z" horiz-adv-x="356" unicode="ª"/>
			<glyph d="M498 491T502 486V369Q502 359 492 349L410 268Q406 264 410 260L492 179Q502 169 502 159V42Q502 38 498 36T492 38L272 257Q265 264 272 271L492 490Q495 493 498 491ZM254 491T258 486V369Q258 359 248 349L166 268Q162 264 166 260L248 179Q258 169 258 159V42Q258 38 254 36T248 38L28 257Q21 264 28 271L248 490Q251 493 254 491Z" horiz-adv-x="563" unicode="«"/>
			<glyph d="M61 335H495Q505 335 505 325V94Q505 84 495 84H393Q383 84 383 94V211Q383 217 377 217H61Q51 217 51 227V325Q51 335 61 335Z" unicode="¬"/>
			<glyph d="M52 326H340Q350 326 350 316V214Q350 204 340 204H52Q42 204 42 214V316Q42 326 52 326Z" horiz-adv-x="392" unicode="­"/>
			<glyph d="M220 684Q301 684 356 629T412 493Q412 412 356 356T220 301Q139 301 83 356T28 493Q28 574 83 629T220 684ZM220 644Q156 644 113 601T71 493Q71 427 113 384T220 341Q284 341 326 384T369 493Q369 559 326 601T220 644ZM145 600H233Q271 600 292 582T313 532Q313 489 274 472L314 395Q318 388 309 388H264Q257 388 254 395L220 465H198Q194 465 194 460V395Q194 388 187 388H145Q138 388 138 395V593Q138 600 145 600ZM198 554Q194 554 194 550V514Q194 510 198 510H230Q258 510 258 532Q258 554 230 554Z" horiz-adv-x="440" unicode="®"/>
			<glyph d="M85 670H368Q378 670 378 660V585Q378 575 368 575H85Q75 575 75 585V660Q75 670 85 670Z" horiz-adv-x="454" unicode="¯"/>
			<glyph d="M219 692Q284 692 328 648T372 540Q372 475 328 431T219 387Q153 387 109 431T66 540Q66 605 109 648T219 692ZM219 612Q189 612 169 591T150 540Q150 509 169 488T219 467Q249 467 268 488T288 540Q288 571 268 591T219 612Z" horiz-adv-x="438" unicode="°"/>
			<glyph d="M227 622H329Q339 622 339 612V461Q339 455 345 455H495Q505 455 505 445V347Q505 337 495 337H345Q339 337 339 331V180Q339 170 329 170H227Q217 170 217 180V331Q217 337 211 337H61Q51 337 51 347V445Q51 455 61 455H211Q217 455 217 461V612Q217 622 227 622ZM61 118H495Q505 118 505 108V10Q505 0 495 0H61Q51 0 51 10V108Q51 118 61 118Z" unicode="±"/>
			<glyph d="M182 844Q241 844 280 809T319 721Q319 665 270 618L174 520V519H309Q319 519 319 509V440Q319 430 309 430H48Q38 430 38 440V506Q38 516 46 523L190 670Q215 697 215 720Q215 737 205 747T178 757Q143 757 137 719Q135 708 126 710L47 723Q37 725 39 734Q42 776 80 810T182 844Z" horiz-adv-x="358" unicode="²"/>
			<glyph d="M177 844Q241 844 278 811T316 728Q316 678 274 646V645Q294 636 309 611T325 551Q325 493 285 457T181 422Q124 422 83 447T34 519Q32 530 41 531L118 546Q127 547 131 539Q137 526 149 517T177 509Q197 509 209 520T221 551Q221 594 171 594H154Q144 594 144 604V670Q144 680 154 680H168Q212 680 212 718Q212 757 173 757Q145 757 133 732Q129 723 120 725L45 739Q36 740 38 750Q47 791 84 817T177 844Z" horiz-adv-x="358" unicode="³"/>
			<glyph d="M215 701H330Q334 701 336 697T335 691L236 561Q229 551 217 551H126Q115 551 120 561L197 691Q203 701 215 701Z" horiz-adv-x="454" unicode="´"/>
			<glyph d="M72 484H192Q202 484 202 474V197Q202 156 221 132T276 109Q313 109 335 134T358 206V474Q358 484 368 484H488Q498 484 498 474V147Q498 129 504 121T527 113Q537 113 537 103V9Q537 -6 526 -6H509Q459 -6 429 6T381 61H380Q364 32 338 12T257 -7Q244 -7 227 -2T203 8H202V-170Q202 -180 192 -180H72Q62 -180 62 -170V474Q62 484 72 484Z" horiz-adv-x="602" unicode="µ"/>
			<glyph d="M296 680H569Q579 680 579 670V-170Q579 -180 569 -180H473Q463 -180 463 -170V570Q463 576 457 576H388Q382 576 382 570V-170Q382 -180 372 -180H276Q266 -180 266 -170V238Q176 244 118 305T61 459Q61 555 124 617T296 680Z" horiz-adv-x="657" unicode="¶"/>
			<glyph d="M70 334H189Q199 334 199 324V205Q199 195 189 195H70Q60 195 60 205V324Q60 334 70 334Z" horiz-adv-x="259" unicode="·"/>
			<glyph d="M220 10H304Q314 10 311 0L265 -150Q262 -160 249 -160H152Q142 -160 145 -150L206 0Q210 10 220 10Z" horiz-adv-x="454" unicode="¸"/>
			<glyph d="M163 836H247Q257 836 257 826V440Q257 430 247 430H161Q151 430 151 440V722H149L85 682Q82 680 78 682T75 689V773Q75 783 84 788L146 829Q156 836 163 836Z" horiz-adv-x="358" unicode="¹"/>
			<glyph d="M186 688Q299 688 328 600Q337 575 337 536Q337 498 328 472Q299 384 186 384Q73 384 44 472Q35 498 35 536Q35 575 44 600Q73 688 186 688ZM186 604Q154 604 144 576Q139 563 139 536Q139 509 144 496Q154 468 186 468Q218 468 228 496Q233 509 233 536Q233 563 228 576Q218 604 186 604Z" horiz-adv-x="372" unicode="º"/>
			<glyph d="M308 491T315 490L535 271Q542 264 535 257L315 38Q312 35 308 36T305 42V159Q305 169 315 179L397 260Q401 264 397 268L315 349Q305 359 305 369V486Q305 490 308 491ZM64 491T71 490L292 271Q299 264 292 257L71 38Q68 35 64 36T61 42V159Q61 169 71 179L153 260Q157 264 153 268L71 349Q61 359 61 369V486Q61 490 64 491Z" horiz-adv-x="563" unicode="»"/>
			<glyph d="M175 680H259Q269 680 269 670V284Q269 274 259 274H173Q163 274 163 284V566H161L97 526Q94 524 90 526T87 533V617Q87 627 96 632L158 673Q168 680 175 680ZM610 406H701Q712 406 707 396L590 145V144H650Q656 144 656 150V219Q656 229 666 229H745Q755 229 755 219V150Q755 144 761 144H776Q786 144 786 134V66Q786 56 776 56H761Q755 56 755 50V10Q755 0 745 0H666Q656 0 656 10V50Q656 56 650 56H486Q476 56 476 66V135L481 152L596 396Q601 406 610 406ZM585 691H669Q673 691 674 688T674 681L279 -1Q273 -11 263 -11H179Q175 -11 173 -8T174 -1L569 681Q575 691 585 691Z" horiz-adv-x="873" unicode="¼"/>
			<glyph d="M175 680H259Q269 680 269 670V284Q269 274 259 274H173Q163 274 163 284V566H161L97 526Q94 524 90 526T87 533V617Q87 627 96 632L158 673Q168 680 175 680ZM682 414Q741 414 780 379T819 291Q819 235 770 188L674 90V89H809Q819 89 819 79V10Q819 0 809 0H548Q538 0 538 10V76Q538 86 546 93L690 240Q715 267 715 290Q715 307 705 317T678 327Q643 327 637 289Q635 278 626 280L547 293Q537 295 539 304Q542 346 580 380T682 414ZM585 691H669Q673 691 674 688T674 681L279 -1Q273 -11 263 -11H179Q175 -11 173 -8T174 -1L569 681Q575 691 585 691Z" horiz-adv-x="907" unicode="½"/>
			<glyph d="M677 406H768Q779 406 774 396L657 145V144H717Q723 144 723 150V219Q723 229 733 229H812Q822 229 822 219V150Q822 144 828 144H843Q853 144 853 134V66Q853 56 843 56H828Q822 56 822 50V10Q822 0 812 0H733Q723 0 723 10V50Q723 56 717 56H553Q543 56 543 66V135L548 152L663 396Q668 406 677 406ZM231 688Q295 688 332 655T370 572Q370 522 328 490V489Q348 480 363 455T379 395Q379 337 339 301T235 266Q178 266 137 291T88 363Q86 374 95 375L172 390Q181 391 185 383Q191 370 203 361T231 353Q251 353 263 364T275 395Q275 438 225 438H208Q198 438 198 448V514Q198 524 208 524H222Q266 524 266 562Q266 601 227 601Q199 601 187 576Q183 567 174 569L99 583Q90 584 92 594Q101 635 138 661T231 688ZM654 691H738Q742 691 743 688T743 681L348 -1Q342 -11 332 -11H248Q244 -11 242 -8T243 -1L638 681Q644 691 654 691Z" horiz-adv-x="941" unicode="¾"/>
			<glyph d="M189 285H305Q315 285 315 275V233Q315 185 286 149L216 58Q178 13 178 -22Q178 -51 196 -69T244 -88Q305 -88 319 -18Q322 -8 332 -9L440 -25Q450 -26 448 -37Q437 -115 381 -161T240 -207Q152 -207 95 -155T39 -27Q39 41 92 103L159 191Q179 215 179 251V275Q179 285 189 285ZM187 484H307Q317 484 317 474V360Q317 350 307 350H187Q177 350 177 360V474Q177 484 187 484Z" horiz-adv-x="473" unicode="¿"/>
			<glyph d="M261 680H387Q397 680 400 670L630 10Q633 0 623 0H493Q483 0 480 10L441 129H203L165 10Q162 0 152 0H21Q11 0 14 10L248 670Q251 680 261 680ZM321 492L244 254H401L324 492ZM140 889H260Q271 889 279 879L374 764Q377 760 375 757T370 754H277Q267 754 258 763L135 879Q132 882 134 885T140 889Z" horiz-adv-x="644" unicode="À"/>
			<glyph d="M261 680H387Q397 680 400 670L630 10Q633 0 623 0H493Q483 0 480 10L441 129H203L165 10Q162 0 152 0H21Q11 0 14 10L248 670Q251 680 261 680ZM321 492L244 254H401L324 492ZM386 889H506Q510 889 512 885T511 879L388 763Q379 754 369 754H276Q272 754 270 757T272 764L367 879Q375 889 386 889Z" horiz-adv-x="644" unicode="Á"/>
			<glyph d="M261 680H387Q397 680 400 670L630 10Q633 0 623 0H493Q483 0 480 10L441 129H203L165 10Q162 0 152 0H21Q11 0 14 10L248 670Q251 680 261 680ZM321 492L244 254H401L324 492ZM284 898H359Q370 898 377 888L481 757Q484 753 482 750T477 747H397Q385 747 375 757L322 811H320L268 757Q258 747 246 747H166Q162 747 160 750T162 757L265 888Q272 898 284 898Z" horiz-adv-x="644" unicode="Â"/>
			<glyph d="M261 680H387Q397 680 400 670L630 10Q633 0 623 0H493Q483 0 480 10L441 129H203L165 10Q162 0 152 0H21Q11 0 14 10L248 670Q251 680 261 680ZM321 492L244 254H401L324 492ZM258 886Q291 886 332 865Q364 847 391 847Q422 847 461 878Q464 881 467 880T471 876V804Q471 792 462 783Q429 748 384 748Q349 748 310 769Q279 787 250 787Q219 787 181 756Q178 753 175 754T172 758V830Q172 842 180 851Q215 886 258 886Z" horiz-adv-x="644" unicode="Ã"/>
			<glyph d="M261 680H387Q397 680 400 670L630 10Q633 0 623 0H493Q483 0 480 10L441 129H203L165 10Q162 0 152 0H21Q11 0 14 10L248 670Q251 680 261 680ZM321 492L244 254H401L324 492ZM378 878H468Q478 878 478 868V770Q478 760 468 760H378Q368 760 368 770V868Q368 878 378 878ZM175 878H265Q275 878 275 868V770Q275 760 265 760H175Q165 760 165 770V868Q165 878 175 878Z" horiz-adv-x="644" unicode="Ä"/>
			<glyph d="M261 680H387Q397 680 400 670L630 10Q633 0 623 0H493Q483 0 480 10L441 129H203L165 10Q162 0 152 0H21Q11 0 14 10L248 670Q251 680 261 680ZM321 492L244 254H401L324 492ZM322 925Q367 925 398 894T429 819Q429 774 398 743T322 712Q277 712 246 743T215 819Q215 864 246 894T322 925ZM322 867Q302 867 288 853T275 819Q275 798 288 784T322 771Q341 771 354 784T368 819Q368 839 354 853T322 867Z" horiz-adv-x="644" unicode="Å"/>
			<glyph d="M346 680H875Q885 680 885 670V563Q885 553 875 553H582Q576 553 576 547V412Q576 406 582 406H826Q836 406 836 396V290Q836 280 826 280H582Q576 280 576 274V133Q576 127 582 127H875Q885 127 885 117V10Q885 0 875 0H439Q429 0 429 10V123Q429 129 423 129H231L176 10Q172 0 162 0H21Q10 0 15 10L332 670Q337 680 346 680ZM426 553L288 254H423Q429 254 429 260V553Z" horiz-adv-x="929" unicode="Æ"/>
			<glyph d="M308 691Q393 691 454 651T545 540Q550 531 540 528L431 479Q422 474 417 484Q384 561 309 561Q231 561 207 486Q196 452 196 340Q196 228 207 194Q231 119 309 119Q384 119 417 196Q422 206 431 201L540 152Q550 149 545 140Q521 81 472 42T358 -7L314 -150Q311 -160 298 -160H201Q191 -160 194 -150L252 -6Q111 20 66 156Q58 181 52 214T47 340Q47 388 48 433T66 524Q93 606 155 648T308 691Z" horiz-adv-x="575" unicode="Ç"/>
			<glyph d="M75 680H511Q521 680 521 670V563Q521 553 511 553H218Q212 553 212 547V412Q212 406 218 406H462Q472 406 472 396V290Q472 280 462 280H218Q212 280 212 274V133Q212 127 218 127H511Q521 127 521 117V10Q521 0 511 0H75Q65 0 65 10V670Q65 680 75 680ZM130 889H250Q261 889 269 879L364 764Q367 760 365 757T360 754H267Q257 754 248 763L125 879Q122 882 124 885T130 889Z" horiz-adv-x="565" unicode="È"/>
			<glyph d="M75 680H511Q521 680 521 670V563Q521 553 511 553H218Q212 553 212 547V412Q212 406 218 406H462Q472 406 472 396V290Q472 280 462 280H218Q212 280 212 274V133Q212 127 218 127H511Q521 127 521 117V10Q521 0 511 0H75Q65 0 65 10V670Q65 680 75 680ZM324 889H444Q448 889 450 885T449 879L326 763Q317 754 307 754H214Q210 754 208 757T210 764L305 879Q313 889 324 889Z" horiz-adv-x="565" unicode="É"/>
			<glyph d="M75 680H511Q521 680 521 670V563Q521 553 511 553H218Q212 553 212 547V412Q212 406 218 406H462Q472 406 472 396V290Q472 280 462 280H218Q212 280 212 274V133Q212 127 218 127H511Q521 127 521 117V10Q521 0 511 0H75Q65 0 65 10V670Q65 680 75 680ZM256 898H331Q342 898 349 888L453 757Q456 753 454 750T449 747H369Q357 747 347 757L294 811H292L240 757Q230 747 218 747H138Q134 747 132 750T134 757L237 888Q244 898 256 898Z" horiz-adv-x="565" unicode="Ê"/>
			<glyph d="M75 680H511Q521 680 521 670V563Q521 553 511 553H218Q212 553 212 547V412Q212 406 218 406H462Q472 406 472 396V290Q472 280 462 280H218Q212 280 212 274V133Q212 127 218 127H511Q521 127 521 117V10Q521 0 511 0H75Q65 0 65 10V670Q65 680 75 680ZM349 878H439Q449 878 449 868V770Q449 760 439 760H349Q339 760 339 770V868Q339 878 349 878ZM146 878H236Q246 878 246 868V770Q246 760 236 760H146Q136 760 136 770V868Q136 878 146 878Z" horiz-adv-x="565" unicode="Ë"/>
			<glyph d="M75 680H202Q212 680 212 670V10Q212 0 202 0H75Q65 0 65 10V670Q65 680 75 680ZM-39 889H81Q92 889 100 879L195 764Q198 760 196 757T191 754H98Q88 754 79 763L-44 879Q-47 882 -45 885T-39 889Z" horiz-adv-x="277" unicode="Ì"/>
			<glyph d="M75 680H202Q212 680 212 670V10Q212 0 202 0H75Q65 0 65 10V670Q65 680 75 680ZM200 889H320Q324 889 326 885T325 879L202 763Q193 754 183 754H90Q86 754 84 757T86 764L181 879Q189 889 200 889Z" horiz-adv-x="277" unicode="Í"/>
			<glyph d="M75 680H202Q212 680 212 670V10Q212 0 202 0H75Q65 0 65 10V670Q65 680 75 680ZM101 898H176Q187 898 194 888L298 757Q301 753 299 750T294 747H214Q202 747 192 757L139 811H137L85 757Q75 747 63 747H-17Q-21 747 -22 750T-21 757L82 888Q89 898 101 898Z" horiz-adv-x="277" unicode="Î"/>
			<glyph d="M75 680H202Q212 680 212 670V10Q212 0 202 0H75Q65 0 65 10V670Q65 680 75 680ZM195 878H285Q295 878 295 868V770Q295 760 285 760H195Q185 760 185 770V868Q185 878 195 878ZM-8 878H82Q92 878 92 868V770Q92 760 82 760H-8Q-18 760 -18 770V868Q-18 878 -8 878Z" horiz-adv-x="277" unicode="Ï"/>
			<glyph d="M75 680H328Q418 680 478 641T563 527Q581 470 581 340Q581 210 563 153Q542 87 485 43T328 0H75Q65 0 65 10V283Q65 289 59 289H34Q24 289 24 299V387Q24 397 34 397H59Q65 397 65 403V670Q65 680 75 680ZM218 549Q212 549 212 543V403Q212 397 218 397H301Q311 397 311 387V299Q311 289 301 289H218Q212 289 212 283V137Q212 131 218 131H295Q398 131 421 206Q432 237 432 340Q432 443 421 474Q398 549 295 549Z" horiz-adv-x="628" unicode="Ð"/>
			<glyph d="M75 680H195Q206 680 212 670L452 242H457V670Q457 680 467 680H580Q590 680 590 670V10Q590 0 580 0H461Q450 0 444 10L203 437H198V10Q198 0 188 0H75Q65 0 65 10V670Q65 680 75 680ZM264 886Q297 886 338 865Q370 847 397 847Q428 847 467 878Q470 881 473 880T477 876V804Q477 792 468 783Q435 748 390 748Q355 748 316 769Q285 787 256 787Q225 787 187 756Q184 753 181 754T178 758V830Q178 842 186 851Q221 886 264 886Z" horiz-adv-x="655" unicode="Ñ"/>
			<glyph d="M314 691Q405 691 470 648T562 526Q570 500 575 465T581 340Q581 284 578 240T562 154Q536 74 470 31T314 -11Q223 -11 157 31T66 154Q58 180 52 214T47 340Q47 396 49 440T66 526Q92 606 157 648T314 691ZM314 561Q231 561 207 486Q196 453 196 340Q196 227 207 194Q231 119 314 119Q397 119 421 194Q432 227 432 340Q432 453 421 486Q397 561 314 561ZM146 889H266Q277 889 285 879L380 764Q383 760 381 757T376 754H283Q273 754 264 763L141 879Q138 882 140 885T146 889Z" horiz-adv-x="628" unicode="Ò"/>
			<glyph d="M314 691Q405 691 470 648T562 526Q570 500 575 465T581 340Q581 284 578 240T562 154Q536 74 470 31T314 -11Q223 -11 157 31T66 154Q58 180 52 214T47 340Q47 396 49 440T66 526Q92 606 157 648T314 691ZM314 561Q231 561 207 486Q196 453 196 340Q196 227 207 194Q231 119 314 119Q397 119 421 194Q432 227 432 340Q432 453 421 486Q397 561 314 561ZM361 889H481Q485 889 487 885T486 879L363 763Q354 754 344 754H251Q247 754 245 757T247 764L342 879Q350 889 361 889Z" horiz-adv-x="628" unicode="Ó"/>
			<glyph d="M314 691Q405 691 470 648T562 526Q570 500 575 465T581 340Q581 284 578 240T562 154Q536 74 470 31T314 -11Q223 -11 157 31T66 154Q58 180 52 214T47 340Q47 396 49 440T66 526Q92 606 157 648T314 691ZM314 561Q231 561 207 486Q196 453 196 340Q196 227 207 194Q231 119 314 119Q397 119 421 194Q432 227 432 340Q432 453 421 486Q397 561 314 561ZM276 898H351Q362 898 369 888L473 757Q476 753 474 750T469 747H389Q377 747 367 757L314 811H312L260 757Q250 747 238 747H158Q154 747 152 750T154 757L257 888Q264 898 276 898Z" horiz-adv-x="628" unicode="Ô"/>
			<glyph d="M314 691Q405 691 470 648T562 526Q570 500 575 465T581 340Q581 284 578 240T562 154Q536 74 470 31T314 -11Q223 -11 157 31T66 154Q58 180 52 214T47 340Q47 396 49 440T66 526Q92 606 157 648T314 691ZM314 561Q231 561 207 486Q196 453 196 340Q196 227 207 194Q231 119 314 119Q397 119 421 194Q432 227 432 340Q432 453 421 486Q397 561 314 561ZM250 886Q283 886 324 865Q356 847 383 847Q414 847 453 878Q456 881 459 880T463 876V804Q463 792 454 783Q421 748 376 748Q341 748 302 769Q271 787 242 787Q211 787 173 756Q170 753 167 754T164 758V830Q164 842 172 851Q207 886 250 886Z" horiz-adv-x="628" unicode="Õ"/>
			<glyph d="M314 691Q405 691 470 648T562 526Q570 500 575 465T581 340Q581 284 578 240T562 154Q536 74 470 31T314 -11Q223 -11 157 31T66 154Q58 180 52 214T47 340Q47 396 49 440T66 526Q92 606 157 648T314 691ZM314 561Q231 561 207 486Q196 453 196 340Q196 227 207 194Q231 119 314 119Q397 119 421 194Q432 227 432 340Q432 453 421 486Q397 561 314 561ZM370 878H460Q470 878 470 868V770Q470 760 460 760H370Q360 760 360 770V868Q360 878 370 878ZM167 878H257Q267 878 267 868V770Q267 760 257 760H167Q157 760 157 770V868Q157 878 167 878Z" horiz-adv-x="628" unicode="Ö"/>
			<glyph d="M143 479Q150 486 157 479L274 362Q279 358 283 362L399 479Q406 486 413 479L480 412Q486 404 480 398L364 281Q360 277 364 272L480 155Q487 148 480 141L413 74Q406 65 399 74L282 190Q278 194 274 190L156 74Q149 65 142 74L75 141Q68 148 75 155L192 272Q196 276 192 280L75 397Q68 404 75 411Z" unicode="×"/>
			<glyph d="M508 710H578Q582 710 583 707T583 700L522 602Q546 572 562 526Q570 500 575 465T581 340Q581 284 578 240T562 154Q536 74 470 31T314 -11Q226 -11 165 26L135 -21Q130 -30 120 -30H50Q46 -30 44 -27T45 -20L106 77Q78 113 66 154Q58 180 52 214T47 340Q47 396 49 440T66 526Q92 606 157 648T314 691Q401 691 463 653L493 701Q498 710 508 710ZM314 562Q231 562 205 486Q194 450 194 340Q194 259 199 221L388 538Q358 562 314 562ZM429 457L240 141Q269 118 314 118Q397 118 423 194Q434 230 434 340Q434 419 429 457Z" horiz-adv-x="628" unicode="Ø"/>
			<glyph d="M72 680H199Q209 680 209 670V246Q209 187 240 153T323 119Q374 119 405 153T436 246V670Q436 680 446 680H573Q583 680 583 670V250Q583 127 511 58T323 -11Q206 -11 134 58T62 250V670Q62 680 72 680ZM153 889H273Q284 889 292 879L387 764Q390 760 388 757T383 754H290Q280 754 271 763L148 879Q145 882 147 885T153 889Z" horiz-adv-x="645" unicode="Ù"/>
			<glyph d="M72 680H199Q209 680 209 670V246Q209 187 240 153T323 119Q374 119 405 153T436 246V670Q436 680 446 680H573Q583 680 583 670V250Q583 127 511 58T323 -11Q206 -11 134 58T62 250V670Q62 680 72 680ZM374 889H494Q498 889 500 885T499 879L376 763Q367 754 357 754H264Q260 754 258 757T260 764L355 879Q363 889 374 889Z" horiz-adv-x="645" unicode="Ú"/>
			<glyph d="M72 680H199Q209 680 209 670V246Q209 187 240 153T323 119Q374 119 405 153T436 246V670Q436 680 446 680H573Q583 680 583 670V250Q583 127 511 58T323 -11Q206 -11 134 58T62 250V670Q62 680 72 680ZM284 898H359Q370 898 377 888L481 757Q484 753 482 750T477 747H397Q385 747 375 757L322 811H320L268 757Q258 747 246 747H166Q162 747 160 750T162 757L265 888Q272 898 284 898Z" horiz-adv-x="645" unicode="Û"/>
			<glyph d="M72 680H199Q209 680 209 670V246Q209 187 240 153T323 119Q374 119 405 153T436 246V670Q436 680 446 680H573Q583 680 583 670V250Q583 127 511 58T323 -11Q206 -11 134 58T62 250V670Q62 680 72 680ZM379 878H469Q479 878 479 868V770Q479 760 469 760H379Q369 760 369 770V868Q369 878 379 878ZM176 878H266Q276 878 276 868V770Q276 760 266 760H176Q166 760 166 770V868Q166 878 176 878Z" horiz-adv-x="645" unicode="Ü"/>
			<glyph d="M16 680H146Q157 680 161 670L284 422H287L410 670Q414 680 425 680H551Q556 680 558 677T558 670L357 271V10Q357 0 347 0H220Q210 0 210 10V271L9 670Q5 680 16 680ZM342 889H462Q466 889 468 885T467 879L344 763Q335 754 325 754H232Q228 754 226 757T228 764L323 879Q331 889 342 889Z" horiz-adv-x="568" unicode="Ý"/>
			<glyph d="M75 680H202Q212 680 212 670V578Q212 572 218 572H339Q448 572 512 511T576 353Q576 256 512 195T339 135H218Q212 135 212 129V10Q212 0 202 0H75Q65 0 65 10V670Q65 680 75 680ZM218 445Q212 445 212 439V268Q212 262 218 262H330Q375 262 402 287T429 353Q429 394 402 419T330 445Z" horiz-adv-x="605" unicode="Þ"/>
			<glyph d="M289 691Q394 691 451 647T509 524Q509 451 453 412V410Q494 387 507 343Q519 306 519 225Q519 134 506 95Q474 -4 321 -4H286Q276 -4 276 6V101Q276 111 286 111H311Q362 111 375 150Q379 162 379 226Q379 291 374 306Q360 350 301 350H287Q277 350 277 360V454Q277 464 287 464H311Q370 464 370 519Q370 576 291 576Q245 576 224 554T203 488V10Q203 0 193 0H73Q63 0 63 10V485Q63 691 289 691Z" horiz-adv-x="562" unicode="ß"/>
			<glyph d="M253 495Q355 495 411 459T468 320V10Q468 0 458 0H347Q337 0 337 10V42H336Q295 -11 203 -11Q134 -11 88 26T42 137Q42 214 96 253T243 293H329Q335 293 335 299V317Q335 351 313 367T236 383Q170 383 128 352Q120 346 115 354L70 433Q65 442 73 447Q141 495 253 495ZM261 200Q175 200 175 145Q175 94 245 94Q335 94 335 161V194Q335 200 329 200ZM137 701H253Q265 701 271 691L347 561Q352 551 342 551H250Q239 551 231 561L132 691Q129 694 131 697T137 701Z" horiz-adv-x="528" unicode="à"/>
			<glyph d="M253 495Q355 495 411 459T468 320V10Q468 0 458 0H347Q337 0 337 10V42H336Q295 -11 203 -11Q134 -11 88 26T42 137Q42 214 96 253T243 293H329Q335 293 335 299V317Q335 351 313 367T236 383Q170 383 128 352Q120 346 115 354L70 433Q65 442 73 447Q141 495 253 495ZM261 200Q175 200 175 145Q175 94 245 94Q335 94 335 161V194Q335 200 329 200ZM296 701H411Q415 701 417 697T416 691L317 561Q310 551 298 551H207Q196 551 201 561L278 691Q284 701 296 701Z" horiz-adv-x="528" unicode="á"/>
			<glyph d="M253 495Q355 495 411 459T468 320V10Q468 0 458 0H347Q337 0 337 10V42H336Q295 -11 203 -11Q134 -11 88 26T42 137Q42 214 96 253T243 293H329Q335 293 335 299V317Q335 351 313 367T236 383Q170 383 128 352Q120 346 115 354L70 433Q65 442 73 447Q141 495 253 495ZM261 200Q175 200 175 145Q175 94 245 94Q335 94 335 161V194Q335 200 329 200ZM225 701H300Q312 701 319 691L422 560Q425 556 423 553T418 550H338Q326 550 316 560L264 614H262L209 560Q199 550 187 550H108Q104 550 102 553T103 560L207 691Q214 701 225 701Z" horiz-adv-x="528" unicode="â"/>
			<glyph d="M253 495Q355 495 411 459T468 320V10Q468 0 458 0H347Q337 0 337 10V42H336Q295 -11 203 -11Q134 -11 88 26T42 137Q42 214 96 253T243 293H329Q335 293 335 299V317Q335 351 313 367T236 383Q170 383 128 352Q120 346 115 354L70 433Q65 442 73 447Q141 495 253 495ZM261 200Q175 200 175 145Q175 94 245 94Q335 94 335 161V194Q335 200 329 200ZM199 691Q233 691 274 669Q308 651 332 651Q365 651 403 683Q406 686 409 685T413 680V608Q413 597 404 588Q370 552 326 552Q294 552 252 574Q219 592 194 592Q160 592 123 560Q120 557 117 558T114 563V635Q114 646 122 655Q158 691 199 691Z" horiz-adv-x="528" unicode="ã"/>
			<glyph d="M253 495Q355 495 411 459T468 320V10Q468 0 458 0H347Q337 0 337 10V42H336Q295 -11 203 -11Q134 -11 88 26T42 137Q42 214 96 253T243 293H329Q335 293 335 299V317Q335 351 313 367T236 383Q170 383 128 352Q120 346 115 354L70 433Q65 442 73 447Q141 495 253 495ZM261 200Q175 200 175 145Q175 94 245 94Q335 94 335 161V194Q335 200 329 200ZM317 680H410Q420 680 420 670V571Q420 561 410 561H317Q307 561 307 571V670Q307 680 317 680ZM117 680H209Q219 680 219 670V571Q219 561 209 561H117Q107 561 107 571V670Q107 680 117 680Z" horiz-adv-x="528" unicode="ä"/>
			<glyph d="M253 495Q355 495 411 459T468 320V10Q468 0 458 0H347Q337 0 337 10V42H336Q295 -11 203 -11Q134 -11 88 26T42 137Q42 214 96 253T243 293H329Q335 293 335 299V317Q335 351 313 367T236 383Q170 383 128 352Q120 346 115 354L70 433Q65 442 73 447Q141 495 253 495ZM261 200Q175 200 175 145Q175 94 245 94Q335 94 335 161V194Q335 200 329 200ZM266 737Q311 737 342 706T373 630Q373 585 342 554T266 524Q221 524 190 554T159 630Q159 676 190 706T266 737ZM266 679Q246 679 232 665T219 630Q219 610 232 596T266 582Q285 582 298 596T312 630Q312 651 298 665T266 679Z" horiz-adv-x="528" unicode="å"/>
			<glyph d="M253 495Q365 495 415 450H417Q469 495 552 495Q631 495 685 459T761 359Q777 312 777 210Q777 200 766 200H473Q467 200 467 194L473 167Q494 103 574 103Q638 103 684 146Q692 152 698 146L764 84Q772 77 765 70Q730 33 676 11T560 -11Q521 -11 474 4T394 60H393Q347 -11 212 -11Q135 -11 88 26T42 137Q42 214 96 253T243 293H329Q335 293 335 299V318Q335 352 313 367T236 383Q170 383 128 352Q120 346 115 354L70 433Q65 442 73 447Q141 495 253 495ZM553 388Q530 388 506 377T472 335Q467 320 467 299Q467 293 473 293H633Q639 293 639 299Q639 318 634 335Q626 359 604 373T553 388ZM261 200Q175 200 175 145Q175 94 245 94Q335 94 335 161V194Q335 200 329 200Z" horiz-adv-x="816" unicode="æ"/>
			<glyph d="M263 495Q322 495 370 470T446 404Q451 396 444 390L357 333Q348 327 342 335Q312 377 265 377Q206 377 190 325Q181 299 181 242Q181 185 190 159Q206 107 265 107Q312 107 342 149Q348 157 357 151L444 94Q451 88 446 80Q425 48 387 24T308 -7L264 -150Q261 -160 248 -160H151Q141 -160 144 -150L202 -6Q86 24 54 126Q39 170 39 242Q39 315 54 358Q75 424 130 459T263 495Z" horiz-adv-x="481" unicode="ç"/>
			<glyph d="M263 495Q342 495 396 459T472 359Q488 308 488 210Q488 200 477 200H184Q178 200 178 194L184 167Q193 136 220 119T284 103Q349 103 395 146Q404 153 409 146L475 84Q483 77 476 70Q441 33 387 11T270 -11Q199 -11 139 21T56 127Q39 178 39 242Q39 310 55 358Q76 423 131 459T263 495ZM264 388Q235 388 213 373T183 335Q178 318 178 299Q178 293 184 293H344Q350 293 350 299Q350 318 345 335Q337 359 315 373T264 388ZM123 701H239Q251 701 257 691L333 561Q338 551 328 551H236Q225 551 217 561L118 691Q115 694 117 697T123 701Z" horiz-adv-x="527" unicode="è"/>
			<glyph d="M263 495Q342 495 396 459T472 359Q488 308 488 210Q488 200 477 200H184Q178 200 178 194L184 167Q193 136 220 119T284 103Q349 103 395 146Q404 153 409 146L475 84Q483 77 476 70Q441 33 387 11T270 -11Q199 -11 139 21T56 127Q39 178 39 242Q39 310 55 358Q76 423 131 459T263 495ZM264 388Q235 388 213 373T183 335Q178 318 178 299Q178 293 184 293H344Q350 293 350 299Q350 318 345 335Q337 359 315 373T264 388ZM293 701H408Q412 701 414 697T413 691L314 561Q307 551 295 551H204Q193 551 198 561L275 691Q281 701 293 701Z" horiz-adv-x="527" unicode="é"/>
			<glyph d="M263 495Q342 495 396 459T472 359Q488 308 488 210Q488 200 477 200H184Q178 200 178 194L184 167Q193 136 220 119T284 103Q349 103 395 146Q404 153 409 146L475 84Q483 77 476 70Q441 33 387 11T270 -11Q199 -11 139 21T56 127Q39 178 39 242Q39 310 55 358Q76 423 131 459T263 495ZM264 388Q235 388 213 373T183 335Q178 318 178 299Q178 293 184 293H344Q350 293 350 299Q350 318 345 335Q337 359 315 373T264 388ZM225 701H300Q312 701 319 691L422 560Q425 556 423 553T418 550H338Q326 550 316 560L264 614H262L209 560Q199 550 187 550H108Q104 550 102 553T103 560L207 691Q214 701 225 701Z" horiz-adv-x="527" unicode="ê"/>
			<glyph d="M263 495Q342 495 396 459T472 359Q488 308 488 210Q488 200 477 200H184Q178 200 178 194L184 167Q193 136 220 119T284 103Q349 103 395 146Q404 153 409 146L475 84Q483 77 476 70Q441 33 387 11T270 -11Q199 -11 139 21T56 127Q39 178 39 242Q39 310 55 358Q76 423 131 459T263 495ZM264 388Q235 388 213 373T183 335Q178 318 178 299Q178 293 184 293H344Q350 293 350 299Q350 318 345 335Q337 359 315 373T264 388ZM316 680H409Q419 680 419 670V571Q419 561 409 561H316Q306 561 306 571V670Q306 680 316 680ZM116 680H208Q218 680 218 670V571Q218 561 208 561H116Q106 561 106 571V670Q106 680 116 680Z" horiz-adv-x="527" unicode="ë"/>
			<glyph d="M73 484H193Q203 484 203 474V10Q203 0 193 0H73Q63 0 63 10V474Q63 484 73 484ZM-22 701H94Q106 701 112 691L188 561Q193 551 183 551H91Q80 551 72 561L-27 691Q-30 694 -28 697T-22 701Z" horiz-adv-x="266" unicode="ì"/>
			<glyph d="M73 484H193Q203 484 203 474V10Q203 0 193 0H73Q63 0 63 10V474Q63 484 73 484ZM173 701H288Q292 701 294 697T293 691L194 561Q187 551 175 551H84Q73 551 78 561L155 691Q161 701 173 701Z" horiz-adv-x="266" unicode="í"/>
			<glyph d="M73 484H193Q203 484 203 474V10Q203 0 193 0H73Q63 0 63 10V474Q63 484 73 484ZM95 701H170Q182 701 189 691L292 560Q295 556 293 553T288 550H208Q196 550 186 560L134 614H132L79 560Q69 550 57 550H-22Q-26 550 -28 553T-27 560L77 691Q84 701 95 701Z" horiz-adv-x="266" unicode="î"/>
			<glyph d="M73 484H193Q203 484 203 474V10Q203 0 193 0H73Q63 0 63 10V474Q63 484 73 484ZM187 680H280Q290 680 290 670V571Q290 561 280 561H187Q177 561 177 571V670Q177 680 187 680ZM-13 680H79Q89 680 89 670V571Q89 561 79 561H-13Q-23 561 -23 571V670Q-23 680 -13 680Z" horiz-adv-x="266" unicode="ï"/>
			<glyph d="M125 680H248Q260 680 267 670L298 627L388 654Q398 657 401 648L421 583Q424 573 414 570L355 552L375 524Q436 439 463 372T491 235Q491 170 477 128Q455 62 399 25T266 -11Q196 -11 137 20T55 124Q40 171 40 222Q40 279 54 324Q73 382 118 416T224 450Q262 450 288 434H290L231 515L137 487Q128 485 125 494L105 559Q102 569 112 572L176 591L119 670Q117 674 119 677T125 680ZM266 349Q203 349 186 293Q176 260 176 226Q176 186 186 159Q203 104 266 104Q295 104 316 118T345 159Q355 186 355 226Q355 260 345 293Q328 349 266 349Z" horiz-adv-x="530" unicode="ð"/>
			<glyph d="M329 495Q407 495 450 445T494 315V10Q494 0 484 0H364Q354 0 354 10V288Q354 328 334 352T279 376Q244 376 223 352T203 288V10Q203 0 193 0H73Q63 0 63 10V474Q63 484 73 484H193Q203 484 203 474V440H204Q244 495 329 495ZM211 691Q245 691 286 669Q320 651 344 651Q377 651 415 683Q418 686 421 685T425 680V608Q425 597 416 588Q382 552 338 552Q306 552 264 574Q231 592 206 592Q172 592 135 560Q132 557 129 558T126 563V635Q126 646 134 655Q170 691 211 691Z" horiz-adv-x="553" unicode="ñ"/>
			<glyph d="M265 495Q342 495 398 459T475 359Q491 308 491 242Q491 176 475 125Q454 60 398 24T265 -11Q188 -11 132 24T55 125Q39 176 39 242Q39 308 55 359Q76 424 132 459T265 495ZM265 377Q207 377 190 325Q181 297 181 242Q181 187 190 159Q207 107 265 107Q323 107 340 159Q349 187 349 242Q349 297 340 325Q323 377 265 377ZM119 701H235Q247 701 253 691L329 561Q334 551 324 551H232Q221 551 213 561L114 691Q111 694 113 697T119 701Z" horiz-adv-x="530" unicode="ò"/>
			<glyph d="M265 495Q342 495 398 459T475 359Q491 308 491 242Q491 176 475 125Q454 60 398 24T265 -11Q188 -11 132 24T55 125Q39 176 39 242Q39 308 55 359Q76 424 132 459T265 495ZM265 377Q207 377 190 325Q181 297 181 242Q181 187 190 159Q207 107 265 107Q323 107 340 159Q349 187 349 242Q349 297 340 325Q323 377 265 377ZM298 701H413Q417 701 419 697T418 691L319 561Q312 551 300 551H209Q198 551 203 561L280 691Q286 701 298 701Z" horiz-adv-x="530" unicode="ó"/>
			<glyph d="M265 495Q342 495 398 459T475 359Q491 308 491 242Q491 176 475 125Q454 60 398 24T265 -11Q188 -11 132 24T55 125Q39 176 39 242Q39 308 55 359Q76 424 132 459T265 495ZM265 377Q207 377 190 325Q181 297 181 242Q181 187 190 159Q207 107 265 107Q323 107 340 159Q349 187 349 242Q349 297 340 325Q323 377 265 377ZM227 701H302Q314 701 321 691L424 560Q427 556 425 553T420 550H340Q328 550 318 560L266 614H264L211 560Q201 550 189 550H110Q106 550 104 553T105 560L209 691Q216 701 227 701Z" horiz-adv-x="530" unicode="ô"/>
			<glyph d="M265 495Q342 495 398 459T475 359Q491 308 491 242Q491 176 475 125Q454 60 398 24T265 -11Q188 -11 132 24T55 125Q39 176 39 242Q39 308 55 359Q76 424 132 459T265 495ZM265 377Q207 377 190 325Q181 297 181 242Q181 187 190 159Q207 107 265 107Q323 107 340 159Q349 187 349 242Q349 297 340 325Q323 377 265 377ZM200 691Q234 691 275 669Q309 651 333 651Q366 651 404 683Q407 686 410 685T414 680V608Q414 597 405 588Q371 552 327 552Q295 552 253 574Q220 592 195 592Q161 592 124 560Q121 557 118 558T115 563V635Q115 646 123 655Q159 691 200 691Z" horiz-adv-x="530" unicode="õ"/>
			<glyph d="M265 495Q342 495 398 459T475 359Q491 308 491 242Q491 176 475 125Q454 60 398 24T265 -11Q188 -11 132 24T55 125Q39 176 39 242Q39 308 55 359Q76 424 132 459T265 495ZM265 377Q207 377 190 325Q181 297 181 242Q181 187 190 159Q207 107 265 107Q323 107 340 159Q349 187 349 242Q349 297 340 325Q323 377 265 377ZM318 680H411Q421 680 421 670V571Q421 561 411 561H318Q308 561 308 571V670Q308 680 318 680ZM118 680H210Q220 680 220 670V571Q220 561 210 561H118Q108 561 108 571V670Q108 680 118 680Z" horiz-adv-x="530" unicode="ö"/>
			<glyph d="M278 539Q309 539 331 516T354 463Q354 431 331 409T278 387Q247 387 224 409T202 463Q202 494 224 516T278 539ZM61 335H495Q505 335 505 325V227Q505 217 495 217H61Q51 217 51 227V325Q51 335 61 335ZM278 165Q309 165 331 143T354 89Q354 58 331 35T278 13Q247 13 224 35T202 89Q202 121 224 143T278 165Z" unicode="÷"/>
			<glyph d="M436 514H486Q490 514 491 511T491 504L435 428Q461 400 475 359Q491 308 491 242Q491 176 475 125Q454 60 398 24T265 -11Q194 -11 142 18L114 -20Q107 -30 95 -30H44Q40 -30 38 -27T40 -20L94 55Q67 86 55 125Q39 176 39 242Q39 308 55 359Q76 424 132 459T265 495Q337 495 388 465L417 504Q424 514 436 514ZM265 378Q205 378 188 326Q179 298 179 242Q179 198 183 175L314 364Q292 378 265 378ZM347 307L217 119Q236 106 265 106Q325 106 342 158Q351 186 351 242Q351 284 347 307Z" horiz-adv-x="530" unicode="ø"/>
			<glyph d="M68 484H188Q198 484 198 474V196Q198 156 217 132T272 108Q307 108 326 132T346 196V474Q346 484 356 484H476Q486 484 486 474V10Q486 0 476 0H356Q346 0 346 10V45H345Q303 -11 221 -11Q143 -11 100 38T58 169V474Q58 484 68 484ZM127 701H243Q255 701 261 691L337 561Q342 551 332 551H240Q229 551 221 561L122 691Q119 694 121 697T127 701Z" horiz-adv-x="549" unicode="ù"/>
			<glyph d="M68 484H188Q198 484 198 474V196Q198 156 217 132T272 108Q307 108 326 132T346 196V474Q346 484 356 484H476Q486 484 486 474V10Q486 0 476 0H356Q346 0 346 10V45H345Q303 -11 221 -11Q143 -11 100 38T58 169V474Q58 484 68 484ZM307 701H422Q426 701 428 697T427 691L328 561Q321 551 309 551H218Q207 551 212 561L289 691Q295 701 307 701Z" horiz-adv-x="549" unicode="ú"/>
			<glyph d="M68 484H188Q198 484 198 474V196Q198 156 217 132T272 108Q307 108 326 132T346 196V474Q346 484 356 484H476Q486 484 486 474V10Q486 0 476 0H356Q346 0 346 10V45H345Q303 -11 221 -11Q143 -11 100 38T58 169V474Q58 484 68 484ZM236 701H311Q323 701 330 691L433 560Q436 556 434 553T429 550H349Q337 550 327 560L275 614H273L220 560Q210 550 198 550H119Q115 550 113 553T114 560L218 691Q225 701 236 701Z" horiz-adv-x="549" unicode="û"/>
			<glyph d="M68 484H188Q198 484 198 474V196Q198 156 217 132T272 108Q307 108 326 132T346 196V474Q346 484 356 484H476Q486 484 486 474V10Q486 0 476 0H356Q346 0 346 10V45H345Q303 -11 221 -11Q143 -11 100 38T58 169V474Q58 484 68 484ZM328 680H421Q431 680 431 670V571Q431 561 421 561H328Q318 561 318 571V670Q318 680 328 680ZM128 680H220Q230 680 230 670V571Q230 561 220 561H128Q118 561 118 571V670Q118 680 128 680Z" horiz-adv-x="549" unicode="ü"/>
			<glyph d="M21 484H149Q158 484 161 474L258 194H260L350 474Q353 484 362 484H486Q497 484 494 474L298 -41Q271 -111 235 -145T127 -180H93Q83 -180 83 -170V-72Q83 -62 93 -62H114Q163 -62 180 -12L193 24L13 474Q10 484 21 484ZM292 701H407Q411 701 413 697T412 691L313 561Q306 551 294 551H203Q192 551 197 561L274 691Q280 701 292 701Z" horiz-adv-x="507" unicode="ý"/>
			<glyph d="M73 680H193Q203 680 203 670V439H204Q241 495 331 495Q391 495 434 465T495 379Q512 325 512 242Q512 159 495 105Q477 49 434 19T331 -11Q241 -11 204 45H203V-170Q203 -180 193 -180H73Q63 -180 63 -170V670Q63 680 73 680ZM286 377Q228 377 212 325Q203 297 203 242Q203 188 212 159Q229 107 286 107Q344 107 361 159Q370 188 370 242Q370 297 361 325Q345 377 286 377Z" horiz-adv-x="551" unicode="þ"/>
			<glyph d="M21 484H149Q158 484 161 474L258 194H260L350 474Q353 484 362 484H486Q497 484 494 474L298 -41Q271 -111 235 -145T127 -180H93Q83 -180 83 -170V-72Q83 -62 93 -62H114Q163 -62 180 -12L193 24L13 474Q10 484 21 484ZM309 680H402Q412 680 412 670V571Q412 561 402 561H309Q299 561 299 571V670Q299 680 309 680ZM109 680H201Q211 680 211 670V571Q211 561 201 561H109Q99 561 99 571V670Q99 680 109 680Z" horiz-adv-x="507" unicode="ÿ"/>
			<glyph d="M261 680H387Q397 680 400 670L630 10Q633 0 623 0H493Q483 0 480 10L441 129H203L165 10Q162 0 152 0H21Q11 0 14 10L248 670Q251 680 261 680ZM321 492L244 254H401L324 492ZM180 867H463Q473 867 473 857V781Q473 771 463 771H180Q170 771 170 781V857Q170 867 180 867Z" horiz-adv-x="644" unicode="Ā"/>
			<glyph d="M253 495Q355 495 411 459T468 320V10Q468 0 458 0H347Q337 0 337 10V42H336Q295 -11 203 -11Q134 -11 88 26T42 137Q42 214 96 253T243 293H329Q335 293 335 299V317Q335 351 313 367T236 383Q170 383 128 352Q120 346 115 354L70 433Q65 442 73 447Q141 495 253 495ZM261 200Q175 200 175 145Q175 94 245 94Q335 94 335 161V194Q335 200 329 200ZM121 670H404Q414 670 414 660V585Q414 575 404 575H121Q111 575 111 585V660Q111 670 121 670Z" horiz-adv-x="528" unicode="ā"/>
			<glyph d="M261 680H387Q397 680 400 670L630 10Q633 0 623 0H493Q483 0 480 10L441 129H203L165 10Q162 0 152 0H21Q11 0 14 10L248 670Q251 680 261 680ZM321 492L244 254H401L324 492ZM179 886H237Q247 886 250 875Q267 833 322 833Q378 833 393 875Q397 886 407 886H464Q475 886 475 875Q472 820 430 782T322 744Q256 744 213 781T169 875Q169 886 179 886Z" horiz-adv-x="644" unicode="Ă"/>
			<glyph d="M253 495Q355 495 411 459T468 320V10Q468 0 458 0H347Q337 0 337 10V42H336Q295 -11 203 -11Q134 -11 88 26T42 137Q42 214 96 253T243 293H329Q335 293 335 299V317Q335 351 313 367T236 383Q170 383 128 352Q120 346 115 354L70 433Q65 442 73 447Q141 495 253 495ZM261 200Q175 200 175 145Q175 94 245 94Q335 94 335 161V194Q335 200 329 200ZM120 687H178Q188 687 191 677Q207 634 263 634Q319 634 334 677Q338 687 348 687H405Q416 687 416 677Q413 622 371 584T263 546Q197 546 154 583T110 677Q110 687 120 687Z" horiz-adv-x="528" unicode="ă"/>
			<glyph d="M261 680H387Q397 680 400 670L630 10Q633 3 624 -1Q537 -44 537 -75Q537 -96 558 -96Q567 -96 583 -88Q592 -84 596 -92L627 -151Q632 -159 623 -165Q585 -191 534 -191Q488 -191 459 -166T431 -99Q431 -44 493 0Q483 0 480 10L441 129H204L165 10Q162 0 153 0H22Q11 0 14 10L248 670Q251 680 261 680ZM321 492L244 254H401L324 492Z" horiz-adv-x="644" unicode="Ą"/>
			<glyph d="M253 495Q355 495 411 459T468 320V10Q468 3 462 0Q374 -43 374 -75Q374 -96 395 -96Q404 -96 420 -88Q429 -84 433 -92L464 -151Q468 -158 460 -165Q421 -191 371 -191Q325 -191 296 -166T268 -99Q268 -37 339 4L337 10V42H336Q295 -11 203 -11Q134 -11 88 26T42 137Q42 214 96 253T243 293H329Q335 293 335 299V317Q335 351 313 367T236 383Q170 383 128 352Q120 346 115 354L70 433Q65 442 73 447Q141 495 253 495ZM261 200Q175 200 175 145Q175 94 245 94Q335 94 335 161V194Q335 200 329 200Z" horiz-adv-x="528" unicode="ą"/>
			<glyph d="M308 691Q393 691 454 651T545 540Q550 531 540 528L431 479Q422 474 417 484Q384 561 309 561Q231 561 207 486Q196 452 196 340Q196 228 207 194Q231 119 309 119Q384 119 417 196Q422 206 431 201L540 152Q550 149 545 140Q516 68 454 28T308 -11Q218 -11 155 31T66 156Q58 181 52 214T47 340Q47 388 48 433T66 524Q93 606 155 648T308 691ZM347 889H467Q471 889 473 885T472 879L349 763Q340 754 330 754H237Q233 754 231 757T233 764L328 879Q336 889 347 889Z" horiz-adv-x="575" unicode="Ć"/>
			<glyph d="M263 495Q322 495 370 470T446 404Q451 396 444 390L357 333Q348 327 342 335Q312 377 265 377Q206 377 190 325Q181 299 181 242Q181 185 190 159Q206 107 265 107Q312 107 342 149Q348 157 357 151L444 94Q451 88 446 80Q419 39 370 14T263 -11Q186 -11 130 24T54 126Q39 170 39 242Q39 315 54 358Q75 424 130 459T263 495ZM282 701H397Q401 701 403 697T402 691L303 561Q296 551 284 551H193Q182 551 187 561L264 691Q270 701 282 701Z" horiz-adv-x="481" unicode="ć"/>
			<glyph d="M308 691Q393 691 454 651T545 540Q550 531 540 528L431 479Q422 474 417 484Q384 561 309 561Q231 561 207 486Q196 452 196 340Q196 228 207 194Q231 119 309 119Q384 119 417 196Q422 206 431 201L540 152Q550 149 545 140Q516 68 454 28T308 -11Q218 -11 155 31T66 156Q58 181 52 214T47 340Q47 388 48 433T66 524Q93 606 155 648T308 691ZM269 898H344Q355 898 362 888L466 757Q469 753 467 750T462 747H382Q370 747 360 757L307 811H305L253 757Q243 747 231 747H151Q147 747 145 750T147 757L250 888Q257 898 269 898Z" horiz-adv-x="575" unicode="Ĉ"/>
			<glyph d="M263 495Q322 495 370 470T446 404Q451 396 444 390L357 333Q348 327 342 335Q312 377 265 377Q206 377 190 325Q181 299 181 242Q181 185 190 159Q206 107 265 107Q312 107 342 149Q348 157 357 151L444 94Q451 88 446 80Q419 39 370 14T263 -11Q186 -11 130 24T54 126Q39 170 39 242Q39 315 54 358Q75 424 130 459T263 495ZM221 701H296Q308 701 315 691L418 560Q421 556 419 553T414 550H334Q322 550 312 560L260 614H258L205 560Q195 550 183 550H104Q100 550 98 553T99 560L203 691Q210 701 221 701Z" horiz-adv-x="481" unicode="ĉ"/>
			<glyph d="M308 691Q393 691 454 651T545 540Q550 531 540 528L431 479Q422 474 417 484Q384 561 309 561Q231 561 207 486Q196 452 196 340Q196 228 207 194Q231 119 309 119Q384 119 417 196Q422 206 431 201L540 152Q550 149 545 140Q516 68 454 28T308 -11Q218 -11 155 31T66 156Q58 181 52 214T47 340Q47 388 48 433T66 524Q93 606 155 648T308 691ZM247 878H362Q372 878 372 868V770Q372 760 362 760H247Q237 760 237 770V868Q237 878 247 878Z" horiz-adv-x="575" unicode="Ċ"/>
			<glyph d="M263 495Q322 495 370 470T446 404Q451 396 444 390L357 333Q348 327 342 335Q312 377 265 377Q206 377 190 325Q181 299 181 242Q181 185 190 159Q206 107 265 107Q312 107 342 149Q348 157 357 151L444 94Q451 88 446 80Q419 39 370 14T263 -11Q186 -11 130 24T54 126Q39 170 39 242Q39 315 54 358Q75 424 130 459T263 495ZM202 680H317Q327 680 327 670V571Q327 561 317 561H202Q192 561 192 571V670Q192 680 202 680Z" horiz-adv-x="481" unicode="ċ"/>
			<glyph d="M308 691Q393 691 454 651T545 540Q550 531 540 528L431 479Q422 474 417 484Q384 561 309 561Q231 561 207 486Q196 452 196 340Q196 228 207 194Q231 119 309 119Q384 119 417 196Q422 206 431 201L540 152Q550 149 545 140Q516 68 454 28T308 -11Q218 -11 155 31T66 156Q58 181 52 214T47 340Q47 388 48 433T66 524Q93 606 155 648T308 691ZM150 894H230Q242 894 252 884L304 830H306L359 884Q369 894 381 894H461Q465 894 466 891T465 884L361 754Q354 744 343 744H268Q256 744 249 754L146 884Q143 888 144 891T150 894Z" horiz-adv-x="575" unicode="Č"/>
			<glyph d="M263 495Q322 495 370 470T446 404Q451 396 444 390L357 333Q348 327 342 335Q312 377 265 377Q206 377 190 325Q181 299 181 242Q181 185 190 159Q206 107 265 107Q312 107 342 149Q348 157 357 151L444 94Q451 88 446 80Q419 39 370 14T263 -11Q186 -11 130 24T54 126Q39 170 39 242Q39 315 54 358Q75 424 130 459T263 495ZM105 698H184Q196 698 206 688L259 634H261L313 688Q323 698 335 698H415Q419 698 420 695T419 688L316 557Q309 547 297 547H222Q211 547 204 557L100 688Q97 691 99 694T105 698Z" horiz-adv-x="481" unicode="č"/>
			<glyph d="M75 680H328Q418 680 478 641T563 527Q581 470 581 340Q581 210 563 153Q542 87 485 43T328 0H75Q65 0 65 10V670Q65 680 75 680ZM218 549Q212 549 212 543V137Q212 131 218 131H295Q398 131 421 206Q432 237 432 340Q432 443 421 474Q398 549 295 549ZM140 894H220Q232 894 242 884L294 830H296L349 884Q359 894 371 894H451Q455 894 456 891T455 884L351 754Q344 744 333 744H258Q246 744 239 754L136 884Q133 888 134 891T140 894Z" horiz-adv-x="630" unicode="Ď"/>
			<glyph d="M358 680H478Q488 680 488 670V10Q488 0 478 0H358Q348 0 348 10V45H347Q308 -11 220 -11Q160 -11 117 19T56 105Q39 159 39 242Q39 325 56 379Q74 435 117 465T220 495Q308 495 347 439H348V670Q348 680 358 680ZM265 377Q206 377 190 325Q181 297 181 242Q181 188 190 159Q207 107 265 107Q322 107 339 159Q348 188 348 242Q348 297 339 325Q323 377 265 377ZM531 680H627Q637 680 637 670V586Q637 573 629 566L547 495Q540 488 532 488Q521 488 521 499V670Q521 680 531 680Z" horiz-adv-x="563" unicode="ď"/>
			<glyph d="M75 680H328Q418 680 478 641T563 527Q581 470 581 340Q581 210 563 153Q542 87 485 43T328 0H75Q65 0 65 10V283Q65 289 59 289H34Q24 289 24 299V387Q24 397 34 397H59Q65 397 65 403V670Q65 680 75 680ZM218 549Q212 549 212 543V403Q212 397 218 397H301Q311 397 311 387V299Q311 289 301 289H218Q212 289 212 283V137Q212 131 218 131H295Q398 131 421 206Q432 237 432 340Q432 443 421 474Q398 549 295 549Z" horiz-adv-x="628" unicode="Đ"/>
			<glyph d="M358 680H478Q488 680 488 670V645Q488 639 494 639H513Q523 639 523 629V552Q523 542 513 542H494Q488 542 488 536V10Q488 0 478 0H358Q348 0 348 10V45H347Q308 -11 220 -11Q160 -11 117 19T56 105Q39 159 39 242Q39 325 56 379Q74 435 117 465T220 495Q308 495 347 439H348V536Q348 542 342 542H239Q229 542 229 552V629Q229 639 239 639H342Q348 639 348 645V670Q348 680 358 680ZM265 377Q206 377 190 325Q181 297 181 242Q181 188 190 159Q207 107 265 107Q322 107 339 159Q348 188 348 242Q348 297 339 325Q323 377 265 377Z" horiz-adv-x="551" unicode="đ"/>
			<glyph d="M75 680H511Q521 680 521 670V563Q521 553 511 553H218Q212 553 212 547V412Q212 406 218 406H462Q472 406 472 396V290Q472 280 462 280H218Q212 280 212 274V133Q212 127 218 127H511Q521 127 521 117V10Q521 0 511 0H75Q65 0 65 10V670Q65 680 75 680ZM149 867H432Q442 867 442 857V781Q442 771 432 771H149Q139 771 139 781V857Q139 867 149 867Z" horiz-adv-x="565" unicode="Ē"/>
			<glyph d="M263 495Q342 495 396 459T472 359Q488 308 488 210Q488 200 477 200H184Q178 200 178 194L184 167Q193 136 220 119T284 103Q349 103 395 146Q404 153 409 146L475 84Q483 77 476 70Q441 33 387 11T270 -11Q199 -11 139 21T56 127Q39 178 39 242Q39 310 55 358Q76 423 131 459T263 495ZM264 388Q235 388 213 373T183 335Q178 318 178 299Q178 293 184 293H344Q350 293 350 299Q350 318 345 335Q337 359 315 373T264 388ZM121 670H404Q414 670 414 660V585Q414 575 404 575H121Q111 575 111 585V660Q111 670 121 670Z" horiz-adv-x="527" unicode="ē"/>
			<glyph d="M75 680H511Q521 680 521 670V563Q521 553 511 553H218Q212 553 212 547V412Q212 406 218 406H462Q472 406 472 396V290Q472 280 462 280H218Q212 280 212 274V133Q212 127 218 127H511Q521 127 521 117V10Q521 0 511 0H75Q65 0 65 10V670Q65 680 75 680ZM147 886H205Q215 886 218 875Q235 833 290 833Q346 833 361 875Q365 886 375 886H432Q443 886 443 875Q440 820 398 782T290 744Q224 744 181 781T137 875Q137 886 147 886Z" horiz-adv-x="565" unicode="Ĕ"/>
			<glyph d="M263 495Q342 495 396 459T472 359Q488 308 488 210Q488 200 477 200H184Q178 200 178 194L184 167Q193 136 220 119T284 103Q349 103 395 146Q404 153 409 146L475 84Q483 77 476 70Q441 33 387 11T270 -11Q199 -11 139 21T56 127Q39 178 39 242Q39 310 55 358Q76 423 131 459T263 495ZM264 388Q235 388 213 373T183 335Q178 318 178 299Q178 293 184 293H344Q350 293 350 299Q350 318 345 335Q337 359 315 373T264 388ZM120 687H178Q188 687 191 677Q207 634 263 634Q319 634 334 677Q338 687 348 687H405Q416 687 416 677Q413 622 371 584T263 546Q197 546 154 583T110 677Q110 687 120 687Z" horiz-adv-x="527" unicode="ĕ"/>
			<glyph d="M75 680H511Q521 680 521 670V563Q521 553 511 553H218Q212 553 212 547V412Q212 406 218 406H462Q472 406 472 396V290Q472 280 462 280H218Q212 280 212 274V133Q212 127 218 127H511Q521 127 521 117V10Q521 0 511 0H75Q65 0 65 10V670Q65 680 75 680ZM232 878H347Q357 878 357 868V770Q357 760 347 760H232Q222 760 222 770V868Q222 878 232 878Z" horiz-adv-x="565" unicode="Ė"/>
			<glyph d="M263 495Q342 495 396 459T472 359Q488 308 488 210Q488 200 477 200H184Q178 200 178 194L184 167Q193 136 220 119T284 103Q349 103 395 146Q404 153 409 146L475 84Q483 77 476 70Q441 33 387 11T270 -11Q199 -11 139 21T56 127Q39 178 39 242Q39 310 55 358Q76 423 131 459T263 495ZM264 388Q235 388 213 373T183 335Q178 318 178 299Q178 293 184 293H344Q350 293 350 299Q350 318 345 335Q337 359 315 373T264 388ZM205 680H320Q330 680 330 670V571Q330 561 320 561H205Q195 561 195 571V670Q195 680 205 680Z" horiz-adv-x="527" unicode="ė"/>
			<glyph d="M75 680H511Q521 680 521 670V563Q521 553 511 553H218Q212 553 212 547V412Q212 406 218 406H462Q472 406 472 396V290Q472 280 462 280H218Q212 280 212 274V133Q212 127 218 127H511Q521 127 521 117V10Q521 0 511 0H501Q417 -43 417 -75Q417 -96 438 -96Q447 -96 463 -88Q471 -83 476 -92L507 -151Q512 -159 503 -164Q466 -191 414 -191Q368 -191 339 -166T311 -99Q311 -43 370 0H75Q65 0 65 10V670Q65 680 75 680Z" horiz-adv-x="565" unicode="Ę"/>
			<glyph d="M263 495Q342 495 396 459T472 359Q488 308 488 210Q488 200 477 200H184Q178 200 178 194L184 167Q193 136 220 119T284 103Q349 103 395 146Q404 153 409 146L475 84Q483 77 476 70Q455 48 431 32Q347 -40 347 -75Q347 -96 368 -96Q378 -96 392 -88Q401 -84 405 -92L437 -151Q441 -158 433 -165Q394 -191 344 -191Q298 -191 269 -166T241 -99Q241 -55 278 -11H265Q196 -10 138 22T56 127Q39 178 39 242Q39 310 55 358Q76 423 131 459T263 495ZM264 388Q235 388 213 373T183 335Q178 318 178 299Q178 293 184 293H344Q350 293 350 299Q350 318 345 335Q337 359 315 373T264 388Z" horiz-adv-x="527" unicode="ę"/>
			<glyph d="M75 680H511Q521 680 521 670V563Q521 553 511 553H218Q212 553 212 547V412Q212 406 218 406H462Q472 406 472 396V290Q472 280 462 280H218Q212 280 212 274V133Q212 127 218 127H511Q521 127 521 117V10Q521 0 511 0H75Q65 0 65 10V670Q65 680 75 680ZM136 894H216Q228 894 238 884L290 830H292L345 884Q355 894 367 894H447Q451 894 452 891T451 884L347 754Q340 744 329 744H254Q242 744 235 754L132 884Q129 888 130 891T136 894Z" horiz-adv-x="565" unicode="Ě"/>
			<glyph d="M263 495Q342 495 396 459T472 359Q488 308 488 210Q488 200 477 200H184Q178 200 178 194L184 167Q193 136 220 119T284 103Q349 103 395 146Q404 153 409 146L475 84Q483 77 476 70Q441 33 387 11T270 -11Q199 -11 139 21T56 127Q39 178 39 242Q39 310 55 358Q76 423 131 459T263 495ZM264 388Q235 388 213 373T183 335Q178 318 178 299Q178 293 184 293H344Q350 293 350 299Q350 318 345 335Q337 359 315 373T264 388ZM108 698H187Q199 698 209 688L262 634H264L316 688Q326 698 338 698H418Q422 698 423 695T422 688L319 557Q312 547 300 547H225Q214 547 207 557L103 688Q100 691 102 694T108 698Z" horiz-adv-x="527" unicode="ě"/>
			<glyph d="M316 691Q396 691 462 655T558 546Q563 536 554 531L447 486Q436 483 433 491Q392 561 316 561Q231 561 207 485Q196 452 196 340Q196 227 207 194Q231 119 318 119Q357 119 387 137T427 189Q435 216 435 256Q435 262 429 262H337Q327 262 327 272V368Q327 378 337 378H571Q581 378 581 368V312Q581 211 564 159Q539 78 473 33T316 -11Q224 -11 158 31T66 154Q58 180 52 214T47 340Q47 396 49 440T66 526Q92 607 158 649T316 691ZM276 898H351Q362 898 369 888L473 757Q476 753 474 750T469 747H389Q377 747 367 757L314 811H312L260 757Q250 747 238 747H158Q154 747 152 750T154 757L257 888Q264 898 276 898Z" horiz-adv-x="628" unicode="Ĝ"/>
			<glyph d="M215 495Q304 495 339 439H340V474Q340 484 350 484H470Q480 484 480 474V52Q480 -191 239 -191Q186 -191 134 -170T56 -118Q50 -110 57 -103L128 -31Q136 -23 143 -31Q190 -73 243 -73Q340 -73 340 34V75H339Q304 19 215 19Q156 19 113 49T53 136Q37 188 37 257Q37 327 53 378Q71 435 113 465T215 495ZM259 377Q205 377 187 325Q179 296 179 257Q179 218 187 189Q205 137 259 137Q314 137 331 189Q340 216 340 257Q340 298 331 325Q314 377 259 377ZM225 701H300Q312 701 319 691L422 560Q425 556 423 553T418 550H338Q326 550 316 560L264 614H262L209 560Q199 550 187 550H108Q104 550 102 553T103 560L207 691Q214 701 225 701Z" horiz-adv-x="543" unicode="ĝ"/>
			<glyph d="M316 691Q396 691 462 655T558 546Q563 536 554 531L447 486Q436 483 433 491Q392 561 316 561Q231 561 207 485Q196 452 196 340Q196 227 207 194Q231 119 318 119Q357 119 387 137T427 189Q435 216 435 256Q435 262 429 262H337Q327 262 327 272V368Q327 378 337 378H571Q581 378 581 368V312Q581 211 564 159Q539 78 473 33T316 -11Q224 -11 158 31T66 154Q58 180 52 214T47 340Q47 396 49 440T66 526Q92 607 158 649T316 691ZM171 886H229Q239 886 242 875Q259 833 314 833Q370 833 385 875Q389 886 399 886H456Q467 886 467 875Q464 820 422 782T314 744Q248 744 205 781T161 875Q161 886 171 886Z" horiz-adv-x="628" unicode="Ğ"/>
			<glyph d="M215 495Q304 495 339 439H340V474Q340 484 350 484H470Q480 484 480 474V52Q480 -191 239 -191Q186 -191 134 -170T56 -118Q50 -110 57 -103L128 -31Q136 -23 143 -31Q190 -73 243 -73Q340 -73 340 34V75H339Q304 19 215 19Q156 19 113 49T53 136Q37 188 37 257Q37 327 53 378Q71 435 113 465T215 495ZM259 377Q205 377 187 325Q179 296 179 257Q179 218 187 189Q205 137 259 137Q314 137 331 189Q340 216 340 257Q340 298 331 325Q314 377 259 377ZM120 687H178Q188 687 191 677Q207 634 263 634Q319 634 334 677Q338 687 348 687H405Q416 687 416 677Q413 622 371 584T263 546Q197 546 154 583T110 677Q110 687 120 687Z" horiz-adv-x="543" unicode="ğ"/>
			<glyph d="M316 691Q396 691 462 655T558 546Q563 536 554 531L447 486Q436 483 433 491Q392 561 316 561Q231 561 207 485Q196 452 196 340Q196 227 207 194Q231 119 318 119Q357 119 387 137T427 189Q435 216 435 256Q435 262 429 262H337Q327 262 327 272V368Q327 378 337 378H571Q581 378 581 368V312Q581 211 564 159Q539 78 473 33T316 -11Q224 -11 158 31T66 154Q58 180 52 214T47 340Q47 396 49 440T66 526Q92 607 158 649T316 691ZM256 878H371Q381 878 381 868V770Q381 760 371 760H256Q246 760 246 770V868Q246 878 256 878Z" horiz-adv-x="628" unicode="Ġ"/>
			<glyph d="M215 495Q304 495 339 439H340V474Q340 484 350 484H470Q480 484 480 474V52Q480 -191 239 -191Q186 -191 134 -170T56 -118Q50 -110 57 -103L128 -31Q136 -23 143 -31Q190 -73 243 -73Q340 -73 340 34V75H339Q304 19 215 19Q156 19 113 49T53 136Q37 188 37 257Q37 327 53 378Q71 435 113 465T215 495ZM259 377Q205 377 187 325Q179 296 179 257Q179 218 187 189Q205 137 259 137Q314 137 331 189Q340 216 340 257Q340 298 331 325Q314 377 259 377ZM205 680H320Q330 680 330 670V571Q330 561 320 561H205Q195 561 195 571V670Q195 680 205 680Z" horiz-adv-x="543" unicode="ġ"/>
			<glyph d="M316 691Q396 691 462 655T558 546Q563 536 554 531L447 486Q436 483 433 491Q392 561 316 561Q231 561 207 485Q196 452 196 340Q196 227 207 194Q231 119 318 119Q357 119 387 137T427 189Q435 216 435 256Q435 262 429 262H337Q327 262 327 272V368Q327 378 337 378H571Q581 378 581 368V312Q581 211 564 159Q539 78 473 33T316 -11Q224 -11 158 31T66 154Q58 180 52 214T47 340Q47 396 49 440T66 526Q92 607 158 649T316 691ZM262 -50H364Q374 -50 374 -60V-139Q374 -152 366 -159L279 -230Q269 -238 263 -238Q252 -238 252 -226V-60Q252 -50 262 -50Z" horiz-adv-x="628" unicode="Ģ"/>
			<glyph d="M215 495Q304 495 339 439H340V474Q340 484 350 484H470Q480 484 480 474V52Q480 -191 239 -191Q186 -191 134 -170T56 -118Q50 -110 57 -103L128 -31Q136 -23 143 -31Q190 -73 243 -73Q340 -73 340 34V75H339Q304 19 215 19Q156 19 113 49T53 136Q37 188 37 257Q37 327 53 378Q71 435 113 465T215 495ZM259 377Q205 377 187 325Q179 296 179 257Q179 218 187 189Q205 137 259 137Q314 137 331 189Q340 216 340 257Q340 298 331 325Q314 377 259 377ZM313 749Q324 749 324 737V571Q324 561 314 561H212Q202 561 202 571V650Q202 662 210 670L297 742Q305 749 313 749Z" horiz-adv-x="543" unicode="ģ"/>
			<glyph d="M75 680H202Q212 680 212 670V415Q212 409 218 409H440Q446 409 446 415V670Q446 680 456 680H583Q593 680 593 670V10Q593 0 583 0H456Q446 0 446 10V272Q446 278 440 278H218Q212 278 212 272V10Q212 0 202 0H75Q65 0 65 10V670Q65 680 75 680ZM291 898H366Q377 898 384 888L488 757Q491 753 489 750T484 747H404Q392 747 382 757L329 811H327L275 757Q265 747 253 747H173Q169 747 167 750T169 757L272 888Q279 898 291 898Z" horiz-adv-x="658" unicode="Ĥ"/>
			<glyph d="M73 680H193Q203 680 203 670V440H204Q244 495 329 495Q407 495 450 445T494 315V10Q494 0 484 0H364Q354 0 354 10V288Q354 328 334 352T279 376Q244 376 223 352T203 288V10Q203 0 193 0H73Q63 0 63 10V670Q63 680 73 680ZM244 898H319Q330 898 337 888L441 757Q444 753 442 750T437 747H357Q345 747 335 757L282 811H280L228 757Q218 747 206 747H126Q122 747 120 750T122 757L225 888Q232 898 244 898Z" horiz-adv-x="553" unicode="ĥ"/>
			<glyph d="M75 680H202Q212 680 212 670V596Q212 590 218 590H440Q446 590 446 596V670Q446 680 456 680H583Q593 680 593 670V596Q593 590 599 590H631Q641 590 641 580V506Q641 496 631 496H599Q593 496 593 490V10Q593 0 583 0H456Q446 0 446 10V272Q446 278 440 278H218Q212 278 212 272V10Q212 0 202 0H75Q65 0 65 10V490Q65 496 59 496H27Q17 496 17 506V580Q17 590 27 590H59Q65 590 65 596V670Q65 680 75 680ZM218 496Q212 496 212 490V415Q212 409 218 409H440Q446 409 446 415V490Q446 496 440 496Z" horiz-adv-x="658" unicode="Ħ"/>
			<glyph d="M73 680H193Q203 680 203 670V645Q203 639 209 639H312Q322 639 322 629V552Q322 542 312 542H209Q203 542 203 536V440H204Q244 495 329 495Q407 495 450 445T494 315V10Q494 0 484 0H364Q354 0 354 10V288Q354 328 334 352T279 376Q244 376 223 352T203 288V10Q203 0 193 0H73Q63 0 63 10V536Q63 542 57 542H38Q28 542 28 552V629Q28 639 38 639H57Q63 639 63 645V670Q63 680 73 680Z" horiz-adv-x="553" unicode="ħ"/>
			<glyph d="M75 680H202Q212 680 212 670V10Q212 0 202 0H75Q65 0 65 10V670Q65 680 75 680ZM75 886Q108 886 149 865Q181 847 208 847Q239 847 278 878Q281 881 284 880T288 876V804Q288 792 279 783Q246 748 201 748Q166 748 127 769Q96 787 67 787Q36 787 -2 756Q-5 753 -8 754T-11 758V830Q-11 842 -3 851Q32 886 75 886Z" horiz-adv-x="277" unicode="Ĩ"/>
			<glyph d="M73 484H193Q203 484 203 474V10Q203 0 193 0H73Q63 0 63 10V474Q63 484 73 484ZM69 691Q103 691 144 669Q178 651 202 651Q235 651 273 683Q276 686 279 685T283 680V608Q283 597 274 588Q240 552 196 552Q164 552 122 574Q89 592 64 592Q30 592 -7 560Q-10 557 -13 558T-16 563V635Q-16 646 -8 655Q28 691 69 691Z" horiz-adv-x="266" unicode="ĩ"/>
			<glyph d="M75 680H202Q212 680 212 670V10Q212 0 202 0H75Q65 0 65 10V670Q65 680 75 680ZM-3 867H280Q290 867 290 857V781Q290 771 280 771H-3Q-13 771 -13 781V857Q-13 867 -3 867Z" horiz-adv-x="277" unicode="Ī"/>
			<glyph d="M73 484H193Q203 484 203 474V10Q203 0 193 0H73Q63 0 63 10V474Q63 484 73 484ZM-8 670H275Q285 670 285 660V585Q285 575 275 575H-8Q-18 575 -18 585V660Q-18 670 -8 670Z" horiz-adv-x="266" unicode="ī"/>
			<glyph d="M75 680H202Q212 680 212 670V10Q212 0 202 0H75Q65 0 65 10V670Q65 680 75 680ZM-5 886H53Q63 886 66 875Q83 833 138 833Q194 833 209 875Q213 886 223 886H280Q291 886 291 875Q288 820 246 782T138 744Q72 744 29 781T-15 875Q-15 886 -5 886Z" horiz-adv-x="277" unicode="Ĭ"/>
			<glyph d="M73 484H193Q203 484 203 474V10Q203 0 193 0H73Q63 0 63 10V474Q63 484 73 484ZM-10 687H48Q58 687 61 677Q77 634 133 634Q189 634 204 677Q208 687 218 687H275Q286 687 286 677Q283 622 241 584T133 546Q67 546 24 583T-20 677Q-20 687 -10 687Z" horiz-adv-x="266" unicode="ĭ"/>
			<glyph d="M75 680H202Q212 680 212 670V10Q212 4 206 0Q173 -21 152 -39T132 -75Q132 -96 153 -96Q164 -96 178 -88Q187 -84 191 -92L222 -151Q226 -158 218 -165Q179 -191 129 -191Q83 -191 54 -166T26 -99Q26 -49 79 0H75Q65 0 65 10V670Q65 680 75 680Z" horiz-adv-x="277" unicode="Į"/>
			<glyph d="M73 680H193Q203 680 203 670V571Q203 561 193 561H73Q63 561 63 571V670Q63 680 73 680ZM73 484H193Q203 484 203 474V10Q203 3 196 -1Q127 -46 127 -75Q127 -96 148 -96Q159 -96 173 -88Q181 -83 186 -92L217 -151Q221 -158 213 -165Q174 -191 124 -191Q78 -191 49 -166T21 -99Q21 -44 71 1H70Q63 2 63 10V474Q63 484 73 484Z" horiz-adv-x="266" unicode="į"/>
			<glyph d="M75 680H202Q212 680 212 670V10Q212 0 202 0H75Q65 0 65 10V670Q65 680 75 680ZM81 878H196Q206 878 206 868V770Q206 760 196 760H81Q71 760 71 770V868Q71 878 81 878Z" horiz-adv-x="277" unicode="İ"/>
			<glyph d="M73 484H193Q203 484 203 474V10Q203 0 193 0H73Q63 0 63 10V474Q63 484 73 484Z" horiz-adv-x="266" unicode="ı"/>
			<glyph d="M75 680H202Q212 680 212 670V10Q212 0 202 0H75Q65 0 65 10V670Q65 680 75 680ZM599 680H726Q736 680 736 670V244Q736 121 670 55T488 -11Q428 -11 375 13T298 76Q293 84 299 90L392 161Q399 166 406 159Q440 119 489 119Q536 119 562 149T589 237V670Q589 680 599 680Z" horiz-adv-x="798" unicode="Ĳ"/>
			<glyph d="M73 680H193Q203 680 203 670V571Q203 561 193 561H73Q63 561 63 571V670Q63 680 73 680ZM73 484H193Q203 484 203 474V10Q203 0 193 0H73Q63 0 63 10V474Q63 484 73 484ZM339 680H459Q469 680 469 670V571Q469 561 459 561H339Q329 561 329 571V670Q329 680 339 680ZM339 484H459Q469 484 469 474V-5Q469 -180 288 -180H255Q245 -180 245 -170V-72Q245 -62 255 -62H275Q297 -62 313 -53T329 -6V474Q329 484 339 484Z" horiz-adv-x="532" unicode="ĳ"/>
			<glyph d="M322 680H449Q459 680 459 670V244Q459 121 393 55T211 -11Q151 -11 98 13T21 76Q16 84 22 90L115 161Q122 166 129 159Q163 119 212 119Q259 119 285 149T312 237V670Q312 680 322 680ZM345 898H420Q431 898 438 888L542 757Q545 753 543 750T538 747H458Q446 747 436 757L383 811H381L329 757Q319 747 307 747H227Q223 747 221 750T223 757L326 888Q333 898 345 898Z" horiz-adv-x="521" unicode="Ĵ"/>
			<glyph d="M73 484H193Q203 484 203 474V-5Q203 -180 22 -180H-11Q-21 -180 -21 -170V-72Q-21 -62 -11 -62H9Q31 -62 47 -53T63 -6V474Q63 484 73 484ZM95 701H170Q182 701 189 691L292 560Q295 556 293 553T288 550H208Q196 550 186 560L134 614H132L79 560Q69 550 57 550H-22Q-26 550 -28 553T-27 560L77 691Q84 701 95 701Z" horiz-adv-x="273" unicode="ĵ"/>
			<glyph d="M75 680H202Q212 680 212 670V376L438 671Q444 680 455 680H600Q604 680 605 675T604 667L398 409L623 12Q626 7 624 3T617 0H470Q460 0 455 9L301 295L212 183V10Q212 0 202 0H75Q65 0 65 10V670Q65 680 75 680ZM273 -50H375Q385 -50 385 -60V-139Q385 -152 377 -159L290 -230Q280 -238 274 -238Q263 -238 263 -226V-60Q263 -50 273 -50Z" horiz-adv-x="645" unicode="Ķ"/>
			<glyph d="M73 680H193Q203 680 203 670V303L342 474Q351 484 361 484H489Q493 484 494 480T493 474L345 303L514 10Q516 7 514 3T509 0H376Q367 0 361 10L253 205L203 143V10Q203 0 193 0H73Q63 0 63 10V670Q63 680 73 680ZM219 -50H321Q331 -50 331 -60V-139Q331 -152 323 -159L236 -230Q226 -238 220 -238Q209 -238 209 -226V-60Q209 -50 219 -50Z" horiz-adv-x="531" unicode="ķ"/>
			<glyph d="M73 484H193Q203 484 203 474V303L342 474Q351 484 361 484H489Q493 484 494 480T493 474L345 303L514 10Q516 7 514 3T509 0H376Q367 0 361 10L253 205L203 143V10Q203 0 193 0H73Q63 0 63 10V474Q63 484 73 484Z" horiz-adv-x="531" unicode="ĸ"/>
			<glyph d="M75 680H202Q212 680 212 670V137Q212 131 218 131H518Q528 131 528 121V10Q528 0 518 0H75Q65 0 65 10V670Q65 680 75 680ZM208 889H328Q332 889 334 885T333 879L210 763Q201 754 191 754H98Q94 754 92 757T94 764L189 879Q197 889 208 889Z" horiz-adv-x="550" unicode="Ĺ"/>
			<glyph d="M71 680H191Q201 680 201 670V159Q201 113 243 113H264Q274 113 274 103V4Q274 -6 264 -6H211Q141 -6 101 26T61 148V670Q61 680 71 680ZM197 889H317Q321 889 323 885T322 879L199 763Q190 754 180 754H87Q83 754 81 757T83 764L178 879Q186 889 197 889Z" horiz-adv-x="304" unicode="ĺ"/>
			<glyph d="M75 680H202Q212 680 212 670V137Q212 131 218 131H518Q528 131 528 121V10Q528 0 518 0H75Q65 0 65 10V670Q65 680 75 680ZM237 -50H339Q349 -50 349 -60V-139Q349 -152 341 -159L254 -230Q244 -238 238 -238Q227 -238 227 -226V-60Q227 -50 237 -50Z" horiz-adv-x="550" unicode="Ļ"/>
			<glyph d="M71 680H191Q201 680 201 670V159Q201 113 243 113H264Q274 113 274 103V4Q274 -6 264 -6H211Q141 -6 101 26T61 148V670Q61 680 71 680ZM121 -50H223Q233 -50 233 -60V-139Q233 -152 225 -159L138 -230Q128 -238 122 -238Q111 -238 111 -226V-60Q111 -50 121 -50Z" horiz-adv-x="304" unicode="ļ"/>
			<glyph d="M75 680H202Q212 680 212 670V137Q212 131 218 131H518Q528 131 528 121V10Q528 0 518 0H75Q65 0 65 10V670Q65 680 75 680ZM279 680H375Q385 680 385 670V586Q385 573 377 566L295 495Q288 488 280 488Q269 488 269 499V670Q269 680 279 680Z" horiz-adv-x="550" unicode="Ľ"/>
			<glyph d="M71 680H191Q201 680 201 670V159Q201 113 243 113H264Q274 113 274 103V4Q274 -6 264 -6H211Q141 -6 101 26T61 148V670Q61 680 71 680ZM245 680H341Q351 680 351 670V586Q351 573 343 566L261 495Q254 488 246 488Q235 488 235 499V670Q235 680 245 680Z" horiz-adv-x="304" unicode="ľ"/>
			<glyph d="M75 680H202Q212 680 212 670V137Q212 131 218 131H518Q528 131 528 121V10Q528 0 518 0H75Q65 0 65 10V670Q65 680 75 680ZM354 404H473Q483 404 483 394V274Q483 264 473 264H354Q344 264 344 274V394Q344 404 354 404Z" horiz-adv-x="550" unicode="Ŀ"/>
			<glyph d="M71 680H191Q201 680 201 670V159Q201 113 243 113H264Q274 113 274 103V4Q274 -6 264 -6H211Q141 -6 101 26T61 148V670Q61 680 71 680ZM266 412H385Q395 412 395 402V282Q395 272 385 272H266Q256 272 256 282V402Q256 412 266 412Z" horiz-adv-x="387" unicode="ŀ"/>
			<glyph d="M75 680H202Q212 680 212 670V434L339 499Q349 504 349 493V399Q349 390 339 385L212 320V137Q212 131 218 131H518Q528 131 528 121V10Q528 0 518 0H75Q65 0 65 10V252L19 229Q9 224 9 235V329Q9 338 19 343L65 366V670Q65 680 75 680Z" horiz-adv-x="550" unicode="Ł"/>
			<glyph d="M71 680H191Q201 680 201 670V440L264 472Q274 477 274 466V377Q274 367 264 362L201 330V159Q201 113 243 113H264Q274 113 274 103V4Q274 -6 264 -6H211Q141 -6 101 26T61 148V266L29 250Q19 245 19 256V345Q19 355 29 360L61 376V670Q61 680 71 680Z" horiz-adv-x="305" unicode="ł"/>
			<glyph d="M75 680H195Q206 680 212 670L452 242H457V670Q457 680 467 680H580Q590 680 590 670V10Q590 0 580 0H461Q450 0 444 10L203 437H198V10Q198 0 188 0H75Q65 0 65 10V670Q65 680 75 680ZM360 889H480Q484 889 486 885T485 879L362 763Q353 754 343 754H250Q246 754 244 757T246 764L341 879Q349 889 360 889Z" horiz-adv-x="655" unicode="Ń"/>
			<glyph d="M329 495Q407 495 450 445T494 315V10Q494 0 484 0H364Q354 0 354 10V288Q354 328 334 352T279 376Q244 376 223 352T203 288V10Q203 0 193 0H73Q63 0 63 10V474Q63 484 73 484H193Q203 484 203 474V440H204Q244 495 329 495ZM290 701H405Q409 701 411 697T410 691L311 561Q304 551 292 551H201Q190 551 195 561L272 691Q278 701 290 701Z" horiz-adv-x="553" unicode="ń"/>
			<glyph d="M75 680H195Q206 680 212 670L452 242H457V670Q457 680 467 680H580Q590 680 590 670V10Q590 0 580 0H461Q450 0 444 10L203 437H198V10Q198 0 188 0H75Q65 0 65 10V670Q65 680 75 680ZM276 -50H378Q388 -50 388 -60V-139Q388 -152 380 -159L293 -230Q283 -238 277 -238Q266 -238 266 -226V-60Q266 -50 276 -50Z" horiz-adv-x="655" unicode="Ņ"/>
			<glyph d="M329 495Q407 495 450 445T494 315V10Q494 0 484 0H364Q354 0 354 10V288Q354 328 334 352T279 376Q244 376 223 352T203 288V10Q203 0 193 0H73Q63 0 63 10V474Q63 484 73 484H193Q203 484 203 474V440H204Q244 495 329 495ZM226 -50H328Q338 -50 338 -60V-139Q338 -152 330 -159L243 -230Q233 -238 227 -238Q216 -238 216 -226V-60Q216 -50 226 -50Z" horiz-adv-x="553" unicode="ņ"/>
			<glyph d="M75 680H195Q206 680 212 670L452 242H457V670Q457 680 467 680H580Q590 680 590 670V10Q590 0 580 0H461Q450 0 444 10L203 437H198V10Q198 0 188 0H75Q65 0 65 10V670Q65 680 75 680ZM168 894H248Q260 894 270 884L322 830H324L377 884Q387 894 399 894H479Q483 894 484 891T483 884L379 754Q372 744 361 744H286Q274 744 267 754L164 884Q161 888 162 891T168 894Z" horiz-adv-x="655" unicode="Ň"/>
			<glyph d="M329 495Q407 495 450 445T494 315V10Q494 0 484 0H364Q354 0 354 10V288Q354 328 334 352T279 376Q244 376 223 352T203 288V10Q203 0 193 0H73Q63 0 63 10V474Q63 484 73 484H193Q203 484 203 474V440H204Q244 495 329 495ZM121 698H200Q212 698 222 688L275 634H277L329 688Q339 698 351 698H431Q435 698 436 695T435 688L332 557Q325 547 313 547H238Q227 547 220 557L116 688Q113 691 115 694T121 698Z" horiz-adv-x="553" unicode="ň"/>
			<glyph d="M329 495Q407 495 450 445T494 315V10Q494 0 484 0H364Q354 0 354 10V288Q354 328 334 352T279 376Q244 376 223 352T203 288V10Q203 0 193 0H73Q63 0 63 10V474Q63 484 73 484H193Q203 484 203 474V440H204Q244 495 329 495ZM-20 680H76Q86 680 86 670V586Q86 573 78 566L-4 495Q-11 488 -19 488Q-30 488 -30 499V670Q-30 680 -20 680Z" horiz-adv-x="553" unicode="ŉ"/>
			<glyph d="M75 680H195Q207 680 212 670L452 242H457V670Q457 680 467 680H580Q590 680 590 670V19Q590 -184 389 -184H356Q346 -184 346 -174V-67Q346 -57 356 -57H375Q445 -57 449 -1V2L203 437H198V10Q198 0 188 0H75Q65 0 65 10V670Q65 680 75 680Z" horiz-adv-x="655" unicode="Ŋ"/>
			<glyph d="M329 495Q407 495 450 445T494 315V-5Q494 -180 315 -180H282Q272 -180 272 -170V-72Q272 -62 282 -62H301Q322 -62 338 -53T354 -7V288Q354 328 334 352T279 376Q244 376 223 352T203 288V10Q203 0 193 0H73Q63 0 63 10V474Q63 484 73 484H193Q203 484 203 474V440H204Q246 495 329 495Z" horiz-adv-x="553" unicode="ŋ"/>
			<glyph d="M314 691Q405 691 470 648T562 526Q570 500 575 465T581 340Q581 284 578 240T562 154Q536 74 470 31T314 -11Q223 -11 157 31T66 154Q58 180 52 214T47 340Q47 396 49 440T66 526Q92 606 157 648T314 691ZM314 561Q231 561 207 486Q196 453 196 340Q196 227 207 194Q231 119 314 119Q397 119 421 194Q432 227 432 340Q432 453 421 486Q397 561 314 561ZM172 867H455Q465 867 465 857V781Q465 771 455 771H172Q162 771 162 781V857Q162 867 172 867Z" horiz-adv-x="628" unicode="Ō"/>
			<glyph d="M265 495Q342 495 398 459T475 359Q491 308 491 242Q491 176 475 125Q454 60 398 24T265 -11Q188 -11 132 24T55 125Q39 176 39 242Q39 308 55 359Q76 424 132 459T265 495ZM265 377Q207 377 190 325Q181 297 181 242Q181 187 190 159Q207 107 265 107Q323 107 340 159Q349 187 349 242Q349 297 340 325Q323 377 265 377ZM123 670H406Q416 670 416 660V585Q416 575 406 575H123Q113 575 113 585V660Q113 670 123 670Z" horiz-adv-x="530" unicode="ō"/>
			<glyph d="M314 691Q405 691 470 648T562 526Q570 500 575 465T581 340Q581 284 578 240T562 154Q536 74 470 31T314 -11Q223 -11 157 31T66 154Q58 180 52 214T47 340Q47 396 49 440T66 526Q92 606 157 648T314 691ZM314 561Q231 561 207 486Q196 453 196 340Q196 227 207 194Q231 119 314 119Q397 119 421 194Q432 227 432 340Q432 453 421 486Q397 561 314 561ZM171 886H229Q239 886 242 875Q259 833 314 833Q370 833 385 875Q389 886 399 886H456Q467 886 467 875Q464 820 422 782T314 744Q248 744 205 781T161 875Q161 886 171 886Z" horiz-adv-x="628" unicode="Ŏ"/>
			<glyph d="M265 495Q342 495 398 459T475 359Q491 308 491 242Q491 176 475 125Q454 60 398 24T265 -11Q188 -11 132 24T55 125Q39 176 39 242Q39 308 55 359Q76 424 132 459T265 495ZM265 377Q207 377 190 325Q181 297 181 242Q181 187 190 159Q207 107 265 107Q323 107 340 159Q349 187 349 242Q349 297 340 325Q323 377 265 377ZM122 687H180Q190 687 193 677Q209 634 265 634Q321 634 336 677Q340 687 350 687H407Q418 687 418 677Q415 622 373 584T265 546Q199 546 156 583T112 677Q112 687 122 687Z" horiz-adv-x="530" unicode="ŏ"/>
			<glyph d="M314 691Q405 691 470 648T562 526Q570 500 575 465T581 340Q581 284 578 240T562 154Q536 74 470 31T314 -11Q223 -11 157 31T66 154Q58 180 52 214T47 340Q47 396 49 440T66 526Q92 606 157 648T314 691ZM314 561Q231 561 207 486Q196 453 196 340Q196 227 207 194Q231 119 314 119Q397 119 421 194Q432 227 432 340Q432 453 421 486Q397 561 314 561ZM428 888H525Q529 888 530 885T529 878L447 766Q440 756 428 756H347Q343 756 341 759T342 766L411 878Q417 888 428 888ZM257 888H354Q358 888 359 885T358 878L275 766Q269 756 256 756H175Q171 756 169 759T170 766L240 878Q246 888 257 888Z" horiz-adv-x="628" unicode="Ő"/>
			<glyph d="M265 495Q342 495 398 459T475 359Q491 308 491 242Q491 176 475 125Q454 60 398 24T265 -11Q188 -11 132 24T55 125Q39 176 39 242Q39 308 55 359Q76 424 132 459T265 495ZM265 377Q207 377 190 325Q181 297 181 242Q181 187 190 159Q207 107 265 107Q323 107 340 159Q349 187 349 242Q349 297 340 325Q323 377 265 377ZM382 700H479Q483 700 484 697T484 690L404 559Q398 549 387 549H305Q294 549 299 559L366 690Q371 700 382 700ZM211 700H308Q312 700 313 697T313 690L233 559Q226 549 215 549H134Q123 549 128 559L195 690Q200 700 211 700Z" horiz-adv-x="530" unicode="ő"/>
			<glyph d="M302 691Q382 691 430 648H432V670Q432 680 442 680H878Q888 680 888 670V563Q888 553 878 553H585Q579 553 579 547V412Q579 406 585 406H829Q839 406 839 396V290Q839 280 829 280H585Q579 280 579 274V133Q579 127 585 127H878Q888 127 888 117V10Q888 0 878 0H442Q432 0 432 10V32H430Q382 -11 302 -11Q214 -11 153 31T66 153Q47 214 47 340Q47 466 66 527Q92 607 153 649T302 691ZM314 561Q231 561 207 486Q196 453 196 340Q196 227 207 194Q231 119 314 119Q397 119 421 194Q432 227 432 340Q432 453 421 486Q397 561 314 561Z" horiz-adv-x="932" unicode="Œ"/>
			<glyph d="M265 495Q363 495 419 439H421Q473 495 572 495Q651 495 705 459T781 359Q796 311 796 210Q796 200 786 200H493Q487 200 487 194L492 167Q513 103 593 103Q658 103 703 146Q712 152 718 146L784 84Q792 78 784 70Q749 33 695 11T579 -11Q478 -11 422 48H420Q362 -11 265 -11Q188 -11 132 24T55 126Q39 175 39 242Q39 308 55 359Q76 424 132 459T265 495ZM573 388Q543 388 521 373T492 335Q487 318 487 299Q487 293 493 293H652Q658 293 658 299Q658 323 653 335Q646 359 624 373T573 388ZM265 377Q207 377 190 325Q181 297 181 242Q181 187 190 160Q207 107 265 107Q323 107 340 160Q349 187 349 242Q349 297 340 325Q323 377 265 377Z" horiz-adv-x="836" unicode="œ"/>
			<glyph d="M75 680H346Q449 680 513 621T577 469Q577 405 544 355T456 280L590 12Q592 8 590 4T583 0H441Q430 0 426 10L309 259H218Q212 259 212 253V10Q212 0 202 0H75Q65 0 65 10V670Q65 680 75 680ZM218 553Q212 553 212 547V390Q212 384 218 384H338Q379 384 404 407T430 469Q430 507 404 530T338 553ZM328 889H448Q452 889 454 885T453 879L330 763Q321 754 311 754H218Q214 754 212 757T214 764L309 879Q317 889 328 889Z" horiz-adv-x="624" unicode="Ŕ"/>
			<glyph d="M330 495Q381 495 415 466Q422 460 418 452L362 350Q357 344 348 348Q312 371 278 370Q203 367 203 265V10Q203 0 193 0H73Q63 0 63 10V474Q63 484 73 484H193Q203 484 203 474V433H204Q241 495 330 495ZM246 701H361Q365 701 367 697T366 691L267 561Q260 551 248 551H157Q146 551 151 561L228 691Q234 701 246 701Z" horiz-adv-x="426" unicode="ŕ"/>
			<glyph d="M75 680H346Q449 680 513 621T577 469Q577 405 544 355T456 280L590 12Q592 8 590 4T583 0H441Q430 0 426 10L309 259H218Q212 259 212 253V10Q212 0 202 0H75Q65 0 65 10V670Q65 680 75 680ZM218 553Q212 553 212 547V390Q212 384 218 384H338Q379 384 404 407T430 469Q430 507 404 530T338 553ZM260 -50H362Q372 -50 372 -60V-139Q372 -152 364 -159L277 -230Q267 -238 261 -238Q250 -238 250 -226V-60Q250 -50 260 -50Z" horiz-adv-x="624" unicode="Ŗ"/>
			<glyph d="M330 495Q381 495 415 466Q422 460 418 452L362 350Q357 344 348 348Q312 371 278 370Q203 367 203 265V10Q203 0 193 0H73Q63 0 63 10V474Q63 484 73 484H193Q203 484 203 474V433H204Q241 495 330 495ZM83 -50H185Q195 -50 195 -60V-139Q195 -152 187 -159L100 -230Q90 -238 84 -238Q73 -238 73 -226V-60Q73 -50 83 -50Z" horiz-adv-x="426" unicode="ŗ"/>
			<glyph d="M75 680H346Q449 680 513 621T577 469Q577 405 544 355T456 280L590 12Q592 8 590 4T583 0H441Q430 0 426 10L309 259H218Q212 259 212 253V10Q212 0 202 0H75Q65 0 65 10V670Q65 680 75 680ZM218 553Q212 553 212 547V390Q212 384 218 384H338Q379 384 404 407T430 469Q430 507 404 530T338 553ZM134 894H214Q226 894 236 884L288 830H290L343 884Q353 894 365 894H445Q449 894 450 891T449 884L345 754Q338 744 327 744H252Q240 744 233 754L130 884Q127 888 128 891T134 894Z" horiz-adv-x="624" unicode="Ř"/>
			<glyph d="M330 495Q381 495 415 466Q422 460 418 452L362 350Q357 344 348 348Q312 371 278 370Q203 367 203 265V10Q203 0 193 0H73Q63 0 63 10V474Q63 484 73 484H193Q203 484 203 474V433H204Q241 495 330 495ZM79 698H158Q170 698 180 688L233 634H235L287 688Q297 698 309 698H389Q393 698 394 695T393 688L290 557Q283 547 271 547H196Q185 547 178 557L74 688Q71 691 73 694T79 698Z" horiz-adv-x="426" unicode="ř"/>
			<glyph d="M296 691Q362 691 423 672T527 620Q536 614 529 605L468 514Q462 506 454 511Q374 563 296 563Q253 563 229 542T205 489Q205 429 311 414L347 409Q561 380 561 203Q561 108 491 48T294 -11Q218 -11 145 16T32 82Q24 90 31 99L107 186Q113 194 122 187Q210 117 300 117Q352 117 381 139T411 198Q411 229 387 247T306 274L270 279Q55 309 55 483Q55 577 121 634T296 691ZM347 889H467Q471 889 473 885T472 879L349 763Q340 754 330 754H237Q233 754 231 757T233 764L328 879Q336 889 347 889Z" horiz-adv-x="595" unicode="Ś"/>
			<glyph d="M253 495Q296 495 350 482T449 435Q456 428 450 420L394 351Q388 344 380 349Q319 388 249 388Q188 388 188 348Q188 331 202 321T255 308L308 302Q469 286 469 155Q468 80 411 34T253 -11Q119 -11 33 64Q26 71 33 78L98 151Q104 157 112 151Q181 98 260 98Q296 98 315 110T335 144Q335 162 320 172T266 186L212 192Q135 200 94 237T54 340Q54 412 107 453T253 495ZM279 701H394Q398 701 400 697T399 691L300 561Q293 551 281 551H190Q179 551 184 561L261 691Q267 701 279 701Z" horiz-adv-x="505" unicode="ś"/>
			<glyph d="M296 691Q362 691 423 672T527 620Q536 614 529 605L468 514Q462 506 454 511Q374 563 296 563Q253 563 229 542T205 489Q205 429 311 414L347 409Q561 380 561 203Q561 108 491 48T294 -11Q218 -11 145 16T32 82Q24 90 31 99L107 186Q113 194 122 187Q210 117 300 117Q352 117 381 139T411 198Q411 229 387 247T306 274L270 279Q55 309 55 483Q55 577 121 634T296 691ZM263 898H338Q349 898 356 888L460 757Q463 753 461 750T456 747H376Q364 747 354 757L301 811H299L247 757Q237 747 225 747H145Q141 747 139 750T141 757L244 888Q251 898 263 898Z" horiz-adv-x="595" unicode="Ŝ"/>
			<glyph d="M253 495Q296 495 350 482T449 435Q456 428 450 420L394 351Q388 344 380 349Q319 388 249 388Q188 388 188 348Q188 331 202 321T255 308L308 302Q469 286 469 155Q468 80 411 34T253 -11Q119 -11 33 64Q26 71 33 78L98 151Q104 157 112 151Q181 98 260 98Q296 98 315 110T335 144Q335 162 320 172T266 186L212 192Q135 200 94 237T54 340Q54 412 107 453T253 495ZM217 701H292Q304 701 311 691L414 560Q417 556 415 553T410 550H330Q318 550 308 560L256 614H254L201 560Q191 550 179 550H100Q96 550 94 553T95 560L199 691Q206 701 217 701Z" horiz-adv-x="505" unicode="ŝ"/>
			<glyph d="M296 691Q362 691 423 672T527 620Q536 614 529 605L468 514Q462 506 454 511Q374 563 296 563Q253 563 229 542T205 489Q205 429 311 414L347 409Q561 380 561 203Q561 122 508 65T358 -7L314 -150Q311 -160 298 -160H201Q191 -160 194 -150L251 -9Q183 0 125 24T32 82Q24 90 31 99L107 186Q113 194 122 187Q210 117 300 117Q352 117 381 139T411 198Q411 229 387 247T306 274L270 279Q55 309 55 483Q55 577 121 634T296 691Z" horiz-adv-x="595" unicode="Ş"/>
			<glyph d="M253 495Q296 495 350 482T449 435Q456 428 450 420L394 351Q388 344 380 349Q319 388 249 388Q188 388 188 348Q188 331 202 321T255 308L308 302Q469 286 469 155Q468 93 427 50T313 -6L269 -150Q266 -160 253 -160H156Q146 -160 149 -150L207 -8Q103 2 33 64Q26 71 33 78L98 151Q104 157 112 151Q181 98 260 98Q296 98 315 110T335 144Q335 162 320 172T266 186L212 192Q135 200 94 237T54 340Q54 412 107 453T253 495Z" horiz-adv-x="505" unicode="ş"/>
			<glyph d="M296 691Q362 691 423 672T527 620Q536 614 529 605L468 514Q462 506 454 511Q374 563 296 563Q253 563 229 542T205 489Q205 429 311 414L347 409Q561 380 561 203Q561 108 491 48T294 -11Q218 -11 145 16T32 82Q24 90 31 99L107 186Q113 194 122 187Q210 117 300 117Q352 117 381 139T411 198Q411 229 387 247T306 274L270 279Q55 309 55 483Q55 577 121 634T296 691ZM144 894H224Q236 894 246 884L298 830H300L353 884Q363 894 375 894H455Q459 894 460 891T459 884L355 754Q348 744 337 744H262Q250 744 243 754L140 884Q137 888 138 891T144 894Z" horiz-adv-x="595" unicode="Š"/>
			<glyph d="M253 495Q296 495 350 482T449 435Q456 428 450 420L394 351Q388 344 380 349Q319 388 249 388Q188 388 188 348Q188 331 202 321T255 308L308 302Q469 286 469 155Q468 80 411 34T253 -11Q119 -11 33 64Q26 71 33 78L98 151Q104 157 112 151Q181 98 260 98Q296 98 315 110T335 144Q335 162 320 172T266 186L212 192Q135 200 94 237T54 340Q54 412 107 453T253 495ZM97 698H176Q188 698 198 688L251 634H253L305 688Q315 698 327 698H407Q411 698 412 695T411 688L308 557Q301 547 289 547H214Q203 547 196 557L92 688Q89 691 91 694T97 698Z" horiz-adv-x="505" unicode="š"/>
			<glyph d="M27 680H530Q540 680 540 670V559Q540 549 530 549H358Q352 549 352 543V10Q352 0 342 0H215Q205 0 205 10V543Q205 549 199 549H27Q17 549 17 559V670Q17 680 27 680ZM227 -50H329Q339 -50 339 -60V-139Q339 -152 331 -159L244 -230Q234 -238 228 -238Q217 -238 217 -226V-60Q217 -50 227 -50Z" horiz-adv-x="557" unicode="Ţ"/>
			<glyph d="M83 630H202Q212 630 212 620V490Q212 484 218 484H280Q290 484 290 474V391Q290 381 280 381H218Q212 381 212 375V161Q212 141 219 127T256 113H280Q290 113 290 103V4Q290 -6 280 -6H227Q154 -6 113 27T73 155V375Q73 381 67 381H37Q27 381 27 391V474Q27 484 37 484H67Q73 484 73 490V620Q73 630 83 630ZM136 -50H238Q248 -50 248 -60V-139Q248 -152 240 -159L153 -230Q143 -238 137 -238Q126 -238 126 -226V-60Q126 -50 136 -50Z" horiz-adv-x="331" unicode="ţ"/>
			<glyph d="M27 680H530Q540 680 540 670V559Q540 549 530 549H358Q352 549 352 543V10Q352 0 342 0H215Q205 0 205 10V543Q205 549 199 549H27Q17 549 17 559V670Q17 680 27 680ZM122 894H202Q214 894 224 884L276 830H278L331 884Q341 894 353 894H433Q437 894 438 891T437 884L333 754Q326 744 315 744H240Q228 744 221 754L118 884Q115 888 116 891T122 894Z" horiz-adv-x="557" unicode="Ť"/>
			<glyph d="M83 630H202Q212 630 212 620V490Q212 484 218 484H280Q290 484 290 474V391Q290 381 280 381H218Q212 381 212 375V161Q212 141 219 127T256 113H280Q290 113 290 103V4Q290 -6 280 -6H227Q154 -6 113 27T73 155V375Q73 381 67 381H37Q27 381 27 391V474Q27 484 37 484H67Q73 484 73 490V620Q73 630 83 630ZM293 680H389Q399 680 399 670V586Q399 573 391 566L309 495Q302 488 294 488Q283 488 283 499V670Q283 680 293 680Z" horiz-adv-x="342" unicode="ť"/>
			<glyph d="M28 680H531Q541 680 541 670V559Q541 549 531 549H359Q353 549 353 543V430Q353 424 359 424H448Q458 424 458 414V326Q458 316 448 316H359Q353 316 353 310V10Q353 0 343 0H216Q206 0 206 10V310Q206 316 200 316H111Q101 316 101 326V414Q101 424 111 424H200Q206 424 206 430V543Q206 549 200 549H28Q18 549 18 559V670Q18 680 28 680Z" horiz-adv-x="558" unicode="Ŧ"/>
			<glyph d="M83 630H202Q212 630 212 620V490Q212 484 218 484H280Q290 484 290 474V391Q290 381 280 381H218Q212 381 212 375V331Q212 325 218 325H268Q278 325 278 315V248Q278 238 268 238H218Q212 238 212 232V161Q212 141 219 127T256 113H280Q290 113 290 103V4Q290 -6 280 -6H227Q154 -6 113 27T73 155V232Q73 238 67 238H47Q37 238 37 248V315Q37 325 47 325H67Q73 325 73 331V375Q73 381 67 381H37Q27 381 27 391V474Q27 484 37 484H67Q73 484 73 490V620Q73 630 83 630Z" horiz-adv-x="331" unicode="ŧ"/>
			<glyph d="M72 680H199Q209 680 209 670V246Q209 187 240 153T323 119Q374 119 405 153T436 246V670Q436 680 446 680H573Q583 680 583 670V250Q583 127 511 58T323 -11Q206 -11 134 58T62 250V670Q62 680 72 680ZM259 886Q292 886 333 865Q365 847 392 847Q423 847 462 878Q465 881 468 880T472 876V804Q472 792 463 783Q430 748 385 748Q350 748 311 769Q280 787 251 787Q220 787 182 756Q179 753 176 754T173 758V830Q173 842 181 851Q216 886 259 886Z" horiz-adv-x="645" unicode="Ũ"/>
			<glyph d="M68 484H188Q198 484 198 474V196Q198 156 217 132T272 108Q307 108 326 132T346 196V474Q346 484 356 484H476Q486 484 486 474V10Q486 0 476 0H356Q346 0 346 10V45H345Q303 -11 221 -11Q143 -11 100 38T58 169V474Q58 484 68 484ZM209 691Q243 691 284 669Q318 651 342 651Q375 651 413 683Q416 686 419 685T423 680V608Q423 597 414 588Q380 552 336 552Q304 552 262 574Q229 592 204 592Q170 592 133 560Q130 557 127 558T124 563V635Q124 646 132 655Q168 691 209 691Z" horiz-adv-x="549" unicode="ũ"/>
			<glyph d="M72 680H199Q209 680 209 670V246Q209 187 240 153T323 119Q374 119 405 153T436 246V670Q436 680 446 680H573Q583 680 583 670V250Q583 127 511 58T323 -11Q206 -11 134 58T62 250V670Q62 680 72 680ZM181 867H464Q474 867 474 857V781Q474 771 464 771H181Q171 771 171 781V857Q171 867 181 867Z" horiz-adv-x="645" unicode="Ū"/>
			<glyph d="M68 484H188Q198 484 198 474V196Q198 156 217 132T272 108Q307 108 326 132T346 196V474Q346 484 356 484H476Q486 484 486 474V10Q486 0 476 0H356Q346 0 346 10V45H345Q303 -11 221 -11Q143 -11 100 38T58 169V474Q58 484 68 484ZM132 670H415Q425 670 425 660V585Q425 575 415 575H132Q122 575 122 585V660Q122 670 132 670Z" horiz-adv-x="549" unicode="ū"/>
			<glyph d="M72 680H199Q209 680 209 670V246Q209 187 240 153T323 119Q374 119 405 153T436 246V670Q436 680 446 680H573Q583 680 583 670V250Q583 127 511 58T323 -11Q206 -11 134 58T62 250V670Q62 680 72 680ZM179 886H237Q247 886 250 875Q267 833 322 833Q378 833 393 875Q397 886 407 886H464Q475 886 475 875Q472 820 430 782T322 744Q256 744 213 781T169 875Q169 886 179 886Z" horiz-adv-x="645" unicode="Ŭ"/>
			<glyph d="M68 484H188Q198 484 198 474V196Q198 156 217 132T272 108Q307 108 326 132T346 196V474Q346 484 356 484H476Q486 484 486 474V10Q486 0 476 0H356Q346 0 346 10V45H345Q303 -11 221 -11Q143 -11 100 38T58 169V474Q58 484 68 484ZM131 687H189Q199 687 202 677Q218 634 274 634Q330 634 345 677Q349 687 359 687H416Q427 687 427 677Q424 622 382 584T274 546Q208 546 165 583T121 677Q121 687 131 687Z" horiz-adv-x="549" unicode="ŭ"/>
			<glyph d="M72 680H199Q209 680 209 670V246Q209 187 240 153T323 119Q374 119 405 153T436 246V670Q436 680 446 680H573Q583 680 583 670V250Q583 127 511 58T323 -11Q206 -11 134 58T62 250V670Q62 680 72 680ZM322 925Q367 925 398 894T429 819Q429 774 398 743T322 712Q277 712 246 743T215 819Q215 864 246 894T322 925ZM322 867Q302 867 288 853T275 819Q275 798 288 784T322 771Q341 771 354 784T368 819Q368 839 354 853T322 867Z" horiz-adv-x="645" unicode="Ů"/>
			<glyph d="M68 484H188Q198 484 198 474V196Q198 156 217 132T272 108Q307 108 326 132T346 196V474Q346 484 356 484H476Q486 484 486 474V10Q486 0 476 0H356Q346 0 346 10V45H345Q303 -11 221 -11Q143 -11 100 38T58 169V474Q58 484 68 484ZM274 737Q319 737 350 706T381 630Q381 585 350 554T274 524Q229 524 198 554T167 630Q167 676 198 706T274 737ZM274 679Q254 679 240 665T227 630Q227 610 240 596T274 582Q293 582 306 596T320 630Q320 651 306 665T274 679Z" horiz-adv-x="549" unicode="ů"/>
			<glyph d="M72 680H199Q209 680 209 670V246Q209 187 240 153T323 119Q374 119 405 153T436 246V670Q436 680 446 680H573Q583 680 583 670V250Q583 127 511 58T323 -11Q206 -11 134 58T62 250V670Q62 680 72 680ZM440 888H537Q541 888 542 885T541 878L459 766Q452 756 440 756H359Q355 756 353 759T354 766L423 878Q429 888 440 888ZM269 888H366Q370 888 371 885T370 878L287 766Q281 756 268 756H187Q183 756 181 759T182 766L252 878Q258 888 269 888Z" horiz-adv-x="645" unicode="Ű"/>
			<glyph d="M68 484H188Q198 484 198 474V196Q198 156 217 132T272 108Q307 108 326 132T346 196V474Q346 484 356 484H476Q486 484 486 474V10Q486 0 476 0H356Q346 0 346 10V45H345Q303 -11 221 -11Q143 -11 100 38T58 169V474Q58 484 68 484ZM392 700H489Q493 700 494 697T494 690L414 559Q408 549 397 549H315Q304 549 309 559L376 690Q381 700 392 700ZM221 700H318Q322 700 323 697T323 690L243 559Q236 549 225 549H144Q133 549 138 559L205 690Q210 700 221 700Z" horiz-adv-x="549" unicode="ű"/>
			<glyph d="M72 680H199Q209 680 209 670V246Q209 187 240 153T323 119Q374 119 405 153T436 246V670Q436 680 446 680H573Q583 680 583 670V250Q583 147 532 81T396 -3Q337 -48 337 -75Q337 -96 358 -96Q368 -96 382 -88Q391 -84 395 -92L427 -151Q431 -158 423 -165Q384 -191 334 -191Q288 -191 259 -166T231 -99Q231 -53 274 -7Q177 6 119 73T62 250V670Q62 680 72 680Z" horiz-adv-x="645" unicode="Ų"/>
			<glyph d="M68 484H188Q198 484 198 474V196Q198 156 217 132T272 108Q307 108 326 132T346 196V474Q346 484 356 484H476Q486 484 486 474V10Q486 3 480 0Q394 -43 394 -75Q394 -96 416 -96Q424 -96 440 -88Q448 -83 453 -92L484 -151Q488 -158 480 -165Q441 -191 391 -191Q345 -191 316 -166T288 -99Q288 -77 299 -53T354 0Q346 2 346 10V45H345Q303 -11 221 -11Q143 -11 100 38T58 169V474Q58 484 68 484Z" horiz-adv-x="550" unicode="ų"/>
			<glyph d="M20 680H149Q159 680 161 670L259 243H261L377 670Q380 680 390 680H477Q486 680 489 670L609 243H611L705 670Q706 680 717 680H845Q855 680 853 670L678 10Q676 0 665 0H565Q555 0 552 10L434 433H432L313 10Q310 0 300 0H200Q191 0 188 10L12 670Q10 680 20 680ZM395 898H470Q481 898 488 888L592 757Q595 753 593 750T588 747H508Q496 747 486 757L433 811H431L379 757Q369 747 357 747H277Q273 747 271 750T273 757L376 888Q383 898 395 898Z" horiz-adv-x="865" unicode="Ŵ"/>
			<glyph d="M25 484H148Q159 484 162 474L242 186H244L327 474Q330 484 341 484H425Q435 484 438 474L523 186H525L601 474Q604 484 614 484H737Q748 484 745 474L590 10Q587 0 578 0H478Q469 0 466 10L383 291H381L296 10Q293 0 284 0H185Q176 0 173 10L18 474Q15 484 25 484ZM343 701H418Q430 701 437 691L540 560Q543 556 541 553T536 550H456Q444 550 434 560L382 614H380L327 560Q317 550 305 550H226Q222 550 220 553T221 560L325 691Q332 701 343 701Z" horiz-adv-x="763" unicode="ŵ"/>
			<glyph d="M16 680H146Q157 680 161 670L284 422H287L410 670Q414 680 425 680H551Q556 680 558 677T558 670L357 271V10Q357 0 347 0H220Q210 0 210 10V271L9 670Q5 680 16 680ZM245 898H320Q331 898 338 888L442 757Q445 753 443 750T438 747H358Q346 747 336 757L283 811H281L229 757Q219 747 207 747H127Q123 747 121 750T123 757L226 888Q233 898 245 898Z" horiz-adv-x="568" unicode="Ŷ"/>
			<glyph d="M21 484H149Q158 484 161 474L258 194H260L350 474Q353 484 362 484H486Q497 484 494 474L298 -41Q271 -111 235 -145T127 -180H93Q83 -180 83 -170V-72Q83 -62 93 -62H114Q163 -62 180 -12L193 24L13 474Q10 484 21 484ZM217 701H292Q304 701 311 691L414 560Q417 556 415 553T410 550H330Q318 550 308 560L256 614H254L201 560Q191 550 179 550H100Q96 550 94 553T95 560L199 691Q206 701 217 701Z" horiz-adv-x="507" unicode="ŷ"/>
			<glyph d="M16 680H146Q157 680 161 670L284 422H287L410 670Q414 680 425 680H551Q556 680 558 677T558 670L357 271V10Q357 0 347 0H220Q210 0 210 10V271L9 670Q5 680 16 680ZM340 878H430Q440 878 440 868V770Q440 760 430 760H340Q330 760 330 770V868Q330 878 340 878ZM137 878H227Q237 878 237 868V770Q237 760 227 760H137Q127 760 127 770V868Q127 878 137 878Z" horiz-adv-x="568" unicode="Ÿ"/>
			<glyph d="M61 680H496Q506 680 506 670V560L503 550L209 133V131H496Q506 131 506 121V10Q506 0 496 0H50Q40 0 40 10V120L43 130L336 547V549H61Q51 549 51 559V670Q51 680 61 680ZM315 889H435Q439 889 441 885T440 879L317 763Q308 754 298 754H205Q201 754 199 757T201 764L296 879Q304 889 315 889Z" horiz-adv-x="546" unicode="Ź"/>
			<glyph d="M69 484H434Q444 484 444 474V379L441 369L213 117V115H434Q444 115 444 105V10Q444 0 434 0H56Q46 0 46 10V100L49 110L279 367V369H69Q59 369 59 379V474Q59 484 69 484ZM274 701H389Q393 701 395 697T394 691L295 561Q288 551 276 551H185Q174 551 179 561L256 691Q262 701 274 701Z" horiz-adv-x="490" unicode="ź"/>
			<glyph d="M61 680H496Q506 680 506 670V560L503 550L209 133V131H496Q506 131 506 121V10Q506 0 496 0H50Q40 0 40 10V120L43 130L336 547V549H61Q51 549 51 559V670Q51 680 61 680ZM215 878H330Q340 878 340 868V770Q340 760 330 760H215Q205 760 205 770V868Q205 878 215 878Z" horiz-adv-x="546" unicode="Ż"/>
			<glyph d="M69 484H434Q444 484 444 474V379L441 369L213 117V115H434Q444 115 444 105V10Q444 0 434 0H56Q46 0 46 10V100L49 110L279 367V369H69Q59 369 59 379V474Q59 484 69 484ZM191 680H306Q316 680 316 670V571Q316 561 306 561H191Q181 561 181 571V670Q181 680 191 680Z" horiz-adv-x="490" unicode="ż"/>
			<glyph d="M61 680H496Q506 680 506 670V560L503 550L209 133V131H496Q506 131 506 121V10Q506 0 496 0H50Q40 0 40 10V120L43 130L336 547V549H61Q51 549 51 559V670Q51 680 61 680ZM118 894H198Q210 894 220 884L272 830H274L327 884Q337 894 349 894H429Q433 894 434 891T433 884L329 754Q322 744 311 744H236Q224 744 217 754L114 884Q111 888 112 891T118 894Z" horiz-adv-x="546" unicode="Ž"/>
			<glyph d="M69 484H434Q444 484 444 474V379L441 369L213 117V115H434Q444 115 444 105V10Q444 0 434 0H56Q46 0 46 10V100L49 110L279 367V369H69Q59 369 59 379V474Q59 484 69 484ZM94 698H173Q185 698 195 688L248 634H250L302 688Q312 698 324 698H404Q408 698 409 695T408 688L305 557Q298 547 286 547H211Q200 547 193 557L89 688Q86 691 88 694T94 698Z" horiz-adv-x="490" unicode="ž"/>
			<glyph d="M436 680H470Q480 680 480 670V573Q480 563 470 563H449Q395 563 385 508L371 417H449Q459 417 459 407V323Q459 313 449 313H355L306 -9Q293 -91 254 -135T118 -180H86Q76 -180 76 -170V-73Q76 -63 86 -63H105Q136 -63 151 -51T171 -6L219 313H158Q148 313 148 323V407Q148 417 158 417H235L250 512Q264 601 307 640T436 680Z" unicode="ƒ"/>
			<glyph d="M296 691Q362 691 423 672T527 620Q536 614 529 605L468 514Q462 506 454 511Q374 563 296 563Q253 563 229 542T205 489Q205 429 311 414L347 409Q561 380 561 203Q561 108 491 48T294 -11Q218 -11 145 16T32 82Q24 90 31 99L107 186Q113 194 122 187Q210 117 300 117Q352 117 381 139T411 198Q411 229 387 247T306 274L270 279Q55 309 55 483Q55 577 121 634T296 691ZM245 -50H347Q357 -50 357 -60V-139Q357 -152 349 -159L262 -230Q252 -238 246 -238Q235 -238 235 -226V-60Q235 -50 245 -50Z" horiz-adv-x="595" unicode="Ș"/>
			<glyph d="M253 495Q296 495 350 482T449 435Q456 428 450 420L394 351Q388 344 380 349Q319 388 249 388Q188 388 188 348Q188 331 202 321T255 308L308 302Q469 286 469 155Q468 80 411 34T253 -11Q119 -11 33 64Q26 71 33 78L98 151Q104 157 112 151Q181 98 260 98Q296 98 315 110T335 144Q335 162 320 172T266 186L212 192Q135 200 94 237T54 340Q54 412 107 453T253 495ZM204 -50H306Q316 -50 316 -60V-139Q316 -152 308 -159L221 -230Q211 -238 205 -238Q194 -238 194 -226V-60Q194 -50 204 -50Z" horiz-adv-x="505" unicode="ș"/>
			<glyph d="M27 680H530Q540 680 540 670V559Q540 549 530 549H358Q352 549 352 543V10Q352 0 342 0H215Q205 0 205 10V543Q205 549 199 549H27Q17 549 17 559V670Q17 680 27 680ZM227 -50H329Q339 -50 339 -60V-139Q339 -152 331 -159L244 -230Q234 -238 228 -238Q217 -238 217 -226V-60Q217 -50 227 -50Z" horiz-adv-x="557" unicode="Ț"/>
			<glyph d="M83 630H202Q212 630 212 620V490Q212 484 218 484H280Q290 484 290 474V391Q290 381 280 381H218Q212 381 212 375V161Q212 141 219 127T256 113H280Q290 113 290 103V4Q290 -6 280 -6H227Q154 -6 113 27T73 155V375Q73 381 67 381H37Q27 381 27 391V474Q27 484 37 484H67Q73 484 73 490V620Q73 630 83 630ZM136 -50H238Q248 -50 248 -60V-139Q248 -152 240 -159L153 -230Q143 -238 137 -238Q126 -238 126 -226V-60Q126 -50 136 -50Z" horiz-adv-x="331" unicode="ț"/>
			<glyph d="M73 484H193Q203 484 203 474V-5Q203 -180 22 -180H-11Q-21 -180 -21 -170V-72Q-21 -62 -11 -62H9Q31 -62 47 -53T63 -6V474Q63 484 73 484Z" horiz-adv-x="266" unicode="ȷ"/>
			<glyph d="M189 701H264Q276 701 283 691L386 560Q389 556 387 553T382 550H302Q290 550 280 560L228 614H226L173 560Q163 550 151 550H72Q68 550 66 553T67 560L171 691Q178 701 189 701Z" horiz-adv-x="454" unicode="ˆ"/>
			<glyph d="M72 698H151Q163 698 173 688L226 634H228L280 688Q290 698 302 698H382Q386 698 387 695T386 688L283 557Q276 547 264 547H189Q178 547 171 557L67 688Q64 691 66 694T72 698Z" horiz-adv-x="454" unicode="ˇ"/>
			<glyph d="M85 866H368Q378 866 378 856V781Q378 771 368 771H85Q75 771 75 781V856Q75 866 85 866Z" horiz-adv-x="454" unicode="ˉ"/>
			<glyph d="M84 687H142Q152 687 155 677Q171 634 227 634Q283 634 298 677Q302 687 312 687H369Q380 687 380 677Q377 622 335 584T227 546Q161 546 118 583T74 677Q74 687 84 687Z" horiz-adv-x="454" unicode="˘"/>
			<glyph d="M169 680H284Q294 680 294 670V571Q294 561 284 561H169Q159 561 159 571V670Q159 680 169 680Z" horiz-adv-x="454" unicode="˙"/>
			<glyph d="M227 737Q272 737 303 706T334 630Q334 585 303 554T227 524Q182 524 151 554T120 630Q120 676 151 706T227 737ZM227 679Q207 679 193 665T180 630Q180 610 193 596T227 582Q246 582 259 596T273 630Q273 651 259 665T227 679Z" horiz-adv-x="454" unicode="˚"/>
			<glyph d="M200 10H304Q309 10 309 6Q309 2 305 0Q221 -42 221 -75Q221 -96 242 -96Q252 -96 267 -88Q275 -83 280 -92L311 -151Q315 -158 307 -165Q268 -191 218 -191Q172 -191 143 -166T115 -99Q115 -42 175 0Q188 10 200 10Z" horiz-adv-x="454" unicode="˛"/>
			<glyph d="M161 691Q195 691 236 669Q270 651 294 651Q327 651 365 683Q368 686 371 685T375 680V608Q375 597 366 588Q332 552 288 552Q256 552 214 574Q181 592 156 592Q122 592 85 560Q82 557 79 558T76 563V635Q76 646 84 655Q120 691 161 691Z" horiz-adv-x="454" unicode="˜"/>
			<glyph d="M307 700H404Q408 700 409 697T409 690L329 559Q323 549 312 549H230Q219 549 224 559L291 690Q296 700 307 700ZM136 700H233Q237 700 238 697T238 690L158 559Q151 549 140 549H59Q48 549 53 559L120 690Q125 700 136 700Z" horiz-adv-x="454" unicode="˝"/>
			<glyph d="M252 724H404Q408 724 410 721T410 714L251 478Q244 468 235 468H126Q115 468 120 478L236 714Q240 724 252 724Z" horiz-adv-x="529" unicode="ʹ"/>
			<glyph d="M295 64H404Q415 64 410 54L294 -182Q290 -192 278 -192H126Q122 -192 120 -189T120 -182L279 54Q286 64 295 64Z" horiz-adv-x="529" unicode="͵"/>
			<glyph d="M75 484H195Q205 484 205 474V355Q205 345 195 345H75Q65 345 65 355V474Q65 484 75 484ZM79 140H192Q202 140 202 130V9Q202 -3 194 -11L94 -101Q86 -108 79 -108Q69 -108 69 -97V130Q69 140 79 140Z" horiz-adv-x="270" unicode=";"/>
			<glyph d="M192 701H329Q343 701 334 686L258 561Q252 551 242 551H148Q139 551 143 564L179 691Q182 701 192 701Z" horiz-adv-x="485" unicode="΄"/>
			<glyph d="M452 680H545Q555 680 555 670V571Q555 561 545 561H452Q442 561 442 571V670Q442 680 452 680ZM97 680H189Q199 680 199 670V571Q199 561 189 561H97Q87 561 87 571V670Q87 680 97 680ZM270 701H412Q422 701 416 691L361 561Q356 551 347 551H247Q238 551 241 561L257 691Q260 701 270 701Z" horiz-adv-x="573" unicode="΅"/>
			<glyph d="M261 680H387Q397 680 400 670L630 10Q633 0 623 0H493Q483 0 480 10L441 129H203L165 10Q162 0 152 0H21Q11 0 14 10L248 670Q251 680 261 680ZM321 492L244 254H401L324 492ZM48 680H185Q199 680 190 665L114 540Q108 530 98 530H4Q-5 530 -1 543L35 670Q38 680 48 680Z" horiz-adv-x="644" unicode="Ά"/>
			<glyph d="M70 334H189Q199 334 199 324V205Q199 195 189 195H70Q60 195 60 205V324Q60 334 70 334Z" horiz-adv-x="259" unicode="·"/>
			<glyph d="M75 680H511Q521 680 521 670V563Q521 553 511 553H218Q212 553 212 547V412Q212 406 218 406H462Q472 406 472 396V290Q472 280 462 280H218Q212 280 212 274V133Q212 127 218 127H511Q521 127 521 117V10Q521 0 511 0H75Q65 0 65 10V670Q65 680 75 680ZM-123 680H14Q28 680 19 665L-57 540Q-63 530 -73 530H-167Q-176 530 -172 543L-136 670Q-133 680 -123 680Z" horiz-adv-x="565" unicode="Έ"/>
			<glyph d="M75 680H202Q212 680 212 670V415Q212 409 218 409H440Q446 409 446 415V670Q446 680 456 680H583Q593 680 593 670V10Q593 0 583 0H456Q446 0 446 10V272Q446 278 440 278H218Q212 278 212 272V10Q212 0 202 0H75Q65 0 65 10V670Q65 680 75 680ZM-122 680H15Q29 680 20 665L-56 540Q-62 530 -72 530H-166Q-175 530 -171 543L-135 670Q-132 680 -122 680Z" horiz-adv-x="658" unicode="Ή"/>
			<glyph d="M75 680H202Q212 680 212 670V10Q212 0 202 0H75Q65 0 65 10V670Q65 680 75 680ZM-123 680H14Q28 680 19 665L-57 540Q-63 530 -73 530H-167Q-176 530 -172 543L-136 670Q-133 680 -123 680Z" horiz-adv-x="277" unicode="Ί"/>
			<glyph d="M314 691Q405 691 470 648T562 526Q570 500 575 465T581 340Q581 284 578 240T562 154Q536 74 470 31T314 -11Q223 -11 157 31T66 154Q58 180 52 214T47 340Q47 396 49 440T66 526Q92 606 157 648T314 691ZM314 561Q231 561 207 486Q196 453 196 340Q196 227 207 194Q231 119 314 119Q397 119 421 194Q432 227 432 340Q432 453 421 486Q397 561 314 561ZM-80 680H57Q71 680 62 665L-14 540Q-20 530 -30 530H-124Q-133 530 -129 543L-93 670Q-90 680 -80 680Z" horiz-adv-x="628" unicode="Ό"/>
			<glyph d="M16 680H146Q157 680 161 670L284 422H287L410 670Q414 680 425 680H551Q556 680 558 677T558 670L357 271V10Q357 0 347 0H220Q210 0 210 10V271L9 670Q5 680 16 680ZM-179 680H-42Q-28 680 -37 665L-113 540Q-119 530 -129 530H-223Q-232 530 -228 543L-192 670Q-189 680 -179 680Z" horiz-adv-x="568" unicode="Ύ"/>
			<glyph d="M318 691Q410 691 476 648T569 524Q577 499 582 465T588 340Q588 270 575 214T520 126V124H578Q588 124 588 114V10Q588 0 578 0H365Q355 0 355 10V111Q355 122 364 125Q400 138 419 182T439 340Q439 445 427 486Q416 521 387 541T318 561Q234 561 209 486Q197 450 197 340Q197 251 211 196T271 125Q281 122 281 111V10Q281 0 271 0H58Q48 0 48 10V114Q48 124 58 124H115V126Q81 152 64 202T48 340Q48 387 50 432T67 524Q91 595 152 643T318 691ZM-77 680H60Q74 680 65 665L-11 540Q-17 530 -27 530H-121Q-130 530 -126 543L-90 670Q-87 680 -77 680Z" horiz-adv-x="636" unicode="Ώ"/>
			<glyph d="M68 484H188Q198 484 198 474V159Q198 138 205 123T238 108Q252 108 272 112Q282 114 284 106L304 20Q305 13 299 9Q263 -11 189 -11Q126 -11 92 23T58 137V474Q58 484 68 484ZM284 680H377Q387 680 387 670V571Q387 561 377 561H284Q274 561 274 571V670Q274 680 284 680ZM-71 680H21Q31 680 31 670V571Q31 561 21 561H-71Q-81 561 -81 571V670Q-81 680 -71 680ZM102 701H244Q254 701 248 691L193 561Q188 551 179 551H79Q70 551 73 561L89 691Q92 701 102 701Z" horiz-adv-x="325" unicode="ΐ"/>
			<glyph d="M261 680H387Q397 680 400 670L630 10Q633 0 623 0H493Q483 0 480 10L441 129H203L165 10Q162 0 152 0H21Q11 0 14 10L248 670Q251 680 261 680ZM321 492L244 254H401L324 492Z" horiz-adv-x="644" unicode="Α"/>
			<glyph d="M75 680H340Q447 680 502 631T557 499Q557 398 478 354V352Q514 338 541 296T569 198Q569 100 507 50T333 0H75Q65 0 65 10V670Q65 680 75 680ZM218 561Q212 561 212 555V408Q212 402 218 402H322Q363 402 387 423T411 482Q411 519 387 540T322 561ZM218 289Q212 289 212 283V125Q212 119 218 119H330Q374 119 398 141T422 204Q422 243 398 266T330 289Z" horiz-adv-x="610" unicode="Β"/>
			<glyph d="M74 680H490Q500 680 500 670V563Q500 553 490 553H217Q211 553 211 547V10Q211 0 201 0H74Q64 0 64 10V670Q64 680 74 680Z" horiz-adv-x="536" unicode="Γ"/>
			<glyph d="M264 680H390Q400 680 403 670L633 10Q636 0 626 0H24Q14 0 17 10L251 670Q254 680 264 680ZM324 492L204 127Q203 121 209 121H441Q448 121 446 127L327 492Z" horiz-adv-x="650" unicode="Δ"/>
			<glyph d="M75 680H511Q521 680 521 670V563Q521 553 511 553H218Q212 553 212 547V412Q212 406 218 406H462Q472 406 472 396V290Q472 280 462 280H218Q212 280 212 274V133Q212 127 218 127H511Q521 127 521 117V10Q521 0 511 0H75Q65 0 65 10V670Q65 680 75 680Z" horiz-adv-x="565" unicode="Ε"/>
			<glyph d="M61 680H496Q506 680 506 670V560L503 550L209 133V131H496Q506 131 506 121V10Q506 0 496 0H50Q40 0 40 10V120L43 130L336 547V549H61Q51 549 51 559V670Q51 680 61 680Z" horiz-adv-x="546" unicode="Ζ"/>
			<glyph d="M75 680H202Q212 680 212 670V415Q212 409 218 409H440Q446 409 446 415V670Q446 680 456 680H583Q593 680 593 670V10Q593 0 583 0H456Q446 0 446 10V272Q446 278 440 278H218Q212 278 212 272V10Q212 0 202 0H75Q65 0 65 10V670Q65 680 75 680Z" horiz-adv-x="658" unicode="Η"/>
			<glyph d="M322 562Q251 562 221 516Q209 497 202 464T196 340Q196 281 199 236T219 167Q250 119 321 119Q394 119 425 167Q435 183 441 213T448 340Q448 415 443 453T423 516Q393 562 322 562ZM249 391H395Q405 391 405 381V299Q405 289 395 289H249Q239 289 239 299V381Q239 391 249 391ZM322 691Q397 691 451 668T543 596Q569 562 583 511T597 340Q597 248 586 188T545 86Q473 -11 321 -11Q171 -11 99 86Q72 122 59 177T47 340Q47 437 57 494T101 596Q138 646 192 668T322 691Z" horiz-adv-x="644" unicode="Θ"/>
			<glyph d="M75 680H202Q212 680 212 670V10Q212 0 202 0H75Q65 0 65 10V670Q65 680 75 680Z" horiz-adv-x="277" unicode="Ι"/>
			<glyph d="M75 680H202Q212 680 212 670V376L438 671Q444 680 455 680H600Q604 680 605 675T604 667L398 409L623 12Q626 7 624 3T617 0H470Q460 0 455 9L301 295L212 183V10Q212 0 202 0H75Q65 0 65 10V670Q65 680 75 680Z" horiz-adv-x="645" unicode="Κ"/>
			<glyph d="M261 680H387Q397 680 400 670L630 10Q633 0 623 0H493Q483 0 480 10L324 492H321L165 10Q162 0 152 0H21Q11 0 14 10L248 670Q251 680 261 680Z" horiz-adv-x="644" unicode="Λ"/>
			<glyph d="M75 680H194Q206 680 210 670L382 282H386L555 670Q559 680 571 680H688Q698 680 698 670V10Q698 0 688 0H575Q565 0 565 10V393H561L435 106Q429 93 416 93H347Q334 93 328 106L202 393H198V10Q198 0 188 0H75Q65 0 65 10V670Q65 680 75 680Z" horiz-adv-x="763" unicode="Μ"/>
			<glyph d="M75 680H195Q206 680 212 670L452 242H457V670Q457 680 467 680H580Q590 680 590 670V10Q590 0 580 0H461Q450 0 444 10L203 437H198V10Q198 0 188 0H75Q65 0 65 10V670Q65 680 75 680Z" horiz-adv-x="655" unicode="Ν"/>
			<glyph d="M51 130H511Q521 130 521 120V10Q521 0 511 0H51Q41 0 41 10V120Q41 130 51 130ZM99 405H462Q472 405 472 395V288Q472 278 462 278H99Q89 278 89 288V395Q89 405 99 405ZM51 680H511Q521 680 521 670V560Q521 550 511 550H51Q41 550 41 560V670Q41 680 51 680Z" horiz-adv-x="562" unicode="Ξ"/>
			<glyph d="M314 691Q405 691 470 648T562 526Q570 500 575 465T581 340Q581 284 578 240T562 154Q536 74 470 31T314 -11Q223 -11 157 31T66 154Q58 180 52 214T47 340Q47 396 49 440T66 526Q92 606 157 648T314 691ZM314 561Q231 561 207 486Q196 453 196 340Q196 227 207 194Q231 119 314 119Q397 119 421 194Q432 227 432 340Q432 453 421 486Q397 561 314 561Z" horiz-adv-x="628" unicode="Ο"/>
			<glyph d="M75 680H573Q583 680 583 670V10Q583 0 573 0H446Q436 0 436 10V543Q436 549 430 549H218Q212 549 212 543V10Q212 0 202 0H75Q65 0 65 10V670Q65 680 75 680Z" horiz-adv-x="648" unicode="Π"/>
			<glyph d="M75 680H339Q448 680 512 619T576 461Q576 364 511 303T339 243H218Q212 243 212 237V10Q212 0 202 0H75Q65 0 65 10V670Q65 680 75 680ZM218 553Q212 553 212 547V376Q212 370 218 370H330Q375 370 402 395T429 461Q429 502 402 527T330 553Z" horiz-adv-x="605" unicode="Ρ"/>
			<glyph d="M56 680H491Q501 680 501 670V560Q501 550 491 550H225V547L357 359Q362 352 358 345L209 134V131H496Q506 131 506 121V10Q506 0 496 0H50Q40 0 40 10V120L44 132L185 335L50 534L46 545V670Q46 680 56 680Z" horiz-adv-x="546" unicode="Σ"/>
			<glyph d="M27 680H530Q540 680 540 670V559Q540 549 530 549H358Q352 549 352 543V10Q352 0 342 0H215Q205 0 205 10V543Q205 549 199 549H27Q17 549 17 559V670Q17 680 27 680Z" horiz-adv-x="557" unicode="Τ"/>
			<glyph d="M16 680H146Q157 680 161 670L284 422H287L410 670Q414 680 425 680H551Q556 680 558 677T558 670L357 271V10Q357 0 347 0H220Q210 0 210 10V271L9 670Q5 680 16 680Z" horiz-adv-x="568" unicode="Υ"/>
			<glyph d="M339 716H459Q469 716 469 706V659Q607 655 677 574T748 344Q748 40 469 29V-26Q469 -36 459 -36H339Q329 -36 329 -26V29Q186 33 117 116T49 344Q49 499 121 577T329 659V706Q329 716 339 716ZM329 528Q262 524 230 485T198 344Q198 245 228 204T329 159ZM468 529V160Q530 163 564 199T599 344Q599 440 570 481T468 529Z" horiz-adv-x="797" unicode="Φ"/>
			<glyph d="M33 680H172Q182 680 188 670L296 486H299L407 670Q413 680 423 680H562Q567 680 568 676T568 668L378 351L582 12Q584 8 582 4T576 0H437Q426 0 420 10L299 217H296L174 10Q168 0 157 0H19Q14 0 12 4T13 12L216 351L27 668Q25 672 26 676T33 680Z" horiz-adv-x="595" unicode="Χ"/>
			<glyph d="M66 680H183Q194 680 194 671V335Q194 270 213 240T300 208V670Q300 680 310 680H429Q439 680 439 670V208Q499 210 522 236T545 335V671Q545 680 556 680H673Q684 680 684 671V343Q684 220 631 154T439 82V10Q439 0 429 0H310Q300 0 300 10V82Q176 88 115 146T55 343V671Q55 680 66 680Z" horiz-adv-x="739" unicode="Ψ"/>
			<glyph d="M318 691Q410 691 476 648T569 524Q577 499 582 465T588 340Q588 270 575 214T520 126V124H578Q588 124 588 114V10Q588 0 578 0H365Q355 0 355 10V111Q355 122 364 125Q400 138 419 182T439 340Q439 445 427 486Q416 521 387 541T318 561Q234 561 209 486Q197 450 197 340Q197 251 211 196T271 125Q281 122 281 111V10Q281 0 271 0H58Q48 0 48 10V114Q48 124 58 124H115V126Q81 152 64 202T48 340Q48 387 50 432T67 524Q91 595 152 643T318 691Z" horiz-adv-x="636" unicode="Ω"/>
			<glyph d="M75 680H202Q212 680 212 670V10Q212 0 202 0H75Q65 0 65 10V670Q65 680 75 680ZM195 878H285Q295 878 295 868V770Q295 760 285 760H195Q185 760 185 770V868Q185 878 195 878ZM-8 878H82Q92 878 92 868V770Q92 760 82 760H-8Q-18 760 -18 770V868Q-18 878 -8 878Z" horiz-adv-x="277" unicode="Ϊ"/>
			<glyph d="M16 680H146Q157 680 161 670L284 422H287L410 670Q414 680 425 680H551Q556 680 558 677T558 670L357 271V10Q357 0 347 0H220Q210 0 210 10V271L9 670Q5 680 16 680ZM341 878H431Q441 878 441 868V770Q441 760 431 760H341Q331 760 331 770V868Q331 878 341 878ZM138 878H228Q238 878 238 868V770Q238 760 228 760H138Q128 760 128 770V868Q128 878 138 878Z" horiz-adv-x="568" unicode="Ϋ"/>
			<glyph d="M227 495Q271 495 309 480T379 417H380Q387 434 396 476Q398 484 408 484H533Q548 484 544 464Q519 359 456 207L466 185Q483 147 498 130T536 113H546Q558 113 558 101V4Q558 -6 548 -6H519Q471 -6 439 5T379 62H378Q327 -11 226 -11Q139 -11 88 51T37 242Q37 311 56 371T120 463T227 495ZM263 377Q204 377 188 325Q179 297 179 242Q179 188 188 159Q205 107 263 107Q344 107 344 242Q344 377 263 377ZM286 701H423Q437 701 428 686L352 561Q346 551 336 551H242Q233 551 237 564L273 691Q276 701 286 701Z" horiz-adv-x="593" unicode="ά"/>
			<glyph d="M249 496Q339 496 396 478Q399 477 403 474T405 459L389 380Q388 371 377 373Q315 386 260 386Q193 386 193 342Q193 304 251 304H313Q327 304 327 290V209Q327 197 314 197H238Q183 197 183 152Q183 107 257 107Q292 107 382 125Q386 126 391 126T399 119L420 33Q422 25 413 20Q342 -11 229 -11Q35 -11 35 132Q35 213 117 256V257Q53 291 53 361Q53 496 249 496ZM249 701H386Q400 701 391 686L315 561Q309 551 299 551H205Q196 551 200 564L236 691Q239 701 249 701Z" horiz-adv-x="453" unicode="έ"/>
			<glyph d="M350 495Q423 495 467 449T511 313V-170Q511 -180 501 -180H381Q371 -180 371 -170V287Q371 376 295 376Q264 376 241 353T218 291V10Q218 0 208 0H88Q78 0 78 10V333Q78 375 51 375Q40 375 40 385V479Q40 489 51 489Q111 489 149 473T200 411H202Q242 495 350 495ZM252 701H389Q403 701 394 686L318 561Q312 551 302 551H208Q199 551 203 564L239 691Q242 701 252 701Z" horiz-adv-x="570" unicode="ή"/>
			<glyph d="M68 484H188Q198 484 198 474V159Q198 138 205 123T238 108Q252 108 272 112Q282 114 284 106L304 20Q305 13 299 9Q263 -11 189 -11Q126 -11 92 23T58 137V474Q58 484 68 484ZM123 701H260Q274 701 265 686L189 561Q183 551 173 551H79Q70 551 74 564L110 691Q113 701 123 701Z" horiz-adv-x="325" unicode="ί"/>
			<glyph d="M40 489H74Q164 489 186 458T208 368V196Q208 108 284 108Q360 108 360 196V474Q360 484 370 484H490Q500 484 500 474V227Q500 103 448 46T283 -11Q170 -11 119 46T68 227V334Q68 375 43 375Q30 375 30 385V479Q30 489 40 489ZM404 680H497Q507 680 507 670V571Q507 561 497 561H404Q394 561 394 571V670Q394 680 404 680ZM49 680H141Q151 680 151 670V571Q151 561 141 561H49Q39 561 39 571V670Q39 680 49 680ZM222 701H364Q374 701 368 691L313 561Q308 551 299 551H199Q190 551 193 561L209 691Q212 701 222 701Z" horiz-adv-x="555" unicode="ΰ"/>
			<glyph d="M227 495Q271 495 309 480T379 417H380Q387 434 396 476Q398 484 408 484H533Q548 484 544 464Q519 359 456 207L466 185Q483 147 498 130T536 113H546Q558 113 558 101V4Q558 -6 548 -6H519Q471 -6 439 5T379 62H378Q327 -11 226 -11Q139 -11 88 51T37 242Q37 311 56 371T120 463T227 495ZM263 377Q204 377 188 325Q179 297 179 242Q179 188 188 159Q205 107 263 107Q344 107 344 242Q344 377 263 377Z" horiz-adv-x="593" unicode="α"/>
			<glyph d="M286 691Q392 691 442 644T492 516Q492 428 425 380V378Q475 363 508 319T542 207Q542 113 491 51T344 -11Q293 -11 261 0T204 37H203V-170Q203 -180 193 -180H73Q63 -180 63 -170V445Q63 691 286 691ZM287 572Q203 572 203 476V219Q203 167 228 141T295 115Q343 115 365 142T387 210Q387 300 301 300H276Q266 300 266 310V408Q266 418 276 418H294Q329 418 347 438T365 494Q365 531 344 551T287 572Z" horiz-adv-x="581" unicode="β"/>
			<glyph d="M36 489H49Q124 489 158 470T213 391L288 174H290L318 250Q365 379 369 474Q369 484 380 484H505Q513 484 513 475Q513 431 495 364T425 168L355 -6L363 -162Q363 -172 353 -172H224Q214 -172 214 -162L222 -6L100 305Q86 341 76 358T40 375Q25 375 25 385V479Q25 489 36 489Z" horiz-adv-x="543" unicode="γ"/>
			<glyph d="M284 691Q379 691 460 665Q468 662 466 655L437 559Q434 550 422 554Q353 574 315 574Q273 574 273 542Q273 517 313 494L334 482Q497 388 497 226Q497 120 440 54T266 -11Q163 -11 101 51T40 221Q40 379 175 442V443L165 451Q110 496 110 556Q110 619 156 655T284 691ZM272 363Q232 354 207 318T182 220Q182 163 206 135T270 107Q311 107 333 137T355 221Q355 325 272 363Z" horiz-adv-x="535" unicode="δ"/>
			<glyph d="M249 496Q339 496 396 478Q399 477 403 474T405 459L389 380Q388 371 377 373Q315 386 260 386Q193 386 193 342Q193 304 251 304H313Q327 304 327 290V209Q327 197 314 197H238Q183 197 183 152Q183 107 257 107Q292 107 382 125Q386 126 391 126T399 119L420 33Q422 25 413 20Q342 -11 229 -11Q35 -11 35 132Q35 213 117 256V257Q53 291 53 361Q53 496 249 496Z" horiz-adv-x="453" unicode="ε"/>
			<glyph d="M79 680H413Q423 680 423 670V580Q184 405 184 246Q184 210 200 183T293 123L320 111Q366 91 390 63T414 -7Q414 -64 381 -104T269 -179Q261 -182 258 -175L217 -106Q214 -99 222 -94Q246 -80 261 -67T276 -35Q276 -28 271 -20T230 1L214 7Q123 41 81 87T39 224Q39 302 83 392T222 562V563H79Q69 563 69 573V670Q69 680 79 680Z" horiz-adv-x="425" unicode="ζ"/>
			<glyph d="M350 495Q423 495 467 449T511 313V-170Q511 -180 501 -180H381Q371 -180 371 -170V287Q371 376 295 376Q264 376 241 353T218 291V10Q218 0 208 0H88Q78 0 78 10V333Q78 375 51 375Q40 375 40 385V479Q40 489 51 489Q111 489 149 473T200 411H202Q242 495 350 495Z" horiz-adv-x="570" unicode="η"/>
			<glyph d="M273 574Q226 574 204 534T182 395H364Q363 480 345 527T273 574ZM273 692Q503 692 503 344Q503 143 442 68T273 -11Q152 -11 97 75T43 344Q43 528 102 610T273 692ZM182 288Q183 188 202 147T273 107Q319 107 341 141T364 288Z" horiz-adv-x="546" unicode="θ"/>
			<glyph d="M68 484H188Q198 484 198 474V159Q198 138 205 123T238 108Q252 108 272 112Q282 114 284 106L304 20Q305 13 299 9Q263 -11 189 -11Q126 -11 92 23T58 137V474Q58 484 68 484Z" horiz-adv-x="340" unicode="ι"/>
			<glyph d="M464 489H497Q507 489 507 479V386Q507 375 496 375H489Q470 375 458 371T417 332L363 268L537 10Q539 6 537 3T531 0H395Q386 0 380 10L273 168L203 88V10Q203 0 193 0H73Q63 0 63 10V474Q63 484 73 484H193Q203 484 203 474V268L319 417Q345 448 375 468T464 489Z" horiz-adv-x="554" unicode="κ"/>
			<glyph d="M100 680H122Q185 680 224 658T297 553L451 167Q461 142 470 127T504 113H510Q521 113 521 103V5Q521 -6 511 -6H476Q425 -6 390 10T333 84L263 258H262L160 10Q156 0 147 0H16Q4 0 10 12L197 429L158 527Q151 544 141 555T106 566H101Q91 566 91 576V670Q91 680 100 680Z" horiz-adv-x="541" unicode="λ"/>
			<glyph d="M72 484H192Q202 484 202 474V197Q202 156 221 132T276 109Q313 109 335 134T358 206V474Q358 484 368 484H488Q498 484 498 474V147Q498 129 504 121T527 113Q537 113 537 103V9Q537 -6 526 -6H509Q459 -6 429 6T381 61H380Q364 32 338 12T257 -7Q244 -7 227 -2T203 8H202V-170Q202 -180 192 -180H72Q62 -180 62 -170V474Q62 484 72 484Z" horiz-adv-x="602" unicode="μ"/>
			<glyph d="M19 484H148Q158 484 162 474L258 187H260L297 290Q333 392 333 474Q333 484 344 484H470Q478 484 478 475Q478 372 396 172L330 10Q327 0 318 0H198Q189 0 186 10L11 474Q8 484 19 484Z" horiz-adv-x="508" unicode="ν"/>
			<glyph d="M69 680H413Q423 680 423 670V568L307 561Q221 556 221 489Q221 418 310 418H372Q382 418 382 408V304Q382 294 374 294H304Q259 294 228 273T198 210Q198 185 212 167T283 128L314 116Q359 98 391 71T424 -11Q424 -66 390 -105T279 -179Q271 -183 268 -175L227 -106Q224 -99 232 -94Q250 -84 268 -70T286 -36Q286 -26 279 -18T243 -1L218 8Q120 43 79 83T39 190Q39 299 147 354V356Q74 392 74 465Q74 491 89 520T142 562V563H69Q59 563 59 573V670Q59 680 69 680Z" horiz-adv-x="450" unicode="ξ"/>
			<glyph d="M265 495Q342 495 398 459T475 359Q491 308 491 242Q491 176 475 125Q454 60 398 24T265 -11Q188 -11 132 24T55 125Q39 176 39 242Q39 308 55 359Q76 424 132 459T265 495ZM265 377Q207 377 190 325Q181 297 181 242Q181 187 190 159Q207 107 265 107Q323 107 340 159Q349 187 349 242Q349 297 340 325Q323 377 265 377Z" horiz-adv-x="530" unicode="ο"/>
			<glyph d="M40 484H555Q565 484 565 474V373Q565 363 555 363H511Q505 363 505 357V154Q505 137 510 125T538 113H543Q553 113 553 103V4Q553 -6 543 -6H512Q445 -6 405 26T366 147V357Q366 363 360 363H235Q229 363 229 357V10Q229 0 219 0H100Q90 0 90 10V357Q90 363 84 363H40Q30 363 30 373V474Q30 484 40 484Z" horiz-adv-x="605" unicode="π"/>
			<glyph d="M273 495Q379 495 440 433Q500 371 500 242Q500 121 447 55T304 -11Q228 -11 189 32H188V-170Q188 -180 178 -180H58Q54 -180 51 -175T48 -165V250Q48 376 109 435T273 495ZM274 377Q216 377 199 325Q190 297 190 242Q190 187 199 159Q216 107 274 107Q332 107 349 159Q358 187 358 242Q358 297 349 325Q332 377 274 377Z" horiz-adv-x="539" unicode="ρ"/>
			<glyph d="M269 495Q363 495 420 469Q431 465 427 452L404 367Q403 363 400 357T389 354Q353 364 336 368T288 372Q238 372 210 343T182 263Q182 245 188 226T212 189T295 133Q334 110 365 78T396 -7Q396 -64 362 -104T251 -179Q244 -182 240 -175L200 -108Q195 -99 204 -94Q230 -80 244 -67T258 -35Q258 -24 251 -12T208 20Q119 70 77 123T35 259Q35 368 98 431T269 495Z" horiz-adv-x="440" unicode="ς"/>
			<glyph d="M297 484H530Q540 484 540 474V381Q540 371 530 371H436V370Q454 356 471 322T488 238Q488 175 472 126Q450 59 395 24T262 -11Q182 -11 127 25T52 126Q36 175 36 242Q36 484 297 484ZM284 368Q178 368 178 247Q178 187 187 158Q204 107 265 107Q321 107 338 162Q346 187 346 249Q346 295 337 323T302 368Z" horiz-adv-x="570" unicode="σ"/>
			<glyph d="M30 484H402Q412 484 412 474V373Q412 363 402 363H284Q278 363 278 357V163Q278 138 286 123T328 108L365 113Q373 114 375 107L393 16Q394 9 386 5Q349 -11 274 -11Q212 -11 175 20T138 133V357Q138 363 132 363H30Q20 363 20 373V474Q20 484 30 484Z" horiz-adv-x="442" unicode="τ"/>
			<glyph d="M40 489H74Q164 489 186 458T208 368V196Q208 108 284 108Q360 108 360 196V474Q360 484 370 484H490Q500 484 500 474V227Q500 103 448 46T283 -11Q170 -11 119 46T68 227V334Q68 375 43 375Q30 375 30 385V479Q30 489 40 489Z" horiz-adv-x="555" unicode="υ"/>
			<glyph d="M278 383Q225 381 201 350T178 247Q178 183 197 144T278 105ZM288 600H400Q407 600 407 590V503Q525 498 586 429T647 243Q647 122 582 55T407 -15V-170Q407 -180 400 -180H288Q278 -180 278 -170V-15Q159 -11 98 60T38 244Q38 358 98 428T278 503V590Q278 600 288 600ZM407 383V105Q452 105 479 132T507 242Q507 309 486 345T407 383Z" horiz-adv-x="685" unicode="φ"/>
			<glyph d="M51 489H88Q152 489 186 467T252 379L292 302H293L381 475Q386 484 395 484H529Q534 484 535 479T534 470L363 165L454 0Q470 -29 487 -48T527 -67H540Q550 -67 552 -78V-175Q552 -186 543 -186H523Q473 -186 435 -174T359 -100L279 36H278L168 -170Q163 -180 154 -180H31Q17 -180 27 -162L212 172L115 338Q105 356 95 365T62 375H53Q42 375 42 386V478Q42 489 51 489Z" horiz-adv-x="571" unicode="χ"/>
			<glyph d="M304 610H413Q423 610 423 600V107Q471 108 492 129T513 208V474Q513 484 523 484H643Q653 484 653 474V206Q653 105 607 47T423 -15V-170Q423 -180 413 -180H304Q294 -180 294 -170V-15Q176 -13 119 36T64 206L65 333Q65 358 61 366T42 375Q32 375 32 385V479Q32 489 42 489H79Q140 489 172 465T205 373V208Q205 162 220 135T294 107V600Q294 610 304 610Z" horiz-adv-x="710" unicode="ψ"/>
			<glyph d="M134 490L244 453Q254 450 248 440Q186 329 186 213Q186 174 195 145T238 116Q259 116 274 132T290 219V316Q290 330 301 330H414Q425 330 425 316V219Q425 166 436 141T478 116Q498 116 513 132T529 213Q529 329 467 440Q462 450 470 453L581 490Q591 494 595 488Q631 442 652 370T673 215Q673 -11 493 -11Q393 -11 359 80H356Q322 -11 222 -11Q42 -11 42 212Q42 299 64 372T120 488Q124 493 134 490Z" horiz-adv-x="715" unicode="ω"/>
			<glyph d="M68 484H188Q198 484 198 474V159Q198 138 205 123T238 108Q252 108 272 112Q282 114 284 106L304 20Q305 13 299 9Q263 -11 189 -11Q126 -11 92 23T58 137V474Q58 484 68 484ZM181 680H274Q284 680 284 670V571Q284 561 274 561H181Q171 561 171 571V670Q171 680 181 680ZM-19 680H73Q83 680 83 670V571Q83 561 73 561H-19Q-29 561 -29 571V670Q-29 680 -19 680Z" horiz-adv-x="325" unicode="ϊ"/>
			<glyph d="M40 489H74Q164 489 186 458T208 368V196Q208 108 284 108Q360 108 360 196V474Q360 484 370 484H490Q500 484 500 474V227Q500 103 448 46T283 -11Q170 -11 119 46T68 227V334Q68 375 43 375Q30 375 30 385V479Q30 489 40 489ZM324 680H417Q427 680 427 670V571Q427 561 417 561H324Q314 561 314 571V670Q314 680 324 680ZM124 680H216Q226 680 226 670V571Q226 561 216 561H124Q114 561 114 571V670Q114 680 124 680Z" horiz-adv-x="555" unicode="ϋ"/>
			<glyph d="M265 495Q342 495 398 459T475 359Q491 308 491 242Q491 176 475 125Q454 60 398 24T265 -11Q188 -11 132 24T55 125Q39 176 39 242Q39 308 55 359Q76 424 132 459T265 495ZM265 377Q207 377 190 325Q181 297 181 242Q181 187 190 159Q207 107 265 107Q323 107 340 159Q349 187 349 242Q349 297 340 325Q323 377 265 377ZM258 701H395Q409 701 400 686L324 561Q318 551 308 551H214Q205 551 209 564L245 691Q248 701 258 701Z" horiz-adv-x="530" unicode="ό"/>
			<glyph d="M40 489H74Q164 489 186 458T208 368V196Q208 108 284 108Q360 108 360 196V474Q360 484 370 484H490Q500 484 500 474V227Q500 103 448 46T283 -11Q170 -11 119 46T68 227V334Q68 375 43 375Q30 375 30 385V479Q30 489 40 489ZM254 701H391Q405 701 396 686L320 561Q314 551 304 551H210Q201 551 205 564L241 691Q244 701 254 701Z" horiz-adv-x="555" unicode="ύ"/>
			<glyph d="M134 490L244 453Q254 450 248 440Q186 329 186 213Q186 174 195 145T238 116Q259 116 274 132T290 219V316Q290 330 301 330H414Q425 330 425 316V219Q425 166 436 141T478 116Q498 116 513 132T529 213Q529 329 467 440Q462 450 470 453L581 490Q591 494 595 488Q631 442 652 370T673 215Q673 -11 493 -11Q393 -11 359 80H356Q322 -11 222 -11Q42 -11 42 212Q42 299 64 372T120 488Q124 493 134 490ZM351 701H488Q502 701 493 686L417 561Q411 551 401 551H307Q298 551 302 564L338 691Q341 701 351 701Z" horiz-adv-x="715" unicode="ώ"/>
			<glyph d="M75 680H511Q521 680 521 670V563Q521 553 511 553H218Q212 553 212 547V412Q212 406 218 406H462Q472 406 472 396V290Q472 280 462 280H218Q212 280 212 274V133Q212 127 218 127H511Q521 127 521 117V10Q521 0 511 0H75Q65 0 65 10V670Q65 680 75 680ZM130 889H250Q261 889 269 879L364 764Q367 760 365 757T360 754H267Q257 754 248 763L125 879Q122 882 124 885T130 889Z" horiz-adv-x="565" unicode="Ѐ"/>
			<glyph d="M75 680H511Q521 680 521 670V563Q521 553 511 553H218Q212 553 212 547V412Q212 406 218 406H462Q472 406 472 396V290Q472 280 462 280H218Q212 280 212 274V133Q212 127 218 127H511Q521 127 521 117V10Q521 0 511 0H75Q65 0 65 10V670Q65 680 75 680ZM347 878H437Q447 878 447 868V770Q447 760 437 760H347Q337 760 337 770V868Q337 878 347 878ZM144 878H234Q244 878 244 868V770Q244 760 234 760H144Q134 760 134 770V868Q134 878 144 878Z" horiz-adv-x="565" unicode="Ё"/>
			<glyph d="M27 680H534Q544 680 544 670V559Q544 549 534 549H360Q354 549 354 543V409Q354 401 363 403Q445 424 521 424Q568 424 610 406T686 344T719 222Q719 118 658 59T475 0H444Q435 0 435 10V118Q435 127 445 127H469Q572 127 572 213Q572 251 544 272T475 293Q415 293 362 272Q354 269 354 260V10Q354 0 344 0H217Q207 0 207 10V543Q207 549 202 549H27Q17 549 17 559V670Q17 680 27 680Z" horiz-adv-x="750" unicode="Ђ"/>
			<glyph d="M75 680H479Q489 680 489 670V558Q489 549 479 549H218Q212 549 212 543V10Q212 0 202 0H75Q65 0 65 10V670Q65 680 75 680ZM310 889H430Q434 889 436 885T435 879L312 763Q303 754 293 754H200Q196 754 194 757T196 764L291 879Q299 889 310 889Z" horiz-adv-x="500" unicode="Ѓ"/>
			<glyph d="M315 691Q488 691 547 548Q550 538 542 534L438 488Q429 484 424 493Q389 565 317 565Q277 565 246 545T205 490Q195 461 194 413Q194 406 201 406H382Q391 406 391 396V291Q391 282 382 282H201Q194 282 194 275Q195 214 207 184Q219 151 249 133T317 115Q390 115 425 187Q430 196 439 192L542 145Q551 141 547 131Q518 63 458 25T315 -12Q227 -12 163 27T71 142Q61 169 54 208T47 341Q47 466 67 527Q93 608 159 649T315 691Z" horiz-adv-x="577" unicode="Є"/>
			<glyph d="M296 691Q362 691 423 672T527 620Q536 614 529 605L468 514Q462 506 454 511Q374 563 296 563Q253 563 229 542T205 489Q205 429 311 414L347 409Q561 380 561 203Q561 108 491 48T294 -11Q218 -11 145 16T32 82Q24 90 31 99L107 186Q113 194 122 187Q210 117 300 117Q352 117 381 139T411 198Q411 229 387 247T306 274L270 279Q55 309 55 483Q55 577 121 634T296 691Z" horiz-adv-x="595" unicode="Ѕ"/>
			<glyph d="M75 680H202Q212 680 212 670V10Q212 0 202 0H75Q65 0 65 10V670Q65 680 75 680Z" horiz-adv-x="277" unicode="І"/>
			<glyph d="M75 680H202Q212 680 212 670V10Q212 0 202 0H75Q65 0 65 10V670Q65 680 75 680ZM195 878H285Q295 878 295 868V770Q295 760 285 760H195Q185 760 185 770V868Q185 878 195 878ZM-8 878H82Q92 878 92 868V770Q92 760 82 760H-8Q-18 760 -18 770V868Q-18 878 -8 878Z" horiz-adv-x="277" unicode="Ї"/>
			<glyph d="M322 680H449Q459 680 459 670V244Q459 121 393 55T211 -11Q151 -11 98 13T21 76Q16 84 22 90L115 161Q122 166 129 159Q163 119 212 119Q259 119 285 149T312 237V670Q312 680 322 680Z" horiz-adv-x="521" unicode="Ј"/>
			<glyph d="M155 680H601Q610 680 610 671V442Q610 436 616 436H738Q851 436 915 376T979 219Q979 120 915 60T738 0H472Q463 0 463 10V543Q463 549 457 549H295Q289 549 289 543V350Q289 157 233 76T61 -4H20Q10 -4 10 6V118Q10 127 20 127H33Q92 127 118 183T145 359V671Q145 680 155 680ZM616 310Q610 310 610 304V133Q610 127 616 127H729Q777 127 804 152T832 221Q832 264 805 287T729 310Z" horiz-adv-x="1010" unicode="Љ"/>
			<glyph d="M75 680H202Q212 680 212 670V427Q212 421 218 421H440Q446 421 446 427V670Q446 680 456 680H583Q593 680 593 670V427Q593 421 599 421H732Q833 421 893 363T953 212Q953 119 893 59T732 0H456Q446 0 446 10V284Q446 290 440 290H218Q212 290 212 284V10Q212 0 202 0H75Q65 0 65 10V670Q65 680 75 680ZM599 296Q593 296 593 290V133Q593 127 599 127H718Q758 127 782 150T806 212Q806 250 782 273T718 296Z" horiz-adv-x="984" unicode="Њ"/>
			<glyph d="M27 680H534Q544 680 544 670V559Q544 549 534 549H360Q356 549 354 545V410Q354 401 364 403Q446 424 521 424Q703 424 703 245V9Q703 0 694 0H566Q556 0 556 9V216Q556 293 475 293Q432 293 370 278Q354 274 354 262V10Q354 0 344 0H217Q207 0 207 10V543Q207 549 202 549H27Q17 549 17 559V670Q17 680 27 680Z" horiz-adv-x="757" unicode="Ћ"/>
			<glyph d="M545 684H587Q597 684 597 674V566Q597 557 587 557H578Q558 557 541 549T512 511L479 428Q458 370 422 356V352Q467 339 488 282L529 173Q537 153 548 140T592 127H603Q613 127 613 118V6Q613 -4 603 -4H555Q495 -4 457 21T397 106L354 218Q332 279 265 279H218Q212 279 212 273V10Q212 0 202 0H75Q65 0 65 10V670Q65 680 75 680H202Q212 680 212 670V416Q212 410 218 410H266Q323 410 346 469L389 575Q407 620 439 652T545 684ZM380 889H500Q504 889 506 885T505 879L382 763Q373 754 363 754H270Q266 754 264 757T266 764L361 879Q369 889 380 889Z" horiz-adv-x="645" unicode="Ќ"/>
			<glyph d="M74 680H203Q212 680 212 671V253H215L463 672Q468 680 477 680H594Q603 680 603 671V10Q603 0 594 0H466Q456 0 456 10V429H453L205 8Q200 0 191 0H74Q65 0 65 10V671Q65 680 74 680ZM170 889H290Q301 889 309 879L404 764Q407 760 405 757T400 754H307Q297 754 288 763L165 879Q162 882 164 885T170 889Z" horiz-adv-x="668" unicode="Ѝ"/>
			<glyph d="M18 680H152Q163 680 167 671L301 370H304L422 671Q426 680 436 680H570Q580 680 575 669L338 115Q287 -4 169 -4H103Q93 -4 93 6V118Q93 127 103 127H143Q199 127 218 170L232 201L12 668Q11 670 11 675Q11 680 18 680ZM222 878Q231 879 234 871Q250 825 302 825Q352 825 370 871Q373 879 382 878L448 869Q456 867 453 855Q430 735 302 735Q174 735 150 855Q147 867 155 869Z" horiz-adv-x="587" unicode="Ў"/>
			<glyph d="M74 680H203Q212 680 212 670V137Q212 131 218 131H432Q438 131 438 137V670Q438 680 447 680H576Q585 680 585 670V9Q585 0 575 0H399Q393 0 393 -6V-123Q393 -133 384 -133H266Q257 -133 257 -123V-6Q257 0 251 0H74Q65 0 65 9V670Q65 680 74 680Z" horiz-adv-x="650" unicode="Џ"/>
			<glyph d="M261 680H387Q397 680 400 670L630 10Q633 0 623 0H493Q483 0 480 10L441 129H203L165 10Q162 0 152 0H21Q11 0 14 10L248 670Q251 680 261 680ZM321 492L244 254H401L324 492Z" horiz-adv-x="644" unicode="А"/>
			<glyph d="M74 680H520Q530 680 530 671V562Q530 552 520 552H218Q212 552 212 546V425Q212 419 218 419H351Q452 419 512 361T572 210Q572 117 512 58T351 0H74Q65 0 65 10V671Q65 680 74 680ZM218 294Q212 294 212 288V131Q212 125 218 125H337Q377 125 401 148T425 210Q425 248 401 271T337 294Z" horiz-adv-x="611" unicode="Б"/>
			<glyph d="M75 680H340Q447 680 502 631T557 499Q557 398 478 354V352Q514 338 541 296T569 198Q569 100 507 50T333 0H75Q65 0 65 10V670Q65 680 75 680ZM218 561Q212 561 212 555V408Q212 402 218 402H322Q363 402 387 423T411 482Q411 519 387 540T322 561ZM218 289Q212 289 212 283V125Q212 119 218 119H330Q374 119 398 141T422 204Q422 243 398 266T330 289Z" horiz-adv-x="610" unicode="В"/>
			<glyph d="M75 680H479Q489 680 489 670V558Q489 549 479 549H218Q212 549 212 543V10Q212 0 202 0H75Q65 0 65 10V670Q65 680 75 680Z" horiz-adv-x="500" unicode="Г"/>
			<glyph d="M152 680H595Q604 680 604 670V137Q604 131 610 131H666Q676 131 676 122V-123Q676 -133 667 -133H549Q541 -133 541 -123V-6Q541 0 535 0H146Q140 0 140 -6V-123Q140 -133 131 -133H13Q5 -133 5 -123V122Q5 131 14 131H52Q65 131 68 139Q107 219 124 314T142 581V671Q142 680 152 680ZM291 549Q285 549 285 543V533Q285 270 219 138Q217 136 218 133T225 131H451Q457 131 457 137V543Q457 549 451 549Z" horiz-adv-x="687" unicode="Д"/>
			<glyph d="M75 680H511Q521 680 521 670V563Q521 553 511 553H218Q212 553 212 547V412Q212 406 218 406H462Q472 406 472 396V290Q472 280 462 280H218Q212 280 212 274V133Q212 127 218 127H511Q521 127 521 117V10Q521 0 511 0H75Q65 0 65 10V670Q65 680 75 680Z" horiz-adv-x="565" unicode="Е"/>
			<glyph d="M57 684H99Q157 684 194 658T255 575L298 469Q322 409 379 409H407Q413 409 413 415V670Q413 680 423 680H550Q560 680 560 670V415Q560 409 566 409H593Q650 409 674 469L717 575Q740 633 777 658T873 684H915Q925 684 925 674V566Q925 557 915 557H905Q884 557 868 550T840 511L807 428Q783 368 749 356V352Q795 339 816 282L856 173Q864 153 877 139T921 126H931Q941 126 941 117V5Q941 -5 931 -5H882Q823 -5 785 21T725 106L682 218Q658 281 593 281H566Q560 281 560 275V10Q560 0 550 0H423Q413 0 413 10V275Q413 281 407 281H380Q314 281 290 218L247 106Q225 48 187 21T90 -5H42Q32 -5 32 5V117Q32 126 42 126H51Q76 126 91 136T116 173L156 282Q177 339 223 352V356Q189 368 165 428L132 511Q124 530 112 543T67 557H57Q47 557 47 566V674Q47 684 57 684Z" horiz-adv-x="973" unicode="Ж"/>
			<glyph d="M280 691Q390 691 454 639T519 499Q519 451 496 411T434 353V351Q477 335 503 293T530 196Q530 104 460 46T283 -11Q112 -11 26 71Q19 76 26 86L88 174Q89 176 93 176T100 175Q180 116 271 116Q315 116 347 139T380 198Q380 239 351 261T278 284H205Q196 284 196 294V397Q196 407 205 407H278Q320 407 345 429T370 490Q370 526 342 545T268 565Q188 565 120 514Q110 508 105 514L46 602Q41 611 47 616Q148 691 280 691Z" horiz-adv-x="580" unicode="З"/>
			<glyph d="M74 680H203Q212 680 212 671V253H215L463 672Q468 680 477 680H594Q603 680 603 671V10Q603 0 594 0H466Q456 0 456 10V429H453L205 8Q200 0 191 0H74Q65 0 65 10V671Q65 680 74 680Z" horiz-adv-x="668" unicode="И"/>
			<glyph d="M74 680H203Q212 680 212 671V253H215L463 672Q468 680 477 680H594Q603 680 603 671V10Q603 0 594 0H466Q456 0 456 10V429H453L205 8Q200 0 191 0H74Q65 0 65 10V671Q65 680 74 680ZM254 878Q263 879 266 871Q282 825 334 825Q384 825 402 871Q405 879 414 878L480 869Q488 867 485 855Q462 735 334 735Q206 735 182 855Q179 867 187 869Z" horiz-adv-x="668" unicode="Й"/>
			<glyph d="M545 684H587Q597 684 597 674V566Q597 557 587 557H578Q558 557 541 549T512 511L479 428Q458 370 422 356V352Q467 339 488 282L529 173Q537 153 548 140T592 127H603Q613 127 613 118V6Q613 -4 603 -4H555Q495 -4 457 21T397 106L354 218Q332 279 265 279H218Q212 279 212 273V10Q212 0 202 0H75Q65 0 65 10V670Q65 680 75 680H202Q212 680 212 670V416Q212 410 218 410H266Q323 410 346 469L389 575Q407 620 439 652T545 684Z" horiz-adv-x="645" unicode="К"/>
			<glyph d="M155 680H601Q610 680 610 671V10Q610 0 602 0H472Q463 0 463 10V543Q463 549 457 549H295Q289 549 289 543V350Q289 181 241 88T68 -4H20Q10 -4 10 6V118Q10 127 20 127H33Q92 127 118 183T145 359V671Q145 680 155 680Z" horiz-adv-x="675" unicode="Л"/>
			<glyph d="M75 680H194Q206 680 210 670L382 282H386L555 670Q559 680 571 680H688Q698 680 698 670V10Q698 0 688 0H575Q565 0 565 10V393H561L435 106Q429 93 416 93H347Q334 93 328 106L202 393H198V10Q198 0 188 0H75Q65 0 65 10V670Q65 680 75 680Z" horiz-adv-x="763" unicode="М"/>
			<glyph d="M75 680H202Q212 680 212 670V415Q212 409 218 409H440Q446 409 446 415V670Q446 680 456 680H583Q593 680 593 670V10Q593 0 583 0H456Q446 0 446 10V272Q446 278 440 278H218Q212 278 212 272V10Q212 0 202 0H75Q65 0 65 10V670Q65 680 75 680Z" horiz-adv-x="658" unicode="Н"/>
			<glyph d="M314 691Q405 691 470 648T562 526Q570 500 575 465T581 340Q581 284 578 240T562 154Q536 74 470 31T314 -11Q223 -11 157 31T66 154Q58 180 52 214T47 340Q47 396 49 440T66 526Q92 606 157 648T314 691ZM314 561Q231 561 207 486Q196 453 196 340Q196 227 207 194Q231 119 314 119Q397 119 421 194Q432 227 432 340Q432 453 421 486Q397 561 314 561Z" horiz-adv-x="628" unicode="О"/>
			<glyph d="M74 680H575Q585 680 585 671V10Q585 0 576 0H447Q438 0 438 10V543Q438 549 432 549H218Q212 549 212 543V10Q212 0 203 0H74Q65 0 65 10V671Q65 680 74 680Z" horiz-adv-x="650" unicode="П"/>
			<glyph d="M75 680H339Q448 680 512 619T576 461Q576 364 511 303T339 243H218Q212 243 212 237V10Q212 0 202 0H75Q65 0 65 10V670Q65 680 75 680ZM218 553Q212 553 212 547V376Q212 370 218 370H330Q375 370 402 395T429 461Q429 502 402 527T330 553Z" horiz-adv-x="605" unicode="Р"/>
			<glyph d="M308 691Q393 691 454 651T545 540Q550 531 540 528L431 479Q422 474 417 484Q384 561 309 561Q231 561 207 486Q196 452 196 340Q196 228 207 194Q231 119 309 119Q384 119 417 196Q422 206 431 201L540 152Q550 149 545 140Q516 68 454 28T308 -11Q218 -11 155 31T66 156Q58 181 52 214T47 340Q47 388 48 433T66 524Q93 606 155 648T308 691Z" horiz-adv-x="575" unicode="С"/>
			<glyph d="M27 680H530Q540 680 540 670V559Q540 549 530 549H358Q352 549 352 543V10Q352 0 342 0H215Q205 0 205 10V543Q205 549 199 549H27Q17 549 17 559V670Q17 680 27 680Z" horiz-adv-x="557" unicode="Т"/>
			<glyph d="M18 680H152Q163 680 167 671L301 370H304L422 671Q426 680 436 680H570Q580 680 575 669L338 115Q287 -4 169 -4H103Q93 -4 93 6V118Q93 127 103 127H143Q199 127 218 170L232 201L12 668Q11 670 11 675Q11 680 18 680Z" horiz-adv-x="587" unicode="У"/>
			<glyph d="M336 691H464Q473 691 473 682V626Q473 620 479 620Q769 606 769 355Q769 225 699 156T479 78Q473 78 473 72V-1Q473 -11 464 -11H335Q326 -11 326 -1V72Q326 78 320 78Q171 87 101 156T31 355Q31 606 320 620Q326 620 326 626V682Q326 691 336 691ZM320 493Q247 490 212 456T178 349Q178 288 208 249T320 205Q326 205 326 211V488Q326 493 320 493ZM480 493Q473 493 473 488V211Q473 205 480 205Q553 210 587 244T622 349Q622 414 592 452T480 493Z" horiz-adv-x="800" unicode="Ф"/>
			<glyph d="M33 680H172Q182 680 188 670L296 486H299L407 670Q413 680 423 680H562Q567 680 568 676T568 668L378 351L582 12Q584 8 582 4T576 0H437Q426 0 420 10L299 217H296L174 10Q168 0 157 0H19Q14 0 12 4T13 12L216 351L27 668Q25 672 26 676T33 680Z" horiz-adv-x="595" unicode="Х"/>
			<glyph d="M74 680H203Q212 680 212 670V137Q212 131 218 131H432Q438 131 438 137V670Q438 680 447 680H576Q585 680 585 670V137Q585 131 591 131H647Q657 131 657 122V-123Q657 -133 648 -133H530Q522 -133 522 -123V-6Q522 0 516 0H74Q65 0 65 9V670Q65 680 74 680Z" horiz-adv-x="668" unicode="Ц"/>
			<glyph d="M59 680H186Q196 680 196 671V441Q196 364 277 364Q331 364 385 377Q399 380 399 391V671Q399 680 408 680H536Q546 680 546 671V10Q546 0 537 0H408Q399 0 399 10V245Q399 253 390 251Q308 230 232 230Q49 230 49 409V671Q49 680 59 680Z" horiz-adv-x="611" unicode="Ч"/>
			<glyph d="M74 680H203Q212 680 212 670V137Q212 131 218 131H396Q402 131 402 137V670Q402 680 410 680H540Q549 680 549 670V137Q549 131 555 131H734Q740 131 740 137V670Q740 680 748 680H877Q887 680 887 670V9Q887 0 877 0H74Q65 0 65 9V670Q65 680 74 680Z" horiz-adv-x="952" unicode="Ш"/>
			<glyph d="M74 680H203Q212 680 212 670V137Q212 131 218 131H396Q402 131 402 137V670Q402 680 410 680H540Q549 680 549 670V137Q549 131 555 131H734Q740 131 740 137V670Q740 680 748 680H877Q887 680 887 670V137Q887 131 893 131H948Q958 131 958 122V-123Q958 -133 949 -133H831Q823 -133 823 -123V-6Q823 0 817 0H74Q65 0 65 9V670Q65 680 74 680Z" horiz-adv-x="969" unicode="Щ"/>
			<glyph d="M23 680H294Q304 680 304 670V442Q304 436 310 436H432Q545 436 609 376T673 219Q673 120 609 60T432 0H167Q157 0 157 10V543Q157 549 152 549H23Q14 549 14 558V670Q14 680 23 680ZM310 310Q304 310 304 304V133Q304 127 310 127H423Q472 127 499 151T526 219Q526 262 499 286T423 310Z" horiz-adv-x="704" unicode="Ъ"/>
			<glyph d="M75 680H202Q212 680 212 670V442Q212 436 218 436H339Q453 436 516 376T580 219Q580 120 516 60T339 0H75Q65 0 65 10V670Q65 680 75 680ZM218 310Q212 310 212 304V133Q212 127 218 127H331Q379 127 406 151T433 219Q433 262 406 286T331 310ZM664 680H791Q801 680 801 670V10Q801 0 791 0H664Q654 0 654 10V670Q654 680 664 680Z" horiz-adv-x="866" unicode="Ы"/>
			<glyph d="M75 680H202Q212 680 212 670V442Q212 436 218 436H339Q453 436 516 376T580 219Q580 120 516 60T339 0H75Q65 0 65 10V670Q65 680 75 680ZM218 310Q212 310 212 304V133Q212 127 218 127H331Q379 127 406 152T433 221Q433 264 406 287T331 310Z" horiz-adv-x="611" unicode="Ь"/>
			<glyph d="M262 691Q352 691 418 649T510 527Q530 466 530 341Q530 284 526 235T506 142Q478 67 414 27T262 -12Q189 -12 125 21T30 131Q26 141 35 145L138 192Q147 196 152 187Q187 115 260 115Q297 115 327 133T370 184Q382 214 383 275Q383 282 376 282H195Q186 282 186 291V396Q186 406 195 406H376Q383 406 383 413Q382 461 372 490Q361 525 330 545T260 565Q188 565 153 493Q148 484 139 488L35 534Q27 538 30 548Q89 691 262 691Z" horiz-adv-x="577" unicode="Э"/>
			<glyph d="M566 691Q652 691 714 649T802 530Q810 504 815 468T821 340Q821 283 818 237T802 150Q777 72 714 30T566 -11Q479 -11 416 30T330 150Q315 198 312 273Q312 279 306 279H218Q212 279 212 273V10Q212 0 202 0H75Q65 0 65 10V670Q65 680 75 680H202Q212 680 212 670V416Q212 410 218 410H306Q312 410 312 416Q317 490 330 530Q355 608 417 649T566 691ZM566 560Q492 560 470 488Q459 452 459 340Q459 229 470 191Q492 120 566 120Q640 120 662 191Q673 224 673 340Q673 456 662 488Q639 560 566 560Z" horiz-adv-x="868" unicode="Ю"/>
			<glyph d="M272 680H552Q561 680 561 671V10Q561 0 552 0H424Q414 0 414 10V247Q414 253 408 253H357Q328 253 310 243T279 200L241 106Q224 62 190 29T83 -4H38Q28 -4 28 6V118Q28 127 38 127H52Q97 127 112 165L140 231Q156 270 186 289V293Q126 307 87 352T48 475Q48 563 108 621T272 680ZM287 552Q247 552 221 529T196 465Q196 422 221 400T287 378H408Q414 378 414 384V546Q414 552 408 552Z" horiz-adv-x="626" unicode="Я"/>
			<glyph d="M253 495Q355 495 411 459T468 320V10Q468 0 458 0H347Q337 0 337 10V42H336Q295 -11 203 -11Q134 -11 88 26T42 137Q42 214 96 253T243 293H329Q335 293 335 299V317Q335 351 313 367T236 383Q170 383 128 352Q120 346 115 354L70 433Q65 442 73 447Q141 495 253 495ZM261 200Q175 200 175 145Q175 94 245 94Q335 94 335 161V194Q335 200 329 200Z" horiz-adv-x="528" unicode="а"/>
			<glyph d="M367 691H474Q483 691 483 682Q482 620 455 581T352 536Q342 535 305 532T240 523T192 498Q162 471 162 413H165Q180 442 215 460T298 478Q394 478 447 424T501 240Q501 116 444 52T277 -12Q223 -12 177 7T103 60Q78 91 64 142T50 316Q50 423 64 488T125 596Q141 611 171 624T256 644T312 652Q356 658 357 682Q357 691 367 691ZM276 366Q234 366 213 340T192 240Q192 170 210 138T276 107Q318 107 338 134T359 240Q359 305 341 335T276 366Z" horiz-adv-x="540" unicode="б"/>
			<glyph d="M72 484H324Q400 484 440 449T480 356Q480 282 416 252V248Q447 238 467 208T488 138Q488 71 444 35T322 0H72Q63 0 63 9V475Q63 484 72 484ZM208 197Q202 197 202 191V105Q202 99 208 99H295Q320 99 334 112T349 149Q349 197 295 197ZM208 385Q202 385 202 379V299Q202 294 208 294H290Q341 294 341 340Q341 385 290 385Z" horiz-adv-x="528" unicode="в"/>
			<glyph d="M72 484H397Q407 484 407 475V375Q407 366 397 366H209Q203 366 203 360V9Q203 0 194 0H72Q63 0 63 9V475Q63 484 72 484Z" horiz-adv-x="415" unicode="г"/>
			<glyph d="M114 484H491Q500 484 500 475V124Q500 118 506 118H550Q559 118 559 109V-95Q559 -104 551 -104H441Q432 -104 432 -95V-6Q432 0 426 0H139Q133 0 133 -6V-95Q133 -104 125 -104H14Q6 -104 6 -95V109Q6 118 15 118H43Q55 118 60 131Q87 206 96 264T105 422V475Q105 484 114 484ZM242 368Q236 368 236 362V340Q236 212 198 125Q195 118 203 118H354Q360 118 360 124V362Q360 368 354 368Z" horiz-adv-x="572" unicode="д"/>
			<glyph d="M263 495Q342 495 396 459T472 359Q488 308 488 210Q488 200 477 200H184Q178 200 178 194L184 167Q193 136 220 119T284 103Q349 103 395 146Q404 153 409 146L475 84Q483 77 476 70Q441 33 387 11T270 -11Q199 -11 139 21T56 127Q39 178 39 242Q39 310 55 358Q76 423 131 459T263 495ZM264 388Q235 388 213 373T183 335Q178 318 178 299Q178 293 184 293H344Q350 293 350 299Q350 318 345 335Q337 359 315 373T264 388Z" horiz-adv-x="527" unicode="е"/>
			<glyph d="M45 488H89Q127 488 157 475T207 413L231 349Q248 303 292 303H312Q318 303 318 309V475Q318 484 327 484H449Q458 484 458 475V309Q458 303 464 303H483Q528 303 545 349L569 413Q584 454 609 471T686 488H731Q740 488 740 479V387Q740 377 731 377H723Q691 377 678 342L663 302Q649 266 629 256V252Q655 246 672 203L691 154Q700 131 709 121T736 111H741Q750 111 750 102V5Q750 -4 741 -4H690Q653 -4 622 10T572 77L546 147Q531 189 486 189H464Q458 189 458 183V9Q458 0 449 0H327Q318 0 318 9V183Q318 189 312 189H290Q244 189 229 147L204 77Q189 34 162 15T86 -4H35Q25 -4 25 5V102Q25 111 35 111H39Q53 111 63 118T84 154L103 203Q119 244 147 252V256Q127 265 113 302L98 342Q85 377 53 377H45Q35 377 35 387V479Q35 488 45 488Z" horiz-adv-x="775" unicode="ж"/>
			<glyph d="M233 496Q329 496 380 461T432 361Q432 328 413 299T364 257V254Q397 243 418 211T439 142Q439 72 382 30T234 -12Q165 -12 115 2T21 51Q15 56 20 64L77 142Q82 147 91 142Q149 100 213 100Q296 100 296 150Q296 197 228 197H165Q156 197 156 206V286Q156 296 165 296H226Q289 296 289 344Q289 387 208 387Q161 387 101 352Q93 346 88 352L41 426Q35 434 44 440Q119 496 233 496Z" horiz-adv-x="479" unicode="з"/>
			<glyph d="M72 484H191Q198 484 200 475V212H203L361 477Q366 484 374 484H498Q507 484 507 475V9Q507 0 498 0H379Q372 0 370 9V280H367L208 8Q203 0 194 0H72Q63 0 63 9V475Q63 484 72 484Z" horiz-adv-x="570" unicode="и"/>
			<glyph d="M72 484H191Q198 484 200 475V212H203L361 477Q366 484 374 484H498Q507 484 507 475V9Q507 0 498 0H379Q372 0 370 9V280H367L208 8Q203 0 194 0H72Q63 0 63 9V475Q63 484 72 484ZM206 684Q215 685 218 678Q225 656 242 641T284 627Q305 627 323 639T350 678Q353 685 362 684L425 674Q433 672 430 660Q407 540 284 540Q160 540 138 660Q135 672 143 674Z" horiz-adv-x="570" unicode="й"/>
			<glyph d="M436 488H487Q496 488 496 479V387Q496 377 487 377H479Q449 377 434 343L416 301Q402 266 383 256V252Q393 249 406 236T429 199L445 156Q454 131 462 121T488 111H496Q505 111 505 102V5Q505 -4 496 -4H449Q398 -4 369 15T325 77L300 147Q293 166 278 176T230 187H209Q203 187 203 181V9Q203 0 194 0H72Q63 0 63 9V475Q63 484 72 484H194Q203 484 203 475V311Q203 305 209 305H236Q278 305 296 349L322 413Q334 443 357 465T436 488Z" horiz-adv-x="530" unicode="к"/>
			<glyph d="M121 484H498Q507 484 507 475V9Q507 0 498 0H377Q367 0 367 9V360Q367 366 361 366H250Q244 366 244 360V243Q244 124 206 60T65 -4H22Q13 -4 13 5V102Q13 111 22 111H30Q112 111 112 243V475Q112 484 121 484Z" horiz-adv-x="570" unicode="л"/>
			<glyph d="M72 484H195Q203 484 206 477L329 223H332L454 477Q458 484 466 484H588Q597 484 597 475V9Q597 0 588 0H474Q464 0 464 9V250H461L374 72Q370 63 361 63H299Q291 63 288 72L199 250H196V9Q196 0 187 0H72Q63 0 63 9V475Q63 484 72 484Z" horiz-adv-x="660" unicode="м"/>
			<glyph d="M72 484H194Q203 484 203 475V311Q203 305 209 305H347Q353 305 353 311V475Q353 484 363 484H484Q493 484 493 475V9Q493 0 484 0H363Q353 0 353 9V181Q353 187 347 187H209Q203 187 203 181V9Q203 0 194 0H72Q63 0 63 9V475Q63 484 72 484Z" unicode="н"/>
			<glyph d="M265 495Q342 495 398 459T475 359Q491 308 491 242Q491 176 475 125Q454 60 398 24T265 -11Q188 -11 132 24T55 125Q39 176 39 242Q39 308 55 359Q76 424 132 459T265 495ZM265 377Q207 377 190 325Q181 297 181 242Q181 187 190 159Q207 107 265 107Q323 107 340 159Q349 187 349 242Q349 297 340 325Q323 377 265 377Z" horiz-adv-x="530" unicode="о"/>
			<glyph d="M72 484H482Q491 484 491 475V9Q491 0 482 0H361Q351 0 351 9V360Q351 366 345 366H209Q203 366 203 360V9Q203 0 194 0H72Q63 0 63 9V475Q63 484 72 484Z" horiz-adv-x="554" unicode="п"/>
			<glyph d="M331 495Q391 495 434 465T495 379Q512 325 512 242Q512 159 495 105Q477 49 434 19T331 -11Q241 -11 204 45H203V-170Q203 -180 193 -180H73Q63 -180 63 -170V474Q63 484 73 484H193Q203 484 203 474V439H204Q241 495 331 495ZM286 377Q228 377 212 325Q203 297 203 242Q203 188 212 159Q229 107 286 107Q344 107 361 159Q370 188 370 242Q370 297 361 325Q345 377 286 377Z" horiz-adv-x="551" unicode="р"/>
			<glyph d="M263 495Q322 495 370 470T446 404Q451 396 444 390L357 333Q348 327 342 335Q312 377 265 377Q206 377 190 325Q181 299 181 242Q181 185 190 159Q206 107 265 107Q312 107 342 149Q348 157 357 151L444 94Q451 88 446 80Q419 39 370 14T263 -11Q186 -11 130 24T54 126Q39 170 39 242Q39 315 54 358Q75 424 130 459T263 495Z" horiz-adv-x="481" unicode="с"/>
			<glyph d="M20 484H419Q428 484 428 475V375Q428 366 419 366H295Q289 366 289 360V9Q289 0 279 0H159Q149 0 149 9V360Q149 366 143 366H20Q11 366 11 375V475Q11 484 20 484Z" horiz-adv-x="439" unicode="т"/>
			<glyph d="M21 484H149Q158 484 161 474L258 194H260L350 474Q353 484 362 484H486Q497 484 494 474L298 -41Q271 -111 235 -145T127 -180H93Q83 -180 83 -170V-72Q83 -62 93 -62H114Q163 -62 180 -12L193 24L13 474Q10 484 21 484Z" horiz-adv-x="507" unicode="у"/>
			<glyph d="M301 680H423Q432 680 432 671V495Q432 489 438 489Q561 481 624 423T688 246Q688 11 438 -5Q432 -5 432 -11V-171Q432 -180 423 -180H301Q292 -180 292 -171V-11Q292 -5 286 -5Q35 11 35 246Q35 365 98 423T286 489Q292 489 292 495V671Q292 680 301 680ZM287 375Q231 372 203 343T176 245Q176 183 201 148T287 110Q293 110 293 116V369Q293 375 287 375ZM436 375Q430 375 430 369V116Q430 110 436 110Q490 113 518 144T547 245Q547 307 523 339T436 375Z" horiz-adv-x="724" unicode="ф"/>
			<glyph d="M37 484H167Q178 484 184 475L257 361H258L332 475Q340 484 348 484H477Q491 484 485 474L334 251L497 10Q503 0 489 0H359Q350 0 344 9L257 141H256L170 9Q163 0 154 0H25Q23 0 18 2T18 10L181 251L30 474Q28 478 30 481T37 484Z" horiz-adv-x="515" unicode="х"/>
			<glyph d="M72 484H194Q203 484 203 475V124Q203 118 209 118H345Q351 118 351 124V475Q351 484 361 484H482Q491 484 491 475V124Q491 118 497 118H541Q550 118 550 109V-95Q550 -104 542 -104H432Q423 -104 423 -95V-6Q423 0 417 0H72Q63 0 63 9V475Q63 484 72 484Z" horiz-adv-x="563" unicode="ц"/>
			<glyph d="M51 484H172Q181 484 181 475V329Q181 273 240 273Q278 273 313 284Q320 285 320 292V475Q320 484 330 484H451Q460 484 460 475V9Q460 0 451 0H330Q320 0 320 9V164Q320 173 311 170Q249 155 197 155Q41 155 41 304V475Q41 484 51 484Z" horiz-adv-x="523" unicode="ч"/>
			<glyph d="M72 484H194Q203 484 203 475V124Q203 118 209 118H323Q329 118 329 124V475Q329 484 339 484H460Q469 484 469 475V124Q469 118 475 118H589Q595 118 595 124V475Q595 484 605 484H726Q735 484 735 475V9Q735 0 726 0H72Q63 0 63 9V475Q63 484 72 484Z" horiz-adv-x="798" unicode="ш"/>
			<glyph d="M72 484H194Q203 484 203 475V124Q203 118 209 118H323Q329 118 329 124V475Q329 484 339 484H460Q469 484 469 475V124Q469 118 475 118H589Q595 118 595 124V475Q595 484 605 484H726Q735 484 735 475V124Q735 118 741 118H785Q795 118 795 109V-95Q795 -104 786 -104H676Q668 -104 668 -95V-6Q668 0 662 0H72Q63 0 63 9V475Q63 484 72 484Z" horiz-adv-x="808" unicode="щ"/>
			<glyph d="M20 484H250Q259 484 259 475V325Q259 319 265 319H372Q446 319 491 274T537 160Q537 89 492 44T375 0H128Q119 0 119 9V360Q119 366 113 366H20Q11 366 11 375V475Q11 484 20 484ZM262 214Q256 214 256 208V113Q256 107 262 107H346Q373 107 388 122T403 161Q403 184 388 199T346 214Z" horiz-adv-x="568" unicode="ъ"/>
			<glyph d="M72 484H194Q203 484 203 475V325Q203 319 209 319H316Q390 319 435 274T481 160Q481 90 436 45T319 0H72Q63 0 63 9V475Q63 484 72 484ZM206 214Q200 214 200 208V113Q200 107 206 107H290Q316 107 331 122T346 161Q346 184 331 199T290 214ZM539 484H659Q669 484 669 474V10Q669 0 659 0H539Q529 0 529 10V474Q529 484 539 484Z" horiz-adv-x="732" unicode="ы"/>
			<glyph d="M72 484H194Q203 484 203 475V325Q203 319 209 319H316Q390 319 435 274T481 160Q481 89 435 44T316 0H72Q63 0 63 9V475Q63 484 72 484ZM206 214Q200 214 200 208V113Q200 107 206 107H290Q316 107 331 122T346 161Q346 184 331 199T290 214Z" horiz-adv-x="512" unicode="ь"/>
			<glyph d="M225 495Q329 495 393 428Q450 366 450 242Q450 133 408 74Q379 33 331 11T225 -11Q159 -11 108 13T30 80Q24 88 34 94L107 154Q116 161 122 150Q161 100 218 100Q267 100 289 134Q305 159 306 187Q306 193 300 193H174Q165 193 165 202V288Q165 298 174 298H301Q308 298 306 304Q304 324 296 342Q278 385 218 385Q158 385 128 339Q120 330 112 336L40 387Q32 393 37 401Q100 495 225 495Z" horiz-adv-x="489" unicode="э"/>
			<glyph d="M495 495Q571 495 624 460T698 359Q713 311 713 241Q713 172 698 124Q678 57 623 23T495 -11Q391 -11 330 59Q289 105 280 182Q280 188 274 188H209Q203 188 203 182V9Q203 0 194 0H72Q63 0 63 9V475Q63 484 72 484H194Q203 484 203 475V310Q203 304 209 304H275Q280 304 281 310Q291 366 313 403Q340 447 388 471T495 495ZM495 377Q443 377 428 324Q419 294 419 242Q419 189 428 159Q444 107 495 107Q546 107 562 159Q571 189 571 242Q571 294 562 324Q547 377 495 377Z" horiz-adv-x="752" unicode="ю"/>
			<glyph d="M218 484H468Q477 484 477 475V9Q477 0 468 0H347Q337 0 337 9V161Q337 167 331 167H299Q265 167 248 129L220 67Q206 37 181 16T95 -4H49Q40 -4 40 5V102Q40 111 49 111H61Q89 111 104 143L117 173Q128 197 144 202V205Q102 214 73 249T45 331Q45 402 90 443T218 484ZM240 379Q214 379 198 364T183 326Q183 303 199 286T240 270H335Q340 270 340 276V373Q340 379 335 379Z" horiz-adv-x="540" unicode="я"/>
			<glyph d="M263 495Q342 495 396 459T472 359Q488 308 488 210Q488 200 477 200H184Q178 200 178 194L184 167Q193 136 220 119T284 103Q349 103 395 146Q404 153 409 146L475 84Q483 77 476 70Q441 33 387 11T270 -11Q199 -11 139 21T56 127Q39 178 39 242Q39 310 55 358Q76 423 131 459T263 495ZM264 388Q235 388 213 373T183 335Q178 318 178 299Q178 293 184 293H344Q350 293 350 299Q350 318 345 335Q337 359 315 373T264 388ZM123 701H239Q251 701 257 691L333 561Q338 551 328 551H236Q225 551 217 561L118 691Q115 694 117 697T123 701Z" horiz-adv-x="527" unicode="ѐ"/>
			<glyph d="M263 495Q342 495 396 459T472 359Q488 308 488 210Q488 200 477 200H184Q178 200 178 194L184 167Q193 136 220 119T284 103Q349 103 395 146Q404 153 409 146L475 84Q483 77 476 70Q441 33 387 11T270 -11Q199 -11 139 21T56 127Q39 178 39 242Q39 310 55 358Q76 423 131 459T263 495ZM264 388Q235 388 213 373T183 335Q178 318 178 299Q178 293 184 293H344Q350 293 350 299Q350 318 345 335Q337 359 315 373T264 388ZM317 680H410Q420 680 420 670V571Q420 561 410 561H317Q307 561 307 571V670Q307 680 317 680ZM117 680H209Q219 680 219 670V571Q219 561 209 561H117Q107 561 107 571V670Q107 680 117 680Z" horiz-adv-x="527" unicode="ё"/>
			<glyph d="M73 680H193Q203 680 203 670V632Q203 626 209 626H312Q322 626 322 616V531Q322 521 312 521H209Q203 521 203 515V429H204Q244 484 329 484Q407 484 450 434T494 304V-5Q494 -180 313 -180H280Q270 -180 270 -170V-72Q270 -62 280 -62H300Q322 -62 338 -53T354 -6V277Q354 317 334 341T279 365Q244 365 223 341T203 277V10Q203 0 193 0H73Q63 0 63 10V515Q63 521 57 521H-7Q-17 521 -17 531V616Q-17 626 -7 626H57Q63 626 63 632V670Q63 680 73 680Z" horiz-adv-x="553" unicode="ђ"/>
			<glyph d="M72 484H397Q407 484 407 475V375Q407 366 397 366H209Q203 366 203 360V9Q203 0 194 0H72Q63 0 63 9V475Q63 484 72 484ZM246 701H361Q365 701 367 697T366 691L267 561Q260 551 248 551H157Q146 551 151 561L228 691Q234 701 246 701Z" horiz-adv-x="415" unicode="ѓ"/>
			<glyph d="M264 495Q389 495 452 401Q457 393 449 387L377 336Q369 330 361 339Q331 385 271 385Q211 385 193 342Q185 324 183 304Q182 298 188 298H315Q324 298 324 288V202Q324 193 315 193H189Q183 193 183 187Q184 159 200 134Q222 100 271 100Q328 100 367 150Q373 161 382 154L455 94Q465 88 459 80Q431 38 380 13T264 -11Q205 -11 157 11T81 74Q39 133 39 242Q39 366 96 428Q160 495 264 495Z" horiz-adv-x="489" unicode="є"/>
			<glyph d="M253 495Q296 495 350 482T449 435Q456 428 450 420L394 351Q388 344 380 349Q319 388 249 388Q188 388 188 348Q188 331 202 321T255 308L308 302Q469 286 469 155Q468 80 411 34T253 -11Q119 -11 33 64Q26 71 33 78L98 151Q104 157 112 151Q181 98 260 98Q296 98 315 110T335 144Q335 162 320 172T266 186L212 192Q135 200 94 237T54 340Q54 412 107 453T253 495Z" horiz-adv-x="505" unicode="ѕ"/>
			<glyph d="M73 680H193Q203 680 203 670V571Q203 561 193 561H73Q63 561 63 571V670Q63 680 73 680ZM73 484H193Q203 484 203 474V10Q203 0 193 0H73Q63 0 63 10V474Q63 484 73 484Z" horiz-adv-x="266" unicode="і"/>
			<glyph d="M73 484H193Q203 484 203 474V10Q203 0 193 0H73Q63 0 63 10V474Q63 484 73 484ZM187 680H280Q290 680 290 670V571Q290 561 280 561H187Q177 561 177 571V670Q177 680 187 680ZM-13 680H79Q89 680 89 670V571Q89 561 79 561H-13Q-23 561 -23 571V670Q-23 680 -13 680Z" horiz-adv-x="266" unicode="ї"/>
			<glyph d="M73 680H193Q203 680 203 670V571Q203 561 193 561H73Q63 561 63 571V670Q63 680 73 680ZM73 484H193Q203 484 203 474V-5Q203 -180 22 -180H-11Q-21 -180 -21 -170V-72Q-21 -62 -11 -62H9Q31 -62 47 -53T63 -6V474Q63 484 73 484Z" horiz-adv-x="266" unicode="ј"/>
			<glyph d="M121 484H498Q507 484 507 475V324Q507 318 513 318H620Q694 318 739 274T785 160Q785 89 740 44T623 0H377Q367 0 367 9V360Q367 366 361 366H250Q244 366 244 360V243Q244 124 207 60T69 -4H22Q13 -4 13 5V105Q13 114 22 114H30Q112 114 112 243V475Q112 484 121 484ZM510 214Q504 214 504 208V113Q504 107 510 107H594Q621 107 636 122T651 161Q651 184 636 199T594 214Z" horiz-adv-x="816" unicode="љ"/>
			<glyph d="M72 484H194Q203 484 203 475V322Q203 316 209 316H346Q352 316 352 322V475Q352 484 362 484H483Q492 484 492 475V322Q492 316 498 316H605Q679 316 724 272T770 159Q770 89 725 44T608 0H362Q352 0 352 9V194Q352 200 346 200H209Q203 200 203 194V9Q203 0 194 0H72Q63 0 63 9V475Q63 484 72 484ZM495 212Q489 212 489 206V113Q489 107 495 107H579Q606 107 621 121T636 160Q636 183 621 197T579 212Z" horiz-adv-x="801" unicode="њ"/>
			<glyph d="M73 680H193Q203 680 203 670V632Q203 626 209 626H312Q322 626 322 616V531Q322 521 312 521H209Q203 521 203 515V429H204Q244 484 329 484Q407 484 450 434T494 304V10Q494 0 484 0H364Q354 0 354 10V277Q354 317 334 341T279 365Q244 365 223 341T203 277V10Q203 0 193 0H73Q63 0 63 10V515Q63 521 57 521H-7Q-17 521 -17 531V616Q-17 626 -7 626H57Q63 626 63 632V670Q63 680 73 680Z" horiz-adv-x="553" unicode="ћ"/>
			<glyph d="M436 488H487Q496 488 496 479V387Q496 377 487 377H479Q449 377 434 343L416 301Q402 266 383 256V252Q393 249 406 236T429 199L445 156Q454 131 462 121T488 111H496Q505 111 505 102V5Q505 -4 496 -4H449Q398 -4 369 15T325 77L300 147Q293 166 278 176T230 187H209Q203 187 203 181V9Q203 0 194 0H72Q63 0 63 9V475Q63 484 72 484H194Q203 484 203 475V311Q203 305 209 305H236Q278 305 296 349L322 413Q334 443 357 465T436 488ZM292 701H407Q411 701 413 697T412 691L313 561Q306 551 294 551H203Q192 551 197 561L274 691Q280 701 292 701Z" horiz-adv-x="530" unicode="ќ"/>
			<glyph d="M72 484H191Q198 484 200 475V212H203L361 477Q366 484 374 484H498Q507 484 507 475V9Q507 0 498 0H379Q372 0 370 9V280H367L208 8Q203 0 194 0H72Q63 0 63 9V475Q63 484 72 484ZM153 701H269Q281 701 287 691L363 561Q368 551 358 551H266Q255 551 247 561L148 691Q145 694 147 697T153 701Z" horiz-adv-x="570" unicode="ѝ"/>
			<glyph d="M21 484H149Q158 484 161 474L258 194H260L350 474Q353 484 362 484H486Q497 484 494 474L298 -41Q271 -111 235 -145T127 -180H93Q83 -180 83 -170V-72Q83 -62 93 -62H114Q163 -62 180 -12L193 24L13 474Q10 484 21 484ZM180 684Q189 685 192 678Q199 656 216 641T258 627Q279 627 297 639T324 678Q327 685 336 684L399 674Q407 672 404 660Q381 540 258 540Q134 540 112 660Q109 672 117 674Z" horiz-adv-x="507" unicode="ў"/>
			<glyph d="M72 484H194Q203 484 203 475V124Q203 118 209 118H345Q351 118 351 124V475Q351 484 361 484H482Q491 484 491 475V9Q491 0 482 0H346Q340 0 340 -6V-95Q340 -104 331 -104H221Q213 -104 213 -95V-6Q213 0 207 0H72Q63 0 63 9V475Q63 484 72 484Z" horiz-adv-x="554" unicode="џ"/>
			<glyph d="M370 805H480Q489 805 489 795V558Q489 549 479 549H218Q212 549 212 543V10Q212 0 202 0H75Q65 0 65 10V670Q65 680 75 680H354Q361 680 361 686V795Q361 805 370 805Z" horiz-adv-x="500" unicode="Ґ"/>
			<glyph d="M293 581H399Q407 581 407 571V376Q407 366 397 366H209Q203 366 203 360V9Q203 0 193 0H72Q63 0 63 9V475Q63 484 72 484H279Q285 484 285 490V571Q285 581 293 581Z" horiz-adv-x="415" unicode="ґ"/>
			<glyph d="M20 680H149Q159 680 161 670L259 243H261L377 670Q380 680 390 680H477Q486 680 489 670L609 243H611L705 670Q706 680 717 680H845Q855 680 853 670L678 10Q676 0 665 0H565Q555 0 552 10L434 433H432L313 10Q310 0 300 0H200Q191 0 188 10L12 670Q10 680 20 680ZM247 889H367Q378 889 386 879L481 764Q484 760 482 757T477 754H384Q374 754 365 763L242 879Q239 882 241 885T247 889Z" horiz-adv-x="865" unicode="Ẁ"/>
			<glyph d="M25 484H148Q159 484 162 474L242 186H244L327 474Q330 484 341 484H425Q435 484 438 474L523 186H525L601 474Q604 484 614 484H737Q748 484 745 474L590 10Q587 0 578 0H478Q469 0 466 10L383 291H381L296 10Q293 0 284 0H185Q176 0 173 10L18 474Q15 484 25 484ZM222 701H338Q350 701 356 691L432 561Q437 551 427 551H335Q324 551 316 561L217 691Q214 694 216 697T222 701Z" horiz-adv-x="763" unicode="ẁ"/>
			<glyph d="M20 680H149Q159 680 161 670L259 243H261L377 670Q380 680 390 680H477Q486 680 489 670L609 243H611L705 670Q706 680 717 680H845Q855 680 853 670L678 10Q676 0 665 0H565Q555 0 552 10L434 433H432L313 10Q310 0 300 0H200Q191 0 188 10L12 670Q10 680 20 680ZM501 889H621Q625 889 627 885T626 879L503 763Q494 754 484 754H391Q387 754 385 757T387 764L482 879Q490 889 501 889Z" horiz-adv-x="865" unicode="Ẃ"/>
			<glyph d="M25 484H148Q159 484 162 474L242 186H244L327 474Q330 484 341 484H425Q435 484 438 474L523 186H525L601 474Q604 484 614 484H737Q748 484 745 474L590 10Q587 0 578 0H478Q469 0 466 10L383 291H381L296 10Q293 0 284 0H185Q176 0 173 10L18 474Q15 484 25 484ZM427 701H542Q546 701 548 697T547 691L448 561Q441 551 429 551H338Q327 551 332 561L409 691Q415 701 427 701Z" horiz-adv-x="763" unicode="ẃ"/>
			<glyph d="M20 680H149Q159 680 161 670L259 243H261L377 670Q380 680 390 680H477Q486 680 489 670L609 243H611L705 670Q706 680 717 680H845Q855 680 853 670L678 10Q676 0 665 0H565Q555 0 552 10L434 433H432L313 10Q310 0 300 0H200Q191 0 188 10L12 670Q10 680 20 680ZM489 878H579Q589 878 589 868V770Q589 760 579 760H489Q479 760 479 770V868Q479 878 489 878ZM286 878H376Q386 878 386 868V770Q386 760 376 760H286Q276 760 276 770V868Q276 878 286 878Z" horiz-adv-x="865" unicode="Ẅ"/>
			<glyph d="M25 484H148Q159 484 162 474L242 186H244L327 474Q330 484 341 484H425Q435 484 438 474L523 186H525L601 474Q604 484 614 484H737Q748 484 745 474L590 10Q587 0 578 0H478Q469 0 466 10L383 291H381L296 10Q293 0 284 0H185Q176 0 173 10L18 474Q15 484 25 484ZM434 680H527Q537 680 537 670V571Q537 561 527 561H434Q424 561 424 571V670Q424 680 434 680ZM234 680H326Q336 680 336 670V571Q336 561 326 561H234Q224 561 224 571V670Q224 680 234 680Z" horiz-adv-x="763" unicode="ẅ"/>
			<glyph d="M16 680H146Q157 680 161 670L284 422H287L410 670Q414 680 425 680H551Q556 680 558 677T558 670L357 271V10Q357 0 347 0H220Q210 0 210 10V271L9 670Q5 680 16 680ZM110 889H230Q241 889 249 879L344 764Q347 760 345 757T340 754H247Q237 754 228 763L105 879Q102 882 104 885T110 889Z" horiz-adv-x="568" unicode="Ỳ"/>
			<glyph d="M21 484H149Q158 484 161 474L258 194H260L350 474Q353 484 362 484H486Q497 484 494 474L298 -41Q271 -111 235 -145T127 -180H93Q83 -180 83 -170V-72Q83 -62 93 -62H114Q163 -62 180 -12L193 24L13 474Q10 484 21 484ZM109 701H225Q237 701 243 691L319 561Q324 551 314 551H222Q211 551 203 561L104 691Q101 694 103 697T109 701Z" horiz-adv-x="507" unicode="ỳ"/>
			<glyph d="M52 326H340Q350 326 350 316V214Q350 204 340 204H52Q42 204 42 214V316Q42 326 52 326Z" horiz-adv-x="392" unicode="‐"/>
			<glyph d="M30 324H505Q515 324 515 314V217Q515 207 505 207H30Q20 207 20 217V314Q20 324 30 324Z" horiz-adv-x="535" unicode="–"/>
			<glyph d="M30 324H864Q874 324 874 314V217Q874 207 864 207H30Q20 207 20 217V314Q20 324 30 324Z" horiz-adv-x="894" unicode="—"/>
			<glyph d="M30 324H864Q874 324 874 314V217Q874 207 864 207H30Q20 207 20 217V314Q20 324 30 324Z" horiz-adv-x="894" unicode="―"/>
			<glyph d="M164 682Q175 682 175 671V482Q175 472 165 472H66Q56 472 56 482V587Q56 600 65 608L148 675Q156 682 164 682Z" horiz-adv-x="231" unicode="‘"/>
			<glyph d="M66 680H165Q175 680 175 670V565Q175 552 166 544L83 477Q75 470 67 470Q56 470 56 481V670Q56 680 66 680Z" horiz-adv-x="231" unicode="’"/>
			<glyph d="M66 120H165Q175 120 175 110V6Q175 -8 166 -16L83 -82Q75 -90 67 -90Q56 -90 56 -79V110Q56 120 66 120Z" horiz-adv-x="231" unicode="‚"/>
			<glyph d="M350 682Q361 682 361 671V482Q361 472 351 472H252Q242 472 242 482V587Q242 600 251 608L334 675Q342 682 350 682ZM164 682Q175 682 175 671V482Q175 472 165 472H66Q56 472 56 482V587Q56 600 65 608L148 675Q156 682 164 682Z" horiz-adv-x="417" unicode="“"/>
			<glyph d="M252 680H351Q361 680 361 670V565Q361 552 352 544L269 477Q261 470 253 470Q242 470 242 481V670Q242 680 252 680ZM66 680H165Q175 680 175 670V565Q175 552 166 544L83 477Q75 470 67 470Q56 470 56 481V670Q56 680 66 680Z" horiz-adv-x="417" unicode="”"/>
			<glyph d="M252 120H351Q361 120 361 110V6Q361 -8 352 -16L269 -82Q261 -90 253 -90Q242 -90 242 -79V110Q242 120 252 120ZM66 120H165Q175 120 175 110V6Q175 -8 166 -16L83 -82Q75 -90 67 -90Q56 -90 56 -79V110Q56 120 66 120Z" horiz-adv-x="417" unicode="„"/>
			<glyph d="M216 680H332Q342 680 342 670V467Q342 461 348 461H492Q502 461 502 451V349Q502 339 492 339H348Q342 339 342 333V-170Q342 -180 332 -180H216Q206 -180 206 -170V333Q206 339 200 339H56Q46 339 46 349V451Q46 461 56 461H200Q206 461 206 467V670Q206 680 216 680Z" horiz-adv-x="548" unicode="†"/>
			<glyph d="M216 680H332Q342 680 342 670V500Q342 494 348 494H492Q502 494 502 484V382Q502 372 492 372H348Q342 372 342 366V134Q342 128 348 128H492Q502 128 502 118V16Q502 6 492 6H348Q342 6 342 0V-170Q342 -180 332 -180H216Q206 -180 206 -170V0Q206 6 200 6H56Q46 6 46 16V118Q46 128 56 128H200Q206 128 206 134V366Q206 372 200 372H56Q46 372 46 382V484Q46 494 56 494H200Q206 494 206 500V670Q206 680 216 680Z" horiz-adv-x="548" unicode="‡"/>
			<glyph d="M237 459Q303 459 345 416T388 308Q388 243 345 200T237 158Q172 158 129 200T87 308Q87 374 129 416T237 459Z" horiz-adv-x="475" unicode="•"/>
			<glyph d="M588 140H707Q717 140 717 130V10Q717 0 707 0H588Q578 0 578 10V130Q578 140 588 140ZM329 140H448Q458 140 458 130V10Q458 0 448 0H329Q319 0 319 10V130Q319 140 329 140ZM70 140H189Q199 140 199 130V10Q199 0 189 0H70Q60 0 60 10V130Q60 140 70 140Z" horiz-adv-x="777" unicode="…"/>
			<glyph d="M569 691H653Q657 691 658 688T658 681L263 -1Q257 -11 247 -11H163Q159 -11 157 -8T158 -1L553 681Q559 691 569 691ZM198 688Q246 688 280 665T327 606Q336 580 336 509Q336 438 327 412Q315 375 280 352T198 330Q151 330 116 352T69 412Q60 442 60 509Q60 576 69 606Q82 643 116 665T198 688ZM198 609Q171 609 163 586Q159 575 159 509Q159 443 163 432Q171 409 198 409Q225 409 234 432Q237 444 237 509Q237 574 234 586Q225 609 198 609ZM938 349Q985 349 1019 326T1066 267Q1076 238 1076 170Q1076 103 1066 74Q1054 36 1019 13T938 -9Q890 -9 855 13T809 74Q800 100 800 170Q800 241 809 267Q821 304 855 326T938 349ZM616 349Q663 349 697 326T745 267Q754 241 754 170Q754 100 745 74Q732 36 698 13T616 -9Q569 -9 534 13T487 74Q478 104 478 170Q478 237 487 267Q500 304 534 326T616 349ZM938 270Q910 270 902 247Q899 235 899 170Q899 105 902 94Q910 70 938 70Q950 70 960 76T973 94Q977 103 977 170Q977 236 973 247Q965 270 938 270ZM616 270Q589 270 581 247Q577 236 577 170Q577 103 581 94Q589 70 616 70Q644 70 651 94Q655 103 655 170Q655 236 651 247Q643 270 616 270Z" horiz-adv-x="1136" unicode="‰"/>
			<glyph d="M254 491T258 486V369Q258 359 248 349L166 268Q162 264 166 260L248 179Q258 169 258 159V42Q258 38 254 36T248 38L28 257Q21 264 28 271L248 490Q251 493 254 491Z" horiz-adv-x="319" unicode="‹"/>
			<glyph d="M64 491T71 490L291 271Q298 264 291 257L71 38Q68 35 64 36T61 42V159Q61 169 71 179L153 260Q157 264 153 268L71 349Q61 359 61 369V486Q61 490 64 491Z" horiz-adv-x="319" unicode="›"/>
			<glyph d="M235 691Q327 691 381 641T436 514Q436 445 382 372L316 283Q296 256 296 223V209Q296 199 286 199H170Q162 199 160 206V209L136 466Q136 476 146 476H254Q264 476 264 466L262 385H263L285 421Q308 458 308 499Q308 529 291 552T231 576Q176 576 158 534Q154 524 145 525L41 545Q31 546 33 557Q62 691 235 691ZM168 134H288Q298 134 298 124V10Q298 0 288 0H168Q158 0 158 10V124Q158 134 168 134Z" horiz-adv-x="473" unicode="‽"/>
			<glyph d="M244 691H328Q332 691 333 688T333 681L-62 -1Q-68 -11 -78 -11H-162Q-166 -11 -167 -8T-167 -1L228 681Q234 691 244 691Z" horiz-adv-x="166" unicode="⁄"/>
			<glyph d="M179 844Q232 844 268 820T318 754Q328 724 328 633Q328 542 318 512Q305 469 268 445T179 422Q126 422 89 445T39 512Q30 544 30 633Q30 722 39 754Q53 797 89 820T179 844ZM179 757Q150 757 142 732Q138 720 138 633Q138 546 142 534Q150 509 179 509Q208 509 216 534Q220 546 220 633Q220 720 216 732Q208 757 179 757Z" horiz-adv-x="358" unicode="⁰"/>
			<glyph d="M155 836H246Q257 836 252 826L135 575V574H195Q201 574 201 580V649Q201 659 211 659H290Q300 659 300 649V580Q300 574 306 574H321Q331 574 331 564V496Q331 486 321 486H306Q300 486 300 480V440Q300 430 290 430H211Q201 430 201 440V480Q201 486 195 486H31Q21 486 21 496V565L26 582L141 826Q146 836 155 836Z" horiz-adv-x="358" unicode="⁴"/>
			<glyph d="M54 836H300Q310 836 310 826V758Q310 748 300 748H146Q140 748 140 742V683H141Q165 698 200 698Q291 698 313 627Q321 603 321 563Q321 527 314 506Q301 466 264 444T176 422Q123 422 85 445T39 509Q37 520 45 521L123 541Q132 544 135 536Q148 510 176 510Q206 510 214 534L217 561L214 587Q207 611 178 611Q159 611 148 600Q142 594 135 594H54Q44 594 44 604V826Q44 836 54 836Z" horiz-adv-x="358" unicode="⁵"/>
			<glyph d="M170 836H266Q270 836 271 833T271 826L191 684L192 683L205 684Q259 684 294 648T329 555Q329 496 287 459T179 422Q113 422 70 459T28 555Q28 601 64 665L154 826Q160 836 170 836ZM179 599Q158 599 145 586T132 554Q132 534 145 521T179 508Q200 508 213 521T226 554Q226 573 213 586T179 599Z" horiz-adv-x="358" unicode="⁶"/>
			<glyph d="M48 836H313Q323 836 323 826V750L321 738L194 439Q190 430 180 430H92Q81 430 86 441L215 746V748H143Q137 748 137 742V702Q137 692 127 692H48Q38 692 38 702V826Q38 836 48 836Z" horiz-adv-x="358" unicode="⁷"/>
			<glyph d="M179 844Q247 844 284 806T321 720Q321 676 285 644V643Q331 606 331 550Q331 493 287 457T179 422Q113 422 70 457T27 550Q27 606 73 643V644Q36 675 36 720Q36 769 73 806T179 844ZM179 758Q162 758 150 746T139 719Q139 703 150 691T179 680Q196 680 207 691T219 719Q219 735 207 746T179 758ZM179 601Q159 601 145 587T131 554Q131 535 145 521T179 508Q199 508 213 521T227 554Q227 574 213 587T179 601Z" horiz-adv-x="358" unicode="⁸"/>
			<glyph d="M179 844Q245 844 287 807T329 711Q329 664 294 601L204 440Q198 430 187 430H92Q88 430 86 433T87 440L166 582L165 583L152 582Q98 582 63 617T28 711Q28 770 70 807T179 844ZM179 758Q158 758 145 745T132 712Q132 692 145 679T179 667Q200 667 213 680T226 712Q226 732 213 745T179 758Z" horiz-adv-x="358" unicode="⁹"/>
			<glyph d="M179 258Q232 258 268 234T318 168Q328 138 328 47Q328 -44 318 -74Q305 -117 268 -140T179 -164Q126 -164 89 -140T39 -74Q30 -42 30 47Q30 136 39 168Q53 211 89 234T179 258ZM179 171Q150 171 142 146Q138 134 138 47Q138 -40 142 -52Q150 -77 179 -77Q208 -77 216 -52Q220 -40 220 47Q220 134 216 146Q208 171 179 171Z" horiz-adv-x="358" unicode="₀"/>
			<glyph d="M163 250H247Q257 250 257 240V-146Q257 -156 247 -156H161Q151 -156 151 -146V136H149L85 96Q82 94 78 96T75 103V187Q75 197 84 202L146 243Q156 250 163 250Z" horiz-adv-x="358" unicode="₁"/>
			<glyph d="M182 258Q241 258 280 223T319 135Q319 79 270 32L174 -66V-67H309Q319 -67 319 -77V-146Q319 -156 309 -156H48Q38 -156 38 -146V-80Q38 -70 46 -63L190 84Q215 111 215 134Q215 151 205 161T178 171Q143 171 137 133Q135 122 126 124L47 137Q37 139 39 148Q42 190 80 224T182 258Z" horiz-adv-x="358" unicode="₂"/>
			<glyph d="M177 258Q241 258 278 225T316 142Q316 92 274 60V59Q294 50 309 25T325 -35Q325 -93 285 -128T181 -164Q124 -164 83 -139T34 -67Q32 -56 41 -55L118 -40Q127 -39 131 -47Q137 -60 149 -68T177 -77Q197 -77 209 -65T221 -35Q221 8 171 8H154Q144 8 144 18V84Q144 94 154 94H168Q212 94 212 132Q212 171 173 171Q145 171 133 146Q129 137 120 139L45 153Q36 154 38 164Q47 205 84 231T177 258Z" horiz-adv-x="358" unicode="₃"/>
			<glyph d="M155 250H246Q257 250 252 240L135 -11V-12H195Q201 -12 201 -6V63Q201 73 211 73H290Q300 73 300 63V-6Q300 -12 306 -12H321Q331 -12 331 -22V-90Q331 -100 321 -100H306Q300 -100 300 -106V-146Q300 -156 290 -156H211Q201 -156 201 -146V-106Q201 -100 195 -100H31Q21 -100 21 -90V-21L26 -4L141 240Q146 250 155 250Z" horiz-adv-x="358" unicode="₄"/>
			<glyph d="M54 250H300Q310 250 310 240V172Q310 162 300 162H146Q140 162 140 156V97H141Q165 112 200 112Q291 112 313 41Q321 17 321 -23Q321 -59 314 -80Q301 -120 264 -142T176 -164Q123 -164 85 -140T39 -77Q37 -66 45 -65L123 -45Q132 -42 135 -50Q148 -76 176 -76Q206 -76 214 -52L217 -25L214 1Q207 25 178 25Q159 25 148 14Q142 8 135 8H54Q44 8 44 18V240Q44 250 54 250Z" horiz-adv-x="358" unicode="₅"/>
			<glyph d="M170 250H266Q270 250 271 247T271 240L191 98L192 97L205 98Q259 98 294 62T329 -31Q329 -90 287 -127T179 -164Q113 -164 70 -127T28 -31Q28 15 64 79L154 240Q160 250 170 250ZM179 13Q158 13 145 0T132 -32Q132 -52 145 -65T179 -78Q200 -78 213 -65T226 -32Q226 -13 213 0T179 13Z" horiz-adv-x="358" unicode="₆"/>
			<glyph d="M48 250H313Q323 250 323 240V164L321 152L194 -147Q190 -156 180 -156H92Q81 -156 86 -145L215 160V162H143Q137 162 137 156V116Q137 106 127 106H48Q38 106 38 116V240Q38 250 48 250Z" horiz-adv-x="358" unicode="₇"/>
			<glyph d="M179 258Q247 258 284 220T321 134Q321 90 285 58V57Q331 20 331 -36Q331 -93 287 -128T179 -164Q113 -164 70 -128T27 -36Q27 20 73 57V58Q36 89 36 134Q36 183 73 220T179 258ZM179 172Q162 172 150 160T139 133Q139 117 150 105T179 94Q196 94 207 105T219 133Q219 149 207 160T179 172ZM179 15Q159 15 145 1T131 -32Q131 -51 145 -64T179 -78Q199 -78 213 -64T227 -32Q227 -12 213 1T179 15Z" horiz-adv-x="358" unicode="₈"/>
			<glyph d="M179 258Q245 258 287 221T329 125Q329 78 294 15L204 -146Q198 -156 187 -156H92Q88 -156 86 -153T87 -146L166 -4L165 -3L152 -4Q98 -4 63 31T28 125Q28 184 70 221T179 258ZM179 172Q158 172 145 159T132 126Q132 106 145 93T179 81Q200 81 213 94T226 126Q226 146 213 159T179 172Z" horiz-adv-x="358" unicode="₉"/>
			<glyph d="M316 691Q389 691 440 658T518 570Q522 561 513 556L418 512Q408 509 403 517Q372 573 318 573Q259 573 239 514Q232 491 232 453Q232 447 238 447H404Q414 447 414 437L404 375Q403 365 394 365H238Q232 365 232 359V325Q232 319 238 319H384Q394 319 394 309L384 247Q383 237 374 237H238Q232 237 232 231Q232 189 239 166Q259 107 318 107Q372 107 403 163Q408 171 418 168L513 124Q522 119 518 110Q491 55 440 22T316 -11Q236 -11 181 26T104 133Q90 175 90 231Q90 237 84 237H48Q38 237 38 247V309Q38 319 48 319H84Q90 319 90 325V359Q90 365 84 365H48Q38 365 38 375V437Q38 447 48 447H84Q90 447 90 453Q90 505 104 547Q126 617 181 654T316 691Z" unicode="€"/>
			<glyph d="M569 691H653Q663 691 657 681L262 -1Q256 -11 246 -11H163Q159 -11 157 -8T158 -1L553 681Q559 691 569 691ZM618 349Q669 349 706 323T758 253Q768 211 768 170Q768 126 758 86Q744 40 706 14T618 -11Q567 -11 529 14T478 86Q468 126 468 170Q468 211 478 253Q492 298 529 323T618 349ZM617 265Q582 265 573 228Q568 208 568 169Q568 129 573 110Q582 73 617 73Q652 73 661 110Q666 129 666 169Q666 208 661 228Q652 265 617 265ZM207 686Q293 686 330 620Q333 615 329 611L265 573Q259 569 256 574Q240 603 211 603Q176 603 165 568Q159 551 159 511Q159 462 165 446Q175 411 211 411Q242 411 257 442Q260 447 266 443L330 406Q334 402 331 397Q313 366 280 348T207 330Q155 330 117 354T64 423Q54 453 54 512Q54 563 64 592Q79 637 117 661T207 686Z" horiz-adv-x="814" unicode="℅"/>
			<glyph d="M281 691Q346 691 385 650T424 539Q424 393 248 240V154Q248 102 289 102Q315 102 344 126Q353 132 358 124L403 59Q408 53 400 45Q374 20 336 4T261 -11Q119 -11 119 152V161L89 139Q81 134 75 141L30 205Q25 214 32 219L119 284V475Q119 577 160 634T281 691ZM286 593Q267 593 257 572T248 497V380Q318 456 318 540Q318 564 309 578T286 593Z" horiz-adv-x="461" unicode="ℓ"/>
			<glyph d="M75 680H183Q192 680 196 672L420 278H423V671Q423 680 433 680H554Q563 680 563 671V10Q563 0 554 0H446Q437 0 432 8L208 403H205V10Q205 0 195 0H75Q65 0 65 10V671Q65 680 75 680ZM643 218H884Q894 218 894 209V138Q894 129 884 129H643Q633 129 633 138V209Q633 218 643 218ZM765 573Q914 573 914 421Q914 346 876 307T765 268Q614 268 614 421Q614 573 765 573ZM765 495Q745 495 729 482T714 421Q714 391 722 369T765 347Q784 347 799 359T815 421Q815 450 806 472T765 495Z" horiz-adv-x="954" unicode="№"/>
			<glyph d="M405 691Q459 691 518 673T630 612T720 500T757 340Q757 286 739 226T678 114T565 25T405 -11Q351 -11 292 6T180 67T91 179T54 340Q54 394 72 453T133 564T245 654T405 691ZM405 611Q291 611 214 533T138 340Q138 224 214 146T405 69Q520 69 596 146T673 340Q673 456 596 533T405 611ZM273 528H424Q584 528 584 398Q584 255 424 255H379Q374 255 374 250V147Q374 138 365 138H273Q264 138 264 147V519Q264 528 273 528ZM378 443L374 440V344L378 341H405Q445 341 465 352T485 394Q485 443 405 443Z" horiz-adv-x="811" unicode="℗"/>
			<glyph d="M424 680H492Q501 680 506 670L604 454H607L703 670Q708 680 718 680H784Q794 680 794 670V296Q794 286 784 286H715Q705 286 705 296V490H703L641 352Q636 342 628 342H581Q573 342 568 352L506 490H503V296Q503 286 493 286H424Q414 286 414 296V670Q414 680 424 680ZM47 680H347Q357 680 357 670V606Q357 596 347 596H252Q246 596 246 590V296Q246 286 236 286H159Q149 286 149 296V590Q149 596 143 596H47Q37 596 37 606V670Q37 680 47 680Z" horiz-adv-x="846" unicode="™"/>
			<glyph d="M318 691Q410 691 476 648T569 524Q577 499 582 465T588 340Q588 270 575 214T520 126V124H578Q588 124 588 114V10Q588 0 578 0H365Q355 0 355 10V111Q355 122 364 125Q400 138 419 182T439 340Q439 445 427 486Q416 521 387 541T318 561Q234 561 209 486Q197 450 197 340Q197 251 211 196T271 125Q281 122 281 111V10Q281 0 271 0H58Q48 0 48 10V114Q48 124 58 124H115V126Q81 152 64 202T48 340Q48 387 50 432T67 524Q91 595 152 643T318 691Z" horiz-adv-x="636" unicode="Ω"/>
			<glyph d="M292 495Q398 495 463 424T530 243H160V76Q212 24 292 24Q404 24 468 134L501 113Q458 48 410 18T292 -11Q187 -11 121 62T56 243Q56 350 121 422T292 495ZM292 465Q213 465 160 409V276H426V409Q367 465 292 465Z" horiz-adv-x="586" unicode="℮"/>
			<glyph d="M175 680H259Q269 680 269 670V284Q269 274 259 274H173Q163 274 163 284V566H161L97 526Q94 524 90 526T87 533V617Q87 627 96 632L158 673Q168 680 175 680ZM682 414Q746 414 783 381T821 298Q821 248 779 216V215Q799 206 814 181T830 121Q830 63 790 27T686 -8Q629 -8 588 17T539 89Q537 100 546 101L623 116Q632 117 636 109Q642 96 654 87T682 79Q702 79 714 90T726 121Q726 164 676 164H659Q649 164 649 174V240Q649 250 659 250H673Q717 250 717 288Q717 327 678 327Q650 327 638 302Q634 293 625 295L550 309Q541 310 543 320Q552 361 589 387T682 414ZM585 691H669Q673 691 674 688T674 681L279 -1Q273 -11 263 -11H179Q175 -11 173 -8T174 -1L569 681Q575 691 585 691Z" horiz-adv-x="917" unicode="⅓"/>
			</font>
</defs>
</svg>
