<?xml version="1.0" encoding="UTF-8"?>
<svg height="100%" width="100%" xmlns="http://www.w3.org/2000/svg">
	<defs>
		<font horiz-adv-x="549" id="web">
			<font-face alphabetic="0" ascent="938" descent="-259" font-family="" panose-1="2 11 6 3 2 2 3 5 2 3"/>
			<missing-glyph d="M10 680H473Q483 680 483 670V10Q483 0 473 0H10Q0 0 0 10V670Q0 680 10 680ZM65 625Q59 625 59 619V61Q59 55 65 55H418Q424 55 424 61V619Q424 625 418 625ZM236 563Q287 563 321 530T355 449Q355 407 329 375L279 304Q266 286 266 263V247Q266 237 256 237H202Q192 237 192 247V271Q192 301 209 326L260 396Q281 426 281 449Q281 470 267 484T233 498Q190 498 178 453Q176 442 167 444L115 453Q105 455 107 464Q117 510 150 536T236 563ZM200 193H258Q268 193 268 183V124Q268 114 258 114H200Q190 114 190 124V183Q190 193 200 193Z" horiz-adv-x="483"/>
			<glyph d="" horiz-adv-x="236" unicode=" "/>
			<glyph d="M101 680H206Q216 680 216 670L193 200Q193 190 183 190H124Q114 190 114 200L91 670Q91 680 101 680ZM103 122H203Q213 122 213 112V10Q213 0 203 0H103Q93 0 93 10V112Q93 122 103 122Z" horiz-adv-x="307" unicode="!"/>
			<glyph d="M212 680H274Q284 680 284 670V498Q284 488 274 488H212Q202 488 202 498V670Q202 680 212 680ZM71 680H132Q142 680 142 670V498Q142 488 132 488H71Q61 488 61 498V670Q61 680 71 680Z" horiz-adv-x="345" unicode="&quot;"/>
			<glyph d="M170 680H233Q244 680 242 670L216 482H332L358 670Q360 680 369 680H432Q443 680 441 670L415 482H484Q494 482 494 472V414Q494 404 484 404H405L389 288H458Q468 288 468 278V220Q468 210 458 210H378L351 10Q349 0 340 0H277Q266 0 268 10L295 210H179L152 10Q150 0 141 0H78Q67 0 69 10L96 210H30Q20 210 20 220V278Q20 288 30 288H107L123 404H56Q46 404 46 414V472Q46 482 56 482H133L159 670Q161 680 170 680ZM206 404L190 288H306L322 404Z" horiz-adv-x="514" unicode="#"/>
			<glyph d="M263 751H302Q312 751 312 741V689Q396 682 465 636Q472 630 467 622L421 554Q415 547 407 552Q360 581 312 588V393Q402 378 449 328T496 200Q496 116 446 60T312 -8V-61Q312 -71 302 -71H263Q253 -71 253 -61V-10Q145 -6 60 61Q51 68 58 76L111 143Q118 151 125 144Q182 97 253 90V295Q168 309 119 360T70 487Q70 569 121 625T253 689V741Q253 751 263 751ZM253 588Q220 581 199 555T179 495Q179 426 253 405ZM312 284V93Q387 111 387 196Q387 262 312 284Z" unicode="$"/>
			<glyph d="M562 691H627Q631 691 632 688T632 681L237 -1Q231 -11 222 -11H156Q152 -11 150 -8T151 -1L546 681Q552 691 562 691ZM192 688Q235 688 268 666T314 608Q318 596 320 582T322 509Q322 470 321 449T314 410Q302 374 268 352T192 330Q148 330 115 352T70 410Q66 422 64 435T62 509Q62 548 63 568T70 608Q82 644 115 666T192 688ZM192 616Q159 616 148 588Q144 576 144 509Q144 442 148 431Q159 402 192 402Q206 402 218 410T235 431Q239 442 239 509Q239 576 235 588T218 608T192 616ZM590 349Q633 349 666 327T712 269Q716 257 718 243T720 170Q720 131 719 110T712 71Q700 35 666 13T590 -9Q546 -9 512 13T467 71Q459 99 459 170Q459 241 467 269Q479 305 512 327T590 349ZM590 277Q557 277 546 249Q542 237 542 170Q542 103 546 92Q557 63 590 63Q604 63 616 71T633 92Q637 103 637 170Q637 237 633 249T616 269T590 277Z" horiz-adv-x="782" unicode="%"/>
			<glyph d="M285 691Q358 691 404 645T451 538Q451 504 432 465T333 364L439 228L507 309Q513 316 521 310L576 263Q584 257 578 249L498 152L522 122Q539 100 563 100H578Q588 100 588 90V10Q588 0 578 0H545Q520 0 498 7T446 53L429 74Q397 41 355 15T252 -11Q161 -11 112 39T63 171Q63 226 93 275T192 379Q149 434 132 467T116 535Q116 602 165 646T285 691ZM286 599Q258 599 239 581T221 538Q221 524 227 508T274 440Q308 466 328 488T349 539Q349 564 330 581T286 599ZM251 303Q167 238 167 177Q167 137 192 111T260 86Q281 86 306 96T371 149Z" horiz-adv-x="646" unicode="&amp;"/>
			<glyph d="M71 680H132Q142 680 142 670V498Q142 488 132 488H71Q61 488 61 498V670Q61 680 71 680Z" horiz-adv-x="203" unicode="'"/>
			<glyph d="M196 740H245Q256 740 251 730Q207 642 182 536T158 328Q158 227 183 119T251 -74Q256 -84 245 -84H196Q186 -84 179 -74Q116 14 83 119T51 328Q51 432 84 537T179 730Q186 740 196 740Z" horiz-adv-x="293" unicode="("/>
			<glyph d="M48 740H97Q107 740 114 730Q176 643 209 537T242 328Q242 224 209 119T114 -74Q107 -84 97 -84H48Q37 -84 42 -74Q85 12 110 119T135 328Q135 430 110 536T42 730Q37 740 48 740Z" horiz-adv-x="293" unicode=")"/>
			<glyph d="M146 680H189Q199 680 199 670L198 589L268 631Q277 636 282 627L303 589Q308 580 299 575L229 536L299 497Q308 492 303 483L282 445Q277 436 268 441L198 483L199 402Q199 392 189 392H146Q136 392 136 402L137 483L67 441Q58 436 53 445L32 483Q27 492 36 497L106 536L36 575Q27 580 32 589L53 627Q58 636 67 631L137 589L136 670Q136 680 146 680Z" horiz-adv-x="335" unicode="*"/>
			<glyph d="M234 495H315Q325 495 325 485V331Q325 325 331 325H484Q494 325 494 315V237Q494 227 484 227H331Q325 227 325 221V67Q325 57 315 57H234Q224 57 224 67V221Q224 227 218 227H65Q55 227 55 237V315Q55 325 65 325H218Q224 325 224 331V485Q224 495 234 495Z" unicode="+"/>
			<glyph d="M76 122H170Q180 122 180 112V3Q180 -11 173 -18L90 -104Q83 -111 76 -111Q66 -111 66 -101V112Q66 122 76 122Z" horiz-adv-x="246" unicode=","/>
			<glyph d="M55 315H330Q340 315 340 305V226Q340 216 330 216H55Q45 216 45 226V305Q45 315 55 315Z" horiz-adv-x="385" unicode="-"/>
			<glyph d="M76 122H176Q186 122 186 112V10Q186 0 176 0H76Q66 0 66 10V112Q66 122 76 122Z" horiz-adv-x="252" unicode="."/>
			<glyph d="M289 691H364Q374 691 371 681L149 -1Q146 -11 136 -11H61Q51 -11 54 -1L276 681Q279 691 289 691Z" horiz-adv-x="425" unicode="/"/>
			<glyph d="M274 691Q348 691 397 656T468 558Q469 554 472 542T478 496T482 340Q482 273 480 214T468 122Q447 58 397 23T274 -11Q200 -11 150 23T81 122Q80 126 77 137T70 184T67 340Q67 407 68 465T81 558Q101 622 150 656T274 691ZM274 591Q211 591 191 537Q186 525 184 493T182 340Q182 274 182 220T191 143Q211 89 274 89Q339 89 358 143Q363 158 365 188T367 340Q367 406 366 460T358 537Q339 591 274 591Z" unicode="0"/>
			<glyph d="M264 680H349Q359 680 359 670V10Q359 0 349 0H257Q247 0 247 10V546H245L141 473Q130 466 130 479V581Q130 589 137 595L246 674Q254 680 264 680Z" unicode="1"/>
			<glyph d="M274 691Q366 691 420 637T474 501Q474 419 410 342L212 102V100H464Q474 100 474 90V10Q474 0 464 0H82Q72 0 72 10V85Q72 93 77 98L317 397Q361 451 361 501Q361 540 336 565T271 591Q232 591 208 568T179 506Q177 496 168 498L80 516Q70 518 72 528Q79 594 131 642T274 691Z" unicode="2"/>
			<glyph d="M270 691Q363 691 416 639T470 503Q470 460 450 423T394 362V360Q428 346 456 301T484 195Q484 103 423 46T271 -11Q191 -11 133 28T61 135Q59 145 69 148L156 168Q165 170 168 161Q179 129 205 109T271 89Q317 89 344 117T371 190Q371 241 340 271T260 301H231Q221 301 221 311V390Q221 400 231 400H258Q302 400 329 427T357 499Q357 540 332 565T266 591Q195 591 175 521Q172 512 163 514L78 534Q68 536 70 546Q82 609 136 650T270 691Z" unicode="3"/>
			<glyph d="M283 680H378Q389 680 385 671L169 206V204H323Q329 204 329 210V380Q329 390 339 390H431Q441 390 441 380V210Q441 204 447 204H497Q507 204 507 194V114Q507 104 497 104H447Q441 104 441 98V10Q441 0 431 0H339Q329 0 329 10V98Q329 104 323 104H56Q46 104 46 114V191L49 203L269 672Q273 680 283 680Z" unicode="4"/>
			<glyph d="M100 680H462Q472 680 472 670V590Q472 580 462 580H199Q193 580 193 574V421H196Q233 451 296 451Q361 451 407 420T471 336Q486 288 486 220Q486 155 472 113Q453 56 400 22T280 -11Q202 -11 147 27T81 129Q79 138 89 141L174 162Q183 163 186 154Q196 125 220 107T280 89Q309 89 332 104T364 145Q373 168 373 220Q373 270 364 295Q346 351 279 351Q256 351 232 340T196 304Q192 294 184 294H100Q90 294 90 304V670Q90 680 100 680Z" unicode="5"/>
			<glyph d="M293 680H389Q400 680 395 670L245 398L247 396Q265 405 298 405Q379 405 435 350T492 204Q492 103 430 46T275 -11Q181 -11 119 45T58 199Q58 272 103 355L281 674Q285 680 293 680ZM275 305Q229 305 200 275T172 197Q172 149 200 119T275 89Q322 89 350 119T379 197Q379 245 350 275T275 305Z" unicode="6"/>
			<glyph d="M90 680H471Q481 680 481 670V592L478 574L253 9Q249 0 240 0H145Q134 0 139 11L361 577V580H192Q186 580 186 574V496Q186 486 176 486H90Q80 486 80 496V670Q80 680 90 680Z" unicode="7"/>
			<glyph d="M274 691Q369 691 424 634T479 497Q479 463 462 423T409 358V356Q446 333 470 290T494 193Q494 103 432 46T274 -11Q178 -11 116 46T55 193Q55 233 74 279T140 356V358Q112 377 91 414T70 497Q70 577 125 634T274 691ZM274 591Q234 591 208 564T183 499Q183 462 208 434T274 407Q314 407 340 434T366 499Q366 537 340 564T274 591ZM274 307Q227 307 197 276T168 198Q168 150 197 119T274 89Q322 89 351 119T381 198Q381 245 351 276T274 307Z" unicode="8"/>
			<glyph d="M274 691Q368 691 429 634T491 481Q491 405 446 325L269 6Q265 0 257 0H160Q149 0 154 10L304 282L302 284Q286 275 251 275Q170 275 113 330T57 476Q57 576 119 633T274 691ZM274 591Q228 591 199 561T171 483Q171 435 199 405T274 375Q321 375 349 405T378 483Q378 531 349 561T274 591Z" unicode="9"/>
			<glyph d="M80 482H180Q190 482 190 472V370Q190 360 180 360H80Q70 360 70 370V472Q70 482 80 482ZM80 122H180Q190 122 190 112V10Q190 0 180 0H80Q70 0 70 10V112Q70 122 80 122Z" horiz-adv-x="260" unicode=":"/>
			<glyph d="M80 482H180Q190 482 190 472V370Q190 360 180 360H80Q70 360 70 370V472Q70 482 80 482ZM83 122H177Q187 122 187 112V3Q187 -10 181 -17L97 -104Q90 -111 83 -111Q73 -111 73 -101V112Q73 122 83 122Z" horiz-adv-x="260" unicode=";"/>
			<glyph d="M484 495Q494 498 494 489V400Q494 391 484 387L198 277V275L484 165Q494 161 494 152V63Q494 54 484 57L65 229Q55 232 55 243V309Q55 320 65 323Z" unicode="&lt;"/>
			<glyph d="M65 425H484Q494 425 494 415V337Q494 327 484 327H65Q55 327 55 337V415Q55 425 65 425ZM65 225H484Q494 225 494 215V137Q494 127 484 127H65Q55 127 55 137V215Q55 225 65 225Z" unicode="="/>
			<glyph d="M65 495L484 323Q494 320 494 309V243Q494 232 484 229L65 57Q55 54 55 63V152Q55 161 65 165L351 275V277L65 387Q55 391 55 400V489Q55 498 65 495Z" unicode="&gt;"/>
			<glyph d="M232 691Q314 691 367 642T420 517Q420 454 379 400L300 292Q280 267 280 229V200Q280 190 270 190H177Q167 190 167 200V241Q167 290 193 326L272 434Q306 479 306 516Q306 548 284 569T228 591Q157 591 143 511Q141 501 132 503L42 517Q32 518 34 529Q46 604 98 647T232 691ZM173 122H273Q283 122 283 112V10Q283 0 273 0H173Q163 0 163 10V112Q163 122 173 122Z" horiz-adv-x="464" unicode="?"/>
			<glyph d="M450 660Q535 660 608 631T735 549T817 424T846 268Q846 164 799 109T681 54Q596 54 560 118H559Q527 55 427 55Q315 55 283 153Q270 192 270 264Q270 336 283 375Q298 423 335 448T423 473Q460 473 489 458T531 422H533V453Q533 462 541 462H615Q623 462 623 453V206Q623 180 636 158T681 136Q754 136 754 268Q754 406 671 492T450 578Q311 578 228 492T146 268Q146 129 228 43T450 -42Q568 -42 664 3Q674 8 678 -2L701 -56Q706 -64 697 -69Q593 -124 450 -124Q365 -124 291 -95T165 -14T83 111T54 268Q54 352 83 425T165 550T291 631T450 660ZM448 390Q388 390 369 334Q362 313 362 264Q362 215 369 193Q388 138 448 138Q508 138 526 193Q533 215 533 264Q533 313 526 334Q508 390 448 390Z" horiz-adv-x="900" unicode="@"/>
			<glyph d="M264 680H356Q366 680 369 670L599 10Q602 0 592 0H494Q484 0 481 10L436 142H180L135 10Q132 0 122 0H25Q15 0 18 10L251 670Q254 680 264 680ZM307 511L216 247H400L310 511Z" horiz-adv-x="617" unicode="A"/>
			<glyph d="M85 680H338Q443 680 496 631T550 499Q550 397 471 355V353Q506 340 534 298T562 200Q562 101 501 50T328 0H85Q75 0 75 10V670Q75 680 85 680ZM199 576Q193 576 193 570V403Q193 397 199 397H335Q379 397 405 422T432 486Q432 526 405 551T335 576ZM199 293Q193 293 193 287V110Q193 104 199 104H341Q389 104 416 130T444 199Q444 241 416 267T341 293Z" horiz-adv-x="607" unicode="B"/>
			<glyph d="M309 691Q391 691 451 651T539 545Q542 536 534 533L449 492Q440 487 436 497Q396 585 309 585Q218 585 187 495Q175 458 175 340Q175 222 187 185Q218 95 309 95Q396 95 436 183Q440 193 449 188L534 147Q542 144 539 135Q511 69 451 29T309 -11Q222 -11 160 31T73 156Q65 180 60 212T55 340Q55 389 56 434T73 524Q99 606 160 648T309 691Z" horiz-adv-x="575" unicode="C"/>
			<glyph d="M85 680H328Q506 680 555 529Q572 476 572 340Q572 204 555 151Q506 0 328 0H85Q75 0 75 10V670Q75 680 85 680ZM199 574Q193 574 193 568V112Q193 106 199 106H300Q413 106 441 192Q453 225 453 340Q453 455 441 488Q413 574 300 574Z" horiz-adv-x="625" unicode="D"/>
			<glyph d="M85 680H511Q521 680 521 670V584Q521 574 511 574H199Q193 574 193 568V402Q193 396 199 396H462Q472 396 472 386V300Q472 290 462 290H199Q193 290 193 284V112Q193 106 199 106H511Q521 106 521 96V10Q521 0 511 0H85Q75 0 75 10V670Q75 680 85 680Z" horiz-adv-x="570" unicode="E"/>
			<glyph d="M85 680H511Q521 680 521 670V584Q521 574 511 574H199Q193 574 193 568V395Q193 389 199 389H462Q472 389 472 379V293Q472 283 462 283H199Q193 283 193 277V10Q193 0 183 0H85Q75 0 75 10V670Q75 680 85 680Z" horiz-adv-x="561" unicode="F"/>
			<glyph d="M316 691Q395 691 461 654T553 547Q557 538 549 533L465 496Q456 493 452 501Q405 585 315 585Q218 585 187 496Q175 459 175 340Q175 222 187 184Q218 95 315 95Q360 95 395 117T444 180Q455 213 455 268Q455 274 449 274H337Q327 274 327 284V364Q327 374 337 374H562Q572 374 572 364V305Q572 205 556 156Q531 77 467 33T316 -11Q225 -11 162 31T73 153Q65 177 60 211T55 340Q55 389 56 436T73 527Q99 607 162 649T316 691Z" horiz-adv-x="627" unicode="G"/>
			<glyph d="M85 680H183Q193 680 193 670V402Q193 396 199 396H458Q464 396 464 402V670Q464 680 474 680H572Q582 680 582 670V10Q582 0 572 0H474Q464 0 464 10V284Q464 290 458 290H199Q193 290 193 284V10Q193 0 183 0H85Q75 0 75 10V670Q75 680 85 680Z" horiz-adv-x="657" unicode="H"/>
			<glyph d="M85 680H183Q193 680 193 670V10Q193 0 183 0H85Q75 0 75 10V670Q75 680 85 680Z" horiz-adv-x="268" unicode="I"/>
			<glyph d="M328 680H426Q436 680 436 670V229Q436 115 373 52T201 -11Q146 -11 96 13T24 71Q19 79 26 85L99 140Q107 145 114 137Q128 120 153 107T205 95Q257 95 287 128T318 229V670Q318 680 328 680Z" horiz-adv-x="507" unicode="J"/>
			<glyph d="M85 680H183Q193 680 193 670V350L450 672Q457 680 466 680H580Q584 680 585 675T584 667L373 413L608 12Q611 7 609 3T601 0H490Q480 0 475 8L297 322L193 196V10Q193 0 183 0H85Q75 0 75 10V670Q75 680 85 680Z" horiz-adv-x="633" unicode="K"/>
			<glyph d="M85 680H183Q193 680 193 670V112Q193 106 199 106H511Q521 106 521 96V10Q521 0 511 0H85Q75 0 75 10V670Q75 680 85 680Z" horiz-adv-x="545" unicode="L"/>
			<glyph d="M85 680H174Q187 680 191 670L378 251H382L566 670Q570 680 583 680H671Q681 680 681 670V10Q681 0 671 0H584Q574 0 574 10V426H570L426 106Q420 93 407 93H349Q336 93 330 106L186 426H182V10Q182 0 172 0H85Q75 0 75 10V670Q75 680 85 680Z" horiz-adv-x="756" unicode="M"/>
			<glyph d="M85 680H177Q188 680 194 670L471 201H475V670Q475 680 485 680H572Q582 680 582 670V10Q582 0 572 0H481Q470 0 464 10L186 478H182V10Q182 0 172 0H85Q75 0 75 10V670Q75 680 85 680Z" horiz-adv-x="657" unicode="N"/>
			<glyph d="M313 691Q402 691 465 649T554 527Q562 503 567 469T572 340Q572 291 570 244T554 153Q528 73 465 31T313 -11Q224 -11 161 31T73 153Q65 177 60 211T55 340Q55 389 56 436T73 527Q99 607 161 649T313 691ZM313 585Q218 585 187 496Q175 459 175 340Q175 222 187 184Q218 95 313 95Q409 95 440 184Q452 222 452 340Q452 459 440 496Q409 585 313 585Z" horiz-adv-x="627" unicode="O"/>
			<glyph d="M85 680H340Q439 680 501 621T564 469Q564 374 501 315T340 257H199Q193 257 193 251V10Q193 0 183 0H85Q75 0 75 10V670Q75 680 85 680ZM199 574Q193 574 193 568V370Q193 364 199 364H333Q384 364 415 393T446 469Q446 515 415 544T333 574Z" horiz-adv-x="598" unicode="P"/>
			<glyph d="M313 691Q402 691 465 649T554 527Q562 503 567 469T572 340Q572 291 570 244T554 153L534 107L608 36Q614 30 608 22L546 -44Q539 -51 531 -44L457 26Q398 -11 313 -11Q224 -11 161 31T73 153Q65 177 60 211T55 340Q55 389 56 436T73 527Q99 607 161 649T313 691ZM313 586Q265 586 232 562T185 496Q173 459 173 340Q173 222 185 184Q199 142 232 118T313 94Q351 94 374 105L306 171Q299 176 306 185L369 251Q377 259 383 252L444 193Q454 229 454 340Q454 459 442 496Q427 538 394 562T313 586Z" horiz-adv-x="627" unicode="Q"/>
			<glyph d="M85 680H348Q442 680 503 623T565 477Q565 412 529 362T436 290L579 13Q582 8 579 4T572 0H461Q450 0 446 10L316 275H199Q193 275 193 269V10Q193 0 183 0H85Q75 0 75 10V670Q75 680 85 680ZM199 574Q193 574 193 568V387Q193 381 199 381H344Q390 381 419 407T448 477Q448 520 419 547T344 574Z" horiz-adv-x="619" unicode="R"/>
			<glyph d="M291 691Q337 691 398 676T511 623Q518 617 513 609L465 535Q459 527 451 532Q370 585 288 585Q238 585 209 559T181 494Q181 420 306 402L342 397Q545 369 545 200Q545 106 478 47T289 -11Q218 -11 149 15T39 79Q31 87 37 94L99 166Q106 174 113 167Q204 95 298 95Q357 95 391 122T426 193Q426 270 302 287L266 292Q61 320 61 486Q61 578 124 634T291 691Z" horiz-adv-x="587" unicode="S"/>
			<glyph d="M32 680H518Q528 680 528 670V584Q528 574 518 574H340Q334 574 334 568V10Q334 0 324 0H226Q216 0 216 10V568Q216 574 210 574H32Q22 574 22 584V670Q22 680 32 680Z" horiz-adv-x="550" unicode="T"/>
			<glyph d="M81 680H179Q189 680 189 670V241Q189 172 225 133T321 95Q381 95 417 133T454 241V670Q454 680 464 680H562Q572 680 572 670V239Q572 123 501 56T321 -11Q211 -11 141 56T71 239V670Q71 680 81 680Z" horiz-adv-x="643" unicode="U"/>
			<glyph d="M22 680H119Q129 680 132 670L284 188H287L433 670Q436 680 446 680H543Q554 680 551 670L335 10Q332 0 323 0H241Q232 0 229 10L14 670Q11 680 22 680Z" horiz-adv-x="565" unicode="V"/>
			<glyph d="M24 680H118Q128 680 130 670L238 212H240L367 670Q370 680 379 680H449Q458 680 461 670L591 212H593L698 670Q699 680 710 680H803Q813 680 811 670L645 10Q643 0 633 0H557Q548 0 545 10L415 475H413L282 10Q279 0 270 0H195Q186 0 183 10L16 670Q14 680 24 680Z" horiz-adv-x="827" unicode="W"/>
			<glyph d="M38 680H146Q156 680 162 670L285 464H287L410 670Q416 680 426 680H534Q539 680 541 676T540 667L352 352L555 13Q558 8 556 4T549 0H440Q430 0 424 10L287 241H285L147 10Q141 0 131 0H23Q18 0 16 4T17 13L220 352L32 667Q29 672 31 676T38 680Z" horiz-adv-x="572" unicode="X"/>
			<glyph d="M20 680H121Q131 680 135 670L268 406H271L405 670Q409 680 419 680H516Q528 680 524 670L327 278V10Q327 0 317 0H219Q209 0 209 10V278L12 670Q11 674 13 677T20 680Z" horiz-adv-x="536" unicode="Y"/>
			<glyph d="M66 680H478Q488 680 488 670V584L485 574L178 108V106H478Q488 106 488 96V10Q488 0 478 0H55Q45 0 45 10V96L48 107L355 572V574H66Q56 574 56 584V670Q56 680 66 680Z" horiz-adv-x="532" unicode="Z"/>
			<glyph d="M72 740H239Q249 740 249 730V664Q249 654 239 654H171Q165 654 165 648V8Q165 2 171 2H239Q249 2 249 -8V-74Q249 -84 239 -84H72Q62 -84 62 -74V730Q62 740 72 740Z" horiz-adv-x="280" unicode="["/>
			<glyph d="M61 691H136Q146 691 149 681L371 -1Q374 -11 364 -11H289Q279 -11 276 -1L54 681Q51 691 61 691Z" horiz-adv-x="425" unicode="\"/>
			<glyph d="M41 740H208Q218 740 218 730V-74Q218 -84 208 -84H41Q31 -84 31 -74V-8Q31 2 41 2H109Q115 2 115 8V648Q115 654 109 654H41Q31 654 31 664V730Q31 740 41 740Z" horiz-adv-x="280" unicode="]"/>
			<glyph d="M243 680H305Q314 680 319 670L493 273Q498 263 487 263H404Q394 263 390 273L275 543H273L158 273Q154 263 145 263H62Q51 263 56 273L229 670Q234 680 243 680Z" unicode="^"/>
			<glyph d="M0 -70H492V-136H0Z" horiz-adv-x="492" unicode="_"/>
			<glyph d="M121 700H212Q224 700 230 690L304 565Q309 555 298 555H231Q220 555 211 565L116 690Q113 693 115 696T121 700Z" horiz-adv-x="422" unicode="`"/>
			<glyph d="M253 493Q349 493 401 459T454 325V10Q454 0 444 0H360Q350 0 350 10V45H349Q310 -11 213 -11Q143 -11 97 26T51 136Q51 203 96 246T244 289H342Q348 289 348 295V318Q348 360 323 379T241 398Q173 398 131 365Q122 358 117 367L80 433Q75 441 82 446Q147 493 253 493ZM262 205Q158 205 158 140Q158 80 241 80Q348 80 348 162V199Q348 205 342 205Z" horiz-adv-x="523" unicode="a"/>
			<glyph d="M83 680H175Q185 680 185 670V436H186Q226 493 314 493Q375 493 419 463T481 377Q498 325 498 241Q498 157 481 105Q463 49 419 19T314 -11Q226 -11 186 46H185V10Q185 0 175 0H83Q73 0 73 10V670Q73 680 83 680ZM285 393Q215 393 195 331Q185 300 185 241Q185 182 195 151Q215 89 285 89Q354 89 374 151Q384 182 384 241Q384 300 374 331Q354 393 285 393Z" horiz-adv-x="545" unicode="b"/>
			<glyph d="M261 493Q366 493 428 418Q434 410 427 404L364 349Q356 343 350 351Q313 393 261 393Q192 393 171 330Q161 300 161 241Q161 181 171 151Q192 89 261 89Q313 89 350 131Q356 138 364 132L427 77Q433 72 428 63Q366 -11 261 -11Q189 -11 135 24T62 122Q47 167 47 241Q47 315 62 360Q82 423 135 458T261 493Z" horiz-adv-x="475" unicode="c"/>
			<glyph d="M370 680H462Q472 680 472 670V10Q472 0 462 0H370Q360 0 360 10V46H359Q319 -11 231 -11Q170 -11 126 19T64 105Q47 157 47 241Q47 325 64 377Q82 433 126 463T231 493Q319 493 359 436H360V670Q360 680 370 680ZM260 393Q191 393 171 331Q161 300 161 241Q161 182 171 151Q191 89 260 89Q330 89 350 151Q360 182 360 241Q360 300 350 331Q330 393 260 393Z" horiz-adv-x="545" unicode="d"/>
			<glyph d="M260 493Q332 493 385 457T458 360Q474 311 474 215Q474 205 463 205H166Q160 205 160 199Q160 181 167 162Q192 89 275 89Q346 89 388 135Q396 143 403 137L462 85Q469 79 463 71Q431 34 379 11T265 -11Q190 -11 137 25T64 123Q47 176 47 241Q47 310 63 360Q83 422 136 457T260 493ZM261 398Q227 398 201 381T166 336Q160 318 160 295Q160 289 166 289H355Q361 289 361 295Q361 318 355 336Q345 365 319 381T261 398Z" horiz-adv-x="521" unicode="e"/>
			<glyph d="M248 680H292Q302 680 302 670V590Q302 580 292 580H261Q233 580 216 572T200 521V488Q200 482 206 482H292Q302 482 302 472V405Q302 395 292 395H206Q200 395 200 389V10Q200 0 190 0H98Q88 0 88 10V389Q88 395 82 395H50Q40 395 40 405V472Q40 482 50 482H82Q88 482 88 488V519Q88 680 248 680Z" horiz-adv-x="328" unicode="f"/>
			<glyph d="M225 493Q314 493 350 436H351V472Q351 482 361 482H453Q463 482 463 472V30Q463 -74 405 -132T238 -191Q188 -191 139 -171T63 -119Q57 -112 64 -105L123 -46Q131 -38 138 -46Q185 -91 243 -91Q351 -91 351 24V69H350Q314 13 225 13Q165 13 122 43T61 130Q45 179 45 253Q45 326 61 375Q79 432 122 462T225 493ZM254 393Q189 393 169 332Q158 300 158 253Q158 204 169 174Q189 112 254 112Q320 112 340 174Q351 204 351 253Q351 300 340 332Q320 393 254 393Z" horiz-adv-x="536" unicode="g"/>
			<glyph d="M83 680H175Q185 680 185 670V437H186Q203 461 236 477T313 493Q389 493 434 442T480 314V10Q480 0 470 0H378Q368 0 368 10V288Q368 335 344 364T277 393Q235 393 210 364T185 288V10Q185 0 175 0H83Q73 0 73 10V670Q73 680 83 680Z" horiz-adv-x="548" unicode="h"/>
			<glyph d="M83 680H175Q185 680 185 670V583Q185 573 175 573H83Q73 573 73 583V670Q73 680 83 680ZM83 482H175Q185 482 185 472V10Q185 0 175 0H83Q73 0 73 10V472Q73 482 83 482Z" horiz-adv-x="258" unicode="i"/>
			<glyph d="M83 680H175Q185 680 185 670V583Q185 573 175 573H83Q73 573 73 583V670Q73 680 83 680ZM83 482H175Q185 482 185 472V-21Q185 -180 23 -180H-5Q-15 -180 -15 -170V-90Q-15 -80 -5 -80H17Q40 -80 56 -71T73 -23V472Q73 482 83 482Z" horiz-adv-x="258" unicode="j"/>
			<glyph d="M83 680H175Q185 680 185 670V278L350 472Q359 482 369 482H471Q475 482 476 478T475 472L322 296L498 10Q500 7 498 3T493 0H388Q378 0 372 10L250 212L185 137V10Q185 0 175 0H83Q73 0 73 10V670Q73 680 83 680Z" horiz-adv-x="522" unicode="k"/>
			<glyph d="M81 680H173Q183 680 183 670V138Q183 120 190 107T225 94H247Q257 94 257 84V4Q257 -6 247 -6H203Q142 -6 106 23T71 132V670Q71 680 81 680Z" horiz-adv-x="291" unicode="l"/>
			<glyph d="M313 493Q400 493 445 429H446Q505 493 600 493Q682 493 728 443T775 314V10Q775 0 765 0H673Q663 0 663 10V288Q663 335 639 364T572 393Q530 393 505 364T480 288V10Q480 0 470 0H378Q368 0 368 10V288Q368 335 344 364T277 393Q235 393 210 364T185 288V10Q185 0 175 0H83Q73 0 73 10V472Q73 482 83 482H175Q185 482 185 472V437H186Q203 461 236 477T313 493Z" horiz-adv-x="843" unicode="m"/>
			<glyph d="M313 493Q389 493 434 442T480 314V10Q480 0 470 0H378Q368 0 368 10V288Q368 335 344 364T277 393Q235 393 210 364T185 288V10Q185 0 175 0H83Q73 0 73 10V472Q73 482 83 482H175Q185 482 185 472V437H186Q203 461 236 477T313 493Z" horiz-adv-x="548" unicode="n"/>
			<glyph d="M262 493Q334 493 387 457T460 360Q476 311 476 241Q476 171 460 122Q440 60 387 24T262 -11Q190 -11 136 24T63 122Q47 171 47 241Q47 311 63 360Q83 422 136 457T262 493ZM262 393Q193 393 171 330Q161 298 161 241Q161 183 171 152Q193 89 262 89Q330 89 352 152Q362 183 362 241Q362 298 352 330Q330 393 262 393Z" horiz-adv-x="523" unicode="o"/>
			<glyph d="M314 493Q375 493 419 463T481 377Q498 325 498 241Q498 157 481 105Q463 49 419 19T314 -11Q226 -11 186 46H185V-170Q185 -180 175 -180H83Q73 -180 73 -170V472Q73 482 83 482H175Q185 482 185 472V436H186Q226 493 314 493ZM285 393Q215 393 195 331Q185 300 185 241Q185 182 195 151Q215 89 285 89Q354 89 374 151Q384 182 384 241Q384 300 374 331Q354 393 285 393Z" horiz-adv-x="545" unicode="p"/>
			<glyph d="M231 493Q319 493 359 436H360V472Q360 482 370 482H462Q472 482 472 472V-170Q472 -180 462 -180H370Q360 -180 360 -170V46H359Q319 -11 231 -11Q170 -11 126 19T64 105Q47 157 47 241Q47 325 64 377Q82 433 126 463T231 493ZM260 393Q191 393 171 331Q161 300 161 241Q161 182 171 151Q191 89 260 89Q330 89 350 151Q360 182 360 241Q360 300 350 331Q330 393 260 393Z" horiz-adv-x="545" unicode="q"/>
			<glyph d="M311 493Q337 493 365 482T412 453Q419 446 414 439L361 372Q355 364 347 370Q311 393 276 393Q185 393 185 271V10Q185 0 175 0H83Q73 0 73 10V472Q73 482 83 482H175Q185 482 185 472V431H186Q225 493 311 493Z" horiz-adv-x="423" unicode="r"/>
			<glyph d="M252 493Q358 493 433 434Q441 428 435 420L386 361Q380 354 372 359Q315 399 246 399Q212 399 192 385T173 349Q173 327 190 314T252 298L304 293Q369 287 411 253T453 152Q453 78 400 33T251 -11Q126 -11 44 65Q37 72 44 79L101 139Q108 146 115 139Q141 115 180 99T256 84Q298 84 321 100T345 141Q345 164 327 177T265 194L213 199Q140 206 102 242T65 341Q65 411 114 452T252 493Z" horiz-adv-x="498" unicode="s"/>
			<glyph d="M90 630H182Q192 630 192 620V488Q192 482 198 482H262Q272 482 272 472V405Q272 395 262 395H198Q192 395 192 389V139Q192 121 200 107T237 94H262Q272 94 272 84V4Q272 -6 262 -6H214Q152 -6 116 24T80 135V389Q80 395 74 395H42Q32 395 32 405V472Q32 482 42 482H74Q80 482 80 488V620Q80 630 90 630Z" horiz-adv-x="321" unicode="t"/>
			<glyph d="M77 482H169Q179 482 179 472V194Q179 147 202 118T269 89Q310 89 334 118T359 193V472Q359 482 369 482H461Q471 482 471 472V10Q471 0 461 0H369Q359 0 359 10V45H358Q314 -11 233 -11Q157 -11 112 39T67 168V472Q67 482 77 482Z" horiz-adv-x="544" unicode="u"/>
			<glyph d="M28 482H126Q135 482 138 472L244 159H246L350 472Q353 482 362 482H458Q469 482 466 472L296 10Q293 0 283 0H203Q193 0 190 10L20 472Q17 482 28 482Z" horiz-adv-x="486" unicode="v"/>
			<glyph d="M31 482H127Q137 482 140 472L233 154H235L327 472Q330 482 340 482H412Q422 482 425 472L523 154H525L613 472Q616 482 626 482H722Q732 482 729 472L577 10Q574 0 565 0H483Q474 0 471 10L378 318H376L282 10Q279 0 270 0H188Q179 0 176 10L24 472Q21 482 31 482Z" horiz-adv-x="753" unicode="w"/>
			<glyph d="M43 482H143Q154 482 160 472L247 342H248L336 472Q343 482 352 482H452Q466 482 460 472L309 250L472 10Q478 0 464 0H364Q355 0 348 10L248 157H247L147 10Q140 0 130 0H31Q17 0 23 10L186 250L35 472Q29 482 43 482Z" horiz-adv-x="495" unicode="x"/>
			<glyph d="M26 482H125Q134 482 137 472L246 157H248L352 472Q355 482 364 482H459Q470 482 467 472L283 -30Q255 -105 221 -142T121 -180H90Q80 -180 80 -170V-90Q80 -80 90 -80H108Q129 -80 147 -70T180 -23L194 18L18 472Q15 482 26 482Z" horiz-adv-x="485" unicode="y"/>
			<glyph d="M75 482H423Q433 482 433 472V394L430 384L187 100V98H423Q433 98 433 88V10Q433 0 423 0H62Q52 0 52 10V83L55 93L301 382V384H75Q65 384 65 394V472Q65 482 75 482Z" horiz-adv-x="485" unicode="z"/>
			<glyph d="M248 740H306Q316 740 316 730V664Q316 654 306 654H275Q232 654 232 612V454Q232 413 220 380T162 331V330Q190 321 211 298T232 207V44Q232 2 275 2H306Q316 2 316 -8V-74Q316 -84 306 -84H248Q192 -84 160 -52T129 36V204Q129 281 61 281Q51 281 51 291V370Q51 380 61 380Q129 380 129 457V620Q129 677 160 708T248 740Z" horiz-adv-x="346" unicode="{"/>
			<glyph d="M129 740H201Q211 740 211 730V-74Q211 -84 201 -84H129Q119 -84 119 -74V730Q119 740 129 740Z" horiz-adv-x="330" unicode="|"/>
			<glyph d="M41 740H98Q154 740 185 708T217 620V457Q217 380 285 380Q295 380 295 370V291Q295 281 285 281Q217 281 217 204V36Q217 -21 185 -52T98 -84H41Q31 -84 31 -74V-8Q31 2 41 2H72Q114 2 114 44V207Q114 248 126 281T185 330V331Q157 340 135 363T114 454V612Q114 654 72 654H41Q31 654 31 664V730Q31 740 41 740Z" horiz-adv-x="346" unicode="}"/>
			<glyph d="M189 351Q237 351 294 316Q333 291 362 291Q403 291 430 341Q435 350 445 343L497 312Q504 307 500 298Q480 253 442 226T359 200Q313 200 255 236Q214 261 188 261Q145 261 119 211Q114 202 104 209L52 240Q45 245 49 254Q69 298 107 324T189 351Z" unicode="~"/>
			<glyph d="" horiz-adv-x="236" unicode=" "/>
			<glyph d="M124 292H183Q193 292 193 282L216 -188Q216 -198 206 -198H101Q91 -198 91 -188L114 282Q114 292 124 292ZM104 482H204Q214 482 214 472V370Q214 360 204 360H104Q94 360 94 370V472Q94 482 104 482Z" horiz-adv-x="307" unicode="¡"/>
			<glyph d="M280 581H314Q324 581 324 571V492Q418 483 471 418Q477 410 470 404L408 349Q400 343 394 351Q362 386 324 391V90Q362 96 394 131Q400 138 408 132L470 77Q476 72 471 63Q418 -1 324 -10V-89Q324 -99 314 -99H280Q270 -99 270 -89V-9Q205 -3 159 31T95 122Q80 167 80 241Q80 315 95 360Q113 417 159 451T270 491V571Q270 581 280 581ZM270 390Q219 380 204 330Q194 300 194 241Q194 181 204 151Q219 102 270 91Z" unicode="¢"/>
			<glyph d="M309 691Q374 691 418 656T475 565Q477 556 466 554L378 533Q369 531 367 541Q363 562 347 576T308 591Q287 591 267 576T247 521V365Q247 359 253 359H372Q382 359 382 349V285Q382 275 372 275H253Q247 275 247 269V210Q247 137 224 102V100H466Q476 100 476 90V10Q476 0 466 0H105Q95 0 95 10V88L100 100Q118 118 125 135T133 191V269Q133 275 127 275H80Q70 275 70 285V349Q70 359 80 359H127Q133 359 133 365V503Q133 591 180 641T309 691Z" unicode="£"/>
			<glyph d="M94 556Q102 562 108 556L167 497Q217 526 274 526Q331 526 381 497L440 556Q447 563 454 556L507 502Q513 494 507 488L448 429Q477 379 477 323Q477 266 449 218L508 159Q514 153 508 145L455 91Q448 84 441 91L382 150Q333 120 274 120Q215 120 166 150L108 92Q102 86 94 92L41 146Q34 153 41 160L99 219Q72 267 72 323Q72 381 100 428L41 488Q35 494 41 502ZM274 438Q226 438 194 404T163 323Q163 275 194 241T274 208Q322 208 354 241T386 323Q386 371 354 404T274 438Z" unicode="¤"/>
			<glyph d="M45 680H143Q153 680 156 670L274 392H277L393 670Q396 680 406 680H503Q507 680 509 677T510 670L359 348V346H457Q467 346 467 336V278Q467 268 457 268H336Q330 268 330 262V221Q330 215 336 215H457Q467 215 467 205V147Q467 137 457 137H336Q330 137 330 131V10Q330 0 320 0H228Q218 0 218 10V131Q218 137 212 137H90Q80 137 80 147V205Q80 215 90 215H212Q218 215 218 221V262Q218 268 212 268H90Q80 268 80 278V336Q80 346 90 346H189V348L38 670Q37 674 39 677T45 680Z" unicode="¥"/>
			<glyph d="M129 740H201Q211 740 211 730V398Q211 388 201 388H129Q119 388 119 398V730Q119 740 129 740ZM129 272H201Q211 272 211 262V-74Q211 -84 201 -84H129Q119 -84 119 -74V262Q119 272 129 272Z" horiz-adv-x="330" unicode="¦"/>
			<glyph d="M292 691Q373 691 418 650T467 554Q467 545 460 544L379 527Q369 525 369 534Q365 564 346 582T294 601Q261 601 241 583T222 534Q222 497 248 475T338 438Q486 400 486 252Q486 199 459 155T393 95V94Q422 78 443 50T465 -38Q465 -102 415 -146T287 -191Q205 -191 160 -153T109 -55Q107 -46 115 -44L197 -27Q205 -25 207 -34Q216 -101 285 -101Q321 -101 341 -82T361 -33Q361 5 334 28T242 66Q93 102 93 252Q93 305 118 347T186 409V410Q118 449 118 534Q118 599 167 645T292 691ZM290 348Q248 348 222 322T197 252Q197 207 222 181T290 156Q331 156 356 181T382 252Q382 297 356 322T290 348Z" horiz-adv-x="579" unicode="§"/>
			<glyph d="M271 680H348Q358 680 358 670V583Q358 573 348 573H271Q261 573 261 583V670Q261 680 271 680ZM75 680H152Q162 680 162 670V583Q162 573 152 573H75Q65 573 65 583V670Q65 680 75 680Z" horiz-adv-x="422" unicode="¨"/>
			<glyph d="M413 691Q503 691 588 645T718 515T764 340Q764 250 718 165T588 34T413 -11Q323 -11 238 34T107 165T62 340Q62 430 107 515T238 645T413 691ZM413 615Q298 615 220 536T142 340Q142 222 220 143T413 65Q528 65 606 143T684 340Q684 458 606 536T413 615ZM424 537Q506 537 554 481Q561 474 553 467L507 426Q501 420 493 427Q463 460 425 460Q365 460 346 406Q340 388 340 340Q340 292 346 274Q365 220 425 220Q463 220 493 253Q501 261 507 254L553 213Q561 206 554 199Q506 143 424 143Q364 143 322 171T263 251Q252 286 252 340Q252 394 263 429Q280 481 322 509T424 537Z" horiz-adv-x="826" unicode="©"/>
			<glyph d="M169 688Q235 688 270 667T305 585V402Q305 392 295 392H231Q221 392 221 402V415H219Q193 387 136 387Q93 387 63 409T34 473Q34 520 67 545T160 570H213Q219 570 219 576V583Q219 614 158 614Q121 614 93 599Q84 594 79 602L52 649Q47 658 55 663Q97 688 169 688ZM167 509Q119 509 119 481Q119 455 160 455Q219 455 219 496V503Q219 509 213 509Z" horiz-adv-x="347" unicode="ª"/>
			<glyph d="M472 477T476 472V376Q476 365 466 355L379 268Q375 264 379 260L466 173Q476 163 476 152V56Q476 52 472 50T466 52L262 257Q255 264 262 271L466 476Q469 479 472 477ZM245 477T249 472V376Q249 365 239 355L152 268Q148 264 152 260L239 173Q249 163 249 152V56Q249 52 245 50T239 52L35 257Q28 264 35 271L239 476Q242 479 245 477Z" horiz-adv-x="542" unicode="«"/>
			<glyph d="M65 325H484Q494 325 494 315V102Q494 92 484 92H403Q393 92 393 102V221Q393 227 387 227H65Q55 227 55 237V315Q55 325 65 325Z" unicode="¬"/>
			<glyph d="M55 315H330Q340 315 340 305V226Q340 216 330 216H55Q45 216 45 226V305Q45 315 55 315Z" horiz-adv-x="385" unicode="­"/>
			<glyph d="M223 684Q304 684 359 628T414 493Q414 412 359 356T223 301Q142 301 87 356T32 493Q32 573 87 628T223 684ZM223 645Q159 645 116 601T73 493Q73 427 116 383T223 340Q287 340 330 383T373 493Q373 558 330 601T223 645ZM151 600H234Q270 600 291 583T312 535Q312 491 272 475L314 395Q318 388 309 388H273Q267 388 264 395L225 469H196L192 465V395Q192 388 185 388H151Q144 388 144 395V593Q144 600 151 600ZM196 559Q192 559 192 555V515Q192 511 196 511H234Q266 511 266 535Q266 559 234 559Z" horiz-adv-x="447" unicode="®"/>
			<glyph d="M79 668H342Q352 668 352 658V597Q352 587 342 587H79Q69 587 69 597V658Q69 668 79 668Z" horiz-adv-x="422" unicode="¯"/>
			<glyph d="M233 691Q295 691 337 648T380 543Q380 480 337 437T233 395Q170 395 127 437T85 543Q85 606 127 648T233 691ZM233 626Q198 626 175 602T153 543Q153 508 176 484T233 460Q267 460 289 484T312 543Q312 578 289 602T233 626Z" horiz-adv-x="465" unicode="°"/>
			<glyph d="M234 595H315Q325 595 325 585V431Q325 425 331 425H484Q494 425 494 415V337Q494 327 484 327H331Q325 327 325 321V167Q325 157 315 157H234Q224 157 224 167V321Q224 327 218 327H65Q55 327 55 337V415Q55 425 65 425H218Q224 425 224 431V585Q224 595 234 595ZM65 99H484Q494 99 494 89V10Q494 0 484 0H65Q55 0 55 10V89Q55 99 65 99Z" unicode="±"/>
			<glyph d="M177 844Q234 844 270 809T307 724Q307 673 263 624L154 508V507H297Q307 507 307 497V440Q307 430 297 430H52Q42 430 42 440V497Q42 505 48 511L192 669Q219 698 219 724Q219 743 207 755T176 767Q134 767 127 725Q125 715 116 717L51 731Q41 733 43 742Q47 778 83 811T177 844Z" horiz-adv-x="349" unicode="²"/>
			<glyph d="M172 844Q233 844 268 812T304 728Q304 678 263 645V644Q282 636 298 610T314 551Q314 492 276 457T176 422Q123 422 85 445T36 513Q34 525 43 526L107 542Q114 543 119 534Q136 499 174 499Q197 499 211 513T226 549Q226 571 210 585T169 599H149Q139 599 139 609V666Q139 676 149 676H164Q188 676 202 688T216 721Q216 767 170 767Q137 767 122 738Q118 730 109 732L49 746Q40 747 42 758Q51 795 86 819T172 844Z" horiz-adv-x="349" unicode="³"/>
			<glyph d="M210 700H301Q305 700 307 696T306 690L211 565Q202 555 191 555H123Q112 555 117 565L192 690Q198 700 210 700Z" horiz-adv-x="422" unicode="´"/>
			<glyph d="M83 482H175Q185 482 185 472V193Q185 146 208 117T275 89Q317 89 342 118T368 193V472Q368 482 378 482H470Q480 482 480 472V139Q480 112 485 103T509 94Q519 94 519 84V4Q519 -6 509 -6H484Q448 -6 419 4T379 56H378Q364 31 335 10T260 -11Q208 -11 187 19H185V-170Q185 -180 175 -180H83Q73 -180 73 -170V472Q73 482 83 482Z" horiz-adv-x="579" unicode="µ"/>
			<glyph d="M297 680H537Q547 680 547 670V-170Q547 -180 537 -180H460Q450 -180 450 -170V580Q450 586 444 586H373Q367 586 367 580V-170Q367 -180 357 -180H280Q270 -180 270 -170V258Q182 263 127 323T72 469Q72 559 132 619T297 680Z" horiz-adv-x="634" unicode="¶"/>
			<glyph d="M76 326H176Q186 326 186 316V214Q186 204 176 204H76Q66 204 66 214V316Q66 326 76 326Z" horiz-adv-x="252" unicode="·"/>
			<glyph d="M211 10H279Q289 10 286 0L240 -145Q237 -155 224 -155H146Q136 -155 139 -145L198 0Q202 10 211 10Z" horiz-adv-x="422" unicode="¸"/>
			<glyph d="M168 836H233Q243 836 243 826V440Q243 430 233 430H166Q156 430 156 440V734H154L91 693Q88 691 84 693T81 700V772Q81 782 89 787L151 829Q161 836 168 836Z" horiz-adv-x="349" unicode="¹"/>
			<glyph d="M178 688Q287 688 315 601Q324 576 324 536Q324 497 315 471Q287 384 178 384Q69 384 41 471Q32 497 32 536Q32 576 41 601Q69 688 178 688ZM178 609Q141 609 129 576Q124 558 124 536Q124 514 129 496Q141 463 178 463Q214 463 226 496Q231 514 231 536Q231 558 226 576Q214 609 178 609Z" horiz-adv-x="356" unicode="º"/>
			<glyph d="M296 477T303 476L507 271Q514 264 507 257L303 52Q300 49 296 50T293 56V152Q293 163 303 173L390 260Q394 264 390 268L303 355Q293 365 293 376V472Q293 476 296 477ZM69 477T76 476L280 271Q287 264 280 257L76 52Q73 49 69 50T66 56V152Q66 163 76 173L163 260Q167 264 163 268L76 355Q66 365 66 376V472Q66 476 69 477Z" horiz-adv-x="542" unicode="»"/>
			<glyph d="M178 680H243Q253 680 253 670V284Q253 274 243 274H176Q166 274 166 284V578H164L101 537Q98 535 94 537T91 544V616Q91 626 99 631L161 673Q171 680 178 680ZM597 406H669Q680 406 675 396L553 136V135H627Q633 135 633 141V223Q633 233 643 233H707Q717 233 717 223V141Q717 135 723 135H740Q750 135 750 125V70Q750 60 740 60H723Q717 60 717 54V10Q717 0 707 0H643Q633 0 633 10V54Q633 60 627 60H465Q455 60 455 70V125L459 140L583 396Q588 406 597 406ZM579 691H644Q648 691 650 688T650 681L255 -1Q249 -11 239 -11H173Q169 -11 167 -8T168 -1L563 681Q569 691 579 691Z" horiz-adv-x="841" unicode="¼"/>
			<glyph d="M178 680H243Q253 680 253 670V284Q253 274 243 274H176Q166 274 166 284V578H164L101 537Q98 535 94 537T91 544V616Q91 626 99 631L161 673Q171 680 178 680ZM660 414Q717 414 753 379T790 294Q790 243 746 194L637 78V77H780Q790 77 790 67V10Q790 0 780 0H535Q525 0 525 10V67Q525 75 531 81L675 239Q702 268 702 294Q702 313 690 325T659 337Q617 337 610 295Q608 285 599 287L534 301Q524 303 526 312Q530 348 566 381T660 414ZM579 691H644Q648 691 650 688T650 681L255 -1Q249 -11 239 -11H173Q169 -11 167 -8T168 -1L563 681Q569 691 579 691Z" horiz-adv-x="881" unicode="½"/>
			<glyph d="M670 406H742Q753 406 748 396L626 136V135H700Q706 135 706 141V223Q706 233 716 233H780Q790 233 790 223V141Q790 135 796 135H813Q823 135 823 125V70Q823 60 813 60H796Q790 60 790 54V10Q790 0 780 0H716Q706 0 706 10V54Q706 60 700 60H538Q528 60 528 70V125L532 140L656 396Q661 406 670 406ZM227 688Q288 688 323 656T359 572Q359 522 318 489V488Q337 480 353 454T369 395Q369 336 331 301T231 266Q178 266 140 289T91 357Q89 369 98 370L162 386Q169 387 174 378Q191 343 229 343Q252 343 266 357T281 393Q281 415 265 429T224 443H204Q194 443 194 453V510Q194 520 204 520H219Q243 520 257 532T271 565Q271 611 225 611Q192 611 177 582Q173 574 164 576L104 590Q95 591 97 602Q106 639 141 663T227 688ZM654 691H719Q723 691 725 688T725 681L330 -1Q324 -11 314 -11H248Q244 -11 242 -8T243 -1L638 681Q644 691 654 691Z" horiz-adv-x="914" unicode="¾"/>
			<glyph d="M194 292H287Q297 292 297 282V241Q297 192 271 156L192 48Q158 3 158 -34Q158 -66 179 -87T236 -109Q307 -109 321 -29Q323 -19 332 -21L422 -35Q432 -36 430 -47Q418 -122 365 -165T232 -209Q150 -209 97 -160T44 -35Q44 28 85 82L164 190Q184 215 184 253V282Q184 292 194 292ZM191 482H291Q301 482 301 472V370Q301 360 291 360H191Q181 360 181 370V472Q181 482 191 482Z" horiz-adv-x="464" unicode="¿"/>
			<glyph d="M264 680H356Q366 680 369 670L599 10Q602 0 592 0H494Q484 0 481 10L436 142H180L135 10Q132 0 122 0H25Q15 0 18 10L251 670Q254 680 264 680ZM307 511L216 247H400L310 511ZM140 888H238Q249 888 257 878L346 771Q349 767 347 764T342 761H270Q260 761 252 769L136 878Q133 881 134 884T140 888Z" horiz-adv-x="617" unicode="À"/>
			<glyph d="M264 680H356Q366 680 369 670L599 10Q602 0 592 0H494Q484 0 481 10L436 142H180L135 10Q132 0 122 0H25Q15 0 18 10L251 670Q254 680 264 680ZM307 511L216 247H400L310 511ZM379 888H477Q481 888 483 884T482 878L365 769Q357 761 347 761H276Q272 761 270 764T272 771L360 878Q368 888 379 888Z" horiz-adv-x="617" unicode="Á"/>
			<glyph d="M264 680H356Q366 680 369 670L599 10Q602 0 592 0H494Q484 0 481 10L436 142H180L135 10Q132 0 122 0H25Q15 0 18 10L251 670Q254 680 264 680ZM307 511L216 247H400L310 511ZM278 898H338Q349 898 356 888L454 763Q457 759 455 756T450 753H387Q376 753 366 763L309 822H307L250 763Q240 753 229 753H166Q162 753 160 756T162 763L260 888Q267 898 278 898Z" horiz-adv-x="617" unicode="Â"/>
			<glyph d="M264 680H356Q366 680 369 670L599 10Q602 0 592 0H494Q484 0 481 10L436 142H180L135 10Q132 0 122 0H25Q15 0 18 10L251 670Q254 680 264 680ZM307 511L216 247H400L310 511ZM248 880Q279 880 315 860Q346 842 373 842Q403 842 438 873Q441 876 444 875T447 871V810Q447 800 439 791Q407 757 366 757Q336 757 300 777Q269 795 244 795Q211 795 177 764Q174 761 171 762T168 766V827Q168 837 176 846Q208 880 248 880Z" horiz-adv-x="617" unicode="Ã"/>
			<glyph d="M264 680H356Q366 680 369 670L599 10Q602 0 592 0H494Q484 0 481 10L436 142H180L135 10Q132 0 122 0H25Q15 0 18 10L251 670Q254 680 264 680ZM307 511L216 247H400L310 511ZM371 876H444Q454 876 454 866V779Q454 769 444 769H371Q361 769 361 779V866Q361 876 371 876ZM171 876H244Q254 876 254 866V779Q254 769 244 769H171Q161 769 161 779V866Q161 876 171 876Z" horiz-adv-x="617" unicode="Ä"/>
			<glyph d="M264 680H356Q366 680 369 670L599 10Q602 0 592 0H494Q484 0 481 10L436 142H180L135 10Q132 0 122 0H25Q15 0 18 10L251 670Q254 680 264 680ZM307 511L216 247H400L310 511ZM308 920Q350 920 378 891T407 820Q407 778 378 749T308 721Q266 721 237 749T209 820Q209 862 237 891T308 920ZM308 871Q287 871 273 856T259 820Q259 799 273 784T308 769Q329 769 343 784T357 820Q357 841 343 856T308 871Z" horiz-adv-x="617" unicode="Å"/>
			<glyph d="M367 680H867Q877 680 877 670V584Q877 574 867 574H555Q549 574 549 568V402Q549 396 555 396H818Q828 396 828 386V300Q828 290 818 290H555Q549 290 549 284V112Q549 106 555 106H867Q877 106 877 96V10Q877 0 867 0H441Q431 0 431 10V136Q431 142 425 142H216L151 10Q147 0 138 0H26Q14 0 19 10L353 670Q358 680 367 680ZM429 574L268 247H425Q431 247 431 253V574Z" horiz-adv-x="926" unicode="Æ"/>
			<glyph d="M309 691Q391 691 451 651T539 545Q542 536 534 533L449 492Q440 487 436 497Q396 585 309 585Q218 585 187 495Q175 458 175 340Q175 222 187 185Q218 95 309 95Q396 95 436 183Q440 193 449 188L534 147Q542 144 539 135Q513 76 463 38T347 -9L304 -145Q301 -155 288 -155H210Q200 -155 203 -145L258 -8Q116 19 73 156Q65 180 60 212T55 340Q55 368 56 424T73 524Q99 606 160 648T309 691Z" horiz-adv-x="575" unicode="Ç"/>
			<glyph d="M85 680H511Q521 680 521 670V584Q521 574 511 574H199Q193 574 193 568V402Q193 396 199 396H462Q472 396 472 386V300Q472 290 462 290H199Q193 290 193 284V112Q193 106 199 106H511Q521 106 521 96V10Q521 0 511 0H85Q75 0 75 10V670Q75 680 85 680ZM152 888H250Q261 888 269 878L358 771Q361 767 359 764T354 761H282Q272 761 264 769L148 878Q145 881 146 884T152 888Z" horiz-adv-x="570" unicode="È"/>
			<glyph d="M85 680H511Q521 680 521 670V584Q521 574 511 574H199Q193 574 193 568V402Q193 396 199 396H462Q472 396 472 386V300Q472 290 462 290H199Q193 290 193 284V112Q193 106 199 106H511Q521 106 521 96V10Q521 0 511 0H85Q75 0 75 10V670Q75 680 85 680ZM336 888H434Q438 888 440 884T439 878L322 769Q314 761 304 761H233Q229 761 227 764T229 771L317 878Q325 888 336 888Z" horiz-adv-x="570" unicode="É"/>
			<glyph d="M85 680H511Q521 680 521 670V584Q521 574 511 574H199Q193 574 193 568V402Q193 396 199 396H462Q472 396 472 386V300Q472 290 462 290H199Q193 290 193 284V112Q193 106 199 106H511Q521 106 521 96V10Q521 0 511 0H85Q75 0 75 10V670Q75 680 85 680ZM269 898H329Q340 898 347 888L445 763Q448 759 446 756T441 753H378Q367 753 357 763L300 822H298L241 763Q231 753 220 753H157Q153 753 151 756T153 763L251 888Q258 898 269 898Z" horiz-adv-x="570" unicode="Ê"/>
			<glyph d="M85 680H511Q521 680 521 670V584Q521 574 511 574H199Q193 574 193 568V402Q193 396 199 396H462Q472 396 472 386V300Q472 290 462 290H199Q193 290 193 284V112Q193 106 199 106H511Q521 106 521 96V10Q521 0 511 0H85Q75 0 75 10V670Q75 680 85 680ZM360 876H433Q443 876 443 866V779Q443 769 433 769H360Q350 769 350 779V866Q350 876 360 876ZM160 876H233Q243 876 243 866V779Q243 769 233 769H160Q150 769 150 779V866Q150 876 160 876Z" horiz-adv-x="570" unicode="Ë"/>
			<glyph d="M85 680H183Q193 680 193 670V10Q193 0 183 0H85Q75 0 75 10V670Q75 680 85 680ZM-33 888H65Q76 888 84 878L173 771Q176 767 174 764T169 761H97Q87 761 79 769L-37 878Q-40 881 -38 884T-33 888Z" horiz-adv-x="268" unicode="Ì"/>
			<glyph d="M85 680H183Q193 680 193 670V10Q193 0 183 0H85Q75 0 75 10V670Q75 680 85 680ZM205 888H303Q307 888 309 884T308 878L191 769Q183 761 173 761H102Q98 761 96 764T98 771L186 878Q194 888 205 888Z" horiz-adv-x="268" unicode="Í"/>
			<glyph d="M85 680H183Q193 680 193 670V10Q193 0 183 0H85Q75 0 75 10V670Q75 680 85 680ZM105 898H165Q176 898 183 888L281 763Q284 759 282 756T277 753H214Q203 753 193 763L136 822H134L77 763Q67 753 56 753H-7Q-11 753 -12 756T-11 763L87 888Q94 898 105 898Z" horiz-adv-x="268" unicode="Î"/>
			<glyph d="M85 680H183Q193 680 193 670V10Q193 0 183 0H85Q75 0 75 10V670Q75 680 85 680ZM198 876H271Q281 876 281 866V779Q281 769 271 769H198Q188 769 188 779V866Q188 876 198 876ZM-2 876H71Q81 876 81 866V779Q81 769 71 769H-2Q-12 769 -12 779V866Q-12 876 -2 876Z" horiz-adv-x="268" unicode="Ï"/>
			<glyph d="M85 680H328Q506 680 555 529Q572 476 572 340Q572 204 555 151Q506 0 328 0H85Q75 0 75 10V292Q75 298 69 298H43Q33 298 33 308V378Q33 388 43 388H69Q75 388 75 394V670Q75 680 85 680ZM199 574Q193 574 193 568V394Q193 388 199 388H296Q306 388 306 378V308Q306 298 296 298H199Q193 298 193 292V112Q193 106 199 106H300Q413 106 441 192Q453 225 453 340Q453 455 441 488Q413 574 300 574Z" horiz-adv-x="625" unicode="Ð"/>
			<glyph d="M85 680H177Q188 680 194 670L471 201H475V670Q475 680 485 680H572Q582 680 582 670V10Q582 0 572 0H481Q470 0 464 10L186 478H182V10Q182 0 172 0H85Q75 0 75 10V670Q75 680 85 680ZM268 880Q299 880 335 860Q366 842 393 842Q423 842 458 873Q461 876 464 875T467 871V810Q467 800 459 791Q427 757 386 757Q356 757 320 777Q289 795 264 795Q231 795 197 764Q194 761 191 762T188 766V827Q188 837 196 846Q228 880 268 880Z" horiz-adv-x="657" unicode="Ñ"/>
			<glyph d="M313 691Q402 691 465 649T554 527Q562 503 567 469T572 340Q572 291 570 244T554 153Q528 73 465 31T313 -11Q224 -11 161 31T73 153Q65 177 60 211T55 340Q55 389 56 436T73 527Q99 607 161 649T313 691ZM313 585Q218 585 187 496Q175 459 175 340Q175 222 187 184Q218 95 313 95Q409 95 440 184Q452 222 452 340Q452 459 440 496Q409 585 313 585ZM164 888H262Q273 888 281 878L370 771Q373 767 371 764T366 761H294Q284 761 276 769L160 878Q157 881 158 884T164 888Z" horiz-adv-x="627" unicode="Ò"/>
			<glyph d="M313 691Q402 691 465 649T554 527Q562 503 567 469T572 340Q572 291 570 244T554 153Q528 73 465 31T313 -11Q224 -11 161 31T73 153Q65 177 60 211T55 340Q55 389 56 436T73 527Q99 607 161 649T313 691ZM313 585Q218 585 187 496Q175 459 175 340Q175 222 187 184Q218 95 313 95Q409 95 440 184Q452 222 452 340Q452 459 440 496Q409 585 313 585ZM364 888H462Q466 888 468 884T467 878L350 769Q342 761 332 761H261Q257 761 255 764T257 771L345 878Q353 888 364 888Z" horiz-adv-x="627" unicode="Ó"/>
			<glyph d="M313 691Q402 691 465 649T554 527Q562 503 567 469T572 340Q572 291 570 244T554 153Q528 73 465 31T313 -11Q224 -11 161 31T73 153Q65 177 60 211T55 340Q55 389 56 436T73 527Q99 607 161 649T313 691ZM313 585Q218 585 187 496Q175 459 175 340Q175 222 187 184Q218 95 313 95Q409 95 440 184Q452 222 452 340Q452 459 440 496Q409 585 313 585ZM283 898H343Q354 898 361 888L459 763Q462 759 460 756T455 753H392Q381 753 371 763L314 822H312L255 763Q245 753 234 753H171Q167 753 165 756T167 763L265 888Q272 898 283 898Z" horiz-adv-x="627" unicode="Ô"/>
			<glyph d="M313 691Q402 691 465 649T554 527Q562 503 567 469T572 340Q572 291 570 244T554 153Q528 73 465 31T313 -11Q224 -11 161 31T73 153Q65 177 60 211T55 340Q55 389 56 436T73 527Q99 607 161 649T313 691ZM313 585Q218 585 187 496Q175 459 175 340Q175 222 187 184Q218 95 313 95Q409 95 440 184Q452 222 452 340Q452 459 440 496Q409 585 313 585ZM253 880Q284 880 320 860Q351 842 378 842Q408 842 443 873Q446 876 449 875T452 871V810Q452 800 444 791Q412 757 371 757Q341 757 305 777Q274 795 249 795Q216 795 182 764Q179 761 176 762T173 766V827Q173 837 181 846Q213 880 253 880Z" horiz-adv-x="627" unicode="Õ"/>
			<glyph d="M313 691Q402 691 465 649T554 527Q562 503 567 469T572 340Q572 291 570 244T554 153Q528 73 465 31T313 -11Q224 -11 161 31T73 153Q65 177 60 211T55 340Q55 389 56 436T73 527Q99 607 161 649T313 691ZM313 585Q218 585 187 496Q175 459 175 340Q175 222 187 184Q218 95 313 95Q409 95 440 184Q452 222 452 340Q452 459 440 496Q409 585 313 585ZM376 876H449Q459 876 459 866V779Q459 769 449 769H376Q366 769 366 779V866Q366 876 376 876ZM176 876H249Q259 876 259 866V779Q259 769 249 769H176Q166 769 166 779V866Q166 876 176 876Z" horiz-adv-x="627" unicode="Ö"/>
			<glyph d="M139 465Q146 472 153 465L270 349Q275 345 279 349L396 465Q403 472 410 465L463 411Q470 404 463 397L346 281Q342 277 346 272L463 155Q470 148 463 141L410 87Q403 80 396 87L278 203Q274 207 270 203L153 87Q146 80 139 87L86 141Q79 148 86 155L202 272Q206 276 202 280L86 397Q79 404 86 411Z" unicode="×"/>
			<glyph d="M503 710H566Q570 710 571 707T571 700L513 604Q539 570 554 527Q562 503 567 469T572 340Q572 291 570 244T554 153Q528 73 465 31T313 -11Q228 -11 167 27L139 -21Q134 -30 124 -30H61Q57 -30 55 -27T56 -20L113 76Q85 112 73 153Q65 177 60 211T55 340Q55 389 56 436T73 527Q99 607 161 649T313 691Q398 691 459 653L488 701Q493 710 503 710ZM313 585Q217 585 186 496Q174 459 174 340Q174 225 184 189L400 557Q366 585 313 585ZM443 489L227 122Q260 95 313 95Q410 95 441 184Q453 222 453 340Q453 447 443 489Z" horiz-adv-x="627" unicode="Ø"/>
			<glyph d="M81 680H179Q189 680 189 670V241Q189 172 225 133T321 95Q381 95 417 133T454 241V670Q454 680 464 680H562Q572 680 572 670V239Q572 123 501 56T321 -11Q211 -11 141 56T71 239V670Q71 680 81 680ZM170 888H268Q279 888 287 878L376 771Q379 767 377 764T372 761H300Q290 761 282 769L166 878Q163 881 164 884T170 888Z" horiz-adv-x="643" unicode="Ù"/>
			<glyph d="M81 680H179Q189 680 189 670V241Q189 172 225 133T321 95Q381 95 417 133T454 241V670Q454 680 464 680H562Q572 680 572 670V239Q572 123 501 56T321 -11Q211 -11 141 56T71 239V670Q71 680 81 680ZM374 888H472Q476 888 478 884T477 878L360 769Q352 761 342 761H271Q267 761 265 764T267 771L355 878Q363 888 374 888Z" horiz-adv-x="643" unicode="Ú"/>
			<glyph d="M81 680H179Q189 680 189 670V241Q189 172 225 133T321 95Q381 95 417 133T454 241V670Q454 680 464 680H562Q572 680 572 670V239Q572 123 501 56T321 -11Q211 -11 141 56T71 239V670Q71 680 81 680ZM291 898H351Q362 898 369 888L467 763Q470 759 468 756T463 753H400Q389 753 379 763L322 822H320L263 763Q253 753 242 753H179Q175 753 173 756T175 763L273 888Q280 898 291 898Z" horiz-adv-x="643" unicode="Û"/>
			<glyph d="M81 680H179Q189 680 189 670V241Q189 172 225 133T321 95Q381 95 417 133T454 241V670Q454 680 464 680H562Q572 680 572 670V239Q572 123 501 56T321 -11Q211 -11 141 56T71 239V670Q71 680 81 680ZM385 876H458Q468 876 468 866V779Q468 769 458 769H385Q375 769 375 779V866Q375 876 385 876ZM185 876H258Q268 876 268 866V779Q268 769 258 769H185Q175 769 175 779V866Q175 876 185 876Z" horiz-adv-x="643" unicode="Ü"/>
			<glyph d="M20 680H121Q131 680 135 670L268 406H271L405 670Q409 680 419 680H516Q528 680 524 670L327 278V10Q327 0 317 0H219Q209 0 209 10V278L12 670Q11 674 13 677T20 680ZM329 888H427Q431 888 433 884T432 878L315 769Q307 761 297 761H226Q222 761 220 764T222 771L310 878Q318 888 329 888Z" horiz-adv-x="536" unicode="Ý"/>
			<glyph d="M85 680H183Q193 680 193 670V572Q193 566 199 566H340Q439 566 501 507T564 355Q564 260 501 201T340 143H199Q193 143 193 137V10Q193 0 183 0H85Q75 0 75 10V670Q75 680 85 680ZM199 460Q193 460 193 454V256Q193 250 199 250H333Q384 250 415 279T446 355Q446 402 415 431T333 460Z" horiz-adv-x="598" unicode="Þ"/>
			<glyph d="M281 691Q380 691 433 649T486 528Q486 459 431 419V417Q468 397 483 354Q494 320 494 225Q494 128 482 91Q451 -3 313 -3H284Q274 -3 274 7V86Q274 96 284 96H309Q364 96 377 136Q382 153 382 225Q382 297 376 318Q361 364 295 364H284Q274 364 274 374V454Q274 464 284 464H307Q374 464 374 527Q374 592 284 592Q233 592 209 568T185 494V10Q185 0 175 0H83Q73 0 73 10V489Q73 691 281 691Z" horiz-adv-x="546" unicode="ß"/>
			<glyph d="M253 493Q349 493 401 459T454 325V10Q454 0 444 0H360Q350 0 350 10V45H349Q310 -11 213 -11Q143 -11 97 26T51 136Q51 203 96 246T244 289H342Q348 289 348 295V318Q348 360 323 379T241 398Q173 398 131 365Q122 358 117 367L80 433Q75 441 82 446Q147 493 253 493ZM262 205Q158 205 158 140Q158 80 241 80Q348 80 348 162V199Q348 205 342 205ZM149 700H240Q252 700 258 690L332 565Q337 555 326 555H259Q248 555 239 565L144 690Q141 693 143 696T149 700Z" horiz-adv-x="523" unicode="à"/>
			<glyph d="M253 493Q349 493 401 459T454 325V10Q454 0 444 0H360Q350 0 350 10V45H349Q310 -11 213 -11Q143 -11 97 26T51 136Q51 203 96 246T244 289H342Q348 289 348 295V318Q348 360 323 379T241 398Q173 398 131 365Q122 358 117 367L80 433Q75 441 82 446Q147 493 253 493ZM262 205Q158 205 158 140Q158 80 241 80Q348 80 348 162V199Q348 205 342 205ZM300 700H391Q395 700 397 696T396 690L301 565Q292 555 281 555H213Q202 555 207 565L282 690Q288 700 300 700Z" horiz-adv-x="523" unicode="á"/>
			<glyph d="M253 493Q349 493 401 459T454 325V10Q454 0 444 0H360Q350 0 350 10V45H349Q310 -11 213 -11Q143 -11 97 26T51 136Q51 203 96 246T244 289H342Q348 289 348 295V318Q348 360 323 379T241 398Q173 398 131 365Q122 358 117 367L80 433Q75 441 82 446Q147 493 253 493ZM262 205Q158 205 158 140Q158 80 241 80Q348 80 348 162V199Q348 205 342 205ZM231 700H291Q302 700 309 690L407 565Q410 561 408 558T403 555H340Q329 555 319 565L262 624H260L203 565Q193 555 182 555H119Q115 555 113 558T115 565L213 690Q220 700 231 700Z" horiz-adv-x="523" unicode="â"/>
			<glyph d="M253 493Q349 493 401 459T454 325V10Q454 0 444 0H360Q350 0 350 10V45H349Q310 -11 213 -11Q143 -11 97 26T51 136Q51 203 96 246T244 289H342Q348 289 348 295V318Q348 360 323 379T241 398Q173 398 131 365Q122 358 117 367L80 433Q75 441 82 446Q147 493 253 493ZM262 205Q158 205 158 140Q158 80 241 80Q348 80 348 162V199Q348 205 342 205ZM203 684Q232 684 268 664Q300 646 326 646Q357 646 391 677Q394 680 397 679T400 675V614Q400 604 392 595Q360 561 319 561Q289 561 253 581Q222 599 195 599Q165 599 130 568Q127 565 124 566T121 570V631Q121 641 129 650Q161 684 203 684Z" horiz-adv-x="523" unicode="ã"/>
			<glyph d="M253 493Q349 493 401 459T454 325V10Q454 0 444 0H360Q350 0 350 10V45H349Q310 -11 213 -11Q143 -11 97 26T51 136Q51 203 96 246T244 289H342Q348 289 348 295V318Q348 360 323 379T241 398Q173 398 131 365Q122 358 117 367L80 433Q75 441 82 446Q147 493 253 493ZM262 205Q158 205 158 140Q158 80 241 80Q348 80 348 162V199Q348 205 342 205ZM320 680H397Q407 680 407 670V583Q407 573 397 573H320Q310 573 310 583V670Q310 680 320 680ZM124 680H201Q211 680 211 670V583Q211 573 201 573H124Q114 573 114 583V670Q114 680 124 680Z" horiz-adv-x="523" unicode="ä"/>
			<glyph d="M253 493Q349 493 401 459T454 325V10Q454 0 444 0H360Q350 0 350 10V45H349Q310 -11 213 -11Q143 -11 97 26T51 136Q51 203 96 246T244 289H342Q348 289 348 295V318Q348 360 323 379T241 398Q173 398 131 365Q122 358 117 367L80 433Q75 441 82 446Q147 493 253 493ZM262 205Q158 205 158 140Q158 80 241 80Q348 80 348 162V199Q348 205 342 205ZM266 729Q308 729 336 700T365 629Q365 587 336 558T266 529Q224 529 195 558T167 629Q167 671 195 700T266 729ZM266 680Q245 680 231 665T217 629Q217 608 231 593T266 578Q287 578 301 593T315 629Q315 650 301 665T266 680Z" horiz-adv-x="523" unicode="å"/>
			<glyph d="M253 493Q307 493 350 480T414 443H416Q466 493 555 493Q627 493 679 457T752 360Q768 311 768 215Q768 205 757 205H460Q454 205 454 199Q454 181 461 162Q486 89 569 89Q640 89 682 135Q690 143 697 137L756 85Q763 79 757 71Q725 34 674 11T560 -11Q505 -11 461 9T393 65H392Q349 -11 213 -11Q143 -11 97 26T51 136Q51 203 96 246T244 289H342Q348 289 348 295V318Q348 360 323 379T241 398Q173 398 131 365Q122 358 117 367L80 433Q75 441 82 446Q147 493 253 493ZM555 398Q521 398 495 381T460 336Q454 318 454 295Q454 289 460 289H649Q655 289 655 295Q655 318 649 336Q639 365 613 381T555 398ZM262 205Q158 205 158 140Q158 80 241 80Q348 80 348 162V199Q348 205 342 205Z" horiz-adv-x="815" unicode="æ"/>
			<glyph d="M261 493Q366 493 428 418Q434 410 427 404L364 349Q356 343 350 351Q313 393 261 393Q192 393 171 330Q161 300 161 241Q161 181 171 151Q192 89 261 89Q313 89 350 131Q356 138 364 132L427 77Q433 72 428 63Q378 4 296 -8L253 -145Q250 -155 237 -155H159Q149 -155 152 -145L209 -6Q156 5 117 37T62 122Q47 167 47 241Q47 315 62 360Q82 423 135 458T261 493Z" horiz-adv-x="475" unicode="ç"/>
			<glyph d="M260 493Q332 493 385 457T458 360Q474 311 474 215Q474 205 463 205H166Q160 205 160 199Q160 181 167 162Q192 89 275 89Q346 89 388 135Q396 143 403 137L462 85Q469 79 463 71Q431 34 379 11T265 -11Q190 -11 137 25T64 123Q47 176 47 241Q47 310 63 360Q83 422 136 457T260 493ZM261 398Q227 398 201 381T166 336Q160 318 160 295Q160 289 166 289H355Q361 289 361 295Q361 318 355 336Q345 365 319 381T261 398ZM135 700H226Q238 700 244 690L318 565Q323 555 312 555H245Q234 555 225 565L130 690Q127 693 129 696T135 700Z" horiz-adv-x="521" unicode="è"/>
			<glyph d="M260 493Q332 493 385 457T458 360Q474 311 474 215Q474 205 463 205H166Q160 205 160 199Q160 181 167 162Q192 89 275 89Q346 89 388 135Q396 143 403 137L462 85Q469 79 463 71Q431 34 379 11T265 -11Q190 -11 137 25T64 123Q47 176 47 241Q47 310 63 360Q83 422 136 457T260 493ZM261 398Q227 398 201 381T166 336Q160 318 160 295Q160 289 166 289H355Q361 289 361 295Q361 318 355 336Q345 365 319 381T261 398ZM297 700H388Q392 700 394 696T393 690L298 565Q289 555 278 555H210Q199 555 204 565L279 690Q285 700 297 700Z" horiz-adv-x="521" unicode="é"/>
			<glyph d="M260 493Q332 493 385 457T458 360Q474 311 474 215Q474 205 463 205H166Q160 205 160 199Q160 181 167 162Q192 89 275 89Q346 89 388 135Q396 143 403 137L462 85Q469 79 463 71Q431 34 379 11T265 -11Q190 -11 137 25T64 123Q47 176 47 241Q47 310 63 360Q83 422 136 457T260 493ZM261 398Q227 398 201 381T166 336Q160 318 160 295Q160 289 166 289H355Q361 289 361 295Q361 318 355 336Q345 365 319 381T261 398ZM230 700H290Q301 700 308 690L406 565Q409 561 407 558T402 555H339Q328 555 318 565L261 624H259L202 565Q192 555 181 555H118Q114 555 112 558T114 565L212 690Q219 700 230 700Z" horiz-adv-x="521" unicode="ê"/>
			<glyph d="M260 493Q332 493 385 457T458 360Q474 311 474 215Q474 205 463 205H166Q160 205 160 199Q160 181 167 162Q192 89 275 89Q346 89 388 135Q396 143 403 137L462 85Q469 79 463 71Q431 34 379 11T265 -11Q190 -11 137 25T64 123Q47 176 47 241Q47 310 63 360Q83 422 136 457T260 493ZM261 398Q227 398 201 381T166 336Q160 318 160 295Q160 289 166 289H355Q361 289 361 295Q361 318 355 336Q345 365 319 381T261 398ZM319 680H396Q406 680 406 670V583Q406 573 396 573H319Q309 573 309 583V670Q309 680 319 680ZM123 680H200Q210 680 210 670V583Q210 573 200 573H123Q113 573 113 583V670Q113 680 123 680Z" horiz-adv-x="521" unicode="ë"/>
			<glyph d="M83 482H175Q185 482 185 472V10Q185 0 175 0H83Q73 0 73 10V472Q73 482 83 482ZM-10 700H81Q93 700 99 690L173 565Q178 555 167 555H100Q89 555 80 565L-15 690Q-18 693 -16 696T-10 700Z" horiz-adv-x="258" unicode="ì"/>
			<glyph d="M83 482H175Q185 482 185 472V10Q185 0 175 0H83Q73 0 73 10V472Q73 482 83 482ZM180 700H271Q275 700 277 696T276 690L181 565Q172 555 161 555H93Q82 555 87 565L162 690Q168 700 180 700Z" horiz-adv-x="258" unicode="í"/>
			<glyph d="M83 482H175Q185 482 185 472V10Q185 0 175 0H83Q73 0 73 10V472Q73 482 83 482ZM99 700H159Q170 700 177 690L275 565Q278 561 276 558T271 555H208Q197 555 187 565L130 624H128L71 565Q61 555 50 555H-13Q-17 555 -18 558T-17 565L81 690Q88 700 99 700Z" horiz-adv-x="258" unicode="î"/>
			<glyph d="M83 482H175Q185 482 185 472V10Q185 0 175 0H83Q73 0 73 10V472Q73 482 83 482ZM189 680H266Q276 680 276 670V583Q276 573 266 573H189Q179 573 179 583V670Q179 680 189 680ZM-7 680H70Q80 680 80 670V583Q80 573 70 573H-7Q-17 573 -17 583V670Q-17 680 -7 680Z" horiz-adv-x="258" unicode="ï"/>
			<glyph d="M138 680H237Q248 680 255 670L286 628L378 656Q388 659 391 650L408 592Q411 582 401 579L338 560L362 528Q477 374 477 239Q477 170 462 123Q441 61 387 25T262 -11Q189 -11 136 24T63 122Q47 172 47 225Q47 285 62 332Q81 391 126 425T230 459Q270 459 295 442H297L234 529L143 501Q133 498 130 507L113 565Q110 575 120 578L185 597L132 670Q130 674 132 677T138 680ZM262 367Q229 367 204 351T169 305Q159 274 159 226Q159 179 169 148Q177 126 198 106T262 86Q295 86 320 102T355 148Q365 179 365 226Q365 274 355 305Q334 367 262 367Z" horiz-adv-x="523" unicode="ð"/>
			<glyph d="M313 493Q389 493 434 442T480 314V10Q480 0 470 0H378Q368 0 368 10V288Q368 335 344 364T277 393Q235 393 210 364T185 288V10Q185 0 175 0H83Q73 0 73 10V472Q73 482 83 482H175Q185 482 185 472V437H186Q203 461 236 477T313 493ZM215 684Q244 684 280 664Q312 646 338 646Q369 646 403 677Q406 680 409 679T412 675V614Q412 604 404 595Q372 561 331 561Q301 561 265 581Q234 599 207 599Q177 599 142 568Q139 565 136 566T133 570V631Q133 641 141 650Q173 684 215 684Z" horiz-adv-x="548" unicode="ñ"/>
			<glyph d="M262 493Q334 493 387 457T460 360Q476 311 476 241Q476 171 460 122Q440 60 387 24T262 -11Q190 -11 136 24T63 122Q47 171 47 241Q47 311 63 360Q83 422 136 457T262 493ZM262 393Q193 393 171 330Q161 298 161 241Q161 183 171 152Q193 89 262 89Q330 89 352 152Q362 183 362 241Q362 298 352 330Q330 393 262 393ZM130 700H221Q233 700 239 690L313 565Q318 555 307 555H240Q229 555 220 565L125 690Q122 693 124 696T130 700Z" horiz-adv-x="523" unicode="ò"/>
			<glyph d="M262 493Q334 493 387 457T460 360Q476 311 476 241Q476 171 460 122Q440 60 387 24T262 -11Q190 -11 136 24T63 122Q47 171 47 241Q47 311 63 360Q83 422 136 457T262 493ZM262 393Q193 393 171 330Q161 298 161 241Q161 183 171 152Q193 89 262 89Q330 89 352 152Q362 183 362 241Q362 298 352 330Q330 393 262 393ZM303 700H394Q398 700 400 696T399 690L304 565Q295 555 284 555H216Q205 555 210 565L285 690Q291 700 303 700Z" horiz-adv-x="523" unicode="ó"/>
			<glyph d="M262 493Q334 493 387 457T460 360Q476 311 476 241Q476 171 460 122Q440 60 387 24T262 -11Q190 -11 136 24T63 122Q47 171 47 241Q47 311 63 360Q83 422 136 457T262 493ZM262 393Q193 393 171 330Q161 298 161 241Q161 183 171 152Q193 89 262 89Q330 89 352 152Q362 183 362 241Q362 298 352 330Q330 393 262 393ZM231 700H291Q302 700 309 690L407 565Q410 561 408 558T403 555H340Q329 555 319 565L262 624H260L203 565Q193 555 182 555H119Q115 555 113 558T115 565L213 690Q220 700 231 700Z" horiz-adv-x="523" unicode="ô"/>
			<glyph d="M262 493Q334 493 387 457T460 360Q476 311 476 241Q476 171 460 122Q440 60 387 24T262 -11Q190 -11 136 24T63 122Q47 171 47 241Q47 311 63 360Q83 422 136 457T262 493ZM262 393Q193 393 171 330Q161 298 161 241Q161 183 171 152Q193 89 262 89Q330 89 352 152Q362 183 362 241Q362 298 352 330Q330 393 262 393ZM203 684Q232 684 268 664Q300 646 326 646Q357 646 391 677Q394 680 397 679T400 675V614Q400 604 392 595Q360 561 319 561Q289 561 253 581Q222 599 195 599Q165 599 130 568Q127 565 124 566T121 570V631Q121 641 129 650Q161 684 203 684Z" horiz-adv-x="523" unicode="õ"/>
			<glyph d="M262 493Q334 493 387 457T460 360Q476 311 476 241Q476 171 460 122Q440 60 387 24T262 -11Q190 -11 136 24T63 122Q47 171 47 241Q47 311 63 360Q83 422 136 457T262 493ZM262 393Q193 393 171 330Q161 298 161 241Q161 183 171 152Q193 89 262 89Q330 89 352 152Q362 183 362 241Q362 298 352 330Q330 393 262 393ZM320 680H397Q407 680 407 670V583Q407 573 397 573H320Q310 573 310 583V670Q310 680 320 680ZM124 680H201Q211 680 211 670V583Q211 573 201 573H124Q114 573 114 583V670Q114 680 124 680Z" horiz-adv-x="523" unicode="ö"/>
			<glyph d="M274 519Q302 519 321 499T341 452Q341 425 321 405T274 385Q247 385 227 405T208 452Q208 480 227 499T274 519ZM65 325H484Q494 325 494 315V237Q494 227 484 227H65Q55 227 55 237V315Q55 325 65 325ZM274 167Q302 167 321 147T341 100Q341 72 321 52T274 33Q247 33 227 52T208 100Q208 128 227 147T274 167Z" unicode="÷"/>
			<glyph d="M431 512H469Q473 512 474 509T474 502L422 427Q445 401 460 360Q476 311 476 241Q476 171 460 122Q440 60 387 24T262 -11Q190 -11 140 21L111 -20Q104 -30 93 -30H54Q50 -30 48 -27T49 -20L101 54Q75 83 63 122Q47 171 47 241Q47 311 63 360Q83 422 136 457T262 493Q331 493 383 461L412 502Q419 512 431 512ZM262 394Q229 394 204 377T169 331Q159 299 159 241Q159 182 169 151L322 376Q298 394 262 394ZM354 331L201 106Q225 88 262 88Q295 88 319 104T354 151Q364 182 364 241Q364 299 354 331Z" horiz-adv-x="523" unicode="ø"/>
			<glyph d="M77 482H169Q179 482 179 472V194Q179 147 202 118T269 89Q310 89 334 118T359 193V472Q359 482 369 482H461Q471 482 471 472V10Q471 0 461 0H369Q359 0 359 10V45H358Q314 -11 233 -11Q157 -11 112 39T67 168V472Q67 482 77 482ZM141 700H232Q244 700 250 690L324 565Q329 555 318 555H251Q240 555 231 565L136 690Q133 693 135 696T141 700Z" horiz-adv-x="544" unicode="ù"/>
			<glyph d="M77 482H169Q179 482 179 472V194Q179 147 202 118T269 89Q310 89 334 118T359 193V472Q359 482 369 482H461Q471 482 471 472V10Q471 0 461 0H369Q359 0 359 10V45H358Q314 -11 233 -11Q157 -11 112 39T67 168V472Q67 482 77 482ZM315 700H406Q410 700 412 696T411 690L316 565Q307 555 296 555H228Q217 555 222 565L297 690Q303 700 315 700Z" horiz-adv-x="544" unicode="ú"/>
			<glyph d="M77 482H169Q179 482 179 472V194Q179 147 202 118T269 89Q310 89 334 118T359 193V472Q359 482 369 482H461Q471 482 471 472V10Q471 0 461 0H369Q359 0 359 10V45H358Q314 -11 233 -11Q157 -11 112 39T67 168V472Q67 482 77 482ZM241 700H301Q312 700 319 690L417 565Q420 561 418 558T413 555H350Q339 555 329 565L272 624H270L213 565Q203 555 192 555H129Q125 555 123 558T125 565L223 690Q230 700 241 700Z" horiz-adv-x="544" unicode="û"/>
			<glyph d="M77 482H169Q179 482 179 472V194Q179 147 202 118T269 89Q310 89 334 118T359 193V472Q359 482 369 482H461Q471 482 471 472V10Q471 0 461 0H369Q359 0 359 10V45H358Q314 -11 233 -11Q157 -11 112 39T67 168V472Q67 482 77 482ZM330 680H407Q417 680 417 670V583Q417 573 407 573H330Q320 573 320 583V670Q320 680 330 680ZM134 680H211Q221 680 221 670V583Q221 573 211 573H134Q124 573 124 583V670Q124 680 134 680Z" horiz-adv-x="544" unicode="ü"/>
			<glyph d="M26 482H125Q134 482 137 472L246 157H248L352 472Q355 482 364 482H459Q470 482 467 472L283 -30Q255 -105 221 -142T121 -180H90Q80 -180 80 -170V-90Q80 -80 90 -80H108Q129 -80 147 -70T180 -23L194 18L18 472Q15 482 26 482ZM290 700H381Q385 700 387 696T386 690L291 565Q282 555 271 555H203Q192 555 197 565L272 690Q278 700 290 700Z" horiz-adv-x="485" unicode="ý"/>
			<glyph d="M83 680H175Q185 680 185 670V436H186Q226 493 314 493Q375 493 419 463T481 377Q498 325 498 241Q498 157 481 105Q463 49 419 19T314 -11Q226 -11 186 46H185V-170Q185 -180 175 -180H83Q73 -180 73 -170V670Q73 680 83 680ZM285 393Q215 393 195 331Q185 300 185 241Q185 182 195 151Q215 89 285 89Q354 89 374 151Q384 182 384 241Q384 300 374 331Q354 393 285 393Z" horiz-adv-x="545" unicode="þ"/>
			<glyph d="M26 482H125Q134 482 137 472L246 157H248L352 472Q355 482 364 482H459Q470 482 467 472L283 -30Q255 -105 221 -142T121 -180H90Q80 -180 80 -170V-90Q80 -80 90 -80H108Q129 -80 147 -70T180 -23L194 18L18 472Q15 482 26 482ZM305 680H382Q392 680 392 670V583Q392 573 382 573H305Q295 573 295 583V670Q295 680 305 680ZM109 680H186Q196 680 196 670V583Q196 573 186 573H109Q99 573 99 583V670Q99 680 109 680Z" horiz-adv-x="485" unicode="ÿ"/>
			<glyph d="M264 680H356Q366 680 369 670L599 10Q602 0 592 0H494Q484 0 481 10L436 142H180L135 10Q132 0 122 0H25Q15 0 18 10L251 670Q254 680 264 680ZM307 511L216 247H400L310 511ZM176 863H439Q449 863 449 853V792Q449 782 439 782H176Q166 782 166 792V853Q166 863 176 863Z" horiz-adv-x="617" unicode="Ā"/>
			<glyph d="M253 493Q349 493 401 459T454 325V10Q454 0 444 0H360Q350 0 350 10V45H349Q310 -11 213 -11Q143 -11 97 26T51 136Q51 203 96 246T244 289H342Q348 289 348 295V318Q348 360 323 379T241 398Q173 398 131 365Q122 358 117 367L80 433Q75 441 82 446Q147 493 253 493ZM262 205Q158 205 158 140Q158 80 241 80Q348 80 348 162V199Q348 205 342 205ZM129 668H392Q402 668 402 658V597Q402 587 392 587H129Q119 587 119 597V658Q119 668 129 668Z" horiz-adv-x="523" unicode="ā"/>
			<glyph d="M264 680H356Q366 680 369 670L599 10Q602 0 592 0H494Q484 0 481 10L436 142H180L135 10Q132 0 122 0H25Q15 0 18 10L251 670Q254 680 264 680ZM307 511L216 247H400L310 511ZM172 886H221Q230 886 233 876Q248 830 308 830Q368 830 383 876Q386 886 395 886H444Q453 886 453 876Q449 822 410 788T308 754Q244 754 205 788T163 876Q163 886 172 886Z" horiz-adv-x="617" unicode="Ă"/>
			<glyph d="M253 493Q349 493 401 459T454 325V10Q454 0 444 0H360Q350 0 350 10V45H349Q310 -11 213 -11Q143 -11 97 26T51 136Q51 203 96 246T244 289H342Q348 289 348 295V318Q348 360 323 379T241 398Q173 398 131 365Q122 358 117 367L80 433Q75 441 82 446Q147 493 253 493ZM262 205Q158 205 158 140Q158 80 241 80Q348 80 348 162V199Q348 205 342 205ZM125 685H174Q183 685 186 675Q200 630 261 630Q322 630 336 675Q339 685 348 685H397Q406 685 406 675Q402 621 363 587T261 554Q198 554 159 587T116 675Q116 685 125 685Z" horiz-adv-x="523" unicode="ă"/>
			<glyph d="M264 680H356Q366 680 369 670L599 10Q601 3 595 0Q510 -50 510 -83Q510 -94 516 -101T534 -109Q544 -109 560 -101Q569 -97 573 -105L597 -155Q602 -163 593 -168Q560 -190 515 -190Q472 -190 446 -167T420 -102Q420 -47 489 0Q484 2 481 10L436 142H180L135 10Q132 0 123 0H26Q15 0 18 10L251 670Q254 680 264 680ZM307 511L216 247H400L310 511Z" horiz-adv-x="617" unicode="Ą"/>
			<glyph d="M253 493Q349 493 401 459T454 325V10Q454 3 448 0Q363 -48 363 -83Q363 -94 370 -101T388 -109Q397 -109 413 -101Q422 -97 426 -105L450 -155Q455 -163 446 -168Q415 -190 368 -190Q325 -190 299 -167T273 -102Q273 -38 350 7V45H349Q310 -11 213 -11Q143 -11 97 26T51 136Q51 203 96 246T244 289H342Q348 289 348 295V318Q348 360 323 379T241 398Q173 398 131 365Q122 358 117 367L80 433Q75 441 82 446Q147 493 253 493ZM262 205Q158 205 158 140Q158 80 241 80Q348 80 348 162V199Q348 205 342 205Z" horiz-adv-x="523" unicode="ą"/>
			<glyph d="M309 691Q391 691 451 651T539 545Q542 536 534 533L449 492Q440 487 436 497Q396 585 309 585Q218 585 187 495Q175 458 175 340Q175 222 187 185Q218 95 309 95Q396 95 436 183Q440 193 449 188L534 147Q542 144 539 135Q511 69 451 29T309 -11Q222 -11 160 31T73 156Q65 180 60 212T55 340Q55 389 56 434T73 524Q99 606 160 648T309 691ZM353 888H451Q455 888 457 884T456 878L339 769Q331 761 321 761H250Q246 761 244 764T246 771L334 878Q342 888 353 888Z" horiz-adv-x="575" unicode="Ć"/>
			<glyph d="M261 493Q366 493 428 418Q434 410 427 404L364 349Q356 343 350 351Q313 393 261 393Q192 393 171 330Q161 300 161 241Q161 181 171 151Q192 89 261 89Q313 89 350 131Q356 138 364 132L427 77Q433 72 428 63Q366 -11 261 -11Q189 -11 135 24T62 122Q47 167 47 241Q47 315 62 360Q82 423 135 458T261 493ZM289 700H380Q384 700 386 696T385 690L290 565Q281 555 270 555H202Q191 555 196 565L271 690Q277 700 289 700Z" horiz-adv-x="475" unicode="ć"/>
			<glyph d="M309 691Q391 691 451 651T539 545Q542 536 534 533L449 492Q440 487 436 497Q396 585 309 585Q218 585 187 495Q175 458 175 340Q175 222 187 185Q218 95 309 95Q396 95 436 183Q440 193 449 188L534 147Q542 144 539 135Q511 69 451 29T309 -11Q222 -11 160 31T73 156Q65 180 60 212T55 340Q55 389 56 434T73 524Q99 606 160 648T309 691ZM278 898H338Q349 898 356 888L454 763Q457 759 455 756T450 753H387Q376 753 366 763L309 822H307L250 763Q240 753 229 753H166Q162 753 160 756T162 763L260 888Q267 898 278 898Z" horiz-adv-x="575" unicode="Ĉ"/>
			<glyph d="M261 493Q366 493 428 418Q434 410 427 404L364 349Q356 343 350 351Q313 393 261 393Q192 393 171 330Q161 300 161 241Q161 181 171 151Q192 89 261 89Q313 89 350 131Q356 138 364 132L427 77Q433 72 428 63Q366 -11 261 -11Q189 -11 135 24T62 122Q47 167 47 241Q47 315 62 360Q82 423 135 458T261 493ZM228 700H288Q299 700 306 690L404 565Q407 561 405 558T400 555H337Q326 555 316 565L259 624H257L200 565Q190 555 179 555H116Q112 555 110 558T112 565L210 690Q217 700 228 700Z" horiz-adv-x="475" unicode="ĉ"/>
			<glyph d="M309 691Q391 691 451 651T539 545Q542 536 534 533L449 492Q440 487 436 497Q396 585 309 585Q218 585 187 495Q175 458 175 340Q175 222 187 185Q218 95 309 95Q396 95 436 183Q440 193 449 188L534 147Q542 144 539 135Q511 69 451 29T309 -11Q222 -11 160 31T73 156Q65 180 60 212T55 340Q55 389 56 434T73 524Q99 606 160 648T309 691ZM261 876H354Q364 876 364 866V779Q364 769 354 769H261Q251 769 251 779V866Q251 876 261 876Z" horiz-adv-x="575" unicode="Ċ"/>
			<glyph d="M261 493Q366 493 428 418Q434 410 427 404L364 349Q356 343 350 351Q313 393 261 393Q192 393 171 330Q161 300 161 241Q161 181 171 151Q192 89 261 89Q313 89 350 131Q356 138 364 132L427 77Q433 72 428 63Q366 -11 261 -11Q189 -11 135 24T62 122Q47 167 47 241Q47 315 62 360Q82 423 135 458T261 493ZM211 680H304Q314 680 314 670V583Q314 573 304 573H211Q201 573 201 583V670Q201 680 211 680Z" horiz-adv-x="475" unicode="ċ"/>
			<glyph d="M309 691Q391 691 451 651T539 545Q542 536 534 533L449 492Q440 487 436 497Q396 585 309 585Q218 585 187 495Q175 458 175 340Q175 222 187 185Q218 95 309 95Q396 95 436 183Q440 193 449 188L534 147Q542 144 539 135Q511 69 451 29T309 -11Q222 -11 160 31T73 156Q65 180 60 212T55 340Q55 389 56 434T73 524Q99 606 160 648T309 691ZM166 896H229Q240 896 250 886L307 827H309L366 886Q376 896 387 896H450Q454 896 455 893T454 886L356 761Q349 751 338 751H278Q267 751 260 761L162 886Q159 890 160 893T166 896Z" horiz-adv-x="575" unicode="Č"/>
			<glyph d="M261 493Q366 493 428 418Q434 410 427 404L364 349Q356 343 350 351Q313 393 261 393Q192 393 171 330Q161 300 161 241Q161 181 171 151Q192 89 261 89Q313 89 350 131Q356 138 364 132L427 77Q433 72 428 63Q366 -11 261 -11Q189 -11 135 24T62 122Q47 167 47 241Q47 315 62 360Q82 423 135 458T261 493ZM116 698H179Q190 698 200 688L257 629H259L316 688Q326 698 337 698H400Q404 698 405 695T404 688L306 563Q299 553 288 553H228Q217 553 210 563L112 688Q109 692 110 695T116 698Z" horiz-adv-x="475" unicode="č"/>
			<glyph d="M85 680H328Q506 680 555 529Q572 476 572 340Q572 204 555 151Q506 0 328 0H85Q75 0 75 10V670Q75 680 85 680ZM199 574Q193 574 193 568V112Q193 106 199 106H300Q413 106 441 192Q453 225 453 340Q453 455 441 488Q413 574 300 574ZM154 896H217Q228 896 238 886L295 827H297L354 886Q364 896 375 896H438Q442 896 443 893T442 886L344 761Q337 751 326 751H266Q255 751 248 761L150 886Q147 890 148 893T154 896Z" horiz-adv-x="625" unicode="Ď"/>
			<glyph d="M370 680H462Q472 680 472 670V10Q472 0 462 0H370Q360 0 360 10V46H359Q319 -11 231 -11Q170 -11 126 19T64 105Q47 157 47 241Q47 325 64 377Q82 433 126 463T231 493Q319 493 359 436H360V670Q360 680 370 680ZM260 393Q191 393 171 331Q161 300 161 241Q161 182 171 151Q191 89 260 89Q330 89 350 151Q360 182 360 241Q360 300 350 331Q330 393 260 393ZM520 680H603Q613 680 613 670V597Q613 585 606 578L535 509Q528 502 520 502Q510 502 510 513V670Q510 680 520 680Z" horiz-adv-x="545" unicode="ď"/>
			<glyph d="M85 680H328Q506 680 555 529Q572 476 572 340Q572 204 555 151Q506 0 328 0H85Q75 0 75 10V292Q75 298 69 298H43Q33 298 33 308V378Q33 388 43 388H69Q75 388 75 394V670Q75 680 85 680ZM199 574Q193 574 193 568V394Q193 388 199 388H296Q306 388 306 378V308Q306 298 296 298H199Q193 298 193 292V112Q193 106 199 106H300Q413 106 441 192Q453 225 453 340Q453 455 441 488Q413 574 300 574Z" horiz-adv-x="625" unicode="Đ"/>
			<glyph d="M370 680H462Q472 680 472 670V639Q472 633 478 633H503Q513 633 513 623V557Q513 547 503 547H478Q472 547 472 541V10Q472 0 462 0H370Q360 0 360 10V46H359Q319 -11 231 -11Q170 -11 126 19T64 105Q47 157 47 241Q47 325 64 377Q82 433 126 463T231 493Q319 493 359 436H360V541Q360 547 354 547H244Q234 547 234 557V623Q234 633 244 633H354Q360 633 360 639V670Q360 680 370 680ZM260 393Q191 393 171 331Q161 300 161 241Q161 182 171 151Q191 89 260 89Q330 89 350 151Q360 182 360 241Q360 300 350 331Q330 393 260 393Z" horiz-adv-x="545" unicode="đ"/>
			<glyph d="M85 680H511Q521 680 521 670V584Q521 574 511 574H199Q193 574 193 568V402Q193 396 199 396H462Q472 396 472 386V300Q472 290 462 290H199Q193 290 193 284V112Q193 106 199 106H511Q521 106 521 96V10Q521 0 511 0H85Q75 0 75 10V670Q75 680 85 680ZM164 863H427Q437 863 437 853V792Q437 782 427 782H164Q154 782 154 792V853Q154 863 164 863Z" horiz-adv-x="570" unicode="Ē"/>
			<glyph d="M260 493Q332 493 385 457T458 360Q474 311 474 215Q474 205 463 205H166Q160 205 160 199Q160 181 167 162Q192 89 275 89Q346 89 388 135Q396 143 403 137L462 85Q469 79 463 71Q431 34 379 11T265 -11Q190 -11 137 25T64 123Q47 176 47 241Q47 310 63 360Q83 422 136 457T260 493ZM261 398Q227 398 201 381T166 336Q160 318 160 295Q160 289 166 289H355Q361 289 361 295Q361 318 355 336Q345 365 319 381T261 398ZM128 668H391Q401 668 401 658V597Q401 587 391 587H128Q118 587 118 597V658Q118 668 128 668Z" horiz-adv-x="521" unicode="ē"/>
			<glyph d="M85 680H511Q521 680 521 670V584Q521 574 511 574H199Q193 574 193 568V402Q193 396 199 396H462Q472 396 472 386V300Q472 290 462 290H199Q193 290 193 284V112Q193 106 199 106H511Q521 106 521 96V10Q521 0 511 0H85Q75 0 75 10V670Q75 680 85 680ZM160 886H209Q218 886 221 876Q236 830 296 830Q356 830 371 876Q374 886 383 886H432Q441 886 441 876Q437 822 398 788T296 754Q232 754 193 788T151 876Q151 886 160 886Z" horiz-adv-x="570" unicode="Ĕ"/>
			<glyph d="M260 493Q332 493 385 457T458 360Q474 311 474 215Q474 205 463 205H166Q160 205 160 199Q160 181 167 162Q192 89 275 89Q346 89 388 135Q396 143 403 137L462 85Q469 79 463 71Q431 34 379 11T265 -11Q190 -11 137 25T64 123Q47 176 47 241Q47 310 63 360Q83 422 136 457T260 493ZM261 398Q227 398 201 381T166 336Q160 318 160 295Q160 289 166 289H355Q361 289 361 295Q361 318 355 336Q345 365 319 381T261 398ZM124 685H173Q182 685 185 675Q199 630 260 630Q321 630 335 675Q338 685 347 685H396Q405 685 405 675Q401 621 362 587T260 554Q197 554 158 587T115 675Q115 685 124 685Z" horiz-adv-x="521" unicode="ĕ"/>
			<glyph d="M85 680H511Q521 680 521 670V584Q521 574 511 574H199Q193 574 193 568V402Q193 396 199 396H462Q472 396 472 386V300Q472 290 462 290H199Q193 290 193 284V112Q193 106 199 106H511Q521 106 521 96V10Q521 0 511 0H85Q75 0 75 10V670Q75 680 85 680ZM250 876H343Q353 876 353 866V779Q353 769 343 769H250Q240 769 240 779V866Q240 876 250 876Z" horiz-adv-x="570" unicode="Ė"/>
			<glyph d="M260 493Q332 493 385 457T458 360Q474 311 474 215Q474 205 463 205H166Q160 205 160 199Q160 181 167 162Q192 89 275 89Q346 89 388 135Q396 143 403 137L462 85Q469 79 463 71Q431 34 379 11T265 -11Q190 -11 137 25T64 123Q47 176 47 241Q47 310 63 360Q83 422 136 457T260 493ZM261 398Q227 398 201 381T166 336Q160 318 160 295Q160 289 166 289H355Q361 289 361 295Q361 318 355 336Q345 365 319 381T261 398ZM213 680H306Q316 680 316 670V583Q316 573 306 573H213Q203 573 203 583V670Q203 680 213 680Z" horiz-adv-x="521" unicode="ė"/>
			<glyph d="M85 680H511Q521 680 521 670V584Q521 574 511 574H199Q193 574 193 568V402Q193 396 199 396H462Q472 396 472 386V300Q472 290 462 290H199Q193 290 193 284V112Q193 106 199 106H511Q521 106 521 96V10Q521 0 511 0H502Q419 -48 419 -83Q419 -94 425 -101T443 -109Q452 -109 468 -101Q478 -96 482 -105L506 -155Q511 -163 502 -168Q469 -190 424 -190Q381 -190 355 -167T329 -102Q329 -44 394 0H85Q75 0 75 10V670Q75 680 85 680Z" horiz-adv-x="570" unicode="Ę"/>
			<glyph d="M260 493Q332 493 385 457T458 360Q474 311 474 215Q474 205 463 205H166Q160 205 160 199Q160 181 167 162Q192 89 275 89Q346 89 388 135Q396 143 403 137L462 85Q469 79 463 71Q442 47 417 30Q336 -44 336 -83Q336 -94 342 -101T360 -109Q369 -109 385 -101Q394 -97 398 -105L422 -155Q427 -163 418 -168Q387 -190 341 -190Q298 -190 271 -167T245 -102Q245 -58 285 -11H265Q190 -11 137 25T64 123Q47 176 47 241Q47 310 63 360Q83 422 136 457T260 493ZM261 398Q227 398 201 381T166 336Q160 318 160 295Q160 289 166 289H355Q361 289 361 295Q361 318 355 336Q345 365 319 381T261 398Z" horiz-adv-x="521" unicode="ę"/>
			<glyph d="M85 680H511Q521 680 521 670V584Q521 574 511 574H199Q193 574 193 568V402Q193 396 199 396H462Q472 396 472 386V300Q472 290 462 290H199Q193 290 193 284V112Q193 106 199 106H511Q521 106 521 96V10Q521 0 511 0H85Q75 0 75 10V670Q75 680 85 680ZM155 896H218Q229 896 239 886L296 827H298L355 886Q365 896 376 896H439Q443 896 444 893T443 886L345 761Q338 751 327 751H267Q256 751 249 761L151 886Q148 890 149 893T155 896Z" horiz-adv-x="570" unicode="Ě"/>
			<glyph d="M260 493Q332 493 385 457T458 360Q474 311 474 215Q474 205 463 205H166Q160 205 160 199Q160 181 167 162Q192 89 275 89Q346 89 388 135Q396 143 403 137L462 85Q469 79 463 71Q431 34 379 11T265 -11Q190 -11 137 25T64 123Q47 176 47 241Q47 310 63 360Q83 422 136 457T260 493ZM261 398Q227 398 201 381T166 336Q160 318 160 295Q160 289 166 289H355Q361 289 361 295Q361 318 355 336Q345 365 319 381T261 398ZM118 698H181Q192 698 202 688L259 629H261L318 688Q328 698 339 698H402Q406 698 407 695T406 688L308 563Q301 553 290 553H230Q219 553 212 563L114 688Q111 692 112 695T118 698Z" horiz-adv-x="521" unicode="ě"/>
			<glyph d="M316 691Q395 691 461 654T553 547Q557 538 549 533L465 496Q456 493 452 501Q405 585 315 585Q218 585 187 496Q175 459 175 340Q175 222 187 184Q218 95 315 95Q360 95 395 117T444 180Q455 213 455 268Q455 274 449 274H337Q327 274 327 284V364Q327 374 337 374H562Q572 374 572 364V305Q572 205 556 156Q531 77 467 33T316 -11Q225 -11 162 31T73 153Q65 177 60 211T55 340Q55 389 56 436T73 527Q99 607 162 649T316 691ZM283 898H343Q354 898 361 888L459 763Q462 759 460 756T455 753H392Q381 753 371 763L314 822H312L255 763Q245 753 234 753H171Q167 753 165 756T167 763L265 888Q272 898 283 898Z" horiz-adv-x="627" unicode="Ĝ"/>
			<glyph d="M225 493Q314 493 350 436H351V472Q351 482 361 482H453Q463 482 463 472V30Q463 -74 405 -132T238 -191Q188 -191 139 -171T63 -119Q57 -112 64 -105L123 -46Q131 -38 138 -46Q185 -91 243 -91Q351 -91 351 24V69H350Q314 13 225 13Q165 13 122 43T61 130Q45 179 45 253Q45 326 61 375Q79 432 122 462T225 493ZM254 393Q189 393 169 332Q158 300 158 253Q158 204 169 174Q189 112 254 112Q320 112 340 174Q351 204 351 253Q351 300 340 332Q320 393 254 393ZM226 700H286Q297 700 304 690L402 565Q405 561 403 558T398 555H335Q324 555 314 565L257 624H255L198 565Q188 555 177 555H114Q110 555 108 558T110 565L208 690Q215 700 226 700Z" horiz-adv-x="536" unicode="ĝ"/>
			<glyph d="M316 691Q395 691 461 654T553 547Q557 538 549 533L465 496Q456 493 452 501Q405 585 315 585Q218 585 187 496Q175 459 175 340Q175 222 187 184Q218 95 315 95Q360 95 395 117T444 180Q455 213 455 268Q455 274 449 274H337Q327 274 327 284V364Q327 374 337 374H562Q572 374 572 364V305Q572 205 556 156Q531 77 467 33T316 -11Q225 -11 162 31T73 153Q65 177 60 211T55 340Q55 389 56 436T73 527Q99 607 162 649T316 691ZM177 886H226Q235 886 238 876Q253 830 313 830Q373 830 388 876Q391 886 400 886H449Q458 886 458 876Q454 822 415 788T313 754Q249 754 210 788T168 876Q168 886 177 886Z" horiz-adv-x="627" unicode="Ğ"/>
			<glyph d="M225 493Q314 493 350 436H351V472Q351 482 361 482H453Q463 482 463 472V30Q463 -74 405 -132T238 -191Q188 -191 139 -171T63 -119Q57 -112 64 -105L123 -46Q131 -38 138 -46Q185 -91 243 -91Q351 -91 351 24V69H350Q314 13 225 13Q165 13 122 43T61 130Q45 179 45 253Q45 326 61 375Q79 432 122 462T225 493ZM254 393Q189 393 169 332Q158 300 158 253Q158 204 169 174Q189 112 254 112Q320 112 340 174Q351 204 351 253Q351 300 340 332Q320 393 254 393ZM120 685H169Q178 685 181 675Q195 630 256 630Q317 630 331 675Q334 685 343 685H392Q401 685 401 675Q397 621 358 587T256 554Q193 554 154 587T111 675Q111 685 120 685Z" horiz-adv-x="536" unicode="ğ"/>
			<glyph d="M316 691Q395 691 461 654T553 547Q557 538 549 533L465 496Q456 493 452 501Q405 585 315 585Q218 585 187 496Q175 459 175 340Q175 222 187 184Q218 95 315 95Q360 95 395 117T444 180Q455 213 455 268Q455 274 449 274H337Q327 274 327 284V364Q327 374 337 374H562Q572 374 572 364V305Q572 205 556 156Q531 77 467 33T316 -11Q225 -11 162 31T73 153Q65 177 60 211T55 340Q55 389 56 436T73 527Q99 607 162 649T316 691ZM266 876H359Q369 876 369 866V779Q369 769 359 769H266Q256 769 256 779V866Q256 876 266 876Z" horiz-adv-x="627" unicode="Ġ"/>
			<glyph d="M225 493Q314 493 350 436H351V472Q351 482 361 482H453Q463 482 463 472V30Q463 -74 405 -132T238 -191Q188 -191 139 -171T63 -119Q57 -112 64 -105L123 -46Q131 -38 138 -46Q185 -91 243 -91Q351 -91 351 24V69H350Q314 13 225 13Q165 13 122 43T61 130Q45 179 45 253Q45 326 61 375Q79 432 122 462T225 493ZM254 393Q189 393 169 332Q158 300 158 253Q158 204 169 174Q189 112 254 112Q320 112 340 174Q351 204 351 253Q351 300 340 332Q320 393 254 393ZM209 680H302Q312 680 312 670V583Q312 573 302 573H209Q199 573 199 583V670Q199 680 209 680Z" horiz-adv-x="536" unicode="ġ"/>
			<glyph d="M316 691Q395 691 461 654T553 547Q557 538 549 533L465 496Q456 493 452 501Q405 585 315 585Q218 585 187 496Q175 459 175 340Q175 222 187 184Q218 95 315 95Q360 95 395 117T444 180Q455 213 455 268Q455 274 449 274H337Q327 274 327 284V364Q327 374 337 374H562Q572 374 572 364V305Q572 205 556 156Q531 77 467 33T316 -11Q225 -11 162 31T73 153Q65 177 60 211T55 340Q55 389 56 436T73 527Q99 607 162 649T316 691ZM271 -54H354Q364 -54 364 -64V-133Q364 -145 357 -152L286 -221Q279 -228 271 -228Q261 -228 261 -217V-64Q261 -54 271 -54Z" horiz-adv-x="627" unicode="Ģ"/>
			<glyph d="M225 493Q314 493 350 436H351V472Q351 482 361 482H453Q463 482 463 472V30Q463 -74 405 -132T238 -191Q188 -191 139 -171T63 -119Q57 -112 64 -105L123 -46Q131 -38 138 -46Q185 -91 243 -91Q351 -91 351 24V69H350Q314 13 225 13Q165 13 122 43T61 130Q45 179 45 253Q45 326 61 375Q79 432 122 462T225 493ZM254 393Q189 393 169 332Q158 300 158 253Q158 204 169 174Q189 112 254 112Q320 112 340 174Q351 204 351 253Q351 300 340 332Q320 393 254 393ZM298 746Q308 746 308 735V582Q308 572 298 572H215Q205 572 205 582V651Q205 663 212 670L283 739Q290 746 298 746Z" horiz-adv-x="536" unicode="ģ"/>
			<glyph d="M85 680H183Q193 680 193 670V402Q193 396 199 396H458Q464 396 464 402V670Q464 680 474 680H572Q582 680 582 670V10Q582 0 572 0H474Q464 0 464 10V284Q464 290 458 290H199Q193 290 193 284V10Q193 0 183 0H85Q75 0 75 10V670Q75 680 85 680ZM297 898H357Q368 898 375 888L473 763Q476 759 474 756T469 753H406Q395 753 385 763L328 822H326L269 763Q259 753 248 753H185Q181 753 179 756T181 763L279 888Q286 898 297 898Z" horiz-adv-x="657" unicode="Ĥ"/>
			<glyph d="M83 680H175Q185 680 185 670V437H186Q203 461 236 477T313 493Q389 493 434 442T480 314V10Q480 0 470 0H378Q368 0 368 10V288Q368 335 344 364T277 393Q235 393 210 364T185 288V10Q185 0 175 0H83Q73 0 73 10V670Q73 680 83 680ZM248 898H308Q319 898 326 888L424 763Q427 759 425 756T420 753H357Q346 753 336 763L279 822H277L220 763Q210 753 199 753H136Q132 753 130 756T132 763L230 888Q237 898 248 898Z" horiz-adv-x="548" unicode="ĥ"/>
			<glyph d="M85 680H183Q193 680 193 670V584Q193 578 199 578H458Q464 578 464 584V670Q464 680 474 680H572Q582 680 582 670V584Q582 578 588 578H623Q633 578 633 568V504Q633 494 623 494H588Q582 494 582 488V10Q582 0 572 0H474Q464 0 464 10V284Q464 290 458 290H199Q193 290 193 284V10Q193 0 183 0H85Q75 0 75 10V488Q75 494 69 494H34Q24 494 24 504V568Q24 578 34 578H69Q75 578 75 584V670Q75 680 85 680ZM199 494Q193 494 193 488V402Q193 396 199 396H458Q464 396 464 402V488Q464 494 458 494Z" horiz-adv-x="657" unicode="Ħ"/>
			<glyph d="M83 680H175Q185 680 185 670V639Q185 633 191 633H301Q311 633 311 623V557Q311 547 301 547H191Q185 547 185 541V437H186Q203 461 236 477T313 493Q389 493 434 442T480 314V10Q480 0 470 0H378Q368 0 368 10V288Q368 335 344 364T277 393Q235 393 210 364T185 288V10Q185 0 175 0H83Q73 0 73 10V541Q73 547 67 547H42Q32 547 32 557V623Q32 633 42 633H67Q73 633 73 639V670Q73 680 83 680Z" horiz-adv-x="548" unicode="ħ"/>
			<glyph d="M85 680H183Q193 680 193 670V10Q193 0 183 0H85Q75 0 75 10V670Q75 680 85 680ZM75 880Q106 880 142 860Q173 842 200 842Q230 842 265 873Q268 876 271 875T274 871V810Q274 800 266 791Q234 757 193 757Q163 757 127 777Q96 795 71 795Q38 795 4 764Q1 761 -2 762T-5 766V827Q-5 837 3 846Q35 880 75 880Z" horiz-adv-x="268" unicode="Ĩ"/>
			<glyph d="M83 482H175Q185 482 185 472V10Q185 0 175 0H83Q73 0 73 10V472Q73 482 83 482ZM72 684Q101 684 137 664Q169 646 195 646Q226 646 260 677Q263 680 266 679T269 675V614Q269 604 261 595Q229 561 188 561Q158 561 122 581Q91 599 64 599Q34 599 -1 568Q-4 565 -7 566T-10 570V631Q-10 641 -2 650Q30 684 72 684Z" horiz-adv-x="258" unicode="ĩ"/>
			<glyph d="M85 680H183Q193 680 193 670V10Q193 0 183 0H85Q75 0 75 10V670Q75 680 85 680ZM3 863H266Q276 863 276 853V792Q276 782 266 782H3Q-7 782 -7 792V853Q-7 863 3 863Z" horiz-adv-x="268" unicode="Ī"/>
			<glyph d="M83 482H175Q185 482 185 472V10Q185 0 175 0H83Q73 0 73 10V472Q73 482 83 482ZM-2 668H261Q271 668 271 658V597Q271 587 261 587H-2Q-12 587 -12 597V658Q-12 668 -2 668Z" horiz-adv-x="258" unicode="ī"/>
			<glyph d="M85 680H183Q193 680 193 670V10Q193 0 183 0H85Q75 0 75 10V670Q75 680 85 680ZM-1 886H48Q57 886 60 876Q75 830 135 830Q195 830 210 876Q213 886 222 886H271Q280 886 280 876Q276 822 237 788T135 754Q71 754 32 788T-10 876Q-10 886 -1 886Z" horiz-adv-x="268" unicode="Ĭ"/>
			<glyph d="M83 482H175Q185 482 185 472V10Q185 0 175 0H83Q73 0 73 10V472Q73 482 83 482ZM-7 685H42Q51 685 54 675Q68 630 129 630Q190 630 204 675Q207 685 216 685H265Q274 685 274 675Q270 621 231 587T129 554Q66 554 27 587T-16 675Q-16 685 -7 685Z" horiz-adv-x="258" unicode="ĭ"/>
			<glyph d="M85 680H183Q193 680 193 670V10Q193 4 188 0Q158 -23 138 -43T119 -83Q119 -94 125 -101T143 -109Q154 -109 168 -101Q177 -97 181 -105L205 -155Q210 -163 202 -168Q169 -190 124 -190Q81 -190 54 -167T28 -102Q28 -54 85 0Q75 0 75 10V670Q75 680 85 680Z" horiz-adv-x="268" unicode="Į"/>
			<glyph d="M83 680H175Q185 680 185 670V583Q185 573 175 573H83Q73 573 73 583V670Q73 680 83 680ZM83 482H175Q185 482 185 472V10Q185 4 180 0Q114 -51 114 -83Q114 -94 120 -101T138 -109Q149 -109 163 -101Q172 -97 176 -105L201 -155Q206 -163 197 -168Q164 -190 119 -190Q76 -190 49 -167T23 -102Q23 -48 78 1Q73 4 73 10V472Q73 482 83 482Z" horiz-adv-x="258" unicode="į"/>
			<glyph d="M85 680H183Q193 680 193 670V10Q193 0 183 0H85Q75 0 75 10V670Q75 680 85 680ZM88 876H181Q191 876 191 866V779Q191 769 181 769H88Q78 769 78 779V866Q78 876 88 876Z" horiz-adv-x="268" unicode="İ"/>
			<glyph d="M83 482H175Q185 482 185 472V10Q185 0 175 0H83Q73 0 73 10V472Q73 482 83 482Z" horiz-adv-x="258" unicode="ı"/>
			<glyph d="M85 680H183Q193 680 193 670V10Q193 0 183 0H85Q75 0 75 10V670Q75 680 85 680ZM596 680H694Q704 680 704 670V229Q704 115 641 52T469 -11Q414 -11 364 13T292 71Q287 79 294 85L367 140Q375 145 382 137Q396 120 421 107T473 95Q525 95 555 128T586 229V670Q586 680 596 680Z" horiz-adv-x="775" unicode="Ĳ"/>
			<glyph d="M83 680H175Q185 680 185 670V583Q185 573 175 573H83Q73 573 73 583V670Q73 680 83 680ZM83 482H175Q185 482 185 472V10Q185 0 175 0H83Q73 0 73 10V472Q73 482 83 482ZM341 680H433Q443 680 443 670V583Q443 573 433 573H341Q331 573 331 583V670Q331 680 341 680ZM341 482H433Q443 482 443 472V-21Q443 -180 281 -180H253Q243 -180 243 -170V-90Q243 -80 253 -80H275Q298 -80 314 -71T331 -23V472Q331 482 341 482Z" horiz-adv-x="516" unicode="ĳ"/>
			<glyph d="M328 680H426Q436 680 436 670V229Q436 115 373 52T201 -11Q146 -11 96 13T24 71Q19 79 26 85L99 140Q107 145 114 137Q128 120 153 107T205 95Q257 95 287 128T318 229V670Q318 680 328 680ZM345 898H405Q416 898 423 888L521 763Q524 759 522 756T517 753H454Q443 753 433 763L376 822H374L317 763Q307 753 296 753H233Q229 753 227 756T229 763L327 888Q334 898 345 898Z" horiz-adv-x="507" unicode="Ĵ"/>
			<glyph d="M83 482H175Q185 482 185 472V-21Q185 -180 23 -180H-5Q-15 -180 -15 -170V-90Q-15 -80 -5 -80H17Q40 -80 56 -71T73 -23V472Q73 482 83 482ZM99 700H159Q170 700 177 690L275 565Q278 561 276 558T271 555H208Q197 555 187 565L130 624H128L71 565Q61 555 50 555H-13Q-17 555 -18 558T-17 565L81 690Q88 700 99 700Z" horiz-adv-x="258" unicode="ĵ"/>
			<glyph d="M85 680H183Q193 680 193 670V350L450 672Q457 680 466 680H580Q584 680 585 675T584 667L373 413L608 12Q611 7 609 3T601 0H490Q480 0 475 8L297 322L193 196V10Q193 0 183 0H85Q75 0 75 10V670Q75 680 85 680ZM277 -54H360Q370 -54 370 -64V-133Q370 -145 363 -152L292 -221Q285 -228 277 -228Q267 -228 267 -217V-64Q267 -54 277 -54Z" horiz-adv-x="633" unicode="Ķ"/>
			<glyph d="M83 680H175Q185 680 185 670V278L350 472Q359 482 369 482H471Q475 482 476 478T475 472L322 296L498 10Q500 7 498 3T493 0H388Q378 0 372 10L250 212L185 137V10Q185 0 175 0H83Q73 0 73 10V670Q73 680 83 680ZM226 -54H309Q319 -54 319 -64V-133Q319 -145 312 -152L241 -221Q234 -228 226 -228Q216 -228 216 -217V-64Q216 -54 226 -54Z" horiz-adv-x="522" unicode="ķ"/>
			<glyph d="M83 482H175Q185 482 185 472V278L350 472Q359 482 369 482H471Q475 482 476 478T475 472L322 296L498 10Q500 7 498 3T493 0H388Q378 0 372 10L250 212L185 137V10Q185 0 175 0H83Q73 0 73 10V472Q73 482 83 482Z" horiz-adv-x="522" unicode="ĸ"/>
			<glyph d="M85 680H183Q193 680 193 670V112Q193 106 199 106H511Q521 106 521 96V10Q521 0 511 0H85Q75 0 75 10V670Q75 680 85 680ZM210 888H308Q312 888 314 884T313 878L196 769Q188 761 178 761H107Q103 761 101 764T103 771L191 878Q199 888 210 888Z" horiz-adv-x="545" unicode="Ĺ"/>
			<glyph d="M81 680H173Q183 680 183 670V138Q183 120 190 107T225 94H247Q257 94 257 84V4Q257 -6 247 -6H203Q142 -6 106 23T71 132V670Q71 680 81 680ZM196 888H294Q298 888 300 884T299 878L182 769Q174 761 164 761H93Q89 761 87 764T89 771L177 878Q185 888 196 888Z" horiz-adv-x="291" unicode="ĺ"/>
			<glyph d="M85 680H183Q193 680 193 670V112Q193 106 199 106H511Q521 106 521 96V10Q521 0 511 0H85Q75 0 75 10V670Q75 680 85 680ZM251 -54H334Q344 -54 344 -64V-133Q344 -145 337 -152L266 -221Q259 -228 251 -228Q241 -228 241 -217V-64Q241 -54 251 -54Z" horiz-adv-x="545" unicode="Ļ"/>
			<glyph d="M81 680H173Q183 680 183 670V138Q183 120 190 107T225 94H247Q257 94 257 84V4Q257 -6 247 -6H203Q142 -6 106 23T71 132V670Q71 680 81 680ZM125 -54H208Q218 -54 218 -64V-133Q218 -145 211 -152L140 -221Q133 -228 125 -228Q115 -228 115 -217V-64Q115 -54 125 -54Z" horiz-adv-x="291" unicode="ļ"/>
			<glyph d="M85 680H183Q193 680 193 670V112Q193 106 199 106H511Q521 106 521 96V10Q521 0 511 0H85Q75 0 75 10V670Q75 680 85 680ZM259 680H342Q352 680 352 670V597Q352 585 345 578L274 509Q267 502 259 502Q249 502 249 513V670Q249 680 259 680Z" horiz-adv-x="545" unicode="Ľ"/>
			<glyph d="M81 680H173Q183 680 183 670V138Q183 120 190 107T225 94H247Q257 94 257 84V4Q257 -6 247 -6H203Q142 -6 106 23T71 132V670Q71 680 81 680ZM231 680H314Q324 680 324 670V597Q324 585 317 578L246 509Q239 502 231 502Q221 502 221 513V670Q221 680 231 680Z" horiz-adv-x="291" unicode="ľ"/>
			<glyph d="M85 680H183Q193 680 193 670V112Q193 106 199 106H511Q521 106 521 96V10Q521 0 511 0H85Q75 0 75 10V670Q75 680 85 680ZM356 387H456Q466 387 466 377V275Q466 265 456 265H356Q346 265 346 275V377Q346 387 356 387Z" horiz-adv-x="545" unicode="Ŀ"/>
			<glyph d="M81 680H173Q183 680 183 670V138Q183 120 190 107T225 94H247Q257 94 257 84V4Q257 -6 247 -6H203Q142 -6 106 23T71 132V670Q71 680 81 680ZM255 401H355Q365 401 365 391V289Q365 279 355 279H255Q245 279 245 289V391Q245 401 255 401Z" horiz-adv-x="356" unicode="ŀ"/>
			<glyph d="M85 680H183Q193 680 193 670V418L320 484Q330 489 330 478V397Q330 388 320 383L193 317V112Q193 106 199 106H511Q521 106 521 96V10Q521 0 511 0H85Q75 0 75 10V259L24 233Q14 228 14 239V320Q14 329 24 334L75 360V670Q75 680 85 680Z" horiz-adv-x="545" unicode="Ł"/>
			<glyph d="M81 680H173Q183 680 183 670V429L247 462Q257 467 257 456V382Q257 372 247 367L183 334V138Q183 120 190 107T225 94H247Q257 94 257 84V4Q257 -6 247 -6H203Q142 -6 106 23T71 132V283L38 266Q28 261 28 272V346Q28 356 38 361L71 378V670Q71 680 81 680Z" horiz-adv-x="291" unicode="ł"/>
			<glyph d="M85 680H177Q188 680 194 670L471 201H475V670Q475 680 485 680H572Q582 680 582 670V10Q582 0 572 0H481Q470 0 464 10L186 478H182V10Q182 0 172 0H85Q75 0 75 10V670Q75 680 85 680ZM370 888H468Q472 888 474 884T473 878L356 769Q348 761 338 761H267Q263 761 261 764T263 771L351 878Q359 888 370 888Z" horiz-adv-x="657" unicode="Ń"/>
			<glyph d="M313 493Q389 493 434 442T480 314V10Q480 0 470 0H378Q368 0 368 10V288Q368 335 344 364T277 393Q235 393 210 364T185 288V10Q185 0 175 0H83Q73 0 73 10V472Q73 482 83 482H175Q185 482 185 472V437H186Q203 461 236 477T313 493ZM300 700H391Q395 700 397 696T396 690L301 565Q292 555 281 555H213Q202 555 207 565L282 690Q288 700 300 700Z" horiz-adv-x="548" unicode="ń"/>
			<glyph d="M85 680H177Q188 680 194 670L471 201H475V670Q475 680 485 680H572Q582 680 582 670V10Q582 0 572 0H481Q470 0 464 10L186 478H182V10Q182 0 172 0H85Q75 0 75 10V670Q75 680 85 680ZM287 -54H370Q380 -54 380 -64V-133Q380 -145 373 -152L302 -221Q295 -228 287 -228Q277 -228 277 -217V-64Q277 -54 287 -54Z" horiz-adv-x="657" unicode="Ņ"/>
			<glyph d="M313 493Q389 493 434 442T480 314V10Q480 0 470 0H378Q368 0 368 10V288Q368 335 344 364T277 393Q235 393 210 364T185 288V10Q185 0 175 0H83Q73 0 73 10V472Q73 482 83 482H175Q185 482 185 472V437H186Q203 461 236 477T313 493ZM233 -54H316Q326 -54 326 -64V-133Q326 -145 319 -152L248 -221Q241 -228 233 -228Q223 -228 223 -217V-64Q223 -54 233 -54Z" horiz-adv-x="548" unicode="ņ"/>
			<glyph d="M85 680H177Q188 680 194 670L471 201H475V670Q475 680 485 680H572Q582 680 582 670V10Q582 0 572 0H481Q470 0 464 10L186 478H182V10Q182 0 172 0H85Q75 0 75 10V670Q75 680 85 680ZM183 896H246Q257 896 267 886L324 827H326L383 886Q393 896 404 896H467Q471 896 472 893T471 886L373 761Q366 751 355 751H295Q284 751 277 761L179 886Q176 890 177 893T183 896Z" horiz-adv-x="657" unicode="Ň"/>
			<glyph d="M313 493Q389 493 434 442T480 314V10Q480 0 470 0H378Q368 0 368 10V288Q368 335 344 364T277 393Q235 393 210 364T185 288V10Q185 0 175 0H83Q73 0 73 10V472Q73 482 83 482H175Q185 482 185 472V437H186Q203 461 236 477T313 493ZM131 698H194Q205 698 215 688L272 629H274L331 688Q341 698 352 698H415Q419 698 420 695T419 688L321 563Q314 553 303 553H243Q232 553 225 563L127 688Q124 692 125 695T131 698Z" horiz-adv-x="548" unicode="ň"/>
			<glyph d="M313 493Q389 493 434 442T480 314V10Q480 0 470 0H378Q368 0 368 10V288Q368 335 344 364T277 393Q235 393 210 364T185 288V10Q185 0 175 0H83Q73 0 73 10V472Q73 482 83 482H175Q185 482 185 472V437H186Q203 461 236 477T313 493ZM-5 680H78Q88 680 88 670V597Q88 585 81 578L10 509Q3 502 -5 502Q-15 502 -15 513V670Q-15 680 -5 680Z" horiz-adv-x="548" unicode="ŉ"/>
			<glyph d="M85 680H177Q189 680 194 670L471 201H475V670Q475 680 485 680H572Q582 680 582 670V3Q582 -180 401 -180H372Q362 -180 362 -170V-84Q362 -74 372 -74H395Q471 -74 471 -6V-1L186 478H182V10Q182 0 172 0H85Q75 0 75 10V670Q75 680 85 680Z" horiz-adv-x="657" unicode="Ŋ"/>
			<glyph d="M313 493Q389 493 434 442T480 314V-21Q480 -180 318 -180H290Q280 -180 280 -170V-90Q280 -80 290 -80H312Q335 -80 351 -71T368 -23V288Q368 335 344 364T277 393Q235 393 210 364T185 288V10Q185 0 175 0H83Q73 0 73 10V472Q73 482 83 482H175Q185 482 185 472V437H186Q203 461 236 477T313 493Z" horiz-adv-x="548" unicode="ŋ"/>
			<glyph d="M313 691Q402 691 465 649T554 527Q562 503 567 469T572 340Q572 291 570 244T554 153Q528 73 465 31T313 -11Q224 -11 161 31T73 153Q65 177 60 211T55 340Q55 389 56 436T73 527Q99 607 161 649T313 691ZM313 585Q218 585 187 496Q175 459 175 340Q175 222 187 184Q218 95 313 95Q409 95 440 184Q452 222 452 340Q452 459 440 496Q409 585 313 585ZM181 863H444Q454 863 454 853V792Q454 782 444 782H181Q171 782 171 792V853Q171 863 181 863Z" horiz-adv-x="627" unicode="Ō"/>
			<glyph d="M262 493Q334 493 387 457T460 360Q476 311 476 241Q476 171 460 122Q440 60 387 24T262 -11Q190 -11 136 24T63 122Q47 171 47 241Q47 311 63 360Q83 422 136 457T262 493ZM262 393Q193 393 171 330Q161 298 161 241Q161 183 171 152Q193 89 262 89Q330 89 352 152Q362 183 362 241Q362 298 352 330Q330 393 262 393ZM129 668H392Q402 668 402 658V597Q402 587 392 587H129Q119 587 119 597V658Q119 668 129 668Z" horiz-adv-x="523" unicode="ō"/>
			<glyph d="M313 691Q402 691 465 649T554 527Q562 503 567 469T572 340Q572 291 570 244T554 153Q528 73 465 31T313 -11Q224 -11 161 31T73 153Q65 177 60 211T55 340Q55 389 56 436T73 527Q99 607 161 649T313 691ZM313 585Q218 585 187 496Q175 459 175 340Q175 222 187 184Q218 95 313 95Q409 95 440 184Q452 222 452 340Q452 459 440 496Q409 585 313 585ZM177 886H226Q235 886 238 876Q253 830 313 830Q373 830 388 876Q391 886 400 886H449Q458 886 458 876Q454 822 415 788T313 754Q249 754 210 788T168 876Q168 886 177 886Z" horiz-adv-x="627" unicode="Ŏ"/>
			<glyph d="M262 493Q334 493 387 457T460 360Q476 311 476 241Q476 171 460 122Q440 60 387 24T262 -11Q190 -11 136 24T63 122Q47 171 47 241Q47 311 63 360Q83 422 136 457T262 493ZM262 393Q193 393 171 330Q161 298 161 241Q161 183 171 152Q193 89 262 89Q330 89 352 152Q362 183 362 241Q362 298 352 330Q330 393 262 393ZM125 685H174Q183 685 186 675Q200 630 261 630Q322 630 336 675Q339 685 348 685H397Q406 685 406 675Q402 621 363 587T261 554Q198 554 159 587T116 675Q116 685 125 685Z" horiz-adv-x="523" unicode="ŏ"/>
			<glyph d="M313 691Q402 691 465 649T554 527Q562 503 567 469T572 340Q572 291 570 244T554 153Q528 73 465 31T313 -11Q224 -11 161 31T73 153Q65 177 60 211T55 340Q55 389 56 436T73 527Q99 607 161 649T313 691ZM313 585Q218 585 187 496Q175 459 175 340Q175 222 187 184Q218 95 313 95Q409 95 440 184Q452 222 452 340Q452 459 440 496Q409 585 313 585ZM422 890H500Q504 890 505 887T504 880L427 773Q420 763 408 763H345Q341 763 339 766T340 773L405 880Q411 890 422 890ZM264 890H342Q346 890 347 887T346 880L269 773Q262 763 250 763H187Q183 763 181 766T182 773L247 880Q253 890 264 890Z" horiz-adv-x="627" unicode="Ő"/>
			<glyph d="M262 493Q334 493 387 457T460 360Q476 311 476 241Q476 171 460 122Q440 60 387 24T262 -11Q190 -11 136 24T63 122Q47 171 47 241Q47 311 63 360Q83 422 136 457T262 493ZM262 393Q193 393 171 330Q161 298 161 241Q161 183 171 152Q193 89 262 89Q330 89 352 152Q362 183 362 241Q362 298 352 330Q330 393 262 393ZM379 700H457Q461 700 462 697T462 690L385 565Q379 555 369 555H304Q293 555 298 565L363 690Q368 700 379 700ZM221 700H299Q303 700 304 697T304 690L227 565Q221 555 211 555H146Q135 555 140 565L205 690Q210 700 221 700Z" horiz-adv-x="523" unicode="ő"/>
			<glyph d="M313 691Q401 691 451 643H452V670Q452 680 462 680H888Q898 680 898 670V584Q898 574 888 574H576Q570 574 570 568V402Q570 396 576 396H839Q849 396 849 386V300Q849 290 839 290H576Q570 290 570 284V112Q570 106 576 106H888Q898 106 898 96V10Q898 0 888 0H462Q452 0 452 10V37H451Q401 -11 313 -11Q224 -11 161 31T73 153Q65 177 60 211T55 340Q55 389 56 436T73 527Q99 607 161 649T313 691ZM313 585Q218 585 187 496Q175 459 175 340Q175 222 187 184Q218 95 313 95Q409 95 440 184Q452 222 452 340Q452 459 440 496Q409 585 313 585Z" horiz-adv-x="947" unicode="Œ"/>
			<glyph d="M262 493Q362 493 418 430H420Q472 493 575 493Q647 493 699 457T772 360Q788 311 788 215Q788 205 777 205H480Q474 205 474 199Q474 181 481 162Q506 89 589 89Q660 89 702 135Q710 143 717 137L776 85Q783 79 777 71Q745 34 694 11T580 -11Q475 -11 421 55H419Q363 -11 262 -11Q190 -11 136 24T63 122Q47 171 47 241Q47 311 63 360Q83 422 136 457T262 493ZM575 398Q541 398 515 381T480 336Q474 318 474 295Q474 289 480 289H669Q675 289 675 295Q675 318 669 336Q659 365 633 381T575 398ZM262 393Q193 393 171 330Q161 298 161 241Q161 183 171 152Q193 89 262 89Q330 89 352 152Q362 183 362 241Q362 298 352 330Q330 393 262 393Z" horiz-adv-x="835" unicode="œ"/>
			<glyph d="M85 680H348Q442 680 503 623T565 477Q565 412 529 362T436 290L579 13Q582 8 579 4T572 0H461Q450 0 446 10L316 275H199Q193 275 193 269V10Q193 0 183 0H85Q75 0 75 10V670Q75 680 85 680ZM199 574Q193 574 193 568V387Q193 381 199 381H344Q390 381 419 407T448 477Q448 520 419 547T344 574ZM335 888H433Q437 888 439 884T438 878L321 769Q313 761 303 761H232Q228 761 226 764T228 771L316 878Q324 888 335 888Z" horiz-adv-x="619" unicode="Ŕ"/>
			<glyph d="M311 493Q337 493 365 482T412 453Q419 446 414 439L361 372Q355 364 347 370Q311 393 276 393Q185 393 185 271V10Q185 0 175 0H83Q73 0 73 10V472Q73 482 83 482H175Q185 482 185 472V431H186Q225 493 311 493ZM253 700H344Q348 700 350 696T349 690L254 565Q245 555 234 555H166Q155 555 160 565L235 690Q241 700 253 700Z" horiz-adv-x="423" unicode="ŕ"/>
			<glyph d="M85 680H348Q442 680 503 623T565 477Q565 412 529 362T436 290L579 13Q582 8 579 4T572 0H461Q450 0 446 10L316 275H199Q193 275 193 269V10Q193 0 183 0H85Q75 0 75 10V670Q75 680 85 680ZM199 574Q193 574 193 568V387Q193 381 199 381H344Q390 381 419 407T448 477Q448 520 419 547T344 574ZM269 -54H352Q362 -54 362 -64V-133Q362 -145 355 -152L284 -221Q277 -228 269 -228Q259 -228 259 -217V-64Q259 -54 269 -54Z" horiz-adv-x="619" unicode="Ŗ"/>
			<glyph d="M311 493Q337 493 365 482T412 453Q419 446 414 439L361 372Q355 364 347 370Q311 393 276 393Q185 393 185 271V10Q185 0 175 0H83Q73 0 73 10V472Q73 482 83 482H175Q185 482 185 472V431H186Q225 493 311 493ZM88 -54H171Q181 -54 181 -64V-133Q181 -145 174 -152L103 -221Q96 -228 88 -228Q78 -228 78 -217V-64Q78 -54 88 -54Z" horiz-adv-x="423" unicode="ŗ"/>
			<glyph d="M85 680H348Q442 680 503 623T565 477Q565 412 529 362T436 290L579 13Q582 8 579 4T572 0H461Q450 0 446 10L316 275H199Q193 275 193 269V10Q193 0 183 0H85Q75 0 75 10V670Q75 680 85 680ZM199 574Q193 574 193 568V387Q193 381 199 381H344Q390 381 419 407T448 477Q448 520 419 547T344 574ZM147 896H210Q221 896 231 886L288 827H290L347 886Q357 896 368 896H431Q435 896 436 893T435 886L337 761Q330 751 319 751H259Q248 751 241 761L143 886Q140 890 141 893T147 896Z" horiz-adv-x="619" unicode="Ř"/>
			<glyph d="M311 493Q337 493 365 482T412 453Q419 446 414 439L361 372Q355 364 347 370Q311 393 276 393Q185 393 185 271V10Q185 0 175 0H83Q73 0 73 10V472Q73 482 83 482H175Q185 482 185 472V431H186Q225 493 311 493ZM90 698H153Q164 698 174 688L231 629H233L290 688Q300 698 311 698H374Q378 698 379 695T378 688L280 563Q273 553 262 553H202Q191 553 184 563L86 688Q83 692 84 695T90 698Z" horiz-adv-x="423" unicode="ř"/>
			<glyph d="M291 691Q337 691 398 676T511 623Q518 617 513 609L465 535Q459 527 451 532Q370 585 288 585Q238 585 209 559T181 494Q181 420 306 402L342 397Q545 369 545 200Q545 106 478 47T289 -11Q218 -11 149 15T39 79Q31 87 37 94L99 166Q106 174 113 167Q204 95 298 95Q357 95 391 122T426 193Q426 270 302 287L266 292Q61 320 61 486Q61 578 124 634T291 691ZM348 888H446Q450 888 452 884T451 878L334 769Q326 761 316 761H245Q241 761 239 764T241 771L329 878Q337 888 348 888Z" horiz-adv-x="587" unicode="Ś"/>
			<glyph d="M252 493Q358 493 433 434Q441 428 435 420L386 361Q380 354 372 359Q315 399 246 399Q212 399 192 385T173 349Q173 327 190 314T252 298L304 293Q369 287 411 253T453 152Q453 78 400 33T251 -11Q126 -11 44 65Q37 72 44 79L101 139Q108 146 115 139Q141 115 180 99T256 84Q298 84 321 100T345 141Q345 164 327 177T265 194L213 199Q140 206 102 242T65 341Q65 411 114 452T252 493ZM285 700H376Q380 700 382 696T381 690L286 565Q277 555 266 555H198Q187 555 192 565L267 690Q273 700 285 700Z" horiz-adv-x="498" unicode="ś"/>
			<glyph d="M291 691Q337 691 398 676T511 623Q518 617 513 609L465 535Q459 527 451 532Q370 585 288 585Q238 585 209 559T181 494Q181 420 306 402L342 397Q545 369 545 200Q545 106 478 47T289 -11Q218 -11 149 15T39 79Q31 87 37 94L99 166Q106 174 113 167Q204 95 298 95Q357 95 391 122T426 193Q426 270 302 287L266 292Q61 320 61 486Q61 578 124 634T291 691ZM266 898H326Q337 898 344 888L442 763Q445 759 443 756T438 753H375Q364 753 354 763L297 822H295L238 763Q228 753 217 753H154Q150 753 148 756T150 763L248 888Q255 898 266 898Z" horiz-adv-x="587" unicode="Ŝ"/>
			<glyph d="M252 493Q358 493 433 434Q441 428 435 420L386 361Q380 354 372 359Q315 399 246 399Q212 399 192 385T173 349Q173 327 190 314T252 298L304 293Q369 287 411 253T453 152Q453 78 400 33T251 -11Q126 -11 44 65Q37 72 44 79L101 139Q108 146 115 139Q141 115 180 99T256 84Q298 84 321 100T345 141Q345 164 327 177T265 194L213 199Q140 206 102 242T65 341Q65 411 114 452T252 493ZM220 700H280Q291 700 298 690L396 565Q399 561 397 558T392 555H329Q318 555 308 565L251 624H249L192 565Q182 555 171 555H108Q104 555 102 558T104 565L202 690Q209 700 220 700Z" horiz-adv-x="498" unicode="ŝ"/>
			<glyph d="M291 691Q337 691 398 676T511 623Q518 617 513 609L465 535Q459 527 451 532Q370 585 288 585Q238 585 209 559T181 494Q181 420 306 402L342 397Q545 369 545 200Q545 117 493 61T343 -8L300 -145Q297 -155 284 -155H206Q196 -155 199 -145L254 -10Q192 -4 133 20T39 79Q31 87 37 94L99 166Q106 174 113 167Q204 95 298 95Q357 95 391 122T426 193Q426 270 302 287L266 292Q61 320 61 486Q61 578 124 634T291 691Z" horiz-adv-x="587" unicode="Ş"/>
			<glyph d="M252 493Q358 493 433 434Q441 428 435 420L386 361Q380 354 372 359Q315 399 246 399Q212 399 192 385T173 349Q173 327 190 314T252 298L304 293Q369 287 411 253T453 152Q453 88 413 45T299 -7L256 -145Q253 -155 240 -155H162Q152 -155 155 -145L210 -9Q110 3 44 65Q37 72 44 79L101 139Q108 146 115 139Q141 115 180 99T256 84Q298 84 321 100T345 141Q345 164 327 177T265 194L213 199Q140 206 102 242T65 341Q65 411 114 452T252 493Z" horiz-adv-x="498" unicode="ş"/>
			<glyph d="M291 691Q337 691 398 676T511 623Q518 617 513 609L465 535Q459 527 451 532Q370 585 288 585Q238 585 209 559T181 494Q181 420 306 402L342 397Q545 369 545 200Q545 106 478 47T289 -11Q218 -11 149 15T39 79Q31 87 37 94L99 166Q106 174 113 167Q204 95 298 95Q357 95 391 122T426 193Q426 270 302 287L266 292Q61 320 61 486Q61 578 124 634T291 691ZM154 896H217Q228 896 238 886L295 827H297L354 886Q364 896 375 896H438Q442 896 443 893T442 886L344 761Q337 751 326 751H266Q255 751 248 761L150 886Q147 890 148 893T154 896Z" horiz-adv-x="587" unicode="Š"/>
			<glyph d="M252 493Q358 493 433 434Q441 428 435 420L386 361Q380 354 372 359Q315 399 246 399Q212 399 192 385T173 349Q173 327 190 314T252 298L304 293Q369 287 411 253T453 152Q453 78 400 33T251 -11Q126 -11 44 65Q37 72 44 79L101 139Q108 146 115 139Q141 115 180 99T256 84Q298 84 321 100T345 141Q345 164 327 177T265 194L213 199Q140 206 102 242T65 341Q65 411 114 452T252 493ZM108 698H171Q182 698 192 688L249 629H251L308 688Q318 698 329 698H392Q396 698 397 695T396 688L298 563Q291 553 280 553H220Q209 553 202 563L104 688Q101 692 102 695T108 698Z" horiz-adv-x="498" unicode="š"/>
			<glyph d="M32 680H518Q528 680 528 670V584Q528 574 518 574H340Q334 574 334 568V10Q334 0 324 0H226Q216 0 216 10V568Q216 574 210 574H32Q22 574 22 584V670Q22 680 32 680ZM233 -54H316Q326 -54 326 -64V-133Q326 -145 319 -152L248 -221Q241 -228 233 -228Q223 -228 223 -217V-64Q223 -54 233 -54Z" horiz-adv-x="550" unicode="Ţ"/>
			<glyph d="M90 630H182Q192 630 192 620V488Q192 482 198 482H262Q272 482 272 472V405Q272 395 262 395H198Q192 395 192 389V139Q192 121 200 107T237 94H262Q272 94 272 84V4Q272 -6 262 -6H214Q152 -6 116 24T80 135V389Q80 395 74 395H42Q32 395 32 405V472Q32 482 42 482H74Q80 482 80 488V620Q80 630 90 630ZM139 -54H222Q232 -54 232 -64V-133Q232 -145 225 -152L154 -221Q147 -228 139 -228Q129 -228 129 -217V-64Q129 -54 139 -54Z" horiz-adv-x="321" unicode="ţ"/>
			<glyph d="M32 680H518Q528 680 528 670V584Q528 574 518 574H340Q334 574 334 568V10Q334 0 324 0H226Q216 0 216 10V568Q216 574 210 574H32Q22 574 22 584V670Q22 680 32 680ZM132 896H195Q206 896 216 886L273 827H275L332 886Q342 896 353 896H416Q420 896 421 893T420 886L322 761Q315 751 304 751H244Q233 751 226 761L128 886Q125 890 126 893T132 896Z" horiz-adv-x="550" unicode="Ť"/>
			<glyph d="M90 630H182Q192 630 192 620V488Q192 482 198 482H262Q272 482 272 472V405Q272 395 262 395H198Q192 395 192 389V139Q192 121 200 107T237 94H262Q272 94 272 84V4Q272 -6 262 -6H214Q152 -6 116 24T80 135V389Q80 395 74 395H42Q32 395 32 405V472Q32 482 42 482H74Q80 482 80 488V620Q80 630 90 630ZM258 680H341Q351 680 351 670V597Q351 585 344 578L273 509Q266 502 258 502Q248 502 248 513V670Q248 680 258 680Z" horiz-adv-x="321" unicode="ť"/>
			<glyph d="M32 680H518Q528 680 528 670V584Q528 574 518 574H340Q334 574 334 568V440Q334 434 340 434H440Q450 434 450 424V346Q450 336 440 336H340Q334 336 334 330V10Q334 0 324 0H226Q216 0 216 10V330Q216 336 210 336H110Q100 336 100 346V424Q100 434 110 434H210Q216 434 216 440V568Q216 574 210 574H32Q22 574 22 584V670Q22 680 32 680Z" horiz-adv-x="550" unicode="Ŧ"/>
			<glyph d="M90 630H182Q192 630 192 620V488Q192 482 198 482H262Q272 482 272 472V405Q272 395 262 395H198Q192 395 192 389V336Q192 330 198 330H251Q261 330 261 320V259Q261 249 251 249H198Q192 249 192 243V139Q192 121 200 107T237 94H262Q272 94 272 84V4Q272 -6 262 -6H214Q152 -6 116 24T80 135V243Q80 249 74 249H52Q42 249 42 259V320Q42 330 52 330H74Q80 330 80 336V389Q80 395 74 395H42Q32 395 32 405V472Q32 482 42 482H74Q80 482 80 488V620Q80 630 90 630Z" horiz-adv-x="321" unicode="ŧ"/>
			<glyph d="M81 680H179Q189 680 189 670V241Q189 172 225 133T321 95Q381 95 417 133T454 241V670Q454 680 464 680H562Q572 680 572 670V239Q572 123 501 56T321 -11Q211 -11 141 56T71 239V670Q71 680 81 680ZM262 880Q293 880 329 860Q360 842 387 842Q417 842 452 873Q455 876 458 875T461 871V810Q461 800 453 791Q421 757 380 757Q350 757 314 777Q283 795 258 795Q225 795 191 764Q188 761 185 762T182 766V827Q182 837 190 846Q222 880 262 880Z" horiz-adv-x="643" unicode="Ũ"/>
			<glyph d="M77 482H169Q179 482 179 472V194Q179 147 202 118T269 89Q310 89 334 118T359 193V472Q359 482 369 482H461Q471 482 471 472V10Q471 0 461 0H369Q359 0 359 10V45H358Q314 -11 233 -11Q157 -11 112 39T67 168V472Q67 482 77 482ZM213 684Q242 684 278 664Q310 646 336 646Q367 646 401 677Q404 680 407 679T410 675V614Q410 604 402 595Q370 561 329 561Q299 561 263 581Q232 599 205 599Q175 599 140 568Q137 565 134 566T131 570V631Q131 641 139 650Q171 684 213 684Z" horiz-adv-x="544" unicode="ũ"/>
			<glyph d="M81 680H179Q189 680 189 670V241Q189 172 225 133T321 95Q381 95 417 133T454 241V670Q454 680 464 680H562Q572 680 572 670V239Q572 123 501 56T321 -11Q211 -11 141 56T71 239V670Q71 680 81 680ZM190 863H453Q463 863 463 853V792Q463 782 453 782H190Q180 782 180 792V853Q180 863 190 863Z" horiz-adv-x="643" unicode="Ū"/>
			<glyph d="M77 482H169Q179 482 179 472V194Q179 147 202 118T269 89Q310 89 334 118T359 193V472Q359 482 369 482H461Q471 482 471 472V10Q471 0 461 0H369Q359 0 359 10V45H358Q314 -11 233 -11Q157 -11 112 39T67 168V472Q67 482 77 482ZM139 668H402Q412 668 412 658V597Q412 587 402 587H139Q129 587 129 597V658Q129 668 139 668Z" horiz-adv-x="544" unicode="ū"/>
			<glyph d="M81 680H179Q189 680 189 670V241Q189 172 225 133T321 95Q381 95 417 133T454 241V670Q454 680 464 680H562Q572 680 572 670V239Q572 123 501 56T321 -11Q211 -11 141 56T71 239V670Q71 680 81 680ZM185 886H234Q243 886 246 876Q261 830 321 830Q381 830 396 876Q399 886 408 886H457Q466 886 466 876Q462 822 423 788T321 754Q257 754 218 788T176 876Q176 886 185 886Z" horiz-adv-x="643" unicode="Ŭ"/>
			<glyph d="M77 482H169Q179 482 179 472V194Q179 147 202 118T269 89Q310 89 334 118T359 193V472Q359 482 369 482H461Q471 482 471 472V10Q471 0 461 0H369Q359 0 359 10V45H358Q314 -11 233 -11Q157 -11 112 39T67 168V472Q67 482 77 482ZM135 685H184Q193 685 196 675Q210 630 271 630Q332 630 346 675Q349 685 358 685H407Q416 685 416 675Q412 621 373 587T271 554Q208 554 169 587T126 675Q126 685 135 685Z" horiz-adv-x="544" unicode="ŭ"/>
			<glyph d="M81 680H179Q189 680 189 670V241Q189 172 225 133T321 95Q381 95 417 133T454 241V670Q454 680 464 680H562Q572 680 572 670V239Q572 123 501 56T321 -11Q211 -11 141 56T71 239V670Q71 680 81 680ZM321 920Q363 920 391 891T420 820Q420 778 391 749T321 721Q279 721 250 749T222 820Q222 862 250 891T321 920ZM321 871Q300 871 286 856T272 820Q272 799 286 784T321 769Q342 769 356 784T370 820Q370 841 356 856T321 871Z" horiz-adv-x="643" unicode="Ů"/>
			<glyph d="M77 482H169Q179 482 179 472V194Q179 147 202 118T269 89Q310 89 334 118T359 193V472Q359 482 369 482H461Q471 482 471 472V10Q471 0 461 0H369Q359 0 359 10V45H358Q314 -11 233 -11Q157 -11 112 39T67 168V472Q67 482 77 482ZM271 729Q313 729 341 700T370 629Q370 587 341 558T271 529Q229 529 200 558T172 629Q172 671 200 700T271 729ZM271 680Q250 680 236 665T222 629Q222 608 236 593T271 578Q292 578 306 593T320 629Q320 650 306 665T271 680Z" horiz-adv-x="544" unicode="ů"/>
			<glyph d="M81 680H179Q189 680 189 670V241Q189 172 225 133T321 95Q381 95 417 133T454 241V670Q454 680 464 680H562Q572 680 572 670V239Q572 123 501 56T321 -11Q211 -11 141 56T71 239V670Q71 680 81 680ZM438 890H516Q520 890 521 887T520 880L443 773Q436 763 424 763H361Q357 763 355 766T356 773L421 880Q427 890 438 890ZM280 890H358Q362 890 363 887T362 880L285 773Q278 763 266 763H203Q199 763 197 766T198 773L263 880Q269 890 280 890Z" horiz-adv-x="643" unicode="Ű"/>
			<glyph d="M77 482H169Q179 482 179 472V194Q179 147 202 118T269 89Q310 89 334 118T359 193V472Q359 482 369 482H461Q471 482 471 472V10Q471 0 461 0H369Q359 0 359 10V45H358Q314 -11 233 -11Q157 -11 112 39T67 168V472Q67 482 77 482ZM388 700H466Q470 700 471 697T471 690L394 565Q388 555 378 555H313Q302 555 307 565L372 690Q377 700 388 700ZM230 700H308Q312 700 313 697T313 690L236 565Q230 555 220 555H155Q144 555 149 565L214 690Q219 700 230 700Z" horiz-adv-x="544" unicode="ű"/>
			<glyph d="M81 680H179Q189 680 189 670V241Q189 172 225 133T321 95Q381 95 417 133T454 241V670Q454 680 464 680H562Q572 680 572 670V239Q572 141 520 77T385 -5Q328 -52 328 -83Q328 -94 334 -101T352 -109Q361 -109 377 -101Q386 -97 390 -105L414 -155Q419 -163 410 -168Q379 -190 333 -190Q290 -190 263 -167T237 -102Q237 -61 281 -9Q186 2 128 68T71 239V670Q71 680 81 680Z" horiz-adv-x="643" unicode="Ų"/>
			<glyph d="M77 482H169Q179 482 179 472V194Q179 147 202 118T269 89Q310 89 334 118T359 193V472Q359 482 369 482H461Q471 482 471 472V10Q471 3 466 0Q382 -50 382 -83Q382 -109 408 -109Q416 -109 432 -101Q441 -97 445 -105L469 -155Q474 -163 465 -168Q434 -190 387 -190Q344 -190 318 -167T292 -102Q292 -79 304 -54T361 3L359 10V45H358Q314 -11 233 -11Q157 -11 112 39T67 168V472Q67 482 77 482Z" horiz-adv-x="544" unicode="ų"/>
			<glyph d="M24 680H118Q128 680 130 670L238 212H240L367 670Q370 680 379 680H449Q458 680 461 670L591 212H593L698 670Q699 680 710 680H803Q813 680 811 670L645 10Q643 0 633 0H557Q548 0 545 10L415 475H413L282 10Q279 0 270 0H195Q186 0 183 10L16 670Q14 680 24 680ZM383 898H443Q454 898 461 888L559 763Q562 759 560 756T555 753H492Q481 753 471 763L414 822H412L355 763Q345 753 334 753H271Q267 753 265 756T267 763L365 888Q372 898 383 898Z" horiz-adv-x="827" unicode="Ŵ"/>
			<glyph d="M31 482H127Q137 482 140 472L233 154H235L327 472Q330 482 340 482H412Q422 482 425 472L523 154H525L613 472Q616 482 626 482H722Q732 482 729 472L577 10Q574 0 565 0H483Q474 0 471 10L378 318H376L282 10Q279 0 270 0H188Q179 0 176 10L24 472Q21 482 31 482ZM346 700H406Q417 700 424 690L522 565Q525 561 523 558T518 555H455Q444 555 434 565L377 624H375L318 565Q308 555 297 555H234Q230 555 228 558T230 565L328 690Q335 700 346 700Z" horiz-adv-x="753" unicode="ŵ"/>
			<glyph d="M20 680H121Q131 680 135 670L268 406H271L405 670Q409 680 419 680H516Q528 680 524 670L327 278V10Q327 0 317 0H219Q209 0 209 10V278L12 670Q11 674 13 677T20 680ZM237 898H297Q308 898 315 888L413 763Q416 759 414 756T409 753H346Q335 753 325 763L268 822H266L209 763Q199 753 188 753H125Q121 753 119 756T121 763L219 888Q226 898 237 898Z" horiz-adv-x="536" unicode="Ŷ"/>
			<glyph d="M26 482H125Q134 482 137 472L246 157H248L352 472Q355 482 364 482H459Q470 482 467 472L283 -30Q255 -105 221 -142T121 -180H90Q80 -180 80 -170V-90Q80 -80 90 -80H108Q129 -80 147 -70T180 -23L194 18L18 472Q15 482 26 482ZM216 700H276Q287 700 294 690L392 565Q395 561 393 558T388 555H325Q314 555 304 565L247 624H245L188 565Q178 555 167 555H104Q100 555 98 558T100 565L198 690Q205 700 216 700Z" horiz-adv-x="485" unicode="ŷ"/>
			<glyph d="M20 680H121Q131 680 135 670L268 406H271L405 670Q409 680 419 680H516Q528 680 524 670L327 278V10Q327 0 317 0H219Q209 0 209 10V278L12 670Q11 674 13 677T20 680ZM331 876H404Q414 876 414 866V779Q414 769 404 769H331Q321 769 321 779V866Q321 876 331 876ZM131 876H204Q214 876 214 866V779Q214 769 204 769H131Q121 769 121 779V866Q121 876 131 876Z" horiz-adv-x="536" unicode="Ÿ"/>
			<glyph d="M66 680H478Q488 680 488 670V584L485 574L178 108V106H478Q488 106 488 96V10Q488 0 478 0H55Q45 0 45 10V96L48 107L355 572V574H66Q56 574 56 584V670Q56 680 66 680ZM313 888H411Q415 888 417 884T416 878L299 769Q291 761 281 761H210Q206 761 204 764T206 771L294 878Q302 888 313 888Z" horiz-adv-x="532" unicode="Ź"/>
			<glyph d="M75 482H423Q433 482 433 472V394L430 384L187 100V98H423Q433 98 433 88V10Q433 0 423 0H62Q52 0 52 10V83L55 93L301 382V384H75Q65 384 65 394V472Q65 482 75 482ZM284 700H375Q379 700 381 696T380 690L285 565Q276 555 265 555H197Q186 555 191 565L266 690Q272 700 284 700Z" horiz-adv-x="485" unicode="ź"/>
			<glyph d="M66 680H478Q488 680 488 670V584L485 574L178 108V106H478Q488 106 488 96V10Q488 0 478 0H55Q45 0 45 10V96L48 107L355 572V574H66Q56 574 56 584V670Q56 680 66 680ZM219 876H312Q322 876 322 866V779Q322 769 312 769H219Q209 769 209 779V866Q209 876 219 876Z" horiz-adv-x="532" unicode="Ż"/>
			<glyph d="M75 482H423Q433 482 433 472V394L430 384L187 100V98H423Q433 98 433 88V10Q433 0 423 0H62Q52 0 52 10V83L55 93L301 382V384H75Q65 384 65 394V472Q65 482 75 482ZM199 680H292Q302 680 302 670V583Q302 573 292 573H199Q189 573 189 583V670Q189 680 199 680Z" horiz-adv-x="485" unicode="ż"/>
			<glyph d="M66 680H478Q488 680 488 670V584L485 574L178 108V106H478Q488 106 488 96V10Q488 0 478 0H55Q45 0 45 10V96L48 107L355 572V574H66Q56 574 56 584V670Q56 680 66 680ZM124 896H187Q198 896 208 886L265 827H267L324 886Q334 896 345 896H408Q412 896 413 893T412 886L314 761Q307 751 296 751H236Q225 751 218 761L120 886Q117 890 118 893T124 896Z" horiz-adv-x="532" unicode="Ž"/>
			<glyph d="M75 482H423Q433 482 433 472V394L430 384L187 100V98H423Q433 98 433 88V10Q433 0 423 0H62Q52 0 52 10V83L55 93L301 382V384H75Q65 384 65 394V472Q65 482 75 482ZM103 698H166Q177 698 187 688L244 629H246L303 688Q313 698 324 698H387Q391 698 392 695T391 688L293 563Q286 553 275 553H215Q204 553 197 563L99 688Q96 692 97 695T103 698Z" horiz-adv-x="485" unicode="ž"/>
			<glyph d="M431 680H461Q471 680 471 670V593Q471 583 461 583H441Q380 583 370 522L352 409H439Q449 409 449 399V334Q449 324 439 324H339L287 -18Q275 -95 239 -137T116 -180H88Q78 -180 78 -170V-93Q78 -83 88 -83H105Q140 -83 156 -70T179 -20L231 324H166Q156 324 156 334V399Q156 409 166 409H244L262 522Q275 604 314 642T431 680Z" unicode="ƒ"/>
			<glyph d="M291 691Q337 691 398 676T511 623Q518 617 513 609L465 535Q459 527 451 532Q370 585 288 585Q238 585 209 559T181 494Q181 420 306 402L342 397Q545 369 545 200Q545 106 478 47T289 -11Q218 -11 149 15T39 79Q31 87 37 94L99 166Q106 174 113 167Q204 95 298 95Q357 95 391 122T426 193Q426 270 302 287L266 292Q61 320 61 486Q61 578 124 634T291 691ZM251 -54H334Q344 -54 344 -64V-133Q344 -145 337 -152L266 -221Q259 -228 251 -228Q241 -228 241 -217V-64Q241 -54 251 -54Z" horiz-adv-x="587" unicode="Ș"/>
			<glyph d="M252 493Q358 493 433 434Q441 428 435 420L386 361Q380 354 372 359Q315 399 246 399Q212 399 192 385T173 349Q173 327 190 314T252 298L304 293Q369 287 411 253T453 152Q453 78 400 33T251 -11Q126 -11 44 65Q37 72 44 79L101 139Q108 146 115 139Q141 115 180 99T256 84Q298 84 321 100T345 141Q345 164 327 177T265 194L213 199Q140 206 102 242T65 341Q65 411 114 452T252 493ZM207 -54H290Q300 -54 300 -64V-133Q300 -145 293 -152L222 -221Q215 -228 207 -228Q197 -228 197 -217V-64Q197 -54 207 -54Z" horiz-adv-x="498" unicode="ș"/>
			<glyph d="M32 680H518Q528 680 528 670V584Q528 574 518 574H340Q334 574 334 568V10Q334 0 324 0H226Q216 0 216 10V568Q216 574 210 574H32Q22 574 22 584V670Q22 680 32 680ZM233 -54H316Q326 -54 326 -64V-133Q326 -145 319 -152L248 -221Q241 -228 233 -228Q223 -228 223 -217V-64Q223 -54 233 -54Z" horiz-adv-x="550" unicode="Ț"/>
			<glyph d="M90 630H182Q192 630 192 620V488Q192 482 198 482H262Q272 482 272 472V405Q272 395 262 395H198Q192 395 192 389V139Q192 121 200 107T237 94H262Q272 94 272 84V4Q272 -6 262 -6H214Q152 -6 116 24T80 135V389Q80 395 74 395H42Q32 395 32 405V472Q32 482 42 482H74Q80 482 80 488V620Q80 630 90 630ZM139 -54H222Q232 -54 232 -64V-133Q232 -145 225 -152L154 -221Q147 -228 139 -228Q129 -228 129 -217V-64Q129 -54 139 -54Z" horiz-adv-x="321" unicode="ț"/>
			<glyph d="M83 482H175Q185 482 185 472V-21Q185 -180 23 -180H-5Q-15 -180 -15 -170V-90Q-15 -80 -5 -80H17Q40 -80 56 -71T73 -23V472Q73 482 83 482Z" horiz-adv-x="258" unicode="ȷ"/>
			<glyph d="M181 700H241Q252 700 259 690L357 565Q360 561 358 558T353 555H290Q279 555 269 565L212 624H210L153 565Q143 555 132 555H69Q65 555 63 558T65 565L163 690Q170 700 181 700Z" horiz-adv-x="422" unicode="ˆ"/>
			<glyph d="M69 698H132Q143 698 153 688L210 629H212L269 688Q279 698 290 698H353Q357 698 358 695T357 688L259 563Q252 553 241 553H181Q170 553 163 563L65 688Q62 692 63 695T69 698Z" horiz-adv-x="422" unicode="ˇ"/>
			<glyph d="M79 863H342Q352 863 352 853V792Q352 782 342 782H79Q69 782 69 792V853Q69 863 79 863Z" horiz-adv-x="422" unicode="ˉ"/>
			<glyph d="M75 685H124Q133 685 136 675Q150 630 211 630Q272 630 286 675Q289 685 298 685H347Q356 685 356 675Q352 621 313 587T211 554Q148 554 109 587T66 675Q66 685 75 685Z" horiz-adv-x="422" unicode="˘"/>
			<glyph d="M164 680H257Q267 680 267 670V583Q267 573 257 573H164Q154 573 154 583V670Q154 680 164 680Z" horiz-adv-x="422" unicode="˙"/>
			<glyph d="M211 729Q253 729 281 700T310 629Q310 587 281 558T211 529Q169 529 140 558T112 629Q112 671 140 700T211 729ZM211 680Q190 680 176 665T162 629Q162 608 176 593T211 578Q232 578 246 593T260 629Q260 650 246 665T211 680Z" horiz-adv-x="422" unicode="˚"/>
			<glyph d="M195 10H276Q280 10 281 6T278 0Q195 -47 195 -83Q195 -94 201 -101T219 -109Q229 -109 244 -101Q253 -97 257 -105L281 -155Q286 -163 277 -168Q244 -190 200 -190Q157 -190 130 -167T104 -102Q104 -44 170 0Q184 10 195 10Z" horiz-adv-x="422" unicode="˛"/>
			<glyph d="M151 684Q180 684 216 664Q248 646 274 646Q305 646 339 677Q342 680 345 679T348 675V614Q348 604 340 595Q308 561 267 561Q237 561 201 581Q170 599 143 599Q113 599 78 568Q75 565 72 566T69 570V631Q69 641 77 650Q109 684 151 684Z" horiz-adv-x="422" unicode="˜"/>
			<glyph d="M294 700H372Q376 700 377 697T377 690L300 565Q294 555 284 555H219Q208 555 213 565L278 690Q283 700 294 700ZM136 700H214Q218 700 219 697T219 690L142 565Q136 555 126 555H61Q50 555 55 565L120 690Q125 700 136 700Z" horiz-adv-x="422" unicode="˝"/>
			<glyph d="M246 722H363Q367 722 369 719T368 711L220 479Q213 469 203 469H124Q111 469 118 483L230 711Q236 722 246 722Z" horiz-adv-x="484" unicode="ʹ"/>
			<glyph d="M282 64H361Q374 64 367 50L255 -178Q250 -189 239 -189H122Q120 -189 116 -187T117 -178L265 54Q273 64 282 64Z" horiz-adv-x="484" unicode="͵"/>
			<glyph d="M80 482H180Q190 482 190 472V370Q190 360 180 360H80Q70 360 70 370V472Q70 482 80 482ZM83 122H177Q187 122 187 112V3Q187 -10 181 -17L97 -104Q90 -111 83 -111Q73 -111 73 -101V112Q73 122 83 122Z" horiz-adv-x="260" unicode=";"/>
			<glyph d="M169 700H271Q281 700 276 690L210 565Q205 555 190 555H122Q113 555 116 565L149 684Q154 700 169 700Z" horiz-adv-x="392" unicode="΄"/>
			<glyph d="M385 675H462Q472 675 472 665V578Q472 568 462 568H385Q375 568 375 578V665Q375 675 385 675ZM75 675H152Q162 675 162 665V578Q162 568 152 568H75Q65 568 65 578V665Q65 675 75 675ZM247 700H339Q349 700 344 690L295 565Q290 555 275 555H212Q204 555 206 565L227 684Q230 700 247 700Z" horiz-adv-x="536" unicode="΅"/>
			<glyph d="M264 680H356Q366 680 369 670L599 10Q602 0 592 0H494Q484 0 481 10L436 142H180L135 10Q132 0 122 0H25Q15 0 18 10L251 670Q254 680 264 680ZM307 511L216 247H400L310 511ZM65 680H161Q171 680 166 670L100 545Q95 535 80 535H19Q10 535 13 545L45 664Q50 680 65 680Z" horiz-adv-x="617" unicode="Ά"/>
			<glyph d="M76 326H176Q186 326 186 316V214Q186 204 176 204H76Q66 204 66 214V316Q66 326 76 326Z" horiz-adv-x="252" unicode="·"/>
			<glyph d="M85 680H511Q521 680 521 670V584Q521 574 511 574H199Q193 574 193 568V402Q193 396 199 396H462Q472 396 472 386V300Q472 290 462 290H199Q193 290 193 284V112Q193 106 199 106H511Q521 106 521 96V10Q521 0 511 0H85Q75 0 75 10V670Q75 680 85 680ZM-104 680H-8Q2 680 -3 670L-69 545Q-74 535 -89 535H-150Q-159 535 -156 545L-124 664Q-119 680 -104 680Z" horiz-adv-x="570" unicode="Έ"/>
			<glyph d="M85 680H183Q193 680 193 670V402Q193 396 199 396H458Q464 396 464 402V670Q464 680 474 680H572Q582 680 582 670V10Q582 0 572 0H474Q464 0 464 10V284Q464 290 458 290H199Q193 290 193 284V10Q193 0 183 0H85Q75 0 75 10V670Q75 680 85 680ZM-104 680H-8Q2 680 -3 670L-69 545Q-74 535 -89 535H-150Q-159 535 -156 545L-124 664Q-119 680 -104 680Z" horiz-adv-x="657" unicode="Ή"/>
			<glyph d="M85 680H183Q193 680 193 670V10Q193 0 183 0H85Q75 0 75 10V670Q75 680 85 680ZM-104 680H-8Q2 680 -3 670L-69 545Q-74 535 -89 535H-150Q-159 535 -156 545L-124 664Q-119 680 -104 680Z" horiz-adv-x="268" unicode="Ί"/>
			<glyph d="M313 691Q402 691 465 649T554 527Q562 503 567 469T572 340Q572 291 570 244T554 153Q528 73 465 31T313 -11Q224 -11 161 31T73 153Q65 177 60 211T55 340Q55 389 56 436T73 527Q99 607 161 649T313 691ZM313 585Q218 585 187 496Q175 459 175 340Q175 222 187 184Q218 95 313 95Q409 95 440 184Q452 222 452 340Q452 459 440 496Q409 585 313 585ZM-61 680H35Q45 680 40 670L-26 545Q-31 535 -46 535H-107Q-116 535 -113 545L-81 664Q-76 680 -61 680Z" horiz-adv-x="627" unicode="Ό"/>
			<glyph d="M20 680H121Q131 680 135 670L268 406H271L405 670Q409 680 419 680H516Q528 680 524 670L327 278V10Q327 0 317 0H219Q209 0 209 10V278L12 670Q11 674 13 677T20 680ZM-132 680H-36Q-26 680 -31 670L-97 545Q-102 535 -117 535H-178Q-187 535 -184 545L-152 664Q-147 680 -132 680Z" horiz-adv-x="536" unicode="Ύ"/>
			<glyph d="M317 691Q406 691 470 648T561 524Q572 491 576 453T580 340Q580 252 565 197T505 108V106H571Q581 106 581 96V10Q581 0 571 0H369Q359 0 359 10V95Q359 105 369 108Q410 120 435 171T460 340Q460 452 446 496Q433 538 399 561T317 585Q269 585 235 561T188 496Q174 452 174 340Q174 248 193 186T265 108Q275 105 275 95V10Q275 0 265 0H63Q53 0 53 10V96Q53 106 63 106H129V108Q91 137 72 187T54 340Q54 388 56 432T73 524Q99 606 163 648T317 691ZM-61 680H35Q45 680 40 670L-26 545Q-31 535 -46 535H-107Q-116 535 -113 545L-81 664Q-76 680 -61 680Z" horiz-adv-x="634" unicode="Ώ"/>
			<glyph d="M77 482H169Q179 482 179 472V145Q179 122 187 105T224 89Q241 89 263 95Q271 98 273 90L293 20Q295 13 288 9Q253 -11 190 -11Q67 -11 67 115V472Q67 482 77 482ZM263 675H340Q350 675 350 665V578Q350 568 340 568H263Q253 568 253 578V665Q253 675 263 675ZM-47 675H30Q40 675 40 665V578Q40 568 30 568H-47Q-57 568 -57 578V665Q-57 675 -47 675ZM125 700H217Q227 700 222 690L173 565Q168 555 153 555H90Q82 555 84 565L105 684Q108 700 125 700Z" horiz-adv-x="308" unicode="ΐ"/>
			<glyph d="M264 680H356Q366 680 369 670L599 10Q602 0 592 0H494Q484 0 481 10L436 142H180L135 10Q132 0 122 0H25Q15 0 18 10L251 670Q254 680 264 680ZM307 511L216 247H400L310 511Z" horiz-adv-x="617" unicode="Α"/>
			<glyph d="M85 680H338Q443 680 496 631T550 499Q550 397 471 355V353Q506 340 534 298T562 200Q562 101 501 50T328 0H85Q75 0 75 10V670Q75 680 85 680ZM199 576Q193 576 193 570V403Q193 397 199 397H335Q379 397 405 422T432 486Q432 526 405 551T335 576ZM199 293Q193 293 193 287V110Q193 104 199 104H341Q389 104 416 130T444 199Q444 241 416 267T341 293Z" horiz-adv-x="607" unicode="Β"/>
			<glyph d="M84 680H489Q499 680 499 670V584Q499 574 489 574H198Q192 574 192 568V10Q192 0 182 0H84Q74 0 74 10V670Q74 680 84 680Z" horiz-adv-x="525" unicode="Γ"/>
			<glyph d="M268 680H360Q370 680 373 670L603 10Q606 0 595 0H30Q19 0 22 10L255 670Q258 680 268 680ZM311 511L169 101Q168 95 174 95H450Q457 95 455 101L314 511Z" horiz-adv-x="625" unicode="Δ"/>
			<glyph d="M85 680H511Q521 680 521 670V584Q521 574 511 574H199Q193 574 193 568V402Q193 396 199 396H462Q472 396 472 386V300Q472 290 462 290H199Q193 290 193 284V112Q193 106 199 106H511Q521 106 521 96V10Q521 0 511 0H85Q75 0 75 10V670Q75 680 85 680Z" horiz-adv-x="570" unicode="Ε"/>
			<glyph d="M66 680H478Q488 680 488 670V584L485 574L178 108V106H478Q488 106 488 96V10Q488 0 478 0H55Q45 0 45 10V96L48 107L355 572V574H66Q56 574 56 584V670Q56 680 66 680Z" horiz-adv-x="532" unicode="Ζ"/>
			<glyph d="M85 680H183Q193 680 193 670V402Q193 396 199 396H458Q464 396 464 402V670Q464 680 474 680H572Q582 680 582 670V10Q582 0 572 0H474Q464 0 464 10V284Q464 290 458 290H199Q193 290 193 284V10Q193 0 183 0H85Q75 0 75 10V670Q75 680 85 680Z" horiz-adv-x="657" unicode="Η"/>
			<glyph d="M322 587Q235 587 198 518Q175 475 175 340Q175 201 199 157Q233 93 322 93Q411 93 449 165Q469 201 469 340Q469 475 446 518Q409 587 322 587ZM237 388H407Q417 388 417 378V302Q417 292 407 292H237Q227 292 227 302V378Q227 388 237 388ZM322 691Q474 691 544 581Q589 511 589 340Q589 249 580 194T544 99Q474 -11 321 -11Q248 -11 192 16T106 90Q79 131 67 182T55 340Q55 511 100 581Q170 691 322 691Z" horiz-adv-x="644" unicode="Θ"/>
			<glyph d="M85 680H183Q193 680 193 670V10Q193 0 183 0H85Q75 0 75 10V670Q75 680 85 680Z" horiz-adv-x="268" unicode="Ι"/>
			<glyph d="M85 680H183Q193 680 193 670V350L450 672Q457 680 466 680H580Q584 680 585 675T584 667L373 413L608 12Q611 7 609 3T601 0H490Q480 0 475 8L297 322L193 196V10Q193 0 183 0H85Q75 0 75 10V670Q75 680 85 680Z" horiz-adv-x="633" unicode="Κ"/>
			<glyph d="M264 680H356Q366 680 369 670L599 10Q602 0 592 0H494Q484 0 481 10L310 511H307L135 10Q132 0 122 0H25Q15 0 18 10L251 670Q254 680 264 680Z" horiz-adv-x="617" unicode="Λ"/>
			<glyph d="M85 680H174Q187 680 191 670L378 251H382L566 670Q570 680 583 680H671Q681 680 681 670V10Q681 0 671 0H584Q574 0 574 10V426H570L426 106Q420 93 407 93H349Q336 93 330 106L186 426H182V10Q182 0 172 0H85Q75 0 75 10V670Q75 680 85 680Z" horiz-adv-x="756" unicode="Μ"/>
			<glyph d="M85 680H177Q188 680 194 670L471 201H475V670Q475 680 485 680H572Q582 680 582 670V10Q582 0 572 0H481Q470 0 464 10L186 478H182V10Q182 0 172 0H85Q75 0 75 10V670Q75 680 85 680Z" horiz-adv-x="657" unicode="Ν"/>
			<glyph d="M55 106H494Q504 106 504 96V10Q504 0 494 0H55Q45 0 45 10V96Q45 106 55 106ZM103 396H446Q456 396 456 386V300Q456 290 446 290H103Q93 290 93 300V386Q93 396 103 396ZM55 680H494Q504 680 504 670V584Q504 574 494 574H55Q45 574 45 584V670Q45 680 55 680Z" unicode="Ξ"/>
			<glyph d="M313 691Q402 691 465 649T554 527Q562 503 567 469T572 340Q572 291 570 244T554 153Q528 73 465 31T313 -11Q224 -11 161 31T73 153Q65 177 60 211T55 340Q55 389 56 436T73 527Q99 607 161 649T313 691ZM313 585Q218 585 187 496Q175 459 175 340Q175 222 187 184Q218 95 313 95Q409 95 440 184Q452 222 452 340Q452 459 440 496Q409 585 313 585Z" horiz-adv-x="627" unicode="Ο"/>
			<glyph d="M85 680H562Q572 680 572 670V10Q572 0 562 0H464Q454 0 454 10V570Q454 576 448 576H199Q193 576 193 570V10Q193 0 183 0H85Q75 0 75 10V670Q75 680 85 680Z" horiz-adv-x="647" unicode="Π"/>
			<glyph d="M85 680H340Q439 680 501 621T564 469Q564 374 501 315T340 257H199Q193 257 193 251V10Q193 0 183 0H85Q75 0 75 10V670Q75 680 85 680ZM199 574Q193 574 193 568V370Q193 364 199 364H333Q384 364 415 393T446 469Q446 515 415 544T333 574Z" horiz-adv-x="598" unicode="Ρ"/>
			<glyph d="M61 680H473Q483 680 483 670V585Q483 575 473 575H191V573L330 353Q335 348 331 342L178 108V106H478Q488 106 488 96V10Q488 0 478 0H55Q45 0 45 10V94L50 106L201 336L55 568L51 580V670Q51 680 61 680Z" horiz-adv-x="532" unicode="Σ"/>
			<glyph d="M32 680H518Q528 680 528 670V584Q528 574 518 574H340Q334 574 334 568V10Q334 0 324 0H226Q216 0 216 10V568Q216 574 210 574H32Q22 574 22 584V670Q22 680 32 680Z" horiz-adv-x="550" unicode="Τ"/>
			<glyph d="M20 680H121Q131 680 135 670L268 406H271L405 670Q409 680 419 680H516Q528 680 524 670L327 278V10Q327 0 317 0H219Q209 0 209 10V278L12 670Q11 674 13 677T20 680Z" horiz-adv-x="536" unicode="Υ"/>
			<glyph d="M318 543Q248 540 207 497T167 347Q167 257 199 206T318 151ZM328 709H423Q433 709 433 699V653Q706 640 706 347Q706 54 433 41V-19Q433 -29 423 -29H328Q318 -29 318 -19V41Q45 54 45 347Q45 640 318 653V699Q318 709 328 709ZM433 543V151Q509 155 546 200T584 347Q584 442 548 490T433 543Z" horiz-adv-x="751" unicode="Φ"/>
			<glyph d="M38 680H146Q156 680 162 670L285 464H287L410 670Q416 680 426 680H534Q539 680 541 676T540 667L352 352L555 13Q558 8 556 4T549 0H440Q430 0 424 10L287 241H285L147 10Q141 0 131 0H23Q18 0 16 4T17 13L220 352L32 667Q29 672 31 676T38 680Z" horiz-adv-x="572" unicode="Χ"/>
			<glyph d="M71 680H164Q175 680 175 670V350Q175 276 201 240T306 204V670Q306 680 316 680H411Q421 680 421 670V204Q493 206 522 237T552 350V670Q552 680 562 680H656Q667 680 667 670V352Q667 227 611 164T421 97V10Q421 0 411 0H316Q306 0 306 10V97Q184 101 122 158T60 352V670Q60 680 71 680Z" horiz-adv-x="727" unicode="Ψ"/>
			<glyph d="M317 691Q406 691 470 648T561 524Q572 491 576 453T580 340Q580 252 565 197T505 108V106H571Q581 106 581 96V10Q581 0 571 0H369Q359 0 359 10V95Q359 105 369 108Q410 120 435 171T460 340Q460 452 446 496Q433 538 399 561T317 585Q269 585 235 561T188 496Q174 452 174 340Q174 248 193 186T265 108Q275 105 275 95V10Q275 0 265 0H63Q53 0 53 10V96Q53 106 63 106H129V108Q91 137 72 187T54 340Q54 388 56 432T73 524Q99 606 163 648T317 691Z" horiz-adv-x="634" unicode="Ω"/>
			<glyph d="M85 680H183Q193 680 193 670V10Q193 0 183 0H85Q75 0 75 10V670Q75 680 85 680ZM198 876H271Q281 876 281 866V779Q281 769 271 769H198Q188 769 188 779V866Q188 876 198 876ZM-2 876H71Q81 876 81 866V779Q81 769 71 769H-2Q-12 769 -12 779V866Q-12 876 -2 876Z" horiz-adv-x="268" unicode="Ϊ"/>
			<glyph d="M20 680H121Q131 680 135 670L268 406H271L405 670Q409 680 419 680H516Q528 680 524 670L327 278V10Q327 0 317 0H219Q209 0 209 10V278L12 670Q11 674 13 677T20 680ZM332 876H405Q415 876 415 866V779Q415 769 405 769H332Q322 769 322 779V866Q322 876 332 876ZM132 876H205Q215 876 215 866V779Q215 769 205 769H132Q122 769 122 779V866Q122 876 132 876Z" horiz-adv-x="536" unicode="Ϋ"/>
			<glyph d="M236 493Q301 493 338 467T396 388H397Q416 436 422 473Q423 482 433 482H517Q530 482 527 465Q512 363 448 218L456 182Q465 142 478 118T532 94H537Q549 94 549 83V4Q549 -6 539 -6H522Q474 -6 440 6T390 67L386 80H385Q361 34 325 11T231 -11Q47 -11 47 241Q47 493 236 493ZM251 393Q205 393 183 359T161 241Q161 160 181 124T252 89Q299 89 324 128T350 243Q350 317 324 355T251 393ZM279 700H381Q391 700 386 690L320 565Q315 555 300 555H232Q223 555 226 565L259 684Q264 700 279 700Z" horiz-adv-x="579" unicode="ά"/>
			<glyph d="M268 493Q352 493 410 472Q422 467 418 455L393 385Q391 377 378 381Q320 398 266 398Q219 398 198 384T178 341Q178 291 268 291H333Q347 291 347 277V215Q347 204 334 204H240Q166 204 166 148Q166 122 184 105T266 89Q325 89 397 112Q405 115 408 113T412 108L437 34Q439 27 430 22Q359 -11 255 -11Q155 -11 100 25T45 128Q45 172 68 204T130 252V253Q65 284 65 356Q65 418 116 455T268 493ZM264 700H366Q376 700 371 690L305 565Q300 555 285 555H217Q208 555 211 565L244 684Q249 700 264 700Z" horiz-adv-x="478" unicode="έ"/>
			<glyph d="M321 493Q394 493 441 445T489 312V-170Q489 -180 479 -180H387Q377 -180 377 -170V286Q377 338 352 365T285 393Q245 393 218 365T191 289V10Q191 0 181 0H89Q79 0 79 10V345Q79 387 51 387Q40 387 40 397V477Q40 487 51 487Q105 487 136 474T179 416H181Q215 493 321 493ZM251 700H353Q363 700 358 690L292 565Q287 555 272 555H204Q195 555 198 565L231 684Q236 700 251 700Z" horiz-adv-x="557" unicode="ή"/>
			<glyph d="M77 482H169Q179 482 179 472V145Q179 122 187 105T224 89Q241 89 263 95Q271 98 273 90L293 20Q295 13 288 9Q253 -11 190 -11Q67 -11 67 115V472Q67 482 77 482ZM132 700H234Q244 700 239 690L173 565Q168 555 153 555H85Q76 555 79 565L112 684Q117 700 132 700Z" horiz-adv-x="308" unicode="ί"/>
			<glyph d="M40 487H67Q129 487 155 466T181 381V187Q181 139 207 114T274 89Q318 89 343 116T368 186V472Q368 482 378 482H470Q480 482 480 472V193Q480 -11 274 -11Q69 -11 69 193V347Q69 363 64 375T40 387Q30 387 30 397V477Q30 487 40 487ZM377 675H454Q464 675 464 665V578Q464 568 454 568H377Q367 568 367 578V665Q367 675 377 675ZM67 675H144Q154 675 154 665V578Q154 568 144 568H67Q57 568 57 578V665Q57 675 67 675ZM239 700H331Q341 700 336 690L287 565Q282 555 267 555H204Q196 555 198 565L219 684Q222 700 239 700Z" horiz-adv-x="525" unicode="ΰ"/>
			<glyph d="M236 493Q301 493 338 467T396 388H397Q416 436 422 473Q423 482 433 482H517Q530 482 527 465Q512 363 448 218L456 182Q465 142 478 118T532 94H537Q549 94 549 83V4Q549 -6 539 -6H522Q474 -6 440 6T390 67L386 80H385Q361 34 325 11T231 -11Q47 -11 47 241Q47 493 236 493ZM251 393Q205 393 183 359T161 241Q161 160 181 124T252 89Q299 89 324 128T350 243Q350 317 324 355T251 393Z" horiz-adv-x="579" unicode="α"/>
			<glyph d="M284 691Q376 691 429 645T482 519Q482 478 462 441T408 385V383Q466 366 495 315T524 203Q524 106 470 47T316 -11Q282 -11 249 -3T185 34H184V-170Q184 -180 174 -180H82Q72 -180 72 -170V452Q72 562 124 626T284 691ZM284 595Q184 595 184 469V210Q184 154 206 121T294 89Q344 89 373 119T402 204Q402 319 290 319H256Q246 319 246 329V406Q246 416 256 416H290Q323 416 348 437T373 507Q373 546 350 570T284 595Z" horiz-adv-x="569" unicode="β"/>
			<glyph d="M41 487H52Q99 487 131 474T189 387L279 125H281L326 241Q373 363 376 472Q376 482 387 482H477Q486 482 486 472Q486 359 402 158L331 -13L335 -159Q335 -169 325 -169H229Q219 -169 219 -159L223 -11L92 333Q82 358 73 372T44 387Q30 387 30 397V476Q30 487 41 487Z" horiz-adv-x="531" unicode="γ"/>
			<glyph d="M279 691Q364 691 434 662Q443 658 441 652L409 571Q405 563 395 567Q335 590 288 590Q243 590 243 551Q243 539 251 527T297 494L317 482Q402 431 440 371T478 222Q478 120 422 54T259 -11Q162 -11 103 51T45 219Q45 386 187 445V446L168 462Q119 503 119 563Q119 616 157 653T279 691ZM272 388Q217 375 188 331T159 224Q159 163 184 126T262 89Q312 89 338 124T364 225Q364 332 272 388Z" horiz-adv-x="525" unicode="δ"/>
			<glyph d="M268 493Q352 493 410 472Q422 467 418 455L393 385Q391 377 378 381Q320 398 266 398Q219 398 198 384T178 341Q178 291 268 291H333Q347 291 347 277V215Q347 204 334 204H240Q166 204 166 148Q166 122 184 105T266 89Q325 89 397 112Q405 115 408 113T412 108L437 34Q439 27 430 22Q359 -11 255 -11Q155 -11 100 25T45 128Q45 172 68 204T130 252V253Q65 284 65 356Q65 418 116 455T268 493Z" horiz-adv-x="478" unicode="ε"/>
			<glyph d="M85 680H406Q416 680 416 670V606Q293 527 226 435T159 250Q159 191 180 160T254 113L283 104Q350 83 376 54T403 -19Q403 -122 267 -173Q259 -176 256 -169L225 -109Q222 -103 230 -98Q268 -78 282 -65T296 -35Q296 -22 288 -11T245 11L218 19Q129 45 87 94T45 229Q45 315 92 408T233 579V580H85Q75 580 75 590V670Q75 680 85 680Z" horiz-adv-x="430" unicode="ζ"/>
			<glyph d="M321 493Q394 493 441 445T489 312V-170Q489 -180 479 -180H387Q377 -180 377 -170V286Q377 338 352 365T285 393Q245 393 218 365T191 289V10Q191 0 181 0H89Q79 0 79 10V345Q79 387 51 387Q40 387 40 397V477Q40 487 51 487Q105 487 136 474T179 416H181Q215 493 321 493Z" horiz-adv-x="557" unicode="η"/>
			<glyph d="M271 691Q491 691 491 344Q491 216 472 143T405 29T271 -11Q220 -11 170 9T86 99T52 340Q52 520 106 605T271 691ZM271 591Q214 591 190 546T163 388H380Q378 488 355 539T271 591ZM163 295Q165 176 186 132T271 89Q327 89 352 126T380 295Z" horiz-adv-x="543" unicode="θ"/>
			<glyph d="M77 482H169Q179 482 179 472V145Q179 122 187 105T224 89Q241 89 263 95Q271 98 273 90L293 20Q295 13 288 9Q253 -11 190 -11Q67 -11 67 115V472Q67 482 77 482Z" horiz-adv-x="308" unicode="ι"/>
			<glyph d="M463 487H475Q485 487 485 477V398Q485 387 474 387H462Q436 387 420 380T374 331L334 275L511 10Q514 6 511 3T505 0H402Q393 0 387 10L263 198L185 96V10Q185 0 175 0H83Q73 0 73 10V472Q73 482 83 482H175Q185 482 185 472V245L296 392Q332 439 365 463T463 487Z" horiz-adv-x="545" unicode="κ"/>
			<glyph d="M101 680H115Q197 680 227 648T289 534L437 147Q451 113 457 103T485 94H499Q507 94 507 86V3Q507 -6 499 -6H462Q421 -6 393 7T347 72L258 305H256L137 8Q132 0 125 0H25Q16 0 22 12L210 440L179 524Q169 552 157 566T112 580H101Q94 580 94 588V672Q94 680 101 680Z" horiz-adv-x="525" unicode="λ"/>
			<glyph d="M83 482H175Q185 482 185 472V193Q185 146 208 117T275 89Q317 89 342 118T368 193V472Q368 482 378 482H470Q480 482 480 472V139Q480 112 485 103T509 94Q519 94 519 84V4Q519 -6 509 -6H484Q448 -6 419 4T379 56H378Q364 31 335 10T260 -11Q208 -11 187 19H185V-170Q185 -180 175 -180H83Q73 -180 73 -170V472Q73 482 83 482Z" horiz-adv-x="579" unicode="μ"/>
			<glyph d="M20 482H115Q126 482 129 472L242 129H244L277 223Q331 375 333 472Q333 482 343 482H438Q447 482 447 472Q447 366 367 170L301 10Q297 0 290 0H195Q186 0 183 10L13 472Q10 482 20 482Z" horiz-adv-x="492" unicode="ν"/>
			<glyph d="M75 680H414Q424 680 424 670V592L342 589Q267 585 229 562T192 490Q192 425 308 425H364Q374 425 374 415V331Q374 321 365 321H292Q229 321 192 289T155 207Q155 178 172 157T264 113L290 105Q344 89 378 62T413 -18Q413 -121 277 -173Q270 -176 266 -169L236 -111Q232 -102 240 -98Q270 -82 288 -68T306 -34Q306 -4 264 8L218 22Q125 50 85 88T46 193Q46 248 77 298T168 370V371Q85 403 85 479Q85 511 102 540T147 579V580H75Q65 580 65 590V670Q65 680 75 680Z" horiz-adv-x="444" unicode="ξ"/>
			<glyph d="M262 493Q334 493 387 457T460 360Q476 311 476 241Q476 171 460 122Q440 60 387 24T262 -11Q190 -11 136 24T63 122Q47 171 47 241Q47 311 63 360Q83 422 136 457T262 493ZM262 393Q193 393 171 330Q161 298 161 241Q161 183 171 152Q193 89 262 89Q330 89 352 152Q362 183 362 241Q362 298 352 330Q330 393 262 393Z" horiz-adv-x="523" unicode="ο"/>
			<glyph d="M40 482H543Q553 482 553 472V392Q553 382 543 382H488Q482 382 482 376V134Q482 94 515 94H531Q541 94 541 84V4Q541 -6 531 -6H497Q438 -6 404 23T370 131V376Q370 382 364 382H215Q209 382 209 376V10Q209 0 199 0H107Q97 0 97 10V376Q97 382 91 382H40Q30 382 30 392V472Q30 482 40 482Z" horiz-adv-x="593" unicode="π"/>
			<glyph d="M263 493Q312 493 359 475T435 417Q480 358 480 241Q480 117 429 53T284 -11Q244 -11 211 1T163 35H162V-170Q162 -180 152 -180H60Q50 -180 50 -170V255Q50 316 69 367T136 456T263 493ZM267 393Q195 393 174 327Q165 300 165 241Q165 182 174 156Q195 89 267 89Q336 89 357 155Q366 184 366 241Q366 298 356 329Q335 393 267 393Z" horiz-adv-x="526" unicode="ρ"/>
			<glyph d="M266 493Q357 493 415 461Q424 457 420 447L389 371Q385 360 374 365Q321 390 269 390Q216 390 188 357T161 266Q161 225 179 195T273 130Q329 104 361 74T393 -15Q393 -122 257 -173Q250 -176 246 -169L215 -109Q211 -102 220 -98Q258 -78 272 -65T286 -32Q286 -11 275 1T227 31Q135 73 90 124T46 256Q46 332 72 384T147 465T266 493Z" horiz-adv-x="437" unicode="ς"/>
			<glyph d="M299 482H511Q521 482 521 472V398Q521 388 511 388H420V387Q474 333 474 237Q474 142 442 85Q418 42 371 15T261 -11Q186 -11 133 25T61 122Q45 170 45 233Q45 482 299 482ZM293 387Q231 387 195 354T159 226Q159 164 178 133Q204 89 262 89Q328 89 350 152Q360 181 360 246Q360 343 320 387Z" horiz-adv-x="551" unicode="σ"/>
			<glyph d="M30 482H402Q412 482 412 472V392Q412 382 402 382H271Q265 382 265 376V140Q265 89 311 89Q330 89 349 95Q359 97 361 90L381 19Q383 12 375 8Q337 -11 271 -11Q153 -11 153 121V376Q153 382 147 382H30Q20 382 20 392V472Q20 482 30 482Z" horiz-adv-x="442" unicode="τ"/>
			<glyph d="M40 487H67Q129 487 155 466T181 381V187Q181 139 207 114T274 89Q318 89 343 116T368 186V472Q368 482 378 482H470Q480 482 480 472V193Q480 -11 274 -11Q69 -11 69 193V347Q69 363 64 375T40 387Q30 387 30 397V477Q30 487 40 487Z" horiz-adv-x="525" unicode="υ"/>
			<glyph d="M281 401Q213 397 184 361T155 241Q155 161 181 123T281 81ZM291 600H373Q383 600 383 590V497Q503 490 562 424T621 241Q621 123 561 57T383 -15V-170Q383 -180 373 -180H291Q281 -180 281 -170V-15Q160 -8 101 58T43 241Q43 366 106 428T281 497V590Q281 600 291 600ZM383 401V81Q451 85 480 120T509 241Q509 321 482 359T383 401Z" horiz-adv-x="664" unicode="φ"/>
			<glyph d="M30 487H46Q93 487 127 473T200 391L269 264L377 474Q383 482 390 482H490Q492 482 496 480T495 472L325 160L442 -45Q454 -66 465 -76T499 -86H505Q514 -86 514 -96V-175Q514 -186 507 -186H490Q440 -186 410 -170T348 -98L256 62L133 -168Q128 -180 120 -180H20Q12 -180 18 -168L201 162L98 341Q86 362 73 374T42 387H31Q18 387 18 397V477Q18 487 30 487Z" horiz-adv-x="526" unicode="χ"/>
			<glyph d="M299 610H384Q394 610 394 600V83Q452 86 475 106T499 204V472Q499 482 509 482H601Q611 482 611 472V214Q611 97 559 43T394 -17V-170Q394 -180 384 -180H299Q289 -180 289 -170V-17Q174 -9 123 43T72 214V347Q72 364 67 375T44 387Q33 387 33 397V477Q33 487 44 487H81Q130 487 157 466T184 385V197Q184 141 202 114T289 83V600Q289 610 299 610Z" horiz-adv-x="659" unicode="ψ"/>
			<glyph d="M154 487L230 448Q239 444 233 434Q164 338 164 206Q164 89 226 89Q259 89 277 117T295 219V315Q295 328 306 328H396Q407 328 407 315V219Q407 149 424 119T476 89Q538 89 538 206Q538 338 470 434Q464 443 473 448L549 487Q558 492 567 482Q604 439 628 364T652 207Q652 -11 489 -11Q388 -11 352 83H350Q312 -11 213 -11Q50 -11 50 205Q50 289 73 362T136 482Q143 491 154 487Z" horiz-adv-x="702" unicode="ω"/>
			<glyph d="M77 482H169Q179 482 179 472V145Q179 122 187 105T224 89Q241 89 263 95Q271 98 273 90L293 20Q295 13 288 9Q253 -11 190 -11Q67 -11 67 115V472Q67 482 77 482ZM185 680H262Q272 680 272 670V583Q272 573 262 573H185Q175 573 175 583V670Q175 680 185 680ZM-11 680H66Q76 680 76 670V583Q76 573 66 573H-11Q-21 573 -21 583V670Q-21 680 -11 680Z" horiz-adv-x="308" unicode="ϊ"/>
			<glyph d="M40 487H67Q129 487 155 466T181 381V187Q181 139 207 114T274 89Q318 89 343 116T368 186V472Q368 482 378 482H470Q480 482 480 472V193Q480 -11 274 -11Q69 -11 69 193V347Q69 363 64 375T40 387Q30 387 30 397V477Q30 487 40 487ZM338 680H415Q425 680 425 670V583Q425 573 415 573H338Q328 573 328 583V670Q328 680 338 680ZM142 680H219Q229 680 229 670V583Q229 573 219 573H142Q132 573 132 583V670Q132 680 142 680Z" horiz-adv-x="525" unicode="ϋ"/>
			<glyph d="M262 493Q334 493 387 457T460 360Q476 311 476 241Q476 171 460 122Q440 60 387 24T262 -11Q190 -11 136 24T63 122Q47 171 47 241Q47 311 63 360Q83 422 136 457T262 493ZM262 393Q193 393 171 330Q161 298 161 241Q161 183 171 152Q193 89 262 89Q330 89 352 152Q362 183 362 241Q362 298 352 330Q330 393 262 393ZM266 700H368Q378 700 373 690L307 565Q302 555 287 555H219Q210 555 213 565L246 684Q251 700 266 700Z" horiz-adv-x="523" unicode="ό"/>
			<glyph d="M40 487H67Q129 487 155 466T181 381V187Q181 139 207 114T274 89Q318 89 343 116T368 186V472Q368 482 378 482H470Q480 482 480 472V193Q480 -11 274 -11Q69 -11 69 193V347Q69 363 64 375T40 387Q30 387 30 397V477Q30 487 40 487ZM271 700H373Q383 700 378 690L312 565Q307 555 292 555H224Q215 555 218 565L251 684Q256 700 271 700Z" horiz-adv-x="525" unicode="ύ"/>
			<glyph d="M154 487L230 448Q239 444 233 434Q164 338 164 206Q164 89 226 89Q259 89 277 117T295 219V315Q295 328 306 328H396Q407 328 407 315V219Q407 149 424 119T476 89Q538 89 538 206Q538 338 470 434Q464 443 473 448L549 487Q558 492 567 482Q604 439 628 364T652 207Q652 -11 489 -11Q388 -11 352 83H350Q312 -11 213 -11Q50 -11 50 205Q50 289 73 362T136 482Q143 491 154 487ZM350 700H452Q462 700 457 690L391 565Q386 555 371 555H303Q294 555 297 565L330 684Q335 700 350 700Z" horiz-adv-x="702" unicode="ώ"/>
			<glyph d="M85 680H511Q521 680 521 670V584Q521 574 511 574H199Q193 574 193 568V402Q193 396 199 396H462Q472 396 472 386V300Q472 290 462 290H199Q193 290 193 284V112Q193 106 199 106H511Q521 106 521 96V10Q521 0 511 0H85Q75 0 75 10V670Q75 680 85 680ZM152 888H250Q261 888 269 878L358 771Q361 767 359 764T354 761H282Q272 761 264 769L148 878Q145 881 146 884T152 888Z" horiz-adv-x="570" unicode="Ѐ"/>
			<glyph d="M85 680H511Q521 680 521 670V584Q521 574 511 574H199Q193 574 193 568V402Q193 396 199 396H462Q472 396 472 386V300Q472 290 462 290H199Q193 290 193 284V112Q193 106 199 106H511Q521 106 521 96V10Q521 0 511 0H85Q75 0 75 10V670Q75 680 85 680ZM360 876H433Q443 876 443 866V779Q443 769 433 769H360Q350 769 350 779V866Q350 876 360 876ZM160 876H233Q243 876 243 866V779Q243 769 233 769H160Q150 769 150 779V866Q150 876 160 876Z" horiz-adv-x="570" unicode="Ё"/>
			<glyph d="M32 680H524Q534 680 534 670V584Q534 574 524 574H343Q337 574 337 568V402Q337 394 345 396Q431 421 510 421Q595 421 652 370T710 219Q710 115 650 57T474 0H443Q435 0 435 10V96Q435 106 445 106H471Q592 106 592 212Q592 263 560 289T477 315Q411 315 345 289Q337 286 337 277V10Q337 0 327 0H229Q219 0 219 10V568Q219 574 214 574H32Q22 574 22 584V670Q22 680 32 680Z" horiz-adv-x="746" unicode="Ђ"/>
			<glyph d="M85 680H475Q485 680 485 670V583Q485 574 475 574H199Q193 574 193 568V10Q193 0 183 0H85Q75 0 75 10V670Q75 680 85 680ZM330 888H428Q432 888 434 884T433 878L316 769Q308 761 298 761H227Q223 761 221 764T223 771L311 878Q319 888 330 888Z" horiz-adv-x="500" unicode="Ѓ"/>
			<glyph d="M314 691Q393 691 450 656T537 555Q540 545 533 541L452 503Q444 499 439 508Q399 587 316 587Q216 587 187 500Q175 465 174 403Q174 396 181 396H383Q392 396 392 387V301Q392 292 383 292H181Q174 292 174 285Q175 209 192 169Q222 93 316 93Q399 93 439 172Q444 182 453 177L533 139Q542 135 537 125Q509 62 450 25T314 -11Q232 -11 172 24T83 129Q71 158 63 200T55 343Q55 470 75 530Q98 601 157 646T314 691Z" horiz-adv-x="574" unicode="Є"/>
			<glyph d="M291 691Q337 691 398 676T511 623Q518 617 513 609L465 535Q459 527 451 532Q370 585 288 585Q238 585 209 559T181 494Q181 420 306 402L342 397Q545 369 545 200Q545 106 478 47T289 -11Q218 -11 149 15T39 79Q31 87 37 94L99 166Q106 174 113 167Q204 95 298 95Q357 95 391 122T426 193Q426 270 302 287L266 292Q61 320 61 486Q61 578 124 634T291 691Z" horiz-adv-x="587" unicode="Ѕ"/>
			<glyph d="M85 680H183Q193 680 193 670V10Q193 0 183 0H85Q75 0 75 10V670Q75 680 85 680Z" horiz-adv-x="268" unicode="І"/>
			<glyph d="M85 680H183Q193 680 193 670V10Q193 0 183 0H85Q75 0 75 10V670Q75 680 85 680ZM198 876H271Q281 876 281 866V779Q281 769 271 769H198Q188 769 188 779V866Q188 876 198 876ZM-2 876H71Q81 876 81 866V779Q81 769 71 769H-2Q-12 769 -12 779V866Q-12 876 -2 876Z" horiz-adv-x="268" unicode="Ї"/>
			<glyph d="M328 680H426Q436 680 436 670V229Q436 115 373 52T201 -11Q146 -11 96 13T24 71Q19 79 26 85L99 140Q107 145 114 137Q128 120 153 107T205 95Q257 95 287 128T318 229V670Q318 680 328 680Z" horiz-adv-x="507" unicode="Ј"/>
			<glyph d="M165 680H583Q593 680 593 671V429Q593 423 599 423H742Q849 423 910 364T972 212Q972 116 910 58T742 0H484Q475 0 475 10V568Q475 574 469 574H277Q271 574 271 568V362Q271 189 225 92T65 -4H18Q9 -4 9 6V93Q9 102 18 102H30Q97 102 126 169T155 376V671Q155 680 165 680ZM599 317Q593 317 593 311V112Q593 106 599 106H735Q791 106 822 135T854 216Q854 317 735 317Z" horiz-adv-x="1008" unicode="Љ"/>
			<glyph d="M85 680H183Q193 680 193 670V415Q193 409 199 409H458Q464 409 464 415V670Q464 680 474 680H572Q582 680 582 670V415Q582 409 588 409H738Q835 409 893 352T952 205Q952 114 893 57T738 0H474Q464 0 464 10V297Q464 303 458 303H199Q193 303 193 297V10Q193 0 183 0H85Q75 0 75 10V670Q75 680 85 680ZM588 303Q582 303 582 297V112Q582 106 588 106H726Q776 106 805 132T834 205Q834 252 805 277T726 303Z" horiz-adv-x="988" unicode="Њ"/>
			<glyph d="M32 680H524Q534 680 534 670V584Q534 574 524 574H343Q339 574 337 570V404Q337 393 348 397Q439 421 510 421Q696 421 696 245V9Q696 0 686 0H588Q578 0 578 9V221Q578 315 477 315Q421 315 353 295Q337 291 337 278V10Q337 0 327 0H229Q219 0 219 10V568Q219 572 214 574H32Q22 574 22 584V670Q22 680 32 680Z" horiz-adv-x="757" unicode="Ћ"/>
			<glyph d="M537 684H578Q588 684 588 674V589Q588 580 578 580H565Q544 580 528 572T499 529L464 440Q437 370 399 355V351Q446 340 471 276L518 156Q527 131 538 116T584 102H599Q609 102 609 93V6Q609 -4 599 -4H550Q452 -4 411 101L360 230Q335 292 272 292H199Q193 292 193 286V10Q193 0 183 0H85Q75 0 75 10V670Q75 680 85 680H183Q193 680 193 670V404Q193 398 199 398H266Q327 398 354 466L400 581Q416 621 446 652T537 684ZM370 888H468Q472 888 474 884T473 878L356 769Q348 761 338 761H267Q263 761 261 764T263 771L351 878Q359 888 370 888Z" horiz-adv-x="633" unicode="Ќ"/>
			<glyph d="M85 680H184Q193 680 193 671V204H196L481 674Q484 680 493 680H585Q595 680 595 671V10Q595 0 585 0H487Q477 0 477 10V478H474L189 7Q184 0 177 0H85Q75 0 75 10V671Q75 680 85 680ZM192 888H290Q301 888 309 878L398 771Q401 767 399 764T394 761H322Q312 761 304 769L188 878Q185 881 186 884T192 888Z" horiz-adv-x="670" unicode="Ѝ"/>
			<glyph d="M22 680H128Q138 680 142 671L294 334H297L432 671Q436 680 446 680H551Q559 680 555 670L316 112Q267 -4 171 -4H101Q91 -4 91 6V93Q91 102 101 102H146Q198 102 220 156L238 198L17 669Q13 680 22 680ZM209 880Q218 881 221 874Q239 821 295 821Q350 821 369 874Q372 881 381 880L433 873Q442 872 439 858Q414 746 295 746Q175 746 151 858Q148 871 156 873Z" horiz-adv-x="572" unicode="Ў"/>
			<glyph d="M85 680H184Q193 680 193 670V112Q193 106 199 106H451Q457 106 457 112V670Q457 680 466 680H566Q575 680 575 670V9Q575 0 565 0H386Q380 0 380 -6V-133Q380 -142 371 -142H279Q270 -142 270 -133V-6Q270 0 264 0H85Q75 0 75 9V670Q75 680 85 680Z" horiz-adv-x="650" unicode="Џ"/>
			<glyph d="M264 680H356Q366 680 369 670L599 10Q602 0 592 0H494Q484 0 481 10L436 142H180L135 10Q132 0 122 0H25Q15 0 18 10L251 670Q254 680 264 680ZM307 511L216 247H400L310 511Z" horiz-adv-x="617" unicode="А"/>
			<glyph d="M85 680H513Q523 680 523 671V583Q523 574 513 574H199Q193 574 193 568V415Q193 409 199 409H349Q446 409 504 352T563 205Q563 114 504 57T349 0H85Q75 0 75 10V671Q75 680 85 680ZM199 303Q193 303 193 297V112Q193 106 199 106H337Q387 106 416 132T445 205Q445 252 416 277T337 303Z" horiz-adv-x="608" unicode="Б"/>
			<glyph d="M85 680H338Q443 680 496 631T550 499Q550 397 471 355V353Q506 340 534 298T562 200Q562 101 501 50T328 0H85Q75 0 75 10V670Q75 680 85 680ZM199 576Q193 576 193 570V403Q193 397 199 397H335Q379 397 405 422T432 486Q432 526 405 551T335 576ZM199 293Q193 293 193 287V110Q193 104 199 104H341Q389 104 416 130T444 199Q444 241 416 267T341 293Z" horiz-adv-x="607" unicode="В"/>
			<glyph d="M85 680H475Q485 680 485 670V583Q485 574 475 574H199Q193 574 193 568V10Q193 0 183 0H85Q75 0 75 10V670Q75 680 85 680Z" horiz-adv-x="500" unicode="Г"/>
			<glyph d="M162 680H579Q588 680 588 670V112Q588 106 594 106H653Q663 106 663 97V-133Q663 -142 654 -142H561Q553 -142 553 -133V-6Q553 0 547 0H126Q120 0 120 -6V-133Q120 -142 111 -142H18Q10 -142 10 -133V97Q10 106 19 106H59Q71 106 74 114Q116 195 134 297T152 607V671Q152 680 162 680ZM273 574Q267 574 267 568V560Q267 247 197 113Q195 111 196 108T202 106H464Q470 106 470 112V568Q470 574 464 574Z" horiz-adv-x="680" unicode="Д"/>
			<glyph d="M85 680H511Q521 680 521 670V584Q521 574 511 574H199Q193 574 193 568V402Q193 396 199 396H462Q472 396 472 386V300Q472 290 462 290H199Q193 290 193 284V112Q193 106 199 106H511Q521 106 521 96V10Q521 0 511 0H85Q75 0 75 10V670Q75 680 85 680Z" horiz-adv-x="570" unicode="Е"/>
			<glyph d="M54 684H95Q144 684 177 659T232 581L279 466Q307 397 367 397H409Q415 397 415 403V670Q415 680 425 680H523Q533 680 533 670V403Q533 397 539 397H580Q641 397 669 466L715 581Q731 621 761 652T852 684H893Q903 684 903 674V589Q903 580 893 580H880Q858 580 843 572T814 529L779 440Q751 367 711 355V351Q760 341 786 276L832 156Q842 131 853 116T899 102H914Q924 102 924 93V6Q924 -4 914 -4H865Q767 -4 726 101L675 230Q650 293 587 293H539Q533 293 533 287V10Q533 0 523 0H425Q415 0 415 10V287Q415 293 409 293H361Q298 293 273 230L221 101Q200 46 166 21T82 -4H34Q24 -4 24 6V93Q24 102 34 102H48Q70 102 84 109T115 156L162 276Q188 341 236 351V355Q198 366 168 440L133 529Q121 558 108 569T67 580H54Q44 580 44 589V674Q44 684 54 684Z" horiz-adv-x="948" unicode="Ж"/>
			<glyph d="M268 691Q376 691 438 640T500 503Q500 452 477 412T415 355V351Q459 337 485 294T511 192Q511 101 444 45T271 -11Q112 -11 24 71Q18 76 24 86L73 156Q74 158 78 158T85 157Q168 93 264 93Q318 93 354 121T391 194Q391 243 358 268T271 293H198Q188 293 188 303V387Q188 397 198 397H272Q322 397 351 423T381 496Q381 540 348 563T260 587Q174 587 104 532Q93 525 89 532L42 602Q36 611 43 616Q140 691 268 691Z" horiz-adv-x="560" unicode="З"/>
			<glyph d="M85 680H184Q193 680 193 671V204H196L481 674Q484 680 493 680H585Q595 680 595 671V10Q595 0 585 0H487Q477 0 477 10V478H474L189 7Q184 0 177 0H85Q75 0 75 10V671Q75 680 85 680Z" horiz-adv-x="670" unicode="И"/>
			<glyph d="M85 680H184Q193 680 193 671V204H196L481 674Q484 680 493 680H585Q595 680 595 671V10Q595 0 585 0H487Q477 0 477 10V478H474L189 7Q184 0 177 0H85Q75 0 75 10V671Q75 680 85 680ZM250 880Q259 881 262 874Q280 821 336 821Q391 821 410 874Q413 881 422 880L474 873Q483 872 480 858Q455 746 336 746Q216 746 192 858Q189 871 197 873Z" horiz-adv-x="670" unicode="Й"/>
			<glyph d="M537 684H578Q588 684 588 674V589Q588 580 578 580H565Q544 580 528 572T499 529L464 440Q437 370 399 355V351Q446 340 471 276L518 156Q527 131 538 116T584 102H599Q609 102 609 93V6Q609 -4 599 -4H550Q452 -4 411 101L360 230Q335 292 272 292H199Q193 292 193 286V10Q193 0 183 0H85Q75 0 75 10V670Q75 680 85 680H183Q193 680 193 670V404Q193 398 199 398H266Q327 398 354 466L400 581Q416 621 446 652T537 684Z" horiz-adv-x="633" unicode="К"/>
			<glyph d="M165 680H583Q593 680 593 671V10Q593 0 584 0H484Q475 0 475 10V568Q475 574 469 574H277Q271 574 271 568V362Q271 189 225 92T65 -4H18Q9 -4 9 6V93Q9 102 18 102H30Q97 102 126 169T155 376V671Q155 680 165 680Z" horiz-adv-x="668" unicode="Л"/>
			<glyph d="M85 680H174Q187 680 191 670L378 251H382L566 670Q570 680 583 680H671Q681 680 681 670V10Q681 0 671 0H584Q574 0 574 10V426H570L426 106Q420 93 407 93H349Q336 93 330 106L186 426H182V10Q182 0 172 0H85Q75 0 75 10V670Q75 680 85 680Z" horiz-adv-x="756" unicode="М"/>
			<glyph d="M85 680H183Q193 680 193 670V402Q193 396 199 396H458Q464 396 464 402V670Q464 680 474 680H572Q582 680 582 670V10Q582 0 572 0H474Q464 0 464 10V284Q464 290 458 290H199Q193 290 193 284V10Q193 0 183 0H85Q75 0 75 10V670Q75 680 85 680Z" horiz-adv-x="657" unicode="Н"/>
			<glyph d="M313 691Q402 691 465 649T554 527Q562 503 567 469T572 340Q572 291 570 244T554 153Q528 73 465 31T313 -11Q224 -11 161 31T73 153Q65 177 60 211T55 340Q55 389 56 436T73 527Q99 607 161 649T313 691ZM313 585Q218 585 187 496Q175 459 175 340Q175 222 187 184Q218 95 313 95Q409 95 440 184Q452 222 452 340Q452 459 440 496Q409 585 313 585Z" horiz-adv-x="627" unicode="О"/>
			<glyph d="M85 680H565Q575 680 575 671V10Q575 0 566 0H466Q457 0 457 10V568Q457 574 451 574H199Q193 574 193 568V10Q193 0 184 0H85Q75 0 75 10V671Q75 680 85 680Z" horiz-adv-x="650" unicode="П"/>
			<glyph d="M85 680H340Q439 680 501 621T564 469Q564 374 501 315T340 257H199Q193 257 193 251V10Q193 0 183 0H85Q75 0 75 10V670Q75 680 85 680ZM199 574Q193 574 193 568V370Q193 364 199 364H333Q384 364 415 393T446 469Q446 515 415 544T333 574Z" horiz-adv-x="598" unicode="Р"/>
			<glyph d="M309 691Q391 691 451 651T539 545Q542 536 534 533L449 492Q440 487 436 497Q396 585 309 585Q218 585 187 495Q175 458 175 340Q175 222 187 185Q218 95 309 95Q396 95 436 183Q440 193 449 188L534 147Q542 144 539 135Q511 69 451 29T309 -11Q222 -11 160 31T73 156Q65 180 60 212T55 340Q55 389 56 434T73 524Q99 606 160 648T309 691Z" horiz-adv-x="575" unicode="С"/>
			<glyph d="M32 680H518Q528 680 528 670V584Q528 574 518 574H340Q334 574 334 568V10Q334 0 324 0H226Q216 0 216 10V568Q216 574 210 574H32Q22 574 22 584V670Q22 680 32 680Z" horiz-adv-x="550" unicode="Т"/>
			<glyph d="M22 680H128Q138 680 142 671L294 334H297L432 671Q436 680 446 680H551Q559 680 555 670L316 112Q267 -4 171 -4H101Q91 -4 91 6V93Q91 102 101 102H146Q198 102 220 156L238 198L17 669Q13 680 22 680Z" horiz-adv-x="572" unicode="У"/>
			<glyph d="M341 691H440Q449 691 449 682V628Q449 622 455 622Q596 616 669 549T743 355Q743 93 455 79Q449 79 449 73V-1Q449 -11 440 -11H340Q331 -11 331 -1V73Q331 79 325 79Q38 93 38 355Q38 482 111 549T325 622Q331 622 331 628V682Q331 691 341 691ZM325 517Q156 513 156 350Q156 191 325 184Q331 184 331 190V512Q331 517 325 517ZM456 517Q449 517 449 512V190Q449 184 456 184Q625 191 625 350Q625 513 456 517Z" horiz-adv-x="781" unicode="Ф"/>
			<glyph d="M38 680H146Q156 680 162 670L285 464H287L410 670Q416 680 426 680H534Q539 680 541 676T540 667L352 352L555 13Q558 8 556 4T549 0H440Q430 0 424 10L287 241H285L147 10Q141 0 131 0H23Q18 0 16 4T17 13L220 352L32 667Q29 672 31 676T38 680Z" horiz-adv-x="572" unicode="Х"/>
			<glyph d="M85 680H184Q193 680 193 670V112Q193 106 199 106H451Q457 106 457 112V670Q457 680 466 680H566Q575 680 575 670V112Q575 106 581 106H640Q650 106 650 97V-133Q650 -142 641 -142H548Q540 -142 540 -133V-6Q540 0 534 0H85Q75 0 75 9V670Q75 680 85 680Z" horiz-adv-x="667" unicode="Ц"/>
			<glyph d="M68 680H166Q176 680 176 671V440Q176 346 276 346Q342 346 406 366Q418 369 418 379V671Q418 680 427 680H526Q536 680 536 671V10Q536 0 527 0H427Q418 0 418 10V257Q418 265 409 263Q323 238 244 238Q58 238 58 415V671Q58 680 68 680Z" horiz-adv-x="611" unicode="Ч"/>
			<glyph d="M85 680H184Q193 680 193 670V112Q193 106 199 106H409Q415 106 415 112V670Q415 680 423 680H524Q533 680 533 670V112Q533 106 539 106H749Q755 106 755 112V670Q755 680 763 680H863Q873 680 873 670V9Q873 0 863 0H85Q75 0 75 9V670Q75 680 85 680Z" horiz-adv-x="948" unicode="Ш"/>
			<glyph d="M85 680H184Q193 680 193 670V112Q193 106 199 106H409Q415 106 415 112V670Q415 680 423 680H524Q533 680 533 670V112Q533 106 539 106H749Q755 106 755 112V670Q755 680 763 680H863Q873 680 873 670V112Q873 106 879 106H937Q947 106 947 97V-133Q947 -142 938 -142H846Q837 -142 837 -133V-6Q837 0 831 0H85Q75 0 75 9V670Q75 680 85 680Z" horiz-adv-x="964" unicode="Щ"/>
			<glyph d="M25 680H278Q288 680 288 670V429Q288 423 294 423H437Q544 423 605 364T667 212Q667 116 605 58T437 0H180Q170 0 170 10V568Q170 574 164 574H25Q16 574 16 583V670Q16 680 25 680ZM294 317Q288 317 288 311V112Q288 106 294 106H430Q486 106 517 133T549 212Q549 263 518 290T430 317Z" horiz-adv-x="703" unicode="Ъ"/>
			<glyph d="M85 680H183Q193 680 193 670V429Q193 423 199 423H342Q449 423 510 364T572 212Q572 116 510 58T342 0H85Q75 0 75 10V670Q75 680 85 680ZM199 317Q193 317 193 311V112Q193 106 199 106H335Q391 106 422 133T454 212Q454 263 423 290T335 317ZM663 680H761Q771 680 771 670V10Q771 0 761 0H663Q653 0 653 10V670Q653 680 663 680Z" horiz-adv-x="846" unicode="Ы"/>
			<glyph d="M85 680H183Q193 680 193 670V429Q193 423 199 423H342Q449 423 510 364T572 212Q572 116 510 58T342 0H85Q75 0 75 10V670Q75 680 85 680ZM199 317Q193 317 193 311V112Q193 106 199 106H335Q391 106 422 135T454 216Q454 317 335 317Z" horiz-adv-x="608" unicode="Ь"/>
			<glyph d="M260 691Q346 691 409 651T499 530Q519 470 519 343Q519 263 513 215T491 129Q461 60 401 24T260 -11Q182 -11 123 25T37 125Q32 135 41 139L121 177Q130 182 135 172Q175 93 258 93Q352 93 382 169Q399 209 400 285Q400 292 393 292H198Q189 292 189 301V387Q189 396 198 396H393Q400 396 400 403Q399 465 387 500Q358 587 258 587Q175 587 135 508Q130 499 122 503L41 541Q34 545 37 555Q66 621 123 656T260 691Z" horiz-adv-x="574" unicode="Э"/>
			<glyph d="M551 691Q634 691 693 651T778 535Q797 474 797 340Q797 206 778 145Q756 79 700 34T551 -11Q468 -11 409 29T325 145Q308 194 307 286Q307 292 301 292H199Q193 292 193 286V10Q193 0 184 0H85Q75 0 75 10V670Q75 680 85 680H184Q193 680 193 670V404Q193 398 199 398H301Q307 398 307 404Q311 493 325 535Q346 601 401 646T551 691ZM552 585Q464 585 438 502Q425 463 425 340Q425 218 438 177Q464 95 552 95Q640 95 666 177Q679 218 679 340Q679 463 666 502Q640 585 552 585Z" horiz-adv-x="852" unicode="Ю"/>
			<glyph d="M278 680H548Q558 680 558 671V10Q558 0 548 0H450Q440 0 440 10V257Q440 263 434 263H357Q327 263 307 252T274 209L229 101Q206 45 171 20T80 -4H43Q33 -4 33 6V93Q33 102 43 102H57Q78 102 94 109T124 151L159 231Q176 269 206 289V293Q142 305 102 353T63 481Q63 568 122 624T278 680ZM291 574Q242 574 211 547T181 471Q181 421 211 394T291 368H434Q440 368 440 374V568Q440 574 434 574Z" horiz-adv-x="633" unicode="Я"/>
			<glyph d="M253 493Q349 493 401 459T454 325V10Q454 0 444 0H360Q350 0 350 10V45H349Q310 -11 213 -11Q143 -11 97 26T51 136Q51 203 96 246T244 289H342Q348 289 348 295V318Q348 360 323 379T241 398Q173 398 131 365Q122 358 117 367L80 433Q75 441 82 446Q147 493 253 493ZM262 205Q158 205 158 140Q158 80 241 80Q348 80 348 162V199Q348 205 342 205Z" horiz-adv-x="523" unicode="а"/>
			<glyph d="M381 691H464Q473 691 473 682Q471 623 443 592T358 556Q350 555 310 552T239 541T187 513Q151 480 151 404H154Q171 438 207 457T292 476Q490 476 490 238Q490 116 434 52T276 -11Q157 -11 102 67Q82 96 71 144T60 305Q60 424 73 488T133 596Q140 602 161 615T215 636T328 653Q369 659 370 682Q372 691 381 691ZM275 382Q226 382 200 351T174 237Q174 161 196 124T275 88Q325 88 350 120T376 237Q376 310 353 346T275 382Z" horiz-adv-x="537" unicode="б"/>
			<glyph d="M83 482H314Q387 482 427 448T467 356Q467 280 399 252V248Q432 237 453 207T475 136Q475 79 437 39T314 0H83Q73 0 73 9V473Q73 482 83 482ZM190 202Q185 202 185 197V97Q185 92 190 92H301Q331 92 347 107T364 148Q364 174 347 188T301 202ZM190 391Q185 391 185 386V293L190 289H297Q325 289 340 303T356 341Q356 391 297 391Z" horiz-adv-x="523" unicode="в"/>
			<glyph d="M82 482H392Q402 482 402 473V393Q402 384 392 384H191Q185 384 185 378V9Q185 0 176 0H82Q73 0 73 9V473Q73 482 82 482Z" horiz-adv-x="410" unicode="г"/>
			<glyph d="M131 482H479Q488 482 488 473V104Q488 98 494 98H542Q551 98 551 89V-105Q551 -114 543 -114H457Q448 -114 448 -105V-6Q448 0 442 0H123Q117 0 117 -6V-105Q117 -114 109 -114H22Q14 -114 14 -105V89Q14 98 23 98H53Q66 98 72 111Q97 169 109 227T121 398V473Q121 482 131 482ZM233 384Q227 384 227 378V339Q227 193 184 105Q181 98 187 98H370Q376 98 376 104V378Q376 384 370 384Z" horiz-adv-x="570" unicode="д"/>
			<glyph d="M260 493Q332 493 385 457T458 360Q474 311 474 215Q474 205 463 205H166Q160 205 160 199Q160 181 167 162Q192 89 275 89Q346 89 388 135Q396 143 403 137L462 85Q469 79 463 71Q431 34 379 11T265 -11Q190 -11 137 25T64 123Q47 176 47 241Q47 310 63 360Q83 422 136 457T260 493ZM261 398Q227 398 201 381T166 336Q160 318 160 295Q160 289 166 289H355Q361 289 361 295Q361 318 355 336Q345 365 319 381T261 398Z" horiz-adv-x="521" unicode="е"/>
			<glyph d="M55 486H96Q139 486 165 468T206 410L231 345Q251 293 301 293H323Q329 293 329 299V473Q329 482 339 482H432Q441 482 441 473V299Q441 293 447 293H469Q520 293 540 345L564 410Q576 440 598 463T674 486H715Q725 486 725 477V404Q725 394 715 394H707Q668 394 653 353L636 308Q621 266 597 255V251Q627 244 646 197L668 141Q679 113 689 102T723 91H728Q737 91 737 82V5Q737 -4 728 -4H683Q649 -4 620 10T571 80L544 152Q536 174 520 186T474 198H447Q441 198 441 192V9Q441 0 432 0H339Q329 0 329 9V192Q329 198 323 198H297Q273 198 254 189T226 152L199 80Q183 36 157 16T88 -4H43Q33 -4 33 5V82Q33 91 43 91H47Q64 91 76 99T102 141L124 197Q143 244 173 251V255Q149 266 134 308L117 353Q102 394 64 394H55Q45 394 45 404V477Q45 486 55 486Z" horiz-adv-x="770" unicode="ж"/>
			<glyph d="M234 493Q323 493 373 459T423 360Q423 325 405 296T355 256V252Q388 242 409 210T430 140Q430 72 374 30T233 -11Q109 -11 31 52Q24 58 30 66L76 130Q81 135 90 129Q149 84 217 84Q261 84 288 99T316 144Q316 203 235 203H172Q163 203 163 213V279Q163 289 172 289H234Q268 289 288 304T308 348Q308 399 216 399Q158 399 102 362Q92 356 89 362L51 425Q45 434 53 439Q125 493 234 493Z" horiz-adv-x="478" unicode="з"/>
			<glyph d="M83 482H176Q185 482 185 473V172H188L377 476Q381 482 389 482H487Q497 482 497 473V9Q497 0 487 0H394Q385 0 385 9V316H382L192 8Q187 0 179 0H83Q73 0 73 9V473Q73 482 83 482Z" horiz-adv-x="570" unicode="и"/>
			<glyph d="M83 482H176Q185 482 185 473V172H188L377 476Q381 482 389 482H487Q497 482 497 473V9Q497 0 487 0H394Q385 0 385 9V316H382L192 8Q187 0 179 0H83Q73 0 73 9V473Q73 482 83 482ZM201 685Q210 686 213 679Q232 623 285 623Q337 623 358 679Q361 686 370 685L419 677Q428 676 425 662Q400 550 285 550Q169 550 145 662Q142 676 151 677Z" horiz-adv-x="570" unicode="й"/>
			<glyph d="M431 486H466Q475 486 475 477V404Q475 394 466 394H457Q419 394 404 353L390 315Q372 266 348 255V251Q379 242 397 197L419 141Q430 113 440 102T474 91H479Q488 91 488 82V5Q488 -4 479 -4H444Q406 -4 374 10T323 80L296 152Q288 174 271 186T218 198H191Q185 198 185 192V9Q185 0 176 0H83Q73 0 73 9V473Q73 482 83 482H176Q185 482 185 473V299Q185 293 191 293H220Q237 293 258 304T290 345L314 410Q326 443 350 464T431 486Z" horiz-adv-x="521" unicode="к"/>
			<glyph d="M132 482H479Q488 482 488 473V9Q488 0 479 0H386Q376 0 376 9V378Q376 384 370 384H236Q230 384 230 378V244Q230 125 193 60T63 -4H25Q16 -4 16 5V82Q16 91 25 91H33Q123 91 123 253V473Q123 482 132 482Z" horiz-adv-x="561" unicode="л"/>
			<glyph d="M83 482H181Q189 482 192 475L323 202H326L456 475Q460 482 468 482H566Q575 482 575 473V9Q575 0 566 0H478Q468 0 468 9V277H465L365 72Q360 63 352 63H296Q288 63 285 72L183 277H180V9Q180 0 171 0H83Q73 0 73 9V473Q73 482 83 482Z" horiz-adv-x="648" unicode="м"/>
			<glyph d="M83 482H176Q185 482 185 473V299Q185 293 191 293H363Q369 293 369 299V473Q369 482 379 482H471Q481 482 481 473V9Q481 0 471 0H379Q369 0 369 9V192Q369 198 363 198H191Q185 198 185 192V9Q185 0 176 0H83Q73 0 73 9V473Q73 482 83 482Z" horiz-adv-x="554" unicode="н"/>
			<glyph d="M262 493Q334 493 387 457T460 360Q476 311 476 241Q476 171 460 122Q440 60 387 24T262 -11Q190 -11 136 24T63 122Q47 171 47 241Q47 311 63 360Q83 422 136 457T262 493ZM262 393Q193 393 171 330Q161 298 161 241Q161 183 171 152Q193 89 262 89Q330 89 352 152Q362 183 362 241Q362 298 352 330Q330 393 262 393Z" horiz-adv-x="523" unicode="о"/>
			<glyph d="M83 482H469Q478 482 478 473V9Q478 0 469 0H376Q366 0 366 9V378Q366 384 360 384H191Q185 384 185 378V9Q185 0 176 0H83Q73 0 73 9V473Q73 482 83 482Z" horiz-adv-x="551" unicode="п"/>
			<glyph d="M314 493Q375 493 419 463T481 377Q498 325 498 241Q498 157 481 105Q463 49 419 19T314 -11Q226 -11 186 46H185V-170Q185 -180 175 -180H83Q73 -180 73 -170V472Q73 482 83 482H175Q185 482 185 472V436H186Q226 493 314 493ZM285 393Q215 393 195 331Q185 300 185 241Q185 182 195 151Q215 89 285 89Q354 89 374 151Q384 182 384 241Q384 300 374 331Q354 393 285 393Z" horiz-adv-x="545" unicode="р"/>
			<glyph d="M261 493Q366 493 428 418Q434 410 427 404L364 349Q356 343 350 351Q313 393 261 393Q192 393 171 330Q161 300 161 241Q161 181 171 151Q192 89 261 89Q313 89 350 131Q356 138 364 132L427 77Q433 72 428 63Q366 -11 261 -11Q189 -11 135 24T62 122Q47 167 47 241Q47 315 62 360Q82 423 135 458T261 493Z" horiz-adv-x="475" unicode="с"/>
			<glyph d="M22 482H410Q419 482 419 473V393Q419 384 410 384H276Q270 384 270 378V9Q270 0 260 0H168Q158 0 158 9V378Q158 384 152 384H22Q12 384 12 393V473Q12 482 22 482Z" horiz-adv-x="431" unicode="т"/>
			<glyph d="M26 482H125Q134 482 137 472L246 157H248L352 472Q355 482 364 482H459Q470 482 467 472L283 -30Q255 -105 221 -142T121 -180H90Q80 -180 80 -170V-90Q80 -80 90 -80H108Q129 -80 147 -70T180 -23L194 18L18 472Q15 482 26 482Z" horiz-adv-x="485" unicode="у"/>
			<glyph d="M303 680H397Q406 680 406 671V493Q406 487 412 487Q659 475 659 244Q659 126 594 63T412 -5Q406 -5 406 -11V-171Q406 -180 397 -180H303Q294 -180 294 -171V-11Q294 -5 288 -5Q170 1 105 63T41 244Q41 475 288 487Q294 487 294 493V671Q294 680 303 680ZM288 392Q218 389 186 353T154 243Q154 176 183 135T288 91Q294 91 294 97V386Q294 392 288 392ZM412 392Q406 392 406 386V97Q406 91 412 91Q479 95 512 131T546 243Q546 309 518 349T412 392Z" horiz-adv-x="700" unicode="ф"/>
			<glyph d="M43 482H143Q154 482 160 472L247 342H248L336 472Q343 482 352 482H452Q466 482 460 472L309 250L472 10Q478 0 464 0H364Q355 0 348 10L248 157H247L147 10Q140 0 130 0H31Q17 0 23 10L186 250L35 472Q29 482 43 482Z" horiz-adv-x="495" unicode="х"/>
			<glyph d="M83 482H176Q185 482 185 473V104Q185 98 191 98H360Q366 98 366 104V473Q366 482 376 482H469Q478 482 478 473V104Q478 98 484 98H532Q541 98 541 89V-105Q541 -114 533 -114H447Q438 -114 438 -105V-6Q438 0 432 0H83Q73 0 73 9V473Q73 482 83 482Z" horiz-adv-x="560" unicode="ц"/>
			<glyph d="M63 482H156Q165 482 165 473V325Q165 257 237 257Q281 257 331 273Q337 276 337 281V473Q337 482 347 482H440Q449 482 449 473V9Q449 0 440 0H347Q337 0 337 9V173Q337 181 329 178Q256 159 206 159Q53 159 53 304V473Q53 482 63 482Z" horiz-adv-x="522" unicode="ч"/>
			<glyph d="M83 482H176Q185 482 185 473V104Q185 98 191 98H332Q338 98 338 104V473Q338 482 348 482H440Q450 482 450 473V104Q450 98 456 98H596Q602 98 602 104V473Q602 482 612 482H705Q714 482 714 473V9Q714 0 705 0H83Q73 0 73 9V473Q73 482 83 482Z" horiz-adv-x="787" unicode="ш"/>
			<glyph d="M83 482H176Q185 482 185 473V104Q185 98 191 98H332Q338 98 338 104V473Q338 482 348 482H440Q450 482 450 473V104Q450 98 456 98H596Q602 98 602 104V473Q602 482 612 482H705Q714 482 714 473V104Q714 98 720 98H768Q778 98 778 89V-105Q778 -114 769 -114H683Q675 -114 675 -105V-6Q675 0 669 0H83Q73 0 73 9V473Q73 482 83 482Z" horiz-adv-x="797" unicode="щ"/>
			<glyph d="M21 482H231Q241 482 241 473V316Q241 310 247 310H369Q442 310 486 267T530 155Q530 86 487 43T375 0H138Q129 0 129 9V378Q129 384 123 384H21Q12 384 12 393V473Q12 482 21 482ZM247 215Q241 215 241 209V102Q241 96 247 96H353Q418 96 418 156Q418 215 353 215Z" horiz-adv-x="566" unicode="ъ"/>
			<glyph d="M83 482H176Q185 482 185 473V316Q185 310 191 310H313Q386 310 430 267T474 155Q474 86 431 43T319 0H83Q73 0 73 9V473Q73 482 83 482ZM191 215Q185 215 185 209V102Q185 96 191 96H297Q362 96 362 156Q362 215 297 215ZM540 482H632Q642 482 642 472V10Q642 0 632 0H540Q530 0 530 10V472Q530 482 540 482Z" horiz-adv-x="715" unicode="ы"/>
			<glyph d="M83 482H176Q185 482 185 473V316Q185 310 191 310H313Q386 310 430 267T474 155Q474 86 430 43T314 0H83Q73 0 73 9V473Q73 482 83 482ZM191 215Q185 215 185 209V102Q185 96 191 96H297Q362 96 362 156Q362 215 297 215Z" horiz-adv-x="510" unicode="ь"/>
			<glyph d="M224 493Q279 493 325 471T399 410Q439 353 439 241Q439 140 408 87Q381 41 333 15T224 -11Q161 -11 113 12T38 78Q33 86 42 92L103 141Q110 147 117 137Q132 117 153 101T219 86Q267 86 295 115T324 194Q324 200 318 200H176Q167 200 167 209V281Q167 291 176 291H318Q324 291 324 297Q322 318 313 343Q292 398 219 398Q154 398 121 349Q114 339 106 345L47 391Q39 396 44 404Q101 493 224 493Z" horiz-adv-x="486" unicode="э"/>
			<glyph d="M476 493Q546 493 597 458T667 360Q682 309 682 241Q682 172 667 121Q648 58 597 23T476 -11Q422 -11 378 12T307 76Q277 123 271 192Q271 198 265 198H191Q185 198 185 192V9Q185 0 176 0H83Q73 0 73 9V473Q73 482 83 482H176Q185 482 185 473V299Q185 293 191 293H266Q272 293 272 299Q280 352 298 390Q323 439 369 466T476 493ZM475 393Q413 393 393 329Q383 296 383 241Q383 187 394 151Q413 89 475 89Q538 89 557 151Q568 187 568 241Q568 296 558 329Q538 393 475 393Z" horiz-adv-x="729" unicode="ю"/>
			<glyph d="M234 482H445Q454 482 454 473V9Q454 0 445 0H352Q342 0 342 9V167Q342 173 336 173H305Q280 173 265 164T237 129L207 69Q191 37 169 16T87 -4H53Q44 -4 44 5V82Q44 91 53 91H63Q78 91 89 97T114 128L130 158Q150 195 162 199V202Q118 213 88 249T59 334Q59 405 105 443T234 482ZM238 388Q206 388 188 372T170 329Q170 300 188 282T238 265H337Q342 265 342 270V382Q342 388 337 388Z" horiz-adv-x="527" unicode="я"/>
			<glyph d="M260 493Q332 493 385 457T458 360Q474 311 474 215Q474 205 463 205H166Q160 205 160 199Q160 181 167 162Q192 89 275 89Q346 89 388 135Q396 143 403 137L462 85Q469 79 463 71Q431 34 379 11T265 -11Q190 -11 137 25T64 123Q47 176 47 241Q47 310 63 360Q83 422 136 457T260 493ZM261 398Q227 398 201 381T166 336Q160 318 160 295Q160 289 166 289H355Q361 289 361 295Q361 318 355 336Q345 365 319 381T261 398ZM135 700H226Q238 700 244 690L318 565Q323 555 312 555H245Q234 555 225 565L130 690Q127 693 129 696T135 700Z" horiz-adv-x="521" unicode="ѐ"/>
			<glyph d="M260 493Q332 493 385 457T458 360Q474 311 474 215Q474 205 463 205H166Q160 205 160 199Q160 181 167 162Q192 89 275 89Q346 89 388 135Q396 143 403 137L462 85Q469 79 463 71Q431 34 379 11T265 -11Q190 -11 137 25T64 123Q47 176 47 241Q47 310 63 360Q83 422 136 457T260 493ZM261 398Q227 398 201 381T166 336Q160 318 160 295Q160 289 166 289H355Q361 289 361 295Q361 318 355 336Q345 365 319 381T261 398ZM322 680H399Q409 680 409 670V583Q409 573 399 573H322Q312 573 312 583V670Q312 680 322 680ZM126 680H203Q213 680 213 670V583Q213 573 203 573H126Q116 573 116 583V670Q116 680 126 680Z" horiz-adv-x="521" unicode="ё"/>
			<glyph d="M83 680H175Q185 680 185 670V627Q185 621 191 621H294Q304 621 304 611V543Q304 533 294 533H191Q185 533 185 527V426H186Q225 493 316 493Q396 493 438 444T480 311V-21Q480 -180 318 -180H290Q280 -180 280 -170V-90Q280 -80 290 -80H312Q335 -80 351 -71T368 -23V287Q368 338 345 365T277 393Q235 393 210 365T185 292V10Q185 0 175 0H83Q73 0 73 10V527Q73 533 67 533H1Q-9 533 -9 543V611Q-9 621 1 621H67Q73 621 73 627V670Q73 680 83 680Z" horiz-adv-x="548" unicode="ђ"/>
			<glyph d="M82 482H392Q402 482 402 473V393Q402 384 392 384H191Q185 384 185 378V9Q185 0 176 0H82Q73 0 73 9V473Q73 482 82 482ZM255 700H346Q350 700 352 696T351 690L256 565Q247 555 236 555H168Q157 555 162 565L237 690Q243 700 255 700Z" horiz-adv-x="410" unicode="ѓ"/>
			<glyph d="M262 493Q385 493 442 404Q447 396 439 391L380 345Q372 339 365 349Q332 398 267 398Q194 398 173 343Q164 318 162 297Q162 291 168 291H310Q319 291 319 281V209Q319 200 310 200H168Q162 200 162 194Q163 163 177 135Q202 86 267 86Q294 86 319 94T369 137Q376 147 383 141L444 92Q453 86 448 78Q421 36 373 12T262 -11Q201 -11 153 15T78 87Q47 140 47 241Q47 353 87 410Q115 449 161 471T262 493Z" horiz-adv-x="486" unicode="є"/>
			<glyph d="M252 493Q358 493 433 434Q441 428 435 420L386 361Q380 354 372 359Q315 399 246 399Q212 399 192 385T173 349Q173 327 190 314T252 298L304 293Q369 287 411 253T453 152Q453 78 400 33T251 -11Q126 -11 44 65Q37 72 44 79L101 139Q108 146 115 139Q141 115 180 99T256 84Q298 84 321 100T345 141Q345 164 327 177T265 194L213 199Q140 206 102 242T65 341Q65 411 114 452T252 493Z" horiz-adv-x="498" unicode="ѕ"/>
			<glyph d="M83 680H175Q185 680 185 670V583Q185 573 175 573H83Q73 573 73 583V670Q73 680 83 680ZM83 482H175Q185 482 185 472V10Q185 0 175 0H83Q73 0 73 10V472Q73 482 83 482Z" horiz-adv-x="258" unicode="і"/>
			<glyph d="M83 482H175Q185 482 185 472V10Q185 0 175 0H83Q73 0 73 10V472Q73 482 83 482ZM189 680H266Q276 680 276 670V583Q276 573 266 573H189Q179 573 179 583V670Q179 680 189 680ZM-7 680H70Q80 680 80 670V583Q80 573 70 573H-7Q-17 573 -17 583V670Q-17 680 -7 680Z" horiz-adv-x="258" unicode="ї"/>
			<glyph d="M83 680H175Q185 680 185 670V583Q185 573 175 573H83Q73 573 73 583V670Q73 680 83 680ZM83 482H175Q185 482 185 472V-21Q185 -180 23 -180H-5Q-15 -180 -15 -170V-90Q-15 -80 -5 -80H17Q40 -80 56 -71T73 -23V472Q73 482 83 482Z" horiz-adv-x="258" unicode="ј"/>
			<glyph d="M132 482H479Q488 482 488 473V316Q488 310 494 310H616Q689 310 733 267T777 155Q777 86 734 43T622 0H386Q376 0 376 9V378Q376 384 370 384H236Q230 384 230 378V244Q230 125 193 60T60 -4H25Q16 -4 16 5V82Q16 91 25 91H33Q123 91 123 253V473Q123 482 132 482ZM494 215Q488 215 488 209V102Q488 96 494 96H600Q665 96 665 156Q665 215 600 215Z" horiz-adv-x="813" unicode="љ"/>
			<glyph d="M83 482H176Q185 482 185 473V312Q185 306 191 306H363Q369 306 369 312V473Q369 482 379 482H471Q481 482 481 473V312Q481 306 487 306H609Q682 306 726 263T770 153Q770 85 727 42T615 0H379Q369 0 369 9V205Q369 211 363 211H191Q185 211 185 205V9Q185 0 176 0H83Q73 0 73 9V473Q73 482 83 482ZM487 211Q481 211 481 205V102Q481 96 487 96H593Q658 96 658 154Q658 211 593 211Z" horiz-adv-x="806" unicode="њ"/>
			<glyph d="M83 680H175Q185 680 185 670V627Q185 621 191 621H294Q304 621 304 611V543Q304 533 294 533H191Q185 533 185 527V426H186Q225 493 316 493Q396 493 438 444T480 311V10Q480 0 470 0H378Q368 0 368 10V287Q368 338 345 365T277 393Q235 393 210 365T185 292V10Q185 0 175 0H83Q73 0 73 10V527Q73 533 67 533H1Q-9 533 -9 543V611Q-9 621 1 621H67Q73 621 73 627V670Q73 680 83 680Z" horiz-adv-x="548" unicode="ћ"/>
			<glyph d="M431 486H466Q475 486 475 477V404Q475 394 466 394H457Q419 394 404 353L390 315Q372 266 348 255V251Q379 242 397 197L419 141Q430 113 440 102T474 91H479Q488 91 488 82V5Q488 -4 479 -4H444Q406 -4 374 10T323 80L296 152Q288 174 271 186T218 198H191Q185 198 185 192V9Q185 0 176 0H83Q73 0 73 9V473Q73 482 83 482H176Q185 482 185 473V299Q185 293 191 293H220Q237 293 258 304T290 345L314 410Q326 443 350 464T431 486ZM298 700H389Q393 700 395 696T394 690L299 565Q290 555 279 555H211Q200 555 205 565L280 690Q286 700 298 700Z" horiz-adv-x="521" unicode="ќ"/>
			<glyph d="M83 482H176Q185 482 185 473V172H188L377 476Q381 482 389 482H487Q497 482 497 473V9Q497 0 487 0H394Q385 0 385 9V316H382L192 8Q187 0 179 0H83Q73 0 73 9V473Q73 482 83 482ZM156 700H247Q259 700 265 690L339 565Q344 555 333 555H266Q255 555 246 565L151 690Q148 693 150 696T156 700Z" horiz-adv-x="570" unicode="ѝ"/>
			<glyph d="M26 482H125Q134 482 137 472L246 157H248L352 472Q355 482 364 482H459Q470 482 467 472L283 -30Q255 -105 221 -142T121 -180H90Q80 -180 80 -170V-90Q80 -80 90 -80H108Q129 -80 147 -70T180 -23L194 18L18 472Q15 482 26 482ZM162 685Q171 686 174 679Q193 623 246 623Q298 623 319 679Q322 686 331 685L380 677Q389 676 386 662Q361 550 246 550Q130 550 106 662Q103 676 112 677Z" horiz-adv-x="485" unicode="ў"/>
			<glyph d="M83 482H176Q185 482 185 473V104Q185 98 191 98H360Q366 98 366 104V473Q366 482 376 482H469Q478 482 478 473V9Q478 0 469 0H333Q327 0 327 -6V-105Q327 -114 318 -114H232Q224 -114 224 -105V-6Q224 0 218 0H83Q73 0 73 9V473Q73 482 83 482Z" horiz-adv-x="551" unicode="џ"/>
			<glyph d="M389 807H476Q485 807 485 798V583Q485 574 475 574H199Q193 574 193 568V10Q193 0 183 0H85Q75 0 75 10V670Q75 680 85 680H372Q380 680 380 687V798Q380 807 389 807Z" horiz-adv-x="500" unicode="Ґ"/>
			<glyph d="M311 582H393Q402 582 402 572V394Q402 384 392 384H191Q185 384 185 378V9Q185 0 175 0H82Q73 0 73 9V473Q73 482 82 482H296Q302 482 302 488V572Q302 582 311 582Z" horiz-adv-x="410" unicode="ґ"/>
			<glyph d="M24 680H118Q128 680 130 670L238 212H240L367 670Q370 680 379 680H449Q458 680 461 670L591 212H593L698 670Q699 680 710 680H803Q813 680 811 670L645 10Q643 0 633 0H557Q548 0 545 10L415 475H413L282 10Q279 0 270 0H195Q186 0 183 10L16 670Q14 680 24 680ZM244 888H342Q353 888 361 878L450 771Q453 767 451 764T446 761H374Q364 761 356 769L240 878Q237 881 238 884T244 888Z" horiz-adv-x="827" unicode="Ẁ"/>
			<glyph d="M31 482H127Q137 482 140 472L233 154H235L327 472Q330 482 340 482H412Q422 482 425 472L523 154H525L613 472Q616 482 626 482H722Q732 482 729 472L577 10Q574 0 565 0H483Q474 0 471 10L378 318H376L282 10Q279 0 270 0H188Q179 0 176 10L24 472Q21 482 31 482ZM233 700H324Q336 700 342 690L416 565Q421 555 410 555H343Q332 555 323 565L228 690Q225 693 227 696T233 700Z" horiz-adv-x="753" unicode="ẁ"/>
			<glyph d="M24 680H118Q128 680 130 670L238 212H240L367 670Q370 680 379 680H449Q458 680 461 670L591 212H593L698 670Q699 680 710 680H803Q813 680 811 670L645 10Q643 0 633 0H557Q548 0 545 10L415 475H413L282 10Q279 0 270 0H195Q186 0 183 10L16 670Q14 680 24 680ZM487 888H585Q589 888 591 884T590 878L473 769Q465 761 455 761H384Q380 761 378 764T380 771L468 878Q476 888 487 888Z" horiz-adv-x="827" unicode="Ẃ"/>
			<glyph d="M31 482H127Q137 482 140 472L233 154H235L327 472Q330 482 340 482H412Q422 482 425 472L523 154H525L613 472Q616 482 626 482H722Q732 482 729 472L577 10Q574 0 565 0H483Q474 0 471 10L378 318H376L282 10Q279 0 270 0H188Q179 0 176 10L24 472Q21 482 31 482ZM433 700H524Q528 700 530 696T529 690L434 565Q425 555 414 555H346Q335 555 340 565L415 690Q421 700 433 700Z" horiz-adv-x="753" unicode="ẃ"/>
			<glyph d="M24 680H118Q128 680 130 670L238 212H240L367 670Q370 680 379 680H449Q458 680 461 670L591 212H593L698 670Q699 680 710 680H803Q813 680 811 670L645 10Q643 0 633 0H557Q548 0 545 10L415 475H413L282 10Q279 0 270 0H195Q186 0 183 10L16 670Q14 680 24 680ZM476 876H549Q559 876 559 866V779Q559 769 549 769H476Q466 769 466 779V866Q466 876 476 876ZM276 876H349Q359 876 359 866V779Q359 769 349 769H276Q266 769 266 779V866Q266 876 276 876Z" horiz-adv-x="827" unicode="Ẅ"/>
			<glyph d="M31 482H127Q137 482 140 472L233 154H235L327 472Q330 482 340 482H412Q422 482 425 472L523 154H525L613 472Q616 482 626 482H722Q732 482 729 472L577 10Q574 0 565 0H483Q474 0 471 10L378 318H376L282 10Q279 0 270 0H188Q179 0 176 10L24 472Q21 482 31 482ZM435 680H512Q522 680 522 670V583Q522 573 512 573H435Q425 573 425 583V670Q425 680 435 680ZM239 680H316Q326 680 326 670V583Q326 573 316 573H239Q229 573 229 583V670Q229 680 239 680Z" horiz-adv-x="753" unicode="ẅ"/>
			<glyph d="M20 680H121Q131 680 135 670L268 406H271L405 670Q409 680 419 680H516Q528 680 524 670L327 278V10Q327 0 317 0H219Q209 0 209 10V278L12 670Q11 674 13 677T20 680ZM108 888H206Q217 888 225 878L314 771Q317 767 315 764T310 761H238Q228 761 220 769L104 878Q101 881 102 884T108 888Z" horiz-adv-x="536" unicode="Ỳ"/>
			<glyph d="M26 482H125Q134 482 137 472L246 157H248L352 472Q355 482 364 482H459Q470 482 467 472L283 -30Q255 -105 221 -142T121 -180H90Q80 -180 80 -170V-90Q80 -80 90 -80H108Q129 -80 147 -70T180 -23L194 18L18 472Q15 482 26 482ZM116 700H207Q219 700 225 690L299 565Q304 555 293 555H226Q215 555 206 565L111 690Q108 693 110 696T116 700Z" horiz-adv-x="485" unicode="ỳ"/>
			<glyph d="M55 315H330Q340 315 340 305V226Q340 216 330 216H55Q45 216 45 226V305Q45 315 55 315Z" horiz-adv-x="385" unicode="‐"/>
			<glyph d="M30 312H489Q499 312 499 302V229Q499 219 489 219H30Q20 219 20 229V302Q20 312 30 312Z" horiz-adv-x="519" unicode="–"/>
			<glyph d="M30 312H837Q847 312 847 302V229Q847 219 837 219H30Q20 219 20 229V302Q20 312 30 312Z" horiz-adv-x="867" unicode="—"/>
			<glyph d="M30 312H837Q847 312 847 302V229Q847 219 837 219H30Q20 219 20 229V302Q20 312 30 312Z" horiz-adv-x="867" unicode="―"/>
			<glyph d="M152 682Q162 682 162 672V498Q162 488 152 488H71Q61 488 61 498V592Q61 605 69 613L138 675Q144 682 152 682Z" horiz-adv-x="223" unicode="‘"/>
			<glyph d="M71 680H152Q162 680 162 670V576Q162 563 154 555L86 493Q79 486 71 486Q61 486 61 496V670Q61 680 71 680Z" horiz-adv-x="223" unicode="’"/>
			<glyph d="M71 104H152Q162 104 162 94V0Q162 -13 154 -21L86 -83Q79 -90 71 -90Q61 -90 61 -80V94Q61 104 71 104Z" horiz-adv-x="223" unicode="‚"/>
			<glyph d="M325 682Q335 682 335 672V498Q335 488 325 488H244Q234 488 234 498V592Q234 605 242 613L310 675Q317 682 325 682ZM152 682Q162 682 162 672V498Q162 488 152 488H71Q61 488 61 498V592Q61 605 69 613L138 675Q144 682 152 682Z" horiz-adv-x="396" unicode="“"/>
			<glyph d="M244 680H325Q335 680 335 670V576Q335 563 327 555L258 493Q252 486 244 486Q234 486 234 496V670Q234 680 244 680ZM71 680H152Q162 680 162 670V576Q162 563 154 555L86 493Q79 486 71 486Q61 486 61 496V670Q61 680 71 680Z" horiz-adv-x="396" unicode="”"/>
			<glyph d="M244 104H325Q335 104 335 94V0Q335 -13 327 -21L258 -83Q252 -90 244 -90Q234 -90 234 -80V94Q234 104 244 104ZM71 104H152Q162 104 162 94V0Q162 -13 154 -21L86 -83Q79 -90 71 -90Q61 -90 61 -80V94Q61 104 71 104Z" horiz-adv-x="396" unicode="„"/>
			<glyph d="M224 680H311Q321 680 321 670V457Q321 451 327 451H471Q481 451 481 441V366Q481 356 471 356H327Q321 356 321 350V-170Q321 -180 311 -180H224Q214 -180 214 -170V350Q214 356 208 356H64Q54 356 54 366V441Q54 451 64 451H208Q214 451 214 457V670Q214 680 224 680Z" horiz-adv-x="535" unicode="†"/>
			<glyph d="M224 680H311Q321 680 321 670V487Q321 481 327 481H471Q481 481 481 471V396Q481 386 471 386H327Q321 386 321 380V120Q321 114 327 114H471Q481 114 481 104V29Q481 19 471 19H327Q321 19 321 13V-170Q321 -180 311 -180H224Q214 -180 214 -170V13Q214 19 208 19H64Q54 19 54 29V104Q54 114 64 114H208Q214 114 214 120V380Q214 386 208 386H64Q54 386 54 396V471Q54 481 64 481H208Q214 481 214 487V670Q214 680 224 680Z" horiz-adv-x="535" unicode="‡"/>
			<glyph d="M229 447Q290 447 329 408T368 308Q368 247 329 208T229 169Q168 169 129 208T90 308Q90 369 129 408T229 447Z" horiz-adv-x="458" unicode="•"/>
			<glyph d="M582 122H682Q692 122 692 112V10Q692 0 682 0H582Q572 0 572 10V112Q572 122 582 122ZM329 122H429Q439 122 439 112V10Q439 0 429 0H329Q319 0 319 10V112Q319 122 329 122ZM76 122H176Q186 122 186 112V10Q186 0 176 0H76Q66 0 66 10V112Q66 122 76 122Z" horiz-adv-x="759" unicode="…"/>
			<glyph d="M562 691H627Q631 691 632 688T632 681L237 -1Q231 -11 222 -11H156Q152 -11 150 -8T151 -1L546 681Q552 691 562 691ZM192 688Q235 688 268 666T314 608Q318 596 320 582T322 509Q322 470 321 449T314 410Q302 374 268 352T192 330Q148 330 115 352T70 410Q66 422 64 435T62 509Q62 548 63 568T70 608Q82 644 115 666T192 688ZM192 616Q159 616 148 588Q144 576 144 509Q144 442 148 431Q159 402 192 402Q206 402 218 410T235 431Q239 442 239 509Q239 576 235 588T218 608T192 616ZM897 349Q941 349 974 327T1019 269Q1023 257 1025 243T1027 170Q1027 131 1026 110T1019 71Q1008 35 974 13T897 -9Q854 -9 820 13T775 71Q771 83 769 96T767 170Q767 209 768 229T775 269Q787 305 820 327T897 349ZM590 349Q633 349 666 327T712 269Q716 257 718 243T720 170Q720 131 719 110T712 71Q700 35 666 13T590 -9Q546 -9 512 13T467 71Q459 99 459 170Q459 241 467 269Q479 305 512 327T590 349ZM897 277Q883 277 870 269T854 249T850 170Q850 103 854 92Q856 87 865 75T897 63Q930 63 941 92Q945 103 945 170Q945 237 941 249Q930 277 897 277ZM590 277Q557 277 546 249Q542 237 542 170Q542 103 546 92Q557 63 590 63Q604 63 616 71T633 92Q637 103 637 170Q637 237 633 249T616 269T590 277Z" horiz-adv-x="1089" unicode="‰"/>
			<glyph d="M245 477T249 472V376Q249 365 239 355L152 268Q148 264 152 260L239 173Q249 163 249 152V56Q249 52 245 50T239 52L35 257Q28 264 35 271L239 476Q242 479 245 477Z" horiz-adv-x="315" unicode="‹"/>
			<glyph d="M69 477T76 476L280 271Q287 264 280 257L76 52Q73 49 69 50T66 56V152Q66 163 75 173L163 260Q167 264 163 268L75 355Q66 365 66 376V472Q66 476 69 477Z" horiz-adv-x="315" unicode="›"/>
			<glyph d="M236 691Q322 691 374 646T427 523Q427 460 381 394L300 278Q280 249 280 215V200Q280 190 270 190H177H176Q166 190 166 200L143 483Q143 493 153 493H251Q261 493 261 483L258 380H261L285 418Q300 441 308 462T317 519Q317 552 295 574T232 596Q163 596 143 543Q140 534 132 535L42 547Q31 549 34 559Q73 691 236 691ZM173 122H273Q283 122 283 112V10Q283 0 273 0H173Q163 0 163 10V112Q163 122 173 122Z" horiz-adv-x="464" unicode="‽"/>
			<glyph d="M250 691H315Q319 691 321 688T321 681L-74 -1Q-80 -11 -90 -11H-156Q-160 -11 -161 -8T-161 -1L234 681Q240 691 250 691Z" horiz-adv-x="159" unicode="⁄"/>
			<glyph d="M174 844Q224 844 258 821T306 758Q315 729 315 633Q315 537 306 508Q293 468 258 445T174 422Q124 422 90 445T43 508Q34 537 34 633Q34 729 43 758Q56 798 90 821T174 844ZM174 767Q158 767 145 758T129 736Q125 724 125 633Q125 542 129 530Q133 516 145 507T174 499Q190 499 203 507T220 530Q224 542 224 633Q224 724 220 736Q216 750 203 758T174 767Z" horiz-adv-x="349" unicode="⁰"/>
			<glyph d="M164 836H236Q247 836 242 826L120 566V565H194Q200 565 200 571V653Q200 663 210 663H274Q284 663 284 653V571Q284 565 290 565H307Q317 565 317 555V500Q317 490 307 490H290Q284 490 284 484V440Q284 430 274 430H210Q200 430 200 440V484Q200 490 194 490H32Q22 490 22 500V555L26 570L150 826Q155 836 164 836Z" horiz-adv-x="349" unicode="⁴"/>
			<glyph d="M57 836H292Q302 836 302 826V769Q302 759 292 759H136Q130 759 130 753V682H131Q157 696 189 696Q278 696 301 626Q309 602 309 560Q309 528 301 502Q288 464 254 443T171 422Q122 422 86 443T42 502Q40 513 47 515L111 537Q119 540 122 532Q138 501 172 501Q208 501 217 529Q221 544 221 560Q221 578 217 591Q208 619 174 619Q150 619 138 605Q132 599 126 599H57Q47 599 47 609V826Q47 836 57 836Z" horiz-adv-x="349" unicode="⁵"/>
			<glyph d="M176 836H253Q257 836 258 833T258 826L176 678L177 677L196 680Q248 680 282 644T317 552Q317 494 277 458T174 422Q114 422 73 457T32 552Q32 596 65 656L160 826Q164 836 176 836ZM174 603Q151 603 135 588T120 551Q120 528 135 513T174 499Q198 499 213 513T229 551Q229 573 213 588T174 603Z" horiz-adv-x="349" unicode="⁶"/>
			<glyph d="M52 836H301Q311 836 311 826V763L309 753L176 439Q172 430 162 430H92Q82 430 87 441L220 757V759H133Q127 759 127 753V710Q127 700 117 700H52Q42 700 42 710V826Q42 836 52 836Z" horiz-adv-x="349" unicode="⁷"/>
			<glyph d="M174 844Q239 844 274 807T309 722Q309 678 271 645V644Q319 607 319 549Q319 492 277 457T174 422Q114 422 72 457T30 549Q30 607 78 644V645Q40 678 40 722Q40 770 75 807T174 844ZM174 767Q154 767 141 754T128 722Q128 704 141 691T174 678Q194 678 207 691T221 722Q221 741 207 754T174 767ZM174 606Q151 606 134 590T118 552Q118 530 134 514T174 499Q198 499 214 514T231 552Q231 574 214 590T174 606Z" horiz-adv-x="349" unicode="⁸"/>
			<glyph d="M174 844Q237 844 277 808T317 714Q317 670 284 610L189 440Q183 430 173 430H96Q92 430 90 433T91 440L173 588L172 589L153 586Q101 586 66 622T32 714Q32 774 73 809T174 844ZM174 767Q150 767 135 752T120 715Q120 693 135 678T174 663Q198 663 213 678T229 715Q229 738 213 752T174 767Z" horiz-adv-x="349" unicode="⁹"/>
			<glyph d="M174 258Q224 258 258 235T306 172Q315 143 315 47Q315 -49 306 -78Q293 -118 258 -141T174 -164Q124 -164 90 -141T43 -78Q34 -49 34 47Q34 143 43 172Q56 212 90 235T174 258ZM174 181Q158 181 145 172T129 150Q125 138 125 47Q125 -44 129 -56Q133 -70 145 -78T174 -87Q190 -87 203 -78T220 -56Q224 -44 224 47Q224 138 220 150Q216 164 203 172T174 181Z" horiz-adv-x="349" unicode="₀"/>
			<glyph d="M168 250H233Q243 250 243 240V-146Q243 -156 233 -156H166Q156 -156 156 -146V148H154L91 107Q88 105 84 107T81 114V186Q81 196 89 201L151 243Q161 250 168 250Z" horiz-adv-x="349" unicode="₁"/>
			<glyph d="M177 258Q234 258 270 223T307 138Q307 87 263 38L154 -78V-79H297Q307 -79 307 -89V-146Q307 -156 297 -156H52Q42 -156 42 -146V-89Q42 -81 48 -75L192 83Q219 112 219 138Q219 157 207 169T176 181Q134 181 127 139Q125 129 116 131L51 145Q41 147 43 156Q47 192 83 225T177 258Z" horiz-adv-x="349" unicode="₂"/>
			<glyph d="M172 258Q233 258 268 226T304 142Q304 92 263 59V58Q282 50 298 24T314 -35Q314 -94 276 -129T176 -164Q123 -164 85 -141T36 -73Q34 -61 43 -60L107 -44Q114 -43 119 -52Q136 -87 174 -87Q197 -87 211 -73T226 -37Q226 -15 210 -1T169 13H149Q139 13 139 23V80Q139 90 149 90H164Q188 90 202 102T216 135Q216 181 170 181Q137 181 122 152Q118 144 109 146L49 160Q40 161 42 172Q51 209 86 233T172 258Z" horiz-adv-x="349" unicode="₃"/>
			<glyph d="M164 250H236Q247 250 242 240L120 -20V-21H194Q200 -21 200 -15V67Q200 77 210 77H274Q284 77 284 67V-15Q284 -21 290 -21H307Q317 -21 317 -31V-86Q317 -96 307 -96H290Q284 -96 284 -102V-146Q284 -156 274 -156H210Q200 -156 200 -146V-102Q200 -96 194 -96H32Q22 -96 22 -86V-31L26 -16L150 240Q155 250 164 250Z" horiz-adv-x="349" unicode="₄"/>
			<glyph d="M57 250H292Q302 250 302 240V183Q302 173 292 173H136Q130 173 130 167V96H131Q157 110 189 110Q278 110 301 40Q309 16 309 -26Q309 -58 301 -84Q288 -122 254 -143T171 -164Q122 -164 86 -142T42 -84Q40 -73 47 -71L111 -49Q119 -46 122 -54Q138 -85 172 -85Q208 -85 217 -57Q221 -42 221 -26Q221 -8 217 5Q208 33 174 33Q150 33 138 19Q132 13 126 13H57Q47 13 47 23V240Q47 250 57 250Z" horiz-adv-x="349" unicode="₅"/>
			<glyph d="M176 250H253Q257 250 258 247T258 240L176 92L177 91L196 94Q248 94 282 58T317 -34Q317 -92 277 -128T174 -164Q114 -164 73 -129T32 -34Q32 10 65 70L160 240Q164 250 176 250ZM174 17Q151 17 135 2T120 -35Q120 -58 135 -72T174 -87Q198 -87 213 -72T229 -35Q229 -13 213 2T174 17Z" horiz-adv-x="349" unicode="₆"/>
			<glyph d="M52 250H301Q311 250 311 240V177L309 167L176 -147Q172 -156 162 -156H92Q82 -156 87 -145L220 171V173H133Q127 173 127 167V124Q127 114 117 114H52Q42 114 42 124V240Q42 250 52 250Z" horiz-adv-x="349" unicode="₇"/>
			<glyph d="M174 258Q239 258 274 221T309 136Q309 92 271 59V58Q319 21 319 -37Q319 -94 277 -129T174 -164Q114 -164 72 -129T30 -37Q30 21 78 58V59Q40 92 40 136Q40 184 75 221T174 258ZM174 181Q154 181 141 168T128 136Q128 118 141 105T174 92Q194 92 207 105T221 136Q221 155 207 168T174 181ZM174 20Q151 20 134 4T118 -34Q118 -56 134 -71T174 -87Q198 -87 214 -71T231 -34Q231 -12 214 4T174 20Z" horiz-adv-x="349" unicode="₈"/>
			<glyph d="M174 258Q237 258 277 222T317 128Q317 84 284 24L189 -146Q183 -156 173 -156H96Q92 -156 90 -153T91 -146L173 2L172 3L153 0Q101 0 66 36T32 128Q32 188 73 223T174 258ZM174 181Q150 181 135 166T120 129Q120 107 135 92T174 77Q198 77 213 92T229 129Q229 152 213 166T174 181Z" horiz-adv-x="349" unicode="₉"/>
			<glyph d="M310 691Q379 691 428 658T504 571Q508 563 499 558L426 523Q417 519 412 527Q375 591 310 591Q238 591 215 521Q206 497 206 453Q206 447 212 447H394Q404 447 404 437L394 379Q393 369 384 369H212Q206 369 206 363V322Q206 316 212 316H374Q384 316 384 306L374 248Q373 238 364 238H212Q206 238 206 232Q206 183 215 159Q238 89 310 89Q375 89 412 153Q417 161 426 157L499 122Q508 117 504 109Q478 55 428 22T310 -11Q234 -11 181 26T106 133Q93 177 93 232Q93 238 87 238H50Q40 238 40 248V306Q40 316 50 316H87Q93 316 93 322V363Q93 369 87 369H50Q40 369 40 379V437Q40 447 50 447H87Q93 447 93 453Q93 503 106 547Q129 617 181 654T310 691Z" unicode="€"/>
			<glyph d="M555 691H620Q624 691 625 688T625 681L230 -1Q224 -11 215 -11H149Q145 -11 143 -8T144 -1L539 681Q545 691 555 691ZM195 686Q265 686 310 633L309 624L262 582Q257 579 253 583Q231 609 197 609Q155 609 141 567Q134 545 134 508Q134 470 141 449Q156 407 197 407Q231 407 253 433Q258 438 262 433L309 392Q312 390 310 382Q265 330 195 330Q146 330 109 355T59 424Q49 455 49 508Q49 561 59 592Q72 636 109 661T195 686ZM587 347Q636 347 672 322T722 253Q734 216 734 168Q734 121 722 83Q709 39 672 14T587 -11Q536 -11 498 14T449 83Q439 119 439 168Q439 217 449 253Q461 297 498 322T587 347ZM587 271Q544 271 530 228Q524 208 524 168Q524 128 530 108Q544 65 587 65Q630 65 644 108Q650 134 650 168Q650 203 644 228Q630 271 587 271Z" horiz-adv-x="782" unicode="℅"/>
			<glyph d="M269 691Q331 691 368 651T405 544Q405 477 367 404T229 243V148Q229 89 273 89Q300 89 331 115Q340 122 345 113L383 58Q387 51 380 44Q355 19 320 4T249 -11Q117 -11 117 147V173L83 148Q75 143 69 150L30 206Q25 215 32 220L117 284V488Q117 583 155 637T269 691ZM272 603Q251 603 240 580T229 502V363Q310 447 310 543Q310 570 300 586T272 603Z" horiz-adv-x="446" unicode="ℓ"/>
			<glyph d="M85 680H172Q180 680 184 674L440 225H443V671Q443 680 453 680H547Q556 680 556 671V10Q556 0 547 0H459Q451 0 447 7L191 457H188V10Q188 0 178 0H85Q75 0 75 10V671Q75 680 85 680ZM644 213H876Q886 213 886 204V146Q886 137 876 137H644Q634 137 634 146V204Q634 213 644 213ZM761 566Q903 566 903 414Q903 262 761 262Q617 262 617 414Q617 566 761 566ZM761 499Q737 499 718 484T700 414Q700 370 714 349T761 329Q821 329 821 414Q821 499 761 499Z" horiz-adv-x="947" unicode="№"/>
			<glyph d="M413 691Q503 691 588 645T718 515T764 340Q764 250 718 165T588 34T413 -11Q323 -11 238 34T107 165T62 340Q62 430 107 515T238 645T413 691ZM413 615Q298 615 220 536T142 340Q142 222 220 143T413 65Q528 65 606 143T684 340Q684 458 606 536T413 615ZM296 526H420Q580 526 580 405Q580 270 420 270H375Q370 270 370 265V149Q370 140 361 140H296Q287 140 287 149V517Q287 526 296 526ZM374 460L370 457V343L374 339H405Q451 339 474 352T498 402Q498 426 480 443T405 460Z" horiz-adv-x="826" unicode="℗"/>
			<glyph d="M436 680H489Q498 680 503 670L610 438H613L717 670Q722 680 731 680H784Q794 680 794 670V296Q794 286 784 286H726Q716 286 716 296V500H714L646 353Q641 343 633 343H587Q580 343 575 353L506 500H504V296Q504 286 494 286H436Q426 286 426 296V670Q426 680 436 680ZM52 680H347Q357 680 357 670V617Q357 607 347 607H247Q241 607 241 601V296Q241 286 231 286H168Q158 286 158 296V601Q158 607 152 607H52Q42 607 42 617V670Q42 680 52 680Z" horiz-adv-x="848" unicode="™"/>
			<glyph d="M317 691Q406 691 470 648T561 524Q572 491 576 453T580 340Q580 252 565 197T505 108V106H571Q581 106 581 96V10Q581 0 571 0H369Q359 0 359 10V95Q359 105 369 108Q410 120 435 171T460 340Q460 452 446 496Q433 538 399 561T317 585Q269 585 235 561T188 496Q174 452 174 340Q174 248 193 186T265 108Q275 105 275 95V10Q275 0 265 0H63Q53 0 53 10V96Q53 106 63 106H129V108Q91 137 72 187T54 340Q54 388 56 432T73 524Q99 606 163 648T317 691Z" horiz-adv-x="634" unicode="Ω"/>
			<glyph d="M298 493Q404 493 469 423T535 242H166V76Q220 24 298 24Q411 24 473 133L506 112Q464 48 415 18T298 -11Q193 -11 128 62T64 242Q64 350 128 421T298 493ZM298 462Q219 462 166 407V275H432V407Q372 462 298 462Z" horiz-adv-x="599" unicode="℮"/>
			<glyph d="M178 680H243Q253 680 253 670V284Q253 274 243 274H176Q166 274 166 284V578H164L101 537Q98 535 94 537T91 544V616Q91 626 99 631L161 673Q171 680 178 680ZM661 414Q722 414 757 382T793 298Q793 248 752 215V214Q771 206 787 180T803 121Q803 62 765 27T665 -8Q612 -8 574 15T525 83Q523 95 532 96L596 112Q603 113 608 104Q625 69 663 69Q686 69 700 83T715 119Q715 141 699 155T658 169H638Q628 169 628 179V236Q628 246 638 246H653Q677 246 691 258T705 291Q705 337 659 337Q626 337 611 308Q607 300 598 302L538 316Q529 317 531 328Q540 365 575 389T661 414ZM579 691H644Q648 691 650 688T650 681L255 -1Q249 -11 239 -11H173Q169 -11 167 -8T168 -1L563 681Q569 691 579 691Z" horiz-adv-x="893" unicode="⅓"/>
			</font>
</defs>
</svg>
