<?xml version="1.0" encoding="UTF-8"?>
<svg height="100%" width="100%" xmlns="http://www.w3.org/2000/svg">
	<defs>
		<font horiz-adv-x="533" id="web">
			<font-face alphabetic="0" ascent="938" descent="-259" font-family="" panose-1="2 11 10 3 2 2 3 12 2 3"/>
			<missing-glyph d="M10 680H548Q558 680 558 670V10Q558 0 548 0H10Q0 0 0 10V670Q0 680 10 680ZM96 594Q90 594 90 588V92Q90 86 96 86H462Q468 86 468 92V588Q468 594 462 594ZM283 563Q352 563 390 526T429 439Q429 417 421 393T380 336L349 304Q337 291 337 272V267Q337 257 327 257H230Q220 257 220 267V290Q220 321 242 344L273 376Q305 409 305 427Q305 440 297 448T277 456Q251 456 243 428Q240 418 231 419L140 431Q130 431 132 442Q139 496 180 529T283 563ZM230 217H327Q337 217 337 207V123Q337 113 327 113H230Q220 113 220 123V207Q220 217 230 217Z" horiz-adv-x="558"/>
			<glyph d="" horiz-adv-x="233" unicode=" "/>
			<glyph d="M156 680H330Q340 680 338 670L237 229Q235 219 227 219H99Q89 219 91 229L145 670Q147 680 156 680ZM75 156H228Q238 156 236 146L212 10Q210 0 201 0H47Q37 0 39 10L63 146Q65 156 75 156Z" horiz-adv-x="312" unicode="!"/>
			<glyph d="M329 680H442Q453 680 451 670L412 450Q410 440 400 440H288Q278 440 280 450L318 670Q320 680 329 680ZM138 680H251Q262 680 260 670L221 450Q219 440 210 440H97Q87 440 89 450L127 670Q129 680 138 680Z" horiz-adv-x="416" unicode="&quot;"/>
			<glyph d="M286 680H427Q438 680 435 670L389 522H469L515 670Q518 680 527 680H668Q678 680 675 670L629 522H688Q699 522 697 512L676 392Q674 382 664 382H586L562 304H625Q636 304 634 294L613 174Q611 164 601 164H518L471 10Q468 0 458 0H317Q306 0 309 10L357 164H278L231 10Q228 0 218 0H77Q66 0 69 10L116 164H62Q51 164 53 174L74 294Q76 304 86 304H160L184 382H125Q114 382 116 392L137 512Q139 522 149 522H227L273 670Q276 680 286 680ZM346 382L322 304H400L425 382Z" horiz-adv-x="630" unicode="#"/>
			<glyph d="M325 774H427Q437 774 435 764L421 688Q501 675 558 633Q565 626 556 616L455 500Q447 492 441 497Q400 526 357 526Q325 526 306 511T288 471Q288 439 331 435L355 432Q519 411 519 274Q519 160 460 88T300 -4L286 -84Q283 -94 274 -94H173Q163 -94 165 -84L178 -8Q69 5 8 66Q0 74 9 83L124 199Q132 207 140 199Q159 180 187 167T243 154Q274 154 295 171T317 218Q317 248 275 254L259 256Q177 266 132 312T88 429Q88 530 146 598T299 686L313 764Q315 774 325 774Z" horiz-adv-x="553" unicode="$"/>
			<glyph d="M655 692H773Q777 692 777 689T775 682L270 -2Q263 -12 252 -12H135Q131 -12 130 -9T133 -2L637 682Q644 692 655 692ZM292 688Q346 688 380 657T414 571Q414 477 383 414Q342 330 228 330Q174 330 139 360T105 446Q105 542 136 604Q177 688 292 688ZM275 597Q260 597 253 581Q248 571 238 512T228 440Q228 421 245 421Q259 421 266 437Q271 447 281 505T291 578Q291 597 275 597ZM679 350Q733 350 767 319T802 233Q802 139 771 76Q730 -8 616 -8Q562 -8 527 22T493 108Q493 204 524 266Q565 350 679 350ZM663 259Q648 259 641 243Q636 233 626 174T616 102Q616 83 632 83Q647 83 654 99Q659 109 669 167T679 240Q679 259 663 259Z" horiz-adv-x="854" unicode="%"/>
			<glyph d="M365 692Q443 692 487 651T532 547Q532 499 504 454T382 342L421 277L509 356Q516 363 523 356L603 271Q610 265 602 257L496 154Q508 139 535 139H557Q567 139 565 129L544 10Q542 0 533 0H482Q451 0 423 7T373 47Q288 -12 192 -12Q116 -12 72 34T28 143Q28 205 59 255T177 369Q136 439 136 491Q136 581 198 636T365 692ZM343 568Q323 568 308 553T294 518Q294 493 312 459Q339 479 356 497T373 536Q373 568 343 568ZM248 252Q220 231 207 214T195 178Q195 161 206 150T236 139Q263 139 299 169Z" horiz-adv-x="627" unicode="&amp;"/>
			<glyph d="M139 680H252Q263 680 261 670L222 450Q220 440 210 440H97Q87 440 89 450L128 670Q130 680 139 680Z" horiz-adv-x="226" unicode="'"/>
			<glyph d="M288 740H407Q411 740 413 737T412 730Q334 606 288 458T242 154Q242 29 270 -74Q273 -84 262 -84H143Q136 -84 131 -74Q66 52 66 206Q66 344 120 481T273 730Q281 740 288 740Z" horiz-adv-x="339" unicode="("/>
			<glyph d="M122 740H242Q249 740 254 730Q319 604 319 450Q319 312 264 175T112 -74Q104 -84 97 -84H-23Q-27 -84 -29 -81T-28 -74Q50 50 96 198T142 502Q142 627 114 730Q111 740 122 740Z" horiz-adv-x="339" unicode=")"/>
			<glyph d="M261 680H340Q350 680 348 670L333 591L404 630Q413 635 416 627L445 559Q448 551 439 546L361 505L423 467Q432 462 425 453L379 390Q373 381 365 387L304 428L292 345Q290 335 280 335H200Q190 335 192 345L207 423L137 385Q127 380 124 388L96 454Q92 464 101 468L181 510L118 550Q111 555 117 563L163 625Q169 633 177 628L237 587L250 670Q252 680 261 680Z" horiz-adv-x="431" unicode="*"/>
			<glyph d="M207 517H350Q360 517 360 507V361Q360 355 366 355H510Q520 355 520 345V207Q520 197 510 197H366Q360 197 360 191V45Q360 35 350 35H207Q197 35 197 45V191Q197 197 191 197H48Q38 197 38 207V345Q38 355 48 355H191Q197 355 197 361V507Q197 517 207 517Z" unicode="+"/>
			<glyph d="M38 165H184Q195 165 193 155L169 14Q166 3 155 -6L12 -104Q0 -112 -7 -112Q-20 -112 -17 -96L27 155Q29 165 38 165Z" horiz-adv-x="239" unicode=","/>
			<glyph d="M66 348H372Q383 348 381 338L356 192Q354 182 344 182H38Q27 182 29 192L55 338Q57 348 66 348Z" horiz-adv-x="389" unicode="-"/>
			<glyph d="M39 175H194Q205 175 203 165L176 10Q174 0 165 0H11Q0 0 2 10L28 165Q30 175 39 175Z" horiz-adv-x="247" unicode="."/>
			<glyph d="M327 692H505Q515 692 510 682L184 -2Q179 -12 168 -12H-6Q-16 -12 -11 -2L313 682Q318 692 327 692Z" horiz-adv-x="439" unicode="/"/>
			<glyph d="M361 692Q451 692 507 644T564 508Q564 445 540 315T493 136Q421 -12 244 -12Q153 -12 96 36T40 172Q40 234 64 364T112 544Q184 692 361 692ZM337 537Q308 537 294 508Q283 486 258 349T234 180Q234 143 268 143Q297 143 311 172Q322 194 347 331T372 500Q372 537 337 537Z" horiz-adv-x="553" unicode="0"/>
			<glyph d="M317 680H481Q492 680 490 670L373 10Q371 0 362 0H189Q178 0 180 10L262 477H260L129 398Q125 395 121 397T119 404L148 570Q149 579 156 584L298 674Q307 680 317 680Z" horiz-adv-x="553" unicode="1"/>
			<glyph d="M374 692Q461 692 512 645T564 527Q564 413 454 312L287 161L286 159H492Q503 159 501 149L476 10Q474 0 465 0H27Q17 0 19 10L43 139Q45 150 52 155L322 409Q373 457 373 498Q373 537 334 537Q282 537 266 464Q264 453 253 455L105 476Q97 477 99 487Q120 581 192 636T374 692Z" horiz-adv-x="553" unicode="2"/>
			<glyph d="M367 692Q458 692 509 649T560 538Q560 428 458 365V363Q518 325 518 244Q518 133 438 60T243 -12Q144 -12 89 37T39 167Q39 177 49 179L205 200Q216 202 216 191Q218 143 265 143Q293 143 311 166T330 223Q330 272 278 272H252Q242 272 244 282L267 414Q269 424 279 424H303Q331 424 349 444T367 496Q367 537 328 537Q288 537 270 489Q266 480 258 481L107 501Q99 503 102 512Q130 593 199 642T367 692Z" horiz-adv-x="553" unicode="3"/>
			<glyph d="M301 680H486Q497 680 491 669L252 259L251 256H311Q318 256 318 262L335 357Q337 367 347 367H508Q518 367 516 357L500 262Q499 256 504 256H535Q546 256 544 246L518 102Q516 92 507 92H475Q470 92 468 86L455 10Q453 0 444 0H283Q272 0 274 10L287 86Q289 92 282 92H28Q18 92 20 102L46 254L51 267L285 671Q290 680 301 680Z" horiz-adv-x="553" unicode="4"/>
			<glyph d="M156 680H558Q569 680 567 670L542 531Q540 521 530 521H283Q278 521 276 515L259 416H261Q303 458 372 458Q521 458 521 310Q521 266 510 214T479 123Q445 53 382 20T237 -12Q140 -12 93 35T46 160Q46 170 55 171L210 192Q218 193 220 183Q227 143 263 143Q296 143 310 173Q318 189 323 216T329 261Q329 305 291 305Q265 305 247 279Q242 269 233 269H85Q74 269 76 279L145 670Q147 680 156 680Z" horiz-adv-x="553" unicode="5"/>
			<glyph d="M325 680H511Q517 680 518 676T516 669L350 422V421Q355 426 374 426Q447 426 489 380T532 259Q532 190 499 130T402 29T245 -12Q150 -12 94 38T38 169Q38 207 54 260T134 408L312 672Q317 680 325 680ZM296 280Q267 280 244 255T221 197Q221 173 235 158T273 143Q302 143 325 167T348 225Q348 249 334 264T296 280Z" horiz-adv-x="553" unicode="6"/>
			<glyph d="M135 680H584Q594 680 592 670L566 526L558 501L283 10Q278 0 269 0H86Q75 0 80 11L366 511V514H281Q276 514 274 508L263 451Q261 441 252 441H92Q82 441 84 451L124 670Q126 680 135 680Z" horiz-adv-x="553" unicode="7"/>
			<glyph d="M368 692Q461 692 512 644T564 523Q564 421 480 353L479 351Q529 309 529 240Q529 174 495 118T395 25T243 -12Q150 -12 91 34T33 161Q33 216 59 266T135 351L136 353Q99 390 99 452Q99 523 139 578T238 662T368 692ZM340 537Q316 537 296 517T277 470Q277 451 289 438T321 426Q345 426 364 446T384 493Q384 513 372 525T340 537ZM294 275Q264 275 241 251T219 196Q219 173 234 158T272 143Q302 143 324 166T347 221Q347 245 332 260T294 275Z" horiz-adv-x="553" unicode="8"/>
			<glyph d="M362 692Q457 692 513 642T569 511Q569 473 553 420T473 272L295 8Q290 0 282 0H96Q90 0 88 3T91 11L257 258V259Q252 254 233 254Q160 254 117 300T75 421Q75 490 107 549T205 650T362 692ZM334 537Q305 537 282 513T259 455Q259 431 273 415T311 400Q341 400 363 424T386 483Q386 507 372 522T334 537Z" horiz-adv-x="553" unicode="9"/>
			<glyph d="M95 490H249Q260 490 258 480L232 325Q230 315 221 315H66Q55 315 57 325L84 480Q86 490 95 490ZM39 175H194Q205 175 203 165L176 10Q174 0 165 0H11Q0 0 2 10L28 165Q30 175 39 175Z" horiz-adv-x="247" unicode=":"/>
			<glyph d="M95 490H249Q260 490 258 480L232 325Q230 315 221 315H66Q55 315 57 325L84 480Q86 490 95 490ZM44 175H190Q201 175 199 165L175 24Q172 13 161 4L18 -94Q6 -102 -1 -102Q-13 -102 -11 -86L33 165Q35 175 44 175Z" horiz-adv-x="247" unicode=";"/>
			<glyph d="M510 514Q520 517 520 507V359Q520 350 510 346L285 277V275L510 206Q520 202 520 193V45Q520 35 510 38L48 203Q38 206 38 217V335Q38 346 48 349Z" unicode="&lt;"/>
			<glyph d="M56 470H518Q528 470 528 460V322Q528 312 518 312H56Q46 312 46 322V460Q46 470 56 470ZM56 240H518Q528 240 528 230V92Q528 82 518 82H56Q46 82 46 92V230Q46 240 56 240Z" unicode="="/>
			<glyph d="M48 514L510 349Q520 346 520 335V217Q520 206 510 203L48 38Q38 35 38 45V193Q38 202 48 206L272 275V277L48 346Q38 350 38 359V507Q38 517 48 514Z" unicode="&gt;"/>
			<glyph d="M337 692Q426 692 478 645T530 528Q530 486 509 442T417 335L374 298Q347 274 342 241L340 229Q338 219 330 219H175Q164 219 166 229L173 269Q184 322 221 354L277 404Q304 427 322 449T341 495Q341 533 306 533Q266 533 244 482Q239 471 229 473L89 493Q80 495 83 504Q108 587 176 639T337 692ZM164 156H319Q329 156 327 146L303 10Q301 0 292 0H137Q127 0 129 10L153 146Q155 156 164 156Z" horiz-adv-x="501" unicode="?"/>
			<glyph d="M548 690Q713 690 810 595T908 347Q908 212 836 131T660 50Q609 50 574 69T528 119H527Q480 50 390 50Q327 50 293 85T259 178Q259 221 273 290T303 390Q349 481 441 481Q477 481 502 467T536 432H537L542 462Q544 471 553 471H691Q699 471 697 462L656 230Q653 212 659 195T689 178Q719 178 740 220T762 336Q762 448 700 505T525 562Q469 562 410 542T301 476T218 357T185 191Q185 88 247 27T420 -33Q516 -33 613 20Q623 25 627 18L681 -76Q686 -84 676 -90Q622 -127 547 -147T398 -168Q232 -168 134 -73T36 174Q36 282 72 377T176 541T338 650T548 690ZM480 354Q451 354 437 324Q431 311 423 273T416 217Q416 178 450 178Q480 178 493 208Q499 221 506 259T514 315Q514 354 480 354Z" horiz-adv-x="929" unicode="@"/>
			<glyph d="M331 680H528Q539 680 539 670L646 10Q648 0 639 0H449Q439 0 437 10L428 103H234L193 10Q188 0 179 0H-22Q-33 0 -28 10L318 670Q321 680 331 680ZM394 458L309 269H413L396 458Z" horiz-adv-x="691" unicode="A"/>
			<glyph d="M136 680H418Q515 680 562 643T609 539Q609 478 580 429T498 352L497 350Q529 336 547 304T566 228Q566 125 491 62T299 0H17Q7 0 9 10L126 670Q128 680 136 680ZM309 536Q304 536 302 530L282 417Q281 411 286 411H320Q357 411 380 431T403 490Q403 508 392 522T342 536ZM265 285Q260 285 258 279L236 151Q235 145 240 145H284Q322 145 344 169T367 236Q367 285 309 285Z" horiz-adv-x="590" unicode="B"/>
			<glyph d="M376 692Q466 692 521 650T594 530Q597 520 587 516L427 454Q415 449 412 460Q402 513 355 513Q310 513 286 464Q274 439 257 351T241 227Q241 200 255 183T294 167Q336 167 369 222Q375 234 384 229L526 147Q534 141 529 132Q489 67 428 27T266 -12Q163 -12 100 45T38 207Q38 268 57 370T103 530Q183 692 376 692Z" horiz-adv-x="562" unicode="C"/>
			<glyph d="M136 680H401Q619 680 619 475Q619 411 600 310T556 157Q479 0 282 0H17Q7 0 9 10L126 670Q128 680 136 680ZM303 501Q299 501 297 495L242 185Q241 179 246 179H274Q304 179 329 187T373 233Q386 260 399 328T412 427Q412 466 393 483T328 501Z" horiz-adv-x="616" unicode="D"/>
			<glyph d="M136 680H578Q588 680 586 670L559 522Q557 512 549 512H303Q297 512 297 506L284 431Q283 425 288 425H484Q494 425 492 415L467 271Q465 261 455 261H259Q255 261 253 255L238 174Q238 168 243 168H487Q497 168 495 158L469 10Q467 0 458 0H17Q7 0 9 10L126 670Q128 680 136 680Z" unicode="E"/>
			<glyph d="M136 680H578Q588 680 586 670L559 522Q557 512 549 512H303Q297 512 297 506L282 421Q282 415 286 415H482Q492 415 490 405L465 261Q463 251 453 251H257Q253 251 251 245L209 10Q207 0 198 0H17Q7 0 9 10L126 670Q128 680 136 680Z" horiz-adv-x="530" unicode="F"/>
			<glyph d="M381 692Q457 692 518 658T606 546Q610 534 598 529L439 468Q427 463 422 473Q403 513 359 513Q309 513 286 464Q275 442 258 353T241 227Q241 200 256 183T302 167Q359 167 379 208L385 232Q385 238 379 238H329Q320 238 322 248L345 374Q347 384 356 384H601Q610 384 608 374L600 328Q578 203 548 146Q511 74 448 31T277 -12Q166 -12 102 44T38 208Q38 267 57 372T103 530Q182 692 381 692Z" horiz-adv-x="600" unicode="G"/>
			<glyph d="M137 680H319Q330 680 328 670L288 441Q287 435 292 435H430Q436 435 437 441L478 670Q480 680 489 680H671Q682 680 680 670L563 10Q561 0 552 0H370Q359 0 361 10L403 250Q405 256 398 256H260Q256 256 254 250L211 10Q209 0 200 0H18Q7 0 9 10L126 670Q128 680 137 680Z" horiz-adv-x="641" unicode="H"/>
			<glyph d="M137 680H319Q330 680 328 670L211 10Q209 0 200 0H18Q7 0 9 10L126 670Q128 680 137 680Z" horiz-adv-x="289" unicode="I"/>
			<glyph d="M368 680H551Q562 680 560 670L489 273Q437 -12 174 -12Q107 -12 54 17T-19 90Q-21 99 -15 104L128 202Q137 207 140 201Q164 167 200 167Q266 167 283 252L358 670Q360 680 368 680Z" horiz-adv-x="519" unicode="J"/>
			<glyph d="M137 680H319Q330 680 328 670L289 450L472 670Q481 680 491 680H705Q711 680 713 675T711 667L466 399L595 11Q596 7 594 3T588 0H396Q383 0 380 10L312 248L237 157L211 10Q209 0 200 0H18Q7 0 9 10L126 670Q128 680 137 680Z" horiz-adv-x="637" unicode="K"/>
			<glyph d="M137 680H319Q330 680 328 670L242 185Q241 179 246 179H481Q492 179 490 169L461 10Q459 0 450 0H18Q7 0 9 10L126 670Q128 680 137 680Z" horiz-adv-x="522" unicode="L"/>
			<glyph d="M136 680H304Q317 680 319 670L398 344H402L592 670Q597 680 610 680H789Q800 680 798 670L681 10Q679 0 670 0H507Q496 0 498 10L555 333H551L422 106Q415 93 402 93H317Q305 93 300 106L251 333H247L191 10Q189 0 180 0H17Q7 0 9 10L126 670Q128 680 136 680Z" horiz-adv-x="759" unicode="M"/>
			<glyph d="M137 680H309Q321 680 324 670L423 323H427L488 670Q490 680 499 680H662Q672 680 670 670L553 10Q551 0 542 0H368Q358 0 355 10L257 357H252L191 10Q189 0 180 0H18Q7 0 9 10L126 670Q128 680 137 680Z" horiz-adv-x="631" unicode="N"/>
			<glyph d="M378 692Q489 692 552 635T616 472Q616 412 597 307T551 150Q515 78 447 33T276 -12Q165 -12 101 44T38 208Q38 268 57 372T103 530Q139 602 206 647T378 692ZM357 513Q309 513 286 464Q275 442 258 353T241 227Q241 200 255 183T297 167Q345 167 368 216Q379 238 396 327T413 453Q413 480 398 496T357 513Z" horiz-adv-x="606" unicode="O"/>
			<glyph d="M136 680H408Q521 680 576 631T632 496Q632 367 547 290T327 214H252Q247 214 245 208L210 10Q208 0 199 0H17Q7 0 9 10L126 670Q128 680 136 680ZM304 512Q298 512 298 506L277 389Q277 383 281 383H345Q382 383 404 404T426 463Q426 512 368 512Z" horiz-adv-x="599" unicode="P"/>
			<glyph d="M378 692Q489 692 552 635T616 472Q616 413 597 308T551 150L606 72Q613 63 603 56L460 -57Q451 -65 444 -56L400 9Q343 -12 276 -12Q165 -12 101 44T38 208Q38 268 57 372T103 530Q139 602 206 647T378 692ZM357 513Q309 513 286 464Q275 442 258 353T241 227Q241 200 255 183T297 167Q345 167 368 216Q379 238 396 327T413 453Q413 480 398 496T357 513Z" horiz-adv-x="606" unicode="Q"/>
			<glyph d="M136 680H411Q518 680 573 630T629 497Q629 417 592 356T492 262L558 11Q560 0 550 0H370Q359 0 356 10L308 226H254Q250 226 248 220L210 10Q208 0 199 0H17Q7 0 9 10L126 670Q128 680 136 680ZM304 512Q298 512 298 506L278 395Q277 389 282 389H344Q379 389 401 410T424 467Q424 488 409 500T367 512Z" horiz-adv-x="610" unicode="R"/>
			<glyph d="M368 692Q439 692 502 670T607 613Q615 607 606 596L499 475Q491 467 483 473Q424 519 353 519Q323 519 304 506T285 475Q285 446 343 437L377 432Q574 403 574 253Q574 131 487 59T257 -12Q176 -12 99 18T-10 89Q-18 99 -8 107L112 224Q115 227 120 227Q125 227 127 224Q152 198 192 180T275 162Q315 162 339 176T363 213Q363 243 306 252L271 257Q75 285 75 434Q75 549 154 620T368 692Z" horiz-adv-x="595" unicode="S"/>
			<glyph d="M101 680H628Q639 680 637 670L608 511Q606 501 597 501H440Q435 501 433 495L347 10Q345 0 336 0H154Q143 0 145 10L231 495Q233 501 227 501H71Q60 501 62 511L90 670Q92 680 101 680Z" horiz-adv-x="562" unicode="T"/>
			<glyph d="M133 680H315Q326 680 324 670L251 258Q244 215 258 191T306 167Q376 167 392 258L465 670Q467 680 476 680H659Q669 680 667 670L597 275Q570 123 494 55T288 -12Q153 -12 90 61T51 275L122 670Q124 680 133 680Z" horiz-adv-x="625" unicode="U"/>
			<glyph d="M90 680H273Q285 680 286 670L323 290H326L492 670Q496 680 506 680H705Q711 680 713 676T713 668L384 10Q380 0 369 0H189Q177 0 176 10L79 668Q77 680 90 680Z" horiz-adv-x="629" unicode="V"/>
			<glyph d="M86 680H276Q288 680 288 670L298 298H300L456 670Q460 680 470 680H588Q600 680 601 670L631 298H633L772 670Q775 680 785 680H987Q998 680 993 670L686 10Q682 0 672 0H525Q514 0 513 10L479 351H477L325 10Q321 0 311 0H165Q153 0 152 10L79 670Q77 680 86 680Z" horiz-adv-x="910" unicode="W"/>
			<glyph d="M117 680H305Q317 680 321 670L375 537H378L474 670Q482 680 492 680H688Q692 680 693 677T692 670L454 353L596 10Q600 0 589 0H404Q391 0 387 10L321 172H319L201 10Q194 0 182 0H-26Q-30 0 -31 3T-30 10L243 360L110 670Q106 680 117 680Z" horiz-adv-x="628" unicode="X"/>
			<glyph d="M86 680H257Q269 680 272 670L334 449H337L477 670Q483 680 494 680H683Q688 680 690 676T689 669L411 255L368 10Q366 0 357 0H175Q164 0 166 10L209 255L77 669Q76 673 78 676T86 680Z" horiz-adv-x="605" unicode="Y"/>
			<glyph d="M140 680H614Q625 680 623 670L595 515L590 505L271 182L270 179H526Q536 179 534 169L506 10Q504 0 495 0H11Q0 0 2 10L30 166L35 176L352 498L353 501H109Q99 501 101 511L130 670Q132 680 140 680Z" horiz-adv-x="578" unicode="Z"/>
			<glyph d="M151 740H382Q392 740 390 730L369 609Q367 599 358 599H284Q279 599 277 593L183 63Q183 57 188 57H261Q272 57 270 47L249 -74Q247 -84 238 -84H6Q-5 -84 -3 -74L139 730Q141 740 151 740Z" horiz-adv-x="321" unicode="["/>
			<glyph d="M110 692H276Q285 692 287 682L386 -2Q388 -12 377 -12H212Q202 -12 200 -2L101 682Q99 692 110 692Z" horiz-adv-x="439" unicode="\"/>
			<glyph d="M125 740H357Q368 740 366 730L224 -74Q222 -84 212 -84H-19Q-29 -84 -27 -74L-6 47Q-4 57 5 57H79Q85 57 86 63L180 593Q180 599 175 599H102Q91 599 93 609L114 730Q116 740 125 740Z" horiz-adv-x="321" unicode="]"/>
			<glyph d="M211 680H346Q357 680 360 670L522 245Q525 235 515 235H357Q347 235 344 245L280 447H278L213 245Q210 235 200 235H42Q32 235 35 245L197 670Q202 680 211 680Z" unicode="^"/>
			<glyph d="M-46 -51H519L495 -187H-70Z" horiz-adv-x="565" unicode="_"/>
			<glyph d="M258 704H407Q419 704 422 694L477 551Q480 541 469 541H347Q335 541 329 551L252 694Q250 698 252 701T258 704Z" horiz-adv-x="516" unicode="`"/>
			<glyph d="M298 502Q419 502 470 460T502 313L447 10Q445 0 436 0H273Q262 0 264 10L268 35H267Q217 -12 135 -12Q82 -12 45 20T8 107Q8 201 70 251T247 302H311Q318 302 319 308L322 319Q326 339 310 347T242 356Q216 356 185 348T138 331Q129 327 126 336L87 438Q83 447 93 454Q120 471 172 486T298 502ZM245 192Q219 192 205 180T191 148Q191 120 228 120Q286 120 292 158L296 186Q298 192 291 192Z" horiz-adv-x="522" unicode="a"/>
			<glyph d="M134 680H308Q319 680 317 670L276 443H277Q320 502 406 502Q468 502 504 467T540 343Q540 292 524 216T485 94Q433 -12 316 -12Q285 -12 253 0T208 47H207L200 10Q198 0 189 0H15Q5 0 7 10L124 670Q126 680 134 680ZM306 347Q274 347 259 316Q251 300 242 253T234 187Q234 143 271 143Q302 143 318 174Q326 190 334 236T343 303Q343 347 306 347Z" horiz-adv-x="547" unicode="b"/>
			<glyph d="M307 502Q385 502 435 464T494 370Q495 361 487 357L344 300Q331 294 328 305Q323 322 315 334T287 347Q255 347 241 317Q232 298 223 251T214 183Q214 143 251 143Q282 143 308 188Q314 198 324 194L455 132Q463 128 458 119Q378 -12 216 -12Q129 -12 75 36T21 171Q21 276 62 361Q130 502 307 502Z" horiz-adv-x="489" unicode="c"/>
			<glyph d="M405 680H578Q589 680 587 670L470 10Q468 0 459 0H286Q276 0 278 10L284 47H283Q240 -12 154 -12Q19 -12 19 147Q19 198 35 273T74 395Q126 501 243 501Q274 501 306 488T352 442H353L395 670Q397 680 405 680ZM289 346Q257 346 242 315Q234 299 225 252T217 186Q217 142 253 142Q285 142 301 173Q309 189 317 235T326 302Q326 346 289 346Z" horiz-adv-x="547" unicode="d"/>
			<glyph d="M311 502Q402 502 457 456T513 327Q513 286 499 202Q497 192 487 192H210Q205 192 203 187L202 177Q202 128 280 128Q331 128 389 167Q398 173 403 166L463 82Q470 73 461 66Q368 -12 233 -12Q137 -12 79 34T21 171Q21 215 31 268T62 362Q130 502 311 502ZM291 372Q251 372 232 335Q225 321 225 308Q225 302 230 302H327Q333 302 334 308Q337 317 337 327Q337 372 291 372Z" horiz-adv-x="523" unicode="e"/>
			<glyph d="M332 680H406Q416 680 414 670L393 551Q391 541 382 541H355Q337 541 323 535T305 504L304 497T309 490H371Q381 490 379 480L358 365Q356 355 347 355H285Q280 355 278 349L221 10Q219 0 211 0H38Q27 0 29 10L87 349Q89 355 82 355H57Q48 355 50 365L70 480Q72 490 81 490H106Q112 490 113 496L115 502Q129 588 173 634T332 680Z" horiz-adv-x="352" unicode="f"/>
			<glyph d="M239 502Q268 502 301 489T348 442H349L356 480Q358 490 368 490H538Q548 490 546 480L482 88Q455 -64 382 -128T180 -192Q118 -192 64 -168T-14 -105Q-19 -97 -10 -90L95 -2Q103 5 111 -1Q150 -37 192 -37Q231 -37 252 -16T282 55L289 91H288Q245 33 160 33Q25 33 25 184Q25 234 37 294T69 394Q122 502 239 502ZM285 347Q252 347 237 315Q230 302 224 273T219 227Q219 184 255 184Q287 184 303 216Q310 229 316 258T322 304Q322 347 285 347Z" horiz-adv-x="539" unicode="g"/>
			<glyph d="M134 680H308Q318 680 316 670L276 442H277Q325 502 407 502Q563 502 529 319L473 10Q471 0 462 0H289Q278 0 280 10L329 289Q339 344 299 344Q258 344 249 290L200 10Q198 0 189 0H15Q5 0 7 10L123 670Q125 680 134 680Z" horiz-adv-x="549" unicode="h"/>
			<glyph d="M134 680H308Q318 680 316 670L295 550Q293 540 284 540H110Q100 540 102 550L123 670Q125 680 134 680ZM101 490H275Q285 490 283 480L200 10Q198 0 189 0H15Q5 0 7 10L90 480Q92 490 101 490Z" horiz-adv-x="276" unicode="i"/>
			<glyph d="M134 680H308Q318 680 316 670L295 550Q293 540 284 540H110Q100 540 102 550L123 670Q125 680 134 680ZM101 490H275Q285 490 283 480L204 29Q185 -77 134 -128T-46 -180H-88Q-98 -180 -95 -170L-71 -35Q-69 -25 -60 -25H-51Q-22 -25 -9 -14T10 30L90 480Q92 490 101 490Z" horiz-adv-x="276" unicode="j"/>
			<glyph d="M131 680H304Q315 680 313 670L258 354L364 481Q372 490 384 490H557Q562 490 563 487T562 480L402 308L497 10Q501 0 491 0H313Q303 0 300 10L252 193L224 159L198 10Q196 0 187 0H15Q5 0 7 10L121 670Q123 680 131 680Z" horiz-adv-x="536" unicode="k"/>
			<glyph d="M132 680H306Q317 680 315 670L230 204Q227 184 231 168T260 153H279Q289 153 287 143L262 4Q260 -6 251 -6H183Q93 -6 53 31T33 180L122 670Q124 680 132 680Z" horiz-adv-x="319" unicode="l"/>
			<glyph d="M407 502Q493 502 520 443H521Q580 502 677 502Q835 502 802 319L746 10Q744 0 735 0H562Q551 0 553 10L602 289Q612 344 572 344Q531 344 522 290L473 10Q471 0 462 0H289Q278 0 280 10L329 289Q339 344 299 344Q258 344 249 290L200 10Q198 0 189 0H15Q5 0 7 10L90 480Q92 490 101 490H274Q284 490 282 480L276 442H277Q325 502 407 502Z" horiz-adv-x="822" unicode="m"/>
			<glyph d="M407 502Q563 502 529 320L473 10Q471 0 462 0H289Q278 0 280 10L329 289Q339 344 299 344Q258 344 249 290L200 10Q198 0 189 0H15Q5 0 7 10L90 480Q92 490 101 490H274Q284 490 282 480L276 442H277Q325 502 407 502Z" horiz-adv-x="549" unicode="n"/>
			<glyph d="M307 502Q400 502 456 453T512 313Q512 270 502 218T473 128Q404 -12 226 -12Q133 -12 77 36T21 177Q21 220 31 271T60 362Q129 502 307 502ZM285 347Q253 347 238 316Q230 298 220 251T211 184Q211 143 248 143Q280 143 295 174Q303 192 312 239T322 306Q322 347 285 347Z" horiz-adv-x="522" unicode="o"/>
			<glyph d="M406 502Q468 502 504 467T540 343Q540 292 524 216T485 94Q433 -12 316 -12Q285 -12 253 0T208 47H207L168 -170Q166 -180 157 -180H-17Q-27 -180 -25 -170L90 480Q92 490 100 490H274Q285 490 283 480L276 442H277Q297 469 331 485T406 502ZM306 347Q274 347 259 316Q251 300 242 253T234 187Q234 143 271 143Q302 143 318 174Q326 190 334 236T343 303Q343 347 306 347Z" horiz-adv-x="547" unicode="p"/>
			<glyph d="M244 502Q275 502 307 489T352 442H353L360 480Q362 490 370 490H544Q555 490 553 480L439 -170Q437 -180 428 -180H255Q245 -180 247 -170L284 47H283Q240 -12 154 -12Q19 -12 19 147Q19 198 35 274T74 396Q126 502 244 502ZM289 346Q257 346 242 315Q234 299 225 252T217 186Q217 142 253 142Q285 142 301 173Q309 189 317 235T326 302Q326 346 289 346Z" horiz-adv-x="547" unicode="q"/>
			<glyph d="M411 502Q438 502 453 496Q464 493 459 482L372 306Q367 296 357 303Q326 324 302 324Q255 324 243 252L200 10Q198 0 189 0H15Q5 0 7 10L90 480Q92 490 101 490H274Q284 490 282 480L274 435H275Q318 502 411 502Z" horiz-adv-x="420" unicode="r"/>
			<glyph d="M302 502Q350 502 409 487T510 437Q517 431 508 422L427 336Q420 329 412 333Q352 371 284 371Q269 371 253 365T238 346Q238 329 277 325L329 319Q486 302 486 191Q486 100 415 44T224 -12Q82 -12 -7 66Q-10 68 -9 73T-6 81L83 172Q90 179 99 173Q179 123 251 123Q274 123 288 131T303 152Q303 168 257 173L204 179Q136 187 97 219T59 306Q59 396 124 449T302 502Z" horiz-adv-x="509" unicode="s"/>
			<glyph d="M142 630H315Q324 630 322 620L299 496Q298 490 304 490H362Q372 490 370 480L350 365Q348 355 338 355H278Q273 355 271 349L245 209Q240 185 243 169T278 153H298Q309 153 307 143L282 4Q280 -6 270 -6H210Q114 -6 72 36T53 201L82 349Q84 355 77 355H51Q42 355 44 365L64 480Q66 490 75 490H100Q106 490 107 496L130 620Q132 630 142 630Z" horiz-adv-x="342" unicode="t"/>
			<glyph d="M98 490H272Q282 490 280 480L230 200Q221 146 261 146Q302 146 311 200L360 480Q362 490 371 490H545Q555 490 553 480L470 10Q468 0 459 0H286Q276 0 278 10L284 47H283Q234 -12 151 -12Q0 -12 33 171L87 480Q89 490 98 490Z" horiz-adv-x="546" unicode="u"/>
			<glyph d="M61 490H236Q248 490 249 480L273 243H275L380 480Q384 490 397 490H579Q590 490 585 480L330 10Q325 0 318 0H151Q142 0 140 10L52 480Q50 490 61 490Z" horiz-adv-x="543" unicode="v"/>
			<glyph d="M63 490H231Q243 490 243 480L253 251H255L358 480Q362 490 374 490H477Q488 490 489 480L512 251H514L602 480Q606 490 619 490H797Q808 490 803 480L563 10Q559 0 551 0H420Q411 0 410 10L387 233H385L281 10Q277 0 268 0H138Q128 0 127 10L53 480Q53 490 63 490Z" horiz-adv-x="762" unicode="w"/>
			<glyph d="M78 490H251Q261 490 264 483L299 404H301L364 483Q370 490 380 490H561Q566 490 567 487T565 480L375 251L492 10Q493 6 491 3T485 0H307Q298 0 295 8L253 101H252L176 8Q169 0 160 0H-28Q-32 0 -33 3T-32 10L177 257L70 480Q69 484 71 487T78 490Z" horiz-adv-x="542" unicode="x"/>
			<glyph d="M60 490H235Q245 490 246 480L280 264H282L384 480Q388 490 399 490H579Q584 490 585 486T585 479L267 -69Q240 -117 200 -148T68 -180H28Q18 -180 20 -170L44 -35Q46 -25 56 -25H83Q105 -25 119 -17T143 9L156 36L52 480Q50 490 60 490Z" horiz-adv-x="543" unicode="y"/>
			<glyph d="M111 490H504Q513 490 511 480L489 352Q488 345 482 339L256 152V149H443Q453 149 451 139L428 10Q426 0 416 0H12Q3 0 5 10L27 138Q28 147 34 151L260 339V342H84Q75 342 77 352L100 480Q102 490 111 490Z" horiz-adv-x="494" unicode="z"/>
			<glyph d="M339 740H419Q429 740 427 730L406 609Q404 599 394 599H375Q333 599 325 552L309 461Q299 406 278 376T217 330V328Q243 316 259 290T263 196L247 104Q239 57 279 57H298Q309 57 307 47L285 -74Q283 -84 274 -84H194Q124 -84 97 -52T81 45L102 169Q118 258 50 259Q39 259 41 269L63 390Q65 400 74 400Q142 400 158 488L180 611Q203 740 339 740Z" horiz-adv-x="366" unicode="{"/>
			<glyph d="M111 740H261Q271 740 271 730V-74Q271 -84 261 -84H111Q101 -84 101 -74V730Q101 740 111 740Z" horiz-adv-x="332" unicode="|"/>
			<glyph d="M134 740H215Q350 740 327 611L306 489Q290 400 358 400Q369 400 367 390L345 269Q343 259 334 259Q266 259 250 170L228 45Q206 -84 70 -84H-11Q-21 -84 -19 -74L2 47Q4 57 14 57H33Q75 57 83 104L99 197Q109 252 130 282T191 328V330Q165 342 149 367T145 462L162 552Q170 599 130 599H110Q99 599 101 609L123 730Q125 740 134 740Z" horiz-adv-x="366" unicode="}"/>
			<glyph d="M188 375Q243 375 288 343Q323 318 351 318Q383 318 410 363Q415 372 424 367L518 306Q526 301 522 292Q499 241 458 208T369 175Q312 175 269 206Q234 231 207 231Q174 231 148 187Q143 178 134 183L40 243Q32 248 36 257Q59 308 99 341T188 375Z" unicode="~"/>
			<glyph d="" horiz-adv-x="233" unicode=" "/>
			<glyph d="M106 271H234Q244 271 242 261L188 -180Q186 -190 177 -190H3Q-7 -190 -5 -180L96 261Q98 271 106 271ZM132 490H286Q296 490 294 480L270 344Q268 334 258 334H105Q95 334 97 344L121 480Q123 490 132 490Z" horiz-adv-x="312" unicode="¡"/>
			<glyph d="M303 585H404Q414 585 412 575L398 496Q453 484 489 449T533 370Q534 361 526 357L383 302Q370 296 367 306Q360 348 323 348Q290 348 276 317Q267 298 258 251T249 183Q249 143 288 143Q321 143 347 188Q354 199 365 192L495 127Q503 123 498 114Q433 8 309 -8L296 -85Q294 -95 284 -95H183Q173 -95 175 -85L189 -4Q128 11 92 57T56 171Q56 276 97 361Q124 416 170 450T277 496L291 575Q293 585 303 585Z" horiz-adv-x="553" unicode="¢"/>
			<glyph d="M398 692Q484 692 530 646T571 531Q571 521 562 519L409 490Q400 489 400 498Q400 537 374 537Q344 537 337 492L321 394Q320 388 325 388H449Q460 388 458 378L438 268Q436 258 427 258H302Q296 258 295 251L293 239Q286 189 247 160L246 158H495Q505 158 503 148L479 10Q477 0 468 0H30Q19 0 21 10L45 144Q46 154 55 160Q93 190 101 233L105 252Q107 258 100 258H75Q64 258 66 268L86 378Q88 388 97 388H122Q129 388 130 394L146 484Q163 583 230 637T398 692Z" horiz-adv-x="553" unicode="£"/>
			<glyph d="M461 520Q469 528 475 520L558 419Q563 412 555 405L482 341L486 301Q486 240 452 180L501 118Q508 111 499 104L388 11Q379 4 374 11L327 70Q285 53 241 53Q199 53 166 68L96 8Q88 0 82 8L-2 109Q-8 116 1 123L73 186L70 225Q70 290 104 347L55 409Q49 416 58 423L167 516Q176 523 181 516L229 456Q269 473 315 473Q356 473 389 458ZM291 340Q257 340 231 311T206 247Q206 221 222 203T265 186Q298 186 324 215T350 279Q350 306 333 323T291 340Z" unicode="¤"/>
			<glyph d="M104 680H282Q295 680 296 670L318 448H321L422 670Q426 680 438 680H620Q630 680 626 670L427 326V324H506Q515 324 513 314L502 253Q500 243 491 243H388Q383 243 381 237L377 213Q376 207 382 207H485Q494 207 492 197L481 136Q479 126 470 126H367Q362 126 360 120L340 10Q338 0 329 0H157Q146 0 148 10L167 120Q169 126 162 126H58Q49 126 51 136L62 197Q64 207 73 207H177Q183 207 184 213L188 237Q190 243 183 243H79Q70 243 72 253L83 314Q85 324 94 324H173V326L95 670Q95 680 104 680Z" horiz-adv-x="553" unicode="¥"/>
			<glyph d="M111 740H261Q271 740 271 730V398Q271 388 261 388H111Q101 388 101 398V730Q101 740 111 740ZM111 272H261Q271 272 271 262V-74Q271 -84 261 -84H111Q101 -84 101 -74V262Q101 272 111 272Z" horiz-adv-x="332" unicode="¦"/>
			<glyph d="M332 696Q420 696 465 649T505 536Q504 525 492 523L353 505Q344 503 344 513Q344 556 312 556Q293 556 280 544T268 513Q268 479 339 456Q474 413 474 298Q474 183 368 111V109Q405 74 405 15Q405 -79 337 -137T168 -196Q91 -196 42 -157T-7 -39Q-7 -28 4 -26L148 -7Q158 -6 158 -16Q156 -56 191 -56Q210 -56 222 -43T234 -8Q234 25 163 48Q29 91 29 202Q29 321 135 393V395Q97 431 97 487Q97 576 165 636T332 696ZM262 312Q235 312 217 288T200 236Q200 216 211 204T241 192Q267 192 284 216T302 268Q302 288 291 300T262 312Z" horiz-adv-x="487" unicode="§"/>
			<glyph d="M381 684H503Q513 684 511 674L489 554Q487 544 478 544H356Q345 544 347 554L369 674Q371 684 381 684ZM178 684H300Q310 684 308 674L286 554Q284 544 275 544H153Q142 544 144 554L166 674Q168 684 178 684Z" horiz-adv-x="513" unicode="¨"/>
			<glyph d="M412 692Q563 692 663 591T764 339Q764 187 663 86T412 -14Q357 -14 297 3T184 64T95 176T59 339Q59 394 76 454T137 566T249 655T412 692ZM412 606Q295 606 220 530T145 339Q145 223 220 147T412 72Q528 72 603 147T678 339Q678 455 603 530T412 606ZM417 536Q478 536 525 507T590 438Q594 428 584 425L479 381Q470 376 466 386Q453 417 423 417Q394 417 385 391Q381 379 381 341Q381 303 385 291Q394 265 423 265Q453 265 466 296Q470 306 479 301L584 257Q594 254 590 244Q573 203 525 174T417 146Q354 146 305 175T238 260Q228 289 228 341Q228 392 238 422Q256 477 305 506T417 536Z" horiz-adv-x="777" unicode="©"/>
			<glyph d="M259 689Q339 689 371 663T394 579L362 402Q360 392 351 392H254Q243 392 245 402L248 416H247Q219 386 166 386Q129 386 104 404T80 456Q80 509 121 540T228 571H268Q275 571 276 577L277 581Q282 605 231 605Q193 605 159 586Q150 580 147 590L125 644Q122 653 132 658Q183 689 259 689ZM225 505Q212 505 203 498T195 480Q195 462 217 462Q256 462 260 487L262 499Q264 505 258 505Z" horiz-adv-x="367" unicode="ª"/>
			<glyph d="M596 519T599 513L570 353Q567 340 556 330L475 258Q470 254 473 250L529 178Q538 168 535 156L510 13Q509 9 505 8T499 11L296 257Q290 265 298 271L590 518Q593 521 596 519ZM325 519T328 513L299 353Q296 340 285 330L204 258Q199 254 202 250L258 178Q267 168 264 156L239 13Q238 9 234 8T228 11L25 257Q19 265 27 271L319 518Q322 521 325 519Z" horiz-adv-x="596" unicode="«"/>
			<glyph d="M48 355H510Q520 355 520 345V79Q520 69 510 69H367Q357 69 357 79V191Q357 197 351 197H48Q38 197 38 207V345Q38 355 48 355Z" unicode="¬"/>
			<glyph d="M70 351H376Q386 351 384 341L359 197Q357 187 347 187H41Q31 187 33 197L58 341Q60 351 70 351Z" horiz-adv-x="396" unicode="­"/>
			<glyph d="M264 684Q346 684 402 629T458 493Q458 411 402 356T264 301Q181 301 125 356T69 493Q69 574 125 629T264 684ZM264 642Q199 642 157 600T115 493Q115 427 157 385T264 343Q329 343 370 385T412 493Q412 558 370 600T264 642ZM183 600H281Q321 600 343 580T365 528Q365 485 329 467L364 395Q366 388 359 388H296Q289 388 286 395L260 456H251Q247 456 247 452V395Q247 388 240 388H183Q176 388 176 395V593Q176 600 183 600ZM251 546Q247 546 247 542V513Q247 509 251 509H271Q294 509 294 528Q294 546 271 546Z" horiz-adv-x="431" unicode="®"/>
			<glyph d="M183 676H495Q505 676 503 666L485 562Q483 552 474 552H162Q152 552 154 562L172 666Q174 676 183 676Z" horiz-adv-x="513" unicode="¯"/>
			<glyph d="M242 696Q312 696 359 649T406 532Q406 463 359 416T242 370Q172 370 125 416T78 532Q78 602 125 649T242 696ZM242 584Q220 584 205 569T191 532Q191 510 205 495T242 481Q264 481 278 495T293 532Q293 555 278 569T242 584Z" horiz-adv-x="374" unicode="°"/>
			<glyph d="M207 671H350Q360 671 360 661V519Q360 513 366 513H510Q520 513 520 503V364Q520 354 510 354H366Q360 354 360 348V205Q360 195 350 195H207Q197 195 197 205V348Q197 354 191 354H48Q38 354 38 364V503Q38 513 48 513H191Q197 513 197 519V661Q197 671 207 671ZM48 159H510Q520 159 520 149V10Q520 0 510 0H48Q38 0 38 10V149Q38 159 48 159Z" unicode="±"/>
			<glyph d="M300 843Q358 843 392 814T426 737Q426 707 412 674T347 603L265 542V541H384Q394 541 392 531L376 440Q374 430 364 430H77Q68 430 70 440L85 523Q88 537 98 544L264 672Q292 693 292 719Q292 739 272 739Q246 739 238 704Q237 693 225 695L125 707Q116 708 118 718Q130 773 179 808T300 843Z" horiz-adv-x="365" unicode="²"/>
			<glyph d="M294 843Q356 843 391 816T426 748Q426 718 409 691T363 649V647Q401 627 401 579Q401 509 349 466T221 423Q157 423 120 453T84 532Q84 541 93 543L197 556Q206 558 209 549Q216 527 234 527Q248 527 257 538T266 563Q266 585 237 585H228Q218 585 220 595L234 677Q236 687 245 687H256Q268 687 278 695T289 719Q289 739 269 739Q248 739 239 717Q235 707 226 709L125 723Q116 725 119 734Q136 782 182 812T294 843Z" horiz-adv-x="365" unicode="³"/>
			<glyph d="M311 704H469Q473 704 474 700T472 694L343 551Q334 541 324 541H189Q185 541 183 544T185 551L292 694Q299 704 311 704Z" horiz-adv-x="513" unicode="´"/>
			<glyph d="M100 490H274Q283 490 281 481L231 200L229 184Q229 167 238 156T263 145Q305 145 314 200L363 481Q365 490 375 490H548Q558 490 555 481L506 207L501 172Q501 152 526 152Q535 152 533 143L508 7Q506 -6 496 -6H479Q411 -6 377 2T329 38L322 52H320Q284 -4 204 -11L194 -12L193 -16L166 -171Q165 -180 156 -180H-20Q-27 -180 -26 -171L89 481Q91 490 100 490Z" horiz-adv-x="576" unicode="µ"/>
			<glyph d="M369 680H699Q709 680 707 670L559 -170Q557 -180 548 -180H418Q409 -180 411 -170L538 553Q540 559 533 559H467Q462 559 460 553L333 -170Q331 -180 322 -180H192Q183 -180 185 -170L248 194Q169 199 119 251T71 387Q71 510 157 595T369 680Z" horiz-adv-x="680" unicode="¶"/>
			<glyph d="M71 352H226Q237 352 235 342L208 188Q206 178 197 178H43Q32 178 34 188L60 342Q62 352 71 352Z" horiz-adv-x="247" unicode="·"/>
			<glyph d="M199 10H314Q325 10 320 0L246 -161Q242 -171 229 -171H98Q88 -171 93 -161L182 0Q188 10 199 10Z" horiz-adv-x="513" unicode="¸"/>
			<glyph d="M253 836H367Q378 836 376 826L308 440Q306 430 296 430H177Q167 430 169 440L215 700H213L141 663Q137 661 134 663T132 669L151 777Q152 787 163 792L230 830Q241 836 253 836Z" horiz-adv-x="365" unicode="¹"/>
			<glyph d="M281 689Q342 689 379 657T416 572Q416 551 409 519T393 468Q372 427 329 405T228 383Q167 383 130 414T93 500Q93 521 99 552T116 604Q159 689 281 689ZM266 595Q240 595 230 573Q226 566 221 541T217 506Q217 495 223 486T243 477Q269 477 279 499Q283 506 287 531T292 566Q292 577 285 586T266 595Z" horiz-adv-x="393" unicode="º"/>
			<glyph d="M379 520T386 517L589 271Q595 263 587 257L295 10Q292 7 288 9T286 15L315 175Q318 188 329 198L411 270Q416 274 413 278L356 350Q347 360 350 372L375 515Q376 519 379 520ZM108 520T115 517L318 271Q324 263 316 257L24 10Q21 7 17 9T15 15L44 175Q47 188 58 198L140 270Q145 274 142 278L85 350Q76 360 79 372L104 515Q105 519 108 520Z" horiz-adv-x="596" unicode="»"/>
			<glyph d="M674 692H792Q796 692 796 689T794 682L290 -2Q283 -12 272 -12H156Q152 -12 151 -9T154 -2L657 682Q663 692 674 692ZM252 680H366Q377 680 375 670L307 284Q305 274 295 274H176Q166 274 168 284L214 544H212L140 507Q136 505 133 507T131 513L150 621Q151 631 162 636L229 674Q240 680 252 680ZM655 406H778Q782 406 783 402T783 396L641 163V160H673Q679 160 680 166L688 211Q690 221 699 221H804Q813 221 811 211L804 166Q803 160 808 160H821Q830 160 828 150L811 59Q809 49 800 49H788Q783 49 781 43L776 10Q774 0 765 0H659Q650 0 652 10L658 43Q660 49 653 49H489Q479 49 481 59L498 157Q499 166 507 177L640 396Q646 406 655 406Z" horiz-adv-x="903" unicode="¼"/>
			<glyph d="M674 692H792Q796 692 796 689T794 682L290 -2Q283 -12 272 -12H156Q152 -12 151 -9T154 -2L657 682Q663 692 674 692ZM252 680H366Q377 680 375 670L307 284Q305 274 295 274H176Q166 274 168 284L214 544H212L140 507Q136 505 133 507T131 513L150 621Q151 631 162 636L229 674Q240 680 252 680ZM756 413Q814 413 848 384T882 307Q882 277 868 244T803 173L721 112V111H840Q850 111 848 101L832 10Q830 0 820 0H533Q524 0 526 10L541 93Q544 107 554 114L720 242Q748 263 748 289Q748 309 728 309Q702 309 694 274Q693 263 681 265L581 277Q572 278 574 288Q586 343 635 378T756 413Z" horiz-adv-x="936" unicode="½"/>
			<glyph d="M730 692H848Q852 692 852 689T850 682L346 -2Q339 -12 328 -12H212Q208 -12 207 -9T210 -2L713 682Q719 692 730 692ZM711 406H834Q838 406 839 402T839 396L697 163V160H729Q735 160 736 166L744 211Q746 221 755 221H860Q869 221 867 211L860 166Q859 160 864 160H877Q886 160 884 150L867 59Q865 49 856 49H844Q839 49 837 43L832 10Q830 0 821 0H715Q706 0 708 10L714 43Q716 49 709 49H545Q535 49 537 59L554 157Q555 166 563 177L696 396Q702 406 711 406ZM325 687Q387 687 422 660T457 592Q457 562 440 535T394 493V491Q432 471 432 423Q432 353 380 310T252 267Q188 267 151 297T115 376Q115 385 124 387L228 400Q237 402 240 393Q247 371 265 371Q279 371 288 382T297 407Q297 429 268 429H259Q249 429 251 439L265 521Q267 531 276 531H287Q299 531 309 539T320 563Q320 583 300 583Q279 583 270 561Q266 551 257 553L156 567Q147 569 150 578Q167 626 213 656T325 687Z" horiz-adv-x="959" unicode="¾"/>
			<glyph d="M192 271H347Q358 271 356 261L349 221Q338 168 301 136L245 86Q218 63 199 41T181 -5Q181 -43 216 -43Q256 -43 278 8Q283 19 293 17L433 -3Q442 -5 439 -14Q414 -97 345 -149T185 -202Q96 -202 44 -155T-8 -38Q-8 4 12 48T105 155L148 192Q175 216 180 249L182 261Q184 271 192 271ZM230 490H385Q395 490 393 480L369 344Q367 334 358 334H203Q193 334 195 344L219 480Q221 490 230 490Z" horiz-adv-x="501" unicode="¿"/>
			<glyph d="M331 680H528Q539 680 539 670L646 10Q648 0 639 0H449Q439 0 437 10L428 103H234L193 10Q188 0 179 0H-22Q-33 0 -28 10L318 670Q321 680 331 680ZM394 458L309 269H413L396 458ZM254 890H405Q417 890 424 880L507 749Q509 745 507 742T502 739H374Q364 739 355 749L248 880Q246 884 248 887T254 890Z" horiz-adv-x="691" unicode="À"/>
			<glyph d="M331 680H528Q539 680 539 670L646 10Q648 0 639 0H449Q439 0 437 10L428 103H234L193 10Q188 0 179 0H-22Q-33 0 -28 10L318 670Q321 680 331 680ZM394 458L309 269H413L396 458ZM511 890H669Q673 890 674 886T673 880L520 749Q509 739 495 739H363Q359 739 357 742T359 749L489 880Q499 890 511 890Z" horiz-adv-x="691" unicode="Á"/>
			<glyph d="M331 680H528Q539 680 539 670L646 10Q648 0 639 0H449Q439 0 437 10L428 103H234L193 10Q188 0 179 0H-22Q-33 0 -28 10L318 670Q321 680 331 680ZM394 458L309 269H413L396 458ZM413 898H517Q529 898 535 888L619 745Q621 741 619 738T613 735H509Q496 735 488 745L453 791H451L399 745Q388 735 374 735H261Q257 735 256 738T258 745L393 888Q402 898 413 898Z" horiz-adv-x="691" unicode="Â"/>
			<glyph d="M331 680H528Q539 680 539 670L646 10Q648 0 639 0H449Q439 0 437 10L428 103H234L193 10Q188 0 179 0H-22Q-33 0 -28 10L318 670Q321 680 331 680ZM394 458L309 269H413L396 458ZM393 898Q439 898 480 872Q508 855 536 855Q576 855 619 888Q623 891 627 889T630 883L614 794Q612 781 600 771Q556 733 511 733Q463 733 424 758Q397 775 368 775Q329 775 285 742Q281 739 277 741T274 747L290 836Q293 850 303 859Q350 898 393 898Z" horiz-adv-x="691" unicode="Ã"/>
			<glyph d="M331 680H528Q539 680 539 670L646 10Q648 0 639 0H449Q439 0 437 10L428 103H234L193 10Q188 0 179 0H-22Q-33 0 -28 10L318 670Q321 680 331 680ZM394 458L309 269H413L396 458ZM504 882H626Q636 882 634 872L612 752Q610 742 601 742H479Q468 742 470 752L492 872Q494 882 504 882ZM301 882H423Q433 882 431 872L409 752Q407 742 398 742H276Q265 742 267 752L289 872Q291 882 301 882Z" horiz-adv-x="691" unicode="Ä"/>
			<glyph d="M331 680H528Q539 680 539 670L646 10Q648 0 639 0H449Q439 0 437 10L428 103H234L193 10Q188 0 179 0H-22Q-33 0 -28 10L318 670Q321 680 331 680ZM394 458L309 269H413L396 458ZM472 935Q517 935 546 909T575 841Q575 780 535 739T433 699Q388 699 359 725T330 793Q330 854 369 894T472 935ZM460 860Q441 860 427 845T413 807Q413 793 421 783T445 774Q464 774 478 789T492 827Q492 841 483 850T460 860Z" horiz-adv-x="691" unicode="Å"/>
			<glyph d="M382 680H966Q976 680 974 670L947 522Q945 512 937 512H691Q685 512 685 506L672 431Q671 425 676 425H872Q882 425 880 415L855 271Q853 261 843 261H647Q643 261 641 255L626 174Q626 168 631 168H875Q885 168 883 158L857 10Q855 0 846 0H405Q395 0 397 10L412 97Q414 103 407 103H251L199 10Q193 0 184 0H-23Q-27 0 -29 3T-28 10L368 670Q375 680 382 680ZM482 512L345 269H436Q442 269 443 275L486 512Z" horiz-adv-x="921" unicode="Æ"/>
			<glyph d="M376 692Q466 692 521 650T594 530Q597 520 587 516L427 454Q415 449 412 460Q402 513 355 513Q311 513 287 464Q275 439 258 351T241 227Q241 200 255 183T294 167Q336 167 369 222Q375 234 384 229L526 147Q534 141 529 132Q453 8 320 -9L250 -161Q246 -171 233 -171H102Q92 -171 97 -161L185 -1Q116 18 77 71T38 207Q38 268 57 370T103 530Q183 692 376 692Z" horiz-adv-x="562" unicode="Ç"/>
			<glyph d="M136 680H578Q588 680 586 670L559 522Q557 512 549 512H303Q297 512 297 506L284 431Q283 425 288 425H484Q494 425 492 415L467 271Q465 261 455 261H259Q255 261 253 255L238 174Q238 168 243 168H487Q497 168 495 158L469 10Q467 0 458 0H17Q7 0 9 10L126 670Q128 680 136 680ZM187 890H338Q350 890 357 880L440 749Q442 745 440 742T435 739H307Q297 739 288 749L181 880Q179 884 181 887T187 890Z" unicode="È"/>
			<glyph d="M136 680H578Q588 680 586 670L559 522Q557 512 549 512H303Q297 512 297 506L284 431Q283 425 288 425H484Q494 425 492 415L467 271Q465 261 455 261H259Q255 261 253 255L238 174Q238 168 243 168H487Q497 168 495 158L469 10Q467 0 458 0H17Q7 0 9 10L126 670Q128 680 136 680ZM418 890H576Q580 890 581 886T580 880L427 749Q416 739 402 739H270Q266 739 264 742T266 749L396 880Q406 890 418 890Z" unicode="É"/>
			<glyph d="M136 680H578Q588 680 586 670L559 522Q557 512 549 512H303Q297 512 297 506L284 431Q283 425 288 425H484Q494 425 492 415L467 271Q465 261 455 261H259Q255 261 253 255L238 174Q238 168 243 168H487Q497 168 495 158L469 10Q467 0 458 0H17Q7 0 9 10L126 670Q128 680 136 680ZM341 898H445Q457 898 463 888L547 745Q549 741 547 738T541 735H437Q424 735 416 745L381 791H379L327 745Q316 735 302 735H189Q185 735 184 738T186 745L321 888Q330 898 341 898Z" unicode="Ê"/>
			<glyph d="M136 680H578Q588 680 586 670L559 522Q557 512 549 512H303Q297 512 297 506L284 431Q283 425 288 425H484Q494 425 492 415L467 271Q465 261 455 261H259Q255 261 253 255L238 174Q238 168 243 168H487Q497 168 495 158L469 10Q467 0 458 0H17Q7 0 9 10L126 670Q128 680 136 680ZM434 882H556Q566 882 564 872L542 752Q540 742 531 742H409Q398 742 400 752L422 872Q424 882 434 882ZM231 882H353Q363 882 361 872L339 752Q337 742 328 742H206Q195 742 197 752L219 872Q221 882 231 882Z" unicode="Ë"/>
			<glyph d="M137 680H319Q330 680 328 670L211 10Q209 0 200 0H18Q7 0 9 10L126 670Q128 680 137 680ZM54 890H205Q217 890 224 880L307 749Q309 745 307 742T302 739H174Q164 739 155 749L48 880Q46 884 48 887T54 890Z" horiz-adv-x="289" unicode="Ì"/>
			<glyph d="M137 680H319Q330 680 328 670L211 10Q209 0 200 0H18Q7 0 9 10L126 670Q128 680 137 680ZM315 890H473Q477 890 478 886T477 880L324 749Q313 739 299 739H167Q163 739 161 742T163 749L293 880Q303 890 315 890Z" horiz-adv-x="289" unicode="Í"/>
			<glyph d="M137 680H319Q330 680 328 670L211 10Q209 0 200 0H18Q7 0 9 10L126 670Q128 680 137 680ZM212 898H316Q328 898 334 888L418 745Q420 741 418 738T412 735H308Q295 735 287 745L252 791H250L198 745Q187 735 173 735H60Q56 735 55 738T57 745L192 888Q201 898 212 898Z" horiz-adv-x="289" unicode="Î"/>
			<glyph d="M137 680H319Q330 680 328 670L211 10Q209 0 200 0H18Q7 0 9 10L126 670Q128 680 137 680ZM303 882H425Q435 882 433 872L411 752Q409 742 400 742H278Q267 742 269 752L291 872Q293 882 303 882ZM100 882H222Q232 882 230 872L208 752Q206 742 197 742H75Q64 742 66 752L88 872Q90 882 100 882Z" horiz-adv-x="289" unicode="Ï"/>
			<glyph d="M136 680H401Q619 680 619 475Q619 411 600 310T556 157Q479 0 282 0H17Q7 0 9 10L55 272Q57 278 50 278H25Q15 278 17 288L36 399Q38 409 48 409H73Q79 409 80 415L126 670Q128 680 136 680ZM303 501Q299 501 297 495L283 415Q282 409 287 409H340Q350 409 348 399L329 288Q327 278 318 278H264Q259 278 257 272L242 185Q241 179 246 179H274Q304 179 329 187T373 233Q386 260 399 328T412 427Q412 466 393 483T328 501Z" horiz-adv-x="616" unicode="Ð"/>
			<glyph d="M137 680H309Q321 680 324 670L423 323H427L488 670Q490 680 499 680H662Q672 680 670 670L553 10Q551 0 542 0H368Q358 0 355 10L257 357H252L191 10Q189 0 180 0H18Q7 0 9 10L126 670Q128 680 137 680ZM357 898Q403 898 444 872Q472 855 500 855Q540 855 583 888Q587 891 591 889T594 883L578 794Q576 781 564 771Q520 733 475 733Q427 733 388 758Q361 775 332 775Q293 775 249 742Q245 739 241 741T238 747L254 836Q257 850 267 859Q314 898 357 898Z" horiz-adv-x="631" unicode="Ñ"/>
			<glyph d="M378 692Q489 692 552 635T616 472Q616 412 597 307T551 150Q515 78 447 33T276 -12Q165 -12 101 44T38 208Q38 268 57 372T103 530Q139 602 206 647T378 692ZM357 513Q309 513 286 464Q275 442 258 353T241 227Q241 200 255 183T297 167Q345 167 368 216Q379 238 396 327T413 453Q413 480 398 496T357 513ZM216 890H367Q379 890 386 880L469 749Q471 745 469 742T464 739H336Q326 739 317 749L210 880Q208 884 210 887T216 890Z" horiz-adv-x="606" unicode="Ò"/>
			<glyph d="M378 692Q489 692 552 635T616 472Q616 412 597 307T551 150Q515 78 447 33T276 -12Q165 -12 101 44T38 208Q38 268 57 372T103 530Q139 602 206 647T378 692ZM357 513Q309 513 286 464Q275 442 258 353T241 227Q241 200 255 183T297 167Q345 167 368 216Q379 238 396 327T413 453Q413 480 398 496T357 513ZM469 890H627Q631 890 632 886T631 880L478 749Q467 739 453 739H321Q317 739 315 742T317 749L447 880Q457 890 469 890Z" horiz-adv-x="606" unicode="Ó"/>
			<glyph d="M378 692Q489 692 552 635T616 472Q616 412 597 307T551 150Q515 78 447 33T276 -12Q165 -12 101 44T38 208Q38 268 57 372T103 530Q139 602 206 647T378 692ZM357 513Q309 513 286 464Q275 442 258 353T241 227Q241 200 255 183T297 167Q345 167 368 216Q379 238 396 327T413 453Q413 480 398 496T357 513ZM372 908H476Q488 908 494 898L578 755Q580 751 578 748T572 745H468Q455 745 447 755L412 801H410L358 755Q347 745 333 745H220Q216 745 215 748T217 755L352 898Q361 908 372 908Z" horiz-adv-x="606" unicode="Ô"/>
			<glyph d="M378 692Q489 692 552 635T616 472Q616 412 597 307T551 150Q515 78 447 33T276 -12Q165 -12 101 44T38 208Q38 268 57 372T103 530Q139 602 206 647T378 692ZM357 513Q309 513 286 464Q275 442 258 353T241 227Q241 200 255 183T297 167Q345 167 368 216Q379 238 396 327T413 453Q413 480 398 496T357 513ZM344 898Q390 898 431 872Q459 855 487 855Q527 855 570 888Q574 891 578 889T581 883L565 794Q563 781 551 771Q507 733 462 733Q414 733 375 758Q348 775 319 775Q280 775 236 742Q232 739 228 741T225 747L241 836Q244 850 254 859Q301 898 344 898Z" horiz-adv-x="606" unicode="Õ"/>
			<glyph d="M378 692Q489 692 552 635T616 472Q616 412 597 307T551 150Q515 78 447 33T276 -12Q165 -12 101 44T38 208Q38 268 57 372T103 530Q139 602 206 647T378 692ZM357 513Q309 513 286 464Q275 442 258 353T241 227Q241 200 255 183T297 167Q345 167 368 216Q379 238 396 327T413 453Q413 480 398 496T357 513ZM455 882H577Q587 882 585 872L563 752Q561 742 552 742H430Q419 742 421 752L443 872Q445 882 455 882ZM252 882H374Q384 882 382 872L360 752Q358 742 349 742H227Q216 742 218 752L240 872Q242 882 252 882Z" horiz-adv-x="606" unicode="Ö"/>
			<glyph d="M152 506Q159 513 166 506L283 387Q288 384 292 387L410 506Q417 513 424 506L516 413Q524 405 516 399L398 281Q393 276 398 273L516 155Q525 148 516 141L423 47Q416 38 409 47L290 165Q286 169 282 165L164 47Q157 38 150 47L57 140Q50 147 57 154L174 271Q179 276 174 280L57 397Q50 404 57 411Z" unicode="×"/>
			<glyph d="M570 710H683Q687 710 688 707T687 700L591 585Q616 537 616 472Q616 412 597 307T551 150Q515 78 447 33T276 -12Q193 -12 135 20L103 -20Q94 -30 84 -30H-29Q-33 -30 -34 -27T-33 -20L62 95Q38 142 38 208Q38 268 57 372T103 530Q139 602 206 647T378 692Q460 692 518 660L551 700Q560 710 570 710ZM357 513Q309 513 286 464Q275 442 258 353T241 227Q241 200 255 183T297 167Q345 167 368 216Q379 238 396 327T413 453Q413 480 398 496T357 513Z" horiz-adv-x="606" unicode="Ø"/>
			<glyph d="M133 680H315Q326 680 324 670L251 258Q244 215 258 191T306 167Q376 167 392 258L465 670Q467 680 476 680H659Q669 680 667 670L597 275Q570 123 494 55T288 -12Q153 -12 90 61T51 275L122 670Q124 680 133 680ZM224 890H375Q387 890 394 880L477 749Q479 745 477 742T472 739H344Q334 739 325 749L218 880Q216 884 218 887T224 890Z" horiz-adv-x="625" unicode="Ù"/>
			<glyph d="M133 680H315Q326 680 324 670L251 258Q244 215 258 191T306 167Q376 167 392 258L465 670Q467 680 476 680H659Q669 680 667 670L597 275Q570 123 494 55T288 -12Q153 -12 90 61T51 275L122 670Q124 680 133 680ZM477 890H635Q639 890 640 886T639 880L486 749Q475 739 461 739H329Q325 739 323 742T325 749L455 880Q465 890 477 890Z" horiz-adv-x="625" unicode="Ú"/>
			<glyph d="M133 680H315Q326 680 324 670L251 258Q244 215 258 191T306 167Q376 167 392 258L465 670Q467 680 476 680H659Q669 680 667 670L597 275Q570 123 494 55T288 -12Q153 -12 90 61T51 275L122 670Q124 680 133 680ZM382 898H486Q498 898 504 888L588 745Q590 741 588 738T582 735H478Q465 735 457 745L422 791H420L368 745Q357 735 343 735H230Q226 735 225 738T227 745L362 888Q371 898 382 898Z" horiz-adv-x="625" unicode="Û"/>
			<glyph d="M133 680H315Q326 680 324 670L251 258Q244 215 258 191T306 167Q376 167 392 258L465 670Q467 680 476 680H659Q669 680 667 670L597 275Q570 123 494 55T288 -12Q153 -12 90 61T51 275L122 670Q124 680 133 680ZM472 882H594Q604 882 602 872L580 752Q578 742 569 742H447Q436 742 438 752L460 872Q462 882 472 882ZM269 882H391Q401 882 399 872L377 752Q375 742 366 742H244Q233 742 235 752L257 872Q259 882 269 882Z" horiz-adv-x="625" unicode="Ü"/>
			<glyph d="M86 680H257Q269 680 272 670L334 449H337L477 670Q483 680 494 680H683Q688 680 690 676T689 669L411 255L368 10Q366 0 357 0H175Q164 0 166 10L209 255L77 669Q76 673 78 676T86 680ZM453 890H611Q615 890 616 886T615 880L462 749Q451 739 437 739H305Q301 739 299 742T301 749L431 880Q441 890 453 890Z" horiz-adv-x="605" unicode="Ý"/>
			<glyph d="M137 680H319Q329 680 327 670L312 587Q311 581 316 581H391Q504 581 559 532T615 397Q615 267 530 191T310 115H235Q230 115 228 109L210 10Q208 0 199 0H17Q7 0 9 10L126 670Q128 680 137 680ZM287 413Q281 413 281 407L260 289Q260 283 264 283H328Q364 283 386 305T409 363Q409 413 351 413Z" horiz-adv-x="593" unicode="Þ"/>
			<glyph d="M383 692Q487 692 543 652T600 547Q600 446 519 396V394Q567 366 567 298Q567 186 526 104Q500 53 446 23T289 -6H244Q234 -6 236 4L258 127Q260 137 270 137H293Q338 137 357 176Q363 189 369 226T376 283Q376 322 325 322H306Q295 322 297 332L319 452Q321 462 331 462H354Q378 462 393 475T408 512Q408 543 357 543Q290 543 278 476L196 10Q194 0 185 0H15Q5 0 7 10L89 476Q108 584 179 638T383 692Z" horiz-adv-x="590" unicode="ß"/>
			<glyph d="M298 502Q419 502 470 460T502 313L447 10Q445 0 436 0H273Q262 0 264 10L268 35H267Q217 -12 135 -12Q82 -12 45 20T8 107Q8 201 70 251T247 302H311Q318 302 319 308L322 319Q326 339 310 347T242 356Q216 356 185 348T138 331Q129 327 126 336L87 438Q83 447 93 454Q120 471 172 486T298 502ZM245 192Q219 192 205 180T191 148Q191 120 228 120Q286 120 292 158L296 186Q298 192 291 192ZM194 704H343Q355 704 358 694L413 551Q416 541 405 541H283Q271 541 265 551L188 694Q186 698 188 701T194 704Z" horiz-adv-x="522" unicode="à"/>
			<glyph d="M298 502Q419 502 470 460T502 313L447 10Q445 0 436 0H273Q262 0 264 10L268 35H267Q217 -12 135 -12Q82 -12 45 20T8 107Q8 201 70 251T247 302H311Q318 302 319 308L322 319Q326 339 310 347T242 356Q216 356 185 348T138 331Q129 327 126 336L87 438Q83 447 93 454Q120 471 172 486T298 502ZM245 192Q219 192 205 180T191 148Q191 120 228 120Q286 120 292 158L296 186Q298 192 291 192ZM357 704H515Q519 704 520 700T518 694L389 551Q380 541 370 541H235Q231 541 229 544T231 551L338 694Q345 704 357 704Z" horiz-adv-x="522" unicode="á"/>
			<glyph d="M298 502Q419 502 470 460T502 313L447 10Q445 0 436 0H273Q262 0 264 10L268 35H267Q217 -12 135 -12Q82 -12 45 20T8 107Q8 201 70 251T247 302H311Q318 302 319 308L322 319Q326 339 310 347T242 356Q216 356 185 348T138 331Q129 327 126 336L87 438Q83 447 93 454Q120 471 172 486T298 502ZM245 192Q219 192 205 180T191 148Q191 120 228 120Q286 120 292 158L296 186Q298 192 291 192ZM295 702H399Q411 702 417 692L501 549Q503 545 501 542T495 539H391Q378 539 370 549L335 595H333L281 549Q270 539 256 539H143Q139 539 138 542T140 549L275 692Q284 702 295 702Z" horiz-adv-x="522" unicode="â"/>
			<glyph d="M298 502Q419 502 470 460T502 313L447 10Q445 0 436 0H273Q262 0 264 10L268 35H267Q217 -12 135 -12Q82 -12 45 20T8 107Q8 201 70 251T247 302H311Q318 302 319 308L322 319Q326 339 310 347T242 356Q216 356 185 348T138 331Q129 327 126 336L87 438Q83 447 93 454Q120 471 172 486T298 502ZM245 192Q219 192 205 180T191 148Q191 120 228 120Q286 120 292 158L296 186Q298 192 291 192ZM270 704Q316 704 357 678Q384 661 413 661Q451 661 496 694Q500 697 504 695T507 689L491 600Q489 587 477 577Q433 539 388 539Q341 539 301 564Q273 581 245 581Q205 581 162 548Q158 545 154 547T151 553L167 642Q170 656 180 665Q227 704 270 704Z" horiz-adv-x="522" unicode="ã"/>
			<glyph d="M298 502Q419 502 470 460T502 313L447 10Q445 0 436 0H273Q262 0 264 10L268 35H267Q217 -12 135 -12Q82 -12 45 20T8 107Q8 201 70 251T247 302H311Q318 302 319 308L322 319Q326 339 310 347T242 356Q216 356 185 348T138 331Q129 327 126 336L87 438Q83 447 93 454Q120 471 172 486T298 502ZM245 192Q219 192 205 180T191 148Q191 120 228 120Q286 120 292 158L296 186Q298 192 291 192ZM378 684H500Q510 684 508 674L486 554Q484 544 475 544H353Q342 544 344 554L366 674Q368 684 378 684ZM175 684H297Q307 684 305 674L283 554Q281 544 272 544H150Q139 544 141 554L163 674Q165 684 175 684Z" horiz-adv-x="522" unicode="ä"/>
			<glyph d="M298 502Q419 502 470 460T502 313L447 10Q445 0 436 0H273Q262 0 264 10L268 35H267Q217 -12 135 -12Q82 -12 45 20T8 107Q8 201 70 251T247 302H311Q318 302 319 308L322 319Q326 339 310 347T242 356Q216 356 185 348T138 331Q129 327 126 336L87 438Q83 447 93 454Q120 471 172 486T298 502ZM245 192Q219 192 205 180T191 148Q191 120 228 120Q286 120 292 158L296 186Q298 192 291 192ZM357 752Q402 752 431 726T460 658Q460 597 420 556T318 516Q273 516 244 542T215 610Q215 671 254 711T357 752ZM345 677Q326 677 312 662T298 624Q298 610 306 600T330 591Q349 591 363 606T377 644Q377 658 368 667T345 677Z" horiz-adv-x="522" unicode="å"/>
			<glyph d="M298 502Q386 502 449 461H450Q474 479 511 490T585 502Q676 502 731 456T787 327Q787 286 773 202Q771 192 761 192H484Q479 192 477 187L476 177Q476 128 554 128Q603 128 664 167Q673 173 678 166L737 82Q743 74 735 66Q645 -12 507 -12Q456 -12 416 7T360 53H359Q288 -12 166 -12Q91 -12 49 20T8 117Q8 204 71 253T247 302H311Q318 302 319 308L322 319Q326 339 310 347T242 356Q216 356 185 348T138 331Q129 327 126 336L87 438Q83 447 93 454Q120 471 172 486T298 502ZM565 372Q525 372 506 335Q500 324 499 308Q499 302 504 302H602Q608 302 609 308Q612 317 612 327Q612 372 565 372ZM245 192Q219 192 205 180T191 148Q191 120 228 120Q286 120 292 158L296 186Q298 192 291 192Z" horiz-adv-x="797" unicode="æ"/>
			<glyph d="M307 502Q385 502 435 464T494 370Q495 361 487 357L344 300Q331 294 328 305Q323 322 315 334T287 347Q255 347 241 317Q232 298 223 251T214 183Q214 143 251 143Q282 143 308 188Q314 198 324 194L455 132Q463 128 458 119Q393 13 280 -7L209 -161Q205 -171 192 -171H61Q51 -171 56 -161L144 -2Q87 15 54 60T21 171Q21 276 62 361Q130 502 307 502Z" horiz-adv-x="489" unicode="ç"/>
			<glyph d="M311 502Q402 502 457 456T513 327Q513 286 499 202Q497 192 487 192H210Q205 192 203 187L202 177Q202 128 280 128Q331 128 389 167Q398 173 403 166L463 82Q470 73 461 66Q368 -12 233 -12Q137 -12 79 34T21 171Q21 215 31 268T62 362Q130 502 311 502ZM291 372Q251 372 232 335Q225 321 225 308Q225 302 230 302H327Q333 302 334 308Q337 317 337 327Q337 372 291 372ZM176 704H325Q337 704 340 694L395 551Q398 541 387 541H265Q253 541 247 551L170 694Q168 698 170 701T176 704Z" horiz-adv-x="523" unicode="è"/>
			<glyph d="M311 502Q402 502 457 456T513 327Q513 286 499 202Q497 192 487 192H210Q205 192 203 187L202 177Q202 128 280 128Q331 128 389 167Q398 173 403 166L463 82Q470 73 461 66Q368 -12 233 -12Q137 -12 79 34T21 171Q21 215 31 268T62 362Q130 502 311 502ZM291 372Q251 372 232 335Q225 321 225 308Q225 302 230 302H327Q333 302 334 308Q337 317 337 327Q337 372 291 372ZM364 704H522Q526 704 527 700T525 694L396 551Q387 541 377 541H242Q238 541 236 544T238 551L345 694Q352 704 364 704Z" horiz-adv-x="523" unicode="é"/>
			<glyph d="M311 502Q402 502 457 456T513 327Q513 286 499 202Q497 192 487 192H210Q205 192 203 187L202 177Q202 128 280 128Q331 128 389 167Q398 173 403 166L463 82Q470 73 461 66Q368 -12 233 -12Q137 -12 79 34T21 171Q21 215 31 268T62 362Q130 502 311 502ZM291 372Q251 372 232 335Q225 321 225 308Q225 302 230 302H327Q333 302 334 308Q337 317 337 327Q337 372 291 372ZM290 702H394Q406 702 412 692L496 549Q498 545 496 542T490 539H386Q373 539 365 549L330 595H328L276 549Q265 539 251 539H138Q134 539 133 542T135 549L270 692Q279 702 290 702Z" horiz-adv-x="523" unicode="ê"/>
			<glyph d="M311 502Q402 502 457 456T513 327Q513 286 499 202Q497 192 487 192H210Q205 192 203 187L202 177Q202 128 280 128Q331 128 389 167Q398 173 403 166L463 82Q470 73 461 66Q368 -12 233 -12Q137 -12 79 34T21 171Q21 215 31 268T62 362Q130 502 311 502ZM291 372Q251 372 232 335Q225 321 225 308Q225 302 230 302H327Q333 302 334 308Q337 317 337 327Q337 372 291 372ZM381 684H503Q513 684 511 674L489 554Q487 544 478 544H356Q345 544 347 554L369 674Q371 684 381 684ZM178 684H300Q310 684 308 674L286 554Q284 544 275 544H153Q142 544 144 554L166 674Q168 684 178 684Z" horiz-adv-x="523" unicode="ë"/>
			<glyph d="M101 490H275Q285 490 283 480L200 10Q198 0 189 0H15Q5 0 7 10L90 480Q92 490 101 490ZM48 704H197Q209 704 212 694L267 551Q270 541 259 541H137Q125 541 119 551L42 694Q40 698 42 701T48 704Z" horiz-adv-x="276" unicode="ì"/>
			<glyph d="M101 490H275Q285 490 283 480L200 10Q198 0 189 0H15Q5 0 7 10L90 480Q92 490 101 490ZM248 704H406Q410 704 411 700T409 694L280 551Q271 541 261 541H126Q122 541 120 544T122 551L229 694Q236 704 248 704Z" horiz-adv-x="276" unicode="í"/>
			<glyph d="M101 490H275Q285 490 283 480L200 10Q198 0 189 0H15Q5 0 7 10L90 480Q92 490 101 490ZM169 702H273Q285 702 291 692L375 549Q377 545 375 542T369 539H265Q252 539 244 549L209 595H207L155 549Q144 539 130 539H17Q13 539 12 542T14 549L149 692Q158 702 169 702Z" horiz-adv-x="276" unicode="î"/>
			<glyph d="M101 490H275Q285 490 283 480L200 10Q198 0 189 0H15Q5 0 7 10L90 480Q92 490 101 490ZM263 684H385Q395 684 393 674L371 554Q369 544 360 544H238Q227 544 229 554L251 674Q253 684 263 684ZM60 684H182Q192 684 190 674L168 554Q166 544 157 544H35Q24 544 26 554L48 674Q50 684 60 684Z" horiz-adv-x="276" unicode="ï"/>
			<glyph d="M177 680H346Q359 680 363 671L378 642L472 669Q481 671 482 662L491 583Q493 573 483 570L425 553L433 539Q511 393 511 281Q511 193 479 128Q411 -12 231 -12Q135 -12 81 39T27 177Q27 253 57 315Q84 371 131 403T238 435Q277 435 301 417H303L257 505L158 477Q149 475 148 484L139 563Q137 573 147 576L210 594L171 670Q169 674 171 677T177 680ZM281 290Q250 290 234 259Q217 224 217 184Q217 143 254 143Q285 143 301 174Q318 209 318 249Q318 290 281 290Z" horiz-adv-x="529" unicode="ð"/>
			<glyph d="M407 502Q563 502 529 320L473 10Q471 0 462 0H289Q278 0 280 10L329 289Q339 344 299 344Q258 344 249 290L200 10Q198 0 189 0H15Q5 0 7 10L90 480Q92 490 101 490H274Q284 490 282 480L276 442H277Q325 502 407 502ZM282 704Q328 704 369 678Q396 661 425 661Q463 661 508 694Q512 697 516 695T519 689L503 600Q501 587 489 577Q445 539 400 539Q353 539 313 564Q285 581 257 581Q217 581 174 548Q170 545 166 547T163 553L179 642Q182 656 192 665Q239 704 282 704Z" horiz-adv-x="549" unicode="ñ"/>
			<glyph d="M307 502Q400 502 456 453T512 313Q512 270 502 218T473 128Q404 -12 226 -12Q133 -12 77 36T21 177Q21 220 31 271T60 362Q129 502 307 502ZM285 347Q253 347 238 316Q230 298 220 251T211 184Q211 143 248 143Q280 143 295 174Q303 192 312 239T322 306Q322 347 285 347ZM172 704H321Q333 704 336 694L391 551Q394 541 383 541H261Q249 541 243 551L166 694Q164 698 166 701T172 704Z" horiz-adv-x="522" unicode="ò"/>
			<glyph d="M307 502Q400 502 456 453T512 313Q512 270 502 218T473 128Q404 -12 226 -12Q133 -12 77 36T21 177Q21 220 31 271T60 362Q129 502 307 502ZM285 347Q253 347 238 316Q230 298 220 251T211 184Q211 143 248 143Q280 143 295 174Q303 192 312 239T322 306Q322 347 285 347ZM357 704H515Q519 704 520 700T518 694L389 551Q380 541 370 541H235Q231 541 229 544T231 551L338 694Q345 704 357 704Z" horiz-adv-x="522" unicode="ó"/>
			<glyph d="M307 502Q400 502 456 453T512 313Q512 270 502 218T473 128Q404 -12 226 -12Q133 -12 77 36T21 177Q21 220 31 271T60 362Q129 502 307 502ZM285 347Q253 347 238 316Q230 298 220 251T211 184Q211 143 248 143Q280 143 295 174Q303 192 312 239T322 306Q322 347 285 347ZM285 702H389Q401 702 407 692L491 549Q493 545 491 542T485 539H381Q368 539 360 549L325 595H323L271 549Q260 539 246 539H133Q129 539 128 542T130 549L265 692Q274 702 285 702Z" horiz-adv-x="522" unicode="ô"/>
			<glyph d="M307 502Q400 502 456 453T512 313Q512 270 502 218T473 128Q404 -12 226 -12Q133 -12 77 36T21 177Q21 220 31 271T60 362Q129 502 307 502ZM285 347Q253 347 238 316Q230 298 220 251T211 184Q211 143 248 143Q280 143 295 174Q303 192 312 239T322 306Q322 347 285 347ZM256 704Q302 704 343 678Q370 661 399 661Q437 661 482 694Q486 697 490 695T493 689L477 600Q475 587 463 577Q419 539 374 539Q327 539 287 564Q259 581 231 581Q191 581 148 548Q144 545 140 547T137 553L153 642Q156 656 166 665Q213 704 256 704Z" horiz-adv-x="522" unicode="õ"/>
			<glyph d="M307 502Q400 502 456 453T512 313Q512 270 502 218T473 128Q404 -12 226 -12Q133 -12 77 36T21 177Q21 220 31 271T60 362Q129 502 307 502ZM285 347Q253 347 238 316Q230 298 220 251T211 184Q211 143 248 143Q280 143 295 174Q303 192 312 239T322 306Q322 347 285 347ZM374 684H496Q506 684 504 674L482 554Q480 544 471 544H349Q338 544 340 554L362 674Q364 684 374 684ZM171 684H293Q303 684 301 674L279 554Q277 544 268 544H146Q135 544 137 554L159 674Q161 684 171 684Z" horiz-adv-x="522" unicode="ö"/>
			<glyph d="M279 576Q317 576 344 548T371 483Q371 445 344 417T279 390Q241 390 213 417T186 483Q186 521 213 548T279 576ZM48 355H510Q520 355 520 345V207Q520 197 510 197H48Q38 197 38 207V345Q38 355 48 355ZM279 162Q317 162 344 134T371 69Q371 31 344 3T279 -24Q241 -24 213 3T186 69Q186 107 213 134T279 162Z" unicode="÷"/>
			<glyph d="M467 519H562Q566 519 567 516T564 509L483 421Q512 378 512 313Q512 270 502 218T473 128Q404 -12 226 -12Q161 -12 113 11L84 -20Q75 -30 64 -30H-32Q-36 -30 -37 -27T-34 -20L49 69Q21 114 21 177Q21 220 31 271T60 362Q129 502 307 502Q371 502 419 478L447 509Q457 519 467 519ZM285 347Q253 347 238 316Q230 298 220 251T211 184Q211 143 248 143Q280 143 295 174Q303 192 312 239T322 306Q322 347 285 347Z" horiz-adv-x="522" unicode="ø"/>
			<glyph d="M98 490H272Q282 490 280 480L230 200Q221 146 261 146Q302 146 311 200L360 480Q362 490 371 490H545Q555 490 553 480L470 10Q468 0 459 0H286Q276 0 278 10L284 47H283Q234 -12 151 -12Q0 -12 33 171L87 480Q89 490 98 490ZM185 704H334Q346 704 349 694L404 551Q407 541 396 541H274Q262 541 256 551L179 694Q177 698 179 701T185 704Z" horiz-adv-x="546" unicode="ù"/>
			<glyph d="M98 490H272Q282 490 280 480L230 200Q221 146 261 146Q302 146 311 200L360 480Q362 490 371 490H545Q555 490 553 480L470 10Q468 0 459 0H286Q276 0 278 10L284 47H283Q234 -12 151 -12Q0 -12 33 171L87 480Q89 490 98 490ZM378 704H536Q540 704 541 700T539 694L410 551Q401 541 391 541H256Q252 541 250 544T252 551L359 694Q366 704 378 704Z" horiz-adv-x="546" unicode="ú"/>
			<glyph d="M98 490H272Q282 490 280 480L230 200Q221 146 261 146Q302 146 311 200L360 480Q362 490 371 490H545Q555 490 553 480L470 10Q468 0 459 0H286Q276 0 278 10L284 47H283Q234 -12 151 -12Q0 -12 33 171L87 480Q89 490 98 490ZM301 702H405Q417 702 423 692L507 549Q509 545 507 542T501 539H397Q384 539 376 549L341 595H339L287 549Q276 539 262 539H149Q145 539 144 542T146 549L281 692Q290 702 301 702Z" horiz-adv-x="546" unicode="û"/>
			<glyph d="M98 490H272Q282 490 280 480L230 200Q221 146 261 146Q302 146 311 200L360 480Q362 490 371 490H545Q555 490 553 480L470 10Q468 0 459 0H286Q276 0 278 10L284 47H283Q234 -12 151 -12Q0 -12 33 171L87 480Q89 490 98 490ZM397 684H519Q529 684 527 674L505 554Q503 544 494 544H372Q361 544 363 554L385 674Q387 684 397 684ZM194 684H316Q326 684 324 674L302 554Q300 544 291 544H169Q158 544 160 554L182 674Q184 684 194 684Z" horiz-adv-x="546" unicode="ü"/>
			<glyph d="M60 490H235Q245 490 246 480L280 264H282L384 480Q388 490 399 490H579Q584 490 585 486T585 479L267 -69Q240 -117 200 -148T68 -180H28Q18 -180 20 -170L44 -35Q46 -25 56 -25H83Q105 -25 119 -17T143 9L156 36L52 480Q50 490 60 490ZM365 704H523Q527 704 528 700T526 694L397 551Q388 541 378 541H243Q239 541 237 544T239 551L346 694Q353 704 365 704Z" horiz-adv-x="543" unicode="ý"/>
			<glyph d="M134 680H308Q319 680 317 670L276 443H277Q320 502 406 502Q468 502 504 467T540 343Q540 292 524 216T485 94Q433 -12 316 -12Q285 -12 253 0T208 47H207L168 -170Q166 -180 157 -180H-17Q-27 -180 -25 -170L124 670Q126 680 134 680ZM306 347Q274 347 259 316Q251 300 242 253T234 187Q234 143 271 143Q302 143 318 174Q326 190 334 236T343 303Q343 347 306 347Z" horiz-adv-x="547" unicode="þ"/>
			<glyph d="M60 490H235Q245 490 246 480L280 264H282L384 480Q388 490 399 490H579Q584 490 585 486T585 479L267 -69Q240 -117 200 -148T68 -180H28Q18 -180 20 -170L44 -35Q46 -25 56 -25H83Q105 -25 119 -17T143 9L156 36L52 480Q50 490 60 490ZM402 684H524Q534 684 532 674L510 554Q508 544 499 544H377Q366 544 368 554L390 674Q392 684 402 684ZM199 684H321Q331 684 329 674L307 554Q305 544 296 544H174Q163 544 165 554L187 674Q189 684 199 684Z" horiz-adv-x="543" unicode="ÿ"/>
			<glyph d="M331 680H528Q539 680 539 670L646 10Q648 0 639 0H449Q439 0 437 10L428 103H234L193 10Q188 0 179 0H-22Q-33 0 -28 10L318 670Q321 680 331 680ZM394 458L309 269H413L396 458ZM305 875H617Q627 875 625 865L607 761Q605 751 596 751H284Q274 751 276 761L294 865Q296 875 305 875Z" horiz-adv-x="691" unicode="Ā"/>
			<glyph d="M298 502Q419 502 470 460T502 313L447 10Q445 0 436 0H273Q262 0 264 10L268 35H267Q217 -12 135 -12Q82 -12 45 20T8 107Q8 201 70 251T247 302H311Q318 302 319 308L322 319Q326 339 310 347T242 356Q216 356 185 348T138 331Q129 327 126 336L87 438Q83 447 93 454Q120 471 172 486T298 502ZM245 192Q219 192 205 180T191 148Q191 120 228 120Q286 120 292 158L296 186Q298 192 291 192ZM179 676H491Q501 676 499 666L481 562Q479 552 470 552H158Q148 552 150 562L168 666Q170 676 179 676Z" horiz-adv-x="522" unicode="ā"/>
			<glyph d="M331 680H528Q539 680 539 670L646 10Q648 0 639 0H449Q439 0 437 10L428 103H234L193 10Q188 0 179 0H-22Q-33 0 -28 10L318 670Q321 680 331 680ZM394 458L309 269H413L396 458ZM312 885H384Q396 885 399 874Q409 836 455 836Q502 836 526 874Q533 885 545 885H616Q629 885 627 873Q617 810 560 767T438 724Q368 724 328 766T297 872Q299 885 312 885Z" horiz-adv-x="691" unicode="Ă"/>
			<glyph d="M298 502Q419 502 470 460T502 313L447 10Q445 0 436 0H273Q262 0 264 10L268 35H267Q217 -12 135 -12Q82 -12 45 20T8 107Q8 201 70 251T247 302H311Q318 302 319 308L322 319Q326 339 310 347T242 356Q216 356 185 348T138 331Q129 327 126 336L87 438Q83 447 93 454Q120 471 172 486T298 502ZM245 192Q219 192 205 180T191 148Q191 120 228 120Q286 120 292 158L296 186Q298 192 291 192ZM186 693H258Q270 693 273 682Q283 644 329 644Q376 644 400 682Q407 693 419 693H490Q503 693 501 681Q491 618 434 574T312 531Q242 531 202 574T171 680Q173 693 186 693Z" horiz-adv-x="522" unicode="ă"/>
			<glyph d="M331 680H528Q539 680 539 670L646 10Q647 2 639 -1Q540 -36 540 -60Q540 -69 550 -69Q561 -69 574 -60Q578 -58 582 -59T587 -63L618 -143Q621 -152 612 -157Q552 -191 498 -191Q451 -191 424 -168T398 -108Q398 -48 462 0H449Q439 0 437 10L428 103H234L193 10Q188 0 179 0H-22Q-33 0 -28 10L318 670Q321 680 331 680ZM394 458L309 269H413L396 458Z" horiz-adv-x="691" unicode="Ą"/>
			<glyph d="M298 502Q419 502 470 460T502 313L447 12Q446 3 436 0Q388 -18 363 -32T338 -60Q338 -69 348 -69Q359 -69 372 -60Q376 -58 380 -59T385 -63L416 -143Q419 -152 410 -157Q350 -191 296 -191Q249 -191 222 -168T196 -108Q196 -46 275 0H272Q262 0 264 10L268 35H267Q217 -12 135 -12Q82 -12 45 20T8 107Q8 201 70 251T247 302H311Q318 302 319 308L322 319Q326 339 310 347T242 356Q216 356 185 348T138 331Q129 327 126 336L87 438Q83 447 93 454Q120 471 172 486T298 502ZM245 192Q219 192 205 180T191 148Q191 120 228 120Q286 120 292 158L296 186Q298 192 291 192Z" horiz-adv-x="522" unicode="ą"/>
			<glyph d="M376 692Q466 692 521 650T594 530Q597 520 587 516L427 454Q415 449 412 460Q402 513 355 513Q310 513 286 464Q274 439 257 351T241 227Q241 200 255 183T294 167Q336 167 369 222Q375 234 384 229L526 147Q534 141 529 132Q489 67 428 27T266 -12Q163 -12 100 45T38 207Q38 268 57 370T103 530Q183 692 376 692ZM457 890H615Q619 890 620 886T619 880L466 749Q455 739 441 739H309Q305 739 303 742T305 749L435 880Q445 890 457 890Z" horiz-adv-x="562" unicode="Ć"/>
			<glyph d="M307 502Q385 502 435 464T494 370Q495 361 487 357L344 300Q331 294 328 305Q323 322 315 334T287 347Q255 347 241 317Q232 298 223 251T214 183Q214 143 251 143Q282 143 308 188Q314 198 324 194L455 132Q463 128 458 119Q378 -12 216 -12Q129 -12 75 36T21 171Q21 276 62 361Q130 502 307 502ZM348 704H506Q510 704 511 700T509 694L380 551Q371 541 361 541H226Q222 541 220 544T222 551L329 694Q336 704 348 704Z" horiz-adv-x="489" unicode="ć"/>
			<glyph d="M376 692Q466 692 521 650T594 530Q597 520 587 516L427 454Q415 449 412 460Q402 513 355 513Q310 513 286 464Q274 439 257 351T241 227Q241 200 255 183T294 167Q336 167 369 222Q375 234 384 229L526 147Q534 141 529 132Q489 67 428 27T266 -12Q163 -12 100 45T38 207Q38 268 57 370T103 530Q183 692 376 692ZM363 898H467Q479 898 485 888L569 745Q571 741 569 738T563 735H459Q446 735 438 745L403 791H401L349 745Q338 735 324 735H211Q207 735 206 738T208 745L343 888Q352 898 363 898Z" horiz-adv-x="562" unicode="Ĉ"/>
			<glyph d="M307 502Q385 502 435 464T494 370Q495 361 487 357L344 300Q331 294 328 305Q323 322 315 334T287 347Q255 347 241 317Q232 298 223 251T214 183Q214 143 251 143Q282 143 308 188Q314 198 324 194L455 132Q463 128 458 119Q378 -12 216 -12Q129 -12 75 36T21 171Q21 276 62 361Q130 502 307 502ZM291 702H395Q407 702 413 692L497 549Q499 545 497 542T491 539H387Q374 539 366 549L331 595H329L277 549Q266 539 252 539H139Q135 539 134 542T136 549L271 692Q280 702 291 702Z" horiz-adv-x="489" unicode="ĉ"/>
			<glyph d="M376 692Q466 692 521 650T594 530Q597 520 587 516L427 454Q415 449 412 460Q402 513 355 513Q310 513 286 464Q274 439 257 351T241 227Q241 200 255 183T294 167Q336 167 369 222Q375 234 384 229L526 147Q534 141 529 132Q489 67 428 27T266 -12Q163 -12 100 45T38 207Q38 268 57 370T103 530Q183 692 376 692ZM319 882H476Q486 882 484 872L463 752Q461 742 452 742H294Q284 742 286 752L307 872Q309 882 319 882Z" horiz-adv-x="562" unicode="Ċ"/>
			<glyph d="M307 502Q385 502 435 464T494 370Q495 361 487 357L344 300Q331 294 328 305Q323 322 315 334T287 347Q255 347 241 317Q232 298 223 251T214 183Q214 143 251 143Q282 143 308 188Q314 198 324 194L455 132Q463 128 458 119Q378 -12 216 -12Q129 -12 75 36T21 171Q21 276 62 361Q130 502 307 502ZM245 680H403Q413 680 411 670L390 550Q388 540 379 540H221Q211 540 213 550L234 670Q236 680 245 680Z" horiz-adv-x="489" unicode="ċ"/>
			<glyph d="M376 692Q466 692 521 650T594 530Q597 520 587 516L427 454Q415 449 412 460Q402 513 355 513Q310 513 286 464Q274 439 257 351T241 227Q241 200 255 183T294 167Q336 167 369 222Q375 234 384 229L526 147Q534 141 529 132Q489 67 428 27T266 -12Q163 -12 100 45T38 207Q38 268 57 370T103 530Q183 692 376 692ZM230 890H334Q348 890 355 880L390 835H392L444 880Q455 890 469 890H582Q586 890 587 886T585 880L450 737Q441 727 430 727H327Q314 727 308 737L224 880Q222 884 224 887T230 890Z" horiz-adv-x="562" unicode="Č"/>
			<glyph d="M307 502Q385 502 435 464T494 370Q495 361 487 357L344 300Q331 294 328 305Q323 322 315 334T287 347Q255 347 241 317Q232 298 223 251T214 183Q214 143 251 143Q282 143 308 188Q314 198 324 194L455 132Q463 128 458 119Q378 -12 216 -12Q129 -12 75 36T21 171Q21 276 62 361Q130 502 307 502ZM161 698H265Q279 698 286 688L321 643H323L375 688Q386 698 400 698H513Q517 698 518 694T516 688L381 545Q372 535 361 535H257Q245 535 239 545L155 688Q153 692 155 695T161 698Z" horiz-adv-x="489" unicode="č"/>
			<glyph d="M136 680H401Q619 680 619 475Q619 411 600 310T556 157Q479 0 282 0H17Q7 0 9 10L126 670Q128 680 136 680ZM303 501Q299 501 297 495L242 185Q241 179 246 179H274Q304 179 329 187T373 233Q386 260 399 328T412 427Q412 466 393 483T328 501ZM222 890H326Q340 890 347 880L382 835H384L436 880Q447 890 461 890H574Q578 890 579 886T577 880L442 737Q433 727 422 727H319Q306 727 300 737L216 880Q214 884 216 887T222 890Z" horiz-adv-x="616" unicode="Ď"/>
			<glyph d="M405 680H578Q589 680 587 670L470 10Q468 0 459 0H286Q276 0 278 10L284 47H283Q240 -12 154 -12Q19 -12 19 147Q19 198 35 273T74 395Q126 501 243 501Q274 501 306 488T352 442H353L395 670Q397 680 405 680ZM289 346Q257 346 242 315Q234 299 225 252T217 186Q217 142 253 142Q285 142 301 173Q309 189 317 235T326 302Q326 346 289 346ZM635 680H756Q767 680 765 670L746 566Q743 552 732 544L617 467Q606 459 600 459Q588 459 590 472L624 670Q626 680 635 680Z" horiz-adv-x="547" unicode="ď"/>
			<glyph d="M136 680H401Q619 680 619 475Q619 411 600 310T556 157Q479 0 282 0H17Q7 0 9 10L55 272Q57 278 50 278H25Q15 278 17 288L36 399Q38 409 48 409H73Q79 409 80 415L126 670Q128 680 136 680ZM303 501Q299 501 297 495L283 415Q282 409 287 409H340Q350 409 348 399L329 288Q327 278 318 278H264Q259 278 257 272L242 185Q241 179 246 179H274Q304 179 329 187T373 233Q386 260 399 328T412 427Q412 466 393 483T328 501Z" horiz-adv-x="616" unicode="Đ"/>
			<glyph d="M405 680H578Q589 680 587 670L583 650Q582 644 588 644H610Q620 644 618 634L602 548Q600 538 591 538H569Q564 538 562 532L470 10Q468 0 459 0H286Q276 0 278 10L284 47H283Q240 -12 154 -12Q19 -12 19 147Q19 198 35 273T74 395Q126 501 243 501Q274 501 306 488T352 442H353L369 532Q371 538 364 538H279Q270 538 272 548L288 634Q290 644 299 644H384Q390 644 391 650L395 670Q397 680 405 680ZM289 346Q257 346 242 315Q234 299 225 252T217 186Q217 142 253 142Q285 142 300 173Q308 189 317 235T326 302Q326 346 289 346Z" horiz-adv-x="547" unicode="đ"/>
			<glyph d="M136 680H578Q588 680 586 670L559 522Q557 512 549 512H303Q297 512 297 506L284 431Q283 425 288 425H484Q494 425 492 415L467 271Q465 261 455 261H259Q255 261 253 255L238 174Q238 168 243 168H487Q497 168 495 158L469 10Q467 0 458 0H17Q7 0 9 10L126 670Q128 680 136 680ZM229 875H541Q551 875 549 865L531 761Q529 751 520 751H208Q198 751 200 761L218 865Q220 875 229 875Z" unicode="Ē"/>
			<glyph d="M311 502Q402 502 457 456T513 327Q513 286 499 202Q497 192 487 192H210Q205 192 203 187L202 177Q202 128 280 128Q331 128 389 167Q398 173 403 166L463 82Q470 73 461 66Q368 -12 233 -12Q137 -12 79 34T21 171Q21 215 31 268T62 362Q130 502 311 502ZM291 372Q251 372 232 335Q225 321 225 308Q225 302 230 302H327Q333 302 334 308Q337 317 337 327Q337 372 291 372ZM174 676H486Q496 676 494 666L476 562Q474 552 465 552H153Q143 552 145 562L163 666Q165 676 174 676Z" horiz-adv-x="523" unicode="ē"/>
			<glyph d="M136 680H578Q588 680 586 670L559 522Q557 512 549 512H303Q297 512 297 506L284 431Q283 425 288 425H484Q494 425 492 415L467 271Q465 261 455 261H259Q255 261 253 255L238 174Q238 168 243 168H487Q497 168 495 158L469 10Q467 0 458 0H17Q7 0 9 10L126 670Q128 680 136 680ZM230 885H302Q314 885 317 874Q327 836 373 836Q420 836 444 874Q451 885 463 885H534Q547 885 545 873Q535 810 478 767T356 724Q286 724 246 766T215 872Q217 885 230 885Z" unicode="Ĕ"/>
			<glyph d="M311 502Q402 502 457 456T513 327Q513 286 499 202Q497 192 487 192H210Q205 192 203 187L202 177Q202 128 280 128Q331 128 389 167Q398 173 403 166L463 82Q470 73 461 66Q368 -12 233 -12Q137 -12 79 34T21 171Q21 215 31 268T62 362Q130 502 311 502ZM291 372Q251 372 232 335Q225 321 225 308Q225 302 230 302H327Q333 302 334 308Q337 317 337 327Q337 372 291 372ZM186 693H258Q270 693 273 682Q283 644 329 644Q376 644 400 682Q407 693 419 693H490Q503 693 501 681Q491 618 434 574T312 531Q242 531 202 574T171 680Q173 693 186 693Z" horiz-adv-x="523" unicode="ĕ"/>
			<glyph d="M136 680H578Q588 680 586 670L559 522Q557 512 549 512H303Q297 512 297 506L284 431Q283 425 288 425H484Q494 425 492 415L467 271Q465 261 455 261H259Q255 261 253 255L238 174Q238 168 243 168H487Q497 168 495 158L469 10Q467 0 458 0H17Q7 0 9 10L126 670Q128 680 136 680ZM312 882H469Q479 882 477 872L456 752Q454 742 445 742H287Q277 742 279 752L300 872Q302 882 312 882Z" unicode="Ė"/>
			<glyph d="M311 502Q402 502 457 456T513 327Q513 286 499 202Q497 192 487 192H210Q205 192 203 187L202 177Q202 128 280 128Q331 128 389 167Q398 173 403 166L463 82Q470 73 461 66Q368 -12 233 -12Q137 -12 79 34T21 171Q21 215 31 268T62 362Q130 502 311 502ZM291 372Q251 372 232 335Q225 321 225 308Q225 302 230 302H327Q333 302 334 308Q337 317 337 327Q337 372 291 372ZM256 680H414Q424 680 422 670L401 550Q399 540 390 540H232Q222 540 224 550L245 670Q247 680 256 680Z" horiz-adv-x="523" unicode="ė"/>
			<glyph d="M136 680H578Q588 680 586 670L559 522Q557 512 549 512H303Q297 512 297 506L284 431Q283 425 288 425H484Q494 425 492 415L467 271Q465 261 455 261H259Q255 261 253 255L238 174Q238 168 243 168H487Q497 168 495 158L469 10Q467 0 458 0H445Q439 -2 424 -8T381 -28T352 -60Q352 -69 362 -69Q373 -69 386 -60Q390 -58 394 -59T399 -63L430 -143Q433 -152 424 -157Q364 -191 310 -191Q263 -191 236 -168T210 -108Q210 -48 273 0H17Q7 0 9 10L126 670Q128 680 136 680Z" unicode="Ę"/>
			<glyph d="M311 502Q402 502 457 456T513 327Q513 286 499 202Q497 192 487 192H210Q205 192 203 187L202 177Q202 128 280 128Q331 128 389 167Q398 173 403 166L463 82Q470 73 461 66Q438 47 405 27Q311 -30 311 -60Q311 -69 321 -69Q332 -69 345 -60Q349 -58 353 -59T358 -63L389 -143Q392 -152 383 -157Q323 -191 269 -191Q222 -191 195 -168T169 -108Q169 -58 218 -12Q129 -9 75 37T21 171Q21 215 31 268T62 362Q130 502 311 502ZM291 372Q251 372 232 335Q225 321 225 308Q225 302 230 302H327Q333 302 334 308Q337 317 337 327Q337 372 291 372Z" horiz-adv-x="523" unicode="ę"/>
			<glyph d="M136 680H578Q588 680 586 670L559 522Q557 512 549 512H303Q297 512 297 506L284 431Q283 425 288 425H484Q494 425 492 415L467 271Q465 261 455 261H259Q255 261 253 255L238 174Q238 168 243 168H487Q497 168 495 158L469 10Q467 0 458 0H17Q7 0 9 10L126 670Q128 680 136 680ZM211 890H315Q329 890 336 880L371 835H373L425 880Q436 890 450 890H563Q567 890 568 886T566 880L431 737Q422 727 411 727H308Q295 727 289 737L205 880Q203 884 205 887T211 890Z" unicode="Ě"/>
			<glyph d="M311 502Q402 502 457 456T513 327Q513 286 499 202Q497 192 487 192H210Q205 192 203 187L202 177Q202 128 280 128Q331 128 389 167Q398 173 403 166L463 82Q470 73 461 66Q368 -12 233 -12Q137 -12 79 34T21 171Q21 215 31 268T62 362Q130 502 311 502ZM291 372Q251 372 232 335Q225 321 225 308Q225 302 230 302H327Q333 302 334 308Q337 317 337 327Q337 372 291 372ZM164 698H268Q282 698 289 688L324 643H326L378 688Q389 698 403 698H516Q520 698 521 694T519 688L384 545Q375 535 364 535H260Q248 535 242 545L158 688Q156 692 158 695T164 698Z" horiz-adv-x="523" unicode="ě"/>
			<glyph d="M381 692Q457 692 518 658T606 546Q610 534 598 529L439 468Q427 463 422 473Q403 513 359 513Q309 513 286 464Q275 442 258 353T241 227Q241 200 256 183T302 167Q359 167 379 208L385 232Q385 238 379 238H329Q320 238 322 248L345 374Q347 384 356 384H601Q610 384 608 374L600 328Q578 203 548 146Q511 74 448 31T277 -12Q166 -12 102 44T38 208Q38 267 57 372T103 530Q182 692 381 692ZM363 898H467Q479 898 485 888L569 745Q571 741 569 738T563 735H459Q446 735 438 745L403 791H401L349 745Q338 735 324 735H211Q207 735 206 738T208 745L343 888Q352 898 363 898Z" horiz-adv-x="600" unicode="Ĝ"/>
			<glyph d="M239 502Q268 502 301 489T348 442H349L356 480Q358 490 368 490H538Q548 490 546 480L482 88Q455 -64 382 -128T180 -192Q118 -192 64 -168T-14 -105Q-19 -97 -10 -90L95 -2Q103 5 111 -1Q150 -37 192 -37Q231 -37 252 -16T282 55L289 91H288Q245 33 160 33Q25 33 25 184Q25 234 37 294T69 394Q122 502 239 502ZM285 347Q252 347 237 315Q230 302 224 273T219 227Q219 184 255 184Q287 184 303 216Q310 229 316 258T322 304Q322 347 285 347ZM300 702H404Q416 702 422 692L506 549Q508 545 506 542T500 539H396Q383 539 375 549L340 595H338L286 549Q275 539 261 539H148Q144 539 143 542T145 549L280 692Q289 702 300 702Z" horiz-adv-x="539" unicode="ĝ"/>
			<glyph d="M381 692Q457 692 518 658T606 546Q610 534 598 529L439 468Q427 463 422 473Q403 513 359 513Q309 513 286 464Q275 442 258 353T241 227Q241 200 256 183T302 167Q359 167 379 208L385 232Q385 238 379 238H329Q320 238 322 248L345 374Q347 384 356 384H601Q610 384 608 374L600 328Q578 203 548 146Q511 74 448 31T277 -12Q166 -12 102 44T38 208Q38 267 57 372T103 530Q182 692 381 692ZM255 885H327Q339 885 342 874Q352 836 398 836Q445 836 469 874Q476 885 488 885H559Q572 885 570 873Q560 810 503 767T381 724Q311 724 271 766T240 872Q242 885 255 885Z" horiz-adv-x="600" unicode="Ğ"/>
			<glyph d="M239 502Q268 502 301 489T348 442H349L356 480Q358 490 368 490H538Q548 490 546 480L482 88Q455 -64 382 -128T180 -192Q118 -192 64 -168T-14 -105Q-19 -97 -10 -90L95 -2Q103 5 111 -1Q150 -37 192 -37Q231 -37 252 -16T282 55L289 91H288Q245 33 160 33Q25 33 25 184Q25 234 37 294T69 394Q122 502 239 502ZM285 347Q252 347 237 315Q230 302 224 273T219 227Q219 184 255 184Q287 184 303 216Q310 229 316 258T322 304Q322 347 285 347ZM189 693H261Q273 693 276 682Q286 644 332 644Q379 644 403 682Q410 693 422 693H493Q506 693 504 681Q494 618 437 574T315 531Q245 531 205 574T174 680Q176 693 189 693Z" horiz-adv-x="539" unicode="ğ"/>
			<glyph d="M381 692Q457 692 518 658T606 546Q610 534 598 529L439 468Q427 463 422 473Q403 513 359 513Q309 513 286 464Q275 442 258 353T241 227Q241 200 256 183T302 167Q359 167 379 208L385 232Q385 238 379 238H329Q320 238 322 248L345 374Q347 384 356 384H601Q610 384 608 374L600 328Q578 203 548 146Q511 74 448 31T277 -12Q166 -12 102 44T38 208Q38 267 57 372T103 530Q182 692 381 692ZM329 882H486Q496 882 494 872L473 752Q471 742 462 742H304Q294 742 296 752L317 872Q319 882 329 882Z" horiz-adv-x="600" unicode="Ġ"/>
			<glyph d="M239 502Q268 502 301 489T348 442H349L356 480Q358 490 368 490H538Q548 490 546 480L482 88Q455 -64 382 -128T180 -192Q118 -192 64 -168T-14 -105Q-19 -97 -10 -90L95 -2Q103 5 111 -1Q150 -37 192 -37Q231 -37 252 -16T282 55L289 91H288Q245 33 160 33Q25 33 25 184Q25 234 37 294T69 394Q122 502 239 502ZM285 347Q252 347 237 315Q230 302 224 273T219 227Q219 184 255 184Q287 184 303 216Q310 229 316 258T322 304Q322 347 285 347ZM265 680H423Q433 680 431 670L410 550Q408 540 399 540H241Q231 540 233 550L254 670Q256 680 265 680Z" horiz-adv-x="539" unicode="ġ"/>
			<glyph d="M381 692Q457 692 518 658T606 546Q610 534 598 529L439 468Q427 463 422 473Q403 513 359 513Q309 513 286 464Q275 442 258 353T241 227Q241 200 256 183T302 167Q359 167 379 208L385 232Q385 238 379 238H329Q320 238 322 248L345 374Q347 384 356 384H601Q610 384 608 374L600 328Q578 203 548 146Q511 74 448 31T277 -12Q166 -12 102 44T38 208Q38 267 57 372T103 530Q182 692 381 692ZM191 -41H327Q338 -41 336 -51L319 -149Q317 -165 305 -172L174 -247Q161 -255 156 -255Q145 -255 146 -243L180 -51Q182 -41 191 -41Z" horiz-adv-x="600" unicode="Ģ"/>
			<glyph d="M239 502Q268 502 301 489T348 442H349L356 480Q358 490 368 490H538Q548 490 546 480L482 88Q455 -64 382 -128T180 -192Q118 -192 64 -168T-14 -105Q-19 -97 -10 -90L95 -2Q103 5 111 -1Q150 -37 192 -37Q231 -37 252 -16T282 55L289 91H288Q245 33 160 33Q25 33 25 184Q25 234 37 294T69 394Q122 502 239 502ZM285 347Q252 347 237 315Q230 302 224 273T219 227Q219 184 255 184Q287 184 303 216Q310 229 316 258T322 304Q322 347 285 347ZM418 752Q430 752 428 739L395 548Q393 538 383 538H247Q237 538 239 548L255 645Q258 661 270 668L400 744Q413 752 418 752Z" horiz-adv-x="539" unicode="ģ"/>
			<glyph d="M137 680H319Q330 680 328 670L288 441Q287 435 292 435H430Q436 435 437 441L478 670Q480 680 489 680H671Q682 680 680 670L563 10Q561 0 552 0H370Q359 0 361 10L403 250Q405 256 398 256H260Q256 256 254 250L211 10Q209 0 200 0H18Q7 0 9 10L126 670Q128 680 137 680ZM388 898H492Q504 898 510 888L594 745Q596 741 594 738T588 735H484Q471 735 463 745L428 791H426L374 745Q363 735 349 735H236Q232 735 231 738T233 745L368 888Q377 898 388 898Z" horiz-adv-x="641" unicode="Ĥ"/>
			<glyph d="M134 680H308Q318 680 316 670L276 442H277Q325 502 407 502Q563 502 529 319L473 10Q471 0 462 0H289Q278 0 280 10L329 289Q339 344 299 344Q258 344 249 290L200 10Q198 0 189 0H15Q5 0 7 10L123 670Q125 680 134 680ZM352 898H456Q468 898 474 888L558 745Q560 741 558 738T552 735H448Q435 735 427 745L392 791H390L338 745Q327 735 313 735H200Q196 735 195 738T197 745L332 888Q341 898 352 898Z" horiz-adv-x="549" unicode="ĥ"/>
			<glyph d="M137 680H319Q330 680 328 670L319 619Q318 613 323 613H462Q468 613 469 619L478 670Q480 680 489 680H671Q682 680 680 670L672 619Q671 613 677 613H701Q710 613 708 603L693 517Q691 507 683 507H657Q652 507 650 501L563 10Q561 0 552 0H370Q359 0 361 10L403 250Q405 256 398 256H260Q256 256 254 250L211 10Q209 0 200 0H18Q7 0 9 10L96 501Q98 507 91 507H64Q53 507 55 517L71 603Q73 613 82 613H109Q116 613 117 619L126 670Q128 680 137 680ZM305 507Q300 507 298 501L288 441Q287 435 292 435H430Q436 435 437 441L447 501Q449 507 442 507Z" horiz-adv-x="641" unicode="Ħ"/>
			<glyph d="M134 680H308Q318 680 316 670L312 650Q311 644 317 644H401Q411 644 409 634L393 548Q391 538 382 538H299Q294 538 292 532L276 442H277Q325 502 407 502Q563 502 529 319L473 10Q471 0 462 0H289Q278 0 280 10L329 289Q339 344 299 344Q258 344 249 290L200 10Q198 0 189 0H15Q5 0 7 10L98 532Q100 538 93 538H70Q61 538 63 548L79 634Q81 644 90 644H112Q118 644 119 650L123 670Q125 680 134 680Z" horiz-adv-x="549" unicode="ħ"/>
			<glyph d="M137 680H319Q330 680 328 670L211 10Q209 0 200 0H18Q7 0 9 10L126 670Q128 680 137 680ZM199 898Q245 898 286 872Q314 855 342 855Q382 855 425 888Q429 891 433 889T436 883L420 794Q418 781 406 771Q362 733 317 733Q269 733 230 758Q203 775 174 775Q135 775 91 742Q87 739 83 741T80 747L96 836Q99 850 109 859Q156 898 199 898Z" horiz-adv-x="289" unicode="Ĩ"/>
			<glyph d="M101 490H275Q285 490 283 480L200 10Q198 0 189 0H15Q5 0 7 10L90 480Q92 490 101 490ZM154 704Q200 704 241 678Q268 661 297 661Q335 661 380 694Q384 697 388 695T391 689L375 600Q373 587 361 577Q317 539 272 539Q225 539 185 564Q157 581 129 581Q89 581 46 548Q42 545 38 547T35 553L51 642Q54 656 64 665Q111 704 154 704Z" horiz-adv-x="276" unicode="ĩ"/>
			<glyph d="M137 680H319Q330 680 328 670L211 10Q209 0 200 0H18Q7 0 9 10L126 670Q128 680 137 680ZM99 875H411Q421 875 419 865L401 761Q399 751 390 751H78Q68 751 70 761L88 865Q90 875 99 875Z" horiz-adv-x="289" unicode="Ī"/>
			<glyph d="M101 490H275Q285 490 283 480L200 10Q198 0 189 0H15Q5 0 7 10L90 480Q92 490 101 490ZM58 676H370Q380 676 378 666L360 562Q358 552 349 552H37Q27 552 29 562L47 666Q49 676 58 676Z" horiz-adv-x="276" unicode="ī"/>
			<glyph d="M137 680H319Q330 680 328 670L211 10Q209 0 200 0H18Q7 0 9 10L126 670Q128 680 137 680ZM111 885H183Q195 885 198 874Q208 836 254 836Q301 836 325 874Q332 885 344 885H415Q428 885 426 873Q416 810 359 767T237 724Q167 724 127 766T96 872Q98 885 111 885Z" horiz-adv-x="289" unicode="Ĭ"/>
			<glyph d="M101 490H275Q285 490 283 480L200 10Q198 0 189 0H15Q5 0 7 10L90 480Q92 490 101 490ZM65 693H137Q149 693 152 682Q162 644 208 644Q255 644 279 682Q286 693 298 693H369Q382 693 380 681Q370 618 313 574T191 531Q121 531 81 574T50 680Q52 693 65 693Z" horiz-adv-x="276" unicode="ĭ"/>
			<glyph d="M137 680H319Q330 680 328 670L211 11Q210 3 202 0Q196 -2 181 -8T138 -28T109 -60Q109 -69 119 -69Q130 -69 143 -60Q147 -58 151 -59T156 -63L187 -143Q190 -152 181 -157Q121 -191 67 -191Q20 -191 -6 -168T-33 -108Q-33 -48 30 0H18Q7 0 9 10L126 670Q128 680 137 680Z" horiz-adv-x="289" unicode="Į"/>
			<glyph d="M134 680H308Q318 680 316 670L295 550Q293 540 284 540H110Q100 540 102 550L123 670Q125 680 134 680ZM101 490H275Q285 490 283 480L200 10Q199 2 187 -3Q102 -36 102 -60Q102 -69 112 -69Q123 -69 136 -60Q140 -58 144 -59T149 -63L180 -143Q183 -152 174 -157Q114 -191 60 -191Q13 -191 -13 -168T-40 -108Q-40 -48 23 0H14Q5 0 7 10L90 480Q92 490 101 490Z" horiz-adv-x="276" unicode="į"/>
			<glyph d="M137 680H319Q330 680 328 670L211 10Q209 0 200 0H18Q7 0 9 10L126 670Q128 680 137 680ZM182 882H339Q349 882 347 872L326 752Q324 742 315 742H157Q147 742 149 752L170 872Q172 882 182 882Z" horiz-adv-x="289" unicode="İ"/>
			<glyph d="M101 490H275Q285 490 283 480L200 10Q198 0 189 0H15Q5 0 7 10L90 480Q92 490 101 490Z" horiz-adv-x="276" unicode="ı"/>
			<glyph d="M137 680H319Q330 680 328 670L211 10Q209 0 200 0H18Q7 0 9 10L126 670Q128 680 137 680ZM657 680H840Q851 680 849 670L778 273Q726 -12 463 -12Q396 -12 343 17T270 90Q268 99 274 104L417 202Q426 207 429 201Q453 167 489 167Q555 167 572 252L647 670Q649 680 657 680Z" horiz-adv-x="808" unicode="Ĳ"/>
			<glyph d="M134 680H308Q318 680 316 670L295 550Q293 540 284 540H110Q100 540 102 550L123 670Q125 680 134 680ZM101 490H275Q285 490 283 480L200 10Q198 0 189 0H15Q5 0 7 10L90 480Q92 490 101 490ZM410 680H584Q594 680 592 670L571 550Q569 540 560 540H386Q376 540 378 550L399 670Q401 680 410 680ZM377 490H551Q561 490 559 480L480 29Q461 -77 410 -128T230 -180H188Q178 -180 181 -170L205 -35Q207 -25 216 -25H225Q254 -25 267 -14T286 30L366 480Q368 490 377 490Z" horiz-adv-x="552" unicode="ĳ"/>
			<glyph d="M368 680H551Q562 680 560 670L489 273Q437 -12 174 -12Q107 -12 54 17T-19 90Q-21 99 -15 104L128 202Q137 207 140 201Q164 167 200 167Q266 167 283 252L358 670Q360 680 368 680ZM446 898H550Q562 898 568 888L652 745Q654 741 652 738T646 735H542Q529 735 521 745L486 791H484L432 745Q421 735 407 735H294Q290 735 289 738T291 745L426 888Q435 898 446 898Z" horiz-adv-x="519" unicode="Ĵ"/>
			<glyph d="M101 490H275Q285 490 283 480L204 29Q185 -77 134 -128T-46 -180H-88Q-98 -180 -95 -170L-71 -35Q-69 -25 -60 -25H-51Q-22 -25 -9 -14T10 30L90 480Q92 490 101 490ZM170 702H274Q286 702 292 692L376 549Q378 545 376 542T370 539H266Q253 539 245 549L210 595H208L156 549Q145 539 131 539H18Q14 539 13 542T15 549L150 692Q159 702 170 702Z" horiz-adv-x="276" unicode="ĵ"/>
			<glyph d="M137 680H319Q330 680 328 670L289 450L472 670Q481 680 491 680H705Q711 680 713 675T711 667L466 399L595 11Q596 7 594 3T588 0H396Q383 0 380 10L312 248L237 157L211 10Q209 0 200 0H18Q7 0 9 10L126 670Q128 680 137 680ZM222 -41H358Q369 -41 367 -51L350 -149Q348 -165 336 -172L205 -247Q192 -255 187 -255Q176 -255 177 -243L211 -51Q213 -41 222 -41Z" horiz-adv-x="637" unicode="Ķ"/>
			<glyph d="M131 680H304Q315 680 313 670L258 354L364 481Q372 490 384 490H557Q562 490 563 487T562 480L402 308L497 10Q501 0 491 0H313Q303 0 300 10L252 193L224 159L198 10Q196 0 187 0H15Q5 0 7 10L121 670Q123 680 131 680ZM174 -41H310Q321 -41 319 -51L302 -149Q300 -165 288 -172L157 -247Q144 -255 139 -255Q128 -255 129 -243L163 -51Q165 -41 174 -41Z" horiz-adv-x="536" unicode="ķ"/>
			<glyph d="M98 490H271Q282 490 280 480L258 354L364 481Q372 490 384 490H557Q562 490 563 487T562 480L402 308L497 10Q501 0 491 0H313Q303 0 300 10L252 193L224 159L198 10Q196 0 187 0H15Q5 0 7 10L88 480Q90 490 98 490Z" horiz-adv-x="536" unicode="ĸ"/>
			<glyph d="M137 680H319Q330 680 328 670L242 185Q241 179 246 179H481Q492 179 490 169L461 10Q459 0 450 0H18Q7 0 9 10L126 670Q128 680 137 680ZM327 890H485Q489 890 490 886T489 880L336 749Q325 739 311 739H179Q175 739 173 742T175 749L305 880Q315 890 327 890Z" horiz-adv-x="522" unicode="Ĺ"/>
			<glyph d="M132 680H306Q317 680 315 670L230 204Q227 184 231 168T260 153H279Q289 153 287 143L262 4Q260 -6 251 -6H183Q93 -6 53 31T33 180L122 670Q124 680 132 680ZM308 890H466Q470 890 471 886T470 880L317 749Q306 739 292 739H160Q156 739 154 742T156 749L286 880Q296 890 308 890Z" horiz-adv-x="319" unicode="ĺ"/>
			<glyph d="M137 680H319Q330 680 328 670L242 185Q241 179 246 179H481Q492 179 490 169L461 10Q459 0 450 0H18Q7 0 9 10L126 670Q128 680 137 680ZM187 -41H323Q334 -41 332 -51L315 -149Q313 -165 301 -172L170 -247Q157 -255 152 -255Q141 -255 142 -243L176 -51Q178 -41 187 -41Z" horiz-adv-x="522" unicode="Ļ"/>
			<glyph d="M132 680H306Q317 680 315 670L230 204Q227 184 231 168T260 153H279Q289 153 287 143L262 4Q260 -6 251 -6H183Q93 -6 53 31T33 180L122 670Q124 680 132 680ZM83 -41H219Q230 -41 228 -51L211 -149Q209 -165 197 -172L66 -247Q53 -255 48 -255Q37 -255 38 -243L72 -51Q74 -41 83 -41Z" horiz-adv-x="319" unicode="ļ"/>
			<glyph d="M137 680H319Q330 680 328 670L242 185Q241 179 246 179H481Q492 179 490 169L461 10Q459 0 450 0H18Q7 0 9 10L126 670Q128 680 137 680ZM390 680H511Q522 680 520 670L501 566Q498 552 487 544L372 467Q361 459 355 459Q343 459 345 472L379 670Q381 680 390 680Z" horiz-adv-x="522" unicode="Ľ"/>
			<glyph d="M132 680H306Q317 680 315 670L230 204Q227 184 231 168T260 153H279Q289 153 287 143L262 4Q260 -6 251 -6H183Q93 -6 53 31T33 180L122 670Q124 680 132 680ZM354 680H475Q486 680 484 670L465 566Q462 552 451 544L336 467Q325 459 319 459Q307 459 309 472L343 670Q345 680 354 680Z" horiz-adv-x="319" unicode="ľ"/>
			<glyph d="M137 680H319Q330 680 328 670L242 185Q241 179 246 179H481Q492 179 490 169L461 10Q459 0 450 0H18Q7 0 9 10L126 670Q128 680 137 680ZM361 413H516Q527 413 525 403L498 248Q496 238 487 238H333Q322 238 324 248L350 403Q352 413 361 413Z" horiz-adv-x="522" unicode="Ŀ"/>
			<glyph d="M132 680H306Q317 680 315 670L230 204Q227 184 231 168T260 153H279Q289 153 287 143L262 4Q260 -6 251 -6H183Q93 -6 53 31T33 180L122 670Q124 680 132 680ZM315 413H470Q481 413 479 403L452 248Q450 238 441 238H287Q276 238 278 248L304 403Q306 413 315 413Z" horiz-adv-x="438" unicode="ŀ"/>
			<glyph d="M137 680H319Q330 680 328 670L292 467L428 532Q432 534 435 532T437 526L415 408Q413 398 405 394L268 329L242 185Q241 179 246 179H481Q492 179 490 169L461 10Q459 0 450 0H18Q7 0 9 10L48 230L11 212Q7 210 4 212T2 218L24 336Q26 346 34 350L73 368L126 670Q128 680 137 680Z" horiz-adv-x="522" unicode="Ł"/>
			<glyph d="M132 680H306Q317 680 315 670L278 466L340 496Q344 498 347 495T349 489L327 373Q325 363 316 359L253 329L230 204Q227 184 231 168T260 153H279Q289 153 287 143L262 4Q260 -6 251 -6H183Q93 -6 53 31T33 180L42 228L7 212Q3 210 0 212T-2 219L20 335Q22 345 31 349L67 366L122 670Q124 680 132 680Z" horiz-adv-x="319" unicode="ł"/>
			<glyph d="M137 680H309Q321 680 324 670L423 323H427L488 670Q490 680 499 680H662Q672 680 670 670L553 10Q551 0 542 0H368Q358 0 355 10L257 357H252L191 10Q189 0 180 0H18Q7 0 9 10L126 670Q128 680 137 680ZM472 890H630Q634 890 635 886T634 880L481 749Q470 739 456 739H324Q320 739 318 742T320 749L450 880Q460 890 472 890Z" horiz-adv-x="631" unicode="Ń"/>
			<glyph d="M407 502Q563 502 529 320L473 10Q471 0 462 0H289Q278 0 280 10L329 289Q339 344 299 344Q258 344 249 290L200 10Q198 0 189 0H15Q5 0 7 10L90 480Q92 490 101 490H274Q284 490 282 480L276 442H277Q325 502 407 502ZM364 704H522Q526 704 527 700T525 694L396 551Q387 541 377 541H242Q238 541 236 544T238 551L345 694Q352 704 364 704Z" horiz-adv-x="549" unicode="ń"/>
			<glyph d="M137 680H309Q321 680 324 670L423 323H427L488 670Q490 680 499 680H662Q672 680 670 670L553 10Q551 0 542 0H368Q358 0 355 10L257 357H252L191 10Q189 0 180 0H18Q7 0 9 10L126 670Q128 680 137 680ZM232 -41H368Q379 -41 377 -51L360 -149Q358 -165 346 -172L215 -247Q202 -255 197 -255Q186 -255 187 -243L221 -51Q223 -41 232 -41Z" horiz-adv-x="631" unicode="Ņ"/>
			<glyph d="M407 502Q563 502 529 320L473 10Q471 0 462 0H289Q278 0 280 10L329 289Q339 344 299 344Q258 344 249 290L200 10Q198 0 189 0H15Q5 0 7 10L90 480Q92 490 101 490H274Q284 490 282 480L276 442H277Q325 502 407 502ZM166 -41H302Q313 -41 311 -51L294 -149Q292 -165 280 -172L149 -247Q136 -255 131 -255Q120 -255 121 -243L155 -51Q157 -41 166 -41Z" horiz-adv-x="549" unicode="ņ"/>
			<glyph d="M137 680H309Q321 680 324 670L423 323H427L488 670Q490 680 499 680H662Q672 680 670 670L553 10Q551 0 542 0H368Q358 0 355 10L257 357H252L191 10Q189 0 180 0H18Q7 0 9 10L126 670Q128 680 137 680ZM254 890H358Q372 890 379 880L414 835H416L468 880Q479 890 493 890H606Q610 890 611 886T609 880L474 737Q465 727 454 727H351Q338 727 332 737L248 880Q246 884 248 887T254 890Z" horiz-adv-x="631" unicode="Ň"/>
			<glyph d="M407 502Q563 502 529 320L473 10Q471 0 462 0H289Q278 0 280 10L329 289Q339 344 299 344Q258 344 249 290L200 10Q198 0 189 0H15Q5 0 7 10L90 480Q92 490 101 490H274Q284 490 282 480L276 442H277Q325 502 407 502ZM179 698H283Q297 698 304 688L339 643H341L393 688Q404 698 418 698H531Q535 698 536 694T534 688L399 545Q390 535 379 535H275Q263 535 257 545L173 688Q171 692 173 695T179 698Z" horiz-adv-x="549" unicode="ň"/>
			<glyph d="M407 502Q563 502 529 320L473 10Q471 0 462 0H289Q278 0 280 10L329 289Q339 344 299 344Q258 344 249 290L200 10Q198 0 189 0H15Q5 0 7 10L90 480Q92 490 101 490H274Q284 490 282 480L276 442H277Q325 502 407 502ZM35 680H156Q167 680 165 670L146 566Q143 552 132 544L17 467Q6 459 0 459Q-12 459 -10 472L24 670Q26 680 35 680Z" horiz-adv-x="549" unicode="ŉ"/>
			<glyph d="M136 680H309Q321 680 324 670L423 323H427L488 670Q490 680 499 680H661Q672 680 670 670L560 50Q516 -192 281 -192H239Q229 -192 231 -182L258 -37Q260 -27 269 -27H278Q337 -27 355 8V10L257 357H252L191 10Q189 0 180 0H17Q7 0 9 10L126 670Q128 680 136 680Z" horiz-adv-x="632" unicode="Ŋ"/>
			<glyph d="M407 502Q561 502 529 320L477 29Q459 -71 407 -125T233 -180H192Q182 -180 184 -170L208 -35Q210 -25 219 -25H228Q248 -25 262 -18T283 26L329 289Q339 344 299 344Q258 344 249 290L200 10Q198 0 189 0H15Q5 0 7 10L90 480Q92 490 101 490H274Q284 490 282 480L276 442H277Q325 502 407 502Z" horiz-adv-x="549" unicode="ŋ"/>
			<glyph d="M378 692Q489 692 552 635T616 472Q616 412 597 307T551 150Q515 78 447 33T276 -12Q165 -12 101 44T38 208Q38 268 57 372T103 530Q139 602 206 647T378 692ZM357 513Q309 513 286 464Q275 442 258 353T241 227Q241 200 255 183T297 167Q345 167 368 216Q379 238 396 327T413 453Q413 480 398 496T357 513ZM260 875H572Q582 875 580 865L562 761Q560 751 551 751H239Q229 751 231 761L249 865Q251 875 260 875Z" horiz-adv-x="606" unicode="Ō"/>
			<glyph d="M307 502Q400 502 456 453T512 313Q512 270 502 218T473 128Q404 -12 226 -12Q133 -12 77 36T21 177Q21 220 31 271T60 362Q129 502 307 502ZM285 347Q253 347 238 316Q230 298 220 251T211 184Q211 143 248 143Q280 143 295 174Q303 192 312 239T322 306Q322 347 285 347ZM168 676H480Q490 676 488 666L470 562Q468 552 459 552H147Q137 552 139 562L157 666Q159 676 168 676Z" horiz-adv-x="522" unicode="ō"/>
			<glyph d="M378 692Q489 692 552 635T616 472Q616 412 597 307T551 150Q515 78 447 33T276 -12Q165 -12 101 44T38 208Q38 268 57 372T103 530Q139 602 206 647T378 692ZM357 513Q309 513 286 464Q275 442 258 353T241 227Q241 200 255 183T297 167Q345 167 368 216Q379 238 396 327T413 453Q413 480 398 496T357 513ZM263 885H335Q347 885 350 874Q360 836 406 836Q453 836 477 874Q484 885 496 885H567Q580 885 578 873Q568 810 511 767T389 724Q319 724 279 766T248 872Q250 885 263 885Z" horiz-adv-x="606" unicode="Ŏ"/>
			<glyph d="M307 502Q400 502 456 453T512 313Q512 270 502 218T473 128Q404 -12 226 -12Q133 -12 77 36T21 177Q21 220 31 271T60 362Q129 502 307 502ZM285 347Q253 347 238 316Q230 298 220 251T211 184Q211 143 248 143Q280 143 295 174Q303 192 312 239T322 306Q322 347 285 347ZM184 693H256Q268 693 271 682Q281 644 327 644Q374 644 398 682Q405 693 417 693H488Q501 693 499 681Q489 618 432 574T310 531Q240 531 200 574T169 680Q171 693 184 693Z" horiz-adv-x="522" unicode="ŏ"/>
			<glyph d="M378 692Q489 692 552 635T616 472Q616 412 597 307T551 150Q515 78 447 33T276 -12Q165 -12 101 44T38 208Q38 268 57 372T103 530Q139 602 206 647T378 692ZM357 513Q309 513 286 464Q275 442 258 353T241 227Q241 200 255 183T297 167Q345 167 368 216Q379 238 396 327T413 453Q413 480 398 496T357 513ZM537 884H666Q670 884 672 880T671 874L555 749Q545 739 533 739H424Q420 739 418 742T419 749L519 874Q526 884 537 884ZM344 884H473Q477 884 479 880T478 874L362 749Q352 739 340 739H230Q226 739 224 742T226 749L326 874Q333 884 344 884Z" horiz-adv-x="606" unicode="Ő"/>
			<glyph d="M307 502Q400 502 456 453T512 313Q512 270 502 218T473 128Q404 -12 226 -12Q133 -12 77 36T21 177Q21 220 31 271T60 362Q129 502 307 502ZM285 347Q253 347 238 316Q230 298 220 251T211 184Q211 143 248 143Q280 143 295 174Q303 192 312 239T322 306Q322 347 285 347ZM452 700H580Q584 700 586 696T585 690L474 547Q467 537 455 537H343Q339 537 337 540T339 547L434 690Q441 700 452 700ZM260 700H388Q392 700 394 696T393 690L282 547Q275 537 263 537H151Q147 537 145 540T147 547L242 690Q249 700 260 700Z" horiz-adv-x="522" unicode="ő"/>
			<glyph d="M347 692Q382 692 410 681T453 652H455L458 670Q460 680 468 680H910Q920 680 918 670L892 522Q890 512 882 512H636Q630 512 630 506L616 431Q615 425 620 425H816Q826 425 824 415L800 271Q798 261 788 261H592Q587 261 585 255L570 174Q570 168 575 168H819Q829 168 827 158L801 10Q799 0 790 0H349Q339 0 341 10L345 28H343Q301 -12 228 -12Q39 -12 39 208Q39 267 58 372T104 530Q183 692 347 692ZM359 513Q310 513 287 464Q276 442 259 353T243 227Q243 167 298 167Q347 167 370 216Q381 238 397 326T414 453Q414 513 359 513Z" horiz-adv-x="866" unicode="Œ"/>
			<glyph d="M307 502Q396 502 447 454H449Q473 474 513 488T596 502Q687 502 742 456T798 327Q798 286 784 202Q782 192 772 192H495Q490 192 488 187L487 177Q487 128 565 128Q616 128 674 167Q683 173 688 166L748 82Q755 73 746 66Q653 -12 518 -12Q429 -12 374 34H373Q307 -12 225 -12Q132 -12 76 36T21 177Q21 220 31 271T60 362Q127 502 307 502ZM576 372Q536 372 517 335Q510 321 510 308Q510 302 515 302H611Q618 302 619 308Q622 318 622 327Q622 372 576 372ZM285 347Q253 347 238 316Q230 298 220 251T211 184Q211 143 248 143Q279 143 295 174Q303 192 312 239T322 306Q322 347 285 347Z" horiz-adv-x="809" unicode="œ"/>
			<glyph d="M136 680H411Q518 680 573 630T629 497Q629 417 592 356T492 262L558 11Q560 0 550 0H370Q359 0 356 10L308 226H254Q250 226 248 220L210 10Q208 0 199 0H17Q7 0 9 10L126 670Q128 680 136 680ZM304 512Q298 512 298 506L278 395Q277 389 282 389H344Q379 389 401 410T424 467Q424 488 409 500T367 512ZM422 890H580Q584 890 585 886T584 880L431 749Q420 739 406 739H274Q270 739 268 742T270 749L400 880Q410 890 422 890Z" horiz-adv-x="610" unicode="Ŕ"/>
			<glyph d="M411 502Q438 502 453 496Q464 493 459 482L372 306Q367 296 357 303Q326 324 302 324Q255 324 243 252L200 10Q198 0 189 0H15Q5 0 7 10L90 480Q92 490 101 490H274Q284 490 282 480L274 435H275Q318 502 411 502ZM328 704H486Q490 704 491 700T489 694L360 551Q351 541 341 541H206Q202 541 200 544T202 551L309 694Q316 704 328 704Z" horiz-adv-x="420" unicode="ŕ"/>
			<glyph d="M136 680H411Q518 680 573 630T629 497Q629 417 592 356T492 262L558 11Q560 0 550 0H370Q359 0 356 10L308 226H254Q250 226 248 220L210 10Q208 0 199 0H17Q7 0 9 10L126 670Q128 680 136 680ZM304 512Q298 512 298 506L278 395Q277 389 282 389H344Q379 389 401 410T424 467Q424 488 409 500T367 512ZM206 -41H342Q353 -41 351 -51L334 -149Q332 -165 320 -172L189 -247Q176 -255 171 -255Q160 -255 161 -243L195 -51Q197 -41 206 -41Z" horiz-adv-x="610" unicode="Ŗ"/>
			<glyph d="M411 502Q438 502 453 496Q464 493 459 482L372 306Q367 296 357 303Q326 324 302 324Q255 324 243 252L200 10Q198 0 189 0H15Q5 0 7 10L90 480Q92 490 101 490H274Q284 490 282 480L274 435H275Q318 502 411 502ZM26 -41H162Q173 -41 171 -51L154 -149Q152 -165 140 -172L9 -247Q-4 -255 -9 -255Q-20 -255 -19 -243L15 -51Q17 -41 26 -41Z" horiz-adv-x="420" unicode="ŗ"/>
			<glyph d="M136 680H411Q518 680 573 630T629 497Q629 417 592 356T492 262L558 11Q560 0 550 0H370Q359 0 356 10L308 226H254Q250 226 248 220L210 10Q208 0 199 0H17Q7 0 9 10L126 670Q128 680 136 680ZM304 512Q298 512 298 506L278 395Q277 389 282 389H344Q379 389 401 410T424 467Q424 488 409 500T367 512ZM210 890H314Q328 890 335 880L370 835H372L424 880Q435 890 449 890H562Q566 890 567 886T565 880L430 737Q421 727 410 727H307Q294 727 288 737L204 880Q202 884 204 887T210 890Z" horiz-adv-x="610" unicode="Ř"/>
			<glyph d="M411 502Q438 502 453 496Q464 493 459 482L372 306Q367 296 357 303Q326 324 302 324Q255 324 243 252L200 10Q198 0 189 0H15Q5 0 7 10L90 480Q92 490 101 490H274Q284 490 282 480L274 435H275Q318 502 411 502ZM149 698H253Q267 698 274 688L309 643H311L363 688Q374 698 388 698H501Q505 698 506 694T504 688L369 545Q360 535 349 535H245Q233 535 227 545L143 688Q141 692 143 695T149 698Z" horiz-adv-x="420" unicode="ř"/>
			<glyph d="M368 692Q439 692 502 670T607 613Q615 607 606 596L499 475Q491 467 483 473Q424 519 353 519Q323 519 304 506T285 475Q285 446 343 437L377 432Q574 403 574 253Q574 131 487 59T257 -12Q176 -12 99 18T-10 89Q-18 99 -8 107L112 224Q115 227 120 227Q125 227 127 224Q152 198 192 180T275 162Q315 162 339 176T363 213Q363 243 306 252L271 257Q75 285 75 434Q75 549 154 620T368 692ZM432 890H590Q594 890 595 886T594 880L441 749Q430 739 416 739H284Q280 739 278 742T280 749L410 880Q420 890 432 890Z" horiz-adv-x="595" unicode="Ś"/>
			<glyph d="M302 502Q350 502 409 487T510 437Q517 431 508 422L427 336Q420 329 412 333Q352 371 284 371Q269 371 253 365T238 346Q238 329 277 325L329 319Q486 302 486 191Q486 100 415 44T224 -12Q82 -12 -7 66Q-10 68 -9 73T-6 81L83 172Q90 179 99 173Q179 123 251 123Q274 123 288 131T303 152Q303 168 257 173L204 179Q136 187 97 219T59 306Q59 396 124 449T302 502ZM329 704H487Q491 704 492 700T490 694L361 551Q352 541 342 541H207Q203 541 201 544T203 551L310 694Q317 704 329 704Z" horiz-adv-x="509" unicode="ś"/>
			<glyph d="M368 692Q439 692 502 670T607 613Q615 607 606 596L499 475Q491 467 483 473Q424 519 353 519Q323 519 304 506T285 475Q285 446 343 437L377 432Q574 403 574 253Q574 131 487 59T257 -12Q176 -12 99 18T-10 89Q-18 99 -8 107L112 224Q115 227 120 227Q125 227 127 224Q152 198 192 180T275 162Q315 162 339 176T363 213Q363 243 306 252L271 257Q75 285 75 434Q75 549 154 620T368 692ZM352 898H456Q468 898 474 888L558 745Q560 741 558 738T552 735H448Q435 735 427 745L392 791H390L338 745Q327 735 313 735H200Q196 735 195 738T197 745L332 888Q341 898 352 898Z" horiz-adv-x="595" unicode="Ŝ"/>
			<glyph d="M302 502Q350 502 409 487T510 437Q517 431 508 422L427 336Q420 329 412 333Q352 371 284 371Q269 371 253 365T238 346Q238 329 277 325L329 319Q486 302 486 191Q486 100 415 44T224 -12Q82 -12 -7 66Q-10 68 -9 73T-6 81L83 172Q90 179 99 173Q179 123 251 123Q274 123 288 131T303 152Q303 168 257 173L204 179Q136 187 97 219T59 306Q59 396 124 449T302 502ZM283 702H387Q399 702 405 692L489 549Q491 545 489 542T483 539H379Q366 539 358 549L323 595H321L269 549Q258 539 244 539H131Q127 539 126 542T128 549L263 692Q272 702 283 702Z" horiz-adv-x="509" unicode="ŝ"/>
			<glyph d="M368 692Q439 692 502 670T607 613Q615 607 606 596L499 475Q491 467 483 473Q424 519 353 519Q323 519 304 506T285 475Q285 446 343 437L377 432Q574 403 574 253Q574 148 509 79T334 -6L263 -161Q259 -171 246 -171H115Q105 -171 110 -161L195 -7Q130 2 73 29T-10 89Q-18 99 -8 107L112 224Q115 227 120 227Q125 227 127 224Q152 198 192 180T275 162Q315 162 339 176T363 213Q363 243 306 252L271 257Q75 285 75 434Q75 549 154 620T368 692Z" horiz-adv-x="595" unicode="Ş"/>
			<glyph d="M302 502Q350 502 409 487T510 437Q517 431 508 422L427 336Q420 329 412 333Q352 371 284 371Q269 371 253 365T238 346Q238 329 277 325L329 319Q486 302 486 191Q486 115 436 63T298 -5L227 -161Q223 -171 210 -171H79Q69 -171 74 -161L159 -7Q57 9 -7 66Q-10 68 -9 73T-6 81L83 172Q90 179 99 173Q179 123 251 123Q274 123 288 131T303 152Q303 168 257 173L204 179Q136 187 97 219T59 306Q59 396 124 449T302 502Z" horiz-adv-x="509" unicode="ş"/>
			<glyph d="M368 692Q439 692 502 670T607 613Q615 607 606 596L499 475Q491 467 483 473Q424 519 353 519Q323 519 304 506T285 475Q285 446 343 437L377 432Q574 403 574 253Q574 131 487 59T257 -12Q176 -12 99 18T-10 89Q-18 99 -8 107L112 224Q115 227 120 227Q125 227 127 224Q152 198 192 180T275 162Q315 162 339 176T363 213Q363 243 306 252L271 257Q75 285 75 434Q75 549 154 620T368 692ZM223 890H327Q341 890 348 880L383 835H385L437 880Q448 890 462 890H575Q579 890 580 886T578 880L443 737Q434 727 423 727H320Q307 727 301 737L217 880Q215 884 217 887T223 890Z" horiz-adv-x="595" unicode="Š"/>
			<glyph d="M302 502Q350 502 409 487T510 437Q517 431 508 422L427 336Q420 329 412 333Q352 371 284 371Q269 371 253 365T238 346Q238 329 277 325L329 319Q486 302 486 191Q486 100 415 44T224 -12Q82 -12 -7 66Q-10 68 -9 73T-6 81L83 172Q90 179 99 173Q179 123 251 123Q274 123 288 131T303 152Q303 168 257 173L204 179Q136 187 97 219T59 306Q59 396 124 449T302 502ZM149 698H253Q267 698 274 688L309 643H311L363 688Q374 698 388 698H501Q505 698 506 694T504 688L369 545Q360 535 349 535H245Q233 535 227 545L143 688Q141 692 143 695T149 698Z" horiz-adv-x="509" unicode="š"/>
			<glyph d="M101 680H628Q639 680 637 670L608 511Q606 501 597 501H440Q435 501 433 495L347 10Q345 0 336 0H154Q143 0 145 10L231 495Q233 501 227 501H71Q60 501 62 511L90 670Q92 680 101 680ZM173 -41H309Q320 -41 318 -51L301 -149Q299 -165 287 -172L156 -247Q143 -255 138 -255Q127 -255 128 -243L162 -51Q164 -41 173 -41Z" horiz-adv-x="562" unicode="Ţ"/>
			<glyph d="M142 630H315Q324 630 322 620L299 496Q298 490 304 490H362Q372 490 370 480L350 365Q348 355 338 355H278Q273 355 271 349L245 209Q240 185 243 169T278 153H298Q309 153 307 143L282 4Q280 -6 270 -6H210Q114 -6 72 36T53 201L82 349Q84 355 77 355H51Q42 355 44 365L64 480Q66 490 75 490H100Q106 490 107 496L130 620Q132 630 142 630ZM83 -41H219Q230 -41 228 -51L211 -149Q209 -165 197 -172L66 -247Q53 -255 48 -255Q37 -255 38 -243L72 -51Q74 -41 83 -41Z" horiz-adv-x="342" unicode="ţ"/>
			<glyph d="M101 680H628Q639 680 637 670L608 511Q606 501 597 501H440Q435 501 433 495L347 10Q345 0 336 0H154Q143 0 145 10L231 495Q233 501 227 501H71Q60 501 62 511L90 670Q92 680 101 680ZM209 890H313Q327 890 334 880L369 835H371L423 880Q434 890 448 890H561Q565 890 566 886T564 880L429 737Q420 727 409 727H306Q293 727 287 737L203 880Q201 884 203 887T209 890Z" horiz-adv-x="562" unicode="Ť"/>
			<glyph d="M142 630H315Q324 630 322 620L299 496Q298 490 304 490H362Q372 490 370 480L350 365Q348 355 338 355H278Q273 355 271 349L245 209Q240 185 243 169T278 153H298Q309 153 307 143L282 4Q280 -6 270 -6H210Q114 -6 72 36T53 201L82 349Q84 355 77 355H51Q42 355 44 365L64 480Q66 490 75 490H100Q106 490 107 496L130 620Q132 630 142 630ZM429 680H550Q561 680 559 670L540 566Q537 552 526 544L411 467Q400 459 394 459Q382 459 384 472L418 670Q420 680 429 680Z" horiz-adv-x="342" unicode="ť"/>
			<glyph d="M101 680H628Q639 680 637 670L608 511Q606 501 597 501H440Q435 501 433 495L418 411Q417 405 423 405H484Q494 405 492 395L474 283Q472 273 463 273H400Q395 273 393 267L347 10Q345 0 336 0H154Q143 0 145 10L191 267Q193 273 186 273H125Q114 273 116 283L135 395Q137 405 146 405H209Q215 405 216 411L231 495Q233 501 227 501H71Q60 501 62 511L90 670Q92 680 101 680Z" horiz-adv-x="562" unicode="Ŧ"/>
			<glyph d="M142 630H315Q324 630 322 620L299 496Q298 490 304 490H362Q372 490 370 480L350 365Q348 355 338 355H278Q273 355 271 349L266 322Q265 316 271 316H313Q322 316 320 306L307 231Q305 221 296 221H253Q248 221 246 215L245 208Q240 185 243 169T278 153H298Q309 153 307 143L282 4Q280 -6 270 -6H210Q114 -6 73 35T53 201L56 215Q58 221 51 221H32Q23 221 25 231L38 306Q40 316 50 316H70Q76 316 77 322L82 349Q84 355 77 355H51Q42 355 44 365L64 480Q66 490 75 490H100Q106 490 107 496L130 620Q132 630 142 630Z" horiz-adv-x="342" unicode="ŧ"/>
			<glyph d="M133 680H315Q326 680 324 670L251 258Q244 215 258 191T306 167Q376 167 392 258L465 670Q467 680 476 680H659Q669 680 667 670L597 275Q570 123 494 55T288 -12Q153 -12 90 61T51 275L122 670Q124 680 133 680ZM358 898Q404 898 445 872Q473 855 501 855Q541 855 584 888Q588 891 592 889T595 883L579 794Q577 781 565 771Q521 733 476 733Q428 733 389 758Q362 775 333 775Q294 775 250 742Q246 739 242 741T239 747L255 836Q258 850 268 859Q315 898 358 898Z" horiz-adv-x="625" unicode="Ũ"/>
			<glyph d="M98 490H272Q282 490 280 480L230 200Q221 146 261 146Q302 146 311 200L360 480Q362 490 371 490H545Q555 490 553 480L470 10Q468 0 459 0H286Q276 0 278 10L284 47H283Q234 -12 151 -12Q0 -12 33 171L87 480Q89 490 98 490ZM285 704Q331 704 372 678Q399 661 428 661Q466 661 511 694Q515 697 519 695T522 689L506 600Q504 587 492 577Q448 539 403 539Q356 539 316 564Q288 581 260 581Q220 581 177 548Q173 545 169 547T166 553L182 642Q185 656 195 665Q242 704 285 704Z" horiz-adv-x="546" unicode="ũ"/>
			<glyph d="M133 680H315Q326 680 324 670L251 258Q244 215 258 191T306 167Q376 167 392 258L465 670Q467 680 476 680H659Q669 680 667 670L597 275Q570 123 494 55T288 -12Q153 -12 90 61T51 275L122 670Q124 680 133 680ZM276 875H588Q598 875 596 865L578 761Q576 751 567 751H255Q245 751 247 761L265 865Q267 875 276 875Z" horiz-adv-x="625" unicode="Ū"/>
			<glyph d="M98 490H272Q282 490 280 480L230 200Q221 146 261 146Q302 146 311 200L360 480Q362 490 371 490H545Q555 490 553 480L470 10Q468 0 459 0H286Q276 0 278 10L284 47H283Q234 -12 151 -12Q0 -12 33 171L87 480Q89 490 98 490ZM193 676H505Q515 676 513 666L495 562Q493 552 484 552H172Q162 552 164 562L182 666Q184 676 193 676Z" horiz-adv-x="546" unicode="ū"/>
			<glyph d="M133 680H315Q326 680 324 670L251 258Q244 215 258 191T306 167Q376 167 392 258L465 670Q467 680 476 680H659Q669 680 667 670L597 275Q570 123 494 55T288 -12Q153 -12 90 61T51 275L122 670Q124 680 133 680ZM274 885H346Q358 885 361 874Q371 836 417 836Q464 836 488 874Q495 885 507 885H578Q591 885 589 873Q579 810 522 767T400 724Q330 724 290 766T259 872Q261 885 274 885Z" horiz-adv-x="625" unicode="Ŭ"/>
			<glyph d="M98 490H272Q282 490 280 480L230 200Q221 146 261 146Q302 146 311 200L360 480Q362 490 371 490H545Q555 490 553 480L470 10Q468 0 459 0H286Q276 0 278 10L284 47H283Q234 -12 151 -12Q0 -12 33 171L87 480Q89 490 98 490ZM199 693H271Q283 693 286 682Q296 644 342 644Q389 644 413 682Q420 693 432 693H503Q516 693 514 681Q504 618 447 574T325 531Q255 531 215 574T184 680Q186 693 199 693Z" horiz-adv-x="546" unicode="ŭ"/>
			<glyph d="M133 680H315Q326 680 324 670L251 258Q244 215 258 191T306 167Q376 167 392 258L465 670Q467 680 476 680H659Q669 680 667 670L597 275Q570 123 494 55T288 -12Q153 -12 90 61T51 275L122 670Q124 680 133 680ZM435 935Q480 935 509 909T538 841Q538 780 498 739T396 699Q351 699 322 725T293 793Q293 854 332 894T435 935ZM423 860Q404 860 390 845T376 807Q376 793 384 783T408 774Q427 774 441 789T455 827Q455 841 446 850T423 860Z" horiz-adv-x="625" unicode="Ů"/>
			<glyph d="M98 490H272Q282 490 280 480L230 200Q221 146 261 146Q302 146 311 200L360 480Q362 490 371 490H545Q555 490 553 480L470 10Q468 0 459 0H286Q276 0 278 10L284 47H283Q234 -12 151 -12Q0 -12 33 171L87 480Q89 490 98 490ZM360 752Q405 752 434 726T463 658Q463 597 423 556T321 516Q276 516 247 542T218 610Q218 671 257 711T360 752ZM348 677Q329 677 315 662T301 624Q301 610 309 600T333 591Q352 591 366 606T380 644Q380 658 371 667T348 677Z" horiz-adv-x="546" unicode="ů"/>
			<glyph d="M133 680H315Q326 680 324 670L251 258Q244 215 258 191T306 167Q376 167 392 258L465 670Q467 680 476 680H659Q669 680 667 670L597 275Q570 123 494 55T288 -12Q153 -12 90 61T51 275L122 670Q124 680 133 680ZM553 884H682Q686 884 688 880T687 874L571 749Q561 739 549 739H440Q436 739 434 742T435 749L535 874Q542 884 553 884ZM360 884H489Q493 884 495 880T494 874L378 749Q368 739 356 739H246Q242 739 240 742T242 749L342 874Q349 884 360 884Z" horiz-adv-x="625" unicode="Ű"/>
			<glyph d="M98 490H272Q282 490 280 480L230 200Q221 146 261 146Q302 146 311 200L360 480Q362 490 371 490H545Q555 490 553 480L470 10Q468 0 459 0H286Q276 0 278 10L284 47H283Q234 -12 151 -12Q0 -12 33 171L87 480Q89 490 98 490ZM473 700H601Q605 700 607 696T606 690L495 547Q488 537 476 537H364Q360 537 358 540T360 547L455 690Q462 700 473 700ZM281 700H409Q413 700 415 696T414 690L303 547Q296 537 284 537H172Q168 537 166 540T168 547L263 690Q270 700 281 700Z" horiz-adv-x="546" unicode="ű"/>
			<glyph d="M133 680H315Q326 680 324 670L251 258Q244 215 258 191T306 167Q376 167 392 258L465 670Q467 680 476 680H659Q669 680 667 670L597 275Q573 141 511 72T339 -9Q289 -40 289 -59Q289 -69 300 -69Q311 -69 324 -60Q328 -58 332 -59T337 -63L367 -143Q370 -152 361 -157Q303 -191 247 -191Q200 -191 173 -168T147 -108Q147 -47 203 -3Q111 18 71 87T51 275L122 670Q124 680 133 680Z" horiz-adv-x="625" unicode="Ų"/>
			<glyph d="M98 490H271Q281 490 279 480L230 200Q221 146 261 146Q302 146 311 200L360 480Q362 490 371 490H545Q555 490 553 480L470 12Q469 3 459 0Q411 -18 386 -32T361 -60Q361 -69 371 -69Q382 -69 395 -60Q399 -58 403 -59T408 -63L439 -143Q442 -152 433 -157Q373 -191 319 -191Q272 -191 245 -168T219 -108Q219 -48 290 0H286Q276 0 278 10L284 47H283Q234 -12 151 -12Q0 -12 33 171L87 480Q89 490 98 490Z" horiz-adv-x="547" unicode="ų"/>
			<glyph d="M86 680H276Q288 680 288 670L298 298H300L456 670Q460 680 470 680H588Q600 680 601 670L631 298H633L772 670Q775 680 785 680H987Q998 680 993 670L686 10Q682 0 672 0H525Q514 0 513 10L479 351H477L325 10Q321 0 311 0H165Q153 0 152 10L79 670Q77 680 86 680ZM524 898H628Q640 898 646 888L730 745Q732 741 730 738T724 735H620Q607 735 599 745L564 791H562L510 745Q499 735 485 735H372Q368 735 367 738T369 745L504 888Q513 898 524 898Z" horiz-adv-x="910" unicode="Ŵ"/>
			<glyph d="M63 490H231Q243 490 243 480L253 251H255L358 480Q362 490 374 490H477Q488 490 489 480L512 251H514L602 480Q606 490 619 490H797Q808 490 803 480L563 10Q559 0 551 0H420Q411 0 410 10L387 233H385L281 10Q277 0 268 0H138Q128 0 127 10L53 480Q53 490 63 490ZM404 702H508Q520 702 526 692L610 549Q612 545 610 542T604 539H500Q487 539 479 549L444 595H442L390 549Q379 539 365 539H252Q248 539 247 542T249 549L384 692Q393 702 404 702Z" horiz-adv-x="762" unicode="ŵ"/>
			<glyph d="M86 680H257Q269 680 272 670L334 449H337L477 670Q483 680 494 680H683Q688 680 690 676T689 669L411 255L368 10Q366 0 357 0H175Q164 0 166 10L209 255L77 669Q76 673 78 676T86 680ZM371 898H475Q487 898 493 888L577 745Q579 741 577 738T571 735H467Q454 735 446 745L411 791H409L357 745Q346 735 332 735H219Q215 735 214 738T216 745L351 888Q360 898 371 898Z" horiz-adv-x="605" unicode="Ŷ"/>
			<glyph d="M60 490H235Q245 490 246 480L280 264H282L384 480Q388 490 399 490H579Q584 490 585 486T585 479L267 -69Q240 -117 200 -148T68 -180H28Q18 -180 20 -170L44 -35Q46 -25 56 -25H83Q105 -25 119 -17T143 9L156 36L52 480Q50 490 60 490ZM301 702H405Q417 702 423 692L507 549Q509 545 507 542T501 539H397Q384 539 376 549L341 595H339L287 549Q276 539 262 539H149Q145 539 144 542T146 549L281 692Q290 702 301 702Z" horiz-adv-x="543" unicode="ŷ"/>
			<glyph d="M86 680H257Q269 680 272 670L334 449H337L477 670Q483 680 494 680H683Q688 680 690 676T689 669L411 255L368 10Q366 0 357 0H175Q164 0 166 10L209 255L77 669Q76 673 78 676T86 680ZM462 882H584Q594 882 592 872L570 752Q568 742 559 742H437Q426 742 428 752L450 872Q452 882 462 882ZM259 882H381Q391 882 389 872L367 752Q365 742 356 742H234Q223 742 225 752L247 872Q249 882 259 882Z" horiz-adv-x="605" unicode="Ÿ"/>
			<glyph d="M140 680H614Q625 680 623 670L595 515L590 505L271 182L270 179H526Q536 179 534 169L506 10Q504 0 495 0H11Q0 0 2 10L30 166L35 176L352 498L353 501H109Q99 501 101 511L130 670Q132 680 140 680ZM440 890H598Q602 890 603 886T602 880L449 749Q438 739 424 739H292Q288 739 286 742T288 749L418 880Q428 890 440 890Z" horiz-adv-x="578" unicode="Ź"/>
			<glyph d="M102 490H495Q504 490 502 480L480 352Q479 345 473 339L247 152V149H434Q444 149 442 139L419 10Q417 0 407 0H3Q-6 0 -4 10L18 138Q19 147 25 151L251 339V342H75Q66 342 68 352L91 480Q93 490 102 490ZM340 704H498Q502 704 503 700T501 694L372 551Q363 541 353 541H218Q214 541 212 544T214 551L321 694Q328 704 340 704Z" horiz-adv-x="484" unicode="ź"/>
			<glyph d="M140 680H614Q625 680 623 670L595 515L590 505L271 182L270 179H526Q536 179 534 169L506 10Q504 0 495 0H11Q0 0 2 10L30 166L35 176L352 498L353 501H109Q99 501 101 511L130 670Q132 680 140 680ZM323 882H480Q490 882 488 872L467 752Q465 742 456 742H298Q288 742 290 752L311 872Q313 882 323 882Z" horiz-adv-x="578" unicode="Ż"/>
			<glyph d="M102 490H495Q504 490 502 480L480 352Q479 345 473 339L247 152V149H434Q444 149 442 139L419 10Q417 0 407 0H3Q-6 0 -4 10L18 138Q19 147 25 151L251 339V342H75Q66 342 68 352L91 480Q93 490 102 490ZM244 680H402Q412 680 410 670L389 550Q387 540 378 540H220Q210 540 212 550L233 670Q235 680 244 680Z" horiz-adv-x="484" unicode="ż"/>
			<glyph d="M140 680H614Q625 680 623 670L595 515L590 505L271 182L270 179H526Q536 179 534 169L506 10Q504 0 495 0H11Q0 0 2 10L30 166L35 176L352 498L353 501H109Q99 501 101 511L130 670Q132 680 140 680ZM228 890H332Q346 890 353 880L388 835H390L442 880Q453 890 467 890H580Q584 890 585 886T583 880L448 737Q439 727 428 727H325Q312 727 306 737L222 880Q220 884 222 887T228 890Z" horiz-adv-x="578" unicode="Ž"/>
			<glyph d="M102 490H495Q504 490 502 480L480 352Q479 345 473 339L247 152V149H434Q444 149 442 139L419 10Q417 0 407 0H3Q-6 0 -4 10L18 138Q19 147 25 151L251 339V342H75Q66 342 68 352L91 480Q93 490 102 490ZM152 698H256Q270 698 277 688L312 643H314L366 688Q377 698 391 698H504Q508 698 509 694T507 688L372 545Q363 535 352 535H248Q236 535 230 545L146 688Q144 692 146 695T152 698Z" horiz-adv-x="484" unicode="ž"/>
			<glyph d="M511 680H550Q560 680 558 670L535 533Q533 523 524 523H501Q484 523 469 515T444 478L429 432H486Q495 432 493 422L472 302Q470 292 461 292H384L292 8Q262 -84 208 -132T43 -180H3Q-7 -180 -5 -170L19 -33Q21 -23 30 -23H52Q94 -23 108 22L196 292H143Q134 292 136 302L157 422Q159 432 168 432H242L262 492Q293 584 346 632T511 680Z" horiz-adv-x="553" unicode="ƒ"/>
			<glyph d="M368 692Q439 692 502 670T607 613Q615 607 606 596L499 475Q491 467 483 473Q424 519 353 519Q323 519 304 506T285 475Q285 446 343 437L377 432Q574 403 574 253Q574 131 487 59T257 -12Q176 -12 99 18T-10 89Q-18 99 -8 107L112 224Q115 227 120 227Q125 227 127 224Q152 198 192 180T275 162Q315 162 339 176T363 213Q363 243 306 252L271 257Q75 285 75 434Q75 549 154 620T368 692ZM192 -41H328Q339 -41 337 -51L320 -149Q318 -165 306 -172L175 -247Q162 -255 157 -255Q146 -255 147 -243L181 -51Q183 -41 192 -41Z" horiz-adv-x="595" unicode="Ș"/>
			<glyph d="M302 502Q350 502 409 487T510 437Q517 431 508 422L427 336Q420 329 412 333Q352 371 284 371Q269 371 253 365T238 346Q238 329 277 325L329 319Q486 302 486 191Q486 100 415 44T224 -12Q82 -12 -7 66Q-10 68 -9 73T-6 81L83 172Q90 179 99 173Q179 123 251 123Q274 123 288 131T303 152Q303 168 257 173L204 179Q136 187 97 219T59 306Q59 396 124 449T302 502ZM159 -41H295Q306 -41 304 -51L287 -149Q285 -165 273 -172L142 -247Q129 -255 124 -255Q113 -255 114 -243L148 -51Q150 -41 159 -41Z" horiz-adv-x="509" unicode="ș"/>
			<glyph d="M101 680H628Q639 680 637 670L608 511Q606 501 597 501H440Q435 501 433 495L347 10Q345 0 336 0H154Q143 0 145 10L231 495Q233 501 227 501H71Q60 501 62 511L90 670Q92 680 101 680ZM173 -41H309Q320 -41 318 -51L301 -149Q299 -165 287 -172L156 -247Q143 -255 138 -255Q127 -255 128 -243L162 -51Q164 -41 173 -41Z" horiz-adv-x="562" unicode="Ț"/>
			<glyph d="M142 630H315Q324 630 322 620L299 496Q298 490 304 490H362Q372 490 370 480L350 365Q348 355 338 355H278Q273 355 271 349L245 209Q240 185 243 169T278 153H298Q309 153 307 143L282 4Q280 -6 270 -6H210Q114 -6 72 36T53 201L82 349Q84 355 77 355H51Q42 355 44 365L64 480Q66 490 75 490H100Q106 490 107 496L130 620Q132 630 142 630ZM83 -41H219Q230 -41 228 -51L211 -149Q209 -165 197 -172L66 -247Q53 -255 48 -255Q37 -255 38 -243L72 -51Q74 -41 83 -41Z" horiz-adv-x="342" unicode="ț"/>
			<glyph d="M101 490H275Q285 490 283 480L204 29Q185 -77 134 -128T-46 -180H-88Q-98 -180 -95 -170L-71 -35Q-69 -25 -60 -25H-51Q-22 -25 -9 -14T10 30L90 480Q92 490 101 490Z" horiz-adv-x="276" unicode="ȷ"/>
			<glyph d="M289 702H393Q405 702 411 692L495 549Q497 545 495 542T489 539H385Q372 539 364 549L329 595H327L275 549Q264 539 250 539H137Q133 539 132 542T134 549L269 692Q278 702 289 702Z" horiz-adv-x="513" unicode="ˆ"/>
			<glyph d="M165 698H269Q283 698 290 688L325 643H327L379 688Q390 698 404 698H517Q521 698 522 694T520 688L385 545Q376 535 365 535H261Q249 535 243 545L159 688Q157 692 159 695T165 698Z" horiz-adv-x="513" unicode="ˇ"/>
			<glyph d="M217 875H529Q539 875 537 865L519 761Q517 751 508 751H196Q186 751 188 761L206 865Q208 875 217 875Z" horiz-adv-x="513" unicode="ˉ"/>
			<glyph d="M189 693H261Q273 693 276 682Q286 644 332 644Q379 644 403 682Q410 693 422 693H493Q506 693 504 681Q494 618 437 574T315 531Q245 531 205 574T174 680Q176 693 189 693Z" horiz-adv-x="513" unicode="˘"/>
			<glyph d="M261 680H419Q429 680 427 670L406 550Q404 540 395 540H237Q227 540 229 550L250 670Q252 680 261 680Z" horiz-adv-x="513" unicode="˙"/>
			<glyph d="M351 752Q396 752 425 726T454 658Q454 597 414 556T312 516Q267 516 238 542T209 610Q209 671 248 711T351 752ZM339 677Q320 677 306 662T292 624Q292 610 300 600T324 591Q343 591 357 606T371 644Q371 658 362 667T339 677Z" horiz-adv-x="513" unicode="˚"/>
			<glyph d="M177 10H319Q324 10 324 5Q324 1 320 0Q315 -2 300 -8T256 -29T227 -60Q227 -69 238 -69Q249 -69 262 -60Q267 -57 270 -58T275 -63L305 -143Q308 -152 299 -157Q241 -191 185 -191Q138 -191 111 -168T85 -108Q85 -49 149 0Q163 10 177 10Z" horiz-adv-x="513" unicode="˛"/>
			<glyph d="M271 704Q317 704 358 678Q385 661 414 661Q452 661 497 694Q501 697 505 695T508 689L492 600Q490 587 478 577Q434 539 389 539Q342 539 302 564Q274 581 246 581Q206 581 163 548Q159 545 155 547T152 553L168 642Q171 656 181 665Q228 704 271 704Z" horiz-adv-x="513" unicode="˜"/>
			<glyph d="M414 700H542Q546 700 548 696T547 690L436 547Q429 537 417 537H305Q301 537 299 540T301 547L396 690Q403 700 414 700ZM222 700H350Q354 700 356 696T355 690L244 547Q237 537 225 537H113Q109 537 107 540T109 547L204 690Q211 700 222 700Z" horiz-adv-x="513" unicode="˝"/>
			<glyph d="M207 710H384Q388 710 389 707T388 700L192 480Q183 470 174 470H47Q36 470 43 480L190 700Q197 710 207 710Z" horiz-adv-x="531" unicode="ʹ"/>
			<glyph d="M257 60H384Q395 60 388 50L241 -170Q234 -180 224 -180H47Q43 -180 41 -177T43 -170L239 50Q248 60 257 60Z" horiz-adv-x="531" unicode="͵"/>
			<glyph d="M95 490H249Q260 490 258 480L232 325Q230 315 221 315H66Q55 315 57 325L84 480Q86 490 95 490ZM44 175H190Q201 175 199 165L175 24Q172 13 161 4L18 -94Q6 -102 -1 -102Q-13 -102 -11 -86L33 165Q35 175 44 175Z" horiz-adv-x="247" unicode=";"/>
			<glyph d="M274 736H447Q449 736 452 734T452 726L326 550Q319 542 311 542H189Q179 542 184 552L258 726Q263 736 274 736Z" horiz-adv-x="481" unicode="΄"/>
			<glyph d="M391 736H551Q555 736 556 732T556 726L458 552Q452 542 442 542H329Q319 542 324 552L374 726Q377 736 391 736ZM576 680H696Q706 680 704 670L682 552Q680 542 671 542H551Q540 542 542 552L564 670Q566 680 576 680ZM177 680H298Q306 680 304 670L284 552Q282 542 273 542H153Q142 542 144 552L165 670Q167 680 177 680Z" horiz-adv-x="706" unicode="΅"/>
			<glyph d="M331 680H528Q539 680 539 670L646 10Q648 0 639 0H449Q439 0 437 10L428 103H234L193 10Q188 0 179 0H-22Q-33 0 -28 10L318 670Q321 680 331 680ZM394 458L309 269H413L396 458ZM63 680H236Q238 680 241 678T241 670L115 494Q108 486 100 486H-22Q-32 486 -27 496L47 670Q52 680 63 680Z" horiz-adv-x="691" unicode="Ά"/>
			<glyph d="M71 352H226Q237 352 235 342L208 188Q206 178 197 178H43Q32 178 34 188L60 342Q62 352 71 352Z" horiz-adv-x="247" unicode="·"/>
			<glyph d="M136 680H578Q588 680 586 670L559 522Q557 512 549 512H303Q297 512 297 506L284 431Q283 425 288 425H484Q494 425 492 415L467 271Q465 261 455 261H259Q255 261 253 255L238 174Q238 168 243 168H487Q497 168 495 158L469 10Q467 0 458 0H17Q7 0 9 10L126 670Q128 680 136 680ZM-107 680H66Q68 680 71 678T71 670L-55 494Q-62 486 -70 486H-192Q-202 486 -197 496L-123 670Q-118 680 -107 680Z" unicode="Έ"/>
			<glyph d="M137 680H319Q330 680 328 670L288 441Q287 435 292 435H430Q436 435 437 441L478 670Q480 680 489 680H671Q682 680 680 670L563 10Q561 0 552 0H370Q359 0 361 10L403 250Q405 256 398 256H260Q256 256 254 250L211 10Q209 0 200 0H18Q7 0 9 10L126 670Q128 680 137 680ZM-107 680H66Q68 680 71 678T71 670L-55 494Q-62 486 -70 486H-192Q-202 486 -197 496L-123 670Q-118 680 -107 680Z" horiz-adv-x="641" unicode="Ή"/>
			<glyph d="M137 680H319Q330 680 328 670L211 10Q209 0 200 0H18Q7 0 9 10L126 670Q128 680 137 680ZM-107 680H66Q68 680 71 678T71 670L-55 494Q-62 486 -70 486H-192Q-202 486 -197 496L-123 670Q-118 680 -107 680Z" horiz-adv-x="289" unicode="Ί"/>
			<glyph d="M378 692Q489 692 552 635T616 472Q616 412 597 307T551 150Q515 78 447 33T276 -12Q165 -12 101 44T38 208Q38 268 57 372T103 530Q139 602 206 647T378 692ZM357 513Q309 513 286 464Q275 442 258 353T241 227Q241 200 255 183T297 167Q345 167 368 216Q379 238 396 327T413 453Q413 480 398 496T357 513ZM-55 680H118Q120 680 123 678T123 670L-3 494Q-10 486 -18 486H-140Q-150 486 -145 496L-71 670Q-66 680 -55 680Z" horiz-adv-x="606" unicode="Ό"/>
			<glyph d="M86 680H257Q269 680 272 670L334 449H337L477 670Q483 680 494 680H683Q688 680 690 676T689 669L411 255L368 10Q366 0 357 0H175Q164 0 166 10L209 255L77 669Q76 673 78 676T86 680ZM-161 680H12Q14 680 17 678T17 670L-109 494Q-116 486 -124 486H-246Q-256 486 -251 496L-177 670Q-172 680 -161 680Z" horiz-adv-x="605" unicode="Ύ"/>
			<glyph d="M387 692Q492 692 553 637T615 477Q615 433 599 340Q591 290 570 237T515 160V159H553Q564 159 562 149L537 10Q535 0 526 0H299Q288 0 290 10L313 141Q314 151 325 157Q347 172 361 196T395 340Q411 431 411 453Q411 511 355 513Q306 513 282 467Q271 443 252 340Q235 251 235 214Q235 177 258 157Q264 151 263 141L240 10Q238 0 230 0H4Q-7 0 -5 10L20 149Q22 159 31 159H69V160Q40 187 40 262Q40 301 47 340Q68 464 101 524Q145 606 218 649T387 692ZM-73 680H100Q102 680 105 678T105 670L-21 494Q-28 486 -36 486H-158Q-168 486 -163 496L-89 670Q-84 680 -73 680Z" horiz-adv-x="615" unicode="Ώ"/>
			<glyph d="M109 490H282Q292 490 290 480L231 203Q227 183 227 176Q227 147 260 147L287 149Q296 151 297 141L310 26Q311 15 302 10Q253 -12 173 -12Q105 -12 65 15T26 113Q26 144 35 186L97 480Q99 490 109 490ZM206 736H366Q370 736 371 732T371 726L273 552Q267 542 257 542H144Q134 542 139 552L189 726Q192 736 206 736ZM391 680H511Q521 680 519 670L497 552Q495 542 486 542H366Q355 542 357 552L379 670Q381 680 391 680ZM-8 680H113Q121 680 119 670L99 552Q97 542 88 542H-32Q-43 542 -41 552L-20 670Q-18 680 -8 680Z" horiz-adv-x="336" unicode="ΐ"/>
			<glyph d="M331 680H528Q539 680 539 670L646 10Q648 0 639 0H449Q439 0 437 10L428 103H234L193 10Q188 0 179 0H-22Q-33 0 -28 10L318 670Q321 680 331 680ZM394 458L309 269H413L396 458Z" horiz-adv-x="691" unicode="Α"/>
			<glyph d="M136 680H418Q515 680 562 643T609 539Q609 478 580 429T498 352L497 350Q529 336 547 304T566 228Q566 125 491 62T299 0H17Q7 0 9 10L126 670Q128 680 136 680ZM309 536Q304 536 302 530L282 417Q281 411 286 411H320Q357 411 380 431T403 490Q403 508 392 522T342 536ZM265 285Q260 285 258 279L236 151Q235 145 240 145H284Q322 145 344 169T367 236Q367 285 309 285Z" horiz-adv-x="590" unicode="Β"/>
			<glyph d="M136 680H568Q578 680 576 670L549 522Q547 512 539 512H303Q299 512 297 506L209 10Q207 0 198 0H17Q7 0 9 10L126 670Q128 680 136 680Z" horiz-adv-x="520" unicode="Γ"/>
			<glyph d="M332 680H528Q537 680 539 670L656 10Q658 0 648 0H-25Q-36 0 -31 10L318 670Q323 680 332 680ZM394 458L268 182Q265 175 271 175H425Q431 175 431 181L396 458Z" horiz-adv-x="691" unicode="Δ"/>
			<glyph d="M136 680H578Q588 680 586 670L559 522Q557 512 549 512H303Q297 512 297 506L284 431Q283 425 288 425H484Q494 425 492 415L467 271Q465 261 455 261H259Q255 261 253 255L238 174Q238 168 243 168H487Q497 168 495 158L469 10Q467 0 458 0H17Q7 0 9 10L126 670Q128 680 136 680Z" unicode="Ε"/>
			<glyph d="M140 680H614Q625 680 623 670L595 515L590 505L271 182L270 179H526Q536 179 534 169L506 10Q504 0 495 0H11Q0 0 2 10L30 166L35 176L352 498L353 501H109Q99 501 101 511L130 670Q132 680 140 680Z" horiz-adv-x="578" unicode="Ζ"/>
			<glyph d="M137 680H319Q330 680 328 670L288 441Q287 435 292 435H430Q436 435 437 441L478 670Q480 680 489 680H671Q682 680 680 670L563 10Q561 0 552 0H370Q359 0 361 10L403 250Q405 256 398 256H260Q256 256 254 250L211 10Q209 0 200 0H18Q7 0 9 10L126 670Q128 680 137 680Z" horiz-adv-x="641" unicode="Η"/>
			<glyph d="M398 692Q519 692 581 630Q638 573 638 465Q638 379 607 255T524 78Q439 -12 289 -12Q157 -12 94 52Q38 110 38 213Q38 286 64 399Q98 551 169 618Q246 692 398 692ZM366 512Q323 512 297 487T255 373Q237 285 237 241Q237 171 311 171Q356 171 381 198T423 316Q440 402 440 442Q440 512 366 512ZM300 401H399Q407 401 406 391L386 289Q384 279 375 279H277Q267 279 268 289L288 391Q290 401 300 401Z" horiz-adv-x="628" unicode="Θ"/>
			<glyph d="M137 680H319Q330 680 328 670L211 10Q209 0 200 0H18Q7 0 9 10L126 670Q128 680 137 680Z" horiz-adv-x="289" unicode="Ι"/>
			<glyph d="M137 680H319Q330 680 328 670L289 450L472 670Q481 680 491 680H705Q711 680 713 675T711 667L466 399L595 11Q596 7 594 3T588 0H396Q383 0 380 10L312 248L237 157L211 10Q209 0 200 0H18Q7 0 9 10L126 670Q128 680 137 680Z" horiz-adv-x="637" unicode="Κ"/>
			<glyph d="M331 680H528Q537 680 539 670L636 10Q638 0 629 0H439Q427 0 427 11L396 458H394L196 10Q191 0 182 0H-19Q-30 0 -25 10L318 670Q323 680 331 680Z" horiz-adv-x="691" unicode="Λ"/>
			<glyph d="M136 680H304Q317 680 319 670L398 344H402L592 670Q597 680 610 680H789Q800 680 798 670L681 10Q679 0 670 0H507Q496 0 498 10L555 333H551L422 106Q415 93 402 93H317Q305 93 300 106L251 333H247L191 10Q189 0 180 0H17Q7 0 9 10L126 670Q128 680 136 680Z" horiz-adv-x="759" unicode="Μ"/>
			<glyph d="M137 680H309Q321 680 324 670L423 323H427L488 670Q490 680 499 680H662Q672 680 670 670L553 10Q551 0 542 0H368Q358 0 355 10L257 357H252L191 10Q189 0 180 0H18Q7 0 9 10L126 670Q128 680 137 680Z" horiz-adv-x="631" unicode="Ν"/>
			<glyph d="M42 174H498Q508 174 506 164L478 10Q476 0 467 0H12Q1 0 3 10L30 164Q32 174 42 174ZM135 425H495Q505 425 503 415L476 265Q474 255 464 255H104Q94 255 96 265L123 415Q125 425 135 425ZM131 680H588Q598 680 596 670L568 516Q566 506 556 506H100Q90 506 92 516L120 670Q122 680 131 680Z" horiz-adv-x="543" unicode="Ξ"/>
			<glyph d="M378 692Q489 692 552 635T616 472Q616 412 597 307T551 150Q515 78 447 33T276 -12Q165 -12 101 44T38 208Q38 268 57 372T103 530Q139 602 206 647T378 692ZM357 513Q309 513 286 464Q275 442 258 353T241 227Q241 200 255 183T297 167Q345 167 368 216Q379 238 396 327T413 453Q413 480 398 496T357 513Z" horiz-adv-x="606" unicode="Ο"/>
			<glyph d="M136 680H662Q673 680 671 670L553 10Q551 0 542 0H360Q349 0 351 10L437 495Q439 501 433 501H301Q295 501 295 495L209 10Q207 0 198 0H17Q7 0 9 10L126 670Q128 680 136 680Z" horiz-adv-x="632" unicode="Π"/>
			<glyph d="M136 680H408Q521 680 576 631T632 496Q632 367 547 290T327 214H252Q247 214 245 208L210 10Q208 0 199 0H17Q7 0 9 10L126 670Q128 680 136 680ZM304 512Q298 512 298 506L277 389Q277 383 281 383H345Q382 383 404 404T426 463Q426 512 368 512Z" horiz-adv-x="599" unicode="Ρ"/>
			<glyph d="M132 680H606Q610 680 612 676T614 670L587 515Q586 503 575 503H321V502L404 355Q408 348 403 343L249 180V179H516Q527 179 525 170L496 9Q494 0 486 0H1Q-10 0 -8 10L19 163L23 173L175 339L95 495Q92 500 93 506L122 670Q124 680 132 680Z" horiz-adv-x="571" unicode="Σ"/>
			<glyph d="M101 680H628Q639 680 637 670L608 511Q606 501 597 501H440Q435 501 433 495L347 10Q345 0 336 0H154Q143 0 145 10L231 495Q233 501 227 501H71Q60 501 62 511L90 670Q92 680 101 680Z" horiz-adv-x="562" unicode="Τ"/>
			<glyph d="M86 680H257Q269 680 272 670L334 449H337L477 670Q483 680 494 680H683Q688 680 690 676T689 669L411 255L368 10Q366 0 357 0H175Q164 0 166 10L209 255L77 669Q76 673 78 676T86 680Z" horiz-adv-x="605" unicode="Υ"/>
			<glyph d="M401 730H558Q567 730 566 720L556 665Q657 658 710 618Q783 563 783 434Q783 322 750 228T669 87Q593 14 440 12L431 -40Q429 -50 421 -50H263Q254 -50 255 -40L264 11Q138 21 85 83Q39 139 39 239Q39 362 78 465T185 615Q252 660 380 664L390 720Q392 730 401 730ZM352 508Q307 508 285 483Q258 453 240 337Q228 260 228 235Q228 208 238 189T292 168ZM528 506L468 167Q499 167 515 175Q535 184 550 212T581 337Q592 406 592 439Q592 466 582 484T528 506Z" horiz-adv-x="774" unicode="Φ"/>
			<glyph d="M117 680H305Q317 680 321 670L375 537H378L474 670Q482 680 492 680H688Q692 680 693 677T692 670L454 353L596 10Q600 0 589 0H404Q391 0 387 10L321 172H319L201 10Q194 0 182 0H-26Q-30 0 -31 3T-30 10L243 360L110 670Q106 680 117 680Z" horiz-adv-x="628" unicode="Χ"/>
			<glyph d="M135 680H289Q301 680 299 671L242 347Q234 302 242 274T296 243L372 670Q374 680 382 680H539Q549 680 547 670L471 242Q504 245 528 263T566 360L621 671Q623 680 633 680H788Q800 680 798 671L747 383Q718 223 645 155T443 80L431 10Q429 0 421 0H264Q254 0 256 10L268 83Q23 112 69 372L122 671Q124 680 135 680Z" horiz-adv-x="755" unicode="Ψ"/>
			<glyph d="M387 692Q492 692 553 637T615 477Q615 433 599 340Q591 290 570 237T515 160V159H553Q564 159 562 149L537 10Q535 0 526 0H299Q288 0 290 10L313 141Q314 151 325 157Q347 172 361 196T395 340Q411 431 411 453Q411 511 355 513Q306 513 282 467Q271 443 252 340Q235 251 235 214Q235 177 258 157Q264 151 263 141L240 10Q238 0 230 0H4Q-7 0 -5 10L20 149Q22 159 31 159H69V160Q40 187 40 262Q40 301 47 340Q68 464 101 524Q145 606 218 649T387 692Z" horiz-adv-x="615" unicode="Ω"/>
			<glyph d="M137 680H319Q330 680 328 670L211 10Q209 0 200 0H18Q7 0 9 10L126 670Q128 680 137 680ZM303 882H425Q435 882 433 872L411 752Q409 742 400 742H278Q267 742 269 752L291 872Q293 882 303 882ZM100 882H222Q232 882 230 872L208 752Q206 742 197 742H75Q64 742 66 752L88 872Q90 882 100 882Z" horiz-adv-x="289" unicode="Ϊ"/>
			<glyph d="M86 680H257Q269 680 272 670L334 449H337L477 670Q483 680 494 680H683Q688 680 690 676T689 669L411 255L368 10Q366 0 357 0H175Q164 0 166 10L209 255L77 669Q76 673 78 676T86 680ZM462 882H584Q594 882 592 872L570 752Q568 742 559 742H437Q426 742 428 752L450 872Q452 882 462 882ZM259 882H381Q391 882 389 872L367 752Q365 742 356 742H234Q223 742 225 752L247 872Q249 882 259 882Z" horiz-adv-x="605" unicode="Ϋ"/>
			<glyph d="M243 502Q338 502 381 434H382L409 489Q416 506 433 500L564 456Q581 450 573 433L475 227L474 212Q474 189 489 171T523 153H526Q536 153 535 142L510 3Q508 -6 499 -6H490Q437 -6 398 0T340 36L332 50H331Q275 -12 173 -12Q99 -12 59 28T19 147Q19 286 70 388Q96 441 140 471T243 502ZM290 347Q257 347 242 315Q233 296 224 251T216 180Q216 142 252 142Q284 142 300 173Q308 189 317 237T327 305Q327 347 290 347ZM340 736H513Q515 736 518 734T518 726L392 550Q385 542 377 542H255Q245 542 250 552L324 726Q329 736 340 736Z" horiz-adv-x="565" unicode="ά"/>
			<glyph d="M300 502Q386 502 447 484Q454 482 459 479T461 462L442 364Q441 361 439 357T425 355Q369 365 306 365Q256 365 256 335Q256 310 298 310H351Q366 310 364 295L349 203Q347 190 333 190H264Q225 190 225 160Q225 131 275 131Q335 131 399 140Q414 143 416 128L429 23Q429 20 428 15T416 6Q360 -12 214 -12Q114 -12 62 19T10 120Q10 173 37 208T106 260V261Q67 293 67 346Q67 417 127 459T300 502ZM328 736H501Q503 736 506 734T506 726L380 550Q373 542 365 542H243Q233 542 238 552L312 726Q317 736 328 736Z" horiz-adv-x="463" unicode="έ"/>
			<glyph d="M428 502Q556 502 556 379Q556 352 550 320L463 -170Q461 -180 452 -180H279Q268 -180 270 -170L350 289L352 309Q352 344 318 344Q277 344 268 290L219 10Q217 0 208 0H34Q24 0 26 10L81 316L84 340Q84 357 70 357Q65 357 58 357T54 369L75 485Q77 495 86 495H99Q166 495 200 485T250 442Q258 421 262 404H264Q328 502 428 502ZM339 736H512Q514 736 517 734T517 726L391 550Q384 542 376 542H254Q244 542 249 552L323 726Q328 736 339 736Z" horiz-adv-x="570" unicode="ή"/>
			<glyph d="M109 490H282Q292 490 290 480L231 203Q227 183 227 176Q227 147 260 147L287 149Q296 151 297 141L310 26Q311 15 302 10Q253 -12 173 -12Q105 -12 65 15T26 113Q26 144 35 186L97 480Q99 490 109 490ZM233 736H406Q408 736 411 734T411 726L285 550Q278 542 270 542H148Q138 542 143 552L217 726Q222 736 233 736Z" horiz-adv-x="336" unicode="ί"/>
			<glyph d="M87 495Q194 495 237 474T281 386Q281 364 274 322L252 196Q241 146 279 146Q316 146 326 196L374 480Q376 490 384 490H558Q569 490 567 480L529 231Q510 107 440 47T250 -12Q60 -12 60 162Q60 189 67 234L82 319L86 344Q86 357 66 357Q52 357 54 369L75 485Q77 495 87 495ZM314 736H474Q478 736 479 732T479 726L381 552Q375 542 365 542H252Q242 542 247 552L297 726Q300 736 314 736ZM499 680H619Q629 680 627 670L605 552Q603 542 594 542H474Q463 542 465 552L487 670Q489 680 499 680ZM100 680H221Q229 680 227 670L207 552Q205 542 196 542H76Q65 542 67 552L88 670Q90 680 100 680Z" horiz-adv-x="558" unicode="ΰ"/>
			<glyph d="M243 502Q338 502 381 434H382L409 489Q416 506 433 500L564 456Q581 450 573 433L475 227L474 212Q474 189 489 171T523 153H526Q536 153 535 142L510 3Q508 -6 499 -6H490Q437 -6 398 0T340 36L332 50H331Q275 -12 173 -12Q99 -12 59 28T19 147Q19 286 70 388Q96 441 140 471T243 502ZM290 347Q257 347 242 315Q233 296 224 251T216 180Q216 142 252 142Q284 142 300 173Q308 189 317 237T327 305Q327 347 290 347Z" horiz-adv-x="565" unicode="α"/>
			<glyph d="M365 692Q462 692 511 652T560 542Q560 441 480 381V380Q521 363 540 326T559 245Q559 113 484 43Q464 24 425 6T335 -12Q242 -12 203 45H202L165 -166Q162 -180 152 -180H-18Q-28 -180 -26 -169L79 431Q101 554 164 623T365 692ZM341 540Q283 540 270 465L226 209L224 187Q224 137 285 137Q321 137 340 165Q348 178 353 200T359 236Q359 279 307 279H293Q285 279 286 288L306 407Q308 417 318 417H332Q358 417 370 428Q380 437 386 457T393 496Q393 540 341 540Z" horiz-adv-x="571" unicode="β"/>
			<glyph d="M81 495Q200 495 234 460T279 339L291 248H292L336 342Q376 427 388 478Q392 490 405 490H561Q572 490 568 475Q548 393 453 215L331 -13L295 -170Q294 -181 282 -181H126Q116 -181 119 -169L158 -2L112 232Q97 310 86 333T55 357Q43 357 44 367L64 481Q66 495 81 495Z" horiz-adv-x="535" unicode="γ"/>
			<glyph d="M343 692Q448 692 519 669Q527 667 533 663T537 652L508 534Q505 523 493 527Q418 546 399 548T369 551Q335 551 335 523Q335 518 338 509T371 481Q499 393 499 276Q499 205 473 139T388 31T231 -12Q142 -12 83 40T25 184Q25 367 178 438V439L173 444Q132 485 132 536Q132 608 188 650T343 692ZM278 345Q244 338 225 286T207 193Q207 141 244 141Q263 141 280 156T308 231L313 275Q313 331 278 345Z" horiz-adv-x="523" unicode="δ"/>
			<glyph d="M300 502Q386 502 447 484Q454 482 459 479T461 462L442 364Q441 361 439 357T425 355Q369 365 306 365Q256 365 256 335Q256 310 298 310H351Q366 310 364 295L349 203Q347 190 333 190H264Q225 190 225 160Q225 131 275 131Q335 131 399 140Q414 143 416 128L429 23Q429 20 428 15T416 6Q360 -12 214 -12Q114 -12 62 19T10 120Q10 173 37 208T106 260V261Q67 293 67 346Q67 417 127 459T300 502Z" horiz-adv-x="463" unicode="ε"/>
			<glyph d="M139 680H492Q504 680 501 668L481 549Q362 469 299 400T236 250Q236 181 332 132Q412 91 412 20Q412 -22 387 -69T265 -179Q251 -189 241 -176L190 -114Q181 -104 192 -94Q228 -64 228 -43Q228 -31 222 -21T190 1Q117 39 74 86T31 204Q31 389 237 540V541H114Q105 541 107 551L128 670Q130 680 139 680Z" horiz-adv-x="437" unicode="ζ"/>
			<glyph d="M428 502Q556 502 556 379Q556 352 550 320L463 -170Q461 -180 452 -180H279Q268 -180 270 -170L350 289L352 309Q352 344 318 344Q277 344 268 290L219 10Q217 0 208 0H34Q24 0 26 10L81 316L84 340Q84 357 70 357Q65 357 58 357T54 369L75 485Q77 495 86 495H99Q166 495 200 485T250 442Q258 421 262 404H264Q328 502 428 502Z" horiz-adv-x="570" unicode="η"/>
			<glyph d="M321 692Q407 692 453 640T500 494Q500 427 481 327Q442 123 375 55T211 -12Q29 -12 29 179Q29 246 45 336Q64 447 97 530T187 652T321 692ZM202 284Q189 212 189 184Q189 143 227 143Q250 143 266 159Q281 174 304 284ZM302 539Q281 539 266 524T236 449L224 398H326Q340 477 340 498Q340 539 302 539Z" horiz-adv-x="485" unicode="θ"/>
			<glyph d="M109 490H282Q292 490 290 480L231 203Q227 183 227 176Q227 147 260 147L287 149Q296 151 297 141L310 26Q311 15 302 10Q253 -12 173 -12Q105 -12 65 15T26 113Q26 144 35 186L97 480Q99 490 109 490Z" horiz-adv-x="336" unicode="ι"/>
			<glyph d="M501 495H565Q575 495 573 485L552 366Q550 356 540 356H531Q519 356 505 349T459 311L405 259L528 10Q529 7 527 3T521 0H341Q333 0 329 10L275 141L212 81L200 10Q198 0 188 0H14Q5 0 7 10L90 480Q92 490 101 490H275Q285 490 283 480L255 321L364 429Q400 465 428 480T501 495Z" horiz-adv-x="564" unicode="κ"/>
			<glyph d="M206 680H257Q335 680 365 649T410 543L479 199Q483 176 490 164T528 153H534Q547 153 544 138L520 4Q518 -6 506 -6H477Q389 -6 352 15T306 105L291 208H287L183 9Q179 0 171 0H-5Q-14 0 -9 9L253 446L241 498Q236 519 227 530T188 541H180Q170 541 171 551L191 666Q194 680 206 680Z" horiz-adv-x="564" unicode="λ"/>
			<glyph d="M100 490H274Q283 490 281 481L231 200L229 184Q229 167 238 156T263 145Q305 145 314 200L363 481Q365 490 375 490H548Q558 490 555 481L506 207L501 172Q501 152 526 152Q535 152 533 143L508 7Q506 -6 496 -6H479Q411 -6 377 2T329 38L322 52H320Q284 -4 204 -11L194 -12L193 -16L166 -171Q165 -180 156 -180H-20Q-27 -180 -26 -171L89 481Q91 490 100 490Z" horiz-adv-x="576" unicode="μ"/>
			<glyph d="M64 490H240Q251 490 252 478L273 240H275L308 307Q367 427 378 476Q382 490 394 490H554Q559 490 559 481Q542 396 447 223L328 9Q323 0 316 0H152Q145 0 143 9L55 479Q53 490 64 490Z" horiz-adv-x="534" unicode="ν"/>
			<glyph d="M120 680H484Q493 680 493 671V667L471 546Q376 546 333 532T291 482Q291 462 305 450T397 438H411Q419 438 419 430V427L397 301Q395 290 383 290H354Q226 290 226 214Q226 205 230 196T245 178T288 152T326 131Q404 88 404 19Q404 -31 375 -75T265 -174Q251 -184 245 -184Q239 -184 234 -177L182 -114L177 -104L183 -95Q201 -80 210 -68T220 -40Q220 -27 210 -17T172 6Q99 42 62 78T26 182Q26 230 58 277T150 346V348Q124 359 107 382T90 436Q90 473 115 502T172 541V542H96Q88 542 88 548V551L109 670Q111 680 120 680Z" horiz-adv-x="449" unicode="ξ"/>
			<glyph d="M307 502Q400 502 456 453T512 313Q512 270 502 218T473 128Q404 -12 226 -12Q133 -12 77 36T21 177Q21 220 31 271T60 362Q129 502 307 502ZM285 347Q253 347 238 316Q230 298 220 251T211 184Q211 143 248 143Q280 143 295 174Q303 192 312 239T322 306Q322 347 285 347Z" horiz-adv-x="522" unicode="ο"/>
			<glyph d="M91 490H632Q642 490 640 480L616 335Q615 325 603 325H564Q558 325 556 319L534 193L532 175Q532 153 557 153H567Q578 153 576 143L551 4Q549 -6 539 -6H490Q411 -6 374 21T338 116Q338 144 344 180L368 319Q370 325 364 325H305Q299 325 297 319L242 10Q240 0 232 0H60Q49 0 51 10L105 319Q107 325 101 325H62Q52 325 54 335L79 480Q81 490 91 490Z" horiz-adv-x="631" unicode="π"/>
			<glyph d="M316 502Q414 502 471 451T528 302Q528 233 504 164T435 48Q375 -12 290 -12Q217 -12 192 26H191L156 -170Q154 -180 145 -180H-26Q-36 -180 -34 -170L39 239Q66 390 131 446Q195 502 316 502ZM294 347Q262 347 247 316Q239 299 230 252T222 184Q222 143 259 143Q291 143 306 174Q314 191 322 237T331 305Q331 347 294 347Z" horiz-adv-x="539" unicode="ρ"/>
			<glyph d="M299 502Q408 502 466 472Q476 467 472 456L430 336Q424 320 408 326Q354 344 320 344Q281 344 256 318T231 250Q231 229 241 203T329 132Q373 105 390 80T408 16Q408 -35 375 -81T261 -179Q248 -189 238 -177L185 -113Q177 -102 188 -94Q224 -65 224 -41Q224 -15 185 11Q118 56 91 86T49 154T35 240Q35 311 66 371T155 466T299 502Z" horiz-adv-x="432" unicode="ς"/>
			<glyph d="M292 490H579Q589 490 587 481L565 355Q563 346 553 346L482 347V346Q499 328 499 270Q499 227 480 169T421 67Q347 -12 221 -12Q118 -12 66 43T15 181Q15 343 102 424Q172 490 292 490ZM288 349Q261 349 245 336T214 253Q205 208 205 187Q205 143 241 143Q276 143 290 175Q295 187 304 232T314 298Q314 341 295 349Z" horiz-adv-x="563" unicode="σ"/>
			<glyph d="M77 490H478Q487 490 485 480L460 335Q458 325 448 325H347Q342 325 340 319L318 212Q314 195 312 177Q312 147 343 147L371 149Q377 150 379 149T382 143L395 27Q396 15 387 10Q342 -12 264 -12Q183 -12 147 18T111 112Q111 137 119 179L147 319Q149 325 143 325H48Q40 325 41 335L66 480Q68 490 77 490Z" horiz-adv-x="465" unicode="τ"/>
			<glyph d="M87 495Q194 495 237 474T281 386Q281 364 274 322L252 196Q241 146 279 146Q316 146 326 196L374 480Q376 490 384 490H558Q569 490 567 480L529 231Q510 107 440 47T250 -12Q60 -12 60 162Q60 189 67 234L82 319L86 344Q86 357 66 357Q52 357 54 369L75 485Q77 495 87 495Z" horiz-adv-x="558" unicode="υ"/>
			<glyph d="M343 610H493Q502 610 500 600L484 511Q580 507 634 455T689 309Q689 207 650 133T546 20T392 -19L365 -170Q363 -180 354 -180H204Q195 -180 197 -170L223 -19Q131 -15 76 37T21 188Q21 290 59 362T161 472T316 511L332 600Q334 610 343 610ZM291 366Q262 364 241 347T205 262Q194 209 194 187Q194 133 250 133ZM459 366L418 133Q447 135 468 151T504 237Q515 290 515 312Q515 366 459 366Z" horiz-adv-x="700" unicode="φ"/>
			<glyph d="M91 495H164Q222 495 256 462T314 363L324 335H325L420 479Q428 490 437 490H623Q626 490 627 486T625 477L396 170L457 20Q463 4 474 -11T518 -27H534Q545 -27 543 -41L519 -174Q517 -186 504 -186H477Q417 -186 380 -171T322 -113L271 -6H270L148 -169Q141 -180 119 -180H-51Q-59 -180 -53 -172L196 166L145 288Q131 322 118 339T69 356Q56 356 59 370L79 485Q81 495 91 495Z" horiz-adv-x="596" unicode="χ"/>
			<glyph d="M380 609H533Q543 609 541 599L461 145Q490 146 511 158T541 224L584 480Q586 490 595 490H749Q759 490 757 480L718 229Q699 105 630 46T434 -12L406 -170Q404 -180 394 -180H241Q231 -180 233 -170L260 -12Q158 -10 111 32T65 165Q65 198 73 241L86 313L91 345Q91 357 72 357Q56 357 59 370L80 485Q82 495 90 495H124Q196 495 230 469T265 386Q263 354 259 326L240 226L236 194Q236 148 288 145L368 599Q370 609 380 609Z" horiz-adv-x="753" unicode="ψ"/>
			<glyph d="M635 496Q645 500 650 493Q701 416 701 278Q701 225 681 157T614 38T490 -12Q365 -12 345 80H341Q297 -12 174 -12Q106 -12 63 36T21 178Q21 268 55 354T143 488Q157 499 168 495L299 449Q304 447 305 441T301 428Q260 373 234 307T209 189Q209 145 239 145Q253 145 263 155T283 218L300 320Q303 336 315 336H440Q443 336 447 334T449 320L432 220L427 174Q427 145 452 145Q473 145 490 173T508 276Q508 330 485 420Q482 432 491 435Z" horiz-adv-x="712" unicode="ω"/>
			<glyph d="M109 490H282Q292 490 290 480L231 203Q227 183 227 176Q227 147 260 147L287 149Q296 151 297 141L310 26Q311 15 302 10Q253 -12 173 -12Q105 -12 65 15T26 113Q26 144 35 186L97 480Q99 490 109 490ZM267 684H389Q399 684 397 674L375 554Q373 544 364 544H242Q231 544 233 554L255 674Q257 684 267 684ZM64 684H186Q196 684 194 674L172 554Q170 544 161 544H39Q28 544 30 554L52 674Q54 684 64 684Z" horiz-adv-x="336" unicode="ϊ"/>
			<glyph d="M87 495Q194 495 237 474T281 386Q281 364 274 322L252 196Q241 146 279 146Q316 146 326 196L374 480Q376 490 384 490H558Q569 490 567 480L529 231Q510 107 440 47T250 -12Q60 -12 60 162Q60 189 67 234L82 319L86 344Q86 357 66 357Q52 357 54 369L75 485Q77 495 87 495ZM403 684H525Q535 684 533 674L511 554Q509 544 500 544H378Q367 544 369 554L391 674Q393 684 403 684ZM200 684H322Q332 684 330 674L308 554Q306 544 297 544H175Q164 544 166 554L188 674Q190 684 200 684Z" horiz-adv-x="558" unicode="ϋ"/>
			<glyph d="M307 502Q400 502 456 453T512 313Q512 270 502 218T473 128Q404 -12 226 -12Q133 -12 77 36T21 177Q21 220 31 271T60 362Q129 502 307 502ZM285 347Q253 347 238 316Q230 298 220 251T211 184Q211 143 248 143Q280 143 295 174Q303 192 312 239T322 306Q322 347 285 347ZM336 736H509Q511 736 514 734T514 726L388 550Q381 542 373 542H251Q241 542 246 552L320 726Q325 736 336 736Z" horiz-adv-x="522" unicode="ό"/>
			<glyph d="M87 495Q194 495 237 474T281 386Q281 364 274 322L252 196Q241 146 279 146Q316 146 326 196L374 480Q376 490 384 490H558Q569 490 567 480L529 231Q510 107 440 47T250 -12Q60 -12 60 162Q60 189 67 234L82 319L86 344Q86 357 66 357Q52 357 54 369L75 485Q77 495 87 495ZM349 736H522Q524 736 527 734T527 726L401 550Q394 542 386 542H264Q254 542 259 552L333 726Q338 736 349 736Z" horiz-adv-x="558" unicode="ύ"/>
			<glyph d="M635 496Q645 500 650 493Q701 416 701 278Q701 225 681 157T614 38T490 -12Q365 -12 345 80H341Q297 -12 174 -12Q106 -12 63 36T21 178Q21 268 55 354T143 488Q157 499 168 495L299 449Q304 447 305 441T301 428Q260 373 234 307T209 189Q209 145 239 145Q253 145 263 155T283 218L300 320Q303 336 315 336H440Q443 336 447 334T449 320L432 220L427 174Q427 145 452 145Q473 145 490 173T508 276Q508 330 485 420Q482 432 491 435ZM419 736H592Q594 736 597 734T597 726L471 550Q464 542 456 542H334Q324 542 329 552L403 726Q408 736 419 736Z" horiz-adv-x="712" unicode="ώ"/>
			<glyph d="M136 680H578Q588 680 586 670L559 522Q557 512 549 512H303Q297 512 297 506L284 431Q283 425 288 425H484Q494 425 492 415L467 271Q465 261 455 261H259Q255 261 253 255L238 174Q238 168 243 168H487Q497 168 495 158L469 10Q467 0 458 0H17Q7 0 9 10L126 670Q128 680 136 680ZM187 890H338Q350 890 357 880L440 749Q442 745 440 742T435 739H307Q297 739 288 749L181 880Q179 884 181 887T187 890Z" unicode="Ѐ"/>
			<glyph d="M136 680H578Q588 680 586 670L559 522Q557 512 549 512H303Q297 512 297 506L284 431Q283 425 288 425H484Q494 425 492 415L467 271Q465 261 455 261H259Q255 261 253 255L238 174Q238 168 243 168H487Q497 168 495 158L469 10Q467 0 458 0H17Q7 0 9 10L126 670Q128 680 136 680ZM434 882H556Q566 882 564 872L542 752Q540 742 531 742H409Q398 742 400 752L422 872Q424 882 434 882ZM231 882H353Q363 882 361 872L339 752Q337 742 328 742H206Q195 742 197 752L219 872Q221 882 231 882Z" unicode="Ё"/>
			<glyph d="M101 680H628Q639 680 637 670L610 522Q608 512 599 512H442Q437 512 435 506L419 416Q418 412 422 409T429 408Q433 409 450 413T488 419T548 421Q631 421 683 376T736 243Q736 129 666 64T475 0H407Q395 0 397 10L421 149Q423 158 433 158H454Q486 158 509 171T532 217Q532 235 519 248T477 261Q445 261 397 249Q389 246 387 236L348 10Q346 0 336 0H155Q144 0 146 10L233 506Q235 512 229 512H73Q62 512 64 522L90 670Q92 680 101 680Z" horiz-adv-x="762" unicode="Ђ"/>
			<glyph d="M137 680H556Q567 680 565 670L537 511Q535 501 525 501H304Q299 501 297 495L211 10Q209 0 199 0H18Q7 0 9 10L126 670Q128 680 137 680ZM392 890H550Q554 890 555 886T554 880L401 749Q390 739 376 739H244Q240 739 238 742T240 749L370 880Q380 890 392 890Z" horiz-adv-x="490" unicode="Ѓ"/>
			<glyph d="M375 692Q469 692 530 650T608 533Q611 522 601 518L455 460Q443 455 440 466Q425 523 366 523Q324 523 299 490Q285 471 274 433Q272 425 280 425H415Q425 425 424 415L398 272Q397 263 387 263H256Q243 263 242 255L239 227Q239 195 257 176T309 157Q360 157 397 215Q404 226 413 222L548 157Q558 153 551 142Q457 -12 284 -12Q166 -12 101 44T37 207Q37 268 56 370T102 530Q182 692 375 692Z" horiz-adv-x="583" unicode="Є"/>
			<glyph d="M368 692Q439 692 502 670T607 613Q615 607 606 596L499 475Q491 467 483 473Q424 519 353 519Q323 519 304 506T285 475Q285 446 343 437L377 432Q574 403 574 253Q574 131 487 59T257 -12Q176 -12 99 18T-10 89Q-18 99 -8 107L112 224Q115 227 120 227Q125 227 127 224Q152 198 192 180T275 162Q315 162 339 176T363 213Q363 243 306 252L271 257Q75 285 75 434Q75 549 154 620T368 692Z" horiz-adv-x="595" unicode="Ѕ"/>
			<glyph d="M137 680H319Q330 680 328 670L211 10Q209 0 200 0H18Q7 0 9 10L126 670Q128 680 137 680Z" horiz-adv-x="289" unicode="І"/>
			<glyph d="M137 680H319Q330 680 328 670L211 10Q209 0 200 0H18Q7 0 9 10L126 670Q128 680 137 680ZM303 882H425Q435 882 433 872L411 752Q409 742 400 742H278Q267 742 269 752L291 872Q293 882 303 882ZM100 882H222Q232 882 230 872L208 752Q206 742 197 742H75Q64 742 66 752L88 872Q90 882 100 882Z" horiz-adv-x="289" unicode="Ї"/>
			<glyph d="M368 680H551Q562 680 560 670L489 273Q437 -12 174 -12Q107 -12 54 17T-19 90Q-21 99 -15 104L128 202Q137 207 140 201Q164 167 200 167Q266 167 283 252L358 670Q360 680 368 680Z" horiz-adv-x="519" unicode="Ј"/>
			<glyph d="M204 680H703Q712 680 710 671L674 468Q673 462 679 462H764Q873 462 926 410T979 267Q979 138 901 69T691 0H399Q395 0 392 3T391 10L477 495Q479 501 472 501H367Q362 501 360 495L330 327Q302 165 244 79T66 -6H-28Q-38 -6 -37 4L-9 157Q-7 166 3 166H19Q105 166 133 327L194 671Q196 680 204 680ZM649 299Q645 299 643 293L622 176Q621 170 626 170H692Q729 170 751 191T773 250Q773 299 715 299Z" horiz-adv-x="1005" unicode="Љ"/>
			<glyph d="M137 680H319Q330 680 328 670L289 446Q288 440 293 440H431Q437 440 438 446L478 670Q480 680 489 680H671Q682 680 680 670L641 446Q640 440 646 440H738Q832 440 884 389T936 254Q936 134 859 67T656 0H370Q359 0 361 10L404 255Q406 261 399 261H261Q257 261 255 255L211 10Q209 0 200 0H18Q7 0 9 10L126 670Q128 680 137 680ZM618 290Q614 290 612 284L591 167Q590 161 595 161H659Q696 161 718 182T740 241Q740 290 682 290Z" horiz-adv-x="962" unicode="Њ"/>
			<glyph d="M101 680H628Q639 680 637 670L610 522Q608 512 599 512H442Q437 512 435 506L419 414Q418 411 421 409T427 408Q511 422 577 422Q660 422 697 370T718 223L680 9Q678 0 670 0H487Q476 0 478 9L512 202Q520 248 463 248Q445 248 397 236Q387 233 386 223L348 10Q346 0 336 0H155Q144 0 146 10L233 506Q235 512 229 512H73Q62 512 64 522L90 670Q92 680 101 680Z" horiz-adv-x="745" unicode="Ћ"/>
			<glyph d="M614 686H680Q690 686 689 676L663 529Q662 520 651 520H635Q605 520 583 479L545 410Q519 364 492 358V354Q521 343 532 286L546 213Q555 166 596 166H603Q613 166 611 157L584 4Q583 -6 573 -6H497Q443 -6 407 24T362 116L349 197Q344 226 328 241T277 257H260Q256 257 254 251L211 10Q209 0 200 0H18Q7 0 9 10L126 670Q128 680 137 680H319Q330 680 328 670L287 439Q286 433 291 433H305Q355 433 378 476L434 581Q460 630 500 658T614 686ZM472 890H630Q634 890 635 886T634 880L481 749Q470 739 456 739H324Q320 739 318 742T320 749L450 880Q460 890 472 890Z" horiz-adv-x="637" unicode="Ќ"/>
			<glyph d="M136 680H320Q330 680 328 671L275 372H278L499 669Q507 679 518 680H681Q691 680 689 671L572 10Q570 0 562 0H378Q374 0 371 3T370 10L423 311H420L200 12Q191 0 179 0H17Q7 0 9 10L126 671Q128 680 136 680ZM237 890H388Q400 890 407 880L490 749Q492 745 490 742T485 739H357Q347 739 338 749L231 880Q229 884 231 887T237 890Z" horiz-adv-x="650" unicode="Ѝ"/>
			<glyph d="M103 680H287Q301 680 303 671L365 439H368L492 671Q497 680 507 680H708Q712 680 714 676T713 668L371 103Q305 -6 190 -6H87Q76 -6 77 4L104 157Q106 166 117 166H160Q183 166 200 172T229 198L236 208L95 667Q94 669 95 674T103 680ZM350 878Q359 879 360 871Q363 856 377 846T414 837Q436 837 451 846T474 871Q478 879 487 878L581 867Q589 865 583 853Q559 784 516 754T400 724Q264 724 252 853Q250 865 260 867Z" horiz-adv-x="629" unicode="Ў"/>
			<glyph d="M136 680H320Q324 680 326 677T328 670L242 185Q241 179 251 179H377Q383 179 384 185L470 670Q472 680 480 680H663Q667 680 670 676T672 670L555 9Q553 0 543 0H383Q377 0 375 -6L360 -99Q358 -110 347 -110H183Q180 -110 178 -106T177 -99L192 -6Q194 0 188 0H17Q7 0 9 9L126 670Q128 680 136 680Z" horiz-adv-x="653" unicode="Џ"/>
			<glyph d="M331 680H528Q539 680 539 670L646 10Q648 0 639 0H449Q439 0 437 10L428 103H234L193 10Q188 0 179 0H-22Q-33 0 -28 10L318 670Q321 680 331 680ZM394 458L309 269H413L396 458Z" horiz-adv-x="691" unicode="А"/>
			<glyph d="M136 680H595Q603 680 603 671L576 520Q575 510 565 510H305Q300 510 298 504L288 446Q287 440 293 440H385Q479 440 531 389T583 254Q583 134 506 67T303 0H17Q13 0 10 3T9 10L126 671Q128 680 136 680ZM265 290Q261 290 259 284L238 167Q237 161 242 161H306Q343 161 365 182T387 241Q387 290 329 290Z" horiz-adv-x="590" unicode="Б"/>
			<glyph d="M136 680H418Q515 680 562 643T609 539Q609 478 580 429T498 352L497 350Q529 336 547 304T566 228Q566 125 491 62T299 0H17Q7 0 9 10L126 670Q128 680 136 680ZM309 536Q304 536 302 530L282 417Q281 411 286 411H320Q357 411 380 431T403 490Q403 508 392 522T342 536ZM265 285Q260 285 258 279L236 151Q235 145 240 145H284Q322 145 344 169T367 236Q367 285 309 285Z" horiz-adv-x="590" unicode="В"/>
			<glyph d="M137 680H556Q567 680 565 670L537 511Q535 501 525 501H304Q299 501 297 495L211 10Q209 0 199 0H18Q7 0 9 10L126 670Q128 680 137 680Z" horiz-adv-x="490" unicode="Г"/>
			<glyph d="M226 680H718Q721 680 724 676T726 670L640 184Q639 178 645 178H696Q706 178 704 169L658 -99Q656 -110 647 -110H480Q477 -110 475 -106T474 -99L489 -6Q491 0 485 0H158Q152 0 150 -6L135 -99Q133 -110 124 -110H-42Q-50 -110 -48 -99L-3 169Q-1 178 8 178H40Q55 178 61 188Q108 260 139 339T190 533L215 671Q217 680 226 680ZM388 506Q383 506 381 500L378 484Q363 402 332 317T270 187Q268 184 269 181T275 178H432Q438 178 439 184L495 500Q497 506 490 506Z" horiz-adv-x="712" unicode="Д"/>
			<glyph d="M136 680H578Q588 680 586 670L559 522Q557 512 549 512H303Q297 512 297 506L284 431Q283 425 288 425H484Q494 425 492 415L467 271Q465 261 455 261H259Q255 261 253 255L238 174Q238 168 243 168H487Q497 168 495 158L469 10Q467 0 458 0H17Q7 0 9 10L126 670Q128 680 136 680Z" unicode="Е"/>
			<glyph d="M121 686H176Q305 686 325 593L337 538Q360 432 411 432H415Q421 432 422 438L463 670Q464 680 477 680H655Q666 680 664 670L623 438Q622 432 627 432H631Q680 432 703 476L759 581Q785 630 825 658T939 686H1005Q1015 686 1014 676L988 529Q987 520 976 520H964Q933 520 911 479L870 405Q846 364 817 357V353Q843 344 856 279L868 213Q877 166 924 166H928Q938 166 936 157L909 4Q908 -6 898 -6H836Q708 -6 688 116L675 197Q671 223 653 240T607 258H597Q592 258 590 252L547 10Q546 0 535 0H355Q344 0 346 10L389 252Q391 258 385 258H380Q323 258 292 195L258 127Q235 81 210 51T152 7T45 -6H-7Q-17 -6 -16 4L11 157Q13 166 23 166H36Q49 166 60 174T90 220L130 300Q140 320 159 336T200 356V360Q183 370 172 418L159 474Q149 520 105 520H95Q81 520 84 533L110 676Q111 686 121 686Z" horiz-adv-x="957" unicode="Ж"/>
			<glyph d="M343 692Q453 692 513 645T574 520Q574 467 544 422T467 355V351Q497 339 516 300T536 219Q536 156 501 105T404 21T261 -12Q181 -12 106 12T-10 80Q-15 87 -7 95L97 218Q102 224 109 219Q187 159 253 159Q283 159 306 174T330 219Q330 266 270 266H197Q189 266 190 276L215 416Q216 427 226 427H298Q327 427 347 441T367 483Q367 501 351 511T306 522Q229 522 157 480Q147 474 143 482L84 609Q81 617 87 621Q133 647 202 669T343 692Z" horiz-adv-x="560" unicode="З"/>
			<glyph d="M136 680H320Q330 680 328 671L275 372H278L499 669Q507 679 518 680H681Q691 680 689 671L572 10Q570 0 562 0H378Q374 0 371 3T370 10L423 311H420L200 12Q191 0 179 0H17Q7 0 9 10L126 671Q128 680 136 680Z" horiz-adv-x="650" unicode="И"/>
			<glyph d="M136 680H320Q330 680 328 671L275 372H278L499 669Q507 679 518 680H681Q691 680 689 671L572 10Q570 0 562 0H378Q374 0 371 3T370 10L423 311H420L200 12Q191 0 179 0H17Q7 0 9 10L126 671Q128 680 136 680ZM360 878Q369 879 370 871Q373 856 387 846T424 837Q446 837 461 846T484 871Q488 879 497 878L591 867Q599 865 593 853Q569 784 526 754T410 724Q274 724 262 853Q260 865 270 867Z" horiz-adv-x="650" unicode="Й"/>
			<glyph d="M614 686H680Q690 686 689 676L663 529Q662 520 651 520H635Q605 520 583 479L545 410Q519 364 492 358V354Q521 343 532 286L546 213Q555 166 596 166H603Q613 166 611 157L584 4Q583 -6 573 -6H497Q443 -6 407 24T362 116L349 197Q344 226 328 241T277 257H260Q256 257 254 251L211 10Q209 0 200 0H18Q7 0 9 10L126 670Q128 680 137 680H319Q330 680 328 670L287 439Q286 433 291 433H305Q355 433 378 476L434 581Q460 630 500 658T614 686Z" horiz-adv-x="637" unicode="К"/>
			<glyph d="M211 680H710Q719 680 717 671L600 10Q598 0 592 0H406Q402 0 399 3T398 10L484 495Q486 501 479 501H374Q369 501 367 495L337 327Q309 165 251 79T73 -6H-21Q-31 -6 -30 4L-3 157Q-1 166 9 166H25Q112 166 140 327L201 671Q203 680 211 680Z" horiz-adv-x="678" unicode="Л"/>
			<glyph d="M136 680H304Q317 680 319 670L398 344H402L592 670Q597 680 610 680H789Q800 680 798 670L681 10Q679 0 670 0H507Q496 0 498 10L555 333H551L422 106Q415 93 402 93H317Q305 93 300 106L251 333H247L191 10Q189 0 180 0H17Q7 0 9 10L126 670Q128 680 136 680Z" horiz-adv-x="759" unicode="М"/>
			<glyph d="M137 680H319Q330 680 328 670L288 441Q287 435 292 435H430Q436 435 437 441L478 670Q480 680 489 680H671Q682 680 680 670L563 10Q561 0 552 0H370Q359 0 361 10L403 250Q405 256 398 256H260Q256 256 254 250L211 10Q209 0 200 0H18Q7 0 9 10L126 670Q128 680 137 680Z" horiz-adv-x="641" unicode="Н"/>
			<glyph d="M378 692Q489 692 552 635T616 472Q616 412 597 307T551 150Q515 78 447 33T276 -12Q165 -12 101 44T38 208Q38 268 57 372T103 530Q139 602 206 647T378 692ZM357 513Q309 513 286 464Q275 442 258 353T241 227Q241 200 255 183T297 167Q345 167 368 216Q379 238 396 327T413 453Q413 480 398 496T357 513Z" horiz-adv-x="606" unicode="О"/>
			<glyph d="M136 680H662Q674 680 672 671L555 10Q553 0 544 0H360Q357 0 354 3T353 10L439 495Q441 501 434 501H304Q299 501 297 495L211 10Q209 0 201 0H17Q13 0 10 3T9 10L126 671Q128 680 136 680Z" horiz-adv-x="633" unicode="П"/>
			<glyph d="M136 680H408Q521 680 576 631T632 496Q632 367 547 290T327 214H252Q247 214 245 208L210 10Q208 0 199 0H17Q7 0 9 10L126 670Q128 680 136 680ZM304 512Q298 512 298 506L277 389Q277 383 281 383H345Q382 383 404 404T426 463Q426 512 368 512Z" horiz-adv-x="599" unicode="Р"/>
			<glyph d="M376 692Q466 692 521 650T594 530Q597 520 587 516L427 454Q415 449 412 460Q402 513 355 513Q310 513 286 464Q274 439 257 351T241 227Q241 200 255 183T294 167Q336 167 369 222Q375 234 384 229L526 147Q534 141 529 132Q489 67 428 27T266 -12Q163 -12 100 45T38 207Q38 268 57 370T103 530Q183 692 376 692Z" horiz-adv-x="562" unicode="С"/>
			<glyph d="M101 680H628Q639 680 637 670L608 511Q606 501 597 501H440Q435 501 433 495L347 10Q345 0 336 0H154Q143 0 145 10L231 495Q233 501 227 501H71Q60 501 62 511L90 670Q92 680 101 680Z" horiz-adv-x="562" unicode="Т"/>
			<glyph d="M103 680H287Q301 680 303 671L365 439H368L492 671Q497 680 507 680H708Q712 680 714 676T713 668L371 103Q305 -6 190 -6H87Q76 -6 77 4L104 157Q106 166 117 166H160Q183 166 200 172T229 198L236 208L95 667Q94 669 95 674T103 680Z" horiz-adv-x="629" unicode="У"/>
			<glyph d="M411 692H595Q604 692 602 681L591 623Q590 617 596 617Q844 594 844 382Q844 240 755 162T501 74Q495 74 493 68L481 -2Q479 -12 470 -12H287Q278 -12 280 -2L292 68Q294 74 288 74Q39 97 39 309Q39 451 128 528T383 617Q389 617 390 623L401 681Q403 692 411 692ZM351 446Q295 442 267 408T240 325Q240 293 254 271T316 244Q324 244 325 250L358 441Q359 446 351 446ZM567 446Q560 446 559 441L526 250Q525 244 532 244Q588 249 615 282T643 366Q643 398 628 420T567 446Z" horiz-adv-x="841" unicode="Ф"/>
			<glyph d="M117 680H305Q317 680 321 670L375 537H378L474 670Q482 680 492 680H688Q692 680 693 677T692 670L454 353L596 10Q600 0 589 0H404Q391 0 387 10L321 172H319L201 10Q194 0 182 0H-26Q-30 0 -31 3T-30 10L243 360L110 670Q106 680 117 680Z" horiz-adv-x="628" unicode="Х"/>
			<glyph d="M136 680H320Q323 680 326 676T328 670L242 185Q241 179 247 179H377Q383 179 384 185L470 670Q472 680 479 680H664Q667 680 670 676T672 670L586 185Q585 179 591 179H641Q651 179 649 170L603 -99Q601 -110 592 -110H426Q423 -110 421 -106T420 -99L435 -6Q437 0 431 0H17Q7 0 9 9L126 670Q128 680 136 680Z" horiz-adv-x="658" unicode="Ц"/>
			<glyph d="M116 680H298Q309 680 307 671L273 477Q267 441 276 419T322 398Q356 398 382 408Q390 411 391 418L436 671Q438 680 446 680H628Q639 680 637 671L520 10Q518 0 510 0H327Q323 0 320 3T319 10L357 226Q358 230 354 232T348 234Q255 219 207 219Q25 219 67 456L106 671Q108 680 116 680Z" horiz-adv-x="598" unicode="Ч"/>
			<glyph d="M136 680H320Q323 680 326 676T328 670L242 185Q241 179 247 179H361Q367 179 368 185L454 670Q456 680 463 680H647Q651 680 653 677T655 670L569 185Q568 179 574 179H688Q694 179 695 185L781 670Q783 680 790 680H975Q979 680 981 677T983 670L866 9Q864 0 855 0H17Q7 0 9 9L126 670Q128 680 136 680Z" horiz-adv-x="944" unicode="Ш"/>
			<glyph d="M136 680H320Q323 680 326 676T328 670L242 185Q241 179 247 179H361Q367 179 368 185L454 670Q456 680 463 680H647Q651 680 653 677T655 670L569 185Q568 179 574 179H688Q694 179 695 185L781 670Q783 680 790 680H975Q979 680 981 677T983 670L897 185Q896 179 902 179H953Q963 179 961 170L915 -99Q913 -110 904 -110H737Q734 -110 732 -106T731 -99L746 -6Q748 0 742 0H17Q7 0 9 9L126 670Q128 680 136 680Z" horiz-adv-x="969" unicode="Щ"/>
			<glyph d="M101 680H408Q420 680 418 670L382 468Q381 462 387 462H472Q581 462 634 410T687 267Q687 138 609 69T399 0H110Q99 0 101 10L187 496Q187 501 182 502H70Q60 502 62 512L90 670Q92 680 101 680ZM357 299Q353 299 351 293L330 176Q329 170 334 170H400Q437 170 459 191T481 250Q481 299 423 299Z" horiz-adv-x="713" unicode="Ъ"/>
			<glyph d="M137 680H318Q330 680 328 670L292 468Q291 462 297 462H382Q491 462 544 410T597 267Q597 138 519 69T309 0H18Q7 0 9 10L126 670Q128 680 137 680ZM267 299Q263 299 261 293L240 176Q239 170 244 170H310Q347 170 369 191T391 250Q391 299 333 299ZM737 680H917Q929 680 927 670L810 10Q808 0 798 0H618Q607 0 609 10L726 670Q728 680 737 680Z" horiz-adv-x="888" unicode="Ы"/>
			<glyph d="M137 680H318Q330 680 328 670L292 468Q291 462 297 462H382Q491 462 544 410T597 267Q597 138 519 69T309 0H18Q7 0 9 10L126 670Q128 680 137 680ZM267 299Q263 299 261 293L240 176Q239 170 244 170H310Q347 170 369 191T391 250Q391 299 333 299Z" horiz-adv-x="623" unicode="Ь"/>
			<glyph d="M342 692Q447 692 513 635T580 472Q580 401 560 306T512 150Q440 -12 239 -12Q147 -12 86 30T3 147Q-1 157 10 162L163 222Q169 224 176 222T185 215Q193 186 205 171T248 157Q307 157 331 212L344 255Q346 263 337 263H213Q203 263 204 272L230 415Q231 425 241 425H366Q376 425 376 433L377 462Q377 523 309 523Q287 523 266 514T225 471Q217 459 208 464L75 539Q66 544 72 554Q112 622 174 657T342 692Z" horiz-adv-x="570" unicode="Э"/>
			<glyph d="M661 692Q764 692 828 637T892 479Q892 419 873 314T830 157Q791 75 719 31T556 -12Q447 -12 385 43T323 201L326 251Q326 257 321 257H261Q256 257 254 251L211 10Q209 0 200 0H18Q7 0 9 10L126 670Q128 680 137 680H319Q330 680 328 670L287 439Q286 433 292 433H352Q358 433 359 439Q377 500 395 541T450 615Q536 692 661 692ZM639 518Q595 518 574 473Q563 451 544 352T526 218Q526 162 577 162Q622 162 643 207Q654 229 672 327T691 462Q691 518 639 518Z" horiz-adv-x="882" unicode="Ю"/>
			<glyph d="M338 680H645Q655 680 653 671L536 10Q534 0 526 0H344Q340 0 337 3T335 10L373 223Q375 229 368 229H360Q323 229 296 181L262 119Q227 54 186 24T50 -6H3Q-7 -6 -6 4L21 157Q23 166 33 166H41Q77 166 104 213L127 251Q142 278 167 284V288Q130 299 100 341T71 445Q71 553 148 616T338 680ZM339 513Q309 513 289 495T270 444Q270 419 284 404T320 390H396Q402 390 403 396L422 507Q424 513 417 513Z" horiz-adv-x="614" unicode="Я"/>
			<glyph d="M298 502Q419 502 470 460T502 313L447 10Q445 0 436 0H273Q262 0 264 10L268 35H267Q217 -12 135 -12Q82 -12 45 20T8 107Q8 201 70 251T247 302H311Q318 302 319 308L322 319Q326 339 310 347T242 356Q216 356 185 348T138 331Q129 327 126 336L87 438Q83 447 93 454Q120 471 172 486T298 502ZM245 192Q219 192 205 180T191 148Q191 120 228 120Q286 120 292 158L296 186Q298 192 291 192Z" horiz-adv-x="522" unicode="а"/>
			<glyph d="M419 692H572Q581 692 579 683Q565 603 537 563T450 510Q446 509 435 507T348 498T239 467Q216 451 212 420H215Q231 442 265 457T349 472Q424 472 473 431T522 302Q522 229 491 150T403 33Q337 -12 245 -12Q149 -12 89 36T30 177Q30 238 48 338Q63 423 90 489T172 596Q190 610 220 622T300 643T351 651Q401 661 409 683Q413 692 419 692ZM293 336Q255 336 240 297Q233 278 226 241T220 186Q220 168 227 155T259 143Q292 143 307 174Q315 189 323 231T332 291Q332 336 293 336Z" unicode="б"/>
			<glyph d="M101 490H391Q462 490 497 461T533 382Q533 299 454 256V252Q476 242 491 220T507 168Q507 89 454 44T310 0H15Q12 0 9 3T7 9L90 481Q92 490 101 490ZM233 192Q227 192 225 186L214 125Q213 118 220 118H275Q293 118 306 129T319 160Q319 173 310 182T288 192ZM265 370Q257 370 256 363L247 309Q246 302 253 302H301Q344 302 344 341Q344 352 336 361T313 370Z" horiz-adv-x="543" unicode="в"/>
			<glyph d="M101 490H442Q452 490 450 481L426 342Q425 333 414 333H262Q257 333 255 327L199 9Q197 0 190 0H15Q12 0 9 3T7 9L90 481Q92 490 101 490Z" horiz-adv-x="410" unicode="г"/>
			<glyph d="M143 490H565Q568 490 570 487T571 481L515 163Q514 157 520 157H550Q560 157 558 148L519 -72Q517 -81 510 -81H362Q359 -81 356 -78T355 -72L366 -6Q368 0 359 0H133Q127 0 125 -6L114 -72Q112 -81 103 -81H-43Q-52 -81 -50 -72L-12 148Q-10 157 -2 157H19Q29 157 36 167Q58 200 82 269T122 434L130 481Q131 490 143 490ZM289 337Q284 337 282 331L280 322Q258 228 221 164Q216 157 224 157H316Q322 157 323 163L353 331Q355 337 348 337Z" horiz-adv-x="579" unicode="д"/>
			<glyph d="M311 502Q402 502 457 456T513 327Q513 286 499 202Q497 192 487 192H210Q205 192 203 187L202 177Q202 128 280 128Q331 128 389 167Q398 173 403 166L463 82Q470 73 461 66Q368 -12 233 -12Q137 -12 79 34T21 171Q21 215 31 268T62 362Q130 502 311 502ZM291 372Q251 372 232 335Q225 321 225 308Q225 302 230 302H327Q333 302 334 308Q337 317 337 327Q337 372 291 372Z" horiz-adv-x="523" unicode="е"/>
			<glyph d="M80 496H148Q183 496 211 482T252 419L264 370Q275 327 299 327H307Q313 327 314 333L340 481Q342 490 350 490H526Q534 490 532 481L506 333Q505 327 511 327H520Q539 327 560 363L594 424Q614 460 643 478T720 496H786Q798 496 796 486L773 358Q771 349 762 349H755Q741 349 724 319L706 288Q692 265 671 258V254Q687 247 697 216L709 177Q719 145 737 145H749Q759 145 757 136L733 3Q732 -6 721 -6H671Q620 -6 586 12T536 89L522 137Q512 169 491 169H483Q478 169 476 163L449 9Q447 0 440 0H264Q261 0 258 3T257 9L284 163Q286 169 279 169H268Q249 169 232 137L198 73Q158 -6 65 -6H-18Q-27 -6 -26 3L-2 136Q0 145 8 145H16Q18 145 22 146T44 177L67 216Q76 231 91 242T120 255V259Q113 265 105 293L97 320Q89 349 65 349H58Q44 349 46 358L69 487Q71 496 80 496Z" horiz-adv-x="780" unicode="ж"/>
			<glyph d="M290 502Q385 502 433 469T482 381Q482 334 458 303T402 262V258Q424 250 440 226T456 169Q456 82 385 35T218 -12Q77 -12 -7 59Q-13 66 -6 73L76 166Q84 175 91 170Q149 135 203 135Q263 135 263 163Q263 187 217 187H156Q145 187 147 198L166 305Q168 313 177 313H236Q282 313 282 341Q282 363 228 363Q213 363 179 356T114 330Q104 325 100 333L55 430Q51 438 62 444Q154 502 290 502Z" horiz-adv-x="492" unicode="з"/>
			<glyph d="M101 490H268Q277 490 275 480L243 299H246L381 482Q389 490 397 490H563Q572 490 570 481L487 10Q485 0 476 0H310Q299 0 301 10L335 204H332L193 10Q187 0 177 0H15Q12 0 9 3T7 9L90 481Q92 490 101 490Z" horiz-adv-x="563" unicode="и"/>
			<glyph d="M101 490H268Q277 490 275 480L243 299H246L381 482Q389 490 397 490H563Q572 490 570 481L487 10Q485 0 476 0H310Q299 0 301 10L335 204H332L193 10Q187 0 177 0H15Q12 0 9 3T7 9L90 481Q92 490 101 490ZM421 689L509 675Q515 673 511 661Q490 591 448 559T338 528Q203 528 194 661Q192 673 203 675L288 688Q298 689 299 681Q301 665 315 653T349 641Q384 641 408 682Q412 690 421 689Z" horiz-adv-x="563" unicode="й"/>
			<glyph d="M493 496H556Q568 496 566 486L543 358Q541 349 532 349H518Q506 349 485 319L466 288Q449 264 431 258V254Q447 247 456 220L472 175Q483 145 505 145H509Q519 145 517 136L493 3Q492 -6 481 -6H423Q312 -6 290 89L279 137Q272 169 244 169H233Q228 169 226 163L199 9Q197 0 190 0H15Q12 0 9 3T7 9L90 481Q92 490 101 490H276Q284 490 282 481L256 333Q255 327 261 327H269Q295 327 316 363L353 424Q371 453 400 474T493 496Z" horiz-adv-x="540" unicode="к"/>
			<glyph d="M147 490H579Q588 490 586 481L503 9Q501 0 493 0H319Q315 0 312 3T310 9L366 327Q368 333 361 333H297Q292 333 290 327L275 241Q251 107 200 50T57 -6H-22Q-31 -6 -30 3L-6 136Q-5 145 4 145H14Q78 145 92 222L137 481Q139 490 147 490Z" horiz-adv-x="579" unicode="л"/>
			<glyph d="M101 490H268Q275 490 277 483L332 272H335L464 483Q469 490 477 490H653Q662 490 660 481L577 9Q575 0 567 0H405Q402 0 399 3T397 9L431 204H428L351 78Q345 69 339 69H269Q263 69 260 78L224 204H221L187 9Q185 0 178 0H15Q12 0 9 3T7 9L90 481Q92 490 101 490Z" horiz-adv-x="653" unicode="м"/>
			<glyph d="M101 490H276Q284 490 282 481L256 332Q255 326 264 326H335Q341 326 342 332L368 481Q370 490 379 490H553Q562 490 560 481L477 9Q475 0 467 0H294Q290 0 287 3T285 9L312 163Q314 169 307 169H233Q228 169 226 163L199 9Q197 0 189 0H15Q12 0 9 3T7 9L90 481Q92 490 101 490Z" horiz-adv-x="553" unicode="н"/>
			<glyph d="M307 502Q400 502 456 453T512 313Q512 270 502 218T473 128Q404 -12 226 -12Q133 -12 77 36T21 177Q21 220 31 271T60 362Q129 502 307 502ZM285 347Q253 347 238 316Q230 298 220 251T211 184Q211 143 248 143Q280 143 295 174Q303 192 312 239T322 306Q322 347 285 347Z" horiz-adv-x="522" unicode="о"/>
			<glyph d="M101 490H548Q557 490 555 481L472 9Q470 0 462 0H289Q285 0 282 3T280 9L336 327Q338 333 331 333H262Q257 333 255 327L199 9Q197 0 190 0H15Q12 0 9 3T7 9L90 481Q92 490 101 490Z" horiz-adv-x="548" unicode="п"/>
			<glyph d="M406 502Q468 502 504 467T540 343Q540 292 524 216T485 94Q433 -12 316 -12Q285 -12 253 0T208 47H207L168 -170Q166 -180 157 -180H-17Q-27 -180 -25 -170L90 480Q92 490 100 490H274Q285 490 283 480L276 442H277Q297 469 331 485T406 502ZM306 347Q274 347 259 316Q251 300 242 253T234 187Q234 143 271 143Q302 143 318 174Q326 190 334 236T343 303Q343 347 306 347Z" horiz-adv-x="547" unicode="р"/>
			<glyph d="M307 502Q385 502 435 464T494 370Q495 361 487 357L344 300Q331 294 328 305Q323 322 315 334T287 347Q255 347 241 317Q232 298 223 251T214 183Q214 143 251 143Q282 143 308 188Q314 198 324 194L455 132Q463 128 458 119Q378 -12 216 -12Q129 -12 75 36T21 171Q21 276 62 361Q130 502 307 502Z" horiz-adv-x="489" unicode="с"/>
			<glyph d="M64 490H476Q485 490 483 481L459 342Q458 333 448 333H347Q342 333 340 327L284 9Q282 0 274 0H101Q97 0 94 3T92 9L148 327Q150 333 143 333H36Q29 333 30 342L54 481Q56 490 64 490Z" horiz-adv-x="443" unicode="т"/>
			<glyph d="M60 490H235Q245 490 246 480L280 264H282L384 480Q388 490 399 490H579Q584 490 585 486T585 479L267 -69Q240 -117 200 -148T68 -180H28Q18 -180 20 -170L44 -35Q46 -25 56 -25H83Q105 -25 119 -17T143 9L156 36L52 480Q50 490 60 490Z" horiz-adv-x="543" unicode="у"/>
			<glyph d="M371 680H545Q555 680 553 671L522 498Q521 492 527 492Q638 486 692 438T746 298Q746 227 718 160T643 56Q573 2 440 -3Q435 -3 433 -9L404 -171Q402 -180 394 -180H220Q210 -180 212 -171L241 -9Q243 -3 236 -3Q125 3 70 50T16 191Q16 263 43 329T119 433Q189 487 323 492Q329 492 330 498L361 671Q363 680 371 680ZM301 346Q266 344 249 329Q235 316 222 278T209 194Q209 172 219 158T265 143Q271 143 272 149L305 340Q307 346 301 346ZM498 346Q492 346 490 340L457 149Q456 143 462 143Q495 144 513 160Q529 175 541 215T553 295Q553 317 543 331T498 346Z" horiz-adv-x="753" unicode="ф"/>
			<glyph d="M78 490H251Q261 490 264 483L299 404H301L364 483Q370 490 380 490H561Q566 490 567 487T565 480L375 251L492 10Q493 6 491 3T485 0H307Q298 0 295 8L253 101H252L176 8Q169 0 160 0H-28Q-32 0 -33 3T-32 10L177 257L70 480Q69 484 71 487T78 490Z" horiz-adv-x="542" unicode="х"/>
			<glyph d="M101 490H276Q279 490 281 487T282 481L226 163Q225 157 231 157H300Q306 157 307 163L363 481Q365 490 375 490H548Q557 490 555 481L499 163Q498 157 504 157H534Q544 157 542 148L503 -72Q501 -81 494 -81H345Q343 -81 340 -78T339 -72L350 -6Q352 0 346 0H15Q5 0 7 9L90 481Q92 490 101 490Z" horiz-adv-x="563" unicode="ц"/>
			<glyph d="M78 490H253Q262 490 260 481L233 328Q228 295 261 295Q271 295 299 301Q304 302 306 309L336 481Q338 490 348 490H521Q530 490 528 481L445 9Q443 0 435 0H262Q258 0 255 3T253 9L278 151Q280 162 269 160Q207 147 164 147Q11 147 40 319L68 481Q70 490 78 490Z" horiz-adv-x="521" unicode="ч"/>
			<glyph d="M101 490H276Q279 490 281 487T282 481L226 163Q225 157 231 157H293Q299 157 300 163L356 481Q358 490 368 490H542Q545 490 547 487T548 481L492 163Q491 157 497 157H559Q565 157 566 163L622 481Q624 490 634 490H808Q811 490 813 487T814 481L731 9Q729 0 722 0H15Q5 0 7 9L90 481Q92 490 101 490Z" horiz-adv-x="807" unicode="ш"/>
			<glyph d="M101 490H276Q279 490 281 487T282 481L226 163Q225 157 231 157H293Q299 157 300 163L356 481Q358 490 368 490H542Q545 490 547 487T548 481L492 163Q491 157 497 157H559Q565 157 566 163L622 481Q624 490 634 490H808Q811 490 813 487T814 481L758 163Q757 157 763 157H793Q803 157 801 148L762 -72Q760 -81 753 -81H604Q602 -81 599 -78T598 -72L609 -6Q611 0 605 0H15Q5 0 7 9L90 481Q92 490 101 490Z" horiz-adv-x="822" unicode="щ"/>
			<glyph d="M65 490H333Q341 490 339 481L315 339Q314 333 320 333H412Q479 333 518 295T557 194Q557 112 502 56T353 0H72Q69 0 66 3T64 9L120 327Q122 333 115 333H37Q29 333 30 342L54 481Q56 490 65 490ZM290 206Q285 206 283 200L272 137Q271 131 277 131H334Q350 131 364 142T378 172Q378 186 370 196T347 206Z" horiz-adv-x="577" unicode="ъ"/>
			<glyph d="M101 490H276Q284 490 282 481L258 339Q257 333 263 333H350Q417 333 456 295T495 194Q495 112 440 56T291 0H15Q12 0 9 3T7 9L90 481Q92 490 101 490ZM233 206Q228 206 226 200L215 137Q214 131 220 131H277Q293 131 307 142T321 172Q321 186 313 196T290 206ZM597 490H769Q779 490 777 480L694 10Q692 0 683 0H511Q500 0 502 10L585 480Q587 490 597 490Z" horiz-adv-x="770" unicode="ы"/>
			<glyph d="M101 490H276Q284 490 282 481L258 339Q257 333 263 333H355Q422 333 461 295T500 194Q500 112 445 56T296 0H15Q12 0 9 3T7 9L90 481Q92 490 101 490ZM233 206Q228 206 226 200L215 137Q214 131 220 131H277Q293 131 307 142T321 172Q321 186 313 196T290 206Z" horiz-adv-x="520" unicode="ь"/>
			<glyph d="M276 502Q373 502 426 452T479 314Q479 248 458 181T403 75Q327 -12 192 -12Q122 -12 72 19T-2 94Q-5 101 5 108L106 183Q117 191 122 181Q154 132 200 132Q236 132 254 156L263 175Q265 181 253 181H167Q158 181 160 190L179 300Q180 310 191 310H283Q288 310 288 316V320Q288 360 239 360Q188 360 157 322Q150 312 142 319L51 391Q44 397 51 406Q91 451 143 476T276 502Z" horiz-adv-x="489" unicode="э"/>
			<glyph d="M564 502Q660 502 717 454T774 314Q774 212 733 124Q670 -12 491 -12Q404 -12 345 36Q320 58 304 93T288 165Q288 171 283 171H234Q229 171 227 165L199 9Q197 0 190 0H15Q12 0 9 3T7 9L90 481Q92 490 101 490H276Q284 490 282 481L256 330Q255 324 261 324H307Q311 324 314 330Q339 394 375 430Q444 502 564 502ZM547 347Q515 347 500 316Q492 298 482 251T473 184Q473 143 510 143Q542 143 557 174Q565 192 574 239T584 306Q584 347 547 347Z" horiz-adv-x="784" unicode="ю"/>
			<glyph d="M289 490H545Q554 490 552 481L469 9Q467 0 459 0H286Q282 0 279 3T277 9L301 146Q303 152 296 152H293Q276 152 261 127L220 61Q201 29 165 11T50 -6H6Q-3 -6 -2 3L19 132Q21 143 32 143H40Q61 143 75 163L91 186Q101 201 113 206V210Q84 219 66 249T48 316Q48 398 108 444T289 490ZM276 360Q256 360 242 347T229 314Q229 298 238 288T262 279H322Q329 279 330 286L342 354Q344 360 337 360Z" horiz-adv-x="545" unicode="я"/>
			<glyph d="M311 502Q402 502 457 456T513 327Q513 286 499 202Q497 192 487 192H210Q205 192 203 187L202 177Q202 128 280 128Q331 128 389 167Q398 173 403 166L463 82Q470 73 461 66Q368 -12 233 -12Q137 -12 79 34T21 171Q21 215 31 268T62 362Q130 502 311 502ZM291 372Q251 372 232 335Q225 321 225 308Q225 302 230 302H327Q333 302 334 308Q337 317 337 327Q337 372 291 372ZM176 704H325Q337 704 340 694L395 551Q398 541 387 541H265Q253 541 247 551L170 694Q168 698 170 701T176 704Z" horiz-adv-x="523" unicode="ѐ"/>
			<glyph d="M311 502Q402 502 457 456T513 327Q513 286 499 202Q497 192 487 192H210Q205 192 203 187L202 177Q202 128 280 128Q331 128 389 167Q398 173 403 166L463 82Q470 73 461 66Q368 -12 233 -12Q137 -12 79 34T21 171Q21 215 31 268T62 362Q130 502 311 502ZM291 372Q251 372 232 335Q225 321 225 308Q225 302 230 302H327Q333 302 334 308Q337 317 337 327Q337 372 291 372ZM381 684H503Q513 684 511 674L489 554Q487 544 478 544H356Q345 544 347 554L369 674Q371 684 381 684ZM178 684H300Q310 684 308 674L286 554Q284 544 275 544H153Q142 544 144 554L166 674Q168 684 178 684Z" horiz-adv-x="523" unicode="ё"/>
			<glyph d="M144 680H318Q328 680 326 670L320 638Q319 632 325 632H402Q412 632 410 622L393 525Q391 515 381 515H304Q299 515 297 509L284 430H285Q333 490 415 490Q571 490 537 307L487 29Q468 -77 417 -128T237 -180H195Q186 -180 188 -170L212 -35Q214 -25 223 -25H232Q261 -25 274 -14T293 30L337 277Q347 332 307 332Q266 332 257 278L210 10Q208 0 199 0H25Q15 0 17 10L105 509Q107 515 100 515H39Q29 515 31 525L48 622Q50 632 60 632H121Q128 632 128 638L133 670Q135 680 144 680Z" horiz-adv-x="559" unicode="ђ"/>
			<glyph d="M101 490H442Q452 490 450 481L426 342Q425 333 414 333H262Q257 333 255 327L199 9Q197 0 190 0H15Q12 0 9 3T7 9L90 481Q92 490 101 490ZM287 704H445Q449 704 450 700T448 694L319 551Q310 541 300 541H165Q161 541 159 544T161 551L268 694Q275 704 287 704Z" horiz-adv-x="410" unicode="ѓ"/>
			<glyph d="M304 501Q360 501 411 477T496 395Q500 386 489 380L386 318Q375 312 370 321Q350 359 303 359Q274 359 255 346Q239 334 234 317Q233 314 234 311T239 309H332Q342 309 341 299L322 189Q320 180 310 180H218Q209 180 209 173V169Q209 131 262 131Q283 131 303 140T354 177Q363 186 369 179L454 97Q462 90 455 83Q372 -12 232 -12Q129 -12 75 40T21 185Q21 253 42 320T106 430Q174 501 304 501Z" horiz-adv-x="489" unicode="є"/>
			<glyph d="M302 502Q350 502 409 487T510 437Q517 431 508 422L427 336Q420 329 412 333Q352 371 284 371Q269 371 253 365T238 346Q238 329 277 325L329 319Q486 302 486 191Q486 100 415 44T224 -12Q82 -12 -7 66Q-10 68 -9 73T-6 81L83 172Q90 179 99 173Q179 123 251 123Q274 123 288 131T303 152Q303 168 257 173L204 179Q136 187 97 219T59 306Q59 396 124 449T302 502Z" horiz-adv-x="509" unicode="ѕ"/>
			<glyph d="M134 680H308Q318 680 316 670L295 550Q293 540 284 540H110Q100 540 102 550L123 670Q125 680 134 680ZM101 490H275Q285 490 283 480L200 10Q198 0 189 0H15Q5 0 7 10L90 480Q92 490 101 490Z" horiz-adv-x="276" unicode="і"/>
			<glyph d="M101 490H275Q285 490 283 480L200 10Q198 0 189 0H15Q5 0 7 10L90 480Q92 490 101 490ZM263 684H385Q395 684 393 674L371 554Q369 544 360 544H238Q227 544 229 554L251 674Q253 684 263 684ZM60 684H182Q192 684 190 674L168 554Q166 544 157 544H35Q24 544 26 554L48 674Q50 684 60 684Z" horiz-adv-x="276" unicode="ї"/>
			<glyph d="M134 680H308Q318 680 316 670L295 550Q293 540 284 540H110Q100 540 102 550L123 670Q125 680 134 680ZM101 490H275Q285 490 283 480L204 29Q185 -77 134 -128T-46 -180H-88Q-98 -180 -95 -170L-71 -35Q-69 -25 -60 -25H-51Q-22 -25 -9 -14T10 30L90 480Q92 490 101 490Z" horiz-adv-x="276" unicode="ј"/>
			<glyph d="M147 490H579Q588 490 586 481L561 339Q560 333 566 333H658Q725 333 764 295T803 194Q803 112 748 56T599 0H319Q315 0 312 3T310 9L366 327Q368 333 361 333H297Q292 333 290 327L275 241Q251 107 200 50T57 -6H-22Q-31 -6 -30 3L-6 136Q-5 145 4 145H13Q40 145 62 163T92 222L137 481Q139 490 147 490ZM536 206Q531 206 529 200L518 137Q517 131 523 131H580Q596 131 610 142T624 172Q624 186 616 196T593 206Z" horiz-adv-x="823" unicode="љ"/>
			<glyph d="M101 490H276Q284 490 282 481L257 339Q256 333 265 333H336Q342 333 343 339L368 481Q370 490 379 490H553Q562 490 560 481L535 339Q534 333 540 333H632Q699 333 738 295T777 194Q777 112 722 56T573 0H294Q290 0 287 3T285 9L313 170Q315 176 308 176H235Q229 176 227 170L199 9Q197 0 189 0H15Q12 0 9 3T7 9L90 481Q92 490 101 490ZM510 206Q505 206 503 200L492 137Q491 131 497 131H554Q570 131 584 142T598 172Q598 186 590 196T567 206Z" horiz-adv-x="797" unicode="њ"/>
			<glyph d="M144 680H318Q328 680 326 670L320 638Q319 632 325 632H402Q412 632 410 622L393 525Q391 515 381 515H304Q299 515 297 509L284 430H285Q333 490 415 490Q571 490 537 307L483 10Q481 0 472 0H299Q288 0 290 10L337 277Q347 332 307 332Q266 332 257 278L210 10Q208 0 199 0H25Q15 0 17 10L105 509Q107 515 100 515H39Q29 515 31 525L48 622Q50 632 60 632H121Q128 632 128 638L133 670Q135 680 144 680Z" horiz-adv-x="559" unicode="ћ"/>
			<glyph d="M493 496H556Q568 496 566 486L543 358Q541 349 532 349H518Q506 349 485 319L466 288Q449 264 431 258V254Q447 247 456 220L472 175Q483 145 505 145H509Q519 145 517 136L493 3Q492 -6 481 -6H423Q312 -6 290 89L279 137Q272 169 244 169H233Q228 169 226 163L199 9Q197 0 190 0H15Q12 0 9 3T7 9L90 481Q92 490 101 490H276Q284 490 282 481L256 333Q255 327 261 327H269Q295 327 316 363L353 424Q371 453 400 474T493 496ZM342 704H500Q504 704 505 700T503 694L374 551Q365 541 355 541H220Q216 541 214 544T216 551L323 694Q330 704 342 704Z" horiz-adv-x="540" unicode="ќ"/>
			<glyph d="M101 490H268Q277 490 275 480L243 299H246L381 482Q389 490 397 490H563Q572 490 570 481L487 10Q485 0 476 0H310Q299 0 301 10L335 204H332L193 10Q187 0 177 0H15Q12 0 9 3T7 9L90 481Q92 490 101 490ZM196 704H345Q357 704 360 694L415 551Q418 541 407 541H285Q273 541 267 551L190 694Q188 698 190 701T196 704Z" horiz-adv-x="563" unicode="ѝ"/>
			<glyph d="M60 490H235Q245 490 246 480L280 264H282L384 480Q388 490 399 490H579Q584 490 585 486T585 479L267 -69Q240 -117 200 -148T68 -180H28Q18 -180 20 -170L44 -35Q46 -25 56 -25H83Q105 -25 119 -17T143 9L156 36L52 480Q50 490 60 490ZM405 689L493 675Q499 673 495 661Q474 591 432 559T322 528Q187 528 178 661Q176 673 187 675L272 688Q282 689 283 681Q285 665 299 653T333 641Q368 641 392 682Q396 690 405 689Z" horiz-adv-x="543" unicode="ў"/>
			<glyph d="M101 490H276Q279 490 281 487T282 481L226 163Q225 157 231 157H300Q306 157 307 163L363 481Q365 490 375 490H548Q557 490 555 481L472 9Q470 0 462 0H331Q325 0 323 -6L311 -72Q309 -81 302 -81H148Q146 -81 143 -78T141 -72L153 -6Q155 0 149 0H15Q5 0 7 9L90 481Q92 490 101 490Z" horiz-adv-x="548" unicode="џ"/>
			<glyph d="M427 801H579Q588 801 586 791L537 511Q535 501 525 501H304Q299 501 297 495L211 10Q209 0 199 0H18Q7 0 9 10L126 670Q128 680 137 680H390Q395 680 396 685L415 791Q418 801 427 801Z" horiz-adv-x="490" unicode="Ґ"/>
			<glyph d="M314 572H458Q467 572 465 563L426 342Q425 333 415 333H262Q257 333 255 327L199 9Q197 0 190 0H15Q12 0 9 3T7 9L90 481Q92 490 101 490H287Q293 490 294 496L306 563Q308 572 314 572Z" horiz-adv-x="410" unicode="ґ"/>
			<glyph d="M86 680H276Q288 680 288 670L298 298H300L456 670Q460 680 470 680H588Q600 680 601 670L631 298H633L772 670Q775 680 785 680H987Q998 680 993 670L686 10Q682 0 672 0H525Q514 0 513 10L479 351H477L325 10Q321 0 311 0H165Q153 0 152 10L79 670Q77 680 86 680ZM349 890H500Q512 890 519 880L602 749Q604 745 602 742T597 739H469Q459 739 450 749L343 880Q341 884 343 887T349 890Z" horiz-adv-x="910" unicode="Ẁ"/>
			<glyph d="M63 490H231Q243 490 243 480L253 251H255L358 480Q362 490 374 490H477Q488 490 489 480L512 251H514L602 480Q606 490 619 490H797Q808 490 803 480L563 10Q559 0 551 0H420Q411 0 410 10L387 233H385L281 10Q277 0 268 0H138Q128 0 127 10L53 480Q53 490 63 490ZM276 704H425Q437 704 440 694L495 551Q498 541 487 541H365Q353 541 347 551L270 694Q268 698 270 701T276 704Z" horiz-adv-x="762" unicode="ẁ"/>
			<glyph d="M86 680H276Q288 680 288 670L298 298H300L456 670Q460 680 470 680H588Q600 680 601 670L631 298H633L772 670Q775 680 785 680H987Q998 680 993 670L686 10Q682 0 672 0H525Q514 0 513 10L479 351H477L325 10Q321 0 311 0H165Q153 0 152 10L79 670Q77 680 86 680ZM620 890H778Q782 890 783 886T782 880L629 749Q618 739 604 739H472Q468 739 466 742T468 749L598 880Q608 890 620 890Z" horiz-adv-x="910" unicode="Ẃ"/>
			<glyph d="M63 490H231Q243 490 243 480L253 251H255L358 480Q362 490 374 490H477Q488 490 489 480L512 251H514L602 480Q606 490 619 490H797Q808 490 803 480L563 10Q559 0 551 0H420Q411 0 410 10L387 233H385L281 10Q277 0 268 0H138Q128 0 127 10L53 480Q53 490 63 490ZM485 704H643Q647 704 648 700T646 694L517 551Q508 541 498 541H363Q359 541 357 544T359 551L466 694Q473 704 485 704Z" horiz-adv-x="762" unicode="ẃ"/>
			<glyph d="M86 680H276Q288 680 288 670L298 298H300L456 670Q460 680 470 680H588Q600 680 601 670L631 298H633L772 670Q775 680 785 680H987Q998 680 993 670L686 10Q682 0 672 0H525Q514 0 513 10L479 351H477L325 10Q321 0 311 0H165Q153 0 152 10L79 670Q77 680 86 680ZM616 882H738Q748 882 746 872L724 752Q722 742 713 742H591Q580 742 582 752L604 872Q606 882 616 882ZM413 882H535Q545 882 543 872L521 752Q519 742 510 742H388Q377 742 379 752L401 872Q403 882 413 882Z" horiz-adv-x="910" unicode="Ẅ"/>
			<glyph d="M63 490H231Q243 490 243 480L253 251H255L358 480Q362 490 374 490H477Q488 490 489 480L512 251H514L602 480Q606 490 619 490H797Q808 490 803 480L563 10Q559 0 551 0H420Q411 0 410 10L387 233H385L281 10Q277 0 268 0H138Q128 0 127 10L53 480Q53 490 63 490ZM503 684H625Q635 684 633 674L611 554Q609 544 600 544H478Q467 544 469 554L491 674Q493 684 503 684ZM300 684H422Q432 684 430 674L408 554Q406 544 397 544H275Q264 544 266 554L288 674Q290 684 300 684Z" horiz-adv-x="762" unicode="ẅ"/>
			<glyph d="M86 680H257Q269 680 272 670L334 449H337L477 670Q483 680 494 680H683Q688 680 690 676T689 669L411 255L368 10Q366 0 357 0H175Q164 0 166 10L209 255L77 669Q76 673 78 676T86 680ZM204 890H355Q367 890 374 880L457 749Q459 745 457 742T452 739H324Q314 739 305 749L198 880Q196 884 198 887T204 890Z" horiz-adv-x="605" unicode="Ỳ"/>
			<glyph d="M60 490H235Q245 490 246 480L280 264H282L384 480Q388 490 399 490H579Q584 490 585 486T585 479L267 -69Q240 -117 200 -148T68 -180H28Q18 -180 20 -170L44 -35Q46 -25 56 -25H83Q105 -25 119 -17T143 9L156 36L52 480Q50 490 60 490ZM174 704H323Q335 704 338 694L393 551Q396 541 385 541H263Q251 541 245 551L168 694Q166 698 168 701T174 704Z" horiz-adv-x="543" unicode="ỳ"/>
			<glyph d="M66 348H372Q383 348 381 338L356 192Q354 182 344 182H38Q27 182 29 192L55 338Q57 348 66 348Z" horiz-adv-x="389" unicode="‐"/>
			<glyph d="M54 346H548Q557 346 555 336L530 194Q528 184 519 184H25Q15 184 17 194L42 336Q44 346 54 346Z" horiz-adv-x="552" unicode="–"/>
			<glyph d="M54 346H919Q928 346 926 336L900 194Q898 184 889 184H25Q15 184 17 194L42 336Q44 346 54 346Z" horiz-adv-x="923" unicode="—"/>
			<glyph d="M54 346H919Q928 346 926 336L900 194Q898 184 889 184H25Q15 184 17 194L42 336Q44 346 54 346Z" horiz-adv-x="923" unicode="―"/>
			<glyph d="M265 682Q277 682 275 669L236 450Q234 440 225 440H98Q87 440 89 450L111 575Q114 590 126 598L246 674Q260 682 265 682Z" horiz-adv-x="240" unicode="‘"/>
			<glyph d="M139 680H266Q277 680 275 670L253 545Q250 530 238 522L118 446Q104 438 99 438Q87 438 89 451L128 670Q130 680 139 680Z" horiz-adv-x="240" unicode="’"/>
			<glyph d="M46 153H173Q184 153 182 143L160 18Q157 3 145 -5L25 -81Q14 -89 6 -89Q-6 -89 -4 -76L35 143Q37 153 46 153Z" horiz-adv-x="240" unicode="‚"/>
			<glyph d="M470 682Q482 682 480 669L442 450Q440 440 431 440H304Q293 440 295 450L317 575Q320 591 331 598L452 674Q465 682 470 682ZM265 682Q277 682 275 669L236 450Q234 440 225 440H98Q87 440 89 450L111 575Q114 590 126 598L246 674Q259 682 265 682Z" horiz-adv-x="446" unicode="“"/>
			<glyph d="M344 680H471Q482 680 480 670L459 545Q456 530 444 522L324 446Q312 438 305 438Q293 438 295 451L333 670Q335 680 344 680ZM139 680H266Q277 680 275 670L253 545Q250 530 238 522L118 446Q106 438 99 438Q87 438 89 451L128 670Q130 680 139 680Z" horiz-adv-x="446" unicode="”"/>
			<glyph d="M251 153H378Q389 153 387 143L365 18Q362 3 350 -5L230 -81Q219 -89 211 -89Q199 -89 201 -76L240 143Q242 153 251 153ZM46 153H173Q184 153 182 143L160 18Q157 3 145 -5L25 -81Q13 -89 6 -89Q-6 -89 -4 -76L35 143Q37 153 46 153Z" horiz-adv-x="446" unicode="„"/>
			<glyph d="M277 680H453Q463 680 461 670L427 485Q426 479 431 479H571Q582 479 580 469L553 315Q551 305 542 305H402Q395 305 395 299L313 -170Q310 -180 302 -180H126Q115 -180 118 -170L202 299Q202 305 197 305H57Q47 305 49 315L76 469Q78 479 86 479H226Q233 479 234 485L266 670Q268 680 277 680Z" horiz-adv-x="564" unicode="†"/>
			<glyph d="M277 680H453Q463 680 461 670L434 525Q433 519 439 519H579Q589 519 587 509L560 355Q558 345 549 345H409Q404 345 402 339L370 161Q369 155 375 155H515Q525 155 523 145L496 -9Q494 -19 485 -19H345Q340 -19 338 -25L313 -170Q310 -180 302 -180H126Q115 -180 118 -170L145 -25Q147 -19 140 -19H0Q-10 -19 -8 -9L19 145Q21 155 30 155H170Q176 155 177 161L209 339Q211 345 204 345H64Q54 345 56 355L83 509Q85 519 94 519H234Q240 519 241 525L266 670Q268 680 277 680Z" horiz-adv-x="564" unicode="‡"/>
			<glyph d="M242 481Q315 481 364 432T414 309Q414 235 364 186T242 137Q169 137 119 186T70 309Q70 383 119 432T242 481Z" horiz-adv-x="444" unicode="•"/>
			<glyph d="M533 175H688Q699 175 697 165L670 10Q668 0 659 0H505Q494 0 496 10L522 165Q524 175 533 175ZM286 175H441Q452 175 450 165L423 10Q421 0 412 0H258Q247 0 249 10L275 165Q277 175 286 175ZM39 175H194Q205 175 203 165L176 10Q174 0 165 0H11Q0 0 2 10L28 165Q30 175 39 175Z" horiz-adv-x="741" unicode="…"/>
			<glyph d="M654 692H772Q776 692 776 689T774 682L269 -2Q262 -12 251 -12H134Q130 -12 129 -9T132 -2L636 682Q643 692 654 692ZM291 688Q345 688 379 657T414 571Q414 477 383 414Q342 330 227 330Q173 330 139 360T105 446Q105 542 136 604Q177 688 291 688ZM274 597Q260 597 253 581Q248 571 238 512T228 440Q228 421 244 421Q259 421 266 437Q271 447 281 505T291 578Q291 597 274 597ZM1023 350Q1077 350 1111 319T1146 233Q1146 139 1115 76Q1074 -8 959 -8Q905 -8 870 22T836 108Q836 202 868 266Q908 350 1023 350ZM679 350Q733 350 767 319T802 233Q802 142 771 76Q730 -8 615 -8Q561 -8 526 22T492 108Q492 201 523 266Q564 350 679 350ZM1006 259Q992 259 985 243Q980 233 970 174T960 102Q960 83 976 83Q990 83 997 99Q1002 109 1012 167T1023 240Q1023 259 1006 259ZM662 259Q648 259 641 243Q636 233 625 175T615 102Q615 83 632 83Q646 83 653 99Q658 109 668 167T678 240Q678 259 662 259Z" horiz-adv-x="1198" unicode="‰"/>
			<glyph d="M325 519T328 513L299 353Q296 340 285 330L204 258Q199 254 202 250L258 178Q267 168 264 156L239 13Q238 9 234 8T228 11L25 257Q19 265 27 271L319 518Q322 521 325 519Z" horiz-adv-x="325" unicode="‹"/>
			<glyph d="M108 520T115 517L318 271Q324 263 316 257L24 10Q21 7 17 9T15 15L44 175Q47 188 58 198L140 270Q145 274 142 278L85 350Q76 360 79 372L104 515Q105 519 108 520Z" horiz-adv-x="325" unicode="›"/>
			<glyph d="M164 156H319Q329 156 327 146L303 10Q301 0 292 0H137Q127 0 129 10L153 146Q155 156 164 156ZM354 692Q441 692 492 648T543 533Q543 491 522 444T433 337L360 276Q336 255 332 236L330 229Q328 219 318 219H173Q165 219 165 227L174 453Q177 463 186 463H317Q325 463 325 456V453L310 390H312L327 407Q372 456 373 495Q373 545 316 545Q274 545 253 512Q247 504 242 504L100 530Q93 531 93 536L95 544Q161 692 354 692Z" horiz-adv-x="501" unicode="‽"/>
			<glyph d="M343 692H461Q465 692 465 689T463 682L-41 -2Q-48 -12 -59 -12H-175Q-179 -12 -179 -9T-177 -2L326 682Q332 692 343 692Z" horiz-adv-x="239" unicode="⁄"/>
			<glyph d="M294 843Q357 843 393 810T430 716Q430 686 417 616T390 518Q367 472 323 447T220 423Q157 423 120 456T83 550Q83 580 95 649T123 748Q171 843 294 843ZM276 739Q260 739 252 722Q246 709 233 638T221 549Q221 527 239 527Q254 527 262 544Q268 557 280 627T293 717Q293 739 276 739Z" horiz-adv-x="365" unicode="⁰"/>
			<glyph d="M243 836H366Q370 836 371 832T371 826L229 593V590H261Q267 590 268 596L276 641Q278 651 287 651H392Q401 651 399 641L392 596Q391 590 396 590H409Q418 590 416 580L399 489Q397 479 388 479H376Q371 479 369 473L364 440Q362 430 353 430H247Q238 430 240 440L246 473Q248 479 241 479H77Q67 479 69 489L86 587Q87 596 95 607L228 826Q234 836 243 836Z" horiz-adv-x="365" unicode="⁴"/>
			<glyph d="M157 836H418Q429 836 427 826L412 739Q410 728 401 728H251Q245 728 244 723L237 683H238Q262 702 304 702Q352 702 378 678T405 608Q405 555 385 513Q364 470 320 446T222 423Q160 423 127 449T92 522Q92 534 103 536L202 549Q212 550 215 543Q220 527 236 527Q253 527 260 542Q268 558 268 576Q268 598 249 598Q239 598 227 588Q221 582 213 582H113Q103 582 105 592L146 826Q148 836 157 836Z" horiz-adv-x="365" unicode="⁵"/>
			<glyph d="M265 836H391Q395 836 396 832T395 826L299 694V693H308Q354 693 382 664T410 592Q410 518 354 470T220 423Q156 423 118 454T80 536Q80 565 91 597T143 684L247 826Q255 836 265 836ZM250 593Q234 593 222 581T211 553Q211 541 218 533T238 525Q254 525 265 537T276 566Q276 578 269 585T250 593Z" horiz-adv-x="365" unicode="⁶"/>
			<glyph d="M149 836H439Q450 836 448 826L430 725L423 707L267 440Q262 430 252 430H127Q116 430 122 442L290 726L291 728H248Q243 728 241 722L235 689Q233 679 223 679H121Q111 679 113 689L138 826Q140 836 149 836Z" horiz-adv-x="365" unicode="⁷"/>
			<glyph d="M294 843Q357 843 392 812T428 737Q428 682 379 640V639Q408 612 408 574Q408 507 352 465T220 423Q158 423 118 451T79 530Q79 598 138 639V640Q115 665 115 699Q115 759 168 801T294 843ZM276 741Q264 741 253 731T243 705Q243 696 249 690T265 684Q277 684 287 693T297 719Q297 728 291 734T276 741ZM250 592Q234 592 222 581T211 552Q211 541 219 533T238 525Q253 525 264 536T276 566Q276 570 271 581T250 592Z" horiz-adv-x="365" unicode="⁸"/>
			<glyph d="M295 843Q358 843 396 812T434 730Q434 701 423 670T371 582L267 440Q259 430 249 430H123Q119 430 117 433T119 440L215 572V573H206Q160 573 132 601T104 674Q104 748 160 795T295 843ZM277 741Q261 741 249 728T238 700Q238 688 245 680T265 673Q281 673 292 685T303 713Q303 725 296 733T277 741Z" horiz-adv-x="365" unicode="⁹"/>
			<glyph d="M193 257Q256 257 292 224T329 130Q329 100 316 30T289 -68Q266 -114 222 -138T119 -163Q56 -163 19 -130T-18 -36Q-18 -6 -5 63T22 162Q70 257 193 257ZM175 153Q159 153 151 136Q145 123 132 52T120 -37Q120 -59 138 -59Q153 -59 161 -42Q167 -29 179 41T192 131Q192 153 175 153Z" horiz-adv-x="365" unicode="₀"/>
			<glyph d="M151 250H265Q276 250 274 240L206 -146Q204 -156 194 -156H75Q65 -156 67 -146L113 114H111L39 77Q35 75 32 77T30 83L49 191Q50 201 61 206L128 244Q139 250 151 250Z" horiz-adv-x="365" unicode="₁"/>
			<glyph d="M198 257Q256 257 290 228T324 151Q324 121 310 88T245 17L163 -44V-45H282Q292 -45 290 -55L274 -146Q272 -156 262 -156H-25Q-34 -156 -32 -146L-17 -63Q-14 -49 -4 -42L162 86Q190 107 190 133Q190 153 170 153Q144 153 136 118Q135 107 123 109L23 121Q14 122 16 132Q28 187 77 222T198 257Z" horiz-adv-x="365" unicode="₂"/>
			<glyph d="M193 257Q255 257 290 230T325 162Q325 132 308 105T262 63V61Q300 41 300 -7Q300 -77 248 -120T120 -163Q56 -163 19 -133T-17 -54Q-17 -45 -8 -43L96 -30Q105 -28 108 -37Q115 -59 133 -59Q147 -59 156 -47T165 -23Q165 -1 136 -1H127Q117 -1 119 9L133 91Q135 101 144 101H155Q167 101 177 109T188 133Q188 153 168 153Q147 153 138 131Q134 121 125 123L24 137Q15 139 18 148Q35 196 81 226T193 257Z" horiz-adv-x="365" unicode="₃"/>
			<glyph d="M142 250H265Q269 250 270 246T270 240L128 7V4H160Q166 4 167 10L175 55Q177 65 186 65H291Q300 65 298 55L291 10Q290 4 295 4H308Q317 4 315 -6L298 -97Q296 -107 287 -107H275Q270 -107 268 -113L263 -146Q261 -156 252 -156H146Q137 -156 139 -146L145 -113Q147 -107 140 -107H-24Q-34 -107 -32 -97L-15 1Q-14 10 -6 21L127 240Q133 250 142 250Z" horiz-adv-x="365" unicode="₄"/>
			<glyph d="M55 250H316Q327 250 325 240L310 153Q308 142 299 142H149Q143 142 142 137L135 97H136Q160 116 202 116Q250 116 276 92T303 22Q303 -31 283 -73Q262 -116 218 -139T120 -163Q58 -163 25 -137T-10 -64Q-10 -52 1 -50L100 -37Q110 -36 113 -43Q118 -59 134 -59Q151 -59 158 -44Q166 -28 166 -10Q166 12 147 12Q137 12 125 2Q119 -4 111 -4H11Q1 -4 3 6L44 240Q46 250 55 250Z" horiz-adv-x="365" unicode="₅"/>
			<glyph d="M164 250H290Q294 250 295 246T294 240L198 108V107H207Q253 107 281 78T309 6Q309 -68 253 -115T119 -163Q55 -163 17 -132T-21 -50Q-21 -21 -10 11T42 98L146 240Q154 250 164 250ZM149 7Q133 7 121 -5T110 -33Q110 -45 117 -53T137 -61Q153 -61 164 -48T175 -20Q175 -8 168 0T149 7Z" horiz-adv-x="365" unicode="₆"/>
			<glyph d="M47 250H337Q348 250 346 240L328 139L321 121L165 -146Q160 -156 150 -156H25Q14 -156 20 -144L188 140L189 142H146Q141 142 139 136L133 103Q131 93 121 93H19Q9 93 11 103L36 240Q38 250 47 250Z" horiz-adv-x="365" unicode="₇"/>
			<glyph d="M193 257Q256 257 291 226T327 151Q327 96 278 54V53Q307 26 307 -12Q307 -79 251 -121T119 -163Q57 -163 17 -134T-22 -56Q-22 12 37 53V54Q14 79 14 113Q14 173 67 215T193 257ZM175 155Q163 155 152 145T142 119Q142 110 148 104T164 98Q176 98 186 107T196 133Q196 142 190 148T175 155ZM149 6Q133 6 121 -5T110 -34Q110 -45 118 -53T137 -61Q152 -61 163 -49T175 -20Q175 -16 170 -5T149 6Z" horiz-adv-x="365" unicode="₈"/>
			</font>
</defs>
</svg>
