<?xml version="1.0" encoding="UTF-8"?>
<svg height="100%" width="100%" xmlns="http://www.w3.org/2000/svg">
	<defs>
		<font horiz-adv-x="510" id="web">
			<font-face alphabetic="0" ascent="938" descent="-259" font-family="" panose-1="2 11 3 3 2 2 3 12 2 3"/>
			<missing-glyph d="M10 680H460Q470 680 470 670V10Q470 0 460 0H10Q0 0 0 10V670Q0 680 10 680ZM45 643Q39 643 39 637V43Q39 37 45 37H425Q431 37 431 43V637Q431 643 425 643ZM230 562Q279 562 310 530T342 453Q342 404 304 359L267 311Q247 286 247 256V234Q247 224 237 224H215Q205 224 205 234V258Q205 298 227 325L264 373Q280 393 290 410T301 453Q301 484 280 503T229 523Q167 523 152 456Q150 447 140 448L119 452Q109 454 111 463Q119 507 151 534T230 562ZM210 172H241Q251 172 251 162V123Q251 113 241 113H210Q200 113 200 123V162Q200 172 210 172Z" horiz-adv-x="470"/>
			<glyph d="" horiz-adv-x="236" unicode=" "/>
			<glyph d="M190 680H227Q237 680 235 670L141 186Q139 176 130 176H109Q99 176 101 186L179 670Q181 680 190 680ZM81 85H126Q136 85 134 75L124 10Q121 0 112 0H67Q56 0 58 10L70 75Q72 85 81 85Z" horiz-adv-x="253" unicode="!"/>
			<glyph d="M277 680H300Q310 680 308 670L284 533Q282 523 273 523H250Q240 523 242 533L266 670Q268 680 277 680ZM162 680H185Q195 680 193 670L170 533Q168 523 159 523H136Q126 523 128 533L151 670Q153 680 162 680Z" horiz-adv-x="301" unicode="&quot;"/>
			<glyph d="M267 680H289Q300 680 297 670L237 476H382L442 670Q445 680 454 680H477Q487 680 484 670L424 476H508Q518 476 516 466L512 445Q510 435 501 435H412L359 262H446Q457 262 455 252L451 231Q449 221 439 221H346L282 10Q279 0 270 0H247Q237 0 240 10L304 221H159L94 10Q91 0 82 0H59Q49 0 52 10L117 221H37Q26 221 28 231L32 252Q34 262 44 262H129L182 435H99Q88 435 90 445L94 466Q96 476 106 476H195L255 670Q258 680 267 680ZM225 435L171 262H317L370 435Z" horiz-adv-x="496" unicode="#"/>
			<glyph d="M344 751H361Q371 751 368 741L359 689Q433 683 489 643Q495 637 490 629L472 606Q466 598 458 604Q402 637 350 640L302 367Q448 346 448 219Q448 123 390 61T237 -9L228 -61Q226 -71 216 -71H200Q190 -71 192 -61L201 -10Q165 -9 116 5T32 51Q26 57 33 64L54 88Q61 95 68 89Q130 42 209 39L259 321Q188 333 153 372T118 472Q118 564 176 624T324 690L333 741Q335 751 344 751ZM315 640Q251 635 210 589T169 478Q169 391 268 372ZM293 315L245 40Q313 47 355 95T397 210Q397 296 293 315Z" unicode="$"/>
			<glyph d="M631 690H656Q667 690 660 680L163 0Q154 -10 147 -10H122Q111 -10 118 0L616 680Q623 690 631 690ZM274 688Q316 688 342 663T368 595Q368 565 355 497T329 404Q293 330 216 330Q175 330 149 355T123 423Q123 454 135 521T161 614Q197 688 274 688ZM270 650Q224 650 200 604Q187 580 175 518T163 426Q163 400 178 384T220 368Q267 368 291 414Q303 438 315 500T327 592Q327 619 312 634T270 650ZM563 350Q604 350 630 325T656 257Q656 226 643 158T618 65Q582 -8 505 -8Q463 -8 437 16T411 84Q411 114 424 182T450 276Q486 350 563 350ZM558 311Q511 311 488 266Q476 242 464 179T452 88Q452 61 467 45T509 30Q555 30 579 75Q591 99 603 162T615 254Q615 280 600 295T558 311Z" horiz-adv-x="739" unicode="%"/>
			<glyph d="M327 690Q379 690 411 658T443 578Q443 530 409 482T286 369L396 169L484 264Q491 271 498 266L516 247Q522 241 514 233L418 129L449 73Q463 49 487 49H503Q513 49 511 39L507 10Q506 0 496 0H480Q461 0 444 6T413 39L383 92Q330 39 283 14T186 -10Q123 -10 85 29T48 130Q48 189 84 247T224 381V382Q191 442 178 474T165 534Q165 599 211 644T327 690ZM319 644Q274 644 244 613T214 539Q214 523 221 499T264 410Q331 458 363 495T395 571Q395 605 374 624T319 644ZM246 341Q171 286 134 237T97 137Q97 92 123 65T194 38Q223 38 261 54T361 133Z" horiz-adv-x="591" unicode="&amp;"/>
			<glyph d="M162 680H185Q195 680 193 670L170 533Q168 523 159 523H136Q126 523 128 533L151 670Q153 680 162 680Z" horiz-adv-x="186" unicode="'"/>
			<glyph d="M292 740H311Q315 740 317 737T316 730Q137 456 137 177Q137 43 174 -74Q177 -84 166 -84H148Q138 -84 135 -74Q88 51 88 190Q88 466 276 730Q283 740 292 740Z" horiz-adv-x="276" unicode="("/>
			<glyph d="M145 740H164Q173 740 176 730Q223 609 223 466Q223 188 35 -74Q28 -84 20 -84H0Q-11 -84 -4 -74Q174 199 174 479Q174 616 138 730Q135 740 145 740Z" horiz-adv-x="276" unicode=")"/>
			<glyph d="M240 680H255Q265 680 263 670L245 572L335 622Q345 628 349 619L354 604Q357 596 347 590L257 541L330 493Q338 488 332 479L323 466Q317 458 309 464L235 513L218 414Q216 404 206 404H191Q181 404 183 414L200 511L111 462Q100 456 97 465L92 480Q89 489 99 493L191 543L118 592Q110 597 116 605L125 618Q130 626 138 620L211 572L228 670Q230 680 240 680Z" horiz-adv-x="339" unicode="*"/>
			<glyph d="M251 477H279Q289 477 289 467V306Q289 300 295 300H453Q463 300 463 290V263Q463 253 453 253H295Q289 253 289 247V86Q289 76 279 76H251Q241 76 241 86V247Q241 253 235 253H77Q67 253 67 263V290Q67 300 77 300H235Q241 300 241 306V467Q241 477 251 477Z" unicode="+"/>
			<glyph d="M63 85H103Q113 85 111 75L99 2Q97 -10 91 -20L42 -97Q37 -105 31 -105Q21 -105 23 -95L52 75Q54 85 63 85Z" horiz-adv-x="209" unicode=","/>
			<glyph d="M69 290H313Q323 290 321 280L317 252Q316 243 305 243H61Q51 243 53 253L58 281Q60 290 69 290Z" horiz-adv-x="356" unicode="-"/>
			<glyph d="M58 85H103Q113 85 111 75L101 10Q99 0 90 0H44Q34 0 36 10L47 75Q49 85 58 85Z" horiz-adv-x="209" unicode="."/>
			<glyph d="M372 690H400Q410 690 405 680L72 0Q68 -10 58 -10H30Q20 -10 25 0L358 680Q362 690 372 690Z" horiz-adv-x="387" unicode="/"/>
			<glyph d="M336 690Q406 690 446 651T486 544Q486 482 456 320T403 110Q346 -10 216 -10Q146 -10 106 29T66 136Q66 198 96 359T149 570Q206 690 336 690ZM330 642Q239 642 197 556Q175 512 146 355T117 143Q117 95 144 66T222 38Q313 38 355 124Q377 168 405 324T434 537Q434 585 407 613T330 642Z" unicode="0"/>
			<glyph d="M335 680H364Q375 680 373 670L257 10Q255 0 246 0H215Q204 0 206 10L313 612H311L177 523Q173 520 169 522T167 530L173 570Q174 578 182 583L320 674Q329 680 335 680Z" unicode="1"/>
			<glyph d="M328 690Q396 690 437 649T479 544Q479 505 461 459T381 344L112 50V48H383Q394 48 392 38L387 10Q385 0 375 0H46Q38 0 38 9L42 34Q42 41 49 48L346 377Q428 465 428 537Q428 584 399 613T323 642Q272 642 233 609T176 523Q173 513 164 515L135 521Q127 523 130 533Q150 600 202 645T328 690Z" unicode="2"/>
			<glyph d="M327 690Q396 690 435 650T474 546Q474 483 441 433T354 358V356Q387 342 408 307T429 224Q429 123 368 56T210 -10Q134 -10 94 30T49 129Q47 139 57 142L87 150Q96 152 97 143Q112 38 215 38Q284 38 330 89T377 215Q377 266 346 298T264 331H234Q225 331 227 341L231 370Q234 379 242 379H271Q335 379 379 425T423 537Q423 584 395 613T318 642Q279 642 239 619T177 542Q174 532 165 534L137 542Q128 544 131 554Q149 608 200 649T327 690Z" unicode="3"/>
			<glyph d="M358 680H392Q402 680 397 671L102 187V186H303Q309 186 310 192L343 380Q345 390 354 390H386Q396 390 394 380L361 192Q360 186 366 186H438Q448 186 446 176L441 147Q440 138 430 138H357Q352 138 350 132L329 10Q327 0 318 0H286Q276 0 278 10L301 132Q303 138 296 138H45Q36 138 37 147L42 174L46 186L344 672Q349 680 358 680Z" unicode="4"/>
			<glyph d="M187 680H493Q504 680 502 670L497 642Q495 632 485 632H223Q218 632 216 626L173 385H174Q192 410 227 428T306 446Q371 446 406 409T442 304Q442 262 429 199T398 97Q346 -10 221 -10Q149 -10 109 30T71 134Q71 143 79 145L109 152Q119 153 119 144Q120 96 147 67T227 38Q313 38 353 118Q365 141 378 193T391 292Q391 398 293 398Q249 398 213 373T162 314Q158 304 150 304H121Q112 304 113 314L176 670Q178 680 187 680Z" unicode="5"/>
			<glyph d="M360 680H395Q400 680 401 677T400 671L200 375L202 374Q232 398 290 398Q359 398 401 355T443 240Q443 139 379 64T216 -10Q142 -10 98 33T55 152Q55 244 126 347L347 673Q353 680 360 680ZM276 350Q203 350 154 292T106 158Q106 104 137 71T221 38Q294 38 343 95T392 230Q392 284 360 317T276 350Z" unicode="6"/>
			<glyph d="M174 680H503Q514 680 512 670L506 637L501 625L158 9Q153 0 143 0H110Q100 0 106 11L451 630V632H211Q206 632 204 626L187 531Q185 521 176 521H146Q137 521 139 531L163 670Q165 680 174 680Z" unicode="7"/>
			<glyph d="M337 690Q405 690 444 650T484 546Q484 486 452 434T366 359V357Q402 339 423 303T444 223Q444 126 379 58T216 -10Q143 -10 98 33T54 145Q54 214 91 272T193 359V361Q164 377 147 408T130 478Q130 563 187 626T337 690ZM330 642Q266 642 223 596T180 485Q180 440 208 411T284 382Q348 382 391 427T434 539Q434 584 405 613T330 642ZM275 334Q205 334 154 281T104 155Q104 103 136 70T223 38Q293 38 343 90T394 217Q394 268 361 301T275 334Z" unicode="8"/>
			<glyph d="M335 690Q408 690 452 646T496 528Q496 439 425 333L204 7Q198 0 190 0H155Q150 0 149 3T150 9L350 305L348 306Q318 282 261 282Q191 282 149 326T107 443Q107 502 134 562T216 656T335 690ZM330 642Q257 642 208 584T159 451Q159 397 190 363T274 330Q347 330 396 387T445 521Q445 575 414 608T330 642Z" unicode="9"/>
			<glyph d="M127 476H173Q183 476 181 466L171 402Q169 392 160 392H114Q104 392 106 402L116 466Q118 476 127 476ZM58 85H103Q113 85 111 75L101 10Q99 0 90 0H44Q34 0 36 10L47 75Q49 85 58 85Z" horiz-adv-x="209" unicode=":"/>
			<glyph d="M127 476H173Q183 476 181 466L171 402Q169 392 160 392H114Q104 392 106 402L116 466Q118 476 127 476ZM61 85H101Q111 85 109 75L97 2L89 -20L40 -97Q35 -105 28 -105Q19 -105 21 -95L50 75Q52 85 61 85Z" horiz-adv-x="209" unicode=";"/>
			<glyph d="M449 454Q459 457 459 448V415Q459 406 449 402L130 277V275L449 150Q459 146 459 137V104Q459 95 449 98L73 252Q63 256 63 264V288Q63 296 73 300Z" unicode="&lt;"/>
			<glyph d="M77 397H453Q463 397 463 387V359Q463 349 453 349H77Q67 349 67 359V387Q67 397 77 397ZM77 203H453Q463 203 463 193V165Q463 155 453 155H77Q67 155 67 165V193Q67 203 77 203Z" unicode="="/>
			<glyph d="M77 454L453 300Q463 296 463 288V264Q463 256 453 252L77 98Q67 95 67 104V137Q67 146 77 150L395 275V277L77 402Q67 406 67 415V448Q67 457 77 454Z" unicode="&gt;"/>
			<glyph d="M301 690Q365 690 402 653T440 555Q440 475 352 380L288 307Q270 287 258 270T240 219L232 183Q230 173 221 173H190Q180 173 182 183L190 223Q200 280 239 322L303 394Q338 431 363 467T389 548Q389 592 362 617T293 642Q246 642 208 611T152 528Q149 519 140 520L110 525Q101 526 105 537Q126 605 177 647T301 690ZM170 85H215Q225 85 223 75L213 10Q211 0 202 0H156Q146 0 148 10L159 75Q161 85 170 85Z" horiz-adv-x="428" unicode="?"/>
			<glyph d="M501 659Q646 659 736 572T827 343Q827 271 807 202T741 94T637 56Q599 56 572 78T538 136H537Q488 56 391 56Q338 57 304 91T271 186Q271 227 281 279T309 368Q357 467 460 467Q544 467 567 405H569L576 448Q578 458 587 458H613Q623 458 621 448L578 203Q569 153 589 126T644 99Q704 99 743 164T782 336Q782 468 703 542T493 617Q409 617 336 586T210 500T129 366T101 199Q101 69 179 -7T389 -83Q500 -83 598 -34Q607 -30 610 -38L618 -62Q621 -69 612 -74Q512 -127 382 -127Q236 -127 146 -39T56 195Q56 295 88 381T179 529T320 625T501 659ZM466 425Q385 425 350 351Q339 330 327 284T316 193Q316 150 337 125T401 99Q482 99 517 173Q532 202 542 249T552 331Q552 374 530 399T466 425Z" horiz-adv-x="879" unicode="@"/>
			<glyph d="M355 680H387Q395 680 397 670L507 10Q509 0 498 0H466Q456 0 455 10L427 180H142L53 10Q48 0 39 0H1Q-9 0 -4 10L342 670Q347 680 355 680ZM358 593L168 230H419L360 593Z" horiz-adv-x="575" unicode="A"/>
			<glyph d="M181 680H398Q477 680 519 642T562 537Q562 468 526 418T429 350V348Q463 338 489 305T516 220Q516 118 454 59T281 0H62Q52 0 54 10L170 670Q172 680 181 680ZM222 630Q217 630 215 624L172 377Q171 371 176 371H345Q420 371 464 415T508 526Q508 575 477 602T391 630ZM168 321Q163 321 161 315L115 56Q114 50 119 50H292Q372 50 418 95T464 212Q464 262 432 291T341 321Z" horiz-adv-x="583" unicode="B"/>
			<glyph d="M363 690Q424 690 471 655T537 559Q540 551 532 548L504 535Q495 530 491 539Q454 639 357 639Q243 639 185 523Q160 472 138 359T117 189Q117 119 153 80T257 41Q357 41 424 140Q429 147 436 144L464 128Q471 124 466 115Q388 -10 249 -10Q163 -10 113 40T64 183Q64 245 87 365T136 540Q169 608 222 649T363 690Z" horiz-adv-x="537" unicode="C"/>
			<glyph d="M181 680H386Q476 680 523 635T570 502Q570 433 546 310T495 131Q465 69 413 34T267 0H62Q52 0 54 10L170 670Q172 680 181 680ZM222 629Q216 629 215 623L115 57Q114 51 119 51H266Q399 51 450 156Q474 205 496 318T518 493Q518 554 486 591T369 629Z" horiz-adv-x="604" unicode="D"/>
			<glyph d="M181 680H554Q564 680 562 670L557 639Q556 629 545 629H222Q217 629 215 623L172 377Q171 370 177 370H454Q464 370 462 360L457 330Q456 320 445 320H168Q163 320 161 314L115 57Q114 51 120 51H443Q453 51 451 41L446 10Q445 0 434 0H62Q52 0 54 10L170 670Q172 680 181 680Z" horiz-adv-x="535" unicode="E"/>
			<glyph d="M181 680H554Q564 680 562 670L557 639Q556 629 545 629H222Q217 629 215 623L170 370Q170 363 176 363H453Q463 363 461 353L456 323Q455 313 444 313H167Q162 313 160 307L107 10Q105 0 96 0H62Q52 0 54 10L170 670Q172 680 181 680Z" horiz-adv-x="528" unicode="F"/>
			<glyph d="M375 690Q439 690 489 656T557 564Q559 555 551 552L522 539Q513 536 511 543Q475 639 366 639Q306 639 260 609T186 523Q161 472 139 359T118 189Q118 118 155 79T260 41Q383 41 440 156Q468 212 480 289Q482 295 475 295H326Q316 295 318 305L323 335Q325 344 333 344H533Q542 344 540 334L533 293Q518 199 490 140Q457 72 401 31T252 -10Q165 -10 115 40T65 183Q65 246 87 366T137 540Q170 608 225 649T375 690Z" horiz-adv-x="584" unicode="G"/>
			<glyph d="M181 680H215Q225 680 223 670L171 376Q170 370 176 370H501Q507 370 508 376L560 670Q562 680 571 680H605Q615 680 613 670L497 10Q495 0 486 0H452Q442 0 444 10L497 314Q499 320 493 320H168Q163 320 161 314L107 10Q105 0 96 0H62Q52 0 54 10L170 670Q172 680 181 680Z" horiz-adv-x="624" unicode="H"/>
			<glyph d="M181 680H215Q225 680 223 670L107 10Q105 0 96 0H62Q52 0 54 10L170 670Q172 680 181 680Z" horiz-adv-x="234" unicode="I"/>
			<glyph d="M407 680H441Q451 680 449 670L366 201Q348 102 297 46T145 -10Q107 -10 69 6T11 48Q9 50 9 54Q9 59 13 62L38 82Q46 88 53 81Q100 41 150 41Q285 41 314 203L396 670Q398 680 407 680Z" horiz-adv-x="459" unicode="J"/>
			<glyph d="M181 680H215Q225 680 223 670L155 282L534 671Q545 680 553 680H596Q600 680 601 676T599 669L343 410L494 11Q495 7 493 3T487 0H452Q443 0 440 9L305 369L140 201L107 10Q105 0 96 0H62Q52 0 54 10L170 670Q172 680 181 680Z" horiz-adv-x="574" unicode="K"/>
			<glyph d="M181 680H215Q225 680 223 670L115 57Q114 51 119 51H443Q453 51 451 41L446 10Q444 0 435 0H62Q52 0 54 10L170 670Q172 680 181 680Z" horiz-adv-x="507" unicode="L"/>
			<glyph d="M181 680H211Q220 680 223 670L351 176H354L656 670Q662 680 670 680H706Q716 680 714 670L598 10Q596 0 587 0H556Q546 0 548 10L644 550H641L370 112Q364 101 352 101H333Q321 101 318 112L203 552H200L104 10Q102 0 93 0H62Q52 0 54 10L170 670Q172 680 181 680Z" horiz-adv-x="725" unicode="M"/>
			<glyph d="M181 680H213Q222 680 226 670L460 103H462L564 670Q566 680 575 680H606Q616 680 614 670L498 10Q496 0 487 0H456Q446 0 442 10L207 578H205L104 10Q102 0 93 0H62Q52 0 54 10L170 670Q172 680 181 680Z" horiz-adv-x="625" unicode="N"/>
			<glyph d="M374 690Q461 690 510 639T560 497Q560 434 537 313T488 140Q416 -10 251 -10Q164 -10 114 40T65 183Q65 246 87 366T137 540Q209 690 374 690ZM366 639Q243 639 186 523Q161 472 139 359T118 189Q118 118 154 79T259 41Q382 41 439 157Q464 208 485 320T507 491Q507 562 470 600T366 639Z" horiz-adv-x="586" unicode="O"/>
			<glyph d="M181 680H399Q480 680 524 640T569 530Q569 420 503 358T332 296H164Q157 296 157 290L107 10Q105 0 96 0H62Q52 0 54 10L170 670Q172 680 181 680ZM222 629Q217 629 215 623L167 353Q166 347 172 347H336Q418 348 467 394T517 523Q517 573 484 601T389 629Z" horiz-adv-x="561" unicode="P"/>
			<glyph d="M374 690Q461 690 510 639T560 497Q560 434 537 313T488 140Q467 96 436 62L479 -14Q484 -22 474 -27L452 -43Q443 -48 439 -41L398 30Q339 -10 251 -10Q164 -10 114 40T65 183Q65 246 87 366T137 540Q209 690 374 690ZM366 639Q243 639 186 523Q161 472 139 359T118 189Q118 118 154 79T259 41Q326 41 372 75L318 170Q315 178 323 184L345 199Q353 206 359 197L409 109Q426 130 439 157Q464 208 485 320T507 491Q507 562 470 600T366 639Z" horiz-adv-x="587" unicode="Q"/>
			<glyph d="M181 680H399Q479 680 524 640T569 529Q569 444 522 386T396 312L485 11Q487 7 485 3T479 0H443Q435 0 432 9L345 306H334H166Q159 306 159 300L107 10Q105 0 96 0H62Q52 0 54 10L170 670Q172 680 181 680ZM222 629Q217 629 215 623L169 363Q168 357 174 357H341Q423 357 469 402T516 523Q516 574 483 601T390 629Z" horiz-adv-x="591" unicode="R"/>
			<glyph d="M360 690Q398 690 449 677T539 631Q546 625 540 617L523 594Q516 584 506 591Q437 639 352 639Q278 639 230 594T183 484Q183 437 212 409T316 371L345 367Q418 357 460 322T503 215Q503 112 432 51T240 -10Q181 -10 123 13T37 69Q32 75 38 82L61 108Q68 115 75 109Q155 41 253 41Q340 41 394 87T449 207Q449 254 421 280T318 317L289 321Q128 345 128 477Q128 571 192 630T360 690Z" horiz-adv-x="572" unicode="S"/>
			<glyph d="M112 680H553Q563 680 561 670L555 639Q553 629 544 629H355Q351 629 349 623L240 10Q238 0 229 0H196Q186 0 188 10L296 623Q298 629 292 629H103Q94 629 96 639L101 670Q103 680 112 680Z" horiz-adv-x="501" unicode="T"/>
			<glyph d="M175 680H209Q219 680 217 670L140 234Q124 139 160 90T280 41Q363 41 410 85T476 234L553 670Q555 680 564 680H597Q607 680 605 670L528 231Q506 103 445 46T276 -10Q169 -10 118 53T88 236L164 670Q166 680 175 680Z" horiz-adv-x="610" unicode="U"/>
			<glyph d="M114 680H145Q156 680 157 669L245 91H247L536 670Q541 680 552 680H585Q590 680 592 676T590 666L259 10Q253 0 246 0H216Q209 0 207 10L105 666Q102 680 114 680Z" horiz-adv-x="539" unicode="V"/>
			<glyph d="M122 680H153Q164 680 164 669L193 107H195L447 670Q451 680 461 680H486Q496 680 497 670L550 107H552L780 670Q784 680 794 680H828Q840 680 835 669L563 10Q559 0 550 0H522Q513 0 512 10L459 575H457L202 10Q198 0 188 0H161Q152 0 151 10L112 669Q112 680 122 680Z" horiz-adv-x="788" unicode="W"/>
			<glyph d="M141 680H180Q188 680 191 671L294 411H295L491 671Q497 680 505 680H546Q550 680 551 676T550 669L317 356L453 11Q455 7 453 3T447 0H409Q401 0 398 9L281 302H280L57 9Q51 0 45 0H1Q-3 0 -4 3T-3 11L258 357L135 669Q130 680 141 680Z" horiz-adv-x="523" unicode="X"/>
			<glyph d="M114 680H146Q157 680 159 670L266 343H269L493 670Q499 680 509 680H543Q548 680 550 676T549 669L285 279L237 10Q235 0 226 0H193Q183 0 185 10L232 279L106 669Q102 680 114 680Z" horiz-adv-x="496" unicode="Y"/>
			<glyph d="M155 680H539Q549 680 547 670L542 640L535 626L85 52V51H428Q438 51 436 41L431 10Q430 0 419 0H23Q13 0 15 10L20 42L28 56L476 628V629H147Q137 629 139 639L144 670Q146 680 155 680Z" horiz-adv-x="518" unicode="Z"/>
			<glyph d="M199 740H311Q321 740 319 730L315 705Q313 695 304 695H236Q231 695 229 689L101 -33Q100 -39 106 -39H174Q184 -39 182 -49L178 -74Q177 -84 166 -84H54Q44 -84 46 -74L188 730Q190 740 199 740Z" horiz-adv-x="272" unicode="["/>
			<glyph d="M151 690H178Q188 690 189 680L281 0Q283 -10 273 -10H246Q236 -10 235 0L143 680Q143 690 151 690Z" horiz-adv-x="387" unicode="\"/>
			<glyph d="M144 740H256Q266 740 264 730L122 -74Q120 -84 111 -84H-1Q-12 -84 -10 -74L-5 -49Q-3 -39 6 -39H74Q80 -39 81 -33L209 689Q211 695 204 695H136Q126 695 128 705L132 730Q133 740 144 740Z" horiz-adv-x="272" unicode="]"/>
			<glyph d="M255 680H275Q284 680 289 670L462 293Q464 289 461 286T455 283H428Q419 283 415 293L266 616H264L115 293Q111 283 101 283H75Q71 283 68 286T68 293L241 670Q246 680 255 680Z" unicode="^"/>
			<glyph d="M-52 -83H387L380 -122H-59Z" horiz-adv-x="441" unicode="_"/>
			<glyph d="M256 700H287Q296 700 300 690L353 568Q355 564 352 561T346 558H326Q318 558 311 568L249 690Q247 693 249 696T256 700Z" horiz-adv-x="406" unicode="`"/>
			<glyph d="M292 487Q379 487 411 451T429 330L372 10Q370 0 361 0H332Q322 0 324 10L333 60H332Q312 29 271 9T177 -10Q117 -10 81 22T46 107Q46 187 97 228T246 270H362Q369 270 370 276L379 328Q390 390 370 415T281 440Q207 440 159 402Q149 394 144 404L131 426Q127 433 134 439Q196 487 292 487ZM247 227Q96 227 96 113Q96 77 121 56T195 35Q253 35 296 66T347 147L360 221Q362 227 356 227Z" horiz-adv-x="492" unicode="a"/>
			<glyph d="M179 680H211Q221 680 219 670L173 409H174Q227 487 326 487Q393 487 428 446T464 332Q464 277 448 207T415 102Q362 -10 241 -10Q191 -10 159 12T114 71H113L102 10Q100 0 92 0H60Q50 0 52 10L168 670Q170 680 179 680ZM309 439Q217 439 171 346Q160 323 146 255T132 149Q132 99 160 68T238 38Q328 38 371 125Q389 161 401 221T413 324Q413 439 309 439Z" horiz-adv-x="509" unicode="b"/>
			<glyph d="M286 487Q391 487 424 395Q427 385 420 381L395 367Q385 361 382 371Q356 439 281 439Q241 439 203 414T144 347Q129 316 115 263T102 161Q102 38 208 38Q282 38 337 107Q344 116 352 109L372 91Q379 85 372 76Q305 -10 201 -10Q128 -10 89 32T51 152Q51 202 63 261T96 364Q125 422 174 454T286 487Z" horiz-adv-x="449" unicode="c"/>
			<glyph d="M459 680H490Q501 680 499 670L383 10Q381 0 372 0H340Q330 0 332 10L342 67H341Q287 -10 190 -10Q122 -10 86 31T51 145Q51 199 66 268T100 375Q155 487 274 487Q323 487 355 464T401 406H402L448 670Q450 680 459 680ZM277 439Q188 439 144 351Q126 316 114 256T102 153Q102 38 206 38Q298 38 344 130Q355 153 369 221T383 328Q383 378 355 408T277 439Z" horiz-adv-x="509" unicode="d"/>
			<glyph d="M286 487Q352 487 393 446T434 330Q434 292 424 237Q422 227 412 227H113Q108 227 106 221Q100 195 100 155Q100 99 129 68T213 38Q294 38 354 102Q361 109 368 104L385 85Q391 77 384 70Q351 34 305 12T206 -10Q131 -10 91 32T51 149Q51 203 62 262T95 364Q123 423 172 455T286 487ZM280 440Q235 440 198 416T141 350Q125 318 117 276Q116 270 121 270H373Q379 270 380 276Q386 303 386 327Q386 382 358 411T280 440Z" horiz-adv-x="476" unicode="e"/>
			<glyph d="M312 680H338Q348 680 346 670L342 642Q341 632 330 632H310Q272 632 248 620T212 542L201 483Q200 477 205 477H302Q313 477 311 467L307 443Q306 433 295 433H198Q194 433 192 427L117 10Q115 0 107 0H74Q65 0 67 10L141 427Q143 433 136 433H87Q78 433 80 443L84 467Q86 477 95 477H144Q150 477 151 483L161 537Q173 609 203 644T312 680Z" horiz-adv-x="295" unicode="f"/>
			<glyph d="M272 487Q320 487 351 464T394 406H395L405 467Q407 477 417 477H447Q457 477 455 467L375 11Q358 -83 310 -136T164 -190Q119 -190 81 -170T24 -117Q18 -108 27 -102L50 -84Q59 -79 64 -87Q103 -142 170 -142Q299 -142 325 10L336 73H335Q288 -3 189 -3Q123 -3 87 37T52 147Q52 195 65 262T100 373Q156 487 272 487ZM274 439Q189 439 146 352Q131 322 117 269T103 156Q103 105 129 75T206 45Q245 45 279 66T334 130Q350 161 363 226T376 328Q376 378 349 408T274 439Z" horiz-adv-x="501" unicode="g"/>
			<glyph d="M179 680H211Q221 680 219 670L173 412H174Q198 446 237 466T323 487Q399 487 433 439T452 305L398 10Q396 0 387 0H355Q346 0 348 10L399 292Q424 439 304 439Q254 439 209 401T154 304L102 10Q100 0 92 0H59Q50 0 52 10L168 670Q170 680 179 680Z" horiz-adv-x="519" unicode="h"/>
			<glyph d="M175 680H216Q226 680 224 670L214 617Q213 607 203 607H162Q152 607 154 617L164 670Q166 680 175 680ZM143 477H175Q185 477 183 467L102 10Q100 0 92 0H60Q50 0 52 10L132 467Q134 477 143 477Z" horiz-adv-x="228" unicode="i"/>
			<glyph d="M175 680H216Q226 680 224 670L214 617Q213 607 203 607H162Q152 607 154 617L164 670Q166 680 175 680ZM143 477H175Q185 477 183 467L91 -56Q80 -120 53 -150T-48 -180H-58Q-68 -180 -66 -170L-62 -142Q-61 -132 -50 -132H-42Q-13 -132 8 -121T40 -56L132 467Q134 477 143 477Z" horiz-adv-x="228" unicode="j"/>
			<glyph d="M179 680H211Q221 680 219 670L138 216L387 467Q397 477 405 477H446Q450 477 451 473T449 467L284 299L403 10Q404 6 401 3T395 0H363Q354 0 349 10L246 263L125 138L102 10Q100 0 91 0H59Q50 0 52 10L168 670Q170 680 179 680Z" horiz-adv-x="480" unicode="k"/>
			<glyph d="M181 680H213Q223 680 221 670L118 107Q114 81 118 63T156 45H172Q182 45 180 35L176 7Q175 -3 164 -3H142Q93 -3 75 23T68 106L171 670Q173 680 181 680Z" horiz-adv-x="250" unicode="l"/>
			<glyph d="M323 487Q430 487 449 398H450Q477 439 520 463T617 487Q695 487 729 439T748 305L695 10Q693 0 684 0H653Q643 0 645 10L696 292Q721 439 601 439Q550 439 506 401T451 304L399 10Q397 0 388 0H357Q347 0 349 10L398 292Q425 439 304 439Q253 439 209 401T155 304L102 10Q100 0 92 0H60Q50 0 52 10L133 467Q135 477 144 477H175Q185 477 183 467L173 412H174Q198 446 237 466T323 487Z" horiz-adv-x="815" unicode="m"/>
			<glyph d="M323 487Q399 487 433 439T452 305L398 10Q396 0 387 0H355Q346 0 348 10L399 292Q424 439 304 439Q254 439 209 401T154 304L102 10Q100 0 92 0H59Q50 0 52 10L132 467Q134 477 143 477H175Q185 477 183 467L173 412H174Q198 446 237 466T323 487Z" horiz-adv-x="519" unicode="n"/>
			<glyph d="M289 487Q363 487 402 444T442 326Q442 276 427 210T395 108Q339 -10 204 -10Q130 -10 90 33T51 151Q51 201 65 267T98 369Q154 487 289 487ZM281 439Q188 439 143 348Q129 320 115 260T102 161Q102 38 212 38Q305 38 350 129Q364 157 377 217T391 316Q391 439 281 439Z" horiz-adv-x="486" unicode="o"/>
			<glyph d="M326 487Q393 487 428 446T464 332Q464 277 448 207T415 102Q362 -10 241 -10Q191 -10 159 12T114 71H113L71 -170Q69 -180 60 -180H28Q18 -180 20 -170L132 467Q134 477 143 477H175Q185 477 183 467L173 409H174Q227 487 326 487ZM309 439Q217 439 171 346Q160 323 146 255T132 149Q132 99 160 68T238 38Q328 38 371 125Q389 161 401 221T413 324Q413 439 309 439Z" horiz-adv-x="509" unicode="p"/>
			<glyph d="M275 487Q325 487 357 465T401 407H402L413 467Q415 477 424 477H455Q466 477 464 467L351 -170Q349 -180 340 -180H308Q298 -180 300 -170L342 65H341Q287 -10 190 -10Q131 -10 91 26T51 145Q51 198 67 268T101 375Q156 487 275 487ZM278 439Q189 439 145 351Q127 315 114 255T102 153Q102 38 207 38Q298 38 345 130Q356 153 369 221T383 328Q383 378 356 408T278 439Z" horiz-adv-x="509" unicode="q"/>
			<glyph d="M309 487Q334 487 358 477T396 454Q401 447 396 441L375 416Q368 410 361 415Q327 439 291 439Q233 439 197 391T149 275L102 10Q100 0 92 0H60Q50 0 52 10L132 467Q134 477 143 477H175Q185 477 183 467L172 406H173Q192 443 228 465T309 487Z" horiz-adv-x="381" unicode="r"/>
			<glyph d="M279 487Q308 487 349 476T424 441Q430 436 425 428L406 407Q401 398 391 404Q334 440 273 440Q217 440 181 410T145 338Q145 308 166 291T236 270L282 265Q396 253 396 161Q396 83 342 36T197 -10Q155 -10 107 6T26 57Q20 63 27 70L50 92Q57 98 63 92Q124 37 202 37Q266 37 305 70T345 151Q345 173 330 192T259 218L213 223Q94 236 94 331Q94 400 145 443T279 487Z" horiz-adv-x="462" unicode="s"/>
			<glyph d="M185 630H217Q227 630 225 620L201 483Q200 477 205 477H291Q301 477 299 467L295 443Q294 433 284 433H198Q193 433 191 427L134 129Q127 92 134 68T194 45H211Q221 45 219 35L215 7Q214 -3 203 -3H179Q123 -3 96 22T83 125L140 427Q142 433 135 433H87Q77 433 79 443L83 467Q85 477 94 477H143Q150 477 151 483L174 620Q176 630 185 630Z" horiz-adv-x="295" unicode="t"/>
			<glyph d="M137 477H169Q178 477 176 467L125 184Q100 38 217 38Q267 38 311 76T365 173L417 467Q419 477 428 477H460Q470 477 468 467L387 10Q385 0 376 0H345Q335 0 337 10L347 65H346Q321 30 282 10T199 -10Q124 -10 90 37T73 171L126 467Q128 477 137 477Z" horiz-adv-x="513" unicode="u"/>
			<glyph d="M83 477H115Q125 477 126 467L196 80H198L404 467Q410 477 418 477H453Q464 477 459 467L212 10Q207 0 200 0H170Q163 0 161 10L75 467Q73 477 83 477Z" horiz-adv-x="449" unicode="v"/>
			<glyph d="M89 477H118Q129 477 130 467L179 80H180L368 467Q373 477 381 477H407Q416 477 418 467L472 80H473L657 467Q663 477 671 477H704Q715 477 710 467L487 10Q481 0 474 0H447Q437 0 437 10L385 398H384L193 10Q189 0 180 0H153Q143 0 143 10L80 467Q78 477 89 477Z" horiz-adv-x="706" unicode="w"/>
			<glyph d="M104 477H139Q147 477 151 469L233 294H234L380 469Q387 477 394 477H432Q436 477 437 474T436 467L256 248L369 10Q373 0 362 0H328Q320 0 316 8L223 206H222L57 8Q50 0 43 0H4Q-1 0 -2 3T0 10L200 250L97 467Q96 471 98 474T104 477Z" horiz-adv-x="442" unicode="x"/>
			<glyph d="M83 477H116Q126 477 127 467L198 80H199L406 467Q410 477 419 477H454Q465 477 460 467L182 -47Q144 -117 111 -148T27 -180H8Q-2 -180 0 -170L4 -142Q5 -132 16 -132H33Q56 -132 78 -118T137 -39L164 10L75 467Q73 477 83 477Z" horiz-adv-x="449" unicode="y"/>
			<glyph d="M122 477H429Q439 477 437 467L433 439L425 425L89 49V48H354Q364 48 362 38L357 10Q355 0 346 0H27Q17 0 19 10L23 37L30 50L367 428V429H114Q104 429 106 439L111 467Q113 477 122 477Z" horiz-adv-x="447" unicode="z"/>
			<glyph d="M312 740H343Q353 740 351 730L347 706Q346 696 336 696H313Q264 696 254 636L220 444Q212 402 199 372T151 330V328Q168 319 179 296T180 215L145 18Q141 -6 145 -23T181 -40H205Q215 -40 213 -50L209 -74Q208 -84 198 -84H168Q79 -84 98 19L133 222Q147 303 95 306Q86 308 87 316L92 345Q94 354 103 354Q130 356 146 374T171 439L207 639Q225 740 312 740Z" horiz-adv-x="304" unicode="{"/>
			<glyph d="M125 740H150Q160 740 160 730V-74Q160 -84 150 -84H125Q115 -84 115 -74V730Q115 740 125 740Z" horiz-adv-x="236" unicode="|"/>
			<glyph d="M144 740H174Q262 740 245 637L210 439Q196 359 248 354Q258 354 256 344L252 315Q251 306 240 306Q214 305 197 286T172 222L135 17Q118 -84 30 -84H-1Q-11 -84 -9 -74L-5 -50Q-4 -40 6 -40H29Q78 -40 89 20L123 216Q131 258 144 287T192 331V332Q147 355 164 446L197 638Q201 662 196 679T161 696H137Q127 696 129 706L133 730Q134 740 144 740Z" horiz-adv-x="304" unicode="}"/>
			<glyph d="M170 333Q217 333 267 294Q308 263 342 263Q391 263 423 319Q428 327 437 322L454 311Q462 306 457 297Q439 261 408 239T340 218Q294 218 243 257Q200 289 168 289Q147 289 128 278T86 232Q81 224 73 229L55 241Q48 245 52 255Q71 292 102 312T170 333Z" unicode="~"/>
			<glyph d="" horiz-adv-x="236" unicode=" "/>
			<glyph d="M134 301H155Q165 301 163 291L85 -193Q83 -203 74 -203H37Q27 -203 29 -193L123 291Q125 301 134 301ZM152 477H197Q208 477 206 467L194 402Q192 392 183 392H138Q128 392 130 402L140 467Q143 477 152 477Z" horiz-adv-x="253" unicode="¡"/>
			<glyph d="M325 578H338Q348 578 346 568L332 487Q428 481 459 395Q462 385 455 381L430 367Q420 361 417 371Q392 435 323 439L253 38Q321 44 371 107Q378 116 386 109L406 91Q413 85 406 76Q342 -5 244 -10L230 -92Q228 -102 219 -102H206Q196 -102 198 -92L212 -9Q156 -4 118 33T81 150Q81 267 125 363Q152 418 197 450T299 486L314 568Q316 578 325 578ZM291 437Q256 432 224 408T174 347Q159 316 145 263T132 159Q132 50 221 39Z" unicode="¢"/>
			<glyph d="M364 690Q417 690 449 658T484 571Q484 561 476 559L447 551Q437 548 437 558Q435 597 413 619T358 642Q315 642 285 610T245 523L214 348Q213 342 218 342H350Q360 342 358 332L354 309Q352 299 342 299H211Q206 299 204 293L181 164Q168 84 128 50V48H390Q400 48 398 38L394 10Q392 0 383 0H69Q59 0 61 10L65 39L72 49Q96 71 109 94T130 158L154 293Q156 299 149 299H102Q92 299 94 309L98 332Q100 342 110 342H157Q163 342 164 348L194 517Q209 604 253 647T364 690Z" unicode="£"/>
			<glyph d="M487 540Q494 546 500 540L516 518Q522 512 514 505L439 439Q458 403 458 361Q458 269 399 204L449 141Q454 134 447 128L427 110Q420 103 414 110L363 173Q309 135 243 135Q178 135 137 174L63 109Q56 103 50 109L34 130Q29 137 36 144L110 209Q92 242 92 287Q92 380 152 445L104 507Q97 514 105 520L125 539Q133 546 138 539L188 476Q243 513 307 513Q370 513 412 474ZM303 469Q234 469 185 417T137 293Q137 243 167 211T247 179Q316 179 365 231T414 355Q414 405 383 437T303 469Z" unicode="¤"/>
			<glyph d="M149 680H182Q191 680 194 670L279 340H281L482 670Q489 680 499 680H530Q535 680 536 676T535 667L320 322V320H436Q446 320 444 310L441 288Q439 278 429 278H301Q296 278 294 272L283 209Q282 203 288 203H416Q426 203 424 193L420 171Q418 161 409 161H280Q276 161 274 155L248 10Q246 0 237 0H206Q196 0 198 10L224 155Q226 161 219 161H92Q82 161 84 171L88 193Q90 203 99 203H226Q232 203 233 209L244 272Q246 278 239 278H112Q102 278 104 288L108 310Q110 320 120 320H235V322L141 669Q137 680 149 680Z" unicode="¥"/>
			<glyph d="M125 740H150Q160 740 160 730V398Q160 388 150 388H125Q115 388 115 398V730Q115 740 125 740ZM125 272H150Q160 272 160 262V-74Q160 -84 150 -84H125Q115 -84 115 -74V262Q115 272 125 272Z" horiz-adv-x="236" unicode="¦"/>
			<glyph d="M339 692Q402 692 434 654T459 557Q458 548 449 547L420 541Q410 540 412 548Q418 592 397 619T331 647Q279 647 246 612T214 524Q214 488 239 465T321 428Q428 403 428 297Q428 227 393 168T293 89V88Q359 63 359 -11Q359 -90 308 -141T180 -192Q109 -192 77 -153T53 -46Q55 -35 62 -34L92 -28Q100 -27 100 -36Q85 -147 187 -147Q240 -147 275 -111T311 -19Q311 20 285 42T196 78Q89 101 89 208Q89 283 126 341T229 417V418Q199 432 182 458T165 516Q165 591 212 641T339 692ZM281 384Q217 384 177 335T138 217Q138 173 165 147T236 121Q300 121 339 169T379 288Q379 333 352 358T281 384Z" horiz-adv-x="505" unicode="§"/>
			<glyph d="M361 680H398Q408 680 406 670L397 617Q395 607 386 607H349Q339 607 341 617L350 670Q352 680 361 680ZM169 680H206Q216 680 214 670L205 617Q203 607 194 607H157Q147 607 149 617L158 670Q160 680 169 680Z" horiz-adv-x="404" unicode="¨"/>
			<glyph d="M437 690Q491 690 550 672T668 606T757 485T787 340Q787 286 769 227T703 109T582 20T437 -10Q383 -10 324 7T206 73T117 195T87 340Q87 394 104 453T170 571T292 660T437 690ZM437 650Q305 650 216 561T128 340Q128 207 216 118T437 30Q569 30 657 118T745 340Q745 473 657 561T437 650ZM444 536Q487 536 521 516T574 466Q579 458 570 453L555 439Q547 434 542 442Q506 496 444 496Q365 496 340 423Q332 398 332 340Q332 282 340 257Q365 184 444 184Q506 184 542 238Q547 246 555 241L570 227Q579 222 574 214Q555 183 521 163T444 144Q392 144 354 170T301 245Q290 280 290 340Q290 400 301 435Q316 483 354 509T444 536Z" horiz-adv-x="831" unicode="©"/>
			<glyph d="M244 687Q296 687 321 666T337 587L304 402Q302 392 294 392H272Q262 392 264 402L268 422H267Q236 386 172 386Q134 386 110 405T87 459Q87 509 123 535T219 562H286Q291 562 292 568L297 589Q302 620 288 634T234 649Q195 649 158 627Q147 620 144 628L138 646Q134 655 142 660Q183 687 244 687ZM216 527Q176 527 152 511T129 466Q129 447 145 435T187 423Q221 423 247 440T278 481L285 521Q287 527 280 527Z" horiz-adv-x="325" unicode="ª"/>
			<glyph d="M450 445T453 440L447 398Q444 388 437 379L307 265Q302 261 305 257L393 143Q400 135 397 124L392 87Q391 83 387 82T381 84L248 257Q243 265 250 271L444 444Q447 447 450 445ZM257 445T260 440L254 398Q251 388 244 379L114 265Q109 261 112 257L200 143Q206 135 205 124L199 87Q198 83 194 82T188 84L56 257Q50 265 58 271L251 444Q254 447 257 445Z" horiz-adv-x="490" unicode="«"/>
			<glyph d="M67 300H443Q453 300 453 290V129Q453 119 443 119H416Q406 119 406 129V247Q406 253 400 253H67Q57 253 57 263V290Q57 300 67 300Z" unicode="¬"/>
			<glyph d="M69 291H314Q324 291 322 281L316 250Q315 242 305 242H61Q51 242 53 252L58 282Q60 291 69 291Z" horiz-adv-x="358" unicode="­"/>
			<glyph d="M277 685Q358 685 413 629T469 493Q469 411 414 355T277 300Q195 300 139 355T84 493Q84 575 139 630T277 685ZM277 656Q207 656 160 609T114 493Q114 422 160 375T277 329Q346 329 392 375T439 493Q439 563 392 609T277 656ZM213 602H292Q323 602 341 584T360 539Q360 492 318 480L360 396Q366 386 354 386H337Q332 386 327 393L285 476H240L237 474V395Q237 386 228 386H213Q204 386 204 395V593Q204 602 213 602ZM240 573L237 571V508L240 506H291Q329 506 329 539Q329 573 291 573Z" horiz-adv-x="461" unicode="®"/>
			<glyph d="M163 664H397Q407 664 405 654L401 632Q400 622 390 622H156Q146 622 148 632L152 654Q153 664 163 664Z" horiz-adv-x="404" unicode="¯"/>
			<glyph d="M276 687Q337 687 377 646T418 544Q418 483 377 442T276 401Q215 401 174 442T133 544Q133 605 174 646T276 687ZM276 649Q231 649 201 619T172 544Q172 500 202 469T276 439Q320 439 350 469T380 544Q380 589 350 619T276 649Z" horiz-adv-x="450" unicode="°"/>
			<glyph d="M245 507H273Q283 507 283 497V337Q283 331 289 331H447Q457 331 457 321V293Q457 283 447 283H289Q283 283 283 277V117Q283 107 273 107H245Q235 107 235 117V277Q235 283 229 283H71Q61 283 61 293V321Q61 331 71 331H229Q235 331 235 337V497Q235 507 245 507ZM71 48H447Q457 48 457 38V10Q457 0 447 0H71Q61 0 61 10V38Q61 48 71 48Z" unicode="±"/>
			<glyph d="M269 843Q313 843 338 817T364 754Q364 693 303 632L141 471V470H309Q319 470 317 460L314 440Q312 430 302 430H87Q77 430 79 440L83 460L91 474L273 657Q322 706 322 747Q322 772 306 787T264 802Q206 802 180 741Q177 732 168 733L147 738Q139 740 142 750Q155 789 189 816T269 843Z" horiz-adv-x="317" unicode="²"/>
			<glyph d="M264 843Q308 843 334 818T360 756Q360 679 291 644V643Q309 634 322 613T335 565Q335 503 296 463T195 423Q150 423 122 446T90 506Q88 515 98 518L120 524Q128 526 131 517Q135 494 152 479T199 464Q238 464 265 491T292 558Q292 585 274 602T226 620H209Q200 620 202 630L205 651Q207 661 217 661H230Q265 661 291 686T317 748Q317 772 301 787T258 802Q202 802 178 754Q173 745 166 746L146 752Q138 753 141 763Q155 797 187 820T264 843Z" horiz-adv-x="317" unicode="³"/>
			<glyph d="M310 700H344Q348 700 349 697T348 690L242 568Q232 558 226 558H202Q192 558 199 568L291 690Q299 700 310 700Z" horiz-adv-x="404" unicode="´"/>
			<glyph d="M142 477H175Q184 477 182 468L135 207Q126 156 126 134Q126 38 224 38Q267 38 313 72T371 173L423 468Q425 477 434 477H467Q476 477 474 467L412 116Q407 91 407 71Q407 62 410 53T433 45Q443 45 441 35L437 8Q435 -3 425 -3H420Q397 -3 378 6T357 50L358 71H357Q306 -8 212 -10Q131 -10 109 46H108L70 -171Q68 -180 60 -180H27Q17 -180 19 -171L131 468Q133 477 142 477Z" horiz-adv-x="521" unicode="µ"/>
			<glyph d="M367 680H531Q541 680 539 670L391 -170Q389 -180 380 -180H352Q342 -180 344 -170L485 628Q487 634 480 634H385Q381 634 379 628L238 -170Q236 -180 227 -180H200Q190 -180 192 -170L269 268Q193 272 152 321T116 444Q121 545 191 612T367 680Z" horiz-adv-x="543" unicode="¶"/>
			<glyph d="M97 308H142Q152 308 150 298L140 233Q138 223 129 223H83Q73 223 75 233L86 298Q88 308 97 308Z" horiz-adv-x="209" unicode="·"/>
			<glyph d="M184 10H206Q217 10 212 0L143 -137Q138 -147 126 -147H99Q88 -147 93 -137L170 0Q176 10 184 10Z" horiz-adv-x="404" unicode="¸"/>
			<glyph d="M268 836H290Q301 836 299 826L231 440Q229 430 219 430H197Q187 430 189 440L249 781H247L173 735Q170 732 166 734T164 740L168 768Q169 776 178 782L252 830Q262 836 268 836Z" horiz-adv-x="317" unicode="¹"/>
			<glyph d="M247 687Q293 687 320 660T348 582Q348 520 322 463Q283 385 195 385Q148 385 121 412T94 490Q94 552 120 609Q159 687 247 687ZM242 647Q189 647 159 594Q150 576 144 546T138 497Q138 425 201 425Q253 425 283 478Q292 496 298 525T304 575Q304 647 242 647Z" horiz-adv-x="332" unicode="º"/>
			<glyph d="M310 445T316 444L449 270Q455 262 447 256L253 84Q250 81 246 82T244 88L251 130Q252 139 261 148L391 262Q395 266 393 270L304 385Q297 393 300 403L306 440Q307 444 310 445ZM117 445T123 444L256 270Q263 263 254 256L60 84Q57 81 53 82T51 88L58 130Q59 139 68 148L198 262Q202 266 200 270L111 385Q106 393 107 403L113 440Q114 444 117 445Z" horiz-adv-x="490" unicode="»"/>
			<glyph d="M657 690H682Q691 690 686 680L189 0Q180 -10 173 -10H148Q144 -10 142 -7T144 0L641 680Q648 690 657 690ZM262 680H284Q295 680 293 670L225 284Q223 274 213 274H191Q181 274 183 284L243 625H241L167 579Q164 576 160 578T158 584L162 612Q163 620 172 626L246 674ZM631 406H658Q662 406 663 402T662 396L484 118V117H600Q606 117 607 123L625 223Q627 233 636 233H658Q668 233 666 223L649 123Q648 117 654 117H689Q698 117 696 107L693 86Q692 77 683 77H646Q642 77 640 71L629 10Q627 0 617 0H595Q586 0 588 10L598 71Q600 77 593 77H438Q428 77 430 87L433 108L440 123L617 396Q623 406 631 406Z" horiz-adv-x="793" unicode="¼"/>
			<glyph d="M657 690H682Q691 690 686 680L189 0Q180 -10 173 -10H148Q144 -10 142 -7T144 0L641 680Q648 690 657 690ZM262 680H284Q295 680 293 670L225 284Q223 274 213 274H191Q181 274 183 284L243 625H241L167 579Q164 576 160 578T158 584L162 612Q163 620 172 626L246 674ZM662 413Q706 413 731 387T757 324Q757 263 696 202L534 41V40H702Q712 40 710 30L707 10Q705 0 695 0H480Q470 0 472 10L476 30L484 44L666 227Q715 276 715 317Q715 342 699 357T657 372Q599 372 573 311Q570 302 561 303L540 308Q532 310 535 320Q548 359 582 386T662 413Z" horiz-adv-x="823" unicode="½"/>
			<glyph d="M721 690H746Q755 690 750 680L253 0Q244 -10 237 -10H212Q208 -10 206 -7T208 0L705 680Q712 690 721 690ZM694 406H721Q725 406 726 402T725 396L547 118V117H663Q669 117 670 123L688 223Q690 233 699 233H721Q731 233 729 223L712 123Q711 117 717 117H752Q761 117 759 107L756 86Q755 77 746 77H709Q705 77 703 71L692 10Q690 0 680 0H658Q649 0 651 10L661 71Q663 77 656 77H501Q491 77 493 87L496 108L503 123L680 396Q686 406 694 406ZM291 687Q335 687 361 662T387 600Q387 523 318 488V487Q336 478 349 457T362 409Q362 347 323 307T222 267Q177 267 149 290T117 350Q115 359 125 362L147 368Q155 370 158 361Q162 338 179 323T226 308Q265 308 292 335T319 402Q319 429 301 446T253 464H236Q227 464 229 474L232 495Q234 505 244 505H257Q292 505 318 530T344 592Q344 616 328 631T285 646Q229 646 205 598Q200 589 193 590L173 596Q165 597 168 607Q182 641 214 664T291 687Z" horiz-adv-x="856" unicode="¾"/>
			<glyph d="M227 304H258Q268 304 266 294L258 254Q248 197 209 155L145 83Q110 46 84 9T59 -71Q59 -115 85 -140T155 -165Q202 -165 239 -134T296 -51Q299 -42 308 -43L338 -48Q347 -49 343 -60Q322 -128 270 -170T147 -213Q83 -213 45 -176T8 -78Q8 2 96 97L160 170Q178 190 189 206T208 258L216 294Q218 304 227 304ZM246 477H292Q302 477 300 467L289 402Q287 392 278 392H233Q223 392 225 402L235 467Q237 477 246 477Z" horiz-adv-x="428" unicode="¿"/>
			<glyph d="M355 680H387Q395 680 397 670L507 10Q509 0 498 0H466Q456 0 455 10L427 180H142L53 10Q48 0 39 0H1Q-9 0 -4 10L342 670Q347 680 355 680ZM358 593L168 230H419L360 593ZM283 888H319Q326 888 333 878L393 774Q396 769 394 766T388 764H363Q357 764 350 774L278 878Q276 881 277 884T283 888Z" horiz-adv-x="575" unicode="À"/>
			<glyph d="M355 680H387Q395 680 397 670L507 10Q509 0 498 0H466Q456 0 455 10L427 180H142L53 10Q48 0 39 0H1Q-9 0 -4 10L342 670Q347 680 355 680ZM358 593L168 230H419L360 593ZM479 888H517Q522 888 522 884T520 878L413 774Q403 764 395 764H370Q366 764 365 767T368 775L462 878Q472 888 479 888Z" horiz-adv-x="575" unicode="Á"/>
			<glyph d="M355 680H387Q395 680 397 670L507 10Q509 0 498 0H466Q456 0 455 10L427 180H142L53 10Q48 0 39 0H1Q-9 0 -4 10L342 670Q347 680 355 680ZM358 593L168 230H419L360 593ZM399 896H419Q428 896 432 887L497 765Q499 761 498 758T493 755H474Q464 755 458 764L406 855H404L318 764Q310 755 300 755H277Q273 755 272 758T275 765L382 887Q390 896 399 896Z" horiz-adv-x="575" unicode="Â"/>
			<glyph d="M355 680H387Q395 680 397 670L507 10Q509 0 498 0H466Q456 0 455 10L427 180H142L53 10Q48 0 39 0H1Q-9 0 -4 10L342 670Q347 680 355 680ZM358 593L168 230H419L360 593ZM352 865Q380 865 406 844Q430 826 450 826Q478 826 512 859Q515 862 518 861T520 856L515 827Q514 818 505 811Q476 784 441 784Q412 784 387 804Q365 822 343 822Q314 822 282 789Q279 786 276 787T274 792L278 822Q279 829 288 837Q316 865 352 865Z" horiz-adv-x="575" unicode="Ã"/>
			<glyph d="M355 680H387Q395 680 397 670L507 10Q509 0 498 0H466Q456 0 455 10L427 180H142L53 10Q48 0 39 0H1Q-9 0 -4 10L342 670Q347 680 355 680ZM358 593L168 230H419L360 593ZM481 861H518Q528 861 526 851L517 797Q515 787 506 787H469Q459 787 461 797L470 851Q472 861 481 861ZM289 861H326Q336 861 334 851L325 797Q323 787 314 787H277Q267 787 269 797L278 851Q280 861 289 861Z" horiz-adv-x="575" unicode="Ä"/>
			<glyph d="M355 680H387Q395 680 397 670L507 10Q509 0 498 0H466Q456 0 455 10L427 180H142L53 10Q48 0 39 0H1Q-9 0 -4 10L342 670Q347 680 355 680ZM358 593L168 230H419L360 593ZM412 913Q443 913 463 892T483 842Q483 800 454 769T382 739Q351 739 331 759T312 810Q312 852 340 882T412 913ZM406 883Q381 883 362 863T343 815Q343 795 355 782T388 769Q413 769 432 789T451 837Q451 857 439 870T406 883Z" horiz-adv-x="575" unicode="Å"/>
			<glyph d="M521 680H928Q939 680 937 670L931 639Q930 629 919 629H596Q591 629 589 623L546 377Q545 370 551 370H828Q838 370 836 360L831 330Q830 320 819 320H542Q537 320 535 314L489 57Q488 51 494 51H817Q827 51 825 41L820 10Q819 0 809 0H436Q426 0 428 10L457 174Q459 180 452 180H190L59 10Q52 0 43 0H1Q-3 0 -4 3T-3 10L504 671Q512 680 521 680ZM534 627L228 230H460Q466 230 467 236L537 627Z" horiz-adv-x="909" unicode="Æ"/>
			<glyph d="M363 690Q425 690 471 656T538 559Q541 552 532 548L503 534Q493 531 491 539Q457 639 357 639Q243 639 185 523Q160 472 138 359T117 189Q117 119 153 80T257 41Q357 41 424 140Q429 147 436 144L464 128Q470 124 465 115Q390 -5 260 -10L196 -137Q191 -147 179 -147H152Q141 -147 146 -137L218 -8Q145 0 104 49T64 183Q64 245 87 365T136 540Q169 608 222 649T363 690Z" horiz-adv-x="537" unicode="Ç"/>
			<glyph d="M181 680H554Q564 680 562 670L557 639Q556 629 545 629H222Q217 629 215 623L172 377Q171 370 177 370H454Q464 370 462 360L457 330Q456 320 445 320H168Q163 320 161 314L115 57Q114 51 120 51H443Q453 51 451 41L446 10Q445 0 434 0H62Q52 0 54 10L170 670Q172 680 181 680ZM287 888H323Q330 888 337 878L397 774Q400 769 398 766T392 764H367Q361 764 354 774L282 878Q280 881 281 884T287 888Z" horiz-adv-x="535" unicode="È"/>
			<glyph d="M181 680H554Q564 680 562 670L557 639Q556 629 545 629H222Q217 629 215 623L172 377Q171 370 177 370H454Q464 370 462 360L457 330Q456 320 445 320H168Q163 320 161 314L115 57Q114 51 120 51H443Q453 51 451 41L446 10Q445 0 434 0H62Q52 0 54 10L170 670Q172 680 181 680ZM458 888H496Q501 888 501 884T499 878L392 774Q382 764 374 764H349Q345 764 344 767T347 775L441 878Q451 888 458 888Z" horiz-adv-x="535" unicode="É"/>
			<glyph d="M181 680H554Q564 680 562 670L557 639Q556 629 545 629H222Q217 629 215 623L172 377Q171 370 177 370H454Q464 370 462 360L457 330Q456 320 445 320H168Q163 320 161 314L115 57Q114 51 120 51H443Q453 51 451 41L446 10Q445 0 434 0H62Q52 0 54 10L170 670Q172 680 181 680ZM395 896H415Q424 896 428 887L493 765Q495 761 494 758T489 755H470Q460 755 454 764L402 855H400L314 764Q306 755 296 755H273Q269 755 268 758T271 765L378 887Q386 896 395 896Z" horiz-adv-x="535" unicode="Ê"/>
			<glyph d="M181 680H554Q564 680 562 670L557 639Q556 629 545 629H222Q217 629 215 623L172 377Q171 370 177 370H454Q464 370 462 360L457 330Q456 320 445 320H168Q163 320 161 314L115 57Q114 51 120 51H443Q453 51 451 41L446 10Q445 0 434 0H62Q52 0 54 10L170 670Q172 680 181 680ZM479 861H516Q526 861 524 851L515 797Q513 787 504 787H467Q457 787 459 797L468 851Q470 861 479 861ZM287 861H324Q334 861 332 851L323 797Q321 787 312 787H275Q265 787 267 797L276 851Q278 861 287 861Z" horiz-adv-x="535" unicode="Ë"/>
			<glyph d="M181 680H215Q225 680 223 670L107 10Q105 0 96 0H62Q52 0 54 10L170 670Q172 680 181 680ZM116 888H152Q159 888 166 878L226 774Q229 769 227 766T221 764H196Q190 764 183 774L111 878Q109 881 110 884T116 888Z" horiz-adv-x="234" unicode="Ì"/>
			<glyph d="M181 680H215Q225 680 223 670L107 10Q105 0 96 0H62Q52 0 54 10L170 670Q172 680 181 680ZM303 888H341Q346 888 346 884T344 878L237 774Q227 764 219 764H194Q190 764 189 767T192 775L286 878Q296 888 303 888Z" horiz-adv-x="234" unicode="Í"/>
			<glyph d="M181 680H215Q225 680 223 670L107 10Q105 0 96 0H62Q52 0 54 10L170 670Q172 680 181 680ZM228 896H248Q257 896 261 887L326 765Q328 761 327 758T322 755H303Q293 755 287 764L235 855H233L147 764Q139 755 129 755H106Q102 755 101 758T104 765L211 887Q219 896 228 896Z" horiz-adv-x="234" unicode="Î"/>
			<glyph d="M181 680H215Q225 680 223 670L107 10Q105 0 96 0H62Q52 0 54 10L170 670Q172 680 181 680ZM301 861H338Q348 861 346 851L337 797Q335 787 326 787H289Q279 787 281 797L290 851Q292 861 301 861ZM109 861H146Q156 861 154 851L145 797Q143 787 134 787H97Q87 787 89 797L98 851Q100 861 109 861Z" horiz-adv-x="234" unicode="Ï"/>
			<glyph d="M181 680H386Q476 680 523 635T570 502Q570 433 546 310T495 131Q465 69 413 34T267 0H62Q52 0 54 10L108 317Q110 323 104 323H65Q55 323 57 333L61 358Q62 368 73 368H111Q117 368 118 374L170 670Q172 680 181 680ZM222 629Q216 629 215 623L170 374Q169 368 175 368H301Q311 368 309 358L305 333Q304 323 293 323H168Q163 323 161 317L115 57Q114 51 119 51H266Q399 51 450 156Q474 205 496 318T518 493Q518 554 486 591T369 629Z" horiz-adv-x="604" unicode="Ð"/>
			<glyph d="M181 680H213Q222 680 226 670L460 103H462L564 670Q566 680 575 680H606Q616 680 614 670L498 10Q496 0 487 0H456Q446 0 442 10L207 578H205L104 10Q102 0 93 0H62Q52 0 54 10L170 670Q172 680 181 680ZM371 865Q399 865 425 844Q449 826 469 826Q497 826 531 859Q534 862 537 861T539 856L534 827Q533 818 524 811Q495 784 460 784Q431 784 406 804Q384 822 362 822Q333 822 301 789Q298 786 295 787T293 792L297 822Q298 829 307 837Q335 865 371 865Z" horiz-adv-x="625" unicode="Ñ"/>
			<glyph d="M374 690Q461 690 510 639T560 497Q560 434 537 313T488 140Q416 -10 251 -10Q164 -10 114 40T65 183Q65 246 87 366T137 540Q209 690 374 690ZM366 639Q243 639 186 523Q161 472 139 359T118 189Q118 118 154 79T259 41Q382 41 439 157Q464 208 485 320T507 491Q507 562 470 600T366 639ZM304 888H340Q347 888 354 878L414 774Q417 769 415 766T409 764H384Q378 764 371 774L299 878Q297 881 298 884T304 888Z" horiz-adv-x="586" unicode="Ò"/>
			<glyph d="M374 690Q461 690 510 639T560 497Q560 434 537 313T488 140Q416 -10 251 -10Q164 -10 114 40T65 183Q65 246 87 366T137 540Q209 690 374 690ZM366 639Q243 639 186 523Q161 472 139 359T118 189Q118 118 154 79T259 41Q382 41 439 157Q464 208 485 320T507 491Q507 562 470 600T366 639ZM477 888H515Q520 888 520 884T518 878L411 774Q401 764 393 764H368Q364 764 363 767T366 775L460 878Q470 888 477 888Z" horiz-adv-x="586" unicode="Ó"/>
			<glyph d="M374 690Q461 690 510 639T560 497Q560 434 537 313T488 140Q416 -10 251 -10Q164 -10 114 40T65 183Q65 246 87 366T137 540Q209 690 374 690ZM366 639Q243 639 186 523Q161 472 139 359T118 189Q118 118 154 79T259 41Q382 41 439 157Q464 208 485 320T507 491Q507 562 470 600T366 639ZM404 906H424Q433 906 437 897L502 775Q504 771 503 768T498 765H479Q469 765 463 774L411 865H409L323 774Q315 765 305 765H282Q278 765 277 768T280 775L387 897Q395 906 404 906Z" horiz-adv-x="586" unicode="Ô"/>
			<glyph d="M374 690Q461 690 510 639T560 497Q560 434 537 313T488 140Q416 -10 251 -10Q164 -10 114 40T65 183Q65 246 87 366T137 540Q209 690 374 690ZM366 639Q243 639 186 523Q161 472 139 359T118 189Q118 118 154 79T259 41Q382 41 439 157Q464 208 485 320T507 491Q507 562 470 600T366 639ZM355 865Q383 865 409 844Q433 826 453 826Q481 826 515 859Q518 862 521 861T523 856L518 827Q517 818 508 811Q479 784 444 784Q415 784 390 804Q368 822 346 822Q317 822 285 789Q282 786 279 787T277 792L281 822Q282 829 291 837Q319 865 355 865Z" horiz-adv-x="586" unicode="Õ"/>
			<glyph d="M374 690Q461 690 510 639T560 497Q560 434 537 313T488 140Q416 -10 251 -10Q164 -10 114 40T65 183Q65 246 87 366T137 540Q209 690 374 690ZM366 639Q243 639 186 523Q161 472 139 359T118 189Q118 118 154 79T259 41Q382 41 439 157Q464 208 485 320T507 491Q507 562 470 600T366 639ZM483 861H520Q530 861 528 851L519 797Q517 787 508 787H471Q461 787 463 797L472 851Q474 861 483 861ZM291 861H328Q338 861 336 851L327 797Q325 787 316 787H279Q269 787 271 797L280 851Q282 861 291 861Z" horiz-adv-x="586" unicode="Ö"/>
			<glyph d="M123 441Q130 448 137 441L265 314Q269 310 273 314L402 441Q409 448 416 441L433 421Q440 414 433 407L305 280Q301 276 305 272L433 145Q440 138 433 131L416 111Q409 104 402 111L273 238Q269 242 265 238L137 111Q130 104 123 111L105 131Q98 138 105 145L234 272Q238 276 234 280L105 407Q98 414 105 421Z" unicode="×"/>
			<glyph d="M569 710H591Q602 710 595 700L531 612Q560 566 560 497Q560 434 537 313T488 140Q416 -10 251 -10Q164 -10 116 38L74 -20Q67 -30 58 -30H36Q26 -30 33 -20L94 66Q65 112 65 183Q65 246 87 366T137 540Q209 690 374 690Q460 690 510 640L553 700Q560 710 569 710ZM366 640Q244 640 186 523Q161 473 139 360T118 189Q118 145 131 115L476 593Q438 640 366 640ZM495 562L149 84Q185 40 259 40Q381 40 439 157Q464 208 485 320T507 491Q507 532 495 562Z" horiz-adv-x="586" unicode="Ø"/>
			<glyph d="M175 680H209Q219 680 217 670L140 234Q124 139 160 90T280 41Q363 41 410 85T476 234L553 670Q555 680 564 680H597Q607 680 605 670L528 231Q506 103 445 46T276 -10Q169 -10 118 53T88 236L164 670Q166 680 175 680ZM307 888H343Q350 888 357 878L417 774Q420 769 418 766T412 764H387Q381 764 374 774L302 878Q300 881 301 884T307 888Z" horiz-adv-x="610" unicode="Ù"/>
			<glyph d="M175 680H209Q219 680 217 670L140 234Q124 139 160 90T280 41Q363 41 410 85T476 234L553 670Q555 680 564 680H597Q607 680 605 670L528 231Q506 103 445 46T276 -10Q169 -10 118 53T88 236L164 670Q166 680 175 680ZM469 888H507Q512 888 512 884T510 878L403 774Q393 764 385 764H360Q356 764 355 767T358 775L452 878Q462 888 469 888Z" horiz-adv-x="610" unicode="Ú"/>
			<glyph d="M175 680H209Q219 680 217 670L140 234Q124 139 160 90T280 41Q363 41 410 85T476 234L553 670Q555 680 564 680H597Q607 680 605 670L528 231Q506 103 445 46T276 -10Q169 -10 118 53T88 236L164 670Q166 680 175 680ZM420 896H440Q449 896 453 887L518 765Q520 761 519 758T514 755H495Q485 755 479 764L427 855H425L339 764Q331 755 321 755H298Q294 755 293 758T296 765L403 887Q411 896 420 896Z" horiz-adv-x="610" unicode="Û"/>
			<glyph d="M175 680H209Q219 680 217 670L140 234Q124 139 160 90T280 41Q363 41 410 85T476 234L553 670Q555 680 564 680H597Q607 680 605 670L528 231Q506 103 445 46T276 -10Q169 -10 118 53T88 236L164 670Q166 680 175 680ZM501 861H538Q548 861 546 851L537 797Q535 787 526 787H489Q479 787 481 797L490 851Q492 861 501 861ZM309 861H346Q356 861 354 851L345 797Q343 787 334 787H297Q287 787 289 797L298 851Q300 861 309 861Z" horiz-adv-x="610" unicode="Ü"/>
			<glyph d="M114 680H146Q157 680 159 670L266 343H269L493 670Q499 680 509 680H543Q548 680 550 676T549 669L285 279L237 10Q235 0 226 0H193Q183 0 185 10L232 279L106 669Q102 680 114 680ZM430 888H468Q473 888 473 884T471 878L364 774Q354 764 346 764H321Q317 764 316 767T319 775L413 878Q423 888 430 888Z" horiz-adv-x="496" unicode="Ý"/>
			<glyph d="M181 680H215Q225 680 223 670L201 544Q200 538 206 538H373Q455 538 499 498T544 389Q544 279 478 217T307 155H138Q133 155 131 149L107 10Q105 0 96 0H62Q52 0 54 10L170 670Q172 680 181 680ZM197 488Q192 488 190 482L142 212Q141 206 147 206H310Q393 206 442 252T492 381Q492 432 458 460T363 488Z" horiz-adv-x="561" unicode="Þ"/>
			<glyph d="M353 690Q417 690 460 663T503 575Q503 524 479 483T409 427V425Q465 402 465 331Q465 290 449 205T417 87Q399 50 362 22T245 -5H231Q221 -5 223 5L227 33Q229 43 239 43H252Q341 43 374 108Q386 132 400 211T414 320Q414 401 314 401H303Q293 401 295 411L300 440Q302 450 312 450H329Q387 450 419 481T452 567Q452 642 347 642Q285 642 244 612T188 497L102 10Q100 0 92 0H60Q50 0 52 10L138 497Q155 593 206 641T353 690Z" horiz-adv-x="527" unicode="ß"/>
			<glyph d="M292 487Q379 487 411 451T429 330L372 10Q370 0 361 0H332Q322 0 324 10L333 60H332Q312 29 271 9T177 -10Q117 -10 81 22T46 107Q46 187 97 228T246 270H362Q369 270 370 276L379 328Q390 390 370 415T281 440Q207 440 159 402Q149 394 144 404L131 426Q127 433 134 439Q196 487 292 487ZM247 227Q96 227 96 113Q96 77 121 56T195 35Q253 35 296 66T347 147L360 221Q362 227 356 227ZM232 700H263Q272 700 276 690L329 568Q331 564 328 561T322 558H302Q294 558 287 568L225 690Q223 693 225 696T232 700Z" horiz-adv-x="492" unicode="à"/>
			<glyph d="M292 487Q379 487 411 451T429 330L372 10Q370 0 361 0H332Q322 0 324 10L333 60H332Q312 29 271 9T177 -10Q117 -10 81 22T46 107Q46 187 97 228T246 270H362Q369 270 370 276L379 328Q390 390 370 415T281 440Q207 440 159 402Q149 394 144 404L131 426Q127 433 134 439Q196 487 292 487ZM247 227Q96 227 96 113Q96 77 121 56T195 35Q253 35 296 66T347 147L360 221Q362 227 356 227ZM399 700H433Q437 700 438 697T437 690L331 568Q321 558 315 558H291Q281 558 288 568L380 690Q388 700 399 700Z" horiz-adv-x="492" unicode="á"/>
			<glyph d="M292 487Q379 487 411 451T429 330L372 10Q370 0 361 0H332Q322 0 324 10L333 60H332Q312 29 271 9T177 -10Q117 -10 81 22T46 107Q46 187 97 228T246 270H362Q369 270 370 276L379 328Q390 390 370 415T281 440Q207 440 159 402Q149 394 144 404L131 426Q127 433 134 439Q196 487 292 487ZM247 227Q96 227 96 113Q96 77 121 56T195 35Q253 35 296 66T347 147L360 221Q362 227 356 227ZM331 700H351Q360 700 364 691L429 569Q431 565 430 562T425 559H405Q396 559 390 568L338 659H336L250 568Q241 559 231 559H209Q205 559 204 562T207 569L314 691Q322 700 331 700Z" horiz-adv-x="492" unicode="â"/>
			<glyph d="M292 487Q379 487 411 451T429 330L372 10Q370 0 361 0H332Q322 0 324 10L333 60H332Q312 29 271 9T177 -10Q117 -10 81 22T46 107Q46 187 97 228T246 270H362Q369 270 370 276L379 328Q390 390 370 415T281 440Q207 440 159 402Q149 394 144 404L131 426Q127 433 134 439Q196 487 292 487ZM247 227Q96 227 96 113Q96 77 121 56T195 35Q253 35 296 66T347 147L360 221Q362 227 356 227ZM285 679Q313 679 339 659Q362 641 383 641Q411 641 444 674Q447 677 450 675T452 671L448 641Q445 632 438 626Q408 598 374 598Q346 598 320 619Q295 637 276 637Q248 637 214 604Q211 601 208 602T206 607L211 636Q212 644 220 652Q250 679 285 679Z" horiz-adv-x="492" unicode="ã"/>
			<glyph d="M292 487Q379 487 411 451T429 330L372 10Q370 0 361 0H332Q322 0 324 10L333 60H332Q312 29 271 9T177 -10Q117 -10 81 22T46 107Q46 187 97 228T246 270H362Q369 270 370 276L379 328Q390 390 370 415T281 440Q207 440 159 402Q149 394 144 404L131 426Q127 433 134 439Q196 487 292 487ZM247 227Q96 227 96 113Q96 77 121 56T195 35Q253 35 296 66T347 147L360 221Q362 227 356 227ZM416 680H453Q463 680 461 670L452 617Q450 607 441 607H404Q394 607 396 617L405 670Q407 680 416 680ZM224 680H261Q271 680 269 670L260 617Q258 607 249 607H212Q202 607 204 617L213 670Q215 680 224 680Z" horiz-adv-x="492" unicode="ä"/>
			<glyph d="M292 487Q379 487 411 451T429 330L372 10Q370 0 361 0H332Q322 0 324 10L333 60H332Q312 29 271 9T177 -10Q117 -10 81 22T46 107Q46 187 97 228T246 270H362Q369 270 370 276L379 328Q390 390 370 415T281 440Q207 440 159 402Q149 394 144 404L131 426Q127 433 134 439Q196 487 292 487ZM247 227Q96 227 96 113Q96 77 121 56T195 35Q253 35 296 66T347 147L360 221Q362 227 356 227ZM344 716Q374 716 394 695T414 645Q414 603 385 572T313 542Q283 542 263 562T243 613Q243 655 272 685T344 716ZM338 686Q312 686 293 666T275 618Q275 598 287 585T319 572Q345 572 364 592T383 640Q383 660 370 673T338 686Z" horiz-adv-x="492" unicode="å"/>
			<glyph d="M292 487Q416 487 426 405H427Q486 487 588 487Q654 487 695 446T736 330Q736 292 726 237Q724 227 714 227H417Q411 227 409 221Q402 185 402 155Q402 99 431 68T515 38Q596 38 656 102Q663 109 670 104L687 85Q694 78 686 70Q653 34 607 12T508 -10Q393 -10 364 83H363Q308 -10 181 -10Q115 -10 80 22T46 107Q46 187 97 228T246 270H362Q369 270 370 276L379 328Q390 390 370 415T281 440Q207 440 159 402Q149 394 144 404L131 426Q127 433 134 439Q196 487 292 487ZM582 440Q537 440 499 416T440 348Q428 320 419 276Q418 270 423 270H675Q681 270 682 276Q688 303 688 327Q688 382 660 411T582 440ZM247 227Q96 227 96 113Q96 77 121 56T195 35Q253 35 296 66T347 147L360 221Q362 227 356 227Z" horiz-adv-x="778" unicode="æ"/>
			<glyph d="M286 487Q391 487 424 395Q427 385 420 381L395 367Q385 361 382 371Q356 439 281 439Q241 439 203 414T144 347Q129 316 115 263T102 161Q102 38 208 38Q282 38 337 107Q344 116 352 109L372 91Q379 85 372 76Q308 -6 212 -10L148 -137Q143 -147 131 -147H104Q93 -147 98 -137L170 -7Q113 1 82 42T51 152Q51 202 63 261T96 364Q125 422 174 454T286 487Z" horiz-adv-x="449" unicode="ç"/>
			<glyph d="M286 487Q352 487 393 446T434 330Q434 292 424 237Q422 227 412 227H113Q108 227 106 221Q100 195 100 155Q100 99 129 68T213 38Q294 38 354 102Q361 109 368 104L385 85Q391 77 384 70Q351 34 305 12T206 -10Q131 -10 91 32T51 149Q51 203 62 262T95 364Q123 423 172 455T286 487ZM280 440Q235 440 198 416T141 350Q125 318 117 276Q116 270 121 270H373Q379 270 380 276Q386 303 386 327Q386 382 358 411T280 440ZM213 700H244Q253 700 257 690L310 568Q312 564 309 561T303 558H283Q275 558 268 568L206 690Q204 693 206 696T213 700Z" horiz-adv-x="476" unicode="è"/>
			<glyph d="M286 487Q352 487 393 446T434 330Q434 292 424 237Q422 227 412 227H113Q108 227 106 221Q100 195 100 155Q100 99 129 68T213 38Q294 38 354 102Q361 109 368 104L385 85Q391 77 384 70Q351 34 305 12T206 -10Q131 -10 91 32T51 149Q51 203 62 262T95 364Q123 423 172 455T286 487ZM280 440Q235 440 198 416T141 350Q125 318 117 276Q116 270 121 270H373Q379 270 380 276Q386 303 386 327Q386 382 358 411T280 440ZM377 700H411Q415 700 416 697T415 690L309 568Q299 558 293 558H269Q259 558 266 568L358 690Q366 700 377 700Z" horiz-adv-x="476" unicode="é"/>
			<glyph d="M286 487Q352 487 393 446T434 330Q434 292 424 237Q422 227 412 227H113Q108 227 106 221Q100 195 100 155Q100 99 129 68T213 38Q294 38 354 102Q361 109 368 104L385 85Q391 77 384 70Q351 34 305 12T206 -10Q131 -10 91 32T51 149Q51 203 62 262T95 364Q123 423 172 455T286 487ZM280 440Q235 440 198 416T141 350Q125 318 117 276Q116 270 121 270H373Q379 270 380 276Q386 303 386 327Q386 382 358 411T280 440ZM310 700H330Q339 700 343 691L408 569Q410 565 409 562T404 559H384Q375 559 369 568L317 659H315L229 568Q220 559 210 559H188Q184 559 183 562T186 569L293 691Q301 700 310 700Z" horiz-adv-x="476" unicode="ê"/>
			<glyph d="M286 487Q352 487 393 446T434 330Q434 292 424 237Q422 227 412 227H113Q108 227 106 221Q100 195 100 155Q100 99 129 68T213 38Q294 38 354 102Q361 109 368 104L385 85Q391 77 384 70Q351 34 305 12T206 -10Q131 -10 91 32T51 149Q51 203 62 262T95 364Q123 423 172 455T286 487ZM280 440Q235 440 198 416T141 350Q125 318 117 276Q116 270 121 270H373Q379 270 380 276Q386 303 386 327Q386 382 358 411T280 440ZM396 680H433Q443 680 441 670L432 617Q430 607 421 607H384Q374 607 376 617L385 670Q387 680 396 680ZM204 680H241Q251 680 249 670L240 617Q238 607 229 607H192Q182 607 184 617L193 670Q195 680 204 680Z" horiz-adv-x="476" unicode="ë"/>
			<glyph d="M143 477H175Q185 477 183 467L102 10Q100 0 92 0H60Q50 0 52 10L132 467Q134 477 143 477ZM87 700H118Q127 700 131 690L184 568Q186 564 183 561T177 558H157Q149 558 142 568L80 690Q78 693 80 696T87 700Z" horiz-adv-x="228" unicode="ì"/>
			<glyph d="M143 477H175Q185 477 183 467L102 10Q100 0 92 0H60Q50 0 52 10L132 467Q134 477 143 477ZM262 700H296Q300 700 301 697T300 690L194 568Q184 558 178 558H154Q144 558 151 568L243 690Q251 700 262 700Z" horiz-adv-x="228" unicode="í"/>
			<glyph d="M143 477H175Q185 477 183 467L102 10Q100 0 92 0H60Q50 0 52 10L132 467Q134 477 143 477ZM188 700H208Q217 700 221 691L286 569Q288 565 287 562T282 559H262Q253 559 247 568L195 659H193L107 568Q98 559 88 559H66Q62 559 61 562T64 569L171 691Q179 700 188 700Z" horiz-adv-x="228" unicode="î"/>
			<glyph d="M143 477H175Q185 477 183 467L102 10Q100 0 92 0H60Q50 0 52 10L132 467Q134 477 143 477ZM270 680H307Q317 680 315 670L306 617Q304 607 295 607H258Q248 607 250 617L259 670Q261 680 270 680ZM78 680H115Q125 680 123 670L114 617Q112 607 103 607H66Q56 607 58 617L67 670Q69 680 78 680Z" horiz-adv-x="228" unicode="ï"/>
			<glyph d="M234 680H269Q279 680 285 670L321 608L418 637Q428 640 430 630L432 609Q434 599 423 596L342 572L370 526Q441 406 441 313Q441 277 430 218T396 108Q338 -10 205 -10Q139 -10 95 28T52 153Q52 190 63 249T97 358Q154 476 276 476Q326 476 356 452H357L295 558L197 529Q187 526 185 535L183 557Q183 566 192 569L274 593L229 670Q227 674 228 677T234 680ZM281 429Q188 429 142 338Q128 310 115 256T103 160Q103 38 213 38Q306 38 351 129Q365 157 377 211T390 307Q390 429 281 429Z" horiz-adv-x="486" unicode="ð"/>
			<glyph d="M323 487Q399 487 433 439T452 305L398 10Q396 0 387 0H355Q346 0 348 10L399 292Q424 439 304 439Q254 439 209 401T154 304L102 10Q100 0 92 0H59Q50 0 52 10L132 467Q134 477 143 477H175Q185 477 183 467L173 412H174Q198 446 237 466T323 487ZM279 679Q307 679 333 659Q356 641 377 641Q405 641 438 674Q441 677 444 675T446 671L442 641Q439 632 432 626Q402 598 368 598Q340 598 314 619Q289 637 270 637Q242 637 208 604Q205 601 202 602T200 607L205 636Q206 644 214 652Q244 679 279 679Z" horiz-adv-x="519" unicode="ñ"/>
			<glyph d="M289 487Q363 487 402 444T442 326Q442 276 427 210T395 108Q339 -10 204 -10Q130 -10 90 33T51 151Q51 201 65 267T98 369Q154 487 289 487ZM281 439Q188 439 143 348Q129 320 115 260T102 161Q102 38 212 38Q305 38 350 129Q364 157 377 217T391 316Q391 439 281 439ZM221 700H252Q261 700 265 690L318 568Q320 564 317 561T311 558H291Q283 558 276 568L214 690Q212 693 214 696T221 700Z" horiz-adv-x="486" unicode="ò"/>
			<glyph d="M289 487Q363 487 402 444T442 326Q442 276 427 210T395 108Q339 -10 204 -10Q130 -10 90 33T51 151Q51 201 65 267T98 369Q154 487 289 487ZM281 439Q188 439 143 348Q129 320 115 260T102 161Q102 38 212 38Q305 38 350 129Q364 157 377 217T391 316Q391 439 281 439ZM394 700H428Q432 700 433 697T432 690L326 568Q316 558 310 558H286Q276 558 283 568L375 690Q383 700 394 700Z" horiz-adv-x="486" unicode="ó"/>
			<glyph d="M289 487Q363 487 402 444T442 326Q442 276 427 210T395 108Q339 -10 204 -10Q130 -10 90 33T51 151Q51 201 65 267T98 369Q154 487 289 487ZM281 439Q188 439 143 348Q129 320 115 260T102 161Q102 38 212 38Q305 38 350 129Q364 157 377 217T391 316Q391 439 281 439ZM319 700H339Q348 700 352 691L417 569Q419 565 418 562T413 559H393Q384 559 378 568L326 659H324L238 568Q229 559 219 559H197Q193 559 192 562T195 569L302 691Q310 700 319 700Z" horiz-adv-x="486" unicode="ô"/>
			<glyph d="M289 487Q363 487 402 444T442 326Q442 276 427 210T395 108Q339 -10 204 -10Q130 -10 90 33T51 151Q51 201 65 267T98 369Q154 487 289 487ZM281 439Q188 439 143 348Q129 320 115 260T102 161Q102 38 212 38Q305 38 350 129Q364 157 377 217T391 316Q391 439 281 439ZM276 679Q304 679 330 659Q353 641 374 641Q402 641 435 674Q438 677 441 675T443 671L439 641Q436 632 429 626Q399 598 365 598Q337 598 311 619Q286 637 267 637Q239 637 205 604Q202 601 199 602T197 607L202 636Q203 644 211 652Q241 679 276 679Z" horiz-adv-x="486" unicode="õ"/>
			<glyph d="M289 487Q363 487 402 444T442 326Q442 276 427 210T395 108Q339 -10 204 -10Q130 -10 90 33T51 151Q51 201 65 267T98 369Q154 487 289 487ZM281 439Q188 439 143 348Q129 320 115 260T102 161Q102 38 212 38Q305 38 350 129Q364 157 377 217T391 316Q391 439 281 439ZM403 680H440Q450 680 448 670L439 617Q437 607 428 607H391Q381 607 383 617L392 670Q394 680 403 680ZM211 680H248Q258 680 256 670L247 617Q245 607 236 607H199Q189 607 191 617L200 670Q202 680 211 680Z" horiz-adv-x="486" unicode="ö"/>
			<glyph d="M261 463Q278 463 290 450T302 420Q302 402 290 389T261 377Q243 377 231 389T219 420Q219 438 231 450T261 463ZM73 300H449Q459 300 459 290V263Q459 253 449 253H73Q63 253 63 263V290Q63 300 73 300ZM261 174Q278 174 290 161T302 131Q302 113 290 100T261 88Q243 88 231 100T219 131Q219 149 231 161T261 174Z" unicode="÷"/>
			<glyph d="M456 506H471Q481 506 475 496L417 425Q442 384 442 326Q442 276 427 210T395 108Q339 -10 204 -10Q134 -10 93 29L53 -20Q46 -30 36 -30H21Q17 -30 16 -27T18 -20L75 51Q51 90 51 150Q51 201 65 266T98 369Q156 487 289 487Q360 487 399 448L439 496Q447 506 456 506ZM281 439Q188 439 142 347Q129 319 115 259T102 160Q102 122 112 96L365 407Q338 439 281 439ZM380 381L127 69Q154 37 212 37Q304 37 351 129Q365 156 378 216T391 316Q391 353 380 381Z" horiz-adv-x="486" unicode="ø"/>
			<glyph d="M137 477H169Q178 477 176 467L125 184Q100 38 217 38Q267 38 311 76T365 173L417 467Q419 477 428 477H460Q470 477 468 467L387 10Q385 0 376 0H345Q335 0 337 10L347 65H346Q321 30 282 10T199 -10Q124 -10 90 37T73 171L126 467Q128 477 137 477ZM236 700H267Q276 700 280 690L333 568Q335 564 332 561T326 558H306Q298 558 291 568L229 690Q227 693 229 696T236 700Z" horiz-adv-x="513" unicode="ù"/>
			<glyph d="M137 477H169Q178 477 176 467L125 184Q100 38 217 38Q267 38 311 76T365 173L417 467Q419 477 428 477H460Q470 477 468 467L387 10Q385 0 376 0H345Q335 0 337 10L347 65H346Q321 30 282 10T199 -10Q124 -10 90 37T73 171L126 467Q128 477 137 477ZM402 700H436Q440 700 441 697T440 690L334 568Q324 558 318 558H294Q284 558 291 568L383 690Q391 700 402 700Z" horiz-adv-x="513" unicode="ú"/>
			<glyph d="M137 477H169Q178 477 176 467L125 184Q100 38 217 38Q267 38 311 76T365 173L417 467Q419 477 428 477H460Q470 477 468 467L387 10Q385 0 376 0H345Q335 0 337 10L347 65H346Q321 30 282 10T199 -10Q124 -10 90 37T73 171L126 467Q128 477 137 477ZM324 700H344Q353 700 357 691L422 569Q424 565 423 562T418 559H398Q389 559 383 568L331 659H329L243 568Q234 559 224 559H202Q198 559 197 562T200 569L307 691Q315 700 324 700Z" horiz-adv-x="513" unicode="û"/>
			<glyph d="M137 477H169Q178 477 176 467L125 184Q100 38 217 38Q267 38 311 76T365 173L417 467Q419 477 428 477H460Q470 477 468 467L387 10Q385 0 376 0H345Q335 0 337 10L347 65H346Q321 30 282 10T199 -10Q124 -10 90 37T73 171L126 467Q128 477 137 477ZM408 680H445Q455 680 453 670L444 617Q442 607 433 607H396Q386 607 388 617L397 670Q399 680 408 680ZM216 680H253Q263 680 261 670L252 617Q250 607 241 607H204Q194 607 196 617L205 670Q207 680 216 680Z" horiz-adv-x="513" unicode="ü"/>
			<glyph d="M83 477H116Q126 477 127 467L198 80H199L406 467Q410 477 419 477H454Q465 477 460 467L182 -47Q144 -117 111 -148T27 -180H8Q-2 -180 0 -170L4 -142Q5 -132 16 -132H33Q56 -132 78 -118T137 -39L164 10L75 467Q73 477 83 477ZM367 700H401Q405 700 406 697T405 690L299 568Q289 558 283 558H259Q249 558 256 568L348 690Q356 700 367 700Z" horiz-adv-x="449" unicode="ý"/>
			<glyph d="M179 680H211Q221 680 219 670L173 409H174Q227 487 326 487Q393 487 428 446T464 332Q464 277 448 207T415 102Q362 -10 241 -10Q191 -10 159 12T114 71H113L71 -170Q69 -180 60 -180H28Q18 -180 20 -170L168 670Q170 680 179 680ZM309 439Q217 439 171 346Q160 323 146 255T132 149Q132 99 160 68T238 38Q328 38 371 125Q389 161 401 221T413 324Q413 439 309 439Z" horiz-adv-x="509" unicode="þ"/>
			<glyph d="M83 477H116Q126 477 127 467L198 80H199L406 467Q410 477 419 477H454Q465 477 460 467L182 -47Q144 -117 111 -148T27 -180H8Q-2 -180 0 -170L4 -142Q5 -132 16 -132H33Q56 -132 78 -118T137 -39L164 10L75 467Q73 477 83 477ZM382 680H419Q429 680 427 670L418 617Q416 607 407 607H370Q360 607 362 617L371 670Q373 680 382 680ZM190 680H227Q237 680 235 670L226 617Q224 607 215 607H178Q168 607 170 617L179 670Q181 680 190 680Z" horiz-adv-x="449" unicode="ÿ"/>
			<glyph d="M355 680H387Q395 680 397 670L507 10Q509 0 498 0H466Q456 0 455 10L427 180H142L53 10Q48 0 39 0H1Q-9 0 -4 10L342 670Q347 680 355 680ZM358 593L168 230H419L360 593ZM284 845H517Q527 845 525 835L522 812Q520 802 511 802H277Q267 802 269 812L273 835Q274 845 284 845Z" horiz-adv-x="575" unicode="Ā"/>
			<glyph d="M292 487Q379 487 411 451T429 330L372 10Q370 0 361 0H332Q322 0 324 10L333 60H332Q312 29 271 9T177 -10Q117 -10 81 22T46 107Q46 187 97 228T246 270H362Q369 270 370 276L379 328Q390 390 370 415T281 440Q207 440 159 402Q149 394 144 404L131 426Q127 433 134 439Q196 487 292 487ZM247 227Q96 227 96 113Q96 77 121 56T195 35Q253 35 296 66T347 147L360 221Q362 227 356 227ZM217 664H451Q461 664 459 654L455 632Q454 622 444 622H210Q200 622 202 632L206 654Q207 664 217 664Z" horiz-adv-x="492" unicode="ā"/>
			<glyph d="M355 680H387Q395 680 397 670L507 10Q509 0 498 0H466Q456 0 455 10L427 180H142L53 10Q48 0 39 0H1Q-9 0 -4 10L342 670Q347 680 355 680ZM358 593L168 230H419L360 593ZM298 881H314Q323 881 325 871Q330 809 395 809Q457 809 488 871Q493 881 501 881H518Q528 881 525 871Q510 824 473 796T389 769Q341 769 314 797T288 871Q288 881 298 881Z" horiz-adv-x="575" unicode="Ă"/>
			<glyph d="M292 487Q379 487 411 451T429 330L372 10Q370 0 361 0H332Q322 0 324 10L333 60H332Q312 29 271 9T177 -10Q117 -10 81 22T46 107Q46 187 97 228T246 270H362Q369 270 370 276L379 328Q390 390 370 415T281 440Q207 440 159 402Q149 394 144 404L131 426Q127 433 134 439Q196 487 292 487ZM247 227Q96 227 96 113Q96 77 121 56T195 35Q253 35 296 66T347 147L360 221Q362 227 356 227ZM227 684H243Q252 684 254 674Q259 612 324 612Q386 612 417 674Q422 684 430 684H447Q457 684 454 674Q439 627 402 599T318 572Q270 572 243 600T217 674Q217 684 227 684Z" horiz-adv-x="492" unicode="ă"/>
			<glyph d="M355 680H387Q395 680 397 670L507 10Q508 4 503 0Q461 -28 432 -54T404 -104Q404 -127 428 -127Q442 -127 458 -118Q465 -113 469 -120L475 -140Q477 -146 470 -153Q445 -170 415 -170Q390 -170 374 -155T359 -116Q359 -59 456 6L455 11L427 180H142L53 10Q48 0 39 0H1Q-9 0 -4 10L342 670Q347 680 355 680ZM358 593L168 230H419L360 593Z" horiz-adv-x="575" unicode="Ą"/>
			<glyph d="M292 487Q379 487 411 451T429 330L372 10Q371 3 365 0Q323 -28 294 -54T266 -104Q266 -127 290 -127Q304 -127 319 -118Q327 -113 331 -120L337 -140Q339 -146 331 -153Q306 -170 276 -170Q252 -170 236 -155T220 -116Q220 -60 324 9L333 60H332Q312 29 271 9T177 -10Q117 -10 81 22T46 107Q46 187 97 228T246 270H362Q369 270 370 276L379 328Q390 390 370 415T281 440Q207 440 159 402Q149 394 144 404L131 426Q127 433 134 439Q196 487 292 487ZM247 227Q96 227 96 113Q96 77 121 56T195 35Q253 35 296 66T347 147L360 221Q362 227 356 227Z" horiz-adv-x="492" unicode="ą"/>
			<glyph d="M363 690Q424 690 471 655T537 559Q540 551 532 548L504 535Q495 530 491 539Q454 639 357 639Q243 639 185 523Q160 472 138 359T117 189Q117 119 153 80T257 41Q357 41 424 140Q429 147 436 144L464 128Q471 124 466 115Q388 -10 249 -10Q163 -10 113 40T64 183Q64 245 87 365T136 540Q169 608 222 649T363 690ZM456 888H494Q499 888 499 884T497 878L390 774Q380 764 372 764H347Q343 764 342 767T345 775L439 878Q449 888 456 888Z" horiz-adv-x="537" unicode="Ć"/>
			<glyph d="M286 487Q391 487 424 395Q427 385 420 381L395 367Q385 361 382 371Q356 439 281 439Q241 439 203 414T144 347Q129 316 115 263T102 161Q102 38 208 38Q282 38 337 107Q344 116 352 109L372 91Q379 85 372 76Q305 -10 201 -10Q128 -10 89 32T51 152Q51 202 63 261T96 364Q125 422 174 454T286 487ZM386 700H420Q424 700 425 697T424 690L318 568Q308 558 302 558H278Q268 558 275 568L367 690Q375 700 386 700Z" horiz-adv-x="449" unicode="ć"/>
			<glyph d="M363 690Q424 690 471 655T537 559Q540 551 532 548L504 535Q495 530 491 539Q454 639 357 639Q243 639 185 523Q160 472 138 359T117 189Q117 119 153 80T257 41Q357 41 424 140Q429 147 436 144L464 128Q471 124 466 115Q388 -10 249 -10Q163 -10 113 40T64 183Q64 245 87 365T136 540Q169 608 222 649T363 690ZM390 896H410Q419 896 423 887L488 765Q490 761 489 758T484 755H465Q455 755 449 764L397 855H395L309 764Q301 755 291 755H268Q264 755 263 758T266 765L373 887Q381 896 390 896Z" horiz-adv-x="537" unicode="Ĉ"/>
			<glyph d="M286 487Q391 487 424 395Q427 385 420 381L395 367Q385 361 382 371Q356 439 281 439Q241 439 203 414T144 347Q129 316 115 263T102 161Q102 38 208 38Q282 38 337 107Q344 116 352 109L372 91Q379 85 372 76Q305 -10 201 -10Q128 -10 89 32T51 152Q51 202 63 261T96 364Q125 422 174 454T286 487ZM312 700H332Q341 700 345 691L410 569Q412 565 411 562T406 559H386Q377 559 371 568L319 659H317L231 568Q222 559 212 559H190Q186 559 185 562T188 569L295 691Q303 700 312 700Z" horiz-adv-x="449" unicode="ĉ"/>
			<glyph d="M363 690Q424 690 471 655T537 559Q540 551 532 548L504 535Q495 530 491 539Q454 639 357 639Q243 639 185 523Q160 472 138 359T117 189Q117 119 153 80T257 41Q357 41 424 140Q429 147 436 144L464 128Q471 124 466 115Q388 -10 249 -10Q163 -10 113 40T64 183Q64 245 87 365T136 540Q169 608 222 649T363 690ZM370 861H412Q422 861 420 851L411 797Q409 787 400 787H358Q348 787 350 797L359 851Q361 861 370 861Z" horiz-adv-x="537" unicode="Ċ"/>
			<glyph d="M286 487Q391 487 424 395Q427 385 420 381L395 367Q385 361 382 371Q356 439 281 439Q241 439 203 414T144 347Q129 316 115 263T102 161Q102 38 208 38Q282 38 337 107Q344 116 352 109L372 91Q379 85 372 76Q305 -10 201 -10Q128 -10 89 32T51 152Q51 202 63 261T96 364Q125 422 174 454T286 487ZM291 680H332Q342 680 340 670L331 617Q329 607 320 607H278Q268 607 270 617L280 670Q282 680 291 680Z" horiz-adv-x="449" unicode="ċ"/>
			<glyph d="M363 690Q424 690 471 655T537 559Q540 551 532 548L504 535Q495 530 491 539Q454 639 357 639Q243 639 185 523Q160 472 138 359T117 189Q117 119 153 80T257 41Q357 41 424 140Q429 147 436 144L464 128Q471 124 466 115Q388 -10 249 -10Q163 -10 113 40T64 183Q64 245 87 365T136 540Q169 608 222 649T363 690ZM292 895H311Q321 895 326 886L379 796H381L467 886Q475 895 485 895H507Q511 895 512 891T510 885L403 763Q395 754 386 754H366Q358 754 353 763L287 885Q285 888 286 891T292 895Z" horiz-adv-x="537" unicode="Č"/>
			<glyph d="M286 487Q391 487 424 395Q427 385 420 381L395 367Q385 361 382 371Q356 439 281 439Q241 439 203 414T144 347Q129 316 115 263T102 161Q102 38 208 38Q282 38 337 107Q344 116 352 109L372 91Q379 85 372 76Q305 -10 201 -10Q128 -10 89 32T51 152Q51 202 63 261T96 364Q125 422 174 454T286 487ZM212 700H232Q241 700 247 690L299 600H301L387 690Q396 700 406 700H428Q432 700 432 696T430 690L323 568Q315 559 306 559H286Q277 559 273 568L208 690Q206 694 207 697T212 700Z" horiz-adv-x="449" unicode="č"/>
			<glyph d="M181 680H386Q476 680 523 635T570 502Q570 433 546 310T495 131Q465 69 413 34T267 0H62Q52 0 54 10L170 670Q172 680 181 680ZM222 629Q216 629 215 623L115 57Q114 51 119 51H266Q399 51 450 156Q474 205 496 318T518 493Q518 554 486 591T369 629ZM294 895H313Q323 895 328 886L381 796H383L469 886Q477 895 487 895H509Q513 895 514 891T512 885L405 763Q397 754 388 754H368Q360 754 355 763L289 885Q287 888 288 891T294 895Z" horiz-adv-x="604" unicode="Ď"/>
			<glyph d="M459 680H490Q501 680 499 670L383 10Q381 0 372 0H340Q330 0 332 10L342 67H341Q287 -10 190 -10Q122 -10 86 31T51 145Q51 199 66 268T100 375Q155 487 274 487Q323 487 355 464T401 406H402L448 670Q450 680 459 680ZM277 439Q188 439 144 351Q126 316 114 256T102 153Q102 38 206 38Q298 38 344 130Q355 153 369 221T383 328Q383 378 355 408T277 439ZM569 679H604Q614 679 612 669L605 624Q603 615 596 602L556 546Q550 538 544 538Q534 538 536 548L557 669Q559 679 569 679Z" horiz-adv-x="509" unicode="ď"/>
			<glyph d="M181 680H386Q476 680 523 635T570 502Q570 433 546 310T495 131Q465 69 413 34T267 0H62Q52 0 54 10L108 317Q110 323 104 323H65Q55 323 57 333L61 358Q62 368 73 368H111Q117 368 118 374L170 670Q172 680 181 680ZM222 629Q216 629 215 623L170 374Q169 368 175 368H301Q311 368 309 358L305 333Q304 323 293 323H168Q163 323 161 317L115 57Q114 51 119 51H266Q399 51 450 156Q474 205 496 318T518 493Q518 554 486 591T369 629Z" horiz-adv-x="604" unicode="Đ"/>
			<glyph d="M458 680H490Q500 680 498 670L488 614Q487 608 493 608H522Q533 608 531 598L526 574Q525 565 514 565H486Q481 565 479 559L382 10Q380 0 371 0H340Q330 0 332 10L342 67H341Q287 -10 189 -10Q122 -10 86 31T50 145Q50 199 65 268T99 375Q154 487 274 487Q323 487 355 464T401 406H402L429 559Q431 565 424 565H298Q288 565 290 575L294 599Q296 608 306 608H431Q437 608 438 614L448 670Q450 680 458 680ZM277 439Q188 439 144 351Q126 316 114 256T102 153Q102 38 206 38Q298 38 344 130Q355 153 369 221T383 328Q383 378 355 408T277 439Z" horiz-adv-x="509" unicode="đ"/>
			<glyph d="M181 680H554Q564 680 562 670L557 639Q556 629 545 629H222Q217 629 215 623L172 377Q171 370 177 370H454Q464 370 462 360L457 330Q456 320 445 320H168Q163 320 161 314L115 57Q114 51 120 51H443Q453 51 451 41L446 10Q445 0 434 0H62Q52 0 54 10L170 670Q172 680 181 680ZM279 845H512Q522 845 520 835L517 812Q515 802 506 802H272Q262 802 264 812L268 835Q269 845 279 845Z" horiz-adv-x="535" unicode="Ē"/>
			<glyph d="M286 487Q352 487 393 446T434 330Q434 292 424 237Q422 227 412 227H113Q108 227 106 221Q100 195 100 155Q100 99 129 68T213 38Q294 38 354 102Q361 109 368 104L385 85Q391 77 384 70Q351 34 305 12T206 -10Q131 -10 91 32T51 149Q51 203 62 262T95 364Q123 423 172 455T286 487ZM280 440Q235 440 198 416T141 350Q125 318 117 276Q116 270 121 270H373Q379 270 380 276Q386 303 386 327Q386 382 358 411T280 440ZM198 664H432Q442 664 440 654L436 632Q435 622 425 622H191Q181 622 183 632L187 654Q188 664 198 664Z" horiz-adv-x="476" unicode="ē"/>
			<glyph d="M181 680H554Q564 680 562 670L557 639Q556 629 545 629H222Q217 629 215 623L172 377Q171 370 177 370H454Q464 370 462 360L457 330Q456 320 445 320H168Q163 320 161 314L115 57Q114 51 120 51H443Q453 51 451 41L446 10Q445 0 434 0H62Q52 0 54 10L170 670Q172 680 181 680ZM292 881H308Q317 881 319 871Q324 809 389 809Q451 809 482 871Q487 881 495 881H512Q522 881 519 871Q504 824 467 796T383 769Q335 769 308 797T282 871Q282 881 292 881Z" horiz-adv-x="535" unicode="Ĕ"/>
			<glyph d="M286 487Q352 487 393 446T434 330Q434 292 424 237Q422 227 412 227H113Q108 227 106 221Q100 195 100 155Q100 99 129 68T213 38Q294 38 354 102Q361 109 368 104L385 85Q391 77 384 70Q351 34 305 12T206 -10Q131 -10 91 32T51 149Q51 203 62 262T95 364Q123 423 172 455T286 487ZM280 440Q235 440 198 416T141 350Q125 318 117 276Q116 270 121 270H373Q379 270 380 276Q386 303 386 327Q386 382 358 411T280 440ZM209 684H225Q234 684 236 674Q241 612 306 612Q368 612 399 674Q404 684 412 684H429Q439 684 436 674Q421 627 384 599T300 572Q252 572 225 600T199 674Q199 684 209 684Z" horiz-adv-x="476" unicode="ĕ"/>
			<glyph d="M181 680H554Q564 680 562 670L557 639Q556 629 545 629H222Q217 629 215 623L172 377Q171 370 177 370H454Q464 370 462 360L457 330Q456 320 445 320H168Q163 320 161 314L115 57Q114 51 120 51H443Q453 51 451 41L446 10Q445 0 434 0H62Q52 0 54 10L170 670Q172 680 181 680ZM381 861H423Q433 861 431 851L422 797Q420 787 411 787H369Q359 787 361 797L370 851Q372 861 381 861Z" horiz-adv-x="535" unicode="Ė"/>
			<glyph d="M286 487Q352 487 393 446T434 330Q434 292 424 237Q422 227 412 227H113Q108 227 106 221Q100 195 100 155Q100 99 129 68T213 38Q294 38 354 102Q361 109 368 104L385 85Q391 77 384 70Q351 34 305 12T206 -10Q131 -10 91 32T51 149Q51 203 62 262T95 364Q123 423 172 455T286 487ZM280 440Q235 440 198 416T141 350Q125 318 117 276Q116 270 121 270H373Q379 270 380 276Q386 303 386 327Q386 382 358 411T280 440ZM298 680H339Q349 680 347 670L338 617Q336 607 327 607H285Q275 607 277 617L287 670Q289 680 298 680Z" horiz-adv-x="476" unicode="ė"/>
			<glyph d="M181 680H554Q564 680 562 670L557 639Q556 629 545 629H222Q217 629 215 623L172 377Q171 370 177 370H454Q464 370 462 360L457 330Q456 320 445 320H168Q163 320 161 314L115 57Q114 51 120 51H443Q453 51 451 41L446 10Q445 0 434 0H427Q385 -28 356 -54T328 -104Q328 -127 352 -127Q366 -127 382 -118Q389 -113 393 -120L399 -140Q401 -146 394 -153Q369 -170 339 -170Q314 -170 298 -155T283 -115Q283 -93 298 -67T372 0H62Q52 0 54 10L170 670Q172 680 181 680Z" horiz-adv-x="535" unicode="Ę"/>
			<glyph d="M286 487Q352 487 393 446T434 330Q434 292 424 237Q422 227 412 227H113Q108 227 106 221Q100 195 100 155Q100 99 129 68T213 38Q294 38 354 102Q361 109 368 104L385 85Q391 77 384 70Q360 44 338 30Q237 -62 237 -104Q237 -127 261 -127Q274 -127 290 -118Q298 -113 301 -120L308 -140Q310 -146 302 -153Q277 -170 247 -170Q222 -170 206 -155T191 -116Q191 -66 259 -3Q237 -10 206 -10Q131 -10 91 32T51 149Q51 203 62 262T95 364Q123 423 172 455T286 487ZM280 440Q235 440 198 416T141 350Q125 318 117 276Q116 270 121 270H373Q379 270 380 276Q386 303 386 327Q386 382 358 411T280 440Z" horiz-adv-x="476" unicode="ę"/>
			<glyph d="M181 680H554Q564 680 562 670L557 639Q556 629 545 629H222Q217 629 215 623L172 377Q171 370 177 370H454Q464 370 462 360L457 330Q456 320 445 320H168Q163 320 161 314L115 57Q114 51 120 51H443Q453 51 451 41L446 10Q445 0 434 0H62Q52 0 54 10L170 670Q172 680 181 680ZM299 895H318Q328 895 333 886L386 796H388L474 886Q482 895 492 895H514Q518 895 519 891T517 885L410 763Q402 754 393 754H373Q365 754 360 763L294 885Q292 888 293 891T299 895Z" horiz-adv-x="535" unicode="Ě"/>
			<glyph d="M286 487Q352 487 393 446T434 330Q434 292 424 237Q422 227 412 227H113Q108 227 106 221Q100 195 100 155Q100 99 129 68T213 38Q294 38 354 102Q361 109 368 104L385 85Q391 77 384 70Q351 34 305 12T206 -10Q131 -10 91 32T51 149Q51 203 62 262T95 364Q123 423 172 455T286 487ZM280 440Q235 440 198 416T141 350Q125 318 117 276Q116 270 121 270H373Q379 270 380 276Q386 303 386 327Q386 382 358 411T280 440ZM213 700H233Q242 700 248 690L300 600H302L388 690Q397 700 407 700H429Q433 700 433 696T431 690L324 568Q316 559 307 559H287Q278 559 274 568L209 690Q207 694 208 697T213 700Z" horiz-adv-x="476" unicode="ě"/>
			<glyph d="M375 690Q439 690 489 656T557 564Q559 555 551 552L522 539Q513 536 511 543Q475 639 366 639Q306 639 260 609T186 523Q161 472 139 359T118 189Q118 118 155 79T260 41Q383 41 440 156Q468 212 480 289Q482 295 475 295H326Q316 295 318 305L323 335Q325 344 333 344H533Q542 344 540 334L533 293Q518 199 490 140Q457 72 401 31T252 -10Q165 -10 115 40T65 183Q65 246 87 366T137 540Q170 608 225 649T375 690ZM404 896H424Q433 896 437 887L502 765Q504 761 503 758T498 755H479Q469 755 463 764L411 855H409L323 764Q315 755 305 755H282Q278 755 277 758T280 765L387 887Q395 896 404 896Z" horiz-adv-x="584" unicode="Ĝ"/>
			<glyph d="M272 487Q320 487 351 464T394 406H395L405 467Q407 477 417 477H447Q457 477 455 467L375 11Q358 -83 310 -136T164 -190Q119 -190 81 -170T24 -117Q18 -108 27 -102L50 -84Q59 -79 64 -87Q103 -142 170 -142Q299 -142 325 10L336 73H335Q288 -3 189 -3Q123 -3 87 37T52 147Q52 195 65 262T100 373Q156 487 272 487ZM274 439Q189 439 146 352Q131 322 117 269T103 156Q103 105 129 75T206 45Q245 45 279 66T334 130Q350 161 363 226T376 328Q376 378 349 408T274 439ZM326 700H346Q355 700 359 691L424 569Q426 565 425 562T420 559H400Q391 559 385 568L333 659H331L245 568Q236 559 226 559H204Q200 559 199 562T202 569L309 691Q317 700 326 700Z" horiz-adv-x="501" unicode="ĝ"/>
			<glyph d="M375 690Q439 690 489 656T557 564Q559 555 551 552L522 539Q513 536 511 543Q475 639 366 639Q306 639 260 609T186 523Q161 472 139 359T118 189Q118 118 155 79T260 41Q383 41 440 156Q468 212 480 289Q482 295 475 295H326Q316 295 318 305L323 335Q325 344 333 344H533Q542 344 540 334L533 293Q518 199 490 140Q457 72 401 31T252 -10Q165 -10 115 40T65 183Q65 246 87 366T137 540Q170 608 225 649T375 690ZM302 881H318Q327 881 329 871Q334 809 399 809Q461 809 492 871Q497 881 505 881H522Q532 881 529 871Q514 824 477 796T393 769Q345 769 318 797T292 871Q292 881 302 881Z" horiz-adv-x="584" unicode="Ğ"/>
			<glyph d="M272 487Q320 487 351 464T394 406H395L405 467Q407 477 417 477H447Q457 477 455 467L375 11Q358 -83 310 -136T164 -190Q119 -190 81 -170T24 -117Q18 -108 27 -102L50 -84Q59 -79 64 -87Q103 -142 170 -142Q299 -142 325 10L336 73H335Q288 -3 189 -3Q123 -3 87 37T52 147Q52 195 65 262T100 373Q156 487 272 487ZM274 439Q189 439 146 352Q131 322 117 269T103 156Q103 105 129 75T206 45Q245 45 279 66T334 130Q350 161 363 226T376 328Q376 378 349 408T274 439ZM223 684H239Q248 684 250 674Q255 612 320 612Q382 612 413 674Q418 684 426 684H443Q453 684 450 674Q435 627 398 599T314 572Q266 572 239 600T213 674Q213 684 223 684Z" horiz-adv-x="501" unicode="ğ"/>
			<glyph d="M375 690Q439 690 489 656T557 564Q559 555 551 552L522 539Q513 536 511 543Q475 639 366 639Q306 639 260 609T186 523Q161 472 139 359T118 189Q118 118 155 79T260 41Q383 41 440 156Q468 212 480 289Q482 295 475 295H326Q316 295 318 305L323 335Q325 344 333 344H533Q542 344 540 334L533 293Q518 199 490 140Q457 72 401 31T252 -10Q165 -10 115 40T65 183Q65 246 87 366T137 540Q170 608 225 649T375 690ZM386 861H428Q438 861 436 851L427 797Q425 787 416 787H374Q364 787 366 797L375 851Q377 861 386 861Z" horiz-adv-x="584" unicode="Ġ"/>
			<glyph d="M272 487Q320 487 351 464T394 406H395L405 467Q407 477 417 477H447Q457 477 455 467L375 11Q358 -83 310 -136T164 -190Q119 -190 81 -170T24 -117Q18 -108 27 -102L50 -84Q59 -79 64 -87Q103 -142 170 -142Q299 -142 325 10L336 73H335Q288 -3 189 -3Q123 -3 87 37T52 147Q52 195 65 262T100 373Q156 487 272 487ZM274 439Q189 439 146 352Q131 322 117 269T103 156Q103 105 129 75T206 45Q245 45 279 66T334 130Q350 161 363 226T376 328Q376 378 349 408T274 439ZM312 680H353Q363 680 361 670L352 617Q350 607 341 607H299Q289 607 291 617L301 670Q303 680 312 680Z" horiz-adv-x="501" unicode="ġ"/>
			<glyph d="M375 690Q439 690 489 656T557 564Q559 555 551 552L522 539Q513 536 511 543Q475 639 366 639Q306 639 260 609T186 523Q161 472 139 359T118 189Q118 118 155 79T260 41Q383 41 440 156Q468 212 480 289Q482 295 475 295H326Q316 295 318 305L323 335Q325 344 333 344H533Q542 344 540 334L533 293Q518 199 490 140Q457 72 401 31T252 -10Q165 -10 115 40T65 183Q65 246 87 366T137 540Q170 608 225 649T375 690ZM229 -55H264Q274 -55 272 -65L265 -110Q263 -119 256 -132L216 -188Q210 -196 204 -196Q194 -196 196 -186L217 -65Q219 -55 229 -55Z" horiz-adv-x="584" unicode="Ģ"/>
			<glyph d="M272 487Q320 487 351 464T394 406H395L405 467Q407 477 417 477H447Q457 477 455 467L375 11Q358 -83 310 -136T164 -190Q119 -190 81 -170T24 -117Q18 -108 27 -102L50 -84Q59 -79 64 -87Q103 -142 170 -142Q299 -142 325 10L336 73H335Q288 -3 189 -3Q123 -3 87 37T52 147Q52 195 65 262T100 373Q156 487 272 487ZM274 439Q189 439 146 352Q131 322 117 269T103 156Q103 105 129 75T206 45Q245 45 279 66T334 130Q350 161 363 226T376 328Q376 378 349 408T274 439ZM356 713Q365 713 363 704L342 583Q340 573 331 573H295Q285 573 287 583L295 628Q298 641 303 649L344 705Q349 713 356 713Z" horiz-adv-x="501" unicode="ģ"/>
			<glyph d="M181 680H215Q225 680 223 670L171 376Q170 370 176 370H501Q507 370 508 376L560 670Q562 680 571 680H605Q615 680 613 670L497 10Q495 0 486 0H452Q442 0 444 10L497 314Q499 320 493 320H168Q163 320 161 314L107 10Q105 0 96 0H62Q52 0 54 10L170 670Q172 680 181 680ZM418 896H438Q447 896 451 887L516 765Q518 761 517 758T512 755H493Q483 755 477 764L425 855H423L337 764Q329 755 319 755H296Q292 755 291 758T294 765L401 887Q409 896 418 896Z" horiz-adv-x="624" unicode="Ĥ"/>
			<glyph d="M179 680H211Q221 680 219 670L173 412H174Q198 446 237 466T323 487Q399 487 433 439T452 305L398 10Q396 0 387 0H355Q346 0 348 10L399 292Q424 439 304 439Q254 439 209 401T154 304L102 10Q100 0 92 0H59Q50 0 52 10L168 670Q170 680 179 680ZM373 896H393Q402 896 406 887L471 765Q473 761 472 758T467 755H448Q438 755 432 764L380 855H378L292 764Q284 755 274 755H251Q247 755 246 758T249 765L356 887Q364 896 373 896Z" horiz-adv-x="519" unicode="ĥ"/>
			<glyph d="M181 680H215Q225 680 223 670L201 550Q200 544 206 544H532Q538 544 539 550L560 670Q562 680 571 680H605Q615 680 613 670L592 550Q591 544 596 544H634Q643 544 641 534L638 510Q636 500 626 500H588Q584 500 582 494L497 10Q495 0 486 0H452Q442 0 444 10L497 314Q499 320 493 320H168Q163 320 161 314L107 10Q105 0 96 0H62Q52 0 54 10L139 494Q141 500 135 500H97Q87 500 89 510L93 534Q95 544 104 544H141Q147 544 148 550L170 670Q172 680 181 680ZM198 500Q194 500 192 494L171 376Q170 370 176 370H501Q507 370 508 376L529 494Q531 500 524 500Z" horiz-adv-x="624" unicode="Ħ"/>
			<glyph d="M179 680H211Q221 680 219 670L208 614Q207 608 213 608H339Q349 608 347 598L343 574Q342 565 331 565H206Q201 565 199 559L173 412H174Q198 446 237 466T323 487Q399 487 433 439T452 305L398 10Q396 0 387 0H355Q346 0 348 10L399 292Q424 439 304 439Q254 439 209 401T154 304L102 10Q100 0 92 0H59Q50 0 52 10L149 559Q151 565 144 565H115Q104 565 106 575L111 599Q113 608 123 608H151Q157 608 158 614L168 670Q170 680 179 680Z" horiz-adv-x="519" unicode="ħ"/>
			<glyph d="M181 680H215Q225 680 223 670L107 10Q105 0 96 0H62Q52 0 54 10L170 670Q172 680 181 680ZM186 865Q214 865 240 844Q264 826 284 826Q312 826 346 859Q349 862 352 861T354 856L349 827Q348 818 339 811Q310 784 275 784Q246 784 221 804Q199 822 177 822Q148 822 116 789Q113 786 110 787T108 792L112 822Q113 829 122 837Q150 865 186 865Z" horiz-adv-x="234" unicode="Ĩ"/>
			<glyph d="M143 477H175Q185 477 183 467L102 10Q100 0 92 0H60Q50 0 52 10L132 467Q134 477 143 477ZM133 679Q161 679 187 659Q210 641 231 641Q259 641 292 674Q295 677 298 675T300 671L296 641Q293 632 286 626Q256 598 222 598Q194 598 168 619Q143 637 124 637Q96 637 62 604Q59 601 56 602T54 607L59 636Q60 644 68 652Q98 679 133 679Z" horiz-adv-x="228" unicode="ĩ"/>
			<glyph d="M181 680H215Q225 680 223 670L107 10Q105 0 96 0H62Q52 0 54 10L170 670Q172 680 181 680ZM117 845H350Q360 845 358 835L355 812Q353 802 344 802H110Q100 802 102 812L106 835Q107 845 117 845Z" horiz-adv-x="234" unicode="Ī"/>
			<glyph d="M143 477H175Q185 477 183 467L102 10Q100 0 92 0H60Q50 0 52 10L132 467Q134 477 143 477ZM65 664H299Q309 664 307 654L303 632Q302 622 292 622H58Q48 622 50 632L54 654Q55 664 65 664Z" horiz-adv-x="228" unicode="ī"/>
			<glyph d="M181 680H215Q225 680 223 670L107 10Q105 0 96 0H62Q52 0 54 10L170 670Q172 680 181 680ZM131 881H147Q156 881 158 871Q163 809 228 809Q290 809 321 871Q326 881 334 881H351Q361 881 358 871Q343 824 306 796T222 769Q174 769 147 797T121 871Q121 881 131 881Z" horiz-adv-x="234" unicode="Ĭ"/>
			<glyph d="M143 477H175Q185 477 183 467L102 10Q100 0 92 0H60Q50 0 52 10L132 467Q134 477 143 477ZM85 684H101Q110 684 112 674Q117 612 182 612Q244 612 275 674Q280 684 288 684H305Q315 684 312 674Q297 627 260 599T176 572Q128 572 101 600T75 674Q75 684 85 684Z" horiz-adv-x="228" unicode="ĭ"/>
			<glyph d="M181 680H215Q225 680 223 670L107 10L100 0Q21 -71 21 -104Q21 -127 45 -127Q59 -127 74 -118Q82 -113 86 -120L92 -140Q94 -146 86 -153Q61 -170 31 -170Q7 -170 -9 -155T-25 -116Q-25 -96 -11 -69T56 4H55L53 7L170 670Q172 680 181 680Z" horiz-adv-x="234" unicode="Į"/>
			<glyph d="M175 680H216Q226 680 224 670L214 617Q213 607 203 607H162Q152 607 154 617L164 670Q166 680 175 680ZM143 477H175Q185 477 183 467L102 10L97 1Q17 -70 17 -104Q17 -127 41 -127Q55 -127 71 -118Q78 -113 82 -120L88 -140Q90 -146 83 -153Q58 -170 28 -170Q3 -170 -12 -155T-28 -116Q-28 -97 -14 -70T53 5L52 9L132 467Q134 477 143 477Z" horiz-adv-x="228" unicode="į"/>
			<glyph d="M181 680H215Q225 680 223 670L107 10Q105 0 96 0H62Q52 0 54 10L170 670Q172 680 181 680ZM207 861H249Q259 861 257 851L248 797Q246 787 237 787H195Q185 787 187 797L196 851Q198 861 207 861Z" horiz-adv-x="234" unicode="İ"/>
			<glyph d="M143 477H175Q185 477 183 467L102 10Q100 0 92 0H60Q50 0 52 10L132 467Q134 477 143 477Z" horiz-adv-x="228" unicode="ı"/>
			<glyph d="M181 680H215Q225 680 223 670L107 10Q105 0 96 0H62Q52 0 54 10L170 670Q172 680 181 680ZM641 680H675Q685 680 683 670L600 201Q582 102 531 46T379 -10Q341 -10 303 6T245 48Q243 50 243 54Q243 59 247 62L272 82Q280 88 287 81Q334 41 384 41Q519 41 548 203L630 670Q632 680 641 680Z" horiz-adv-x="688" unicode="Ĳ"/>
			<glyph d="M175 680H216Q226 680 224 670L214 617Q213 607 203 607H162Q152 607 154 617L164 670Q166 680 175 680ZM143 477H175Q185 477 183 467L102 10Q100 0 92 0H60Q50 0 52 10L132 467Q134 477 143 477ZM403 680H444Q454 680 452 670L442 617Q441 607 431 607H390Q380 607 382 617L392 670Q394 680 403 680ZM371 477H403Q413 477 411 467L319 -56Q308 -120 281 -150T180 -180H170Q160 -180 162 -170L166 -142Q167 -132 178 -132H186Q215 -132 236 -121T268 -56L360 467Q362 477 371 477Z" horiz-adv-x="457" unicode="ĳ"/>
			<glyph d="M407 680H441Q451 680 449 670L366 201Q348 102 297 46T145 -10Q107 -10 69 6T11 48Q9 50 9 54Q9 59 13 62L38 82Q46 88 53 81Q100 41 150 41Q285 41 314 203L396 670Q398 680 407 680ZM450 896H470Q479 896 483 887L548 765Q550 761 549 758T544 755H525Q515 755 509 764L457 855H455L369 764Q361 755 351 755H328Q324 755 323 758T326 765L433 887Q441 896 450 896Z" horiz-adv-x="459" unicode="Ĵ"/>
			<glyph d="M143 477H175Q185 477 183 467L91 -56Q80 -120 53 -150T-48 -180H-58Q-68 -180 -66 -170L-62 -142Q-61 -132 -50 -132H-42Q-13 -132 8 -121T40 -56L132 467Q134 477 143 477ZM185 700H205Q214 700 218 691L283 569Q285 565 284 562T279 559H259Q250 559 244 568L192 659H190L104 568Q95 559 85 559H63Q59 559 58 562T61 569L168 691Q176 700 185 700Z" horiz-adv-x="228" unicode="ĵ"/>
			<glyph d="M181 680H215Q225 680 223 670L155 282L534 671Q545 680 553 680H596Q600 680 601 676T599 669L343 410L494 11Q495 7 493 3T487 0H452Q443 0 440 9L305 369L140 201L107 10Q105 0 96 0H62Q52 0 54 10L170 670Q172 680 181 680ZM224 -55H259Q269 -55 267 -65L260 -110Q258 -119 251 -132L211 -188Q205 -196 199 -196Q189 -196 191 -186L212 -65Q214 -55 224 -55Z" horiz-adv-x="574" unicode="Ķ"/>
			<glyph d="M179 680H211Q221 680 219 670L138 216L387 467Q397 477 405 477H446Q450 477 451 473T449 467L284 299L403 10Q404 6 401 3T395 0H363Q354 0 349 10L246 263L125 138L102 10Q100 0 91 0H59Q50 0 52 10L168 670Q170 680 179 680ZM204 -55H239Q249 -55 247 -65L240 -110Q238 -119 231 -132L191 -188Q185 -196 179 -196Q169 -196 171 -186L192 -65Q194 -55 204 -55Z" horiz-adv-x="480" unicode="ķ"/>
			<glyph d="M143 477H175Q185 477 183 467L138 216L387 467Q397 477 405 477H446Q450 477 451 473T449 467L284 299L403 10Q404 6 401 3T395 0H363Q354 0 349 10L246 263L125 138L102 10Q100 0 91 0H59Q50 0 52 10L132 467Q134 477 143 477Z" horiz-adv-x="480" unicode="ĸ"/>
			<glyph d="M181 680H215Q225 680 223 670L115 57Q114 51 119 51H443Q453 51 451 41L446 10Q444 0 435 0H62Q52 0 54 10L170 670Q172 680 181 680ZM326 888H364Q369 888 369 884T367 878L260 774Q250 764 242 764H217Q213 764 212 767T215 775L309 878Q319 888 326 888Z" horiz-adv-x="507" unicode="Ĺ"/>
			<glyph d="M181 680H213Q223 680 221 670L118 107Q114 81 118 63T156 45H172Q182 45 180 35L176 7Q175 -3 164 -3H142Q93 -3 75 23T68 106L171 670Q173 680 181 680ZM309 888H347Q352 888 352 884T350 878L243 774Q233 764 225 764H200Q196 764 195 767T198 775L292 878Q302 888 309 888Z" horiz-adv-x="250" unicode="ĺ"/>
			<glyph d="M181 680H215Q225 680 223 670L115 57Q114 51 119 51H443Q453 51 451 41L446 10Q444 0 435 0H62Q52 0 54 10L170 670Q172 680 181 680ZM235 -55H270Q280 -55 278 -65L271 -110Q269 -119 262 -132L222 -188Q216 -196 210 -196Q200 -196 202 -186L223 -65Q225 -55 235 -55Z" horiz-adv-x="507" unicode="Ļ"/>
			<glyph d="M181 680H213Q223 680 221 670L118 107Q114 81 118 63T156 45H172Q182 45 180 35L176 7Q175 -3 164 -3H142Q93 -3 75 23T68 106L171 670Q173 680 181 680ZM83 -55H118Q128 -55 126 -65L119 -110Q117 -119 110 -132L70 -188Q64 -196 58 -196Q48 -196 50 -186L71 -65Q73 -55 83 -55Z" horiz-adv-x="250" unicode="ļ"/>
			<glyph d="M181 680H215Q225 680 223 670L115 57Q114 51 119 51H443Q453 51 451 41L446 10Q444 0 435 0H62Q52 0 54 10L170 670Q172 680 181 680ZM326 679H361Q371 679 369 669L362 624Q360 615 353 602L313 546Q307 538 301 538Q291 538 293 548L314 669Q316 679 326 679Z" horiz-adv-x="507" unicode="Ľ"/>
			<glyph d="M181 680H213Q223 680 221 670L118 107Q114 81 118 63T156 45H172Q182 45 180 35L176 7Q175 -3 164 -3H142Q93 -3 75 23T68 106L171 670Q173 680 181 680ZM290 680H326Q336 680 334 670L326 624Q323 610 318 603L278 546Q272 538 265 538Q256 538 258 548L279 670Q281 680 290 680Z" horiz-adv-x="250" unicode="ľ"/>
			<glyph d="M181 680H215Q225 680 223 670L115 57Q114 51 119 51H443Q453 51 451 41L446 10Q444 0 435 0H62Q52 0 54 10L170 670Q172 680 181 680ZM363 368H408Q418 368 416 358L406 293Q404 283 395 283H349Q339 283 341 293L352 358Q354 368 363 368Z" horiz-adv-x="507" unicode="Ŀ"/>
			<glyph d="M181 680H213Q223 680 221 670L118 107Q114 81 118 63T156 45H172Q182 45 180 35L176 7Q175 -3 164 -3H142Q93 -3 75 23T68 106L171 670Q173 680 181 680ZM251 372H296Q306 372 304 362L294 297Q292 287 283 287H237Q227 287 229 297L240 362Q242 372 251 372Z" horiz-adv-x="267" unicode="ŀ"/>
			<glyph d="M181 680H215Q225 680 223 670L171 374L337 455Q341 457 344 455T346 449L340 416Q339 408 329 403L161 321L115 57Q114 51 119 51H443Q453 51 451 41L446 10Q444 0 435 0H62Q52 0 54 10L104 293L44 264Q40 262 37 264T35 270L41 302Q43 311 52 316L113 346L170 670Q172 680 181 680Z" horiz-adv-x="507" unicode="Ł"/>
			<glyph d="M181 680H213Q223 680 221 670L172 402L231 431Q243 436 241 425L237 397Q235 387 225 382L163 351L118 107Q114 81 118 63T156 45H172Q182 45 180 35L176 7Q175 -3 164 -3H142Q93 -3 75 23T68 106L108 325L67 305Q63 303 59 305T57 311L61 339Q62 349 74 354L117 375L171 670Q173 680 181 680Z" horiz-adv-x="250" unicode="ł"/>
			<glyph d="M181 680H213Q222 680 226 670L460 103H462L564 670Q566 680 575 680H606Q616 680 614 670L498 10Q496 0 487 0H456Q446 0 442 10L207 578H205L104 10Q102 0 93 0H62Q52 0 54 10L170 670Q172 680 181 680ZM486 888H524Q529 888 529 884T527 878L420 774Q410 764 402 764H377Q373 764 372 767T375 775L469 878Q479 888 486 888Z" horiz-adv-x="625" unicode="Ń"/>
			<glyph d="M323 487Q399 487 433 439T452 305L398 10Q396 0 387 0H355Q346 0 348 10L399 292Q424 439 304 439Q254 439 209 401T154 304L102 10Q100 0 92 0H59Q50 0 52 10L132 467Q134 477 143 477H175Q185 477 183 467L173 412H174Q198 446 237 466T323 487ZM389 700H423Q427 700 428 697T427 690L321 568Q311 558 305 558H281Q271 558 278 568L370 690Q378 700 389 700Z" horiz-adv-x="519" unicode="ń"/>
			<glyph d="M181 680H213Q222 680 226 670L460 103H462L564 670Q566 680 575 680H606Q616 680 614 670L498 10Q496 0 487 0H456Q446 0 442 10L207 578H205L104 10Q102 0 93 0H62Q52 0 54 10L170 670Q172 680 181 680ZM264 -55H299Q309 -55 307 -65L300 -110Q298 -119 291 -132L251 -188Q245 -196 239 -196Q229 -196 231 -186L252 -65Q254 -55 264 -55Z" horiz-adv-x="625" unicode="Ņ"/>
			<glyph d="M323 487Q399 487 433 439T452 305L398 10Q396 0 387 0H355Q346 0 348 10L399 292Q424 439 304 439Q254 439 209 401T154 304L102 10Q100 0 92 0H59Q50 0 52 10L132 467Q134 477 143 477H175Q185 477 183 467L173 412H174Q198 446 237 466T323 487ZM207 -55H242Q252 -55 250 -65L243 -110Q241 -119 234 -132L194 -188Q188 -196 182 -196Q172 -196 174 -186L195 -65Q197 -55 207 -55Z" horiz-adv-x="519" unicode="ņ"/>
			<glyph d="M181 680H213Q222 680 226 670L460 103H462L564 670Q566 680 575 680H606Q616 680 614 670L498 10Q496 0 487 0H456Q446 0 442 10L207 578H205L104 10Q102 0 93 0H62Q52 0 54 10L170 670Q172 680 181 680ZM320 895H339Q349 895 354 886L407 796H409L495 886Q503 895 513 895H535Q539 895 540 891T538 885L431 763Q423 754 414 754H394Q386 754 381 763L315 885Q313 888 314 891T320 895Z" horiz-adv-x="625" unicode="Ň"/>
			<glyph d="M323 487Q399 487 433 439T452 305L398 10Q396 0 387 0H355Q346 0 348 10L399 292Q424 439 304 439Q254 439 209 401T154 304L102 10Q100 0 92 0H59Q50 0 52 10L132 467Q134 477 143 477H175Q185 477 183 467L173 412H174Q198 446 237 466T323 487ZM232 700H252Q261 700 267 690L319 600H321L407 690Q416 700 426 700H448Q452 700 452 696T450 690L343 568Q335 559 326 559H306Q297 559 293 568L228 690Q226 694 227 697T232 700Z" horiz-adv-x="519" unicode="ň"/>
			<glyph d="M323 487Q399 487 433 439T452 305L398 10Q396 0 387 0H355Q346 0 348 10L399 292Q424 439 304 439Q254 439 209 401T154 304L102 10Q100 0 92 0H59Q50 0 52 10L132 467Q134 477 143 477H175Q185 477 183 467L173 412H174Q198 446 237 466T323 487ZM109 680H145Q155 680 153 670L145 624Q142 610 137 603L97 546Q91 538 84 538Q75 538 77 548L98 670Q100 680 109 680Z" horiz-adv-x="519" unicode="ŉ"/>
			<glyph d="M180 680H211Q223 680 226 670L460 103H462L564 670Q566 680 574 680H605Q616 680 614 670L490 -31Q478 -99 441 -139T325 -180H313Q303 -180 305 -170L310 -139Q311 -129 322 -129H333Q423 -129 439 -34L446 0L207 578H205L104 10Q102 0 93 0H62Q52 0 54 10L170 670Q172 680 180 680Z" horiz-adv-x="625" unicode="Ŋ"/>
			<glyph d="M323 487Q399 487 433 439T452 305L387 -57Q377 -117 348 -148T248 -180H239Q229 -180 231 -170L235 -142Q236 -132 247 -132H255Q284 -132 305 -121T337 -58L399 292Q426 439 304 439Q252 439 208 400T154 304L102 10Q100 0 92 0H60Q50 0 52 10L132 467Q134 477 143 477H175Q185 477 183 467L173 412H174Q198 446 237 466T323 487Z" horiz-adv-x="519" unicode="ŋ"/>
			<glyph d="M374 690Q461 690 510 639T560 497Q560 434 537 313T488 140Q416 -10 251 -10Q164 -10 114 40T65 183Q65 246 87 366T137 540Q209 690 374 690ZM366 639Q243 639 186 523Q161 472 139 359T118 189Q118 118 154 79T259 41Q382 41 439 157Q464 208 485 320T507 491Q507 562 470 600T366 639ZM286 845H519Q529 845 527 835L524 812Q522 802 513 802H279Q269 802 271 812L275 835Q276 845 286 845Z" horiz-adv-x="586" unicode="Ō"/>
			<glyph d="M289 487Q363 487 402 444T442 326Q442 276 427 210T395 108Q339 -10 204 -10Q130 -10 90 33T51 151Q51 201 65 267T98 369Q154 487 289 487ZM281 439Q188 439 143 348Q129 320 115 260T102 161Q102 38 212 38Q305 38 350 129Q364 157 377 217T391 316Q391 439 281 439ZM206 664H440Q450 664 448 654L444 632Q443 622 433 622H199Q189 622 191 632L195 654Q196 664 206 664Z" horiz-adv-x="486" unicode="ō"/>
			<glyph d="M374 690Q461 690 510 639T560 497Q560 434 537 313T488 140Q416 -10 251 -10Q164 -10 114 40T65 183Q65 246 87 366T137 540Q209 690 374 690ZM366 639Q243 639 186 523Q161 472 139 359T118 189Q118 118 154 79T259 41Q382 41 439 157Q464 208 485 320T507 491Q507 562 470 600T366 639ZM300 881H316Q325 881 327 871Q332 809 397 809Q459 809 490 871Q495 881 503 881H520Q530 881 527 871Q512 824 475 796T391 769Q343 769 316 797T290 871Q290 881 300 881Z" horiz-adv-x="586" unicode="Ŏ"/>
			<glyph d="M289 487Q363 487 402 444T442 326Q442 276 427 210T395 108Q339 -10 204 -10Q130 -10 90 33T51 151Q51 201 65 267T98 369Q154 487 289 487ZM281 439Q188 439 143 348Q129 320 115 260T102 161Q102 38 212 38Q305 38 350 129Q364 157 377 217T391 316Q391 439 281 439ZM226 684H242Q251 684 253 674Q258 612 323 612Q385 612 416 674Q421 684 429 684H446Q456 684 453 674Q438 627 401 599T317 572Q269 572 242 600T216 674Q216 684 226 684Z" horiz-adv-x="486" unicode="ŏ"/>
			<glyph d="M374 690Q461 690 510 639T560 497Q560 434 537 313T488 140Q416 -10 251 -10Q164 -10 114 40T65 183Q65 246 87 366T137 540Q209 690 374 690ZM366 639Q243 639 186 523Q161 472 139 359T118 189Q118 118 154 79T259 41Q382 41 439 157Q464 208 485 320T507 491Q507 562 470 600T366 639ZM536 889H563Q567 889 568 886T567 879L476 774Q470 765 460 765H439Q435 765 433 768T435 775L518 879Q526 889 536 889ZM418 889H446Q450 889 451 886T450 879L358 774Q352 765 342 765H321Q317 765 315 768T317 775L400 879Q408 889 418 889Z" horiz-adv-x="586" unicode="Ő"/>
			<glyph d="M289 487Q363 487 402 444T442 326Q442 276 427 210T395 108Q339 -10 204 -10Q130 -10 90 33T51 151Q51 201 65 267T98 369Q154 487 289 487ZM281 439Q188 439 143 348Q129 320 115 260T102 161Q102 38 212 38Q305 38 350 129Q364 157 377 217T391 316Q391 439 281 439ZM450 700H478Q482 700 483 697T482 690L387 568Q381 559 372 559H351Q347 559 345 562T347 569L433 690Q439 700 450 700ZM332 700H360Q364 700 365 697T364 690L270 568Q264 559 254 559H233Q229 559 227 562T229 569L315 690Q321 700 332 700Z" horiz-adv-x="486" unicode="ő"/>
			<glyph d="M374 690Q434 690 475 662T531 585H532L547 670Q549 680 558 680H932Q942 680 940 670L935 639Q934 629 923 629H599Q594 629 592 623L549 377Q548 370 555 370H831Q841 370 839 360L834 330Q833 320 822 320H545Q540 320 538 314L492 57Q491 51 497 51H821Q831 51 829 41L824 10Q823 0 812 0H439Q429 0 431 10L446 92H445Q381 -10 251 -10Q164 -10 114 40T65 183Q65 246 87 366T137 540Q209 690 374 690ZM366 639Q243 639 186 523Q161 472 139 359T118 189Q118 118 154 79T259 41Q382 41 439 157Q464 208 485 320T507 491Q507 562 470 600T366 639Z" horiz-adv-x="912" unicode="Œ"/>
			<glyph d="M289 487Q407 487 431 379H432Q460 432 507 459T610 487Q677 487 717 446T758 330Q758 292 748 237Q746 227 736 227H439Q433 227 431 221Q425 190 425 155Q425 99 453 68T537 38Q618 38 678 102Q685 109 692 104L709 85Q715 77 708 70Q675 34 629 12T530 -10Q406 -10 386 98H385Q326 -10 204 -10Q130 -10 90 32T51 150Q51 201 65 266T98 369Q156 487 289 487ZM604 440Q511 440 465 350Q448 312 441 276Q440 270 445 270H697Q704 270 705 276L710 327Q710 382 682 411T604 440ZM281 439Q189 439 143 347Q129 319 115 259T102 160Q102 38 212 38Q305 38 350 129Q364 157 377 217T391 316Q391 439 281 439Z" horiz-adv-x="800" unicode="œ"/>
			<glyph d="M181 680H399Q479 680 524 640T569 529Q569 444 522 386T396 312L485 11Q487 7 485 3T479 0H443Q435 0 432 9L345 306H334H166Q159 306 159 300L107 10Q105 0 96 0H62Q52 0 54 10L170 670Q172 680 181 680ZM222 629Q217 629 215 623L169 363Q168 357 174 357H341Q423 357 469 402T516 523Q516 574 483 601T390 629ZM446 888H484Q489 888 489 884T487 878L380 774Q370 764 362 764H337Q333 764 332 767T335 775L429 878Q439 888 446 888Z" horiz-adv-x="591" unicode="Ŕ"/>
			<glyph d="M309 487Q334 487 358 477T396 454Q401 447 396 441L375 416Q368 410 361 415Q327 439 291 439Q233 439 197 391T149 275L102 10Q100 0 92 0H60Q50 0 52 10L132 467Q134 477 143 477H175Q185 477 183 467L172 406H173Q192 443 228 465T309 487ZM342 700H376Q380 700 381 697T380 690L274 568Q264 558 258 558H234Q224 558 231 568L323 690Q331 700 342 700Z" horiz-adv-x="381" unicode="ŕ"/>
			<glyph d="M181 680H399Q479 680 524 640T569 529Q569 444 522 386T396 312L485 11Q487 7 485 3T479 0H443Q435 0 432 9L345 306H334H166Q159 306 159 300L107 10Q105 0 96 0H62Q52 0 54 10L170 670Q172 680 181 680ZM222 629Q217 629 215 623L169 363Q168 357 174 357H341Q423 357 469 402T516 523Q516 574 483 601T390 629ZM248 -55H283Q293 -55 291 -65L284 -110Q282 -119 275 -132L235 -188Q229 -196 223 -196Q213 -196 215 -186L236 -65Q238 -55 248 -55Z" horiz-adv-x="591" unicode="Ŗ"/>
			<glyph d="M309 487Q334 487 358 477T396 454Q401 447 396 441L375 416Q368 410 361 415Q327 439 291 439Q233 439 197 391T149 275L102 10Q100 0 92 0H60Q50 0 52 10L132 467Q134 477 143 477H175Q185 477 183 467L172 406H173Q192 443 228 465T309 487ZM47 -55H82Q92 -55 90 -65L83 -110Q81 -119 74 -132L34 -188Q28 -196 22 -196Q12 -196 14 -186L35 -65Q37 -55 47 -55Z" horiz-adv-x="381" unicode="ŗ"/>
			<glyph d="M181 680H399Q479 680 524 640T569 529Q569 444 522 386T396 312L485 11Q487 7 485 3T479 0H443Q435 0 432 9L345 306H334H166Q159 306 159 300L107 10Q105 0 96 0H62Q52 0 54 10L170 670Q172 680 181 680ZM222 629Q217 629 215 623L169 363Q168 357 174 357H341Q423 357 469 402T516 523Q516 574 483 601T390 629ZM286 895H305Q315 895 320 886L373 796H375L461 886Q469 895 479 895H501Q505 895 506 891T504 885L397 763Q389 754 380 754H360Q352 754 347 763L281 885Q279 888 280 891T286 895Z" horiz-adv-x="591" unicode="Ř"/>
			<glyph d="M309 487Q334 487 358 477T396 454Q401 447 396 441L375 416Q368 410 361 415Q327 439 291 439Q233 439 197 391T149 275L102 10Q100 0 92 0H60Q50 0 52 10L132 467Q134 477 143 477H175Q185 477 183 467L172 406H173Q192 443 228 465T309 487ZM199 700H219Q228 700 234 690L286 600H288L374 690Q383 700 393 700H415Q419 700 419 696T417 690L310 568Q302 559 293 559H273Q264 559 260 568L195 690Q193 694 194 697T199 700Z" horiz-adv-x="381" unicode="ř"/>
			<glyph d="M360 690Q398 690 449 677T539 631Q546 625 540 617L523 594Q516 584 506 591Q437 639 352 639Q278 639 230 594T183 484Q183 437 212 409T316 371L345 367Q418 357 460 322T503 215Q503 112 432 51T240 -10Q181 -10 123 13T37 69Q32 75 38 82L61 108Q68 115 75 109Q155 41 253 41Q340 41 394 87T449 207Q449 254 421 280T318 317L289 321Q128 345 128 477Q128 571 192 630T360 690ZM459 888H497Q502 888 502 884T500 878L393 774Q383 764 375 764H350Q346 764 345 767T348 775L442 878Q452 888 459 888Z" horiz-adv-x="572" unicode="Ś"/>
			<glyph d="M279 487Q308 487 349 476T424 441Q430 436 425 428L406 407Q401 398 391 404Q334 440 273 440Q217 440 181 410T145 338Q145 308 166 291T236 270L282 265Q396 253 396 161Q396 83 342 36T197 -10Q155 -10 107 6T26 57Q20 63 27 70L50 92Q57 98 63 92Q124 37 202 37Q266 37 305 70T345 151Q345 173 330 192T259 218L213 223Q94 236 94 331Q94 400 145 443T279 487ZM368 700H402Q406 700 407 697T406 690L300 568Q290 558 284 558H260Q250 558 257 568L349 690Q357 700 368 700Z" horiz-adv-x="462" unicode="ś"/>
			<glyph d="M360 690Q398 690 449 677T539 631Q546 625 540 617L523 594Q516 584 506 591Q437 639 352 639Q278 639 230 594T183 484Q183 437 212 409T316 371L345 367Q418 357 460 322T503 215Q503 112 432 51T240 -10Q181 -10 123 13T37 69Q32 75 38 82L61 108Q68 115 75 109Q155 41 253 41Q340 41 394 87T449 207Q449 254 421 280T318 317L289 321Q128 345 128 477Q128 571 192 630T360 690ZM397 896H417Q426 896 430 887L495 765Q497 761 496 758T491 755H472Q462 755 456 764L404 855H402L316 764Q308 755 298 755H275Q271 755 270 758T273 765L380 887Q388 896 397 896Z" horiz-adv-x="572" unicode="Ŝ"/>
			<glyph d="M279 487Q308 487 349 476T424 441Q430 436 425 428L406 407Q401 398 391 404Q334 440 273 440Q217 440 181 410T145 338Q145 308 166 291T236 270L282 265Q396 253 396 161Q396 83 342 36T197 -10Q155 -10 107 6T26 57Q20 63 27 70L50 92Q57 98 63 92Q124 37 202 37Q266 37 305 70T345 151Q345 173 330 192T259 218L213 223Q94 236 94 331Q94 400 145 443T279 487ZM301 700H321Q330 700 334 691L399 569Q401 565 400 562T395 559H375Q366 559 360 568L308 659H306L220 568Q211 559 201 559H179Q175 559 174 562T177 569L284 691Q292 700 301 700Z" horiz-adv-x="462" unicode="ŝ"/>
			<glyph d="M360 690Q398 690 449 677T539 631Q546 625 540 617L523 594Q516 584 506 591Q437 639 352 639Q278 639 230 594T183 484Q183 437 212 409T316 371L345 367Q418 357 460 322T503 215Q503 121 444 61T283 -8L218 -137Q213 -147 201 -147H174Q163 -147 168 -137L239 -10Q180 -10 123 13T37 69Q32 75 38 82L61 108Q68 115 75 109Q155 41 253 41Q340 41 394 87T449 207Q449 254 421 280T318 317L289 321Q128 345 128 477Q128 571 192 630T360 690Z" horiz-adv-x="572" unicode="Ş"/>
			<glyph d="M279 487Q308 487 349 476T424 441Q430 436 425 428L406 407Q401 398 391 404Q334 440 273 440Q217 440 181 410T145 338Q145 308 166 291T236 270L282 265Q396 253 396 161Q396 89 350 43T225 -9L161 -137Q156 -147 144 -147H117Q106 -147 111 -137L182 -9Q144 -7 100 9T26 57Q20 63 27 70L50 92Q57 98 63 92Q124 37 202 37Q266 37 305 70T345 151Q345 173 330 192T259 218L213 223Q94 236 94 331Q94 400 145 443T279 487Z" horiz-adv-x="462" unicode="ş"/>
			<glyph d="M360 690Q398 690 449 677T539 631Q546 625 540 617L523 594Q516 584 506 591Q437 639 352 639Q278 639 230 594T183 484Q183 437 212 409T316 371L345 367Q418 357 460 322T503 215Q503 112 432 51T240 -10Q181 -10 123 13T37 69Q32 75 38 82L61 108Q68 115 75 109Q155 41 253 41Q340 41 394 87T449 207Q449 254 421 280T318 317L289 321Q128 345 128 477Q128 571 192 630T360 690ZM289 895H308Q318 895 323 886L376 796H378L464 886Q472 895 482 895H504Q508 895 509 891T507 885L400 763Q392 754 383 754H363Q355 754 350 763L284 885Q282 888 283 891T289 895Z" horiz-adv-x="572" unicode="Š"/>
			<glyph d="M279 487Q308 487 349 476T424 441Q430 436 425 428L406 407Q401 398 391 404Q334 440 273 440Q217 440 181 410T145 338Q145 308 166 291T236 270L282 265Q396 253 396 161Q396 83 342 36T197 -10Q155 -10 107 6T26 57Q20 63 27 70L50 92Q57 98 63 92Q124 37 202 37Q266 37 305 70T345 151Q345 173 330 192T259 218L213 223Q94 236 94 331Q94 400 145 443T279 487ZM212 700H232Q241 700 247 690L299 600H301L387 690Q396 700 406 700H428Q432 700 432 696T430 690L323 568Q315 559 306 559H286Q277 559 273 568L208 690Q206 694 207 697T212 700Z" horiz-adv-x="462" unicode="š"/>
			<glyph d="M112 680H553Q563 680 561 670L555 639Q553 629 544 629H355Q351 629 349 623L240 10Q238 0 229 0H196Q186 0 188 10L296 623Q298 629 292 629H103Q94 629 96 639L101 670Q103 680 112 680ZM186 -55H221Q231 -55 229 -65L222 -110Q220 -119 213 -132L173 -188Q167 -196 161 -196Q151 -196 153 -186L174 -65Q176 -55 186 -55Z" horiz-adv-x="501" unicode="Ţ"/>
			<glyph d="M185 630H217Q227 630 225 620L201 483Q200 477 205 477H291Q301 477 299 467L295 443Q294 433 284 433H198Q193 433 191 427L134 129Q127 92 134 68T194 45H211Q221 45 219 35L215 7Q214 -3 203 -3H179Q123 -3 96 22T83 125L140 427Q142 433 135 433H87Q77 433 79 443L83 467Q85 477 94 477H143Q150 477 151 483L174 620Q176 630 185 630ZM105 -55H140Q150 -55 148 -65L141 -110Q139 -119 132 -132L92 -188Q86 -196 80 -196Q70 -196 72 -186L93 -65Q95 -55 105 -55Z" horiz-adv-x="295" unicode="ţ"/>
			<glyph d="M112 680H553Q563 680 561 670L555 639Q553 629 544 629H355Q351 629 349 623L240 10Q238 0 229 0H196Q186 0 188 10L296 623Q298 629 292 629H103Q94 629 96 639L101 670Q103 680 112 680ZM257 895H276Q286 895 291 886L344 796H346L432 886Q440 895 450 895H472Q476 895 477 891T475 885L368 763Q360 754 351 754H331Q323 754 318 763L252 885Q250 888 251 891T257 895Z" horiz-adv-x="501" unicode="Ť"/>
			<glyph d="M185 630H217Q227 630 225 620L201 483Q200 477 205 477H291Q301 477 299 467L295 443Q294 433 284 433H198Q193 433 191 427L134 129Q127 92 134 68T194 45H211Q221 45 219 35L215 7Q214 -3 203 -3H179Q123 -3 96 22T83 125L140 427Q142 433 135 433H87Q77 433 79 443L83 467Q85 477 94 477H143Q150 477 151 483L174 620Q176 630 185 630ZM346 679H381Q391 679 389 669L382 624Q380 615 373 602L333 546Q327 538 321 538Q311 538 313 548L334 669Q336 679 346 679Z" horiz-adv-x="295" unicode="ť"/>
			<glyph d="M112 680H553Q563 680 561 670L555 639Q553 629 544 629H355Q351 629 349 623L319 458Q318 452 324 452H425Q435 452 433 442L428 414Q427 404 417 404H316Q311 404 309 398L240 10Q238 0 229 0H196Q186 0 188 10L256 398Q258 404 251 404H151Q141 404 143 414L148 442Q150 452 160 452H260Q266 452 267 458L296 623Q298 629 292 629H103Q94 629 96 639L101 670Q103 680 112 680Z" horiz-adv-x="501" unicode="Ŧ"/>
			<glyph d="M185 630H217Q227 630 225 620L201 483Q200 477 205 477H291Q301 477 299 467L295 443Q294 433 284 433H198Q193 433 191 427L178 354Q177 348 182 348H257Q267 348 265 338L261 316Q260 307 250 307H175Q170 307 168 301L134 129Q127 92 134 68T194 45H211Q221 45 219 35L215 7Q214 -3 203 -3H179Q115 -3 92 26T83 125L117 301Q119 307 112 307H74Q64 307 66 317L70 339Q72 348 82 348H120Q126 348 127 354L140 427Q142 433 135 433H87Q77 433 79 443L83 467Q85 477 94 477H143Q150 477 151 483L174 620Q176 630 185 630Z" horiz-adv-x="295" unicode="ŧ"/>
			<glyph d="M175 680H209Q219 680 217 670L140 234Q124 139 160 90T280 41Q363 41 410 85T476 234L553 670Q555 680 564 680H597Q607 680 605 670L528 231Q506 103 445 46T276 -10Q169 -10 118 53T88 236L164 670Q166 680 175 680ZM373 865Q401 865 427 844Q451 826 471 826Q499 826 533 859Q536 862 539 861T541 856L536 827Q535 818 526 811Q497 784 462 784Q433 784 408 804Q386 822 364 822Q335 822 303 789Q300 786 297 787T295 792L299 822Q300 829 309 837Q337 865 373 865Z" horiz-adv-x="610" unicode="Ũ"/>
			<glyph d="M137 477H169Q178 477 176 467L125 184Q100 38 217 38Q267 38 311 76T365 173L417 467Q419 477 428 477H460Q470 477 468 467L387 10Q385 0 376 0H345Q335 0 337 10L347 65H346Q321 30 282 10T199 -10Q124 -10 90 37T73 171L126 467Q128 477 137 477ZM279 679Q307 679 333 659Q356 641 377 641Q405 641 438 674Q441 677 444 675T446 671L442 641Q439 632 432 626Q402 598 368 598Q340 598 314 619Q289 637 270 637Q242 637 208 604Q205 601 202 602T200 607L205 636Q206 644 214 652Q244 679 279 679Z" horiz-adv-x="513" unicode="ũ"/>
			<glyph d="M175 680H209Q219 680 217 670L140 234Q124 139 160 90T280 41Q363 41 410 85T476 234L553 670Q555 680 564 680H597Q607 680 605 670L528 231Q506 103 445 46T276 -10Q169 -10 118 53T88 236L164 670Q166 680 175 680ZM304 845H537Q547 845 545 835L542 812Q540 802 531 802H297Q287 802 289 812L293 835Q294 845 304 845Z" horiz-adv-x="610" unicode="Ū"/>
			<glyph d="M137 477H169Q178 477 176 467L125 184Q100 38 217 38Q267 38 311 76T365 173L417 467Q419 477 428 477H460Q470 477 468 467L387 10Q385 0 376 0H345Q335 0 337 10L347 65H346Q321 30 282 10T199 -10Q124 -10 90 37T73 171L126 467Q128 477 137 477ZM209 664H443Q453 664 451 654L447 632Q446 622 436 622H202Q192 622 194 632L198 654Q199 664 209 664Z" horiz-adv-x="513" unicode="ū"/>
			<glyph d="M175 680H209Q219 680 217 670L140 234Q124 139 160 90T280 41Q363 41 410 85T476 234L553 670Q555 680 564 680H597Q607 680 605 670L528 231Q506 103 445 46T276 -10Q169 -10 118 53T88 236L164 670Q166 680 175 680ZM318 881H334Q343 881 345 871Q350 809 415 809Q477 809 508 871Q513 881 521 881H538Q548 881 545 871Q530 824 493 796T409 769Q361 769 334 797T308 871Q308 881 318 881Z" horiz-adv-x="610" unicode="Ŭ"/>
			<glyph d="M137 477H169Q178 477 176 467L125 184Q100 38 217 38Q267 38 311 76T365 173L417 467Q419 477 428 477H460Q470 477 468 467L387 10Q385 0 376 0H345Q335 0 337 10L347 65H346Q321 30 282 10T199 -10Q124 -10 90 37T73 171L126 467Q128 477 137 477ZM221 684H237Q246 684 248 674Q253 612 318 612Q380 612 411 674Q416 684 424 684H441Q451 684 448 674Q433 627 396 599T312 572Q264 572 237 600T211 674Q211 684 221 684Z" horiz-adv-x="513" unicode="ŭ"/>
			<glyph d="M175 680H209Q219 680 217 670L140 234Q124 139 160 90T280 41Q363 41 410 85T476 234L553 670Q555 680 564 680H597Q607 680 605 670L528 231Q506 103 445 46T276 -10Q169 -10 118 53T88 236L164 670Q166 680 175 680ZM433 913Q464 913 484 892T504 842Q504 800 475 769T403 739Q372 739 352 759T333 810Q333 852 361 882T433 913ZM427 883Q402 883 383 863T364 815Q364 795 376 782T409 769Q434 769 453 789T472 837Q472 857 460 870T427 883Z" horiz-adv-x="610" unicode="Ů"/>
			<glyph d="M137 477H169Q178 477 176 467L125 184Q100 38 217 38Q267 38 311 76T365 173L417 467Q419 477 428 477H460Q470 477 468 467L387 10Q385 0 376 0H345Q335 0 337 10L347 65H346Q321 30 282 10T199 -10Q124 -10 90 37T73 171L126 467Q128 477 137 477ZM342 716Q372 716 392 695T412 645Q412 603 383 572T311 542Q281 542 261 562T241 613Q241 655 270 685T342 716ZM336 686Q310 686 291 666T273 618Q273 598 285 585T317 572Q343 572 362 592T381 640Q381 660 368 673T336 686Z" horiz-adv-x="513" unicode="ů"/>
			<glyph d="M175 680H209Q219 680 217 670L140 234Q124 139 160 90T280 41Q363 41 410 85T476 234L553 670Q555 680 564 680H597Q607 680 605 670L528 231Q506 103 445 46T276 -10Q169 -10 118 53T88 236L164 670Q166 680 175 680ZM541 889H568Q572 889 573 886T572 879L481 774Q475 765 465 765H444Q440 765 438 768T440 775L523 879Q531 889 541 889ZM423 889H451Q455 889 456 886T455 879L363 774Q357 765 347 765H326Q322 765 320 768T322 775L405 879Q413 889 423 889Z" horiz-adv-x="610" unicode="Ű"/>
			<glyph d="M137 477H169Q178 477 176 467L125 184Q100 38 217 38Q267 38 311 76T365 173L417 467Q419 477 428 477H460Q470 477 468 467L387 10Q385 0 376 0H345Q335 0 337 10L347 65H346Q321 30 282 10T199 -10Q124 -10 90 37T73 171L126 467Q128 477 137 477ZM459 700H487Q491 700 492 697T491 690L396 568Q390 559 381 559H360Q356 559 354 562T356 569L442 690Q448 700 459 700ZM341 700H369Q373 700 374 697T373 690L279 568Q273 559 263 559H242Q238 559 236 562T238 569L324 690Q330 700 341 700Z" horiz-adv-x="513" unicode="ű"/>
			<glyph d="M175 680H209Q219 680 217 670L140 234Q124 139 160 90T280 41Q363 41 410 85T476 234L553 670Q555 680 564 680H597Q607 680 605 670L528 231Q507 110 452 53T301 -9Q231 -71 231 -104Q231 -127 256 -127Q269 -127 285 -118Q293 -113 296 -120L303 -140Q305 -146 297 -153Q272 -170 242 -170Q217 -170 201 -155T186 -116Q186 -69 250 -8Q155 0 111 62T88 236L164 670Q166 680 175 680Z" horiz-adv-x="610" unicode="Ų"/>
			<glyph d="M137 477H169Q178 477 176 467L125 184Q100 38 217 38Q267 38 311 76T365 173L417 467Q419 477 428 477H460Q470 477 468 467L387 10L381 -1Q339 -29 311 -54T284 -104Q284 -127 308 -127Q322 -127 337 -118Q345 -113 349 -120L355 -140Q357 -146 349 -153Q324 -170 294 -170Q270 -170 254 -155T238 -116Q238 -93 254 -66T337 6V9L347 65H346Q321 30 282 10T199 -10Q124 -10 90 37T73 171L126 467Q128 477 137 477Z" horiz-adv-x="513" unicode="ų"/>
			<glyph d="M122 680H153Q164 680 164 669L193 107H195L447 670Q451 680 461 680H486Q496 680 497 670L550 107H552L780 670Q784 680 794 680H828Q840 680 835 669L563 10Q559 0 550 0H522Q513 0 512 10L459 575H457L202 10Q198 0 188 0H161Q152 0 151 10L112 669Q112 680 122 680ZM508 896H528Q537 896 541 887L606 765Q608 761 607 758T602 755H583Q573 755 567 764L515 855H513L427 764Q419 755 409 755H386Q382 755 381 758T384 765L491 887Q499 896 508 896Z" horiz-adv-x="788" unicode="Ŵ"/>
			<glyph d="M89 477H118Q129 477 130 467L179 80H180L368 467Q373 477 381 477H407Q416 477 418 467L472 80H473L657 467Q663 477 671 477H704Q715 477 710 467L487 10Q481 0 474 0H447Q437 0 437 10L385 398H384L193 10Q189 0 180 0H153Q143 0 143 10L80 467Q78 477 89 477ZM432 700H452Q461 700 465 691L530 569Q532 565 531 562T526 559H506Q497 559 491 568L439 659H437L351 568Q342 559 332 559H310Q306 559 305 562T308 569L415 691Q423 700 432 700Z" horiz-adv-x="706" unicode="ŵ"/>
			<glyph d="M114 680H146Q157 680 159 670L266 343H269L493 670Q499 680 509 680H543Q548 680 550 676T549 669L285 279L237 10Q235 0 226 0H193Q183 0 185 10L232 279L106 669Q102 680 114 680ZM356 896H376Q385 896 389 887L454 765Q456 761 455 758T450 755H431Q421 755 415 764L363 855H361L275 764Q267 755 257 755H234Q230 755 229 758T232 765L339 887Q347 896 356 896Z" horiz-adv-x="496" unicode="Ŷ"/>
			<glyph d="M83 477H116Q126 477 127 467L198 80H199L406 467Q410 477 419 477H454Q465 477 460 467L182 -47Q144 -117 111 -148T27 -180H8Q-2 -180 0 -170L4 -142Q5 -132 16 -132H33Q56 -132 78 -118T137 -39L164 10L75 467Q73 477 83 477ZM300 700H320Q329 700 333 691L398 569Q400 565 399 562T394 559H374Q365 559 359 568L307 659H305L219 568Q210 559 200 559H178Q174 559 173 562T176 569L283 691Q291 700 300 700Z" horiz-adv-x="449" unicode="ŷ"/>
			<glyph d="M114 680H146Q157 680 159 670L266 343H269L493 670Q499 680 509 680H543Q548 680 550 676T549 669L285 279L237 10Q235 0 226 0H193Q183 0 185 10L232 279L106 669Q102 680 114 680ZM437 861H474Q484 861 482 851L473 797Q471 787 462 787H425Q415 787 417 797L426 851Q428 861 437 861ZM245 861H282Q292 861 290 851L281 797Q279 787 270 787H233Q223 787 225 797L234 851Q236 861 245 861Z" horiz-adv-x="496" unicode="Ÿ"/>
			<glyph d="M155 680H539Q549 680 547 670L542 640L535 626L85 52V51H428Q438 51 436 41L431 10Q430 0 419 0H23Q13 0 15 10L20 42L28 56L476 628V629H147Q137 629 139 639L144 670Q146 680 155 680ZM438 888H476Q481 888 481 884T479 878L372 774Q362 764 354 764H329Q325 764 324 767T327 775L421 878Q431 888 438 888Z" horiz-adv-x="518" unicode="Ź"/>
			<glyph d="M122 477H429Q439 477 437 467L433 439L425 425L89 49V48H354Q364 48 362 38L357 10Q355 0 346 0H27Q17 0 19 10L23 37L30 50L367 428V429H114Q104 429 106 439L111 467Q113 477 122 477ZM367 700H401Q405 700 406 697T405 690L299 568Q289 558 283 558H259Q249 558 256 568L348 690Q356 700 367 700Z" horiz-adv-x="447" unicode="ź"/>
			<glyph d="M155 680H539Q549 680 547 670L542 640L535 626L85 52V51H428Q438 51 436 41L431 10Q430 0 419 0H23Q13 0 15 10L20 42L28 56L476 628V629H147Q137 629 139 639L144 670Q146 680 155 680ZM351 861H393Q403 861 401 851L392 797Q390 787 381 787H339Q329 787 331 797L340 851Q342 861 351 861Z" horiz-adv-x="518" unicode="Ż"/>
			<glyph d="M122 477H429Q439 477 437 467L433 439L425 425L89 49V48H354Q364 48 362 38L357 10Q355 0 346 0H27Q17 0 19 10L23 37L30 50L367 428V429H114Q104 429 106 439L111 467Q113 477 122 477ZM285 680H326Q336 680 334 670L325 617Q323 607 314 607H272Q262 607 264 617L274 670Q276 680 285 680Z" horiz-adv-x="447" unicode="ż"/>
			<glyph d="M155 680H539Q549 680 547 670L542 640L535 626L85 52V51H428Q438 51 436 41L431 10Q430 0 419 0H23Q13 0 15 10L20 42L28 56L476 628V629H147Q137 629 139 639L144 670Q146 680 155 680ZM278 895H297Q307 895 312 886L365 796H367L453 886Q461 895 471 895H493Q497 895 498 891T496 885L389 763Q381 754 372 754H352Q344 754 339 763L273 885Q271 888 272 891T278 895Z" horiz-adv-x="518" unicode="Ž"/>
			<glyph d="M122 477H429Q439 477 437 467L433 439L425 425L89 49V48H354Q364 48 362 38L357 10Q355 0 346 0H27Q17 0 19 10L23 37L30 50L367 428V429H114Q104 429 106 439L111 467Q113 477 122 477ZM200 700H220Q229 700 235 690L287 600H289L375 690Q384 700 394 700H416Q420 700 420 696T418 690L311 568Q303 559 294 559H274Q265 559 261 568L196 690Q194 694 195 697T200 700Z" horiz-adv-x="447" unicode="ž"/>
			<glyph d="M485 680H506Q517 680 515 670L510 643Q509 633 498 633H479Q450 633 422 618T374 542L326 394H422Q432 394 430 384L426 360Q424 350 414 350H311L185 -40Q163 -108 128 -144T23 -180H2Q-8 -180 -6 -170L-2 -143Q-1 -133 10 -133H29Q58 -133 85 -118T134 -42L261 350H179Q169 350 171 360L175 384Q177 394 187 394H275L323 540Q345 607 380 643T485 680Z" unicode="ƒ"/>
			<glyph d="M360 690Q398 690 449 677T539 631Q546 625 540 617L523 594Q516 584 506 591Q437 639 352 639Q278 639 230 594T183 484Q183 437 212 409T316 371L345 367Q418 357 460 322T503 215Q503 112 432 51T240 -10Q181 -10 123 13T37 69Q32 75 38 82L61 108Q68 115 75 109Q155 41 253 41Q340 41 394 87T449 207Q449 254 421 280T318 317L289 321Q128 345 128 477Q128 571 192 630T360 690ZM228 -55H263Q273 -55 271 -65L264 -110Q262 -119 255 -132L215 -188Q209 -196 203 -196Q193 -196 195 -186L216 -65Q218 -55 228 -55Z" horiz-adv-x="572" unicode="Ș"/>
			<glyph d="M279 487Q308 487 349 476T424 441Q430 436 425 428L406 407Q401 398 391 404Q334 440 273 440Q217 440 181 410T145 338Q145 308 166 291T236 270L282 265Q396 253 396 161Q396 83 342 36T197 -10Q155 -10 107 6T26 57Q20 63 27 70L50 92Q57 98 63 92Q124 37 202 37Q266 37 305 70T345 151Q345 173 330 192T259 218L213 223Q94 236 94 331Q94 400 145 443T279 487ZM169 -55H204Q214 -55 212 -65L205 -110Q203 -119 196 -132L156 -188Q150 -196 144 -196Q134 -196 136 -186L157 -65Q159 -55 169 -55Z" horiz-adv-x="462" unicode="ș"/>
			<glyph d="M112 680H553Q563 680 561 670L555 639Q553 629 544 629H355Q351 629 349 623L240 10Q238 0 229 0H196Q186 0 188 10L296 623Q298 629 292 629H103Q94 629 96 639L101 670Q103 680 112 680ZM186 -55H221Q231 -55 229 -65L222 -110Q220 -119 213 -132L173 -188Q167 -196 161 -196Q151 -196 153 -186L174 -65Q176 -55 186 -55Z" horiz-adv-x="501" unicode="Ț"/>
			<glyph d="M185 630H217Q227 630 225 620L201 483Q200 477 205 477H291Q301 477 299 467L295 443Q294 433 284 433H198Q193 433 191 427L134 129Q127 92 134 68T194 45H211Q221 45 219 35L215 7Q214 -3 203 -3H179Q123 -3 96 22T83 125L140 427Q142 433 135 433H87Q77 433 79 443L83 467Q85 477 94 477H143Q150 477 151 483L174 620Q176 630 185 630ZM105 -55H140Q150 -55 148 -65L141 -110Q139 -119 132 -132L92 -188Q86 -196 80 -196Q70 -196 72 -186L93 -65Q95 -55 105 -55Z" horiz-adv-x="295" unicode="ț"/>
			<glyph d="M143 477H175Q185 477 183 467L91 -56Q80 -120 53 -150T-48 -180H-58Q-68 -180 -66 -170L-62 -142Q-61 -132 -50 -132H-42Q-13 -132 8 -121T40 -56L132 467Q134 477 143 477Z" horiz-adv-x="228" unicode="ȷ"/>
			<glyph d="M274 700H294Q303 700 307 691L372 569Q374 565 373 562T368 559H348Q339 559 333 568L281 659H279L193 568Q184 559 174 559H152Q148 559 147 562T150 569L257 691Q265 700 274 700Z" horiz-adv-x="404" unicode="ˆ"/>
			<glyph d="M175 700H195Q204 700 210 690L262 600H264L350 690Q359 700 369 700H391Q395 700 395 696T393 690L286 568Q278 559 269 559H249Q240 559 236 568L171 690Q169 694 170 697T175 700Z" horiz-adv-x="404" unicode="ˇ"/>
			<glyph d="M195 844H429Q439 844 437 834L433 812Q432 802 422 802H188Q178 802 180 812L184 834Q185 844 195 844Z" horiz-adv-x="404" unicode="ˉ"/>
			<glyph d="M173 684H189Q198 684 200 674Q205 612 270 612Q332 612 363 674Q368 684 376 684H393Q403 684 400 674Q385 627 348 599T264 572Q216 572 189 600T163 674Q163 684 173 684Z" horiz-adv-x="404" unicode="˘"/>
			<glyph d="M263 680H304Q314 680 312 670L303 617Q301 607 292 607H250Q240 607 242 617L252 670Q254 680 263 680Z" horiz-adv-x="404" unicode="˙"/>
			<glyph d="M289 716Q319 716 339 695T359 645Q359 603 330 572T258 542Q228 542 208 562T188 613Q188 655 217 685T289 716ZM283 686Q257 686 238 666T220 618Q220 598 232 585T264 572Q290 572 309 592T328 640Q328 660 315 673T283 686Z" horiz-adv-x="404" unicode="˚"/>
			<glyph d="M190 10H220Q224 10 225 6T222 0Q180 -28 151 -54T123 -104Q123 -127 147 -127Q160 -127 176 -118Q184 -113 187 -120L194 -140Q196 -146 188 -153Q163 -170 133 -170Q109 -170 93 -155T77 -116Q77 -94 92 -67T166 0Q180 10 190 10Z" horiz-adv-x="404" unicode="˛"/>
			<glyph d="M231 679Q259 679 285 659Q308 641 329 641Q357 641 390 674Q393 677 396 675T398 671L394 641Q391 632 384 626Q354 598 320 598Q292 598 266 619Q241 637 222 637Q194 637 160 604Q157 601 154 602T152 607L157 636Q158 644 166 652Q196 679 231 679Z" horiz-adv-x="404" unicode="˜"/>
			<glyph d="M369 700H397Q401 700 402 697T401 690L306 568Q300 559 291 559H270Q266 559 264 562T266 569L352 690Q358 700 369 700ZM251 700H279Q283 700 284 697T283 690L189 568Q183 559 173 559H152Q148 559 146 562T148 569L234 690Q240 700 251 700Z" horiz-adv-x="404" unicode="˝"/>
			<glyph d="M363 710H403Q407 710 408 707T407 700L246 480Q237 470 228 470H203Q192 470 199 480L346 700Q353 710 363 710Z" horiz-adv-x="463" unicode="ʹ"/>
			<glyph d="M378 62H403Q414 62 407 52L260 -168Q253 -178 243 -178H202Q192 -178 198 -168L360 52Q369 62 378 62Z" horiz-adv-x="463" unicode="͵"/>
			<glyph d="M158 476H204Q214 476 212 466L202 402Q200 392 191 392H145Q135 392 137 402L147 466Q149 476 158 476ZM92 85H132Q142 85 140 75L128 2L120 -20L71 -97Q66 -105 59 -105Q50 -105 52 -95L81 75Q83 85 92 85Z" horiz-adv-x="240" unicode=";"/>
			<glyph d="M268 700H314Q318 700 318 696T317 690L241 567Q236 558 227 558H201Q191 558 196 568L254 690Q259 700 268 700Z" horiz-adv-x="370" unicode="΄"/>
			<glyph d="M305 700H347Q356 700 351 690L285 567Q281 558 272 558H250Q241 558 244 568L292 690Q295 700 305 700ZM397 656H434Q444 656 442 646L433 593Q431 583 422 583H385Q375 583 377 593L386 646Q388 656 397 656ZM169 656H206Q216 656 214 646L205 593Q203 583 194 583H157Q147 583 149 593L158 646Q160 656 169 656Z" horiz-adv-x="440" unicode="΅"/>
			<glyph d="M355 680H387Q395 680 397 670L507 10Q509 0 498 0H466Q456 0 455 10L427 180H142L53 10Q48 0 39 0H1Q-9 0 -4 10L342 670Q347 680 355 680ZM358 593L168 230H419L360 593ZM178 680H224Q228 680 228 676T227 670L151 547Q146 538 137 538H111Q101 538 106 548L164 670Q169 680 178 680Z" horiz-adv-x="575" unicode="Ά"/>
			<glyph d="M97 308H142Q152 308 150 298L140 233Q138 223 129 223H83Q73 223 75 233L86 298Q88 308 97 308Z" horiz-adv-x="209" unicode="·"/>
			<glyph d="M181 680H554Q564 680 562 670L557 639Q556 629 545 629H222Q217 629 215 623L172 377Q171 370 177 370H454Q464 370 462 360L457 330Q456 320 445 320H168Q163 320 161 314L115 57Q114 51 120 51H443Q453 51 451 41L446 10Q445 0 434 0H62Q52 0 54 10L170 670Q172 680 181 680ZM50 680H96Q100 680 100 676T99 670L23 547Q18 538 9 538H-17Q-27 538 -22 548L36 670Q41 680 50 680Z" horiz-adv-x="535" unicode="Έ"/>
			<glyph d="M181 680H215Q225 680 223 670L171 376Q170 370 176 370H501Q507 370 508 376L560 670Q562 680 571 680H605Q615 680 613 670L497 10Q495 0 486 0H452Q442 0 444 10L497 314Q499 320 493 320H168Q163 320 161 314L107 10Q105 0 96 0H62Q52 0 54 10L170 670Q172 680 181 680ZM49 680H95Q99 680 99 676T98 670L22 547Q17 538 8 538H-18Q-28 538 -23 548L35 670Q40 680 49 680Z" horiz-adv-x="624" unicode="Ή"/>
			<glyph d="M181 680H215Q225 680 223 670L107 10Q105 0 96 0H62Q52 0 54 10L170 670Q172 680 181 680ZM50 680H96Q100 680 100 676T99 670L23 547Q18 538 9 538H-17Q-27 538 -22 548L36 670Q41 680 50 680Z" horiz-adv-x="234" unicode="Ί"/>
			<glyph d="M374 690Q461 690 510 639T560 497Q560 434 537 313T488 140Q416 -10 251 -10Q164 -10 114 40T65 183Q65 246 87 366T137 540Q209 690 374 690ZM366 639Q243 639 186 523Q161 472 139 359T118 189Q118 118 154 79T259 41Q382 41 439 157Q464 208 485 320T507 491Q507 562 470 600T366 639ZM68 680H114Q118 680 118 676T117 670L41 547Q36 538 27 538H1Q-9 538 -4 548L54 670Q59 680 68 680Z" horiz-adv-x="586" unicode="Ό"/>
			<glyph d="M114 680H146Q157 680 159 670L266 343H269L493 670Q499 680 509 680H543Q548 680 550 676T549 669L285 279L237 10Q235 0 226 0H193Q183 0 185 10L232 279L106 669Q102 680 114 680ZM7 680H53Q57 680 57 676T56 670L-20 547Q-25 538 -34 538H-60Q-70 538 -65 548L-7 670Q-2 680 7 680Z" horiz-adv-x="496" unicode="Ύ"/>
			<glyph d="M391 690Q479 690 528 639T578 496Q578 445 560 340Q539 223 507 155T403 52V50H490Q499 50 497 40L493 10Q491 0 483 0H317Q307 0 309 10L314 43Q315 51 325 54Q407 82 444 142T507 340Q524 436 524 489Q524 561 488 600T383 639Q260 639 203 524Q174 467 151 340Q135 250 135 203Q135 142 158 107T232 54Q240 51 239 43L234 10Q232 0 223 0H58Q48 0 50 10L55 40Q57 50 65 50H155L156 52Q119 74 100 109T82 199Q82 245 99 340Q123 477 152 538Q224 690 391 690ZM82 680H128Q132 680 132 676T131 670L55 547Q50 538 41 538H15Q5 538 10 548L68 670Q73 680 82 680Z" horiz-adv-x="605" unicode="Ώ"/>
			<glyph d="M135 477H167Q177 477 175 467L107 94L103 67Q103 39 141 39Q159 39 176 44Q184 46 186 40L194 10Q196 4 188 0Q167 -10 130 -10Q53 -10 53 58L57 97L124 467Q125 477 135 477ZM212 700H254Q263 700 258 690L192 567Q188 558 179 558H157Q148 558 151 568L199 690Q202 700 212 700ZM304 656H341Q351 656 349 646L340 593Q338 583 329 583H292Q282 583 284 593L293 646Q295 656 304 656ZM76 656H113Q123 656 121 646L112 593Q110 583 101 583H64Q54 583 56 593L65 646Q67 656 76 656Z" horiz-adv-x="254" unicode="ΐ"/>
			<glyph d="M355 680H387Q395 680 397 670L507 10Q509 0 498 0H466Q456 0 455 10L427 180H142L53 10Q48 0 39 0H1Q-9 0 -4 10L342 670Q347 680 355 680ZM358 593L168 230H419L360 593Z" horiz-adv-x="575" unicode="Α"/>
			<glyph d="M181 680H398Q477 680 519 642T562 537Q562 468 526 418T429 350V348Q463 338 489 305T516 220Q516 118 454 59T281 0H62Q52 0 54 10L170 670Q172 680 181 680ZM222 630Q217 630 215 624L172 377Q171 371 176 371H345Q420 371 464 415T508 526Q508 575 477 602T391 630ZM168 321Q163 321 161 315L115 56Q114 50 119 50H292Q372 50 418 95T464 212Q464 262 432 291T341 321Z" horiz-adv-x="583" unicode="Β"/>
			<glyph d="M181 680H534Q544 680 542 670L537 639Q536 629 525 629H222Q217 629 215 623L107 10Q105 0 96 0H62Q52 0 54 10L170 670Q172 680 181 680Z" horiz-adv-x="498" unicode="Γ"/>
			<glyph d="M353 680H386Q393 680 395 670L505 10Q507 0 497 0H0Q-10 0 -5 10L340 670Q345 680 353 680ZM356 594L73 53Q70 47 76 47H442Q449 47 447 53L358 594Z" horiz-adv-x="565" unicode="Δ"/>
			<glyph d="M181 680H554Q564 680 562 670L557 639Q556 629 545 629H222Q217 629 215 623L172 377Q171 370 177 370H454Q464 370 462 360L457 330Q456 320 445 320H168Q163 320 161 314L115 57Q114 51 120 51H443Q453 51 451 41L446 10Q445 0 434 0H62Q52 0 54 10L170 670Q172 680 181 680Z" horiz-adv-x="535" unicode="Ε"/>
			<glyph d="M155 680H539Q549 680 547 670L542 640L535 626L85 52V51H428Q438 51 436 41L431 10Q430 0 419 0H23Q13 0 15 10L20 42L28 56L476 628V629H147Q137 629 139 639L144 670Q146 680 155 680Z" horiz-adv-x="518" unicode="Ζ"/>
			<glyph d="M181 680H215Q225 680 223 670L171 376Q170 370 176 370H501Q507 370 508 376L560 670Q562 680 571 680H605Q615 680 613 670L497 10Q495 0 486 0H452Q442 0 444 10L497 314Q499 320 493 320H168Q163 320 161 314L107 10Q105 0 96 0H62Q52 0 54 10L170 670Q172 680 181 680Z" horiz-adv-x="624" unicode="Η"/>
			<glyph d="M374 690Q461 690 510 639T560 497Q560 434 537 313T488 140Q416 -10 251 -10Q164 -10 114 40T65 183Q65 246 87 366T137 540Q209 690 374 690ZM366 639Q243 639 186 523Q161 472 139 359T118 189Q118 118 154 79T259 41Q382 41 439 157Q464 208 485 320T507 491Q507 562 470 600T366 639ZM207 365H418Q429 365 427 355L422 325Q420 315 411 315H200Q189 315 191 325L196 355Q198 365 207 365Z" horiz-adv-x="586" unicode="Θ"/>
			<glyph d="M181 680H215Q225 680 223 670L107 10Q105 0 96 0H62Q52 0 54 10L170 670Q172 680 181 680Z" horiz-adv-x="234" unicode="Ι"/>
			<glyph d="M181 680H215Q225 680 223 670L155 282L534 671Q545 680 553 680H596Q600 680 601 676T599 669L343 410L494 11Q495 7 493 3T487 0H452Q443 0 440 9L305 369L140 201L107 10Q105 0 96 0H62Q52 0 54 10L170 670Q172 680 181 680Z" horiz-adv-x="574" unicode="Κ"/>
			<glyph d="M355 680H387Q395 680 397 670L507 10Q509 0 498 0H466Q456 0 455 10L360 593H358L53 10Q48 0 39 0H1Q-9 0 -4 10L342 670Q347 680 355 680Z" horiz-adv-x="575" unicode="Λ"/>
			<glyph d="M181 680H211Q220 680 223 670L351 176H354L656 670Q662 680 670 680H706Q716 680 714 670L598 10Q596 0 587 0H556Q546 0 548 10L644 550H641L370 112Q364 101 352 101H333Q321 101 318 112L203 552H200L104 10Q102 0 93 0H62Q52 0 54 10L170 670Q172 680 181 680Z" horiz-adv-x="725" unicode="Μ"/>
			<glyph d="M181 680H213Q222 680 226 670L460 103H462L564 670Q566 680 575 680H606Q616 680 614 670L498 10Q496 0 487 0H456Q446 0 442 10L207 578H205L104 10Q102 0 93 0H62Q52 0 54 10L170 670Q172 680 181 680Z" horiz-adv-x="625" unicode="Ν"/>
			<glyph d="M29 53H421Q431 53 429 43L424 10Q422 0 413 0H21Q10 0 12 10L17 43Q19 53 29 53ZM127 370H430Q440 370 438 360L433 328Q431 318 421 318H119Q109 318 111 328L116 360Q118 370 127 370ZM136 680H529Q540 680 538 670L532 637Q530 627 520 627H128Q118 627 120 637L125 670Q127 680 136 680Z" horiz-adv-x="509" unicode="Ξ"/>
			<glyph d="M374 690Q461 690 510 639T560 497Q560 434 537 313T488 140Q416 -10 251 -10Q164 -10 114 40T65 183Q65 246 87 366T137 540Q209 690 374 690ZM366 639Q243 639 186 523Q161 472 139 359T118 189Q118 118 154 79T259 41Q382 41 439 157Q464 208 485 320T507 491Q507 562 470 600T366 639Z" horiz-adv-x="586" unicode="Ο"/>
			<glyph d="M181 680H595Q605 680 603 670L487 10Q485 0 476 0H442Q432 0 434 10L542 623Q544 629 538 629H222Q217 629 215 623L107 10Q105 0 96 0H62Q52 0 54 10L170 670Q172 680 181 680Z" horiz-adv-x="614" unicode="Π"/>
			<glyph d="M181 680H399Q480 680 524 640T569 530Q569 420 503 358T332 296H164Q157 296 157 290L107 10Q105 0 96 0H62Q52 0 54 10L170 670Q172 680 181 680ZM222 629Q217 629 215 623L167 353Q166 347 172 347H336Q418 348 467 394T517 523Q517 573 484 601T389 629Z" horiz-adv-x="561" unicode="Ρ"/>
			<glyph d="M155 680H548Q558 680 556 670L550 639Q549 629 538 629H202V628L325 354Q327 349 324 344L86 52V51H437Q448 51 446 41L441 10Q439 0 430 0H28Q16 0 18 10L24 50L32 63L266 346L146 609Q137 629 138 635L144 670Q145 680 155 680Z" horiz-adv-x="527" unicode="Σ"/>
			<glyph d="M112 680H553Q563 680 561 670L555 639Q553 629 544 629H355Q351 629 349 623L240 10Q238 0 229 0H196Q186 0 188 10L296 623Q298 629 292 629H103Q94 629 96 639L101 670Q103 680 112 680Z" horiz-adv-x="501" unicode="Τ"/>
			<glyph d="M114 680H146Q157 680 159 670L266 343H269L493 670Q499 680 509 680H543Q548 680 550 676T549 669L285 279L237 10Q235 0 226 0H193Q183 0 185 10L232 279L106 669Q102 680 114 680Z" horiz-adv-x="496" unicode="Υ"/>
			<glyph d="M392 696H426Q435 696 434 686L424 632Q528 626 578 584Q640 533 640 431Q640 327 605 243T512 117Q437 62 323 59L312 -6Q310 -16 301 -16H267Q258 -16 259 -6L270 59Q170 62 114 110Q55 161 55 259Q55 367 90 449T182 573Q258 629 371 632L381 686Q383 696 392 696ZM363 583Q259 583 196 522Q151 478 129 405T108 261Q108 189 146 151T279 107ZM416 584L332 108Q380 108 424 124T498 168Q526 194 549 243T581 354Q587 392 587 431Q587 498 553 536T416 584Z" horiz-adv-x="657" unicode="Φ"/>
			<glyph d="M141 680H180Q188 680 191 671L294 411H295L491 671Q497 680 505 680H546Q550 680 551 676T550 669L317 356L453 11Q455 7 453 3T447 0H409Q401 0 398 9L281 302H280L57 9Q51 0 45 0H1Q-3 0 -4 3T-3 11L258 357L135 669Q130 680 141 680Z" horiz-adv-x="523" unicode="Χ"/>
			<glyph d="M150 680H182Q191 680 191 672V670L138 369Q133 342 133 310Q133 249 167 213T285 177L372 670Q374 680 383 680H417Q425 680 425 672V670L338 177Q521 184 555 384L605 670Q607 680 616 680H649Q658 680 658 672V670L609 391Q564 137 329 129L309 10Q307 0 298 0H264Q256 0 256 8V10L276 129Q81 139 81 314Q81 345 89 390L138 670Q140 680 150 680Z" horiz-adv-x="640" unicode="Ψ"/>
			<glyph d="M391 690Q479 690 528 639T578 496Q578 445 560 340Q539 223 507 155T403 52V50H490Q499 50 497 40L493 10Q491 0 483 0H317Q307 0 309 10L314 43Q315 51 325 54Q407 82 444 142T507 340Q524 436 524 489Q524 561 488 600T383 639Q260 639 203 524Q174 467 151 340Q135 250 135 203Q135 142 158 107T232 54Q240 51 239 43L234 10Q232 0 223 0H58Q48 0 50 10L55 40Q57 50 65 50H155L156 52Q119 74 100 109T82 199Q82 245 99 340Q123 477 152 538Q224 690 391 690Z" horiz-adv-x="605" unicode="Ω"/>
			<glyph d="M181 680H215Q225 680 223 670L107 10Q105 0 96 0H62Q52 0 54 10L170 670Q172 680 181 680ZM302 861H339Q349 861 347 851L338 797Q336 787 327 787H290Q280 787 282 797L291 851Q293 861 302 861ZM110 861H147Q157 861 155 851L146 797Q144 787 135 787H98Q88 787 90 797L99 851Q101 861 110 861Z" horiz-adv-x="234" unicode="Ϊ"/>
			<glyph d="M114 680H146Q157 680 159 670L266 343H269L493 670Q499 680 509 680H543Q548 680 550 676T549 669L285 279L237 10Q235 0 226 0H193Q183 0 185 10L232 279L106 669Q102 680 114 680ZM438 861H475Q485 861 483 851L474 797Q472 787 463 787H426Q416 787 418 797L427 851Q429 861 438 861ZM246 861H283Q293 861 291 851L282 797Q280 787 271 787H234Q224 787 226 797L235 851Q237 861 246 861Z" horiz-adv-x="496" unicode="Ϋ"/>
			<glyph d="M266 487Q397 487 397 317H398L448 473Q450 480 460 478L489 471Q496 468 494 461L402 206V166Q402 45 478 45H486Q496 45 494 35L490 7Q489 -3 478 -3H464Q373 -3 363 106L361 127H360Q332 64 290 27T184 -10Q122 -10 87 31T52 154Q52 235 81 321Q138 487 266 487ZM270 439Q175 439 130 315Q102 241 102 161Q102 38 193 38Q240 38 277 75T337 175T361 305Q361 439 270 439ZM349 700H395Q399 700 399 696T398 690L322 567Q317 558 308 558H282Q272 558 277 568L335 690Q340 700 349 700Z" horiz-adv-x="540" unicode="ά"/>
			<glyph d="M289 487Q364 487 416 464Q429 458 425 450L414 424Q411 419 404 421Q347 440 286 440Q222 440 187 415T153 346Q153 309 182 292T252 275H325Q335 275 333 266L329 239Q328 229 317 229H246Q178 229 138 203T99 122Q99 82 126 59T227 36Q307 36 373 62Q380 64 383 56L392 30Q394 25 387 21Q325 -10 223 -10Q46 -10 46 115Q46 169 78 206T165 253V255Q105 275 105 345Q105 410 154 448T289 487ZM367 700H413Q417 700 417 696T416 690L340 567Q335 558 326 558H300Q290 558 295 568L353 690Q358 700 367 700Z" horiz-adv-x="456" unicode="έ"/>
			<glyph d="M337 487Q400 487 434 451T469 354Q469 331 458 274L377 -170Q375 -180 366 -180H335Q325 -180 327 -170L411 293L416 340Q416 439 318 439Q259 439 217 397T166 304L114 9Q112 0 103 0H71Q62 0 64 9L129 383L133 416Q133 433 114 433Q102 433 104 443L109 474Q111 481 119 481H124Q150 481 166 466T183 426L182 412L183 411Q202 440 240 463T337 487ZM368 700H414Q418 700 418 696T417 690L341 567Q336 558 327 558H301Q291 558 296 568L354 690Q359 700 368 700Z" horiz-adv-x="531" unicode="ή"/>
			<glyph d="M135 477H167Q177 477 175 467L107 94L103 67Q103 39 141 39Q159 39 176 44Q184 46 186 40L194 10Q196 4 188 0Q167 -10 130 -10Q53 -10 53 58L57 97L124 467Q125 477 135 477ZM223 700H269Q273 700 273 696T272 690L196 567Q191 558 182 558H156Q146 558 151 568L209 690Q214 700 223 700Z" horiz-adv-x="254" unicode="ί"/>
			<glyph d="M111 481Q178 481 178 427L174 394L138 191Q132 157 132 131Q132 38 230 38Q293 38 332 73T388 205L434 467Q435 477 445 477H478Q480 477 483 475T485 467L438 195Q421 96 372 43T226 -10Q80 -10 80 125Q80 146 87 186L123 393L125 415Q125 433 104 433Q94 433 96 443L101 474Q102 481 111 481ZM320 700H362Q371 700 366 690L300 567Q296 558 287 558H265Q256 558 259 568L307 690Q310 700 320 700ZM412 656H449Q459 656 457 646L448 593Q446 583 437 583H400Q390 583 392 593L401 646Q403 656 412 656ZM184 656H221Q231 656 229 646L220 593Q218 583 209 583H172Q162 583 164 593L173 646Q175 656 184 656Z" horiz-adv-x="518" unicode="ΰ"/>
			<glyph d="M266 487Q397 487 397 317H398L448 473Q450 480 460 478L489 471Q496 468 494 461L402 206V166Q402 45 478 45H486Q496 45 494 35L490 7Q489 -3 478 -3H464Q373 -3 363 106L361 127H360Q332 64 290 27T184 -10Q122 -10 87 31T52 154Q52 235 81 321Q138 487 266 487ZM270 439Q175 439 130 315Q102 241 102 161Q102 38 193 38Q240 38 277 75T337 175T361 305Q361 439 270 439Z" horiz-adv-x="540" unicode="α"/>
			<glyph d="M322 690Q390 690 432 656T474 551Q474 429 366 387V385Q458 355 458 235Q458 178 435 118T362 24T252 -10Q150 -10 106 71H105L63 -169Q62 -180 52 -180H20Q11 -180 12 -170L126 478Q164 690 322 690ZM320 644Q207 644 176 472L130 213Q123 166 123 148Q123 104 159 71T253 38Q324 38 365 92T406 235Q406 360 276 360H239Q231 360 232 368L237 396Q239 405 248 405H284Q347 405 386 442T425 547Q425 590 398 617T320 644Z" horiz-adv-x="519" unicode="β"/>
			<glyph d="M81 483Q112 480 134 458T168 350L209 66H210L292 220Q358 344 375 386T399 468Q401 477 408 477H445Q452 477 451 468Q445 429 430 388T378 279L222 -8L202 -153Q201 -162 191 -162H151Q142 -162 144 -153L172 -8L123 325Q115 383 105 408T67 438Q60 440 62 450L68 475Q70 484 81 483Z" horiz-adv-x="469" unicode="γ"/>
			<glyph d="M333 690Q410 690 467 660Q474 657 471 649L458 619Q455 612 445 616Q377 642 322 642Q284 642 257 625T230 573Q230 553 242 533T316 471Q363 438 396 391T430 269Q430 190 402 126T325 26T206 -10Q140 -10 93 32T46 162Q46 283 104 358T256 455V456L252 459Q181 509 181 573Q181 624 220 657T333 690ZM294 426Q210 414 153 346T97 173Q97 38 212 38Q275 38 316 84T372 202Q378 231 378 261Q378 375 294 426Z" horiz-adv-x="466" unicode="δ"/>
			<glyph d="M289 487Q364 487 416 464Q429 458 425 450L414 424Q411 419 404 421Q347 440 286 440Q222 440 187 415T153 346Q153 309 182 292T252 275H325Q335 275 333 266L329 239Q328 229 317 229H246Q178 229 138 203T99 122Q99 82 126 59T227 36Q307 36 373 62Q380 64 383 56L392 30Q394 25 387 21Q325 -10 223 -10Q46 -10 46 115Q46 169 78 206T165 253V255Q105 275 105 345Q105 410 154 448T289 487Z" horiz-adv-x="456" unicode="ε"/>
			<glyph d="M160 680H423Q434 680 432 668L428 637Q107 413 107 192Q107 138 132 107T238 54Q284 41 314 22T344 -42Q344 -121 240 -155Q234 -157 232 -153L220 -125Q217 -119 225 -116Q293 -91 293 -47Q293 -30 284 -18T223 8Q127 35 91 75T56 186Q56 296 128 413T353 633V634H153Q145 634 146 643L150 673Q151 680 160 680Z" horiz-adv-x="409" unicode="ζ"/>
			<glyph d="M337 487Q400 487 434 451T469 354Q469 331 458 274L377 -170Q375 -180 366 -180H335Q325 -180 327 -170L411 293L416 340Q416 439 318 439Q259 439 217 397T166 304L114 9Q112 0 103 0H71Q62 0 64 9L129 383L133 416Q133 433 114 433Q102 433 104 443L109 474Q111 481 119 481H124Q150 481 166 466T183 426L182 412L183 411Q202 440 240 463T337 487Z" horiz-adv-x="531" unicode="η"/>
			<glyph d="M319 690Q462 690 462 507Q462 439 447 347Q415 145 359 67T211 -10Q143 -10 105 30T68 170Q68 241 85 348Q112 520 165 605T319 690ZM130 321Q118 240 118 172Q118 105 139 71T218 38Q263 38 299 71Q324 94 347 143T391 321ZM313 642Q255 642 213 590T147 412L138 368H399Q413 463 413 509Q413 642 313 642Z" horiz-adv-x="489" unicode="θ"/>
			<glyph d="M135 477H167Q177 477 175 467L107 94L103 67Q103 39 141 39Q159 39 176 44Q184 46 186 40L194 10Q196 4 188 0Q167 -10 130 -10Q53 -10 53 58L57 97L124 467Q125 477 135 477Z" horiz-adv-x="254" unicode="ι"/>
			<glyph d="M472 481H482Q492 481 490 471L485 443Q483 433 472 433H462Q444 433 431 427T378 378L289 281L427 10Q428 7 426 3T421 0H384Q377 0 371 11L252 242L121 107L104 9Q102 0 93 0H60Q50 0 52 9L133 467Q134 477 144 477H177Q186 477 184 467L132 182L314 379Q371 443 399 462T472 481Z" horiz-adv-x="506" unicode="κ"/>
			<glyph d="M195 682H205Q239 682 260 664T299 554L385 104Q390 75 397 60T430 45H434Q444 45 443 35L439 7Q438 -3 426 -3H421Q382 -3 363 15T335 86L280 394H279L63 9Q58 0 52 0H14Q12 0 9 2T11 15L266 463L245 570Q239 600 230 617T192 634H187Q176 634 177 644L181 671Q183 682 195 682Z" horiz-adv-x="482" unicode="λ"/>
			<glyph d="M142 477H175Q184 477 182 468L135 207Q126 156 126 134Q126 38 224 38Q267 38 313 72T371 173L423 468Q425 477 434 477H467Q476 477 474 467L412 116Q407 91 407 71Q407 62 410 53T433 45Q443 45 441 35L437 8Q435 -3 425 -3H420Q397 -3 378 6T357 50L358 71H357Q306 -8 212 -10Q131 -10 109 46H108L70 -171Q68 -180 60 -180H27Q17 -180 19 -171L131 468Q133 477 142 477Z" horiz-adv-x="521" unicode="μ"/>
			<glyph d="M75 477H111Q120 477 121 468L199 69H201L270 192Q360 352 380 468Q381 477 392 477H428Q433 477 433 470Q428 425 398 348T314 176L216 9Q211 0 205 0H172Q165 0 163 9L67 468Q65 477 75 477Z" horiz-adv-x="448" unicode="ν"/>
			<glyph d="M163 680H431Q442 680 440 669L434 638Q184 617 184 485Q184 447 212 420T305 393H364Q374 393 372 382L368 357Q367 347 357 347H312Q267 347 216 328T133 266T102 167Q102 127 122 103T219 58Q266 45 297 26T328 -38Q328 -116 222 -153Q218 -154 215 -148L204 -122Q202 -116 209 -113Q277 -89 277 -45Q277 -28 268 -15T200 13Q117 35 84 67T51 162Q51 240 98 295T214 369V371Q137 401 137 479Q137 537 173 580T275 633V634H157Q147 634 149 644L153 673Q155 680 163 680Z" horiz-adv-x="423" unicode="ξ"/>
			<glyph d="M289 487Q363 487 402 444T442 326Q442 276 427 210T395 108Q339 -10 204 -10Q130 -10 90 33T51 151Q51 201 65 267T98 369Q154 487 289 487ZM281 439Q188 439 143 348Q129 320 115 260T102 161Q102 38 212 38Q305 38 350 129Q364 157 377 217T391 316Q391 439 281 439Z" horiz-adv-x="486" unicode="ο"/>
			<glyph d="M83 477H541Q549 477 548 468L544 441Q542 431 531 431H473Q466 431 465 424L409 105L406 74Q406 45 448 45H453Q463 45 461 35L457 7Q455 -3 445 -3H436Q353 -3 353 67L356 96L414 424Q415 431 408 431H201Q194 431 193 424L120 9Q118 0 111 0H78Q69 0 70 9L143 424Q144 431 138 431H75Q67 431 68 439L73 468Q75 477 83 477Z" horiz-adv-x="544" unicode="π"/>
			<glyph d="M298 487Q371 487 409 443T448 327Q448 266 430 196T394 94Q334 -10 213 -10Q167 -10 132 12T88 71H87L45 -171Q43 -180 35 -180H1Q-2 -180 -4 -177T-6 -171L61 212Q77 304 101 361T169 450Q219 487 298 487ZM289 439Q220 439 174 387Q143 350 125 276T108 157Q108 38 215 38Q308 38 354 125Q370 157 383 218T397 318Q397 439 289 439Z" horiz-adv-x="492" unicode="ρ"/>
			<glyph d="M273 487Q349 487 399 455Q406 451 401 443L386 416Q382 409 371 414Q322 439 267 439Q196 439 148 385T100 240Q100 194 121 157T241 69Q278 50 302 26T326 -41Q326 -120 222 -155Q216 -157 213 -151L202 -125Q200 -119 207 -116Q235 -106 255 -90T275 -45Q275 -26 265 -9T202 33Q121 72 84 118T48 239Q48 310 76 366T154 455T273 487Z" horiz-adv-x="419" unicode="ς"/>
			<glyph d="M330 477H506Q518 477 515 466L510 442Q507 428 496 428H402V426Q440 399 440 320Q440 274 424 206T388 98Q330 -10 204 -10Q134 -10 91 30T49 146Q49 194 60 251Q83 367 143 422T330 477ZM317 429Q224 429 174 384T106 221Q100 185 100 157Q100 38 209 38Q282 38 328 96Q355 129 372 200T389 322Q389 406 344 429Z" horiz-adv-x="504" unicode="σ"/>
			<glyph d="M66 477H393Q402 477 400 468L396 441Q395 431 385 431H248Q242 431 240 423L183 106L178 67Q178 54 185 46T219 38Q243 38 265 44Q272 46 273 40L280 10Q281 3 275 1Q240 -10 207 -10Q127 -10 127 62L131 97L189 424Q190 431 183 431H57Q49 431 50 440L55 467Q56 477 66 477Z" horiz-adv-x="389" unicode="τ"/>
			<glyph d="M111 481Q178 481 178 427L174 394L138 191Q132 157 132 131Q132 38 230 38Q293 38 332 73T388 205L434 467Q435 477 445 477H478Q480 477 483 475T485 467L438 195Q421 96 372 43T226 -10Q80 -10 80 125Q80 146 87 186L123 393L125 415Q125 433 104 433Q94 433 96 443L101 474Q102 481 111 481Z" horiz-adv-x="518" unicode="υ"/>
			<glyph d="M359 610H393Q401 610 400 600L380 490Q573 485 573 308Q573 211 537 139T439 28T290 -14L262 -171Q260 -180 252 -180H218Q210 -180 211 -171L239 -14Q46 -8 46 169Q46 247 76 321T173 440T329 490L349 600Q351 610 359 610ZM321 445Q251 440 202 405T126 310T98 171Q98 34 247 33ZM372 445L298 33Q405 38 463 112T522 306Q522 444 372 445Z" horiz-adv-x="612" unicode="φ"/>
			<glyph d="M98 483Q127 481 149 465T188 394L248 206L426 471Q431 477 439 477H479Q481 477 484 474T483 466L266 155L344 -81Q353 -108 361 -121T394 -135H406Q416 -135 415 -146L411 -173Q409 -183 397 -183H388Q354 -183 333 -168T302 -119L228 112L23 -173Q18 -180 7 -180H-30Q-34 -180 -35 -177T-33 -170L209 162L142 368Q131 400 120 417T87 438Q80 439 82 450L88 475Q90 483 98 483Z" horiz-adv-x="498" unicode="χ"/>
			<glyph d="M376 610H409Q418 610 416 600L314 31Q394 32 438 68T498 190L547 467Q548 477 558 477H590Q600 477 598 468L548 183Q531 86 474 38T306 -13L278 -171Q276 -180 267 -180H235Q225 -180 227 -171L255 -14Q83 -3 83 134L88 186L123 388L126 415Q126 433 105 433Q95 433 97 443L102 474Q103 481 112 481H116Q179 481 179 428L175 393L139 192L133 142Q133 92 161 62T263 31L365 600Q367 610 376 610Z" horiz-adv-x="630" unicode="ψ"/>
			<glyph d="M201 481Q208 487 214 481L234 457Q239 453 230 444Q169 392 137 305T105 141Q105 35 182 35Q223 35 256 77T304 202L321 300Q324 310 333 310H370Q379 310 377 300L363 226Q353 176 353 141Q353 96 371 65T425 35Q462 35 492 64T542 158T563 296Q563 379 518 446Q512 455 519 460L547 481Q554 486 559 481Q585 453 600 405T615 300Q615 170 563 80T418 -10Q376 -10 348 16T314 91H312Q285 37 252 13T175 -10Q122 -10 88 26T54 136Q54 227 93 328T201 481Z" horiz-adv-x="663" unicode="ω"/>
			<glyph d="M135 477H167Q177 477 175 467L107 94L103 67Q103 39 141 39Q159 39 176 44Q184 46 186 40L194 10Q196 4 188 0Q167 -10 130 -10Q53 -10 53 58L57 97L124 467Q125 477 135 477ZM262 680H299Q309 680 307 670L298 617Q296 607 287 607H250Q240 607 242 617L251 670Q253 680 262 680ZM70 680H107Q117 680 115 670L106 617Q104 607 95 607H58Q48 607 50 617L59 670Q61 680 70 680Z" horiz-adv-x="254" unicode="ϊ"/>
			<glyph d="M111 481Q178 481 178 427L174 394L138 191Q132 157 132 131Q132 38 230 38Q293 38 332 73T388 205L434 467Q435 477 445 477H478Q480 477 483 475T485 467L438 195Q421 96 372 43T226 -10Q80 -10 80 125Q80 146 87 186L123 393L125 415Q125 433 104 433Q94 433 96 443L101 474Q102 481 111 481ZM390 680H427Q437 680 435 670L426 617Q424 607 415 607H378Q368 607 370 617L379 670Q381 680 390 680ZM198 680H235Q245 680 243 670L234 617Q232 607 223 607H186Q176 607 178 617L187 670Q189 680 198 680Z" horiz-adv-x="518" unicode="ϋ"/>
			<glyph d="M289 487Q363 487 402 444T442 326Q442 276 427 210T395 108Q339 -10 204 -10Q130 -10 90 33T51 151Q51 201 65 267T98 369Q154 487 289 487ZM281 439Q188 439 143 348Q129 320 115 260T102 161Q102 38 212 38Q305 38 350 129Q364 157 377 217T391 316Q391 439 281 439ZM330 700H376Q380 700 380 696T379 690L303 567Q298 558 289 558H263Q253 558 258 568L316 690Q321 700 330 700Z" horiz-adv-x="486" unicode="ό"/>
			<glyph d="M111 481Q178 481 178 427L174 394L138 191Q132 157 132 131Q132 38 230 38Q293 38 332 73T388 205L434 467Q435 477 445 477H478Q480 477 483 475T485 467L438 195Q421 96 372 43T226 -10Q80 -10 80 125Q80 146 87 186L123 393L125 415Q125 433 104 433Q94 433 96 443L101 474Q102 481 111 481ZM329 700H375Q379 700 379 696T378 690L302 567Q297 558 288 558H262Q252 558 257 568L315 690Q320 700 329 700Z" horiz-adv-x="518" unicode="ύ"/>
			<glyph d="M201 481Q208 487 214 481L234 457Q239 453 230 444Q169 392 137 305T105 141Q105 35 182 35Q223 35 256 77T304 202L321 300Q324 310 333 310H370Q379 310 377 300L363 226Q353 176 353 141Q353 96 371 65T425 35Q462 35 492 64T542 158T563 296Q563 379 518 446Q512 455 519 460L547 481Q554 486 559 481Q585 453 600 405T615 300Q615 170 563 80T418 -10Q376 -10 348 16T314 91H312Q285 37 252 13T175 -10Q122 -10 88 26T54 136Q54 227 93 328T201 481ZM445 700H491Q495 700 495 696T494 690L418 567Q413 558 404 558H378Q368 558 373 568L431 690Q436 700 445 700Z" horiz-adv-x="663" unicode="ώ"/>
			<glyph d="M181 680H554Q564 680 562 670L557 639Q556 629 545 629H222Q217 629 215 623L172 377Q171 370 177 370H454Q464 370 462 360L457 330Q456 320 445 320H168Q163 320 161 314L115 57Q114 51 120 51H443Q453 51 451 41L446 10Q445 0 434 0H62Q52 0 54 10L170 670Q172 680 181 680ZM287 888H323Q330 888 337 878L397 774Q400 769 398 766T392 764H367Q361 764 354 774L282 878Q280 881 281 884T287 888Z" horiz-adv-x="535" unicode="Ѐ"/>
			<glyph d="M181 680H554Q564 680 562 670L557 639Q556 629 545 629H222Q217 629 215 623L172 377Q171 370 177 370H454Q464 370 462 360L457 330Q456 320 445 320H168Q163 320 161 314L115 57Q114 51 120 51H443Q453 51 451 41L446 10Q445 0 434 0H62Q52 0 54 10L170 670Q172 680 181 680ZM479 861H516Q526 861 524 851L515 797Q513 787 504 787H467Q457 787 459 797L468 851Q470 861 479 861ZM287 861H324Q334 861 332 851L323 797Q321 787 312 787H275Q265 787 267 797L276 851Q278 861 287 861Z" horiz-adv-x="535" unicode="Ё"/>
			<glyph d="M112 680H552Q563 680 561 670L556 639Q554 629 544 629H357Q350 629 350 624L308 386Q307 379 312 381Q406 416 485 416Q574 416 621 369T669 236Q669 136 601 68T416 0H389Q377 0 379 11L384 40Q386 51 396 51H426Q512 51 564 103T616 236Q616 297 580 331T476 365Q403 365 306 330Q298 327 296 318L241 10Q239 0 231 0H197Q186 0 188 10L297 623Q298 629 291 629H104Q94 629 96 639L101 670Q103 680 112 680Z" horiz-adv-x="714" unicode="Ђ"/>
			<glyph d="M181 680H537Q548 680 546 670L540 639Q539 629 528 629H222Q217 629 215 623L107 10Q105 0 97 0H63Q52 0 54 10L170 671Q172 680 181 680ZM439 888H477Q482 888 482 884T480 878L373 774Q363 764 355 764H330Q326 764 325 767T328 775L422 878Q432 888 439 888Z" horiz-adv-x="480" unicode="Ѓ"/>
			<glyph d="M365 690Q501 690 547 567Q550 558 542 554L513 540Q503 536 500 544Q480 590 448 615T361 640Q244 640 189 531Q157 468 142 376Q141 370 148 370H392Q401 370 399 360L394 329Q393 320 383 320H139Q132 320 131 315Q118 230 118 196Q118 40 259 40Q360 40 429 137Q436 145 443 141L470 126Q476 121 471 113Q393 -10 251 -10Q65 -10 65 196Q65 260 84 360T130 526Q161 606 222 648T365 690Z" horiz-adv-x="540" unicode="Є"/>
			<glyph d="M360 690Q398 690 449 677T539 631Q546 625 540 617L523 594Q516 584 506 591Q437 639 352 639Q278 639 230 594T183 484Q183 437 212 409T316 371L345 367Q418 357 460 322T503 215Q503 112 432 51T240 -10Q181 -10 123 13T37 69Q32 75 38 82L61 108Q68 115 75 109Q155 41 253 41Q340 41 394 87T449 207Q449 254 421 280T318 317L289 321Q128 345 128 477Q128 571 192 630T360 690Z" horiz-adv-x="572" unicode="Ѕ"/>
			<glyph d="M181 680H215Q225 680 223 670L107 10Q105 0 96 0H62Q52 0 54 10L170 670Q172 680 181 680Z" horiz-adv-x="234" unicode="І"/>
			<glyph d="M181 680H215Q225 680 223 670L107 10Q105 0 96 0H62Q52 0 54 10L170 670Q172 680 181 680ZM301 861H338Q348 861 346 851L337 797Q335 787 326 787H289Q279 787 281 797L290 851Q292 861 301 861ZM109 861H146Q156 861 154 851L145 797Q143 787 134 787H97Q87 787 89 797L98 851Q100 861 109 861Z" horiz-adv-x="234" unicode="Ї"/>
			<glyph d="M407 680H441Q451 680 449 670L366 201Q348 102 297 46T145 -10Q107 -10 69 6T11 48Q9 50 9 54Q9 59 13 62L38 82Q46 88 53 81Q100 41 150 41Q285 41 314 203L396 670Q398 680 407 680Z" horiz-adv-x="459" unicode="Ј"/>
			<glyph d="M265 680H622Q633 680 631 671L582 396Q581 390 587 390H762Q845 390 890 347T936 230Q936 123 871 61T701 0H469Q465 0 462 3T461 10L569 623Q571 629 564 629H306Q301 629 299 623L257 388Q223 191 164 94T-4 -3H-29Q-32 -3 -35 0T-37 9L-31 39Q-29 48 -21 48H-10Q37 48 72 72T143 172T208 414L254 671Q256 680 265 680ZM579 339Q574 339 572 333L522 57Q521 51 527 51H704Q784 51 833 98T883 229Q883 281 848 310T752 339Z" horiz-adv-x="982" unicode="Љ"/>
			<glyph d="M181 680H215Q225 680 223 670L173 386Q172 380 178 380H502Q508 380 509 386L560 670Q562 680 571 680H605Q615 680 613 670L563 386Q562 380 568 380H735Q818 380 863 338T908 227Q908 121 843 60T674 0H452Q442 0 444 10L498 323Q500 329 493 329H169Q164 329 162 323L107 10Q105 0 96 0H62Q52 0 54 10L170 670Q172 680 181 680ZM560 329Q555 329 553 323L505 57Q504 51 510 51H676Q758 51 807 97T856 224Q856 274 823 301T728 329Z" horiz-adv-x="954" unicode="Њ"/>
			<glyph d="M112 680H552Q563 680 561 670L556 639Q554 629 544 629H357Q350 629 350 624L309 390Q308 379 319 383Q432 416 489 416Q685 416 653 239L612 10Q610 0 601 0H567Q556 0 558 10L598 239Q608 296 585 330T476 365Q408 365 313 332Q298 326 295 313L241 10Q239 0 231 0H197Q186 0 188 10L297 623Q298 629 291 629H104Q94 629 96 639L101 670Q103 680 112 680Z" horiz-adv-x="725" unicode="Ћ"/>
			<glyph d="M589 683H605Q609 683 612 679T614 672L609 643Q608 634 597 634H589Q566 634 547 625T502 572L424 442Q378 365 331 352V348Q374 337 395 258L435 117Q446 79 459 63T503 47H518Q529 47 527 36L522 6Q521 -3 511 -3H491Q455 -3 427 13T384 90L339 256Q332 283 313 301T241 320H168Q163 320 161 314L107 10Q105 0 96 0H63Q52 0 54 10L170 670Q172 680 181 680H215Q225 680 223 670L171 376Q170 370 176 370H251Q321 370 373 456L461 603Q482 637 507 660T589 683ZM446 888H484Q489 888 489 884T487 878L380 774Q370 764 362 764H337Q333 764 332 767T335 775L429 878Q439 888 446 888Z" horiz-adv-x="574" unicode="Ќ"/>
			<glyph d="M181 680H215Q225 680 223 671L123 103H126L571 675Q574 680 581 680H619Q630 680 628 671L513 10Q511 0 502 0H468Q464 0 461 3T459 10L559 578H556L112 10Q104 0 96 0H63Q52 0 54 10L170 671Q172 680 181 680ZM327 888H363Q370 888 377 878L437 774Q440 769 438 766T432 764H407Q401 764 394 774L322 878Q320 881 321 884T327 888Z" horiz-adv-x="639" unicode="Ѝ"/>
			<glyph d="M107 680H144Q152 680 155 671L274 255H277L522 671Q527 680 535 680H575Q586 680 579 668L240 104Q208 51 175 24T93 -3H51Q41 -3 43 8L48 38Q50 47 59 47H89Q116 47 141 59T197 123L237 192L100 669Q97 680 107 680ZM275 878Q281 880 283 872Q298 803 353 803Q416 803 451 873Q454 880 461 878L484 872Q490 870 486 862Q442 762 353 762Q305 762 278 789T246 864Q245 873 252 874Z" horiz-adv-x="528" unicode="Ў"/>
			<glyph d="M181 680H214Q225 680 223 670L115 57Q114 51 120 51H438Q444 51 445 57L553 670Q555 680 563 680H597Q607 680 605 670L489 10Q487 0 478 0H302Q296 0 294 -6L269 -152Q267 -161 257 -161H226Q216 -161 218 -152L243 -6Q245 0 239 0H63Q52 0 54 10L170 670Q172 680 181 680Z" horiz-adv-x="616" unicode="Џ"/>
			<glyph d="M355 680H387Q395 680 397 670L507 10Q509 0 498 0H466Q456 0 455 10L427 180H142L53 10Q48 0 39 0H1Q-9 0 -4 10L342 670Q347 680 355 680ZM358 593L168 230H419L360 593Z" horiz-adv-x="575" unicode="А"/>
			<glyph d="M181 680H544Q555 680 553 670L547 639Q546 629 536 629H222Q217 629 215 623L173 385Q172 379 178 379H345Q426 379 472 338T519 227Q519 121 454 60T284 0H63Q59 0 56 3T54 10L170 671Q172 680 181 680ZM170 329Q165 329 163 323L115 57Q114 51 120 51H286Q367 51 416 97T466 224Q466 274 433 301T338 329Z" horiz-adv-x="584" unicode="Б"/>
			<glyph d="M181 680H396Q475 680 517 642T560 537Q560 467 525 418T429 351V347Q463 337 489 304T516 220Q516 118 454 59T281 0H62Q52 0 54 10L170 670Q172 680 181 680ZM168 321Q163 321 161 315L115 56Q114 50 119 50H292Q372 50 418 95T464 212Q464 262 432 291T341 321ZM222 630Q217 630 215 624L172 377Q171 371 176 371H345Q420 371 464 415T508 526Q508 575 477 602T391 630Z" horiz-adv-x="583" unicode="В"/>
			<glyph d="M181 680H537Q548 680 546 670L540 639Q539 629 528 629H222Q217 629 215 623L107 10Q105 0 97 0H63Q52 0 54 10L170 671Q172 680 181 680Z" horiz-adv-x="480" unicode="Г"/>
			<glyph d="M256 680H620Q630 680 628 671L519 57Q518 51 524 51H590Q600 51 598 41L564 -152Q562 -161 553 -161H520Q511 -161 513 -152L538 -6Q540 0 534 0H31Q25 0 23 -6L-2 -152Q-4 -161 -13 -161H-46Q-49 -161 -51 -158T-53 -152L-21 41Q-19 51 -8 51H35Q44 51 49 58Q121 155 160 280T238 631L245 671Q247 680 256 680ZM297 629Q292 629 290 623L281 575Q243 376 207 257T111 57Q107 51 113 51H459Q465 51 466 57L566 623Q568 629 561 629Z" horiz-adv-x="652" unicode="Д"/>
			<glyph d="M181 680H554Q564 680 562 670L557 639Q556 629 545 629H222Q217 629 215 623L172 377Q171 370 177 370H454Q464 370 462 360L457 330Q456 320 445 320H168Q163 320 161 314L115 57Q114 51 120 51H443Q453 51 451 41L446 10Q445 0 434 0H62Q52 0 54 10L170 670Q172 680 181 680Z" horiz-adv-x="535" unicode="Е"/>
			<glyph d="M123 683H138Q170 683 196 667T240 594L279 458Q304 370 369 370H433Q439 370 440 376L491 670Q493 680 502 680H535Q546 680 544 670L493 376Q492 370 498 370H558Q628 370 680 456L768 606Q789 641 813 662T895 683H911Q922 683 920 672L915 643Q914 634 903 634H895Q871 634 853 626T808 572L731 442Q708 402 687 380T640 351V347Q682 332 702 258L741 117Q752 79 765 63T810 47H825Q836 47 834 36L828 6Q827 -3 817 -3H794Q759 -3 733 13T691 90L646 256Q638 284 619 302T547 320H489Q484 320 482 314L428 10Q426 0 417 0H384Q373 0 375 10L429 314Q431 320 424 320H359Q318 320 291 306T244 256L140 80Q112 33 84 15T6 -3H-18Q-29 -3 -27 8L-21 38Q-19 47 -10 47H5Q32 47 51 57T98 114L184 261Q203 294 224 318T283 351V355Q250 377 229 450L194 569Q183 605 169 619T123 634H115Q105 634 107 644L112 674Q114 683 123 683Z" horiz-adv-x="880" unicode="Ж"/>
			<glyph d="M325 690Q414 690 460 650T507 538Q507 476 472 425T377 352V348Q418 334 440 298T462 215Q462 112 396 51T213 -10Q150 -10 93 14T10 73Q4 79 12 87L37 111Q45 117 51 109Q78 80 121 60T214 41Q303 41 356 88T409 213Q409 265 372 293T272 322H202Q198 322 195 325T194 333L199 364Q200 372 211 372H280Q351 372 403 417T455 534Q455 583 418 611T320 640Q232 640 147 574Q136 569 132 574L114 599Q109 606 118 612Q221 690 325 690Z" horiz-adv-x="530" unicode="З"/>
			<glyph d="M181 680H215Q225 680 223 671L123 103H126L571 675Q574 680 581 680H619Q630 680 628 671L513 10Q511 0 502 0H468Q464 0 461 3T459 10L559 578H556L112 10Q104 0 96 0H63Q52 0 54 10L170 671Q172 680 181 680Z" horiz-adv-x="639" unicode="И"/>
			<glyph d="M181 680H215Q225 680 223 671L123 103H126L571 675Q574 680 581 680H619Q630 680 628 671L513 10Q511 0 502 0H468Q464 0 461 3T459 10L559 578H556L112 10Q104 0 96 0H63Q52 0 54 10L170 671Q172 680 181 680ZM335 878Q341 880 343 872Q358 803 413 803Q476 803 511 873Q514 880 521 878L544 872Q550 870 546 862Q502 762 413 762Q365 762 338 789T306 864Q305 873 312 874Z" horiz-adv-x="639" unicode="Й"/>
			<glyph d="M589 683H605Q609 683 612 679T614 672L609 643Q608 634 597 634H589Q566 634 547 625T502 572L424 442Q378 365 331 352V348Q374 337 395 258L435 117Q446 79 459 63T503 47H518Q529 47 527 36L522 6Q521 -3 511 -3H491Q455 -3 427 13T384 90L339 256Q332 283 313 301T241 320H168Q163 320 161 314L107 10Q105 0 96 0H63Q52 0 54 10L170 670Q172 680 181 680H215Q225 680 223 670L171 376Q170 370 176 370H251Q321 370 373 456L461 603Q482 637 507 660T589 683Z" horiz-adv-x="574" unicode="К"/>
			<glyph d="M265 680H621Q632 680 630 671L514 10Q512 0 504 0H469Q465 0 462 3T461 10L569 623Q571 629 564 629H306Q301 629 299 623L257 388Q223 191 164 94T-4 -3H-29Q-32 -3 -35 0T-37 9L-31 38Q-29 47 -21 47H-10Q76 47 125 135T208 414L254 671Q256 680 265 680Z" horiz-adv-x="641" unicode="Л"/>
			<glyph d="M181 680H211Q220 680 223 670L351 176H354L656 670Q662 680 670 680H706Q716 680 714 670L598 10Q596 0 587 0H556Q546 0 548 10L644 550H641L370 112Q364 101 352 101H333Q321 101 318 112L203 552H200L104 10Q102 0 93 0H62Q52 0 54 10L170 670Q172 680 181 680Z" horiz-adv-x="725" unicode="М"/>
			<glyph d="M181 680H215Q225 680 223 670L171 376Q170 370 176 370H501Q507 370 508 376L560 670Q562 680 571 680H605Q615 680 613 670L497 10Q495 0 486 0H452Q442 0 444 10L497 314Q499 320 493 320H168Q163 320 161 314L107 10Q105 0 96 0H62Q52 0 54 10L170 670Q172 680 181 680Z" horiz-adv-x="624" unicode="Н"/>
			<glyph d="M374 690Q461 690 510 639T560 497Q560 434 537 313T488 140Q416 -10 251 -10Q164 -10 114 40T65 183Q65 246 87 366T137 540Q209 690 374 690ZM366 639Q243 639 186 523Q161 472 139 359T118 189Q118 118 154 79T259 41Q382 41 439 157Q464 208 485 320T507 491Q507 562 470 600T366 639Z" horiz-adv-x="586" unicode="О"/>
			<glyph d="M181 680H596Q607 680 605 670L489 10Q487 0 479 0H445Q435 0 437 10L545 623Q547 629 540 629H222Q217 629 215 623L107 10Q105 0 96 0H63Q52 0 54 10L170 670Q172 680 181 680Z" horiz-adv-x="616" unicode="П"/>
			<glyph d="M181 680H399Q480 680 524 640T569 530Q569 420 503 358T332 296H164Q157 296 157 290L107 10Q105 0 96 0H62Q52 0 54 10L170 670Q172 680 181 680ZM222 629Q217 629 215 623L167 353Q166 347 172 347H336Q418 348 467 394T517 523Q517 573 484 601T389 629Z" horiz-adv-x="561" unicode="Р"/>
			<glyph d="M363 690Q424 690 471 655T537 559Q540 551 532 548L504 535Q495 530 491 539Q454 639 357 639Q243 639 185 523Q160 472 138 359T117 189Q117 119 153 80T257 41Q357 41 424 140Q429 147 436 144L464 128Q471 124 466 115Q388 -10 249 -10Q163 -10 113 40T64 183Q64 245 87 365T136 540Q169 608 222 649T363 690Z" horiz-adv-x="537" unicode="С"/>
			<glyph d="M112 680H553Q563 680 561 670L555 639Q553 629 544 629H355Q351 629 349 623L240 10Q238 0 229 0H196Q186 0 188 10L296 623Q298 629 292 629H103Q94 629 96 639L101 670Q103 680 112 680Z" horiz-adv-x="501" unicode="Т"/>
			<glyph d="M107 680H144Q152 680 155 671L274 255H277L522 671Q527 680 535 680H575Q586 680 579 668L240 104Q208 51 175 24T93 -3H51Q41 -3 43 8L48 38Q50 47 59 47H89Q116 47 141 59T197 123L237 192L100 669Q97 680 107 680Z" horiz-adv-x="528" unicode="У"/>
			<glyph d="M424 690H458Q469 690 467 682L458 629Q457 623 463 623Q577 616 637 553T698 390Q698 255 605 168T367 80Q362 80 360 74L347 0Q345 -10 336 -10H301Q297 -10 294 -7T293 0L306 74Q308 80 301 80Q187 87 127 150T67 319Q67 451 159 536T397 623Q403 623 404 629L413 682Q415 690 424 690ZM388 574Q273 572 196 502T120 321Q120 237 168 186T310 129Q316 129 317 135L393 568Q395 574 388 574ZM455 574Q449 574 447 568L371 135Q370 129 376 129Q490 132 567 203T645 388Q645 469 596 519T455 574Z" horiz-adv-x="716" unicode="Ф"/>
			<glyph d="M141 680H180Q188 680 191 671L294 411H295L491 671Q497 680 505 680H546Q550 680 551 676T550 669L317 356L453 11Q455 7 453 3T447 0H409Q401 0 398 9L281 302H280L57 9Q51 0 45 0H1Q-3 0 -4 3T-3 11L258 357L135 669Q130 680 141 680Z" horiz-adv-x="523" unicode="Х"/>
			<glyph d="M181 680H214Q225 680 223 670L115 57Q114 51 120 51H438Q444 51 445 57L553 670Q555 680 563 680H596Q607 680 605 670L497 57Q496 51 502 51H568Q572 51 575 48T577 41L544 -152Q542 -161 533 -161H500Q490 -161 492 -152L517 -6Q519 0 513 0H63Q52 0 54 10L170 670Q172 680 181 680Z" horiz-adv-x="629" unicode="Ц"/>
			<glyph d="M167 680H200Q211 680 209 671L168 438Q156 370 183 337T282 305Q368 305 459 341Q465 343 467 351L523 671Q525 680 533 680H567Q578 680 576 671L460 10Q458 0 450 0H415Q411 0 408 3T407 10L455 287Q456 293 449 291Q348 256 266 256Q83 256 115 440L156 671Q158 680 167 680Z" horiz-adv-x="587" unicode="Ч"/>
			<glyph d="M181 680H214Q225 680 223 670L115 57Q114 51 120 51H389Q395 51 396 57L504 670Q506 680 514 680H549Q560 680 558 670L450 57Q449 51 455 51H724Q730 51 731 57L839 670Q841 680 849 680H883Q894 680 892 670L776 10Q774 0 765 0H63Q52 0 54 10L170 670Q172 680 181 680Z" horiz-adv-x="903" unicode="Ш"/>
			<glyph d="M181 680H214Q225 680 223 670L115 57Q114 51 120 51H389Q395 51 396 57L504 670Q506 680 514 680H549Q560 680 558 670L450 57Q449 51 455 51H724Q730 51 731 57L839 670Q841 680 849 680H883Q894 680 892 670L784 57Q783 51 789 51H854Q864 51 862 41L829 -152Q827 -161 818 -161H786Q776 -161 778 -152L803 -6Q805 0 799 0H63Q52 0 54 10L170 670Q172 680 181 680Z" horiz-adv-x="916" unicode="Щ"/>
			<glyph d="M110 680H321Q332 680 330 671L281 396Q280 390 286 390H461Q544 390 589 347T635 230Q635 124 569 62T400 0H168Q157 0 159 10L268 623Q269 629 263 629H103Q99 629 96 632T95 639L100 672Q101 680 110 680ZM277 339Q272 339 270 333L221 57Q220 51 226 51H403Q483 51 532 99T582 229Q582 281 547 310T451 339Z" horiz-adv-x="681" unicode="Ъ"/>
			<glyph d="M181 680H215Q225 680 223 671L176 396Q175 390 181 390H344Q427 390 473 346T519 230Q519 124 453 62T283 0H63Q52 0 54 10L170 671Q172 680 181 680ZM172 339Q167 339 165 333L115 57Q114 51 120 51H287Q367 51 416 98T466 229Q466 281 431 310T335 339ZM708 680H742Q753 680 751 671L635 10Q633 0 624 0H590Q586 0 583 3T581 10L697 671Q699 680 708 680Z" horiz-adv-x="762" unicode="Ы"/>
			<glyph d="M181 680H215Q225 680 223 671L176 396Q175 390 181 390H354Q437 390 483 346T529 230Q529 124 463 62T293 0H63Q52 0 54 10L170 671Q172 680 181 680ZM172 339Q167 339 165 333L115 57Q114 51 120 51H297Q377 51 426 98T476 229Q476 281 441 310T345 339Z" horiz-adv-x="575" unicode="Ь"/>
			<glyph d="M321 690Q412 690 463 639T514 490Q514 416 486 283T415 91Q376 37 327 13T210 -10Q141 -10 92 22T26 115Q22 124 32 128L61 141Q71 145 74 137Q107 40 215 40Q323 40 379 130Q417 189 439 314Q441 320 434 320H195Q186 320 188 330L193 362Q194 370 204 370H442Q449 370 450 376Q461 444 461 491Q461 560 424 600T315 640Q272 640 233 622T150 543Q144 535 136 539L108 556Q100 561 107 568Q189 690 321 690Z" horiz-adv-x="540" unicode="Э"/>
			<glyph d="M590 690Q675 690 724 642T773 507Q773 449 749 317T698 132Q625 -10 474 -10Q389 -10 339 37T289 168Q289 223 304 315Q306 321 299 321H168Q163 321 161 315L107 10Q105 0 97 0H63Q59 0 56 3T54 10L171 671Q173 680 182 680H216Q226 680 224 671L172 376Q171 370 177 370H307Q313 370 314 376Q338 501 363 548Q437 690 590 690ZM585 639Q465 639 412 533Q387 483 364 357T342 175Q342 114 377 77T477 41Q596 41 649 147Q674 197 697 323T720 504Q720 566 686 602T585 639Z" horiz-adv-x="783" unicode="Ю"/>
			<glyph d="M342 680H570Q581 680 579 670L463 10Q461 0 452 0H418Q407 0 409 10L459 293Q461 299 454 299H349Q282 299 241 234L145 85Q114 37 86 17T9 -3H-20Q-31 -3 -29 8L-24 39Q-22 48 -13 48H6Q32 48 51 59T101 115L182 239Q217 294 252 307V311Q192 321 152 358T113 465Q113 562 178 621T342 680ZM344 629Q265 629 215 585T166 465Q166 412 201 381T294 350H463Q469 350 470 356L517 623Q519 629 512 629Z" horiz-adv-x="590" unicode="Я"/>
			<glyph d="M292 487Q379 487 411 451T429 330L372 10Q370 0 361 0H332Q322 0 324 10L333 60H332Q312 29 271 9T177 -10Q117 -10 81 22T46 107Q46 187 97 228T246 270H362Q369 270 370 276L379 328Q390 390 370 415T281 440Q207 440 159 402Q149 394 144 404L131 426Q127 433 134 439Q196 487 292 487ZM247 227Q96 227 96 113Q96 77 121 56T195 35Q253 35 296 66T347 147L360 221Q362 227 356 227Z" horiz-adv-x="492" unicode="а"/>
			<glyph d="M480 689H512Q514 689 517 687T517 680Q509 650 491 631T415 607Q319 600 283 588T220 554Q196 534 180 504T144 385H147Q207 473 311 473Q457 473 457 302Q457 246 439 180T392 72Q334 -10 226 -10Q149 -10 107 34T65 158Q65 213 96 368Q114 460 135 510T202 598Q232 622 279 636T420 655Q461 658 469 683Q470 689 480 689ZM295 425Q181 425 134 264Q116 205 116 165Q116 97 147 67T228 38Q317 38 358 111Q378 146 392 203T406 301Q406 361 381 393T295 425Z" horiz-adv-x="504" unicode="б"/>
			<glyph d="M144 477H333Q390 477 420 448T450 373Q450 281 363 247V243Q421 226 421 157Q421 84 377 42T257 0H61Q57 0 54 3T52 10L132 468Q134 477 144 477ZM146 222Q141 222 139 216L110 52Q109 46 115 46H259Q309 46 339 75T370 152Q370 184 348 203T287 222ZM183 431Q178 431 176 426L149 273Q147 268 154 268H295Q338 268 369 297T400 369Q400 431 321 431Z" horiz-adv-x="490" unicode="в"/>
			<glyph d="M143 477H408Q418 477 416 468L411 438Q410 429 399 429H182Q177 429 175 423L102 10Q100 0 90 0H60Q56 0 53 3T52 10L132 468Q133 477 143 477Z" horiz-adv-x="390" unicode="г"/>
			<glyph d="M195 477H478Q489 477 487 468L414 54Q413 48 419 48H474Q483 48 481 39L453 -126Q451 -135 442 -135H413Q403 -135 405 -126L425 -6Q427 0 421 0H30Q24 0 22 -6L1 -126Q-1 -135 -9 -135H-40Q-48 -135 -46 -126L-19 39Q-17 48 -8 48H27Q42 48 51 60Q95 121 120 183T162 342L184 468Q186 477 195 477ZM233 429Q228 429 226 423L210 330Q179 154 103 54Q101 52 102 50T105 48H356Q362 48 363 54L428 423Q430 429 423 429Z" horiz-adv-x="542" unicode="д"/>
			<glyph d="M286 487Q352 487 393 446T434 330Q434 292 424 237Q422 227 412 227H113Q108 227 106 221Q100 195 100 155Q100 99 129 68T213 38Q294 38 354 102Q361 109 368 104L385 85Q391 77 384 70Q351 34 305 12T206 -10Q131 -10 91 32T51 149Q51 203 62 262T95 364Q123 423 172 455T286 487ZM280 440Q235 440 198 416T141 350Q125 318 117 276Q116 270 121 270H373Q379 270 380 276Q386 303 386 327Q386 382 358 411T280 440Z" horiz-adv-x="476" unicode="е"/>
			<glyph d="M91 480H111Q182 480 203 399L219 336Q236 269 294 269H329Q335 269 336 275L370 468Q372 477 382 477H412Q423 477 421 468L387 275Q386 269 392 269H430Q486 269 525 336L573 419Q590 449 610 464T683 480H696Q707 480 705 470L701 444Q700 434 688 434H685Q657 434 643 426T612 389L567 314Q533 259 502 251V247Q544 237 556 179L571 112Q579 78 592 61T634 44H646Q656 44 654 34L649 7Q647 -3 638 -3H620Q542 -3 522 91L507 163Q495 221 422 221H384Q379 221 377 215L341 10Q339 0 329 0H299Q295 0 292 3T290 10L326 215Q328 221 321 221H281Q240 221 216 206T178 163L134 77Q116 42 93 19T15 -3H-10Q-21 -3 -19 8L-14 35Q-12 44 -2 44H5Q30 44 47 51T86 97L130 179Q146 208 168 228T212 251V255Q186 273 175 315L158 377Q151 401 139 417T93 434H82Q71 434 73 445L78 471Q80 480 91 480Z" horiz-adv-x="700" unicode="ж"/>
			<glyph d="M248 487Q309 487 350 461T392 376Q392 331 369 296T302 247V243Q330 236 346 211T363 154Q363 77 310 33T169 -10Q63 -10 4 52Q-1 59 7 67L27 88Q30 91 34 91Q39 91 41 88Q87 37 170 37Q231 37 271 66T311 151Q311 186 287 203T220 221H160Q151 221 153 232L157 258Q159 268 168 268H230Q274 268 307 296T341 370Q341 403 314 421T239 440Q166 440 109 398Q98 391 96 398L82 423Q78 431 85 435Q156 487 248 487Z" horiz-adv-x="436" unicode="з"/>
			<glyph d="M144 477H175Q185 477 183 468L118 94H121L435 472L445 477H479Q491 477 489 468L408 10Q406 0 396 0H366Q362 0 359 3T357 10L422 384H419L106 6L95 0H61Q57 0 54 3T52 10L132 468Q134 477 144 477Z" horiz-adv-x="534" unicode="и"/>
			<glyph d="M144 477H175Q185 477 183 468L118 94H121L435 472L445 477H479Q491 477 489 468L408 10Q406 0 396 0H366Q362 0 359 3T357 10L422 384H419L106 6L95 0H61Q57 0 54 3T52 10L132 468Q134 477 144 477ZM245 684Q252 686 253 679Q264 611 323 611Q385 611 420 680Q424 687 432 684L452 677Q458 675 455 667Q413 571 322 571Q227 571 216 669Q215 678 221 680Z" horiz-adv-x="534" unicode="й"/>
			<glyph d="M465 480H481Q491 480 489 470L484 444Q483 434 471 434H466Q446 434 429 427T389 382L343 306Q314 259 283 251V247Q325 237 337 179L352 112Q359 78 373 61T415 45H427Q437 45 435 35L430 7Q428 -3 420 -3H401Q324 -3 304 91L288 163Q275 221 203 221H145Q140 221 138 215L102 10Q100 0 90 0H61Q57 0 54 3T52 10L132 468Q135 477 144 477H173Q184 477 182 468L148 274Q147 268 153 268H211Q265 268 306 336L355 417Q373 446 394 463T465 480Z" horiz-adv-x="480" unicode="к"/>
			<glyph d="M196 477H474Q483 477 481 468L400 10Q398 0 390 0H358Q354 0 351 3T349 10L423 423Q425 429 418 429H233Q228 429 226 423L195 247Q174 127 130 62T11 -3H-11Q-21 -3 -19 8L-14 37Q-13 45 -3 45H3Q62 45 96 103T150 268L185 468Q187 477 196 477Z" horiz-adv-x="526" unicode="л"/>
			<glyph d="M144 477H175Q184 477 186 470L280 133H283L496 470Q501 477 510 477H545Q555 477 553 468L472 10Q470 0 461 0H431Q427 0 424 3T422 10L485 364H482L296 75Q290 66 281 66H260Q253 66 250 75L167 364H164L101 10Q99 0 90 0H61Q57 0 54 3T52 10L132 468Q134 477 144 477Z" horiz-adv-x="598" unicode="м"/>
			<glyph d="M144 477H174Q185 477 183 468L149 275Q148 269 154 269H386Q392 269 393 275L426 468Q428 477 437 477H468Q479 477 477 468L396 10Q394 0 385 0H355Q351 0 348 3T346 10L383 215Q385 221 378 221H145Q140 221 138 215L102 10Q100 0 90 0H61Q57 0 54 3T52 10L132 468Q134 477 144 477Z" horiz-adv-x="522" unicode="н"/>
			<glyph d="M289 487Q363 487 402 444T442 326Q442 276 427 210T395 108Q339 -10 204 -10Q130 -10 90 33T51 151Q51 201 65 267T98 369Q154 487 289 487ZM281 439Q188 439 143 348Q129 320 115 260T102 161Q102 38 212 38Q305 38 350 129Q364 157 377 217T391 316Q391 439 281 439Z" horiz-adv-x="486" unicode="о"/>
			<glyph d="M144 477H465Q475 477 473 468L392 10Q390 0 381 0H351Q347 0 344 3T342 10L415 423Q417 429 410 429H182Q177 429 175 423L102 10Q100 0 90 0H61Q57 0 54 3T52 10L132 468Q134 477 144 477Z" horiz-adv-x="518" unicode="п"/>
			<glyph d="M326 487Q393 487 428 446T464 332Q464 277 448 207T415 102Q362 -10 241 -10Q191 -10 159 12T114 71H113L71 -170Q69 -180 60 -180H28Q18 -180 20 -170L132 467Q134 477 143 477H175Q185 477 183 467L173 409H174Q227 487 326 487ZM309 439Q217 439 171 346Q160 323 146 255T132 149Q132 99 160 68T238 38Q328 38 371 125Q389 161 401 221T413 324Q413 439 309 439Z" horiz-adv-x="509" unicode="р"/>
			<glyph d="M286 487Q391 487 424 395Q427 385 420 381L395 367Q385 361 382 371Q356 439 281 439Q241 439 203 414T144 347Q129 316 115 263T102 161Q102 38 208 38Q282 38 337 107Q344 116 352 109L372 91Q379 85 372 76Q305 -10 201 -10Q128 -10 89 32T51 152Q51 202 63 261T96 364Q125 422 174 454T286 487Z" horiz-adv-x="449" unicode="с"/>
			<glyph d="M65 477H417Q420 477 423 474T425 467L420 438Q418 429 409 429H265Q260 429 258 423L185 10Q183 0 174 0H143Q139 0 136 3T134 10L207 423Q209 429 202 429H57Q48 429 49 439L53 469Q54 477 65 477Z" horiz-adv-x="399" unicode="т"/>
			<glyph d="M83 477H116Q126 477 127 467L198 80H199L406 467Q410 477 419 477H454Q465 477 460 467L182 -47Q144 -117 111 -148T27 -180H8Q-2 -180 0 -170L4 -142Q5 -132 16 -132H33Q56 -132 78 -118T137 -39L164 10L75 467Q73 477 83 477Z" horiz-adv-x="449" unicode="у"/>
			<glyph d="M378 680H409Q412 680 415 676T417 670L384 489Q383 483 389 483Q486 477 535 425T585 284Q585 209 555 146T473 45Q404 -6 303 -7Q298 -7 296 -13L268 -170Q266 -180 258 -180H227Q217 -180 219 -170L247 -13Q249 -7 242 -7Q149 -2 97 52T46 196Q46 269 73 329T151 427Q223 482 328 483Q334 483 335 489L368 670Q370 680 378 680ZM319 436Q231 435 174 387Q138 356 118 305T98 197Q98 127 135 86T249 41Q255 41 256 47L324 430Q326 436 319 436ZM383 436Q378 436 376 430L308 47Q307 41 313 41Q396 42 451 87Q490 118 511 170T533 282Q533 432 383 436Z" horiz-adv-x="623" unicode="ф"/>
			<glyph d="M104 477H139Q147 477 151 469L233 294H234L380 469Q387 477 394 477H432Q436 477 437 474T436 467L256 248L369 10Q373 0 362 0H328Q320 0 316 8L223 206H222L57 8Q50 0 43 0H4Q-1 0 -2 3T0 10L200 250L97 467Q96 471 98 474T104 477Z" horiz-adv-x="442" unicode="х"/>
			<glyph d="M144 477H173Q184 477 182 467L110 54Q109 48 115 48H343Q349 48 350 54L422 467Q424 477 434 477H465Q475 477 473 467L401 54Q400 48 406 48H459Q463 48 466 45T468 39L440 -126Q438 -135 428 -135H398Q389 -135 391 -126L412 -6Q414 0 408 0H61Q50 0 52 9L132 467Q134 477 144 477Z" horiz-adv-x="528" unicode="ц"/>
			<glyph d="M129 477H160Q170 477 168 468L142 316Q134 268 151 243T222 219Q279 219 354 248L360 254L398 468Q400 477 409 477H441Q451 477 449 468L368 10Q366 0 357 0H326Q322 0 319 3T317 10L350 196Q350 201 345 199Q261 171 207 171Q140 171 109 208T91 321L117 468Q119 477 129 477Z" horiz-adv-x="494" unicode="ч"/>
			<glyph d="M144 477H173Q184 477 182 467L110 54Q109 48 115 48H311Q317 48 318 54L390 467Q392 477 401 477H432Q436 477 439 474T441 467L369 54Q368 48 374 48H569Q575 48 576 54L648 467Q650 477 660 477H691Q695 477 698 474T700 467L619 9Q617 0 607 0H61Q50 0 52 9L132 467Q134 477 144 477Z" horiz-adv-x="745" unicode="ш"/>
			<glyph d="M144 477H173Q184 477 182 467L110 54Q109 48 115 48H311Q317 48 318 54L390 467Q392 477 401 477H432Q436 477 439 474T441 467L369 54Q368 48 374 48H569Q575 48 576 54L648 467Q650 477 660 477H691Q695 477 698 474T700 467L627 54Q626 48 632 48H685Q689 48 692 45T694 39L666 -126Q664 -135 654 -135H624Q615 -135 617 -126L638 -6Q640 0 634 0H61Q50 0 52 9L132 467Q134 477 144 477Z" horiz-adv-x="755" unicode="щ"/>
			<glyph d="M64 477H230Q240 477 238 468L206 282Q205 276 211 276H352Q411 276 443 243T476 158Q476 85 431 42T310 0H116Q112 0 109 3T107 10L180 423Q182 429 175 429H56Q47 429 49 439L53 469Q54 477 64 477ZM203 228Q198 228 196 222L166 54Q165 48 171 48H315Q364 48 395 76T426 154Q426 189 404 208T343 228Z" horiz-adv-x="534" unicode="ъ"/>
			<glyph d="M144 477H174Q185 477 183 468L150 282Q149 276 155 276H286Q346 276 378 243T411 158Q411 84 366 42T244 0H61Q57 0 54 3T52 10L132 468Q134 477 144 477ZM147 228Q142 228 140 222L110 54Q109 48 115 48H250Q299 48 330 76T361 154Q361 189 339 208T277 228ZM559 477H590Q600 477 598 467L518 10Q516 0 507 0H476Q465 0 467 10L547 467Q549 477 559 477Z" horiz-adv-x="643" unicode="ы"/>
			<glyph d="M144 477H174Q185 477 183 468L150 282Q149 276 155 276H296Q356 276 388 243T421 158Q421 84 376 42T254 0H61Q57 0 54 3T52 10L132 468Q134 477 144 477ZM147 228Q142 228 140 222L110 54Q109 48 115 48H260Q309 48 340 76T371 154Q371 189 349 208T287 228Z" horiz-adv-x="478" unicode="ь"/>
			<glyph d="M254 487Q327 487 366 444T406 325Q406 262 384 179T322 52Q265 -10 173 -10Q116 -10 77 15T23 84Q21 92 28 96L51 112Q59 117 64 108Q91 37 178 37Q217 37 253 59T311 124Q330 160 341 216Q343 222 336 222H166Q162 222 159 225T158 233L162 259Q163 267 174 267H345Q352 267 353 273L356 321Q356 375 329 408T249 441Q210 441 173 422T114 372Q107 363 100 368L81 386Q74 393 79 399Q107 441 152 464T254 487Z" horiz-adv-x="450" unicode="э"/>
			<glyph d="M475 487Q547 487 585 443T624 325Q624 261 606 189T556 74Q496 -10 388 -10Q315 -10 276 33T238 153Q238 186 243 215Q245 221 238 221H145Q140 221 138 215L102 10Q100 0 90 0H61Q57 0 54 3T52 10L132 468Q134 477 144 477H174Q185 477 183 468L149 275Q148 269 154 269H247Q253 269 254 275Q279 374 312 413Q375 487 475 487ZM466 439Q392 439 350 381Q326 348 307 280T289 159Q289 104 315 71T395 38Q469 38 515 99Q540 132 556 199T573 317Q573 439 466 439Z" horiz-adv-x="668" unicode="ю"/>
			<glyph d="M256 477H436Q446 477 444 467L364 10Q362 0 353 0H321Q317 0 314 3T312 10L344 190Q346 196 339 196H281Q219 196 185 138L151 79Q126 34 101 15T36 -3H10Q0 -3 2 8L7 37Q8 45 18 45H32Q51 45 68 53T106 100L128 141Q157 193 182 204V208Q140 216 114 245T88 320Q88 392 135 434T256 477ZM259 429Q206 429 172 401T139 321Q139 286 160 265T223 244H347Q353 244 354 250L386 423Q388 429 381 429Z" horiz-adv-x="489" unicode="я"/>
			<glyph d="M286 487Q352 487 393 446T434 330Q434 292 424 237Q422 227 412 227H113Q108 227 106 221Q100 195 100 155Q100 99 129 68T213 38Q294 38 354 102Q361 109 368 104L385 85Q391 77 384 70Q351 34 305 12T206 -10Q131 -10 91 32T51 149Q51 203 62 262T95 364Q123 423 172 455T286 487ZM280 440Q235 440 198 416T141 350Q125 318 117 276Q116 270 121 270H373Q379 270 380 276Q386 303 386 327Q386 382 358 411T280 440ZM213 700H244Q253 700 257 690L310 568Q312 564 309 561T303 558H283Q275 558 268 568L206 690Q204 693 206 696T213 700Z" horiz-adv-x="476" unicode="ѐ"/>
			<glyph d="M286 487Q352 487 393 446T434 330Q434 292 424 237Q422 227 412 227H113Q108 227 106 221Q100 195 100 155Q100 99 129 68T213 38Q294 38 354 102Q361 109 368 104L385 85Q391 77 384 70Q351 34 305 12T206 -10Q131 -10 91 32T51 149Q51 203 62 262T95 364Q123 423 172 455T286 487ZM280 440Q235 440 198 416T141 350Q125 318 117 276Q116 270 121 270H373Q379 270 380 276Q386 303 386 327Q386 382 358 411T280 440ZM396 680H433Q443 680 441 670L432 617Q430 607 421 607H384Q374 607 376 617L385 670Q387 680 396 680ZM204 680H241Q251 680 249 670L240 617Q238 607 229 607H192Q182 607 184 617L193 670Q195 680 204 680Z" horiz-adv-x="476" unicode="ё"/>
			<glyph d="M179 680H211Q221 680 219 670L208 611Q207 605 213 605H328Q338 605 336 594L332 569Q331 560 320 560H205Q200 560 198 554L173 411H174Q199 446 238 466T322 487Q399 487 433 439T452 305L398 10Q396 0 387 0H355Q346 0 348 10L399 292Q425 439 304 439Q253 439 209 401T155 305L102 10Q100 0 91 0H59Q50 0 52 10L148 554Q150 560 143 560H72Q62 560 64 571L68 596Q70 605 80 605H150Q156 605 157 611L168 670Q170 680 179 680Z" horiz-adv-x="519" unicode="ђ"/>
			<glyph d="M143 477H408Q418 477 416 468L411 438Q410 429 399 429H182Q177 429 175 423L102 10Q100 0 90 0H60Q56 0 53 3T52 10L132 468Q133 477 143 477ZM352 700H386Q390 700 391 697T390 690L284 568Q274 558 268 558H244Q234 558 241 568L333 690Q341 700 352 700Z" horiz-adv-x="390" unicode="ѓ"/>
			<glyph d="M284 487Q389 487 430 393Q433 385 427 381L401 367Q398 365 393 366T387 371Q367 408 343 423T279 439Q245 439 212 422T161 377Q147 356 134 325T117 274Q115 269 122 269H295Q305 269 303 258L298 230Q297 221 287 221H114Q107 221 106 215L102 156Q102 100 129 69T208 38Q290 38 343 109Q349 117 357 111L378 95Q384 89 379 82Q315 -10 201 -10Q136 -10 93 30T51 157Q51 214 68 284T116 398Q179 487 284 487Z" horiz-adv-x="450" unicode="є"/>
			<glyph d="M279 487Q308 487 349 476T424 441Q430 436 425 428L406 407Q401 398 391 404Q334 440 273 440Q217 440 181 410T145 338Q145 308 166 291T236 270L282 265Q396 253 396 161Q396 83 342 36T197 -10Q155 -10 107 6T26 57Q20 63 27 70L50 92Q57 98 63 92Q124 37 202 37Q266 37 305 70T345 151Q345 173 330 192T259 218L213 223Q94 236 94 331Q94 400 145 443T279 487Z" horiz-adv-x="462" unicode="ѕ"/>
			<glyph d="M175 680H216Q226 680 224 670L214 617Q213 607 203 607H162Q152 607 154 617L164 670Q166 680 175 680ZM143 477H175Q185 477 183 467L102 10Q100 0 92 0H60Q50 0 52 10L132 467Q134 477 143 477Z" horiz-adv-x="228" unicode="і"/>
			<glyph d="M143 477H175Q185 477 183 467L102 10Q100 0 92 0H60Q50 0 52 10L132 467Q134 477 143 477ZM270 680H307Q317 680 315 670L306 617Q304 607 295 607H258Q248 607 250 617L259 670Q261 680 270 680ZM78 680H115Q125 680 123 670L114 617Q112 607 103 607H66Q56 607 58 617L67 670Q69 680 78 680Z" horiz-adv-x="228" unicode="ї"/>
			<glyph d="M175 680H216Q226 680 224 670L214 617Q213 607 203 607H162Q152 607 154 617L164 670Q166 680 175 680ZM143 477H175Q185 477 183 467L91 -56Q80 -120 53 -150T-48 -180H-58Q-68 -180 -66 -170L-62 -142Q-61 -132 -50 -132H-42Q-13 -132 8 -121T40 -56L132 467Q134 477 143 477Z" horiz-adv-x="228" unicode="ј"/>
			<glyph d="M196 477H474Q483 477 481 468L449 282Q448 276 454 276H594Q654 276 686 243T719 158Q719 85 673 42T552 0H358Q354 0 351 3T349 10L423 423Q425 429 418 429H233Q228 429 226 423L195 247Q174 127 130 62T11 -3H-11Q-21 -3 -19 8L-14 37Q-13 45 -3 45H3Q62 45 96 103T150 268L185 468Q187 477 196 477ZM445 228Q440 228 438 222L408 54Q407 48 413 48H557Q607 48 637 76T668 155Q668 190 646 209T585 228Z" horiz-adv-x="776" unicode="љ"/>
			<glyph d="M144 477H174Q185 477 183 468L150 280Q149 274 155 274H389Q395 274 396 280L429 468Q431 477 441 477H471Q481 477 479 468L447 280Q446 274 452 274H593Q652 274 685 242T718 157Q718 84 672 42T551 0H357Q353 0 350 3T348 10L386 220Q388 226 381 226H147Q142 226 140 220L103 10Q101 0 91 0H61Q57 0 54 3T52 10L132 468Q134 477 144 477ZM444 226Q439 226 437 220L407 54Q406 48 412 48H556Q606 48 636 76T667 154Q667 226 584 226Z" horiz-adv-x="775" unicode="њ"/>
			<glyph d="M179 680H211Q221 680 219 670L208 611Q207 605 213 605H328Q338 605 336 594L332 569Q331 560 320 560H205Q200 560 198 554L173 411H174Q199 446 238 466T322 487Q399 487 433 439T452 305L387 -56Q375 -120 348 -150T248 -180H238Q228 -180 230 -170L234 -142Q235 -132 246 -132H254Q283 -132 304 -121T336 -56L399 292Q425 439 304 439Q253 439 209 401T155 305L102 10Q100 0 91 0H59Q50 0 52 10L148 554Q150 560 143 560H72Q62 560 64 571L68 596Q70 605 80 605H150Q156 605 157 611L168 670Q170 680 179 680Z" horiz-adv-x="519" unicode="ћ"/>
			<glyph d="M465 480H481Q491 480 489 470L484 444Q483 434 471 434H466Q446 434 429 427T389 382L343 306Q314 259 283 251V247Q325 237 337 179L352 112Q359 78 373 61T415 45H427Q437 45 435 35L430 7Q428 -3 420 -3H401Q324 -3 304 91L288 163Q275 221 203 221H145Q140 221 138 215L102 10Q100 0 90 0H61Q57 0 54 3T52 10L132 468Q135 477 144 477H173Q184 477 182 468L148 274Q147 268 153 268H211Q265 268 306 336L355 417Q373 446 394 463T465 480ZM374 700H408Q412 700 413 697T412 690L306 568Q296 558 290 558H266Q256 558 263 568L355 690Q363 700 374 700Z" horiz-adv-x="480" unicode="ќ"/>
			<glyph d="M144 477H175Q185 477 183 468L118 94H121L435 472L445 477H479Q491 477 489 468L408 10Q406 0 396 0H366Q362 0 359 3T357 10L422 384H419L106 6L95 0H61Q57 0 54 3T52 10L132 468Q134 477 144 477ZM252 700H283Q292 700 296 690L349 568Q351 564 348 561T342 558H322Q314 558 307 568L245 690Q243 693 245 696T252 700Z" horiz-adv-x="534" unicode="ѝ"/>
			<glyph d="M83 477H116Q126 477 127 467L198 80H199L406 467Q410 477 419 477H454Q465 477 460 467L182 -47Q144 -117 111 -148T27 -180H8Q-2 -180 0 -170L4 -142Q5 -132 16 -132H33Q56 -132 78 -118T137 -39L164 10L75 467Q73 477 83 477ZM198 684Q205 686 206 679Q217 611 276 611Q338 611 373 680Q377 687 385 684L405 677Q411 675 408 667Q366 571 275 571Q180 571 169 669Q168 678 174 680Z" horiz-adv-x="449" unicode="ў"/>
			<glyph d="M144 477H174Q185 477 183 467L110 54Q109 48 115 48H343Q349 48 350 54L423 467Q425 477 434 477H466Q470 477 472 474T474 467L393 9Q392 0 382 0H252Q246 0 244 -6L224 -126Q222 -135 212 -135H183Q173 -135 175 -126L196 -6Q198 0 192 0H61Q51 0 52 9L132 467Q134 477 144 477Z" horiz-adv-x="519" unicode="џ"/>
			<glyph d="M531 812H562Q571 812 569 803L540 638Q539 629 530 629H222Q217 629 215 623L107 10Q105 0 96 0H63Q52 0 54 10L170 671Q172 680 181 680H488Q497 680 499 689L519 803Q521 812 531 812Z" horiz-adv-x="480" unicode="Ґ"/>
			<glyph d="M401 596H429Q439 596 437 586L411 438Q409 429 399 429H182Q177 429 175 423L102 10Q100 0 90 0H60Q56 0 53 3T52 10L132 467Q134 477 143 477H364Q370 477 371 483L390 586Q392 596 401 596Z" horiz-adv-x="390" unicode="ґ"/>
			<glyph d="M122 680H153Q164 680 164 669L193 107H195L447 670Q451 680 461 680H486Q496 680 497 670L550 107H552L780 670Q784 680 794 680H828Q840 680 835 669L563 10Q559 0 550 0H522Q513 0 512 10L459 575H457L202 10Q198 0 188 0H161Q152 0 151 10L112 669Q112 680 122 680ZM382 888H418Q425 888 432 878L492 774Q495 769 493 766T487 764H462Q456 764 449 774L377 878Q375 881 376 884T382 888Z" horiz-adv-x="788" unicode="Ẁ"/>
			<glyph d="M89 477H118Q129 477 130 467L179 80H180L368 467Q373 477 381 477H407Q416 477 418 467L472 80H473L657 467Q663 477 671 477H704Q715 477 710 467L487 10Q481 0 474 0H447Q437 0 437 10L385 398H384L193 10Q189 0 180 0H153Q143 0 143 10L80 467Q78 477 89 477ZM320 700H351Q360 700 364 690L417 568Q419 564 416 561T410 558H390Q382 558 375 568L313 690Q311 693 313 696T320 700Z" horiz-adv-x="706" unicode="ẁ"/>
			<glyph d="M122 680H153Q164 680 164 669L193 107H195L447 670Q451 680 461 680H486Q496 680 497 670L550 107H552L780 670Q784 680 794 680H828Q840 680 835 669L563 10Q559 0 550 0H522Q513 0 512 10L459 575H457L202 10Q198 0 188 0H161Q152 0 151 10L112 669Q112 680 122 680ZM587 888H625Q630 888 630 884T628 878L521 774Q511 764 503 764H478Q474 764 473 767T476 775L570 878Q580 888 587 888Z" horiz-adv-x="788" unicode="Ẃ"/>
			<glyph d="M89 477H118Q129 477 130 467L179 80H180L368 467Q373 477 381 477H407Q416 477 418 467L472 80H473L657 467Q663 477 671 477H704Q715 477 710 467L487 10Q481 0 474 0H447Q437 0 437 10L385 398H384L193 10Q189 0 180 0H153Q143 0 143 10L80 467Q78 477 89 477ZM514 700H548Q552 700 553 697T552 690L446 568Q436 558 430 558H406Q396 558 403 568L495 690Q503 700 514 700Z" horiz-adv-x="706" unicode="ẃ"/>
			<glyph d="M122 680H153Q164 680 164 669L193 107H195L447 670Q451 680 461 680H486Q496 680 497 670L550 107H552L780 670Q784 680 794 680H828Q840 680 835 669L563 10Q559 0 550 0H522Q513 0 512 10L459 575H457L202 10Q198 0 188 0H161Q152 0 151 10L112 669Q112 680 122 680ZM584 861H621Q631 861 629 851L620 797Q618 787 609 787H572Q562 787 564 797L573 851Q575 861 584 861ZM392 861H429Q439 861 437 851L428 797Q426 787 417 787H380Q370 787 372 797L381 851Q383 861 392 861Z" horiz-adv-x="788" unicode="Ẅ"/>
			<glyph d="M89 477H118Q129 477 130 467L179 80H180L368 467Q373 477 381 477H407Q416 477 418 467L472 80H473L657 467Q663 477 671 477H704Q715 477 710 467L487 10Q481 0 474 0H447Q437 0 437 10L385 398H384L193 10Q189 0 180 0H153Q143 0 143 10L80 467Q78 477 89 477ZM516 680H553Q563 680 561 670L552 617Q550 607 541 607H504Q494 607 496 617L505 670Q507 680 516 680ZM324 680H361Q371 680 369 670L360 617Q358 607 349 607H312Q302 607 304 617L313 670Q315 680 324 680Z" horiz-adv-x="706" unicode="ẅ"/>
			<glyph d="M114 680H146Q157 680 159 670L266 343H269L493 670Q499 680 509 680H543Q548 680 550 676T549 669L285 279L237 10Q235 0 226 0H193Q183 0 185 10L232 279L106 669Q102 680 114 680ZM240 888H276Q283 888 290 878L350 774Q353 769 351 766T345 764H320Q314 764 307 774L235 878Q233 881 234 884T240 888Z" horiz-adv-x="496" unicode="Ỳ"/>
			<glyph d="M83 477H116Q126 477 127 467L198 80H199L406 467Q410 477 419 477H454Q465 477 460 467L182 -47Q144 -117 111 -148T27 -180H8Q-2 -180 0 -170L4 -142Q5 -132 16 -132H33Q56 -132 78 -118T137 -39L164 10L75 467Q73 477 83 477ZM195 700H226Q235 700 239 690L292 568Q294 564 291 561T285 558H265Q257 558 250 568L188 690Q186 693 188 696T195 700Z" horiz-adv-x="449" unicode="ỳ"/>
			<glyph d="M69 290H313Q323 290 321 280L317 252Q316 243 305 243H61Q51 243 53 253L58 281Q60 290 69 290Z" horiz-adv-x="356" unicode="‐"/>
			<glyph d="M49 289H459Q469 289 467 279L463 253Q462 244 452 244H41Q32 244 34 254L38 281Q39 289 49 289Z" horiz-adv-x="484" unicode="–"/>
			<glyph d="M49 289H771Q781 289 779 279L775 253Q774 244 764 244H41Q32 244 34 254L38 281Q39 289 49 289Z" horiz-adv-x="796" unicode="—"/>
			<glyph d="M49 289H771Q781 289 779 279L775 253Q774 244 764 244H41Q32 244 34 254L38 281Q39 289 49 289Z" horiz-adv-x="796" unicode="―"/>
			<glyph d="M199 681Q208 681 206 672L182 533Q180 523 171 523H135Q126 523 128 533L140 601Q143 615 148 623L187 673Q193 681 199 681Z" horiz-adv-x="199" unicode="‘"/>
			<glyph d="M162 680H199Q208 680 206 670L194 603Q191 587 186 581L147 530Q141 522 135 522Q127 522 128 531L151 670Q153 680 162 680Z" horiz-adv-x="199" unicode="’"/>
			<glyph d="M55 75H92Q101 75 99 65L87 -2Q84 -18 79 -24L40 -75Q34 -83 28 -83Q20 -83 21 -74L44 65Q46 75 55 75Z" horiz-adv-x="199" unicode="‚"/>
			<glyph d="M330 681Q339 681 337 672L313 533Q311 523 302 523H266Q257 523 259 533L271 601Q274 615 279 623L318 673Q324 681 330 681ZM199 681Q208 681 206 672L182 533Q180 523 171 523H135Q126 523 128 533L140 601Q143 615 148 623L187 673Q193 681 199 681Z" horiz-adv-x="330" unicode="“"/>
			<glyph d="M294 680H330Q339 680 337 670L325 603Q322 587 317 581L278 530Q272 522 266 522Q258 522 259 531L283 670Q285 680 294 680ZM162 680H199Q208 680 206 670L194 603Q191 587 186 581L147 530Q141 522 135 522Q127 522 128 531L151 670Q153 680 162 680Z" horiz-adv-x="330" unicode="”"/>
			<glyph d="M187 75H223Q232 75 230 65L218 -2Q215 -18 210 -24L171 -75Q166 -83 159 -83Q151 -83 152 -74L176 65Q178 75 187 75ZM55 75H92Q101 75 99 65L87 -2Q84 -18 79 -24L40 -75Q34 -83 28 -83Q20 -83 21 -74L44 65Q46 75 55 75Z" horiz-adv-x="330" unicode="„"/>
			<glyph d="M279 680H308Q319 680 317 670L274 433Q273 427 279 427H409Q419 427 417 417L413 390Q412 381 402 381H272Q267 381 265 375L169 -170Q166 -180 157 -180H128Q118 -180 120 -170L216 375Q218 381 212 381H81Q71 381 73 391L77 418Q79 427 89 427H218Q225 427 226 433L268 670Q269 680 279 680Z" horiz-adv-x="424" unicode="†"/>
			<glyph d="M274 680H303Q314 680 312 670L274 462Q273 456 279 456H409Q419 456 417 446L413 419Q412 410 402 410H272Q267 410 265 404L210 98Q209 92 215 92H345Q355 92 353 82L349 55Q348 46 338 46H208Q203 46 201 40L164 -170Q161 -180 152 -180H123Q112 -180 115 -170L152 40Q154 46 148 46H17Q7 46 9 56L13 83Q15 92 24 92H154Q161 92 162 98L216 404Q218 410 212 410H81Q71 410 73 420L77 447Q79 456 88 456H218Q225 456 226 462L263 670Q264 680 274 680Z" horiz-adv-x="424" unicode="‡"/>
			<glyph d="M198 424Q246 424 279 390T312 308Q312 259 279 225T198 192Q149 192 116 225T83 308Q83 357 116 390T198 424Z" horiz-adv-x="360" unicode="•"/>
			<glyph d="M460 85H505Q516 85 514 75L503 10Q501 0 492 0H447Q436 0 438 10L449 75Q451 85 460 85ZM252 85H297Q307 85 305 75L295 10Q293 0 284 0H238Q228 0 230 10L241 75Q243 85 252 85ZM43 85H89Q99 85 97 75L87 10Q85 0 76 0H30Q20 0 22 10L32 75Q34 85 43 85Z" horiz-adv-x="625" unicode="…"/>
			<glyph d="M632 690H657Q666 690 661 680L163 0Q156 -10 147 -10H122Q111 -10 118 0L617 680Q624 690 632 690ZM275 688Q316 688 342 663T368 595Q368 564 355 497T330 404Q294 330 217 330Q175 330 149 354T123 423Q123 453 136 520T162 614Q198 688 275 688ZM271 650Q224 650 200 604Q188 580 176 517T164 426Q164 399 179 383T221 368Q267 368 291 414Q303 438 315 500T327 592Q327 618 312 634T271 650ZM854 350Q895 350 921 325T947 257Q947 226 934 158T909 65Q873 -8 795 -8Q754 -8 728 16T702 84Q702 115 714 182T740 276Q776 350 854 350ZM563 350Q605 350 631 325T657 257Q657 227 644 159T618 65Q582 -8 505 -8Q463 -8 437 16T411 84Q411 114 424 182T450 276Q486 350 563 350ZM849 311Q802 311 779 266Q766 242 754 180T742 88Q742 62 757 46T799 30Q846 30 870 75Q882 99 894 162T906 254Q906 280 891 295T849 311ZM559 311Q513 311 488 266Q476 242 464 179T452 88Q452 61 467 45T509 30Q555 30 579 75Q591 99 603 161T616 254Q616 280 601 295T559 311Z" horiz-adv-x="1023" unicode="‰"/>
			<glyph d="M257 445T260 440L254 398Q251 388 244 379L114 265Q109 261 112 257L200 143Q206 135 205 124L199 87Q198 83 194 82T188 84L56 257Q50 265 58 271L251 444Q254 447 257 445Z" horiz-adv-x="297" unicode="‹"/>
			<glyph d="M117 445T123 444L256 270Q263 263 254 256L60 84Q57 81 53 82T51 88L58 130Q59 139 68 148L198 262Q202 266 200 270L111 385Q106 393 107 403L113 440Q114 444 117 445Z" horiz-adv-x="297" unicode="›"/>
			<glyph d="M301 690Q365 690 402 653T440 555Q440 476 351 375L286 300Q261 270 252 255T239 219L232 183Q230 173 221 173H190Q180 173 182 183L227 477Q229 487 238 487H275Q285 487 283 477L252 327H254L301 382Q337 424 363 464T389 548Q389 592 362 617T293 642Q246 642 208 611T152 528Q149 519 140 520L110 525Q101 526 105 537Q126 605 177 647T301 690ZM170 85H215Q225 85 223 75L213 10Q211 0 202 0H156Q146 0 148 10L159 75Q161 85 170 85Z" horiz-adv-x="428" unicode="‽"/>
			<glyph d="M363 690H388Q397 690 392 680L-105 0Q-114 -10 -121 -10H-146Q-150 -10 -151 -7T-150 0L347 680Q354 690 363 690Z" horiz-adv-x="201" unicode="⁄"/>
			<glyph d="M267 843Q312 843 339 816T366 745Q366 712 348 619T318 501Q282 423 194 423Q149 423 122 449T96 521Q96 554 113 646T143 765Q179 843 267 843ZM261 802Q208 802 183 752Q171 728 155 642T139 526Q139 464 200 464Q254 464 279 515Q291 539 306 624T322 740Q322 802 261 802Z" horiz-adv-x="317" unicode="⁰"/>
			<glyph d="M279 836H306Q310 836 311 832T310 826L132 548V547H248Q254 547 255 553L273 653Q275 663 284 663H306Q316 663 314 653L297 553Q296 547 302 547H337Q346 547 344 537L341 516Q340 507 331 507H294Q290 507 288 501L277 440Q275 430 265 430H243Q234 430 236 440L246 501Q248 507 241 507H86Q76 507 78 517L81 538L88 553L265 826Q271 836 279 836Z" horiz-adv-x="317" unicode="⁴"/>
			<glyph d="M174 836H369Q379 836 377 826L373 805Q372 796 363 796H205Q200 796 198 790L175 665H176Q202 697 254 697Q293 697 318 674T343 611Q343 588 335 550T318 494Q283 423 198 423Q154 423 130 445T102 504Q100 514 108 517L132 525Q140 527 141 519Q151 464 205 464Q257 464 281 511Q288 526 294 555T300 600Q300 656 241 656Q194 656 170 618Q165 609 157 609H135Q125 609 127 619L163 826Q165 836 174 836Z" horiz-adv-x="317" unicode="⁵"/>
			<glyph d="M282 836H311Q315 836 316 833T315 826L196 659L197 658Q216 670 244 670Q287 670 313 644T340 575Q340 511 299 467T194 423Q148 423 119 450T91 522Q91 575 137 642L269 827Q274 836 282 836ZM231 631Q191 631 162 601T134 528Q134 499 152 481T201 464Q241 464 269 493T298 566Q298 595 280 613T231 631Z" horiz-adv-x="317" unicode="⁶"/>
			<glyph d="M166 836H376Q386 836 384 826L380 801L374 786L169 438Q164 430 156 430H131Q127 430 125 433T127 441L335 794V796H197Q192 796 190 790L182 748Q180 738 172 738H150Q140 738 142 748L155 826Q157 836 166 836Z" horiz-adv-x="317" unicode="⁷"/>
			<glyph d="M267 843Q311 843 337 817T364 752Q364 720 345 690T297 644V643Q315 633 327 612T340 566Q340 505 298 464T194 423Q147 423 118 450T89 520Q89 559 110 593T169 644V646Q133 668 133 714Q133 765 172 804T267 843ZM260 803Q228 803 201 778T175 719Q175 694 192 678T237 662Q269 662 295 687T322 746Q322 771 304 787T260 803ZM229 623Q190 623 160 595T131 528Q131 499 150 481T200 463Q239 463 268 491T298 558Q298 587 279 605T229 623Z" horiz-adv-x="317" unicode="⁸"/>
			<glyph d="M268 843Q314 843 342 815T371 744Q371 691 325 624L193 439Q188 430 180 430H151Q147 430 145 433T147 440L265 607V608Q246 596 218 596Q175 596 148 622T121 691Q121 754 162 798T268 843ZM261 802Q221 802 192 772T164 700Q164 671 182 653T231 635Q271 635 299 665T328 738Q328 767 310 784T261 802Z" horiz-adv-x="317" unicode="⁹"/>
			<glyph d="M166 257Q211 257 238 230T265 159Q265 126 247 33T217 -85Q181 -163 93 -163Q48 -163 21 -137T-5 -65Q-5 -32 12 60T42 179Q78 257 166 257ZM160 216Q107 216 82 166Q70 142 54 56T38 -60Q38 -122 99 -122Q153 -122 178 -71Q190 -47 205 38T221 154Q221 216 160 216Z" horiz-adv-x="317" unicode="₀"/>
			<glyph d="M167 250H189Q200 250 198 240L130 -146Q128 -156 118 -156H96Q86 -156 88 -146L148 195H146L72 149Q69 146 65 148T63 154L67 182Q68 190 77 196L151 244Q161 250 167 250Z" horiz-adv-x="317" unicode="₁"/>
			<glyph d="M167 257Q211 257 236 231T262 168Q262 107 201 46L39 -115V-116H207Q217 -116 215 -126L212 -146Q210 -156 200 -156H-15Q-25 -156 -23 -146L-19 -126L-11 -112L171 71Q220 120 220 161Q220 186 204 201T162 216Q104 216 78 155Q75 146 66 147L45 152Q37 154 40 164Q53 203 87 230T167 257Z" horiz-adv-x="317" unicode="₂"/>
			<glyph d="M163 257Q207 257 233 232T259 170Q259 93 190 58V57Q208 48 221 27T234 -21Q234 -83 195 -123T94 -163Q49 -163 21 -139T-11 -80Q-13 -71 -3 -68L19 -62Q27 -60 30 -69Q34 -92 51 -107T98 -122Q137 -122 164 -94T191 -28Q191 -1 173 16T125 34H108Q99 34 101 44L104 65Q106 75 116 75H129Q164 75 190 100T216 162Q216 186 200 201T157 216Q101 216 77 168Q72 159 65 160L45 166Q37 167 40 177Q54 211 86 234T163 257Z" horiz-adv-x="317" unicode="₃"/>
			</font>
</defs>
</svg>
